<svg width="87" height="23" viewBox="0 0 87 23" fill="none" xmlns="http://www.w3.org/2000/svg">
<path d="M81.0638 22.578C81.0638 22.0496 80.9723 21.7494 80.7893 21.6774C80.7321 21.6533 80.6749 21.6413 80.6178 21.6413H79.6913L80.0886 13.2469L80.9292 11.5896L84.4435 22.578H86.9998C86.9998 22.0496 86.9083 21.7494 86.7253 21.6774C86.6681 21.6533 86.6109 21.6413 86.5537 21.6413H86.142L82.113 9.28385L85.0981 3.24875C85.5327 2.38409 85.853 1.69309 86.0589 1.573C86.1618 1.52497 86.2704 1.50095 86.3848 1.50095C86.8137 1.50095 86.7909 0.911564 86.8137 0.527269C86.8252 0.407177 86.8309 0.287084 86.8309 0.166992C84.7726 0.496342 84.7105 0.527269 83.6181 0.69496L83.7256 1.50095H85.0981L80.0886 11.5536V1.89818L81.461 1.69957V0.961466C79.4471 1.29082 78.6526 1.29082 77.0691 1.55732V2.29542L78.4416 2.0968L78.0444 21.6413H76.6719V22.578H81.0638Z" fill="white"/>
<path d="M59.7048 22.5671L59.7157 21.9427L58.3148 21.9182L58.4192 15.9386L59.9251 15.9648L62.5765 22.6172L65.3082 22.6649C65.3147 22.2967 65.2423 22.0952 65.0911 22.0605C65.033 22.0435 64.9689 22.0344 64.8989 22.0332L64.321 22.0231L61.6274 15.7784C62.7551 15.3977 63.528 14.6024 63.9462 13.3926C64.0944 12.9308 64.1726 12.4597 64.181 11.9794C64.202 10.7787 63.8394 9.81145 63.0931 9.07776C62.4728 8.4904 61.7074 8.18878 60.7968 8.17288C60.7968 8.17288 58.4314 7.94458 55.4735 8.67582L55.4626 9.49882L56.8635 9.32466L56.6338 21.8889L55.2329 21.8644L55.222 22.4888L59.7048 22.5671ZM60.1555 8.98488C61.1361 9.002 61.8033 9.38355 62.157 10.5268C62.289 10.9935 62.3505 11.483 62.3416 11.9953C62.3209 13.1801 62.0132 14.0795 61.4187 14.6937C61.0498 15.0877 60.6144 15.2802 60.1124 15.2715L58.4314 15.2421L58.5445 8.95676L60.1555 8.98488Z" fill="white"/>
<path d="M51.7847 22.5782C51.7847 22.2846 51.6928 22.1178 51.5089 22.0778C51.4515 22.0645 51.394 22.0578 51.3366 22.0578H50.1473V11.288H51.0263C51.98 11.3014 52.612 11.3927 52.9223 12.7537L53.2498 14.1748H53.7324L53.6634 10.1718C53.6634 10.1718 49.5551 10.9239 45.0626 10.7676L44.9764 14.7707H45.4591L45.7865 13.3496C46.1083 11.9885 46.746 11.3014 47.6997 11.288H48.4926V22.0578H46.8552V22.5782H51.7847Z" fill="white"/>
<path d="M36.5218 22.5781C36.5218 22.2845 36.4299 22.1177 36.246 22.0777C36.1886 22.0644 36.1311 22.0577 36.0737 22.0577H35.1429V16.6736H40.2621V22.0577H38.8832V22.5781H43.2956C43.2956 22.2845 43.2037 22.1177 43.0198 22.0777C42.9624 22.0644 42.9049 22.0577 42.8475 22.0577H41.9167V11.0893H43.2956V10.7675C43.2956 10.7675 40.9157 10.6259 38.8832 10.3703V10.8907L40.2621 11.0893V16.0931H35.1429V10.692H36.5218V10.1717C36.5218 10.1717 34.0634 10.1717 32.1094 9.77441V10.2948L33.4883 10.4934V22.0577H32.1094V22.5781H36.5218Z" fill="white"/>
<path d="M29.9227 21.2284C29.9341 21.8791 30.0205 22.2496 30.1819 22.3398C30.2509 22.3695 30.3539 22.3832 30.4909 22.3809L30.4134 17.942L29.9683 17.9498C29.4427 20.5471 28.3183 21.8686 26.5951 21.9142C25.0085 21.9419 23.9661 20.7667 23.4679 18.3887C23.2813 17.5086 23.1782 16.5107 23.1587 15.3952C23.1071 12.436 23.6661 10.4502 24.8359 9.43791C25.3083 9.02671 25.8412 8.81593 26.4348 8.80557C28.1018 8.80747 29.827 10.0586 30.4186 12.559L31.0624 12.5512C30.0909 10.8244 29.7435 8.00758 29.7435 8.00758C29.481 8.01216 29.3232 8.13115 29.2702 8.36455C29.2506 8.55087 29.2441 8.82995 29.2505 9.20179C28.588 8.53144 28.1162 8.32678 27.0406 8.19057C26.8003 8.16377 26.5604 8.15246 26.3207 8.15664C24.4944 8.18852 23.112 9.11929 22.1734 10.9489C21.5224 12.2467 21.2116 13.7322 21.2408 15.4054C21.2762 17.4351 21.7739 19.1312 22.7339 20.4937C23.7404 21.902 25.037 22.5923 26.6235 22.5646C27.7875 22.5288 28.8872 22.0834 29.9227 21.2284Z" fill="white"/>
<path d="M19.1622 11.0637L19.0735 6.1624C19.0735 6.1624 15.4923 6.09649 10.7557 5.16931V6.09649L12.1745 6.29511L12.175 21.8495H10.7561V22.5781H19.0739L19.1626 17.4781H18.7724L18.4887 18.9072C18.1813 20.5138 17.7083 21.4572 17.0699 21.7374C16.9043 21.8121 16.7329 21.8495 16.5555 21.8495H13.8775L13.7979 14.3117H17.8923V13.4991H13.7979L13.8771 6.49373L16.5551 6.69234C17.4655 6.69234 18.104 7.63573 18.4705 9.52251C18.4823 9.55988 18.4882 9.59724 18.4882 9.6346L18.772 11.0637H19.1622Z" fill="white"/>
<path d="M75.1811 10.9929L75.0949 5.55225C70.3953 6.23508 69.898 6.33337 67.0029 6.73171V7.2562H68.3832L67.5876 22.061H66.2073V22.7821H74.2992L74.3855 17.7346H74.0059L73.7299 19.149C73.4308 20.739 72.9707 21.6727 72.3496 21.9501C72.1885 22.024 72.0218 22.061 71.8492 22.061H69.2439L69.6417 14.6007H73.1615V13.7964H69.6417L70.0396 7.05962L72.6449 6.86305C73.5305 6.86305 74.1517 7.60016 74.5082 9.46755C74.5197 9.50453 74.5255 9.54151 74.5255 9.57849L74.8016 10.9929H75.1811Z" fill="white"/>
<path d="M7.34001 22.5782C7.34001 22.0498 7.24671 21.7496 7.06011 21.6776C7.0018 21.6535 6.94348 21.6415 6.88517 21.6415H5.6781L5.3627 2.49424H6.25648C7.22447 2.51826 8.09441 3.35797 8.40929 5.80785L8.74167 8.36581H9.43012L9.03714 1.48964C9.03714 1.48964 2.38342 0.893783 0 0L0.5433 8.1672H1.23174L1.36551 5.60923C1.49344 3.15936 1.94209 1.92241 2.91007 1.89839L3.71478 2.09701L3.99871 21.6415H2.3368V22.5782H7.34001Z" fill="white"/>
</svg>
