<svg width="108" height="109" viewBox="0 0 108 109" fill="none" xmlns="http://www.w3.org/2000/svg">
<circle cx="54" cy="54.1885" r="54" fill="#FFDCB2"/>
<mask id="mask0_278_2410" style="mask-type:alpha" maskUnits="userSpaceOnUse" x="0" y="0" width="108" height="109">
<circle cx="54" cy="54.1885" r="54" fill="#FFDCB2"/>
</mask>
<g mask="url(#mask0_278_2410)">
<path d="M35.3633 106.37C36.6887 104.881 37.7064 99.5885 37.1541 97.4164L72.203 98.6955C72.203 102.021 72.7147 104.068 73.2263 106.115C61.96 111.328 42.2667 108.543 35.3633 106.37Z" fill="url(#paint0_linear_278_2410)"/>
<path d="M38.4998 104.16C39.3562 103.279 39.3271 100.896 38.9702 99.612L60.1081 92.8405C60.1081 94.8066 60.4388 96.0166 60.7694 97.2266C53.4896 100.308 42.9604 105.444 38.4998 104.16Z" fill="url(#paint1_linear_278_2410)"/>
<path d="M33.6382 107.14C34.1845 106.477 36.3772 106.675 35.9906 105.885L62.4946 95.5345C62.6131 96.3288 65.532 98.4018 67.0459 99.3035C67.1564 99.2486 67.26 99.1946 67.3562 99.1416C68.3537 99.9629 67.9508 99.8425 67.0459 99.3035C61.3376 102.14 36.984 107.472 33.6382 107.14Z" fill="url(#paint2_linear_278_2410)"/>
<path d="M33.5201 74.99L39.166 45.9768L43.5571 38.4491L58.6126 31.8623L68.4928 42.9971L72.5704 74.049L33.5201 74.99Z" fill="url(#paint3_linear_278_2410)"/>
<path d="M46.6979 65.6563C47.9525 64.5271 48.1616 61.2128 48.1093 59.6968L54.5393 61.4219L59.401 58.4422C59.2755 60.7005 60.0806 63.6698 60.4988 64.8722C63.6353 67.7578 67.6606 68.061 69.2811 67.8519L67.7129 74.7523L63.1648 81.1823L53.7552 82.7506L47.0115 81.4959L42.4635 74.7523L41.993 68.7929C43.0386 68.2178 45.4433 66.7855 46.6979 65.6563Z" fill="url(#paint4_linear_278_2410)"/>
<path d="M36.0335 70.9884L29.9172 74.9091C29.9172 71.2707 35.7722 50.6008 38.6996 40.7206C39.902 36.8522 43.8436 28.6448 49.9912 26.7629C57.6758 24.4105 62.6943 27.0765 67.0855 32.4087C70.5985 36.6744 75.5542 59.9059 77.593 70.9884L71.3199 70.3611L68.0265 50.1303L62.6943 34.1338L50.4617 30.0563L40.8952 45.5823L36.0335 70.9884Z" fill="url(#paint5_linear_278_2410)"/>
<path d="M41.8362 42.9161C41.4598 44.4217 39.0656 61.631 37.9155 70.0474L35.4062 70.5179C36.2845 55.8388 41.3134 40.5637 43.7181 34.7611C49.6149 25.6023 58.5123 27.5993 62.2239 29.7426C69.6262 35.7648 71.8949 58.3899 72.104 68.9496L67.8697 67.8519C68.497 63.4607 66.1446 45.8959 65.5173 37.7408C64.5763 34.8134 61.0947 28.8643 53.4415 29.7426C43.875 30.8404 42.3067 41.0342 41.8362 42.9161Z" fill="url(#paint6_linear_278_2410)"/>
<path d="M66.1445 51.2281C67.0228 47.8406 65.9877 46.0527 65.3604 45.5822L63.1648 51.5417C62.9034 52.535 62.663 54.396 63.7921 53.8941C64.9213 53.3923 65.8309 51.9076 66.1445 51.2281Z" fill="url(#paint7_linear_278_2410)"/>
<path d="M57.6758 61.2651C56.4915 62.2032 54.9574 62.9902 54.2255 63.1471C48.7052 62.5197 44.1885 55.2534 42.6203 51.6986L42.1498 47.9347L42.6203 43.2299L47.4819 37.5841L53.5982 32.8792L59.4009 36.0158L63.9489 42.7594C64.2103 44.1708 64.733 47.4329 64.733 49.1893C64.733 51.3849 62.2196 56.1706 61.9101 56.8739C61.2128 58.4587 59.5535 59.7777 57.6758 61.2651Z" fill="url(#paint8_linear_278_2410)"/>
<path d="M46.5411 48.7188C48.6739 49.7225 50.5663 49.137 51.2459 48.7188C51.0117 50.3582 48.7556 50.0303 47.4358 49.7243C47.2575 49.6829 47.0851 49.6188 46.9224 49.5348C45.5155 48.8087 44.7654 48.2231 43.875 47.7778C44.5023 47.7778 45.9138 48.4051 46.5411 48.7188Z" fill="#08102A"/>
<path d="M61.4396 48.7188C59.3068 49.7225 57.4144 49.137 56.7348 48.7188C56.969 50.3582 59.2251 50.0303 60.5449 49.7243C60.7232 49.6829 60.8956 49.6188 61.0583 49.5348C62.4653 48.8087 63.2153 48.2231 64.1057 47.7778C63.4784 47.7778 62.0669 48.4051 61.4396 48.7188Z" fill="#08102A"/>
<path d="M42.3066 61.4219C41.6793 61.2964 41.5225 60.115 41.5225 59.5399H43.0907C43.0907 60.2195 42.9339 61.5473 42.3066 61.4219Z" fill="url(#paint9_linear_278_2410)"/>
<path d="M40.108 59.507C40.1973 58.8 41.0558 56.6929 41.5226 55.6193L41.3657 53.8942L42.4635 52.0122C42.6726 51.8031 43.1849 51.7613 43.5613 53.2669C43.9377 54.7724 43.1954 55.4625 42.7772 55.6193L44.0318 56.2466L44.6105 59.4292C44.6384 59.5827 44.5497 59.7344 44.3975 59.7689C43.2692 60.0253 41.3361 59.865 40.301 59.7239C40.1841 59.708 40.0932 59.6241 40.108 59.507Z" fill="url(#paint10_linear_278_2410)"/>
<path d="M65.0467 61.2651C64.4194 61.1396 64.2626 59.9582 64.2626 59.3831H65.8309C65.8309 60.0627 65.674 61.3905 65.0467 61.2651Z" fill="url(#paint11_linear_278_2410)"/>
<path d="M62.7019 59.4563C62.7911 58.7493 63.6497 56.6421 64.1164 55.5686L63.9596 53.8434L65.0574 51.9615C65.2665 51.7524 65.7788 51.7106 66.1552 53.2161C66.5316 54.7217 65.7893 55.4117 65.3711 55.5686L66.6257 56.1959L67.2043 59.3785C67.2323 59.532 67.1436 59.6836 66.9914 59.7182C65.863 59.9746 63.9299 59.8143 62.8949 59.6732C62.7779 59.6573 62.6871 59.5734 62.7019 59.4563Z" fill="url(#paint12_linear_278_2410)"/>
<path d="M45.1296 57.0307C45.0041 57.7835 43.0908 58.9127 42.1498 59.3831C45.6001 56.7171 43.0908 57.0307 40.8952 55.4624C39.1387 54.2078 40.8952 52.3259 41.8362 50.2871C40.0797 33.3497 49.9912 29.429 55.1666 29.5858C65.329 30.464 66.7196 39.8842 66.1445 44.4845C65.2036 46.3664 64.3881 49.3461 66.1445 50.6008C67.901 51.8554 67.556 53.2668 66.9287 53.7373C66.1445 54.051 64.639 54.4901 66.1445 55.6193C67.6501 56.7484 67.0855 57.9717 66.615 58.4422C66.7719 57.0307 64.8899 56.8739 63.9489 55.4624C63.008 54.051 65.6741 52.169 65.6741 51.5417C65.6741 51.2281 64.4194 50.2871 64.4194 49.503C64.4194 48.7188 63.6353 42.7594 60.9692 41.5047C58.8364 40.501 56.2121 37.2181 55.1666 35.7021C54.9575 36.5908 53.2219 38.9955 47.9525 41.5047C42.683 44.014 42.5158 49.9735 43.0908 52.6395C41.8362 53.7373 41.993 54.626 42.4635 55.1488C43.0908 55.7761 45.255 56.2779 45.1296 57.0307Z" fill="#08102A"/>
<path d="M52.1349 53.11C51.7647 53.3568 51.2464 53.9738 52.1349 54.4674C52.4228 54.5497 53.048 54.8129 53.2455 55.2078C53.41 55.3723 53.8625 55.6027 54.3561 55.2078C54.5206 54.961 54.9484 54.4427 55.3433 54.344C55.8369 54.2206 55.9603 53.2334 55.2199 53.11" stroke="black" stroke-width="0.246803" stroke-linecap="round"/>
<circle cx="53.912" cy="43.7003" r="1.25463" fill="url(#paint13_linear_278_2410)"/>
<path d="M44.3455 46.0528C45.9765 44.0454 49.5208 45.3209 51.0891 46.2096L51.4027 46.0528C48.0152 43.0417 45.2864 44.7982 44.3455 46.0528Z" fill="#08102A"/>
<path d="M63.4785 46.0528C61.8475 44.0454 58.3032 45.3209 56.7349 46.2096L56.4212 46.0528C59.8087 43.0417 62.5375 44.7982 63.4785 46.0528Z" fill="#08102A"/>
<path d="M36.3472 70.3611C38.386 70.2043 41.5226 69.2633 41.8362 68.9497C43.4672 75.5992 47.9525 78.4116 49.9913 78.9867C58.5227 79.8649 65.465 71.8249 67.8697 67.6951C68.7479 66.9423 70.013 67.695 70.5358 68.1655C72.1668 67.5382 73.6201 68.7405 74.1428 69.4201C75.5229 68.9183 76.8089 69.7338 77.2794 70.2043C80.165 70.2043 79.3182 71.1452 78.534 71.6157C81.4197 72.7449 86.3232 91.0101 88.4142 100.002C84.5248 103.013 78.7431 101.256 76.3384 100.002C75.5856 99.1234 75.3975 95.8718 75.3975 94.3558C74.8956 95.3595 71.7381 98.0151 70.2221 99.2175L56.4212 93.1012H51.8732C49.1026 95.14 43.4359 99.2175 42.934 99.2175C42.4322 99.2175 37.2882 98.6947 34.779 98.4333C35.5317 96.3005 34.4653 95.3491 33.838 95.14L31.6424 101.099C27.8785 102.981 22.3373 100.629 20.0371 99.2175C21.6577 94.6172 25.3379 84.1934 27.0944 79.3003C29.29 73.184 34.3085 70.5179 36.3472 70.3611Z" fill="url(#paint14_linear_278_2410)"/>
<mask id="mask1_278_2410" style="mask-type:alpha" maskUnits="userSpaceOnUse" x="20" y="67" width="69" height="35">
<path d="M36.3472 70.3611C38.386 70.2043 41.5226 69.2633 41.8362 68.9497C43.4672 75.5992 47.9525 78.4116 49.9913 78.9867C58.5227 79.8649 65.465 71.8249 67.8697 67.6951C68.7479 66.9423 70.013 67.695 70.5358 68.1655C72.1668 67.5382 73.6201 68.7405 74.1428 69.4201C75.5229 68.9183 76.8089 69.7338 77.2794 70.2043C80.165 70.2043 79.3182 71.1452 78.534 71.6157C81.4197 72.7449 86.3232 91.0101 88.4142 100.002C84.5248 103.013 78.7431 101.256 76.3384 100.002C75.5856 99.1234 75.3975 95.8718 75.3975 94.3558C74.8956 95.3595 71.7381 98.0151 70.2221 99.2175L56.4212 93.1012H51.8732C49.1026 95.14 43.4359 99.2175 42.934 99.2175C42.4322 99.2175 37.2882 98.6947 34.779 98.4333C35.5317 96.3005 34.4653 95.3491 33.838 95.14L31.6424 101.099C27.8785 102.981 22.3373 100.629 20.0371 99.2175C21.6577 94.6172 25.3379 84.1934 27.0944 79.3003C29.29 73.184 34.3085 70.5179 36.3472 70.3611Z" fill="url(#paint15_linear_278_2410)"/>
</mask>
<g mask="url(#mask1_278_2410)">
<path d="M49.8344 78.0456L41.993 69.2632L41.5225 68.3223H40.4247V69.8905C40.8011 77.4183 46.541 80.6594 49.3639 81.339L49.8344 78.0456Z" fill="url(#paint16_linear_278_2410)"/>
<path d="M58.6168 79.7708L57.3622 76.791L66.3014 68.1655L67.8697 65.8131L72.4177 65.6562L70.3789 70.2043L65.9877 75.5364L58.6168 79.7708Z" fill="url(#paint17_linear_278_2410)"/>
<path d="M34.3084 95.4535C33.3047 94.3244 33.1583 92.6829 33.2106 92.0033V90.2782L37.4449 86.3575L48.2661 82.4368L60.8123 78.2024C67.2109 74.4385 70.3789 69.1064 71.163 66.9108L78.3771 68.0086L74.2996 72.7134L73.6722 84.1619L71.163 94.0421L63.7921 95.7672L57.6758 92.4738H50.7753L34.7789 99.0606C35.0402 98.3287 35.3121 96.5827 34.3084 95.4535Z" fill="url(#paint18_linear_278_2410)"/>
<path d="M71.6335 87.4553C71.5081 93.603 66.04 95.0354 63.3217 94.9831L71.9472 99.2174L74.1428 96.5514C76.3384 93.7285 76.652 88.5531 76.4952 86.9848C76.3384 85.4166 75.3974 84.3188 75.0838 77.732C74.8328 72.4626 77.9067 71.4589 79.475 71.6157L80.7296 68.1655L75.7111 69.5769C71.7904 71.6157 71.7904 79.7708 71.6335 87.4553Z" fill="url(#paint19_linear_278_2410)"/>
<path d="M32.2697 90.5431C33.5475 85.347 43.9834 81.1965 49.0416 79.7708L49.5208 82.9391C41.0869 83.8262 35.3578 89.751 33.5475 92.6025C32.653 92.856 32.3229 91.3352 32.2697 90.5431Z" fill="url(#paint20_linear_278_2410)"/>
</g>
<mask id="mask2_278_2410" style="mask-type:alpha" maskUnits="userSpaceOnUse" x="20" y="67" width="69" height="35">
<path d="M36.3472 70.3611C38.386 70.2043 41.5226 69.2633 41.8362 68.9497C43.4672 75.5992 47.9525 78.4116 49.9913 78.9867C58.5227 79.8649 65.465 71.8249 67.8697 67.6951C68.7479 66.9423 70.013 67.695 70.5358 68.1655C72.1668 67.5382 73.6201 68.7405 74.1428 69.4201C75.5229 68.9183 76.8089 69.7338 77.2794 70.2043C80.165 70.2043 79.3182 71.1452 78.534 71.6157C81.4197 72.7449 86.3232 91.0101 88.4142 100.002C84.5249 103.013 78.7431 101.256 76.3384 100.002C75.5856 99.1234 75.3975 95.8718 75.3975 94.3558C74.8956 95.3595 71.7381 98.0151 70.2221 99.2175L56.4212 93.1012H51.8732C49.1026 95.14 43.4359 99.2175 42.934 99.2175C42.4322 99.2175 37.2882 98.6947 34.779 98.4333C35.5317 96.3005 34.4653 95.3491 33.838 95.14L31.6424 101.099C27.8785 102.981 22.3373 100.629 20.0371 99.2175C21.6577 94.6172 25.3379 84.1934 27.0944 79.3003C29.29 73.184 34.3085 70.5179 36.3472 70.3611Z" fill="url(#paint21_linear_278_2410)"/>
</mask>
<g mask="url(#mask2_278_2410)">
<path d="M34.1517 96.2377C31.0151 96.9905 23.9579 94.5649 20.8213 93.258L16.7438 100.002L22.5464 102.981L26.4671 104.236L32.5834 101.57L34.1517 96.2377Z" fill="url(#paint22_linear_278_2410)"/>
<path d="M74.9094 95.3762C77.9545 96.4402 85.2197 94.7356 88.4717 93.7504L91.8513 100.869L85.7787 103.251L81.7518 104.106L75.9342 100.839L74.9094 95.3762Z" fill="url(#paint23_linear_278_2410)"/>
</g>
<path d="M18.4646 103.062C18.9351 101.808 19.5624 100.239 20.1897 99.2983C21.4401 99.8497 22.5421 100.396 23.6399 100.867C24.1104 100.396 31.3287 98.5902 34.4652 98.1197C36.9745 97.7433 45.7569 93.7808 49.8344 91.8465C49.4162 91.6897 48.5484 89.8705 48.423 83.8483C48.2975 77.8261 52.1346 71.093 54.0688 68.4792V72.0862V94.6695C53.8178 95.5477 44.6591 101.831 40.1111 104.863C30.4504 112.015 20.9258 112.862 17.371 112.391C15.9968 109.643 17.7369 105.003 18.4554 103.087L18.4646 103.062Z" fill="url(#paint24_linear_278_2410)"/>
<path d="M89.512 103.062C89.0415 101.808 88.8805 101.023 88.2532 100.082C86.9985 100.553 85.5829 101.416 84.3324 101.572C83.862 101.102 76.6479 98.5902 73.5113 98.1197C71.0021 97.7433 62.2197 93.7808 58.1422 91.8465C58.5604 91.6897 59.4281 89.8705 59.5536 83.8483C59.6791 77.8261 55.842 71.093 53.9078 68.4792V72.0862V94.6695C54.1587 95.5477 63.3175 101.831 67.8655 104.863C77.5261 112.015 87.0508 112.862 90.6056 112.391C91.9798 109.643 90.2397 105.003 89.5211 103.087L89.512 103.062Z" fill="url(#paint25_linear_278_2410)"/>
<path d="M51.7222 57.5008C51.7235 57.6921 51.7817 57.8812 51.8933 58.0571C52.005 58.2331 52.168 58.3926 52.373 58.5265C52.578 58.6604 52.821 58.766 53.0881 58.8374C53.3553 58.9088 53.6413 58.9445 53.9299 58.9425C54.2186 58.9405 54.5041 58.9009 54.7702 58.8258C55.0364 58.7508 55.2779 58.6418 55.4811 58.5051C55.6842 58.3685 55.845 58.2067 55.9542 58.0292C56.0634 57.8517 56.119 57.6619 56.1177 57.4706L53.9199 57.4857L51.7222 57.5008Z" fill="white"/>
<path d="M52.4575 96.1618C50.2619 94.5935 49.7914 93.3389 49.3209 92.0843C48.6936 92.2411 47.9095 92.5548 47.5958 92.8684C48.0435 94.8413 49.3569 96.3478 50.8892 97.4164C51.2029 97.4164 52.4202 96.6423 52.4575 96.1618Z" fill="#FE9C25"/>
<path d="M55.0612 95.9491C57.2568 94.3808 57.7273 93.1262 58.1978 91.8716C58.8251 92.0284 59.6092 92.3421 59.9229 92.6557C59.4752 94.6286 58.1618 96.1352 56.6295 97.2037C56.3158 97.2037 55.0984 96.4296 55.0612 95.9491Z" fill="#FE9C25"/>
<path d="M73.4725 69.8146C72.3747 71.1738 70.1791 75.0527 70.1791 79.6948C70.1791 85.4975 70.1791 87.5362 69.2382 88.9477" stroke="url(#paint26_linear_278_2410)" stroke-width="0.313656"/>
<path d="M71.1201 71.0693C70.6496 72.0102 67.8267 74.3627 68.1403 81.1063" stroke="url(#paint27_linear_278_2410)" stroke-width="0.313656"/>
<path d="M67.9836 83.4587C67.6699 84.0861 68.454 89.2614 62.1809 90.6728" stroke="url(#paint28_linear_278_2410)" stroke-width="0.313656"/>
<path d="M36.9315 94.9072C37.0883 94.5935 40.5386 89.4182 45.5571 89.1045" stroke="url(#paint29_linear_278_2410)" stroke-width="0.313656"/>
<path d="M41.1659 88.7908C42.1591 88.1635 44.8357 87.0344 47.5958 87.5362" stroke="url(#paint30_linear_278_2410)" stroke-width="0.313656"/>
</g>
<defs>
<linearGradient id="paint0_linear_278_2410" x1="54.341" y1="97.078" x2="54.341" y2="109.088" gradientUnits="userSpaceOnUse">
<stop stop-color="#E02B76"/>
<stop offset="1" stop-color="#F07D8E"/>
</linearGradient>
<linearGradient id="paint1_linear_278_2410" x1="49.4042" y1="92.8405" x2="49.4042" y2="103.61" gradientUnits="userSpaceOnUse">
<stop stop-color="#F72D5D"/>
<stop offset="1" stop-color="#C62426"/>
<stop offset="1" stop-color="#E92A2D"/>
</linearGradient>
<linearGradient id="paint2_linear_278_2410" x1="49.9207" y1="97.4104" x2="51.0035" y2="104.668" gradientUnits="userSpaceOnUse">
<stop stop-color="#7F02AC"/>
<stop offset="1" stop-color="#B22DE3"/>
</linearGradient>
<linearGradient id="paint3_linear_278_2410" x1="52.2587" y1="32.9012" x2="52.2587" y2="67.9193" gradientUnits="userSpaceOnUse">
<stop stop-color="#EE3453"/>
<stop offset="0.763542" stop-color="#F14E69"/>
<stop offset="1" stop-color="#ED677D"/>
</linearGradient>
<linearGradient id="paint4_linear_278_2410" x1="55.6371" y1="58.4422" x2="55.6371" y2="82.7506" gradientUnits="userSpaceOnUse">
<stop stop-color="#2C7590"/>
<stop offset="0.617708" stop-color="#4CA7BD"/>
<stop offset="1" stop-color="#3996B5"/>
</linearGradient>
<linearGradient id="paint5_linear_278_2410" x1="52.7948" y1="27.0833" x2="52.7948" y2="66.8746" gradientUnits="userSpaceOnUse">
<stop stop-color="#EE7C8F"/>
<stop offset="0.763542" stop-color="#EF7C8F"/>
<stop offset="1" stop-color="#EF7C8F"/>
</linearGradient>
<linearGradient id="paint6_linear_278_2410" x1="53.7858" y1="27.9342" x2="53.7858" y2="69.9699" gradientUnits="userSpaceOnUse">
<stop stop-color="#A61ED8"/>
<stop offset="1" stop-color="#CD63F4"/>
</linearGradient>
<linearGradient id="paint7_linear_278_2410" x1="64.7148" y1="45.5822" x2="64.7148" y2="53.9784" gradientUnits="userSpaceOnUse">
<stop stop-color="#2C7590"/>
<stop offset="0.617708" stop-color="#4CA7BD"/>
<stop offset="1" stop-color="#3996B5"/>
</linearGradient>
<linearGradient id="paint8_linear_278_2410" x1="53.4414" y1="32.8792" x2="53.4414" y2="63.147" gradientUnits="userSpaceOnUse">
<stop stop-color="#2C7590"/>
<stop offset="0.617708" stop-color="#4CA7BD"/>
<stop offset="1" stop-color="#3996B5"/>
</linearGradient>
<linearGradient id="paint9_linear_278_2410" x1="42.3066" y1="59.5399" x2="42.3066" y2="61.4302" gradientUnits="userSpaceOnUse">
<stop stop-color="#F9BB71"/>
<stop offset="1" stop-color="#FE9311"/>
<stop offset="1" stop-color="#FE9311"/>
</linearGradient>
<linearGradient id="paint10_linear_278_2410" x1="42.3798" y1="51.9062" x2="42.3798" y2="59.9046" gradientUnits="userSpaceOnUse">
<stop stop-color="#FE9311"/>
<stop offset="1" stop-color="#FFA73B"/>
</linearGradient>
<linearGradient id="paint11_linear_278_2410" x1="65.0467" y1="59.3831" x2="65.0467" y2="61.2734" gradientUnits="userSpaceOnUse">
<stop stop-color="#F9BB71"/>
<stop offset="1" stop-color="#FE9311"/>
<stop offset="1" stop-color="#FE9311"/>
</linearGradient>
<linearGradient id="paint12_linear_278_2410" x1="64.9737" y1="51.8554" x2="64.9737" y2="59.8539" gradientUnits="userSpaceOnUse">
<stop stop-color="#FE9311"/>
<stop offset="1" stop-color="#FFA73B"/>
</linearGradient>
<linearGradient id="paint13_linear_278_2410" x1="53.912" y1="41.8184" x2="53.912" y2="45.4254" gradientUnits="userSpaceOnUse">
<stop stop-color="#FE0002"/>
<stop offset="1" stop-color="#FF8182"/>
<stop offset="1" stop-color="#FE0002"/>
</linearGradient>
<linearGradient id="paint14_linear_278_2410" x1="54.309" y1="66.3776" x2="54.309" y2="101.8" gradientUnits="userSpaceOnUse">
<stop stop-color="#E02B76"/>
<stop offset="1" stop-color="#F07D8E"/>
</linearGradient>
<linearGradient id="paint15_linear_278_2410" x1="54.309" y1="66.3776" x2="54.309" y2="101.8" gradientUnits="userSpaceOnUse">
<stop stop-color="#E02B76"/>
<stop offset="1" stop-color="#F07D8E"/>
</linearGradient>
<linearGradient id="paint16_linear_278_2410" x1="45.1374" y1="68.3223" x2="45.1374" y2="81.1715" gradientUnits="userSpaceOnUse">
<stop stop-color="#7F02AC"/>
<stop offset="1" stop-color="#B22DE3"/>
</linearGradient>
<linearGradient id="paint17_linear_278_2410" x1="64.9025" y1="65.6563" x2="64.9025" y2="79.5891" gradientUnits="userSpaceOnUse">
<stop stop-color="#7F02AC"/>
<stop offset="1" stop-color="#B22DE3"/>
</linearGradient>
<linearGradient id="paint18_linear_278_2410" x1="55.3219" y1="66.9108" x2="55.3219" y2="96.9614" gradientUnits="userSpaceOnUse">
<stop stop-color="#F72D5D"/>
<stop offset="1" stop-color="#C62426"/>
<stop offset="1" stop-color="#E92A2D"/>
</linearGradient>
<linearGradient id="paint19_linear_278_2410" x1="72.0402" y1="68.1655" x2="72.0402" y2="98.8178" gradientUnits="userSpaceOnUse">
<stop stop-color="#7F02AC"/>
<stop offset="1" stop-color="#B22DE3"/>
</linearGradient>
<linearGradient id="paint20_linear_278_2410" x1="40.9096" y1="79.7708" x2="40.9096" y2="92.4652" gradientUnits="userSpaceOnUse">
<stop stop-color="#7F02AC"/>
<stop offset="1" stop-color="#B22DE3"/>
</linearGradient>
<linearGradient id="paint21_linear_278_2410" x1="54.309" y1="66.3776" x2="54.309" y2="101.8" gradientUnits="userSpaceOnUse">
<stop stop-color="#E02B76"/>
<stop offset="1" stop-color="#F07D8E"/>
</linearGradient>
<linearGradient id="paint22_linear_278_2410" x1="25.4623" y1="93.258" x2="25.4623" y2="104.095" gradientUnits="userSpaceOnUse">
<stop stop-color="#A61ED8"/>
<stop offset="1" stop-color="#CD63F4"/>
</linearGradient>
<linearGradient id="paint23_linear_278_2410" x1="83.8541" y1="93.2843" x2="82.7657" y2="104.066" gradientUnits="userSpaceOnUse">
<stop stop-color="#A61ED8"/>
<stop offset="1" stop-color="#CD63F4"/>
</linearGradient>
<linearGradient id="paint24_linear_278_2410" x1="35.4825" y1="68.4792" x2="35.4825" y2="112.498" gradientUnits="userSpaceOnUse">
<stop stop-color="#2C7590"/>
<stop offset="0.617708" stop-color="#4CA7BD"/>
<stop offset="1" stop-color="#3996B5"/>
</linearGradient>
<linearGradient id="paint25_linear_278_2410" x1="72.494" y1="68.4792" x2="72.494" y2="112.498" gradientUnits="userSpaceOnUse">
<stop stop-color="#2C7590"/>
<stop offset="0.617708" stop-color="#4CA7BD"/>
<stop offset="1" stop-color="#3996B5"/>
</linearGradient>
<linearGradient id="paint26_linear_278_2410" x1="72.8452" y1="69.8146" x2="69.2382" y2="90.0455" gradientUnits="userSpaceOnUse">
<stop stop-color="#F162AF"/>
<stop offset="1" stop-color="#F162AF" stop-opacity="0"/>
</linearGradient>
<linearGradient id="paint27_linear_278_2410" x1="70.675" y1="71.0693" x2="69.256" y2="81.8325" gradientUnits="userSpaceOnUse">
<stop stop-color="#F162AF"/>
<stop offset="1" stop-color="#F162AF" stop-opacity="0"/>
</linearGradient>
<linearGradient id="paint28_linear_278_2410" x1="67.1239" y1="83.4587" x2="66.7387" y2="91.3104" gradientUnits="userSpaceOnUse">
<stop stop-color="#F162AF"/>
<stop offset="1" stop-color="#F162AF" stop-opacity="0"/>
</linearGradient>
<linearGradient id="paint29_linear_278_2410" x1="44.2792" y1="89.1045" x2="44.1113" y2="95.4307" gradientUnits="userSpaceOnUse">
<stop stop-color="#F162AF"/>
<stop offset="1" stop-color="#F162AF" stop-opacity="0"/>
</linearGradient>
<linearGradient id="paint30_linear_278_2410" x1="46.6433" y1="87.4112" x2="46.6305" y2="88.9163" gradientUnits="userSpaceOnUse">
<stop stop-color="#F162AF"/>
<stop offset="1" stop-color="#F162AF" stop-opacity="0"/>
</linearGradient>
</defs>
</svg>
