<svg width="108" height="108" viewBox="0 0 108 108" fill="none" xmlns="http://www.w3.org/2000/svg">
<ellipse cx="54" cy="56.5374" rx="54" ry="55.845" fill="#FFDCB2"/>
<mask id="mask0_145_595" style="mask-type:alpha" maskUnits="userSpaceOnUse" x="0" y="0" width="108" height="113">
<ellipse cx="54" cy="56.5374" rx="54" ry="55.845" fill="#D9D9D9"/>
</mask>
<g mask="url(#mask0_145_595)">
<path d="M23.6619 38.2426C27.6677 18.6799 43.3201 14.7482 50.6456 15.2277C86.9205 7.63276 99.3274 77.272 100.996 113.041L6.13647 111.89C10.3092 95.4921 19.6561 57.8052 23.6619 38.2426Z" fill="url(#paint0_linear_145_595)"/>
<path d="M48.9764 80.2447V72.1895C50.7567 73.8005 56.0237 73.4361 58.4346 73.0525V80.2447C59.9924 80.2447 62.5555 81.5378 63.2046 81.9214C59.8664 91.1273 42.8564 82.2585 45.0818 81.3954C47.3073 80.5324 47.9564 80.3406 48.9764 80.2447Z" fill="url(#paint1_linear_145_595)"/>
<ellipse cx="54.2618" cy="50.3255" rx="25.8709" ry="23.0149" fill="url(#paint2_linear_145_595)"/>
<path d="M39.4952 38.3735C32.8188 40.9052 29.2952 45.5657 28.3679 47.5795C24.5846 37.2228 27.8115 28.5922 33.097 23.1262C38.3825 17.6601 55.5184 12.6544 69.5388 20.2493C83.5592 27.8442 82.2424 43.5519 79.8315 50.4564C77.6988 47.3877 71.8199 40.675 65.3661 38.3735C58.9123 36.072 54.8879 32.428 53.6824 30.8937C51.7352 32.3321 46.1715 35.8419 39.4952 38.3735Z" fill="#070F28"/>
<path d="M30.6819 43.8452C33.0256 44.1455 37.4575 46.007 36.4347 51.051C35.1563 57.3561 30.6819 53.7532 30.6819 59.1576C30.6819 64.5619 42.1876 69.0655 36.4347 71.7677" stroke="#070F28" stroke-linecap="round"/>
<path d="M76.0908 46.3838C74.5283 46.6567 71.5738 48.349 72.2556 52.9345C73.1079 58.6664 76.0908 55.391 76.0908 60.3041C76.0908 65.2171 68.4204 69.3114 72.2556 71.7679" stroke="#070F28" stroke-linecap="round"/>
<path d="M57.8781 23.2842C37.6265 19.3716 29.2254 36.0383 27.5563 44.8607C23.328 35.8848 30.4309 24.6267 34.2327 20.695C40.9091 16.5715 57.344 11.036 70.9527 19.832C82.08 27.0241 85.9745 50.6144 81.2454 55.5051C78.7974 38.0137 63.9054 24.5308 57.8781 23.2842Z" fill="url(#paint3_linear_145_595)"/>
<path d="M39.2399 31.626C25.29 40.175 26.7217 78.6147 27.8344 94.917L19.7674 108.726C19.6747 86.9576 24.052 43.5726 32.0074 33.352C41.1874 21.5581 55.3701 19.0593 67.6147 26.4475C77.6292 32.4902 82.7292 54.8326 83.471 67.0113L89.0347 106.137H80.411C80.411 85.8835 77.4436 58.5726 75.9599 47.4487C74.4762 36.3249 61.7728 17.8169 39.2399 31.626Z" fill="url(#paint4_linear_145_595)"/>
<path d="M39.2727 45.931C41.7754 45.644 47.2428 45.5866 49.0909 47.6528C48.3208 45.2135 45.2791 41.454 39.2727 45.931Z" fill="#08102A"/>
<path d="M60.1365 47.6528C60.9956 46.4896 63.9165 44.6617 68.7274 46.6558C66.6274 44.3294 61.9692 41.2718 60.1365 47.6528Z" fill="#08102A"/>
<path d="M54.8184 51.7639C54.633 53.5859 53.9282 57.23 52.593 57.23C50.9239 57.23 51.4802 60.6822 52.593 60.3945" stroke="#070F28" stroke-width="0.453333" stroke-linecap="round"/>
<path d="M60.6602 50.3254C61.3092 52.4351 63.3307 55.3887 66.2238 50.3254" stroke="#08102A" stroke-width="0.453333" stroke-linecap="round"/>
<path d="M41.7434 49.75C42.3925 51.8597 44.414 54.8133 47.307 49.75" stroke="#08102A" stroke-width="0.453333" stroke-linecap="round"/>
<ellipse cx="54.262" cy="42.8455" rx="0.834545" ry="1.72612" fill="#FFB153"/>
<path d="M31.4509 90.8891C31.4509 89.278 40.3527 84.0805 44.8037 81.6831C54.1506 88.5876 60.7527 84.56 62.8855 81.6831C72.2324 83.2941 76.98 89.8342 78.1855 92.9029L73.1782 100.958L71.2309 99.232L70.6746 108.726L38.9618 107.287L40.0746 96.6428C38.4982 97.8894 35.4567 100.153 35.9018 99.232C36.3469 98.3114 33.12 93.2865 31.4509 90.8891Z" fill="url(#paint5_linear_145_595)"/>
<path d="M58.7126 94.6305C53.8166 97.1622 43.8762 108.535 39.5181 113.906C42.8562 114.366 55.7453 119.851 61.7726 122.536C61.4944 111.604 76.1481 95.4682 76.7044 91.4406C77.1495 88.2185 69.3408 83.1908 65.659 82.5562C65.2881 85.9125 63.6086 92.0989 58.7126 94.6305Z" fill="url(#paint6_linear_145_595)"/>
<path d="M25.6091 111.316C19.8229 111.546 27.649 97.7949 31.1727 91.7535C32.0116 90.315 31.5621 90.8329 32.0072 90.6028C32.5636 90.3151 36.18 98.6579 35.9018 98.9456C35.6793 99.1757 33.2127 102.877 32.0072 105.275L46.4727 104.124L48.1418 107.576C44.0618 108.631 31.3953 111.086 25.6091 111.316Z" fill="url(#paint7_linear_145_595)"/>
<path d="M83.9609 111.889C90.373 112.098 81.7003 99.6434 77.7955 94.1719C77.6022 93.9011 77.4876 93.7288 77.4228 93.6238C77.4224 93.5327 77.2545 93.3512 77.4228 93.6238C77.423 93.6663 77.3865 93.6891 77.2621 93.6366C76.6455 93.376 72.2466 100.425 72.5549 100.686C72.8015 100.894 75.5348 104.246 76.8707 106.418L60.8405 105.375L58.9909 108.502C63.5122 109.457 77.5489 111.681 83.9609 111.889Z" fill="url(#paint8_linear_145_595)"/>
<path d="M49.4837 103.578C49.9486 97.4884 53.1642 88.5537 53.3579 88.3534C53.5516 88.1531 53.7454 88.5537 53.7454 89.1547C53.7454 89.7557 52.7768 107.946 50.4523 108.587C48.1278 109.228 47.7404 101.575 48.7089 100.774C49.6774 99.9724 49.0963 102.777 49.4837 103.578Z" fill="url(#paint9_linear_145_595)"/>
<path d="M58.0069 103.578C57.542 97.4884 54.3264 88.5537 54.1327 88.3534C53.939 88.1531 53.7452 88.5537 53.7452 89.1547C53.7452 89.7557 54.7138 107.946 57.0383 108.587C59.3628 109.228 59.7502 101.575 58.7817 100.774C57.8132 99.9724 58.3943 102.777 58.0069 103.578Z" fill="url(#paint10_linear_145_595)"/>
<path d="M45.6382 101.823C44.6399 102.051 48.6359 110.044 49.7905 109.827C51.2337 109.556 46.6364 101.594 45.6382 101.823Z" fill="#FCCD03"/>
<path d="M60.7695 101.1C59.174 101.447 57.0842 109.967 58.5441 110.306C60.3689 110.729 62.365 100.753 60.7695 101.1Z" fill="#FCCD03"/>
</g>
<path d="M49.1131 65.0491C49.116 65.491 49.2459 65.9277 49.4953 66.3342C49.7447 66.7408 50.1088 67.1092 50.5667 67.4184C51.0246 67.7277 51.5674 67.9717 52.1641 68.1366C52.7608 68.3015 53.3997 68.384 54.0444 68.3794C54.6891 68.3748 55.3268 68.2832 55.9213 68.1099C56.5157 67.9365 57.0552 67.6848 57.509 67.3691C57.9628 67.0533 58.3219 66.6798 58.5659 66.2697C58.8099 65.8597 58.9339 65.4212 58.931 64.9793L54.022 65.0142L49.1131 65.0491Z" fill="white"/>
<defs>
<linearGradient id="paint0_linear_145_595" x1="53.5665" y1="14.6536" x2="53.5665" y2="113.041" gradientUnits="userSpaceOnUse">
<stop stop-color="#ED7C8E"/>
<stop offset="0.536458" stop-color="#EF7B8E"/>
<stop offset="0.958333" stop-color="#F97990" stop-opacity="0"/>
</linearGradient>
<linearGradient id="paint1_linear_145_595" x1="53.6005" y1="72.1895" x2="53.6005" y2="85.6856" gradientUnits="userSpaceOnUse">
<stop stop-color="#53B3C8"/>
<stop offset="1" stop-color="#4399B1"/>
</linearGradient>
<linearGradient id="paint2_linear_145_595" x1="54.2618" y1="27.3105" x2="54.2618" y2="73.3404" gradientUnits="userSpaceOnUse">
<stop offset="0.0187499" stop-color="#2E7894"/>
<stop offset="1" stop-color="#4094AC"/>
</linearGradient>
<linearGradient id="paint3_linear_145_595" x1="53.5901" y1="16.1184" x2="53.5901" y2="48.8883" gradientUnits="userSpaceOnUse">
<stop stop-color="#EE7C8F"/>
<stop offset="0.763542" stop-color="#EF7C8F"/>
<stop offset="1" stop-color="#EF7C8F"/>
</linearGradient>
<linearGradient id="paint4_linear_145_595" x1="54.3997" y1="24.2002" x2="54.3997" y2="108.726" gradientUnits="userSpaceOnUse">
<stop stop-color="#A81E47"/>
<stop offset="0.773958" stop-color="#E52976"/>
<stop offset="1" stop-color="#AD1F59" stop-opacity="0.32"/>
</linearGradient>
<linearGradient id="paint5_linear_145_595" x1="54.8182" y1="81.6831" x2="54.8182" y2="108.726" gradientUnits="userSpaceOnUse">
<stop stop-color="#AF1D5E"/>
<stop offset="0.503125" stop-color="#EA2776"/>
<stop offset="1" stop-color="#AC1E58"/>
</linearGradient>
<linearGradient id="paint6_linear_145_595" x1="58.1657" y1="81.3969" x2="58.1657" y2="122.536" gradientUnits="userSpaceOnUse">
<stop stop-color="#E02B76"/>
<stop offset="0.723958" stop-color="#F07D8E"/>
<stop offset="1" stop-color="#DF2C76" stop-opacity="0"/>
</linearGradient>
<linearGradient id="paint7_linear_145_595" x1="35.8414" y1="91.1623" x2="35.8414" y2="111.319" gradientUnits="userSpaceOnUse">
<stop stop-color="#4EABC1"/>
<stop offset="0.492708" stop-color="#2E8EB4"/>
<stop offset="1" stop-color="#20769F"/>
</linearGradient>
<linearGradient id="paint8_linear_145_595" x1="72.6218" y1="93.6366" x2="72.6218" y2="111.892" gradientUnits="userSpaceOnUse">
<stop stop-color="#4EABC1"/>
<stop offset="0.492708" stop-color="#2E8EB4"/>
<stop offset="1" stop-color="#20769F"/>
</linearGradient>
<linearGradient id="paint9_linear_145_595" x1="50.9796" y1="88.3013" x2="50.9796" y2="108.625" gradientUnits="userSpaceOnUse">
<stop stop-color="#369CC0"/>
<stop offset="0.576042" stop-color="#1F759E"/>
<stop offset="1" stop-color="#2D7297"/>
</linearGradient>
<linearGradient id="paint10_linear_145_595" x1="56.511" y1="88.3013" x2="56.511" y2="108.625" gradientUnits="userSpaceOnUse">
<stop stop-color="#369CC0"/>
<stop offset="0.576042" stop-color="#1F759E"/>
<stop offset="1" stop-color="#2D7297"/>
</linearGradient>
</defs>
</svg>
