<svg width="108" height="109" viewBox="0 0 108 109" fill="none" xmlns="http://www.w3.org/2000/svg">
<circle cx="54" cy="54.1884" r="54" fill="#FFDCB2"/>
<mask id="mask0_278_2630" style="mask-type:alpha" maskUnits="userSpaceOnUse" x="0" y="0" width="108" height="109">
<circle cx="54" cy="54.1884" r="54" fill="#FFDCB2"/>
</mask>
<g mask="url(#mask0_278_2630)">
<path d="M18.4093 97.9171C17.4456 95.4255 22.2675 89.4547 25.0065 86.9601C42.9159 86.053 79.7461 84.5109 83.7915 85.5994C87.8369 86.688 91.798 91.9493 93.2729 94.4439C57.2435 130.502 19.6366 101.09 18.4093 97.9171Z" fill="url(#paint0_linear_278_2630)"/>
<path d="M51.2981 8.30285C11.0914 12.6272 16.1038 40.1535 23.6359 53.376L28.7019 64.0206L79.8449 57.3678C89.8161 50.5486 101.556 2.89739 51.2981 8.30285Z" fill="url(#paint1_linear_278_2630)"/>
<path d="M26.1286 67.014L23.877 54.7894C23.5553 54.7894 20.178 54.7894 20.178 60.8601C20.178 65.7167 24.145 66.9863 26.1286 67.014Z" fill="url(#paint2_linear_278_2630)"/>
<path d="M78.0759 64.6025L77.4326 51.4631C80.2471 50.0493 86.2781 49.3841 88.9317 54.7895C91.0547 59.1139 87.4575 62.4126 85.3935 63.5214L78.0759 64.6025Z" fill="url(#paint3_linear_278_2630)"/>
<g filter="url(#filter0_d_278_2630)">
<path d="M87.4771 41.3176C88.9897 39.3217 88.5458 31.3382 88.1347 27.596C76.9545 27.8621 68.5146 33.1955 65.6921 35.8289C71.4795 37.6252 75.6118 42.953 76.9545 45.3924C75.705 41.2677 83.4489 40.9572 87.4771 41.3176Z" fill="url(#paint4_linear_278_2630)" shape-rendering="crispEdges"/>
</g>
<g filter="url(#filter1_d_278_2630)">
<path d="M52.0993 34.4167C49.3506 22.3455 57.3895 11.645 61.7525 7.8037C75.8889 8.66592 83.3497 16.2325 85.3131 19.9081C72.6166 21.4335 62.9524 30.5477 59.7074 34.9141C57.4822 32.3938 53.7082 33.5324 52.0993 34.4167Z" fill="url(#paint5_linear_278_2630)" shape-rendering="crispEdges"/>
</g>
<g filter="url(#filter2_d_278_2630)">
<path d="M46.5362 17.6999C44.0273 24.3527 44.4186 32.2807 44.9279 35.4131C42.1617 35.7458 38.4144 38.1574 36.8866 39.3217C28.8452 31.3382 24.6638 17.2009 31.2577 13.4587C36.5328 10.4649 44.3382 8.99569 47.5816 8.63533C48.2785 8.88481 49.0451 11.047 46.5362 17.6999Z" fill="url(#paint6_linear_278_2630)" shape-rendering="crispEdges"/>
</g>
<g filter="url(#filter3_d_278_2630)">
<path d="M19.5458 27.8492C22.1911 26.6948 30.1832 37.3279 33.8486 42.7887C31.6955 44.6222 30.4907 49.7208 30.1575 52.041C26.0359 52.2447 21.0581 45.222 19.0845 41.6852C17.6696 37.0676 18.8025 30.5372 19.5458 27.8492Z" fill="url(#paint7_linear_278_2630)" shape-rendering="crispEdges"/>
</g>
<path d="M54.917 33.5004C32.2725 33.5004 28.8094 50.7424 29.9084 59.3634V84.7275H79.9255C80.274 76.6332 80.7618 60.2283 79.9255 59.3634C78.8802 58.2823 83.2225 33.5004 54.917 33.5004Z" fill="url(#paint8_linear_278_2630)"/>
<path d="M69.3924 44.9072C65.9185 43.3105 63.3614 45.0735 62.4769 45.9883C61.4315 46.4872 60.4397 46.016 60.1449 45.9051C57.9737 45.4061 59.7428 40.9986 66.015 40.7491C71.0328 40.5495 72.9842 42.6064 73.3327 43.6598C73.4667 44.7409 72.8663 46.5039 69.3924 44.9072Z" fill="#08102A"/>
<path d="M47.6798 44.8935C44.2059 43.2968 41.6488 45.0598 40.7642 45.9746C39.7188 46.4736 38.7271 46.0023 38.4322 45.8914C36.2611 45.3925 38.0301 40.9849 44.3024 40.7355C49.3202 40.5359 51.2716 42.5927 51.62 43.6461C51.754 44.7272 51.1536 46.4902 47.6798 44.8935Z" fill="#08102A"/>
<path d="M64.8406 54.2907C61.2381 54.2907 60.7127 50.3544 60.9003 48.3863C61.222 47.1222 62.4282 47.721 62.2674 48.22C61.9457 50.3821 62.6694 53.5423 64.8406 53.2928C67.0117 53.0433 67.6551 50.299 67.4138 48.9684C67.1726 47.6378 66.9313 46.6399 68.1375 46.8062C69.3437 46.9725 69.3437 54.2907 64.8406 54.2907Z" fill="#08102A"/>
<path d="M58.6712 52.6767C58.9304 57.6982 61.947 59.441 63 59.1885C59.5981 70.6601 50.1666 64.2565 48.0607 61.2263C46.3759 58.8021 47.1427 57.7631 47.7367 57.5467C49.3026 57.1138 52.3373 55.5987 51.9485 53.0013C51.5597 50.404 52.5425 49.1775 53.0825 48.8889C54.8374 48.0592 58.4121 47.6552 58.6712 52.6767Z" fill="url(#paint9_linear_278_2630)"/>
<path d="M44.6238 54.2907C41.0213 54.2907 40.4959 50.3544 40.6835 48.3863C41.0052 47.1222 42.2114 47.721 42.0506 48.22C41.7289 50.3821 42.4526 53.5423 44.6238 53.2928C46.7949 53.0433 47.4383 50.299 47.197 48.9684C46.9558 47.6378 46.7145 46.6399 47.9207 46.8062C49.1269 46.9725 49.1269 54.2907 44.6238 54.2907Z" fill="#08102A"/>
<path d="M61 68.1885C55.4676 73.1781 48.9567 70.5457 47 68.6885C47.579 68.6885 50.401 67.3538 51.5 66.6885C52.4006 67.1542 55.9453 66.5766 57.5 66.1885C57.886 66.8538 60.1691 67.8281 61 68.1885Z" fill="white"/>
<path fill-rule="evenodd" clip-rule="evenodd" d="M27.335 52.2949C25.8607 53.5978 24.2471 56.9187 29.5865 59.7794C29.8278 59.3636 30.7445 58.9977 32.4814 60.8605C34.5158 63.0423 42.0572 61.6465 45.3808 58.8622C45.7538 58.5496 46.2893 58.4759 46.7222 58.6983C47.6906 59.196 49.166 59.7794 50.494 59.7794C52.0166 59.7794 53.4033 60.3332 54.1015 60.7127C54.2694 60.8039 54.4554 60.8605 54.6466 60.8605H56.8182C56.9949 60.8605 57.1675 60.8132 57.3222 60.7281C58.2498 60.2178 59.8756 59.4745 60.4653 59.7794C60.9762 60.0436 61.6885 59.7952 62.1749 59.4595C62.398 59.3056 62.653 59.1885 62.9241 59.1885H64.0348C64.3298 59.1885 64.6058 59.3225 64.8187 59.5266C66.568 61.2045 71.1925 63.2266 78.4779 60.8605C78.6119 59.6962 79.5233 57.6671 82.0965 58.8646C85.313 60.3615 84.9914 53.0434 83.0615 52.9602C85.9027 52.7662 90.4595 54.6401 85.9563 63.688C87.2966 63.8543 89.784 65.2015 89.0121 69.2597C88.2401 73.318 88.9585 74.6098 89.4141 74.7484C89.7626 76.8828 89.8323 81.8004 87.3234 84.395C88.2883 87.4997 87.9988 93.6259 79.1212 93.2932C79.2284 95.3445 78.2045 99.4471 73.251 99.4471C68.2976 99.4471 66.3623 102.164 66.0138 103.522C64.888 104.853 60.7065 106.532 52.9868 102.607C50.36 104.88 43.9162 107.431 39.1557 99.4471C36.1804 100.833 29.86 101.144 28.3803 91.2974C26.6381 91.1033 23.4912 89.368 24.8422 83.9792C24.5741 83.3971 23.652 81.5842 22.1081 78.9896C20.1782 75.7463 23.0731 67.846 25.5659 68.345C25.0834 67.4302 24.4079 65.3678 25.5659 64.4364C22.939 60.9714 19.6153 53.692 27.335 52.2949ZM51.2982 67.2637C49.2074 68.4556 44.2861 70.7731 41.3269 70.507C46.2321 73.3621 58.9535 77.3594 70.5974 70.507C67.354 70.3129 60.1276 69.2595 57.1683 66.5984C55.9621 67.0419 53.0994 67.7959 51.2982 67.2637Z" fill="#08102A"/>
<path d="M56.8468 37.3259C55.7531 33.9994 54.4075 35.9398 53.8715 37.3259C51.9415 43.2303 52.9869 47.1388 55.3993 47.222C57.8117 47.3052 58.2138 41.4839 56.8468 37.3259Z" fill="url(#paint10_linear_278_2630)"/>
<ellipse cx="33.6696" cy="38.3577" rx="0.983082" ry="1.01667" fill="url(#paint11_linear_278_2630)"/>
<ellipse cx="29.7375" cy="33.8552" rx="0.983082" ry="1.01667" fill="url(#paint12_linear_278_2630)"/>
<ellipse cx="27.2094" cy="29.934" rx="0.983082" ry="1.01667" fill="url(#paint13_linear_278_2630)"/>
<ellipse cx="25.6645" cy="25.2862" rx="0.983082" ry="1.01667" fill="url(#paint14_linear_278_2630)"/>
<ellipse cx="51.62" cy="12.8765" rx="1.2062" ry="1.24741" fill="url(#paint15_linear_278_2630)"/>
<ellipse cx="49.2074" cy="18.6978" rx="1.2062" ry="1.24741" fill="url(#paint16_linear_278_2630)"/>
<ellipse cx="48.0817" cy="24.8517" rx="1.2062" ry="1.24741" fill="url(#paint17_linear_278_2630)"/>
<ellipse cx="48.0817" cy="31.6709" rx="1.2062" ry="1.24741" fill="url(#paint18_linear_278_2630)"/>
<ellipse cx="72.6879" cy="27.3464" rx="1.2062" ry="1.24741" fill="url(#paint19_linear_278_2630)"/>
<ellipse cx="65.6117" cy="31.0055" rx="1.2062" ry="1.24741" fill="url(#paint20_linear_278_2630)"/>
<ellipse cx="82.4983" cy="24.5191" rx="1.2062" ry="1.24741" fill="url(#paint21_linear_278_2630)"/>
<ellipse cx="79.7646" cy="46.1407" rx="1.04537" ry="1.08109" fill="url(#paint22_linear_278_2630)"/>
<ellipse cx="83.6244" cy="45.1429" rx="1.04537" ry="1.08109" fill="url(#paint23_linear_278_2630)"/>
<g filter="url(#filter4_f_278_2630)">
<path d="M54.4644 49.0657C53.5639 49.0551 53.2138 55.5123 53.1514 58.7423C54.045 59.3858 55.3463 59.0319 55.8853 58.7745C55.7869 55.5427 55.365 49.0763 54.4644 49.0657Z" fill="url(#paint24_linear_278_2630)"/>
</g>
<path d="M36.5724 95.937C38.3366 93.8338 44.104 84.4993 47.0046 79.6973C43.2998 87.8653 38.7385 93.6713 36.5724 95.937C36.4058 96.1356 36.275 96.2697 36.1855 96.3295C36.304 96.2135 36.4333 96.0826 36.5724 95.937Z" fill="url(#paint25_linear_278_2630)"/>
<path d="M55.2284 97.4339C56.9927 95.3306 62.76 85.9962 65.6606 81.1941C61.9558 89.3621 57.3945 95.1681 55.2284 97.4339C55.0618 97.6324 54.931 97.7665 54.8415 97.8263C54.96 97.7103 55.0893 97.5794 55.2284 97.4339Z" fill="url(#paint26_linear_278_2630)"/>
<path d="M71.4718 90.6148C73.2361 88.5115 79.0034 79.1771 81.904 74.375C78.1992 82.543 73.6379 88.349 71.4718 90.6148C71.3052 90.8133 71.1744 90.9474 71.0849 91.0072C71.2034 90.8912 71.3327 90.7603 71.4718 90.6148Z" fill="url(#paint27_linear_278_2630)"/>
<path d="M29.0135 84.4609C30.7778 82.3576 36.5451 73.0232 39.4457 68.2211C35.7409 76.3891 31.1796 82.1951 29.0135 84.4609C28.847 84.6594 28.7161 84.7935 28.6267 84.8533C28.7452 84.7373 28.8744 84.6064 29.0135 84.4609Z" fill="url(#paint28_linear_278_2630)"/>
<path d="M49.1474 82.7257C46.911 86.4923 42.3304 93.4048 39.7723 94.7143C41.5608 94.1971 45.9396 91.0753 49.1474 82.7257Z" fill="url(#paint29_linear_278_2630)"/>
<path d="M67.8034 84.2228C65.567 87.9894 60.9864 94.9019 58.4283 96.2113C60.2168 95.6941 64.5956 92.5724 67.8034 84.2228Z" fill="url(#paint30_linear_278_2630)"/>
<path d="M84.0468 77.4037C81.8104 81.1703 77.2299 88.0828 74.6717 89.3922C76.4602 88.875 80.839 85.7533 84.0468 77.4037Z" fill="url(#paint31_linear_278_2630)"/>
<path d="M41.5885 71.2496C39.3522 75.0162 34.7716 81.9287 32.2135 83.2381C34.0019 82.7209 38.3807 79.5991 41.5885 71.2496Z" fill="url(#paint32_linear_278_2630)"/>
<path d="M52.1009 80.9124C50.1857 84.8638 46.1963 92.1577 43.7565 93.6896C45.4953 93.0154 49.5986 89.5161 52.1009 80.9124Z" fill="url(#paint33_linear_278_2630)"/>
<path d="M70.7566 82.4092C68.8415 86.3606 64.8521 93.6545 62.4122 95.1864C64.1511 94.5122 68.2543 91.0129 70.7566 82.4092Z" fill="url(#paint34_linear_278_2630)"/>
<path d="M87.0003 75.5899C85.0851 79.5412 81.0957 86.8352 78.6559 88.367C80.3947 87.6928 84.498 84.1936 87.0003 75.5899Z" fill="url(#paint35_linear_278_2630)"/>
<path d="M42.8277 88.9402C44.0035 87.6148 48.2961 78.9282 50.4138 74.4987C49.6826 81.3155 45.1653 86.8546 42.8277 88.9402C42.7547 89.0225 42.6937 89.0764 42.646 89.0992C42.7049 89.0486 42.7655 88.9956 42.8277 88.9402Z" fill="url(#paint36_linear_278_2630)"/>
<path d="M61.4987 90.4192C62.7732 88.9434 67.4219 79.2669 69.7151 74.3324C68.929 81.9292 64.0331 88.0975 61.4987 90.4192C61.4196 90.5108 61.3535 90.5708 61.3017 90.5961C61.3656 90.5399 61.4313 90.4809 61.4987 90.4192Z" fill="url(#paint37_linear_278_2630)"/>
<path d="M77.7423 83.5999C79.0169 82.124 83.6655 72.4476 85.9588 67.5131C85.1727 75.1099 80.2768 81.2781 77.7423 83.5999C77.6632 83.6915 77.5971 83.7515 77.5454 83.7768C77.6093 83.7206 77.675 83.6616 77.7423 83.5999Z" fill="url(#paint38_linear_278_2630)"/>
<path d="M35.2838 77.446C36.5584 75.9701 41.207 66.2937 43.5003 61.3592C42.7142 68.956 37.8183 75.1242 35.2838 77.446C35.2047 77.5376 35.1386 77.5976 35.0869 77.6229C35.1508 77.5667 35.2165 77.5077 35.2838 77.446Z" fill="url(#paint39_linear_278_2630)"/>
<path d="M48.523 73.2557C45.5429 79.2942 39.4034 91.4397 38.6867 91.7142C37.7908 92.0572 41.3259 84.5856 48.523 73.2557Z" fill="url(#paint40_linear_278_2630)"/>
<path d="M67.179 74.7527C64.1989 80.7912 58.0594 92.9368 57.3427 93.2112C56.4468 93.5542 59.9819 86.0826 67.179 74.7527Z" fill="url(#paint41_linear_278_2630)"/>
<path d="M83.4224 67.9334C80.4423 73.9719 74.3028 86.1174 73.5861 86.3919C72.6902 86.7349 76.2253 79.2633 83.4224 67.9334Z" fill="url(#paint42_linear_278_2630)"/>
<path d="M40.964 61.7795C37.9838 67.818 31.8443 79.9636 31.1276 80.238C30.2317 80.581 33.7668 73.1094 40.964 61.7795Z" fill="url(#paint43_linear_278_2630)"/>
<path d="M34.6493 90.0921C36.4136 87.9889 42.1809 78.6544 45.0815 73.8524C41.3767 82.0204 36.8154 87.8264 34.6493 90.0921C34.4827 90.2907 34.3519 90.4248 34.2624 90.4846C34.3809 90.3686 34.5102 90.2376 34.6493 90.0921Z" fill="url(#paint44_linear_278_2630)"/>
<path d="M53.305 91.5892C55.0693 89.4859 60.8367 80.1515 63.7372 75.3494C60.0324 83.5174 55.4711 89.3234 53.305 91.5892C53.1385 91.7877 53.0076 91.9218 52.9182 91.9816C53.0367 91.8656 53.1659 91.7347 53.305 91.5892Z" fill="url(#paint45_linear_278_2630)"/>
<path d="M69.5487 84.7698C71.313 82.6666 77.0803 73.3321 79.9809 68.5301C76.2761 76.6981 71.7148 82.5041 69.5487 84.7698C69.3821 84.9684 69.2513 85.1025 69.1618 85.1623C69.2803 85.0463 69.4096 84.9153 69.5487 84.7698Z" fill="url(#paint46_linear_278_2630)"/>
<path d="M27.0904 78.6159C28.8547 76.5127 34.6221 67.1782 37.5226 62.3762C33.8178 70.5442 29.2565 76.3502 27.0904 78.6159C26.9239 78.8145 26.793 78.9486 26.7036 79.0084C26.8221 78.8924 26.9513 78.7614 27.0904 78.6159Z" fill="url(#paint47_linear_278_2630)"/>
<path d="M34.0843 88.4953C36.5542 84.9762 40.1296 79.5437 41.9717 76.6716C40.7489 81.7456 36.7854 85.7669 34.0843 88.4953C32.3872 90.9134 31.2121 92.428 31.48 91.5876C31.6993 90.9 32.7341 89.8592 34.0843 88.4953Z" fill="url(#paint48_linear_278_2630)"/>
<path d="M52.7403 89.9918C55.2102 86.4728 58.7856 81.0402 60.6277 78.1682C59.4049 83.2421 55.4414 87.2635 52.7403 89.9918C51.0432 92.4099 49.8681 93.9245 50.136 93.0842C50.3553 92.3965 51.3901 91.3557 52.7403 89.9918Z" fill="url(#paint49_linear_278_2630)"/>
<path d="M68.9837 83.173C71.4536 79.6539 75.029 74.2214 76.8711 71.3493C75.6483 76.4233 71.6848 80.4446 68.9837 83.173C67.2866 85.5911 66.1115 87.1057 66.3794 86.2653C66.5987 85.5777 67.6335 84.5369 68.9837 83.173Z" fill="url(#paint50_linear_278_2630)"/>
<path d="M26.5257 77.0191C28.9956 73.5001 32.571 68.0675 34.4131 65.1955C33.1903 70.2694 29.2268 74.2907 26.5257 77.0191C24.8286 79.4372 23.6535 80.9518 23.9214 80.1115C24.1407 79.4238 25.1755 78.383 26.5257 77.0191Z" fill="url(#paint51_linear_278_2630)"/>
<path d="M44.0651 78.2707C41.0375 84.2839 34.8026 96.3774 34.0838 96.6458C33.1853 96.9813 36.779 89.5397 44.0651 78.2707Z" fill="url(#paint52_linear_278_2630)"/>
<path d="M62.7212 79.7675C59.6935 85.7807 53.4586 97.8742 52.7398 98.1426C51.8413 98.4781 55.435 91.0365 62.7212 79.7675Z" fill="url(#paint53_linear_278_2630)"/>
<path d="M78.9643 72.9482C75.9367 78.9614 69.7018 91.0549 68.983 91.3233C68.0844 91.6587 71.6782 84.2172 78.9643 72.9482Z" fill="url(#paint54_linear_278_2630)"/>
<path d="M36.5063 66.7943C33.4787 72.8075 27.2438 84.901 26.525 85.1694C25.6264 85.5048 29.2202 78.0633 36.5063 66.7943Z" fill="url(#paint55_linear_278_2630)"/>
<path d="M38.9137 44.6249C39.369 43.9545 40.012 42.9331 40.3397 42.3958C40.273 43.2301 39.465 44.0607 38.9137 44.6249C38.6008 45.0856 38.3766 45.3804 38.4042 45.2385C38.4267 45.1224 38.6381 44.907 38.9137 44.6249Z" fill="url(#paint56_linear_278_2630)"/>
<path d="M60.6254 44.7911C61.0806 44.1207 61.7236 43.0992 62.0514 42.5619C61.9847 43.3963 61.1766 44.2269 60.6254 44.7911C60.3125 45.2517 60.0883 45.5466 60.1158 45.4047C60.1384 45.2886 60.3498 45.0731 60.6254 44.7911Z" fill="url(#paint57_linear_278_2630)"/>
<path d="M40.3612 43.9624C40.8165 43.292 41.4595 42.2705 41.7872 41.7332C41.7206 42.5676 40.9125 43.3982 40.3612 43.9624C40.0484 44.423 39.8241 44.7179 39.8517 44.576C39.8742 44.4599 40.0856 44.2444 40.3612 43.9624Z" fill="url(#paint58_linear_278_2630)"/>
<path d="M62.0729 44.1288C62.5282 43.4584 63.1711 42.437 63.4989 41.8997C63.4322 42.734 62.6241 43.5646 62.0729 44.1288C61.76 44.5895 61.5358 44.8843 61.5633 44.7425C61.5859 44.6263 61.7973 44.4109 62.0729 44.1288Z" fill="url(#paint59_linear_278_2630)"/>
<path d="M42.452 43.4636C42.9073 42.7932 43.5503 41.7718 43.8781 41.2344C43.8114 42.0688 43.0033 42.8994 42.452 43.4636C42.1392 43.9242 41.9149 44.2191 41.9425 44.0772C41.965 43.9611 42.1764 43.7456 42.452 43.4636Z" fill="url(#paint60_linear_278_2630)"/>
<path d="M64.1637 43.6298C64.619 42.9594 65.262 41.938 65.5897 41.4006C65.523 42.235 64.715 43.0656 64.1637 43.6298C63.8508 44.0904 63.6266 44.3853 63.6542 44.2434C63.6767 44.1273 63.8881 43.9118 64.1637 43.6298Z" fill="url(#paint61_linear_278_2630)"/>
<path d="M43.8995 43.4636C44.3548 42.7932 44.9978 41.7718 45.3256 41.2344C45.2589 42.0688 44.4508 42.8994 43.8995 43.4636C43.5867 43.9242 43.3625 44.2191 43.39 44.0772C43.4125 43.9611 43.6239 43.7456 43.8995 43.4636Z" fill="url(#paint62_linear_278_2630)"/>
<path d="M65.6112 43.6298C66.0665 42.9594 66.7095 41.938 67.0372 41.4006C66.9706 42.235 66.1625 43.0656 65.6112 43.6298C65.2984 44.0904 65.0741 44.3853 65.1017 44.2434C65.1242 44.1273 65.3356 43.9118 65.6112 43.6298Z" fill="url(#paint63_linear_278_2630)"/>
<path d="M45.1861 43.4636C45.6414 42.7932 46.2844 41.7718 46.6122 41.2344C46.5455 42.0688 45.7374 42.8994 45.1861 43.4636C44.8733 43.9242 44.6491 44.2191 44.6766 44.0772C44.6992 43.9611 44.9106 43.7456 45.1861 43.4636Z" fill="url(#paint64_linear_278_2630)"/>
<path d="M66.8978 43.6298C67.3531 42.9594 67.9961 41.938 68.3239 41.4006C68.2572 42.235 67.4491 43.0656 66.8978 43.6298C66.585 44.0904 66.3607 44.3853 66.3883 44.2434C66.4108 44.1273 66.6222 43.9118 66.8978 43.6298Z" fill="url(#paint65_linear_278_2630)"/>
<path d="M40.3631 44.9604C40.8184 44.29 41.4614 43.2686 41.7892 42.7313C41.7225 43.5656 40.9144 44.3962 40.3631 44.9604C40.0503 45.4211 39.8261 45.7159 39.8536 45.5741C39.8762 45.458 40.0876 45.2425 40.3631 44.9604Z" fill="url(#paint66_linear_278_2630)"/>
<path d="M62.0746 45.1268C62.5299 44.4565 63.1728 43.435 63.5006 42.8977C63.4339 43.732 62.6259 44.5626 62.0746 45.1268C61.7617 45.5875 61.5375 45.8824 61.565 45.7405C61.5876 45.6244 61.799 45.4089 62.0746 45.1268Z" fill="url(#paint67_linear_278_2630)"/>
<path d="M41.3282 44.6278C41.7835 43.9574 42.4265 42.936 42.7543 42.3987C42.6876 43.233 41.8795 44.0636 41.3282 44.6278C41.0154 45.0885 40.7912 45.3833 40.8187 45.2414C40.8412 45.1253 41.0527 44.9099 41.3282 44.6278Z" fill="url(#paint68_linear_278_2630)"/>
<path d="M63.0397 44.7942C63.495 44.1238 64.1379 43.1024 64.4657 42.5651C64.399 43.3994 63.5909 44.23 63.0397 44.7942C62.7268 45.2549 62.5026 45.5497 62.5301 45.4079C62.5527 45.2918 62.7641 45.0763 63.0397 44.7942Z" fill="url(#paint69_linear_278_2630)"/>
<path d="M42.7753 43.9624C43.2305 43.292 43.8735 42.2705 44.2013 41.7332C44.1346 42.5676 43.3265 43.3982 42.7753 43.9624C42.4624 44.423 42.2382 44.7179 42.2657 44.576C42.2883 44.4599 42.4997 44.2444 42.7753 43.9624Z" fill="url(#paint70_linear_278_2630)"/>
<path d="M64.4872 44.1288C64.9425 43.4584 65.5854 42.437 65.9132 41.8997C65.8465 42.734 65.0385 43.5646 64.4872 44.1288C64.1743 44.5895 63.9501 44.8843 63.9776 44.7425C64.0002 44.6263 64.2116 44.4109 64.4872 44.1288Z" fill="url(#paint71_linear_278_2630)"/>
<path d="M44.6585 43.5369C44.9754 42.995 45.4217 42.1684 45.649 41.7334C45.614 42.4161 45.046 43.0836 44.6585 43.5369C44.4408 43.9093 44.2842 44.1473 44.3018 44.0314C44.3162 43.9366 44.4648 43.7635 44.6585 43.5369Z" fill="url(#paint72_linear_278_2630)"/>
<path d="M66.3699 43.7031C66.6868 43.1611 67.1332 42.3345 67.3605 41.8996C67.3254 42.5823 66.7574 43.2497 66.3699 43.7031C66.1522 44.0755 65.9956 44.3134 66.0132 44.1976C66.0276 44.1028 66.1762 43.9297 66.3699 43.7031Z" fill="url(#paint73_linear_278_2630)"/>
<path d="M46.5743 43.5369C46.8912 42.995 47.3375 42.1684 47.5648 41.7334C47.5297 42.4161 46.9618 43.0836 46.5743 43.5369C46.3566 43.9093 46.2 44.1473 46.2176 44.0314C46.232 43.9366 46.3806 43.7635 46.5743 43.5369Z" fill="url(#paint74_linear_278_2630)"/>
<path d="M68.2862 43.7031C68.6031 43.1611 69.0494 42.3345 69.2767 41.8996C69.2416 42.5823 68.6737 43.2497 68.2862 43.7031C68.0685 44.0755 67.9119 44.3134 67.9295 44.1976C67.9439 44.1028 68.0925 43.9297 68.2862 43.7031Z" fill="url(#paint75_linear_278_2630)"/>
<path d="M47.5394 43.5369C47.8563 42.995 48.3026 42.1684 48.5299 41.7334C48.4948 42.4161 47.9269 43.0836 47.5394 43.5369C47.3216 43.9093 47.165 44.1473 47.1826 44.0314C47.1971 43.9366 47.3457 43.7635 47.5394 43.5369Z" fill="url(#paint76_linear_278_2630)"/>
<path d="M69.251 43.7031C69.5679 43.1611 70.0143 42.3345 70.2416 41.8996C70.2065 42.5823 69.6385 43.2497 69.251 43.7031C69.0333 44.0755 68.8767 44.3134 68.8943 44.1976C68.9087 44.1028 69.0573 43.9297 69.251 43.7031Z" fill="url(#paint77_linear_278_2630)"/>
<path d="M48.3436 43.5369C48.6605 42.995 49.1068 42.1684 49.3341 41.7334C49.299 42.4161 48.7311 43.0836 48.3436 43.5369C48.1258 43.9093 47.9692 44.1473 47.9868 44.0314C48.0013 43.9366 48.1499 43.7635 48.3436 43.5369Z" fill="url(#paint78_linear_278_2630)"/>
<path d="M70.0552 43.7031C70.3721 43.1611 70.8185 42.3345 71.0458 41.8996C71.0107 42.5823 70.4427 43.2497 70.0552 43.7031C69.8375 44.0755 69.6809 44.3134 69.6985 44.1976C69.7129 44.1028 69.8615 43.9297 70.0552 43.7031Z" fill="url(#paint79_linear_278_2630)"/>
<path d="M48.6651 44.0357C48.982 43.4937 49.4283 42.6671 49.6556 42.2322C49.6206 42.9149 49.0526 43.5823 48.6651 44.0357C48.4474 44.4081 48.2908 44.6461 48.3084 44.5302C48.3228 44.4354 48.4714 44.2623 48.6651 44.0357Z" fill="url(#paint80_linear_278_2630)"/>
<path d="M70.3765 44.2021C70.6934 43.6602 71.1398 42.8336 71.3671 42.3986C71.332 43.0813 70.764 43.7488 70.3765 44.2021C70.1588 44.5745 70.0022 44.8125 70.0198 44.6966C70.0342 44.6018 70.1828 44.4287 70.3765 44.2021Z" fill="url(#paint81_linear_278_2630)"/>
<path d="M49.6302 44.3685C49.9471 43.8266 50.3934 43 50.6207 42.565C50.5856 43.2477 50.0177 43.9152 49.6302 44.3685C49.4125 44.7409 49.2559 44.9789 49.2735 44.863C49.2879 44.7683 49.4365 44.5951 49.6302 44.3685Z" fill="url(#paint82_linear_278_2630)"/>
<path d="M71.3416 44.5347C71.6585 43.9927 72.1049 43.1661 72.3321 42.7312C72.2971 43.4139 71.7291 44.0813 71.3416 44.5347C71.1239 44.9071 70.9673 45.145 70.9849 45.0292C70.9993 44.9344 71.1479 44.7613 71.3416 44.5347Z" fill="url(#paint83_linear_278_2630)"/>
<path d="M45.7417 43.6118C46.0207 43.1473 46.4139 42.4389 46.6142 42.0661C46.5814 42.6501 46.0822 43.2228 45.7417 43.6118C45.5499 43.931 45.4122 44.135 45.4279 44.0359C45.4408 43.9548 45.5714 43.8062 45.7417 43.6118Z" fill="url(#paint84_linear_278_2630)"/>
<path d="M67.4531 43.778C67.7321 43.3134 68.1253 42.605 68.3256 42.2323C68.2928 42.8163 67.7936 43.389 67.4531 43.778C67.2614 44.0972 67.1236 44.3012 67.1393 44.2021C67.1522 44.121 67.2829 43.9724 67.4531 43.778Z" fill="url(#paint85_linear_278_2630)"/>
</g>
<defs>
<filter id="filter0_d_278_2630" x="65.168" y="27.596" width="23.8858" height="18.8448" filterUnits="userSpaceOnUse" color-interpolation-filters="sRGB">
<feFlood flood-opacity="0" result="BackgroundImageFix"/>
<feColorMatrix in="SourceAlpha" type="matrix" values="0 0 0 0 0 0 0 0 0 0 0 0 0 0 0 0 0 0 127 0" result="hardAlpha"/>
<feOffset dy="0.524176"/>
<feGaussianBlur stdDeviation="0.262088"/>
<feComposite in2="hardAlpha" operator="out"/>
<feColorMatrix type="matrix" values="0 0 0 0 0 0 0 0 0 0 0 0 0 0 0 0 0 0 0.25 0"/>
<feBlend mode="normal" in2="BackgroundImageFix" result="effect1_dropShadow_278_2630"/>
<feBlend mode="normal" in="SourceGraphic" in2="effect1_dropShadow_278_2630" result="shape"/>
</filter>
<filter id="filter1_d_278_2630" x="51.0153" y="7.8037" width="34.822" height="28.1588" filterUnits="userSpaceOnUse" color-interpolation-filters="sRGB">
<feFlood flood-opacity="0" result="BackgroundImageFix"/>
<feColorMatrix in="SourceAlpha" type="matrix" values="0 0 0 0 0 0 0 0 0 0 0 0 0 0 0 0 0 0 127 0" result="hardAlpha"/>
<feOffset dy="0.524176"/>
<feGaussianBlur stdDeviation="0.262088"/>
<feComposite in2="hardAlpha" operator="out"/>
<feColorMatrix type="matrix" values="0 0 0 0 0 0 0 0 0 0 0 0 0 0 0 0 0 0 0.25 0"/>
<feBlend mode="normal" in2="BackgroundImageFix" result="effect1_dropShadow_278_2630"/>
<feBlend mode="normal" in="SourceGraphic" in2="effect1_dropShadow_278_2630" result="shape"/>
</filter>
<filter id="filter2_d_278_2630" x="27.4724" y="8.63533" width="21.3152" height="31.7347" filterUnits="userSpaceOnUse" color-interpolation-filters="sRGB">
<feFlood flood-opacity="0" result="BackgroundImageFix"/>
<feColorMatrix in="SourceAlpha" type="matrix" values="0 0 0 0 0 0 0 0 0 0 0 0 0 0 0 0 0 0 127 0" result="hardAlpha"/>
<feOffset dy="0.524176"/>
<feGaussianBlur stdDeviation="0.262088"/>
<feComposite in2="hardAlpha" operator="out"/>
<feColorMatrix type="matrix" values="0 0 0 0 0 0 0 0 0 0 0 0 0 0 0 0 0 0 0.25 0"/>
<feBlend mode="normal" in2="BackgroundImageFix" result="effect1_dropShadow_278_2630"/>
<feBlend mode="normal" in="SourceGraphic" in2="effect1_dropShadow_278_2630" result="shape"/>
</filter>
<filter id="filter3_d_278_2630" x="17.885" y="27.7623" width="16.4877" height="25.3313" filterUnits="userSpaceOnUse" color-interpolation-filters="sRGB">
<feFlood flood-opacity="0" result="BackgroundImageFix"/>
<feColorMatrix in="SourceAlpha" type="matrix" values="0 0 0 0 0 0 0 0 0 0 0 0 0 0 0 0 0 0 127 0" result="hardAlpha"/>
<feOffset dy="0.524176"/>
<feGaussianBlur stdDeviation="0.262088"/>
<feComposite in2="hardAlpha" operator="out"/>
<feColorMatrix type="matrix" values="0 0 0 0 0 0 0 0 0 0 0 0 0 0 0 0 0 0 0.25 0"/>
<feBlend mode="normal" in2="BackgroundImageFix" result="effect1_dropShadow_278_2630"/>
<feBlend mode="normal" in="SourceGraphic" in2="effect1_dropShadow_278_2630" result="shape"/>
</filter>
<filter id="filter4_f_278_2630" x="52.2341" y="48.1484" width="4.5685" height="11.8753" filterUnits="userSpaceOnUse" color-interpolation-filters="sRGB">
<feFlood flood-opacity="0" result="BackgroundImageFix"/>
<feBlend mode="normal" in="SourceGraphic" in2="BackgroundImageFix" result="shape"/>
<feGaussianBlur stdDeviation="0.458654" result="effect1_foregroundBlur_278_2630"/>
</filter>
<linearGradient id="paint0_linear_278_2630" x1="55.8411" y1="85.225" x2="55.8411" y2="111.878" gradientUnits="userSpaceOnUse">
<stop stop-color="#E33B68"/>
<stop offset="1" stop-color="#A61ED8"/>
</linearGradient>
<linearGradient id="paint1_linear_278_2630" x1="53.5467" y1="7.87648" x2="53.5467" y2="64.0206" gradientUnits="userSpaceOnUse">
<stop stop-color="#D9574A"/>
<stop offset="0.20625" stop-color="#BB4F39"/>
<stop offset="0.404167" stop-color="#9E4536"/>
<stop offset="0.628125" stop-color="#AC2D28"/>
<stop offset="1" stop-color="#7C1517"/>
</linearGradient>
<linearGradient id="paint2_linear_278_2630" x1="23.1533" y1="54.7894" x2="23.1533" y2="67.014" gradientUnits="userSpaceOnUse">
<stop stop-color="#1D4D6E"/>
<stop offset="1" stop-color="#316E93"/>
</linearGradient>
<linearGradient id="paint3_linear_278_2630" x1="83.5062" y1="50.4661" x2="83.5062" y2="64.6025" gradientUnits="userSpaceOnUse">
<stop stop-color="#1D4D6E"/>
<stop offset="1" stop-color="#316E93"/>
</linearGradient>
<linearGradient id="paint4_linear_278_2630" x1="77.1108" y1="27.596" x2="77.1108" y2="45.3924" gradientUnits="userSpaceOnUse">
<stop stop-color="#A618F8"/>
<stop offset="1" stop-color="#A618F8" stop-opacity="0.63"/>
</linearGradient>
<linearGradient id="paint5_linear_278_2630" x1="68.4262" y1="7.8037" x2="68.4262" y2="34.9141" gradientUnits="userSpaceOnUse">
<stop stop-color="#1A8827"/>
<stop offset="0.544792" stop-color="#66B66F" stop-opacity="0.994552"/>
<stop offset="1" stop-color="#52A05C" stop-opacity="0.99"/>
</linearGradient>
<linearGradient id="paint6_linear_278_2630" x1="38.13" y1="8.63533" x2="38.13" y2="39.3217" gradientUnits="userSpaceOnUse">
<stop stop-color="#4128CE"/>
<stop offset="0.497917" stop-color="#8C81C8" stop-opacity="0.811883"/>
<stop offset="1" stop-color="#4128CE"/>
</linearGradient>
<linearGradient id="paint7_linear_278_2630" x1="26.1289" y1="27.7623" x2="26.1289" y2="52.0453" gradientUnits="userSpaceOnUse">
<stop stop-color="#F41D63"/>
<stop offset="1" stop-color="#F05A8B" stop-opacity="0.59"/>
</linearGradient>
<linearGradient id="paint8_linear_278_2630" x1="55.0586" y1="33.5004" x2="55.0586" y2="84.7275" gradientUnits="userSpaceOnUse">
<stop stop-color="#2A728E"/>
<stop offset="0.4875" stop-color="#53B3C8"/>
<stop offset="0.701042" stop-color="#47A7C0"/>
<stop offset="1" stop-color="#3795B5"/>
</linearGradient>
<linearGradient id="paint9_linear_278_2630" x1="54.5952" y1="48.3862" x2="54.5952" y2="65.1847" gradientUnits="userSpaceOnUse">
<stop stop-color="#47CAE2"/>
<stop offset="1" stop-color="#4FACC2"/>
</linearGradient>
<linearGradient id="paint10_linear_278_2630" x1="55.2473" y1="35.4892" x2="55.2473" y2="47.2229" gradientUnits="userSpaceOnUse">
<stop stop-color="#F70448"/>
<stop offset="1" stop-color="#F70448" stop-opacity="0.76"/>
</linearGradient>
<linearGradient id="paint11_linear_278_2630" x1="33.6696" y1="37.341" x2="33.6696" y2="39.3744" gradientUnits="userSpaceOnUse">
<stop stop-color="#671315"/>
<stop offset="1" stop-color="#6F1416"/>
</linearGradient>
<linearGradient id="paint12_linear_278_2630" x1="29.7375" y1="32.8386" x2="29.7375" y2="34.8719" gradientUnits="userSpaceOnUse">
<stop stop-color="#671315"/>
<stop offset="1" stop-color="#6F1416"/>
</linearGradient>
<linearGradient id="paint13_linear_278_2630" x1="27.2094" y1="28.9173" x2="27.2094" y2="30.9507" gradientUnits="userSpaceOnUse">
<stop stop-color="#671315"/>
<stop offset="1" stop-color="#6F1416"/>
</linearGradient>
<linearGradient id="paint14_linear_278_2630" x1="25.6645" y1="24.2696" x2="25.6645" y2="26.3029" gradientUnits="userSpaceOnUse">
<stop stop-color="#671315"/>
<stop offset="1" stop-color="#6F1416"/>
</linearGradient>
<linearGradient id="paint15_linear_278_2630" x1="51.62" y1="11.6291" x2="51.62" y2="14.1239" gradientUnits="userSpaceOnUse">
<stop stop-color="#671315"/>
<stop offset="1" stop-color="#6F1416"/>
</linearGradient>
<linearGradient id="paint16_linear_278_2630" x1="49.2074" y1="17.4504" x2="49.2074" y2="19.9452" gradientUnits="userSpaceOnUse">
<stop stop-color="#671315"/>
<stop offset="1" stop-color="#6F1416"/>
</linearGradient>
<linearGradient id="paint17_linear_278_2630" x1="48.0817" y1="23.6043" x2="48.0817" y2="26.0991" gradientUnits="userSpaceOnUse">
<stop stop-color="#671315"/>
<stop offset="1" stop-color="#6F1416"/>
</linearGradient>
<linearGradient id="paint18_linear_278_2630" x1="48.0817" y1="30.4235" x2="48.0817" y2="32.9183" gradientUnits="userSpaceOnUse">
<stop stop-color="#671315"/>
<stop offset="1" stop-color="#6F1416"/>
</linearGradient>
<linearGradient id="paint19_linear_278_2630" x1="72.6879" y1="26.0989" x2="72.6879" y2="28.5938" gradientUnits="userSpaceOnUse">
<stop stop-color="#8D1D1D"/>
<stop offset="1" stop-color="#4F0A0C"/>
</linearGradient>
<linearGradient id="paint20_linear_278_2630" x1="65.6117" y1="29.7581" x2="65.6117" y2="32.2529" gradientUnits="userSpaceOnUse">
<stop stop-color="#8D1D1D"/>
<stop offset="1" stop-color="#4F0A0C"/>
</linearGradient>
<linearGradient id="paint21_linear_278_2630" x1="82.4983" y1="23.2717" x2="82.4983" y2="25.7665" gradientUnits="userSpaceOnUse">
<stop stop-color="#8D1D1D"/>
<stop offset="1" stop-color="#4F0A0C"/>
</linearGradient>
<linearGradient id="paint22_linear_278_2630" x1="79.7646" y1="45.0596" x2="79.7646" y2="47.2218" gradientUnits="userSpaceOnUse">
<stop stop-color="#8D1D1D"/>
<stop offset="1" stop-color="#4F0A0C"/>
</linearGradient>
<linearGradient id="paint23_linear_278_2630" x1="83.6244" y1="44.0618" x2="83.6244" y2="46.224" gradientUnits="userSpaceOnUse">
<stop stop-color="#8D1D1D"/>
<stop offset="1" stop-color="#4F0A0C"/>
</linearGradient>
<linearGradient id="paint24_linear_278_2630" x1="54.6252" y1="49.0676" x2="54.5068" y2="59.1078" gradientUnits="userSpaceOnUse">
<stop stop-color="#D9D9D9"/>
<stop offset="1" stop-color="#D9D9D9" stop-opacity="0"/>
</linearGradient>
<linearGradient id="paint25_linear_278_2630" x1="46.0272" y1="83.6061" x2="37.0761" y2="86.0873" gradientUnits="userSpaceOnUse">
<stop stop-color="#054067"/>
<stop offset="1" stop-color="#0C1D34"/>
</linearGradient>
<linearGradient id="paint26_linear_278_2630" x1="64.6832" y1="85.1029" x2="55.7321" y2="87.5841" gradientUnits="userSpaceOnUse">
<stop stop-color="#054067"/>
<stop offset="1" stop-color="#0C1D34"/>
</linearGradient>
<linearGradient id="paint27_linear_278_2630" x1="80.9266" y1="78.2838" x2="71.9755" y2="80.765" gradientUnits="userSpaceOnUse">
<stop stop-color="#054067"/>
<stop offset="1" stop-color="#0C1D34"/>
</linearGradient>
<linearGradient id="paint28_linear_278_2630" x1="38.4683" y1="72.1299" x2="29.5173" y2="74.6111" gradientUnits="userSpaceOnUse">
<stop stop-color="#054067"/>
<stop offset="1" stop-color="#0C1D34"/>
</linearGradient>
<linearGradient id="paint29_linear_278_2630" x1="48.2575" y1="85.4799" x2="40.7852" y2="87.8282" gradientUnits="userSpaceOnUse">
<stop stop-color="#054067"/>
<stop offset="1" stop-color="#0C1D34"/>
</linearGradient>
<linearGradient id="paint30_linear_278_2630" x1="66.9135" y1="86.977" x2="59.4412" y2="89.3252" gradientUnits="userSpaceOnUse">
<stop stop-color="#054067"/>
<stop offset="1" stop-color="#0C1D34"/>
</linearGradient>
<linearGradient id="paint31_linear_278_2630" x1="83.1569" y1="80.1579" x2="75.6846" y2="82.5061" gradientUnits="userSpaceOnUse">
<stop stop-color="#054067"/>
<stop offset="1" stop-color="#0C1D34"/>
</linearGradient>
<linearGradient id="paint32_linear_278_2630" x1="40.6986" y1="74.0038" x2="33.2264" y2="76.352" gradientUnits="userSpaceOnUse">
<stop stop-color="#054067"/>
<stop offset="1" stop-color="#0C1D34"/>
</linearGradient>
<linearGradient id="paint33_linear_278_2630" x1="51.4431" y1="83.7355" x2="44.1803" y2="86.7067" gradientUnits="userSpaceOnUse">
<stop stop-color="#054067"/>
<stop offset="1" stop-color="#0C1D34"/>
</linearGradient>
<linearGradient id="paint34_linear_278_2630" x1="70.0988" y1="85.2323" x2="62.8361" y2="88.2035" gradientUnits="userSpaceOnUse">
<stop stop-color="#054067"/>
<stop offset="1" stop-color="#0C1D34"/>
</linearGradient>
<linearGradient id="paint35_linear_278_2630" x1="86.3425" y1="78.413" x2="79.0798" y2="81.3842" gradientUnits="userSpaceOnUse">
<stop stop-color="#054067"/>
<stop offset="1" stop-color="#0C1D34"/>
</linearGradient>
<linearGradient id="paint36_linear_278_2630" x1="49.9926" y1="77.7444" x2="42.4972" y2="81.31" gradientUnits="userSpaceOnUse">
<stop stop-color="#054067"/>
<stop offset="1" stop-color="#0C1D34"/>
</linearGradient>
<linearGradient id="paint37_linear_278_2630" x1="69.2615" y1="77.9495" x2="61.0579" y2="81.7553" gradientUnits="userSpaceOnUse">
<stop stop-color="#054067"/>
<stop offset="1" stop-color="#0C1D34"/>
</linearGradient>
<linearGradient id="paint38_linear_278_2630" x1="85.5052" y1="71.1301" x2="77.3015" y2="74.9359" gradientUnits="userSpaceOnUse">
<stop stop-color="#054067"/>
<stop offset="1" stop-color="#0C1D34"/>
</linearGradient>
<linearGradient id="paint39_linear_278_2630" x1="43.0467" y1="64.9762" x2="34.843" y2="68.782" gradientUnits="userSpaceOnUse">
<stop stop-color="#054067"/>
<stop offset="1" stop-color="#0C1D34"/>
</linearGradient>
<linearGradient id="paint40_linear_278_2630" x1="47.7778" y1="77.4785" x2="38.7012" y2="80.5147" gradientUnits="userSpaceOnUse">
<stop stop-color="#054067"/>
<stop offset="1" stop-color="#0C1D34"/>
</linearGradient>
<linearGradient id="paint41_linear_278_2630" x1="66.4338" y1="78.9755" x2="57.3572" y2="82.0118" gradientUnits="userSpaceOnUse">
<stop stop-color="#054067"/>
<stop offset="1" stop-color="#0C1D34"/>
</linearGradient>
<linearGradient id="paint42_linear_278_2630" x1="82.6772" y1="72.1562" x2="73.6006" y2="75.1924" gradientUnits="userSpaceOnUse">
<stop stop-color="#054067"/>
<stop offset="1" stop-color="#0C1D34"/>
</linearGradient>
<linearGradient id="paint43_linear_278_2630" x1="40.2187" y1="66.0023" x2="31.1421" y2="69.0386" gradientUnits="userSpaceOnUse">
<stop stop-color="#054067"/>
<stop offset="1" stop-color="#0C1D34"/>
</linearGradient>
<linearGradient id="paint44_linear_278_2630" x1="44.1041" y1="77.7612" x2="35.153" y2="80.2423" gradientUnits="userSpaceOnUse">
<stop stop-color="#054067"/>
<stop offset="1" stop-color="#0C1D34"/>
</linearGradient>
<linearGradient id="paint45_linear_278_2630" x1="62.7598" y1="79.2582" x2="53.8088" y2="81.7394" gradientUnits="userSpaceOnUse">
<stop stop-color="#054067"/>
<stop offset="1" stop-color="#0C1D34"/>
</linearGradient>
<linearGradient id="paint46_linear_278_2630" x1="79.0035" y1="72.4389" x2="70.0525" y2="74.92" gradientUnits="userSpaceOnUse">
<stop stop-color="#054067"/>
<stop offset="1" stop-color="#0C1D34"/>
</linearGradient>
<linearGradient id="paint47_linear_278_2630" x1="36.5452" y1="66.285" x2="27.5942" y2="68.7661" gradientUnits="userSpaceOnUse">
<stop stop-color="#054067"/>
<stop offset="1" stop-color="#0C1D34"/>
</linearGradient>
<linearGradient id="paint48_linear_278_2630" x1="41.0425" y1="80.1901" x2="32.4298" y2="82.8549" gradientUnits="userSpaceOnUse">
<stop stop-color="#054067"/>
<stop offset="1" stop-color="#0C1D34"/>
</linearGradient>
<linearGradient id="paint49_linear_278_2630" x1="59.6985" y1="81.6867" x2="51.0858" y2="84.3515" gradientUnits="userSpaceOnUse">
<stop stop-color="#054067"/>
<stop offset="1" stop-color="#0C1D34"/>
</linearGradient>
<linearGradient id="paint50_linear_278_2630" x1="75.9419" y1="74.8678" x2="67.3292" y2="77.5327" gradientUnits="userSpaceOnUse">
<stop stop-color="#054067"/>
<stop offset="1" stop-color="#0C1D34"/>
</linearGradient>
<linearGradient id="paint51_linear_278_2630" x1="33.4839" y1="68.714" x2="24.8712" y2="71.3788" gradientUnits="userSpaceOnUse">
<stop stop-color="#054067"/>
<stop offset="1" stop-color="#0C1D34"/>
</linearGradient>
<linearGradient id="paint52_linear_278_2630" x1="43.2867" y1="82.4871" x2="34.1878" y2="85.4509" gradientUnits="userSpaceOnUse">
<stop stop-color="#054067"/>
<stop offset="1" stop-color="#0C1D34"/>
</linearGradient>
<linearGradient id="paint53_linear_278_2630" x1="61.9427" y1="83.9839" x2="52.8438" y2="86.9477" gradientUnits="userSpaceOnUse">
<stop stop-color="#054067"/>
<stop offset="1" stop-color="#0C1D34"/>
</linearGradient>
<linearGradient id="paint54_linear_278_2630" x1="78.1859" y1="77.1646" x2="69.087" y2="80.1284" gradientUnits="userSpaceOnUse">
<stop stop-color="#054067"/>
<stop offset="1" stop-color="#0C1D34"/>
</linearGradient>
<linearGradient id="paint55_linear_278_2630" x1="35.7278" y1="71.0107" x2="26.6289" y2="73.9745" gradientUnits="userSpaceOnUse">
<stop stop-color="#054067"/>
<stop offset="1" stop-color="#0C1D34"/>
</linearGradient>
<linearGradient id="paint56_linear_278_2630" x1="40.273" y1="42.9789" x2="38.7464" y2="44.4181" gradientUnits="userSpaceOnUse">
<stop stop-color="#054067"/>
<stop offset="1" stop-color="#0C1D34"/>
</linearGradient>
<linearGradient id="paint57_linear_278_2630" x1="61.9847" y1="43.1451" x2="60.458" y2="44.5842" gradientUnits="userSpaceOnUse">
<stop stop-color="#054067"/>
<stop offset="1" stop-color="#0C1D34"/>
</linearGradient>
<linearGradient id="paint58_linear_278_2630" x1="41.7205" y1="42.3164" x2="40.1939" y2="43.7555" gradientUnits="userSpaceOnUse">
<stop stop-color="#054067"/>
<stop offset="1" stop-color="#0C1D34"/>
</linearGradient>
<linearGradient id="paint59_linear_278_2630" x1="63.4322" y1="42.4828" x2="61.9055" y2="43.922" gradientUnits="userSpaceOnUse">
<stop stop-color="#054067"/>
<stop offset="1" stop-color="#0C1D34"/>
</linearGradient>
<linearGradient id="paint60_linear_278_2630" x1="43.8113" y1="41.8176" x2="42.2847" y2="43.2567" gradientUnits="userSpaceOnUse">
<stop stop-color="#054067"/>
<stop offset="1" stop-color="#0C1D34"/>
</linearGradient>
<linearGradient id="paint61_linear_278_2630" x1="65.523" y1="41.9838" x2="63.9964" y2="43.4229" gradientUnits="userSpaceOnUse">
<stop stop-color="#054067"/>
<stop offset="1" stop-color="#0C1D34"/>
</linearGradient>
<linearGradient id="paint62_linear_278_2630" x1="45.2588" y1="41.8176" x2="43.7322" y2="43.2567" gradientUnits="userSpaceOnUse">
<stop stop-color="#054067"/>
<stop offset="1" stop-color="#0C1D34"/>
</linearGradient>
<linearGradient id="paint63_linear_278_2630" x1="66.9705" y1="41.9838" x2="65.4439" y2="43.4229" gradientUnits="userSpaceOnUse">
<stop stop-color="#054067"/>
<stop offset="1" stop-color="#0C1D34"/>
</linearGradient>
<linearGradient id="paint64_linear_278_2630" x1="46.5455" y1="41.8176" x2="45.0188" y2="43.2567" gradientUnits="userSpaceOnUse">
<stop stop-color="#054067"/>
<stop offset="1" stop-color="#0C1D34"/>
</linearGradient>
<linearGradient id="paint65_linear_278_2630" x1="68.2571" y1="41.9838" x2="66.7305" y2="43.4229" gradientUnits="userSpaceOnUse">
<stop stop-color="#054067"/>
<stop offset="1" stop-color="#0C1D34"/>
</linearGradient>
<linearGradient id="paint66_linear_278_2630" x1="41.7225" y1="43.3144" x2="40.1958" y2="44.7536" gradientUnits="userSpaceOnUse">
<stop stop-color="#054067"/>
<stop offset="1" stop-color="#0C1D34"/>
</linearGradient>
<linearGradient id="paint67_linear_278_2630" x1="63.4339" y1="43.4809" x2="61.9073" y2="44.92" gradientUnits="userSpaceOnUse">
<stop stop-color="#054067"/>
<stop offset="1" stop-color="#0C1D34"/>
</linearGradient>
<linearGradient id="paint68_linear_278_2630" x1="42.6876" y1="42.9818" x2="41.1609" y2="44.421" gradientUnits="userSpaceOnUse">
<stop stop-color="#054067"/>
<stop offset="1" stop-color="#0C1D34"/>
</linearGradient>
<linearGradient id="paint69_linear_278_2630" x1="64.399" y1="43.1482" x2="62.8723" y2="44.5874" gradientUnits="userSpaceOnUse">
<stop stop-color="#054067"/>
<stop offset="1" stop-color="#0C1D34"/>
</linearGradient>
<linearGradient id="paint70_linear_278_2630" x1="44.1346" y1="42.3164" x2="42.6079" y2="43.7555" gradientUnits="userSpaceOnUse">
<stop stop-color="#054067"/>
<stop offset="1" stop-color="#0C1D34"/>
</linearGradient>
<linearGradient id="paint71_linear_278_2630" x1="65.8465" y1="42.4828" x2="64.3199" y2="43.922" gradientUnits="userSpaceOnUse">
<stop stop-color="#054067"/>
<stop offset="1" stop-color="#0C1D34"/>
</linearGradient>
<linearGradient id="paint72_linear_278_2630" x1="45.6101" y1="42.2103" x2="44.4061" y2="43.2091" gradientUnits="userSpaceOnUse">
<stop stop-color="#054067"/>
<stop offset="1" stop-color="#0C1D34"/>
</linearGradient>
<linearGradient id="paint73_linear_278_2630" x1="67.3215" y1="42.3764" x2="66.1175" y2="43.3753" gradientUnits="userSpaceOnUse">
<stop stop-color="#054067"/>
<stop offset="1" stop-color="#0C1D34"/>
</linearGradient>
<linearGradient id="paint74_linear_278_2630" x1="47.5258" y1="42.2103" x2="46.3219" y2="43.2091" gradientUnits="userSpaceOnUse">
<stop stop-color="#054067"/>
<stop offset="1" stop-color="#0C1D34"/>
</linearGradient>
<linearGradient id="paint75_linear_278_2630" x1="69.2377" y1="42.3764" x2="68.0338" y2="43.3753" gradientUnits="userSpaceOnUse">
<stop stop-color="#054067"/>
<stop offset="1" stop-color="#0C1D34"/>
</linearGradient>
<linearGradient id="paint76_linear_278_2630" x1="48.4909" y1="42.2103" x2="47.287" y2="43.2091" gradientUnits="userSpaceOnUse">
<stop stop-color="#054067"/>
<stop offset="1" stop-color="#0C1D34"/>
</linearGradient>
<linearGradient id="paint77_linear_278_2630" x1="70.2026" y1="42.3764" x2="68.9986" y2="43.3753" gradientUnits="userSpaceOnUse">
<stop stop-color="#054067"/>
<stop offset="1" stop-color="#0C1D34"/>
</linearGradient>
<linearGradient id="paint78_linear_278_2630" x1="49.2951" y1="42.2103" x2="48.0912" y2="43.2091" gradientUnits="userSpaceOnUse">
<stop stop-color="#054067"/>
<stop offset="1" stop-color="#0C1D34"/>
</linearGradient>
<linearGradient id="paint79_linear_278_2630" x1="71.0068" y1="42.3764" x2="69.8028" y2="43.3753" gradientUnits="userSpaceOnUse">
<stop stop-color="#054067"/>
<stop offset="1" stop-color="#0C1D34"/>
</linearGradient>
<linearGradient id="paint80_linear_278_2630" x1="49.6167" y1="42.709" x2="48.4127" y2="43.7079" gradientUnits="userSpaceOnUse">
<stop stop-color="#054067"/>
<stop offset="1" stop-color="#0C1D34"/>
</linearGradient>
<linearGradient id="paint81_linear_278_2630" x1="71.3281" y1="42.8754" x2="70.1241" y2="43.8743" gradientUnits="userSpaceOnUse">
<stop stop-color="#054067"/>
<stop offset="1" stop-color="#0C1D34"/>
</linearGradient>
<linearGradient id="paint82_linear_278_2630" x1="50.5817" y1="43.0419" x2="49.3778" y2="44.0407" gradientUnits="userSpaceOnUse">
<stop stop-color="#054067"/>
<stop offset="1" stop-color="#0C1D34"/>
</linearGradient>
<linearGradient id="paint83_linear_278_2630" x1="72.2932" y1="43.208" x2="71.0892" y2="44.2069" gradientUnits="userSpaceOnUse">
<stop stop-color="#054067"/>
<stop offset="1" stop-color="#0C1D34"/>
</linearGradient>
<linearGradient id="paint84_linear_278_2630" x1="46.5786" y1="42.4741" x2="45.5406" y2="43.3545" gradientUnits="userSpaceOnUse">
<stop stop-color="#054067"/>
<stop offset="1" stop-color="#0C1D34"/>
</linearGradient>
<linearGradient id="paint85_linear_278_2630" x1="68.29" y1="42.6402" x2="67.252" y2="43.5207" gradientUnits="userSpaceOnUse">
<stop stop-color="#054067"/>
<stop offset="1" stop-color="#0C1D34"/>
</linearGradient>
</defs>
</svg>
