<svg width="108" height="109" viewBox="0 0 108 109" fill="none" xmlns="http://www.w3.org/2000/svg">
<circle cx="54" cy="54.1885" r="54" fill="#FFDCB2"/>
<mask id="mask0_278_2461" style="mask-type:alpha" maskUnits="userSpaceOnUse" x="0" y="0" width="108" height="109">
<circle cx="54" cy="54.1885" r="54" fill="#D9D9D9"/>
</mask>
<g mask="url(#mask0_278_2461)">
<path d="M68.2269 48.5968C67.7501 51.9349 65.5829 56.7854 63.9825 59.6298C63.178 61.0597 61.9477 62.1698 60.5196 62.9776C52.9822 67.2407 45.156 68.6633 41.0672 69.6855C34.8364 60.7388 34.6766 58.3423 33.3985 53.2299C32.1204 48.1175 32.2802 38.5317 37.2329 33.2595C40.9544 28.86 45.4258 26.0701 51.6116 26.0701C62.8174 26.0701 70.2604 34.3626 68.2269 48.5968Z" fill="#08102A"/>
<path d="M42.4803 69.1981C44.086 67.7454 44.3536 63.4813 44.2867 61.5309L52.5157 63.7503L58.7376 59.9167C58.577 62.8222 59.6073 66.6424 60.1425 68.1893C64.1567 71.9018 69.3081 72.2919 71.3821 72.0229L69.375 80.9008L63.5545 89.1734L51.5121 91.1911L42.8817 89.5769L37.0612 80.9008L36.4591 73.2335C37.7972 72.4937 40.8747 70.6509 42.4803 69.1981Z" fill="url(#paint0_linear_278_2461)"/>
<path d="M56.428 64.3057C54.8895 65.4569 52.928 66.4547 51.9857 66.65C44.878 65.8686 38.8305 58.0228 37.0434 52.3889C36.4376 50.9932 36.4376 47.7003 36.4376 47.7003C40.7477 43.6441 47.6175 35.9754 51.292 31.6618C55.8824 35.9356 57.9635 38.6411 64.2168 46.7705L64.3926 46.9991C66.0602 49.167 61.9937 57.6924 61.3571 58.6618L61.3502 58.6723C61.0751 59.0916 58.8347 62.5049 56.428 64.3057Z" fill="url(#paint1_linear_278_2461)"/>
<path d="M40.1145 45.9797C42.1136 45.5474 46.5261 44.9828 48.1834 46.1823C47.3675 44.6303 44.6115 42.417 40.1145 45.9797Z" fill="#08102A"/>
<path d="M54.3275 45.8398C55.2843 45.2196 58.2825 44.5161 62.6214 46.6633C60.9018 44.7642 56.8357 41.9408 54.3275 45.8398Z" fill="#08102A"/>
<path d="M50.9044 54.1885C50.3651 53.7929 49.3403 52.883 49.556 52.4083C49.7718 51.9335 50.9044 50.628 51.4438 50.0346" stroke="#08102A" stroke-width="0.319527" stroke-linecap="round"/>
<path d="M55.6057 58.0228H47.298C47.298 60.4617 48.7358 61.6974 51.1323 61.8571C54.3205 62.0697 55.173 60.1476 55.6057 58.0228Z" fill="white"/>
<circle cx="52.0945" cy="42.6855" r="1.27811" fill="url(#paint2_linear_278_2461)"/>
<path d="M28.9011 107.07C27 107.07 25.7219 107.07 21.7278 106.751C21.7278 105.934 23.8047 74.6382 28.9011 73.2083C33.2202 71.4829 38.5126 70.8556 41.3798 69.299C52.1039 77.2839 59.6789 72.626 62.1259 69.299C72.85 71.1621 81.7988 72.721 82.5976 76.3956C83.3964 80.0701 86.1124 106.112 86.1124 106.112L77.9645 107.07L74.1301 85.8216C74.1301 85.8216 73.4911 90.1352 72.6923 92.5317C71.8935 94.9281 71.2544 97.1648 70.7751 98.7624C70.2958 100.36 70.6154 107.39 70.6154 107.39C70.6154 107.39 61.8284 108.348 52.7219 108.348C43.6154 108.348 34.6772 107.39 34.6772 107.39C34.6772 107.39 35.156 98.2277 34.6772 96.9246C34.1984 95.6215 32.8104 93.7972 32.5498 90.9304C32.2892 88.0636 33.3317 83.3724 33.3317 83.3724C31.523 84.8142 29.8516 105.792 28.9011 107.07Z" fill="url(#paint3_linear_278_2461)"/>
<path d="M54.1598 82.6264C44.6306 82.6264 41.3787 72.2417 38.3433 69.8454C34.5089 71.1234 33.2308 71.7624 29.3965 72.8808C27.7988 76.875 38.8247 97.1648 53.8402 97.1648C68.889 97.1648 73.8107 79.7506 78.1243 72.721C72.6924 71.1234 71.2545 70.8038 65.9823 70.0051C64.2249 73.6795 60.071 82.6264 54.1598 82.6264Z" fill="url(#paint4_linear_278_2461)"/>
<mask id="mask1_278_2461" style="mask-type:alpha" maskUnits="userSpaceOnUse" x="29" y="69" width="50" height="29">
<path d="M54.1598 82.6264C44.6306 82.6264 41.3787 72.2417 38.3433 69.8454C34.5089 71.1234 33.2308 71.7624 29.3965 72.8808C27.7988 76.875 38.8247 97.1648 53.8402 97.1648C68.889 97.1648 73.8107 79.7506 78.1243 72.721C72.6924 71.1234 71.2545 70.8038 65.9823 70.0051C64.2249 73.6795 60.071 82.6264 54.1598 82.6264Z" fill="url(#paint5_linear_278_2461)"/>
</mask>
<g mask="url(#mask1_278_2461)">
<path d="M54.6391 94.6086C41.2189 96.1423 32.2722 80.7092 29.8758 71.7624L27.7988 72.082L29.0769 79.2713L34.0296 87.8985L45.213 97.4843L57.9941 98.6027L68.5385 92.6914L76.5266 77.5139L79.4024 72.5613L77.3255 71.1234C67.3562 90.295 58.0473 94.7684 54.6391 94.6086Z" fill="url(#paint6_linear_278_2461)"/>
<path d="M52.7219 85.1826C42.497 85.3423 35.787 67.2891 35.6272 66.8098L48.568 78.153L56.2367 80.2299L62.3077 73.6796L64.7041 68.2477L69.1775 69.2062C67.1006 74.4784 60.9018 85.0548 52.7219 85.1826Z" fill="url(#paint7_linear_278_2461)"/>
</g>
<path d="M57.5214 49.7151C55.7844 49.7151 55.5311 47.8711 55.6216 46.949C55.7767 46.3569 56.3582 46.6374 56.2807 46.8711C56.1256 47.884 56.4745 49.3645 57.5214 49.2476C58.5682 49.1307 58.8784 47.8451 58.7621 47.2217C58.6457 46.5984 58.5294 46.1309 59.111 46.2088C59.6926 46.2867 59.6926 49.7151 57.5214 49.7151Z" fill="#08102A"/>
<path d="M45.0629 50.0346C46.7998 50.0346 47.0531 48.1906 46.9627 47.2686C46.8076 46.6764 46.226 46.9569 46.3035 47.1906C46.4586 48.2036 46.1097 49.684 45.0629 49.5671C44.016 49.4502 43.7059 48.1646 43.8222 47.5413C43.9385 46.9179 44.0548 46.4504 43.4732 46.5283C42.8917 46.6063 42.8917 50.0346 45.0629 50.0346Z" fill="#08102A"/>
<path d="M37.0149 73.1695C34.9026 70.673 37.1406 64.5877 38.5236 61.8571L43.4272 63.4175C43.7413 67.9644 40.9176 73.8634 38.4394 73.9099C39.0011 74.0645 39.4394 74.0241 39.6553 73.9497C41.118 76.7228 39.9023 79.333 38.1466 80.2008C39.1031 83.965 38.5072 85.6142 37.3922 86.1219C37.7694 88.0458 37.8448 91.7375 35.1289 91.1134C32.4189 90.4906 33.4123 87.2266 34.2524 85.6623C34.2296 85.643 34.2269 85.6362 34.2471 85.6464C34.0274 85.5273 33.8167 85.3976 33.6202 85.2621C31.8097 84.0139 34.6261 81.5151 36.2606 80.4218C35.8689 80.3189 35.4852 80.1167 35.1289 79.801C33.0166 77.9286 35.5061 74.5998 37.0149 73.1695Z" fill="#08102A"/>
<path d="M33.6202 98.915C32.1114 97.3547 33.3777 93.1938 34.2579 92.2836L36.6378 92.6737C38.1466 102.348 35.9312 105.026 34.2578 103.986C35.9749 104.61 36.057 103.206 35.8834 102.426C35.7577 101.906 35.129 100.475 33.6202 98.915Z" fill="#08102A"/>
<path d="M33.7181 90.295L37.0732 90.4547L36.6363 92.8553L33.8779 92.8512L33.7181 90.295Z" fill="#A61EDA"/>
<path d="M74.2899 73.5198C73.3313 75.4903 70.7431 80.166 68.0591 83.1056" stroke="url(#paint8_linear_278_2461)" stroke-width="0.100222"/>
<path d="M71.0947 73.0405C70.1361 75.0109 67.5479 79.6867 64.8639 82.6263" stroke="url(#paint9_linear_278_2461)" stroke-width="0.100222"/>
<path d="M41.8579 88.5376C42.1774 89.0169 46.9703 93.9696 55.9171 92.5317" stroke="url(#paint10_linear_278_2461)" stroke-width="0.100222"/>
<path d="M51.1243 87.0997C53.2544 87.2062 58.6331 86.3329 63.1065 81.9873" stroke="url(#paint11_linear_278_2461)" stroke-width="0.100222"/>
<path d="M50.4852 93.1707C52.6154 93.2772 57.9941 92.4039 62.4675 88.0583" stroke="url(#paint12_linear_278_2461)" stroke-width="0.100222"/>
<path d="M41.2189 79.7506C42.284 81.295 44.9893 84.5755 47.2899 85.3423" stroke="url(#paint13_linear_278_2461)" stroke-width="0.100222"/>
<path d="M31.7928 73.6796C32.2721 75.224 33.4224 78.6003 34.1893 79.7506" stroke="url(#paint14_linear_278_2461)" stroke-width="0.100222"/>
<circle cx="53.6806" cy="96.0465" r="0.639053" fill="#E64B80"/>
<circle cx="49.2072" cy="95.4074" r="0.639053" fill="#E64B80"/>
<circle cx="52.0829" cy="83.9045" r="0.639053" fill="#E64B80"/>
<circle cx="57.1953" cy="82.9459" r="0.639053" fill="#E64B80"/>
<circle cx="60.7101" cy="80.3897" r="0.639053" fill="#E64B80"/>
<circle cx="63.5858" cy="76.5553" r="0.639053" fill="#E64B80"/>
<circle cx="65.8225" cy="72.721" r="0.639053" fill="#E64B80"/>
<circle cx="47.6095" cy="81.9873" r="0.639053" fill="#E64B80"/>
<circle cx="44.4142" cy="79.4311" r="0.639053" fill="#E64B80"/>
<circle cx="42.1775" cy="76.5553" r="0.639053" fill="#E64B80"/>
<circle cx="45.3728" cy="93.8098" r="0.639053" fill="#E64B80"/>
<circle cx="41.6983" cy="91.7329" r="0.47929" fill="#E64B80"/>
<circle cx="38.8226" cy="89.1766" r="0.47929" fill="#E64B80"/>
<circle cx="32.7515" cy="80.8689" r="0.47929" fill="#E64B80"/>
<circle cx="40.4201" cy="73.8394" r="0.47929" fill="#E64B80"/>
<circle cx="58.4734" cy="95.0879" r="0.639053" fill="#E64B80"/>
<circle cx="62.3078" cy="92.8512" r="0.639053" fill="#E64B80"/>
<circle cx="65.5029" cy="90.295" r="0.639053" fill="#E64B80"/>
<circle cx="68.3787" cy="87.4192" r="0.639053" fill="#E64B80"/>
<circle cx="70.935" cy="84.224" r="0.639053" fill="#E64B80"/>
<circle cx="73.1716" cy="80.0701" r="0.639053" fill="#E64B80"/>
<circle cx="75.2486" cy="76.3956" r="0.47929" fill="#E64B80"/>
<path opacity="0.5" d="M69.6568 102.437C69.1775 102.597 51.9231 105.792 37.8639 102.437" stroke="url(#paint15_linear_278_2461)" stroke-width="0.144852"/>
<path opacity="0.5" d="M67.1005 104.354C66.7007 104.488 52.3076 107.162 40.5798 104.354" stroke="url(#paint16_linear_278_2461)" stroke-width="0.144852"/>
<path opacity="0.5" d="M61.6686 106.271C61.4326 106.338 52.9355 107.675 46.0118 106.271" stroke="url(#paint17_linear_278_2461)" stroke-width="0.144852"/>
</g>
<defs>
<linearGradient id="paint0_linear_278_2461" x1="53.9206" y1="59.9167" x2="53.9206" y2="91.1911" gradientUnits="userSpaceOnUse">
<stop stop-color="#2C7590"/>
<stop offset="0.617708" stop-color="#4CA7BD"/>
<stop offset="1" stop-color="#3996B5"/>
</linearGradient>
<linearGradient id="paint1_linear_278_2461" x1="50.9761" y1="28.9459" x2="50.9761" y2="66.65" gradientUnits="userSpaceOnUse">
<stop stop-color="#2C7590"/>
<stop offset="0.617708" stop-color="#4CA7BD"/>
<stop offset="1" stop-color="#3996B5"/>
</linearGradient>
<linearGradient id="paint2_linear_278_2461" x1="52.0945" y1="40.7684" x2="52.0945" y2="44.4429" gradientUnits="userSpaceOnUse">
<stop stop-color="#FE0002"/>
<stop offset="1" stop-color="#FF8182"/>
<stop offset="1" stop-color="#FE0002"/>
</linearGradient>
<linearGradient id="paint3_linear_278_2461" x1="53.0414" y1="70.6441" x2="51.7633" y2="112.183" gradientUnits="userSpaceOnUse">
<stop stop-color="#FCCD03"/>
<stop offset="1" stop-color="#C62426"/>
</linearGradient>
<linearGradient id="paint4_linear_278_2461" x1="53.0144" y1="69.8454" x2="53.0144" y2="96.8132" gradientUnits="userSpaceOnUse">
<stop stop-color="#9200C8"/>
<stop offset="1" stop-color="#C832FF"/>
</linearGradient>
<linearGradient id="paint5_linear_278_2461" x1="53.0144" y1="69.8454" x2="53.0144" y2="96.8132" gradientUnits="userSpaceOnUse">
<stop stop-color="#9200C8"/>
<stop offset="1" stop-color="#C832FF"/>
</linearGradient>
<linearGradient id="paint6_linear_278_2461" x1="53.6437" y1="71.1234" x2="53.6437" y2="98.249" gradientUnits="userSpaceOnUse">
<stop stop-color="#BC0E3C"/>
<stop offset="1" stop-color="#CB2374"/>
</linearGradient>
<linearGradient id="paint7_linear_278_2461" x1="52.4304" y1="66.8098" x2="52.4304" y2="84.9471" gradientUnits="userSpaceOnUse">
<stop stop-color="#BC0E3C"/>
<stop offset="1" stop-color="#CB2374"/>
</linearGradient>
<linearGradient id="paint8_linear_278_2461" x1="73.3668" y1="73.5198" x2="72.7342" y2="83.9394" gradientUnits="userSpaceOnUse">
<stop stop-color="#D766FF"/>
<stop offset="1" stop-color="#F162AF" stop-opacity="0"/>
</linearGradient>
<linearGradient id="paint9_linear_278_2461" x1="70.1716" y1="73.0405" x2="69.5391" y2="83.4601" gradientUnits="userSpaceOnUse">
<stop stop-color="#D766FF"/>
<stop offset="1" stop-color="#F162AF" stop-opacity="0"/>
</linearGradient>
<linearGradient id="paint10_linear_278_2461" x1="53.8342" y1="88.5376" x2="53.7788" y2="93.1791" gradientUnits="userSpaceOnUse">
<stop stop-color="#D766FF"/>
<stop offset="1" stop-color="#F162AF" stop-opacity="0"/>
</linearGradient>
<linearGradient id="paint11_linear_278_2461" x1="61.3314" y1="81.9873" x2="61.2372" y2="87.5724" gradientUnits="userSpaceOnUse">
<stop stop-color="#D766FF"/>
<stop offset="1" stop-color="#F162AF" stop-opacity="0"/>
</linearGradient>
<linearGradient id="paint12_linear_278_2461" x1="60.6923" y1="88.0583" x2="60.5981" y2="93.6434" gradientUnits="userSpaceOnUse">
<stop stop-color="#D766FF"/>
<stop offset="1" stop-color="#F162AF" stop-opacity="0"/>
</linearGradient>
<linearGradient id="paint13_linear_278_2461" x1="46.3905" y1="79.7506" x2="46.169" y2="85.8431" gradientUnits="userSpaceOnUse">
<stop stop-color="#D766FF"/>
<stop offset="1" stop-color="#F162AF" stop-opacity="0"/>
</linearGradient>
<linearGradient id="paint14_linear_278_2461" x1="33.8343" y1="73.6796" x2="33.1787" y2="80.2375" gradientUnits="userSpaceOnUse">
<stop stop-color="#D766FF"/>
<stop offset="1" stop-color="#F162AF" stop-opacity="0"/>
</linearGradient>
<linearGradient id="paint15_linear_278_2461" x1="64.9467" y1="102.437" x2="64.9436" y2="104.103" gradientUnits="userSpaceOnUse">
<stop stop-color="#DD6C17"/>
<stop offset="1" stop-color="#E88E10"/>
</linearGradient>
<linearGradient id="paint16_linear_278_2461" x1="63.1715" y1="104.354" x2="63.1689" y2="105.749" gradientUnits="userSpaceOnUse">
<stop stop-color="#DD6C17"/>
<stop offset="1" stop-color="#E88E10"/>
</linearGradient>
<linearGradient id="paint17_linear_278_2461" x1="59.3491" y1="106.271" x2="59.348" y2="106.969" gradientUnits="userSpaceOnUse">
<stop stop-color="#DD6C17"/>
<stop offset="1" stop-color="#E88E10"/>
</linearGradient>
</defs>
</svg>
