<svg width="108" height="109" viewBox="0 0 108 109" fill="none" xmlns="http://www.w3.org/2000/svg">
<circle cx="54" cy="54.1884" r="54" fill="#FFDCB2"/>
<mask id="mask0_278_2737" style="mask-type:alpha" maskUnits="userSpaceOnUse" x="0" y="0" width="108" height="109">
<circle cx="54" cy="54.1884" r="54" fill="#D9D9D9"/>
</mask>
<g mask="url(#mask0_278_2737)">
<path d="M28.3999 101.631C26.0178 103.554 44.0129 85.0394 44.9232 84.4813H61.6736C64.878 84.4813 78.691 95.7198 83 99.6884C61 113.688 36.1999 107.149 28.3999 101.631Z" fill="url(#paint0_linear_278_2737)"/>
<g filter="url(#filter0_f_278_2737)">
<path d="M52.2054 59.2969C51.5006 59.3531 51.8759 67.1482 52.1517 71.0388C52.9146 71.7445 53.8959 71.2192 54.2912 70.8683C53.8896 66.9878 52.9102 59.2408 52.2054 59.2969Z" fill="url(#paint1_linear_278_2737)"/>
</g>
<path d="M21.5961 59.1562C18.5665 68.6491 26.1826 70.2914 30.3694 69.926L36.3025 66.7015L35.5451 61.2844C41.0489 61.3876 49.4099 54.2765 52.9024 50.7081C58.1538 58.0341 67.3773 59.2207 71.3327 58.8983C71.6357 60.1365 71.4589 63.2836 71.3327 64.7023C74.8673 64.5991 75.7509 66.508 75.7509 67.4754C92.313 64.5346 90.7729 57.3075 87.9326 54.0616C95.4057 47.3547 89.2791 40.4758 85.2817 37.8748C86.8975 25.2864 78.0863 24.7619 73.4787 26.0732C66.5105 12.6594 56.6894 15.8409 52.6499 19.1084C38.9155 11.7824 32.6627 21.516 31.2531 27.2985C20.2959 26.2667 20.2496 36.1551 21.5961 41.2282C9.07357 48.451 16.3784 56.1897 21.5961 59.1562Z" fill="url(#paint2_linear_278_2737)"/>
<path d="M62.8751 37.2481C54.81 37.5648 37.6867 35.2534 33.7148 23.4747" stroke="url(#paint3_linear_278_2737)" stroke-width="0.736371" stroke-linecap="round"/>
<path d="M30.9377 28.1176C33.4204 31.7309 42.5009 39.1627 58.9619 39.9837" stroke="url(#paint4_linear_278_2737)" stroke-width="0.736371" stroke-linecap="round"/>
<path d="M39.7742 18.1865C40.5452 22.9231 46.6236 33.1398 64.7687 36.1146" stroke="url(#paint5_linear_278_2737)" stroke-width="0.736371" stroke-linecap="round"/>
<path d="M53.0288 19.8632C55.0359 22.9407 62.0116 28.8218 73.8576 27.7254" stroke="url(#paint6_linear_278_2737)" stroke-width="0.736371" stroke-linecap="round"/>
<path d="M74.2363 48.1094C74.6838 51.6377 78.2388 58.7184 88.8796 58.8146" stroke="url(#paint7_linear_278_2737)" stroke-width="0.736371" stroke-linecap="round"/>
<path d="M70.323 50.5601C72.2644 54.6087 78.2393 62.622 86.6073 62.287" stroke="url(#paint8_linear_278_2737)" stroke-width="0.736371" stroke-linecap="round"/>
<path d="M72.343 59.9754C74.1313 61.658 78.781 64.9373 83.073 64.5936" stroke="url(#paint9_linear_278_2737)" stroke-width="0.736371" stroke-linecap="round"/>
<path d="M21.0916 42.5634C23.4851 45.2101 31.2038 50.2891 42.9302 49.4321" stroke="url(#paint10_linear_278_2737)" stroke-width="0.736371" stroke-linecap="round"/>
<path d="M20.0815 43.3373C21.9704 47.2233 27.8464 54.5415 36.2396 52.7263" stroke="url(#paint11_linear_278_2737)" stroke-width="0.736371" stroke-linecap="round"/>
<path d="M76.8241 26.3766C72.2586 33.6854 61.4866 48.8318 54.9224 50.947" stroke="url(#paint12_linear_278_2737)" stroke-width="0.736371" stroke-linecap="round"/>
<path d="M81.8104 27.6021C78.0595 35.1892 68.39 50.764 59.7192 52.3659" stroke="url(#paint13_linear_278_2737)" stroke-width="0.736371" stroke-linecap="round"/>
<path d="M21.3438 60.6438C36.0081 53.9799 67.0535 38.0338 73.9206 27.5607C75.8983 25.9915 80.6237 24.2976 83.7039 30.0758C86.784 35.8541 84.9872 39.2333 83.7039 40.2006C80.2534 43.8335 71.0677 51.6797 61.9283 54.0014" stroke="url(#paint14_linear_278_2737)" stroke-width="0.736371" stroke-linecap="round"/>
<path d="M76.2906 66.6521C75.2117 63.8028 72.0308 64.5583 70.5752 65.2922V73.7751L76.2906 73.3218C76.7401 72.2857 77.3694 69.5013 76.2906 66.6521Z" fill="url(#paint15_linear_278_2737)"/>
<path d="M29.0711 72.6892C29.5385 66.9501 33.4199 66.5828 35.3022 67.1166L37.2495 76.6605C34.3286 77.7281 28.6038 78.4284 29.0711 72.6892Z" fill="url(#paint16_linear_278_2737)"/>
<path d="M34.7246 60.4163C43.3497 59.6432 50.6151 52.6634 53.1698 49.2702C60.7556 56.7954 68.6706 58.8486 71.6798 58.9345C73.4118 67.8471 72.8099 86.4325 56.547 89.4736C40.2841 92.5146 35.2225 71.3692 34.7246 60.4163Z" fill="url(#paint17_linear_278_2737)"/>
<path d="M49.8098 60.9678C49.7593 57.7691 51.5 57.6885 52.2083 57.4854C53.0513 57.3103 53.7354 57.2206 54.5118 57.8527C54.8238 58.1068 54.8596 58.5557 54.8202 58.9562C54.6238 60.9495 56.3952 64.8361 57.2577 66.6177C55.9448 66.0502 53.5969 67.3893 52.7763 68.2492C52.2209 66.7014 49.1155 66.2522 47.6638 65.9083C49.1281 64.5153 49.7257 61.7632 49.8098 60.9678Z" fill="url(#paint18_linear_278_2737)"/>
<path d="M29.2334 72.0543C38.7767 62.9226 49.1154 65.4119 53.0918 67.798C60.5649 62.2261 79.0962 71.3234 87.4277 76.5685C88.1346 78.0131 94.2865 77.7723 97.274 77.4714C99.9502 76.13 103.186 76.3106 104.469 76.5685C107.6 78.0131 111.875 78.3742 113.621 78.3742C120.64 76.8781 124.162 76.547 125.046 76.5685C132.353 79.3936 137.52 79.4891 139.32 79.1704C139.359 79.1626 139.398 79.1552 139.437 79.1481C139.399 79.1557 139.36 79.1631 139.32 79.1704C137.172 79.5882 132.294 81.0286 129.022 83.6623C124.856 87.0158 115.389 84.7587 113.621 83.6623C111.854 82.566 107.752 81.2762 101.629 83.0819C96.7312 84.5265 94.1182 83.6838 93.4239 83.0819C86.7082 79.6769 81.116 80.4594 79.1593 81.2762C61.4864 82.7724 54.4173 77.5574 53.0918 74.7628C52.4606 76.9555 43.1823 85.4036 34.6615 82.6305C27.8448 80.4121 24.4995 80.1584 23.679 80.3089C18.8821 80.3089 18.5034 85.4036 12.1916 83.0819C5.87988 80.7603 2.59776 80.3089 -1.44176 82.1791C-5.48128 84.0493 -14.0653 84.5652 -16.2113 80.3089C-17.9281 76.9039 -21.5131 76.0096 -23.0911 75.9881L-15.517 75.4077C-11.1745 72.2606 -7.56415 73.6665 -6.3018 74.7628L29.2334 72.0543Z" fill="#08102A"/>
<path d="M18.5032 73.1504C14.2113 82.1789 19.5762 82.1145 22.7952 80.9536C24.6635 82.9141 20.7124 84.2211 18.5032 84.6295C10.8029 90.756 5.3748 79.7928 10.1086 73.1504C13.8957 67.8365 14.632 69.6895 14.5268 71.2803C16.4961 69.165 16.3152 71.6457 15.9785 73.1504C17.6448 71.0352 18.356 72.2691 18.5032 73.1504Z" fill="url(#paint19_linear_278_2737)"/>
<path d="M83.8757 72.225C88.1677 81.2535 82.8027 81.189 79.5837 80.0282C77.7154 81.9887 81.6665 83.2957 83.8757 83.7041C91.576 89.8306 97.0041 78.8674 92.2703 72.225C88.4832 66.9111 87.7469 68.7641 87.8521 70.3548C85.8828 68.2396 86.0637 70.7203 86.4004 72.225C84.7341 70.1098 84.0229 71.3437 83.8757 72.225Z" fill="url(#paint20_linear_278_2737)"/>
<path d="M56.8176 59.5885C56.4287 61.7554 56.7009 65.8078 60.9005 64.6823C61.7106 64.3427 63.3405 63.0717 63.3794 60.7043" stroke="#08102A" stroke-width="0.420783" stroke-linecap="round"/>
<path d="M40.6577 61.2578C40.7284 62.6853 41.7071 65.3903 45.0568 64.7908C48.4065 64.1913 48.5726 60.9009 48.2369 59.3307" stroke="#08102A" stroke-width="0.420783" stroke-linecap="round"/>
<path d="M36.6181 56.5125C39.8497 51.9725 44.3605 50.7085 46.212 50.644C46.5149 50.6225 47.306 50.678 47.6637 50.7085C47.9161 50.6053 47.5164 50.2355 47.285 50.0636C50.4409 50.0636 51.3876 52.7076 51.3245 53.3525C51.2614 53.9974 50.9458 57.1574 47.7899 56.5125C45.2652 55.9966 43.0561 57.9313 42.0462 58.7051C35.9364 61.2847 35.6541 57.8668 36.6181 56.5125Z" fill="#08102A"/>
<path d="M61.4232 58.318C59.4539 56.1512 57.4047 56.2973 56.6263 56.6413C54.455 56.2285 54.2068 54.4916 54.354 53.6748C54.8085 50.5277 56.9839 50.1278 58.0149 50.3213C57.6614 50.2697 57.531 50.5578 57.5099 50.7083C61.8019 51.0952 63.6954 52.7074 66.157 55.9319C68.1263 58.5115 67.3142 59.8442 66.662 60.1882C65.7362 60.4676 63.3925 60.4848 61.4232 58.318Z" fill="#08102A"/>
<path d="M37.3119 58.3506C37.6692 57.8308 38.1738 57.0388 38.4311 56.6221C38.3787 57.2691 37.7445 57.9131 37.3119 58.3506C37.0663 58.7078 36.8904 58.9364 36.912 58.8264C36.9297 58.7364 37.0956 58.5693 37.3119 58.3506Z" fill="url(#paint21_linear_278_2737)"/>
<path d="M39.9628 55.771C40.3201 55.2511 40.8247 54.4591 41.082 54.0425C41.0296 54.6894 40.3954 55.3335 39.9628 55.771C39.7172 56.1281 39.5412 56.3568 39.5629 56.2468C39.5805 56.1567 39.7465 55.9896 39.9628 55.771Z" fill="url(#paint22_linear_278_2737)"/>
<path d="M44.5074 53.5783C44.8648 53.0585 45.3694 52.2664 45.6266 51.8498C45.5743 52.4968 44.9401 53.1408 44.5074 53.5783C44.2619 53.9354 44.0859 54.1641 44.1075 54.0541C44.1252 53.964 44.2911 53.797 44.5074 53.5783Z" fill="url(#paint23_linear_278_2737)"/>
<path d="M55.742 54.0943C56.0994 53.5745 56.604 52.7825 56.8613 52.3659C56.8089 53.0128 56.1747 53.6569 55.742 54.0943C55.4965 54.4515 55.3205 54.6802 55.3422 54.5701C55.3598 54.4801 55.5258 54.313 55.742 54.0943Z" fill="url(#paint24_linear_278_2737)"/>
<path d="M58.8341 56.0264C59.1714 55.546 59.648 54.8143 59.8909 54.4294C59.84 55.0261 59.242 55.6217 58.8341 56.0264C58.6023 56.3564 58.4363 56.5677 58.4569 56.4662C58.4738 56.3832 58.6302 56.2286 58.8341 56.0264Z" fill="url(#paint25_linear_278_2737)"/>
<path d="M62.8085 58.8941C63.0865 58.4439 63.4785 57.7573 63.6781 57.3961C63.6443 57.9615 63.1475 58.5169 62.8085 58.8941C62.6174 59.2035 62.4802 59.4013 62.496 59.3053C62.509 59.2268 62.639 59.0827 62.8085 58.8941Z" fill="url(#paint26_linear_278_2737)"/>
<path d="M36.807 58.0928C37.1643 57.573 37.6689 56.781 37.9262 56.3644C37.8739 57.0113 37.2396 57.6553 36.807 58.0928C36.5615 58.45 36.3855 58.6786 36.4071 58.5686C36.4248 58.4786 36.5907 58.3115 36.807 58.0928Z" fill="url(#paint27_linear_278_2737)"/>
<path d="M39.4579 55.5132C39.8152 54.9934 40.3198 54.2013 40.5771 53.7847C40.5247 54.4317 39.8905 55.0757 39.4579 55.5132C39.2123 55.8703 39.0364 56.099 39.058 55.989C39.0757 55.8989 39.2416 55.7319 39.4579 55.5132Z" fill="url(#paint28_linear_278_2737)"/>
<path d="M44.0023 53.3205C44.3596 52.8007 44.8643 52.0086 45.1215 51.592C45.0692 52.239 44.435 52.883 44.0023 53.3205C43.7568 53.6777 43.5808 53.9063 43.6024 53.7963C43.6201 53.7063 43.786 53.5392 44.0023 53.3205Z" fill="url(#paint29_linear_278_2737)"/>
<path d="M55.2374 53.836C55.5947 53.3162 56.0994 52.5242 56.3566 52.1076C56.3043 52.7545 55.6701 53.3986 55.2374 53.836C54.9919 54.1932 54.8159 54.4219 54.8375 54.3118C54.8552 54.2218 55.0211 54.0547 55.2374 53.836Z" fill="url(#paint30_linear_278_2737)"/>
<path d="M58.267 55.9001C58.6243 55.3803 59.1289 54.5883 59.3862 54.1716C59.3338 54.8186 58.6996 55.4626 58.267 55.9001C58.0214 56.2573 57.8454 56.4859 57.8671 56.3759C57.8847 56.2859 58.0507 56.1188 58.267 55.9001Z" fill="url(#paint31_linear_278_2737)"/>
<path d="M62.4169 58.4038C62.6236 58.068 62.927 57.5367 63.1732 57.1379C63.1191 57.8064 62.6937 58.1601 62.4169 58.4038C62.2592 58.6599 62.1578 58.8023 62.1807 58.6855C62.1972 58.6014 62.2919 58.5138 62.4169 58.4038Z" fill="url(#paint32_linear_278_2737)"/>
<path d="M37.9432 58.3506C38.3005 57.8308 38.8052 57.0388 39.0624 56.6221C39.0101 57.2691 38.3759 57.9131 37.9432 58.3506C37.6977 58.7078 37.5217 58.9364 37.5433 58.8264C37.561 58.7364 37.7269 58.5693 37.9432 58.3506Z" fill="url(#paint33_linear_278_2737)"/>
<path d="M40.5939 55.771C40.9512 55.2511 41.4558 54.4591 41.7131 54.0425C41.6607 54.6894 41.0265 55.3335 40.5939 55.771C40.3483 56.1281 40.1723 56.3568 40.194 56.2468C40.2117 56.1567 40.3776 55.9896 40.5939 55.771Z" fill="url(#paint34_linear_278_2737)"/>
<path d="M45.1385 53.5783C45.4959 53.0585 46.0005 52.2664 46.2577 51.8498C46.2054 52.4968 45.5712 53.1408 45.1385 53.5783C44.893 53.9354 44.717 54.1641 44.7386 54.0541C44.7563 53.964 44.9222 53.797 45.1385 53.5783Z" fill="url(#paint35_linear_278_2737)"/>
<path d="M56.3732 54.0943C56.7305 53.5745 57.2351 52.7825 57.4924 52.3659C57.44 53.0128 56.8058 53.6569 56.3732 54.0943C56.1276 54.4515 55.9516 54.6802 55.9733 54.5701C55.9909 54.4801 56.1569 54.313 56.3732 54.0943Z" fill="url(#paint36_linear_278_2737)"/>
<path d="M59.4032 56.1579C59.7605 55.6381 60.2651 54.846 60.5224 54.4294C60.47 55.0764 59.8358 55.7204 59.4032 56.1579C59.1577 56.5151 58.9817 56.7437 59.0033 56.6337C59.021 56.5437 59.1869 56.3766 59.4032 56.1579Z" fill="url(#paint37_linear_278_2737)"/>
<path d="M63.4404 58.9941C63.7185 58.5139 64.11 57.7813 64.3093 57.3958C64.2801 58.0017 63.781 58.5927 63.4404 58.9941C63.2494 59.3241 63.1119 59.5349 63.1271 59.4322C63.1396 59.348 63.2702 59.1948 63.4404 58.9941Z" fill="url(#paint38_linear_278_2737)"/>
<path d="M38.7005 58.0928C39.0579 57.573 39.5625 56.781 39.8197 56.3644C39.7674 57.0113 39.1332 57.6553 38.7005 58.0928C38.455 58.45 38.279 58.6786 38.3007 58.5686C38.3183 58.4786 38.4843 58.3115 38.7005 58.0928Z" fill="url(#paint39_linear_278_2737)"/>
<path d="M41.3512 55.5132C41.7085 54.9934 42.2131 54.2013 42.4704 53.7847C42.418 54.4317 41.7838 55.0757 41.3512 55.5132C41.1057 55.8703 40.9297 56.099 40.9513 55.989C40.969 55.8989 41.1349 55.7319 41.3512 55.5132Z" fill="url(#paint40_linear_278_2737)"/>
<path d="M45.8959 53.3205C46.2532 52.8007 46.7578 52.0086 47.0151 51.592C46.9627 52.239 46.3285 52.883 45.8959 53.3205C45.6503 53.6777 45.4743 53.9063 45.496 53.7963C45.5137 53.7063 45.6796 53.5392 45.8959 53.3205Z" fill="url(#paint41_linear_278_2737)"/>
<path d="M57.1307 53.836C57.488 53.3162 57.9927 52.5242 58.2499 52.1076C58.1976 52.7545 57.5634 53.3986 57.1307 53.836C56.8852 54.1932 56.7092 54.4219 56.7308 54.3118C56.7485 54.2218 56.9144 54.0547 57.1307 53.836Z" fill="url(#paint42_linear_278_2737)"/>
<path d="M60.1605 55.9001C60.5178 55.3803 61.0225 54.5883 61.2797 54.1716C61.2274 54.8186 60.5932 55.4626 60.1605 55.9001C59.915 56.2573 59.739 56.4859 59.7606 56.3759C59.7783 56.2859 59.9442 56.1188 60.1605 55.9001Z" fill="url(#paint43_linear_278_2737)"/>
<path d="M63.9474 58.8664C64.3047 58.3466 64.8093 57.5546 65.0666 57.138C65.0142 57.7849 64.38 58.429 63.9474 58.8664C63.7018 59.2236 63.5259 59.4523 63.5475 59.3422C63.5652 59.2522 63.7311 59.0851 63.9474 58.8664Z" fill="url(#paint44_linear_278_2737)"/>
<path d="M39.8365 57.5767C40.1939 57.0569 40.6985 56.2649 40.9557 55.8483C40.9034 56.4952 40.2692 57.1393 39.8365 57.5767C39.591 57.9339 39.415 58.1626 39.4366 58.0525C39.4543 57.9625 39.6202 57.7954 39.8365 57.5767Z" fill="url(#paint45_linear_278_2737)"/>
<path d="M42.4874 54.9971C42.8447 54.4773 43.3494 53.6852 43.6066 53.2686C43.5543 53.9156 42.9201 54.5596 42.4874 54.9971C42.2419 55.3543 42.0659 55.5829 42.0875 55.4729C42.1052 55.3829 42.2711 55.2158 42.4874 54.9971Z" fill="url(#paint46_linear_278_2737)"/>
<path d="M47.0318 52.8044C47.3892 52.2846 47.8938 51.4926 48.151 51.0759C48.0987 51.7229 47.4645 52.3669 47.0318 52.8044C46.7863 53.1616 46.6103 53.3902 46.632 53.2802C46.6496 53.1902 46.8156 53.0231 47.0318 52.8044Z" fill="url(#paint47_linear_278_2737)"/>
<path d="M58.267 53.3205C58.6243 52.8007 59.1289 52.0086 59.3862 51.592C59.3338 52.239 58.6996 52.883 58.267 53.3205C58.0214 53.6777 57.8454 53.9063 57.8671 53.7963C57.8847 53.7063 58.0507 53.5392 58.267 53.3205Z" fill="url(#paint48_linear_278_2737)"/>
<path d="M61.2965 55.384C61.6538 54.8642 62.1584 54.0722 62.4157 53.6555C62.3634 54.3025 61.7292 54.9465 61.2965 55.384C61.051 55.7412 60.875 55.9698 60.8966 55.8598C60.9143 55.7698 61.0802 55.6027 61.2965 55.384Z" fill="url(#paint49_linear_278_2737)"/>
<path d="M65.0838 58.3506C65.4412 57.8308 65.9458 57.0388 66.203 56.6221C66.1507 57.2691 65.5165 57.9131 65.0838 58.3506C64.8383 58.7078 64.6623 58.9364 64.684 58.8264C64.7016 58.7364 64.8676 58.5693 65.0838 58.3506Z" fill="url(#paint50_linear_278_2737)"/>
<path d="M40.3417 57.5767C40.699 57.0569 41.2036 56.2649 41.4609 55.8483C41.4085 56.4952 40.7743 57.1393 40.3417 57.5767C40.0961 57.9339 39.9202 58.1626 39.9418 58.0525C39.9595 57.9625 40.1254 57.7954 40.3417 57.5767Z" fill="url(#paint51_linear_278_2737)"/>
<path d="M42.9925 54.9971C43.3499 54.4773 43.8545 53.6852 44.1117 53.2686C44.0594 53.9156 43.4252 54.5596 42.9925 54.9971C42.747 55.3543 42.571 55.5829 42.5926 55.4729C42.6103 55.3829 42.7763 55.2158 42.9925 54.9971Z" fill="url(#paint52_linear_278_2737)"/>
<path d="M47.537 52.8044C47.8943 52.2846 48.3989 51.4926 48.6562 51.0759C48.6038 51.7229 47.9696 52.3669 47.537 52.8044C47.2914 53.1616 47.1155 53.3902 47.1371 53.2802C47.1548 53.1902 47.3207 53.0231 47.537 52.8044Z" fill="url(#paint53_linear_278_2737)"/>
<path d="M58.7718 53.3205C59.1292 52.8007 59.6338 52.0086 59.891 51.592C59.8387 52.239 59.2045 52.883 58.7718 53.3205C58.5263 53.6777 58.3503 53.9063 58.3719 53.7963C58.3896 53.7063 58.5555 53.5392 58.7718 53.3205Z" fill="url(#paint54_linear_278_2737)"/>
<path d="M61.8014 55.384C62.1587 54.8642 62.6633 54.0722 62.9206 53.6555C62.8682 54.3025 62.234 54.9465 61.8014 55.384C61.5558 55.7412 61.3799 55.9698 61.4015 55.8598C61.4192 55.7698 61.5851 55.6027 61.8014 55.384Z" fill="url(#paint55_linear_278_2737)"/>
<path d="M65.5754 58.4084C65.9219 57.9486 66.4119 57.2485 66.6618 56.8803C66.6043 57.4477 65.9926 58.0198 65.5754 58.4084C65.3373 58.7244 65.167 58.9268 65.1889 58.8302C65.2068 58.7511 65.3668 58.6027 65.5754 58.4084Z" fill="url(#paint56_linear_278_2737)"/>
<path d="M40.9728 57.5767C41.3301 57.0569 41.8347 56.2649 42.092 55.8483C42.0396 56.4952 41.4054 57.1393 40.9728 57.5767C40.7272 57.9339 40.5513 58.1626 40.5729 58.0525C40.5906 57.9625 40.7565 57.7954 40.9728 57.5767Z" fill="url(#paint57_linear_278_2737)"/>
<path d="M43.6234 54.9971C43.9807 54.4773 44.4853 53.6852 44.7426 53.2686C44.6903 53.9156 44.0561 54.5596 43.6234 54.9971C43.3779 55.3543 43.2019 55.5829 43.2235 55.4729C43.2412 55.3829 43.4071 55.2158 43.6234 54.9971Z" fill="url(#paint58_linear_278_2737)"/>
<path d="M48.1681 52.8044C48.5254 52.2846 49.03 51.4926 49.2873 51.0759C49.2349 51.7229 48.6007 52.3669 48.1681 52.8044C47.9225 53.1616 47.7466 53.3902 47.7682 53.2802C47.7859 53.1902 47.9518 53.0231 48.1681 52.8044Z" fill="url(#paint59_linear_278_2737)"/>
<path d="M59.4032 53.3205C59.7605 52.8007 60.2651 52.0086 60.5224 51.592C60.47 52.239 59.8358 52.883 59.4032 53.3205C59.1577 53.6777 58.9817 53.9063 59.0033 53.7963C59.021 53.7063 59.1869 53.5392 59.4032 53.3205Z" fill="url(#paint60_linear_278_2737)"/>
<path d="M62.4327 55.384C62.79 54.8642 63.2947 54.0722 63.5519 53.6555C63.4996 54.3025 62.8654 54.9465 62.4327 55.384C62.1872 55.7412 62.0112 55.9698 62.0328 55.8598C62.0505 55.7698 62.2164 55.6027 62.4327 55.384Z" fill="url(#paint61_linear_278_2737)"/>
<path d="M66.1084 58.4677C66.3659 58.068 66.7292 57.4587 66.9143 57.1382C66.8804 57.6384 66.4215 58.1323 66.1084 58.4677C65.9314 58.7424 65.8044 58.9181 65.8195 58.8331C65.8318 58.7636 65.9519 58.6355 66.1084 58.4677Z" fill="url(#paint62_linear_278_2737)"/>
<path d="M41.7301 57.8345C42.0874 57.3147 42.592 56.5227 42.8493 56.106C42.7969 56.753 42.1627 57.397 41.7301 57.8345C41.4846 58.1917 41.3086 58.4203 41.3302 58.3103C41.3479 58.2203 41.5138 58.0532 41.7301 57.8345Z" fill="url(#paint63_linear_278_2737)"/>
<path d="M44.3807 55.2549C44.738 54.7351 45.2427 53.9431 45.4999 53.5264C45.4476 54.1734 44.8134 54.8174 44.3807 55.2549C44.1352 55.6121 43.9592 55.8407 43.9808 55.7307C43.9985 55.6407 44.1644 55.4736 44.3807 55.2549Z" fill="url(#paint64_linear_278_2737)"/>
<path d="M48.9254 53.0624C49.2827 52.5426 49.7873 51.7506 50.0446 51.334C49.9923 51.9809 49.3581 52.6249 48.9254 53.0624C48.6799 53.4196 48.5039 53.6482 48.5255 53.5382C48.5432 53.4482 48.7091 53.2811 48.9254 53.0624Z" fill="url(#paint65_linear_278_2737)"/>
<path d="M60.1605 53.5783C60.5178 53.0585 61.0225 52.2664 61.2797 51.8498C61.2274 52.4968 60.5932 53.1408 60.1605 53.5783C59.915 53.9354 59.739 54.1641 59.7606 54.0541C59.7783 53.964 59.9442 53.797 60.1605 53.5783Z" fill="url(#paint66_linear_278_2737)"/>
<path d="M63.19 55.6421C63.5474 55.1223 64.052 54.3302 64.3092 53.9136C64.2569 54.5606 63.6227 55.2046 63.19 55.6421C62.9445 55.9993 62.7685 56.2279 62.7902 56.1179C62.8078 56.0278 62.9738 55.8608 63.19 55.6421Z" fill="url(#paint67_linear_278_2737)"/>
<path d="M66.7125 58.9514C66.8132 58.7734 66.9659 58.4953 67.1669 58.1698C67.1119 58.85 66.8703 58.8933 66.7125 58.9514C66.5957 59.1577 66.5487 59.2295 66.5772 59.0844C66.593 59.0036 66.6451 58.9762 66.7125 58.9514Z" fill="url(#paint68_linear_278_2737)"/>
<path d="M35.9755 81.9246C37.7087 80.6892 43.8307 74.8014 46.9296 71.7595C42.5938 77.1747 38.0447 80.6458 35.9755 81.9246C35.8119 82.0413 35.6874 82.1164 35.6083 82.1438C35.72 82.0798 35.8426 82.0068 35.9755 81.9246Z" fill="url(#paint69_linear_278_2737)"/>
<path d="M74.6567 74.0516C72.6829 73.2801 64.477 71.4106 60.2733 70.4989C67.0935 71.1236 72.4591 73.0205 74.6567 74.0516C74.843 74.1245 74.9738 74.1875 75.0404 74.239C74.9259 74.1805 74.7978 74.1179 74.6567 74.0516Z" fill="url(#paint70_linear_278_2737)"/>
<path d="M47.9978 74.4568C45.5969 76.8501 40.8281 81.1489 38.6384 81.6318C40.0954 81.5936 44.007 80.1053 47.9978 74.4568Z" fill="url(#paint71_linear_278_2737)"/>
<path d="M61.8581 68.0811C65.1446 68.7669 71.3039 70.3845 72.9245 71.9646C72.0755 70.7543 68.6735 68.283 61.8581 68.0811Z" fill="url(#paint72_linear_278_2737)"/>
<path d="M50.5822 73.6722C48.3914 76.2675 44.0018 80.969 41.8607 81.6423C43.3091 81.4764 47.0811 79.6502 50.5822 73.6722Z" fill="url(#paint73_linear_278_2737)"/>
<path d="M42.0499 77.8796C43.2938 77.0199 48.6279 70.6556 51.2892 67.395C49.2808 72.953 44.4097 76.6309 42.0499 77.8796C41.9727 77.933 41.9112 77.9651 41.8671 77.974C41.9262 77.9443 41.9871 77.9128 42.0499 77.8796Z" fill="url(#paint74_linear_278_2737)"/>
<path d="M67.9703 71.1875C66.5755 70.6186 58.426 69.6828 54.2911 69.2639C59.92 67.8407 65.6338 69.8936 67.9703 71.1875C68.0568 71.2228 68.1174 71.2567 68.1493 71.289C68.0921 71.2557 68.0324 71.2219 67.9703 71.1875Z" fill="url(#paint75_linear_278_2737)"/>
<path d="M49.281 67.2138C45.892 71.1698 38.965 79.0983 38.3686 79.1641C37.6231 79.2463 41.7004 74.3215 49.281 67.2138Z" fill="url(#paint76_linear_278_2737)"/>
<path d="M55.2719 71.0635C60.3787 71.7072 70.6894 73.1113 71.0776 73.5786C71.5628 74.1627 65.2849 73.4811 55.2719 71.0635Z" fill="url(#paint77_linear_278_2737)"/>
<path d="M35.5966 77.1523C37.3298 75.9168 43.4518 70.0291 46.5507 66.9872C42.2149 72.4024 37.6658 75.8735 35.5966 77.1523C35.433 77.2689 35.3085 77.3441 35.2294 77.3715C35.3411 77.3075 35.4637 77.2344 35.5966 77.1523Z" fill="url(#paint78_linear_278_2737)"/>
<path d="M71.0048 77.0513C69.031 76.2798 60.8251 74.4103 56.6215 73.4986C63.4416 74.1233 68.8072 76.0201 71.0048 77.0513C71.1912 77.1241 71.3219 77.1872 71.3886 77.2387C71.274 77.1802 71.146 77.1175 71.0048 77.0513Z" fill="url(#paint79_linear_278_2737)"/>
<path d="M26.7936 75.6274C28.7204 74.7406 35.8023 70.1108 39.3981 67.7067C34.1573 72.2095 29.0585 74.7614 26.7936 75.6274C26.6117 75.7111 26.4758 75.7615 26.393 75.7734C26.5144 75.7317 26.6482 75.683 26.7936 75.6274Z" fill="url(#paint80_linear_278_2737)"/>
<path d="M36.3472 74.6801C38.8801 72.5184 42.6096 69.1348 44.5447 67.3365C42.6723 70.9119 38.9093 73.1583 36.3472 74.6801C34.6067 76.1655 33.4312 77.0739 33.7911 76.4946C34.0856 76.0205 35.0664 75.4408 36.3472 74.6801Z" fill="url(#paint81_linear_278_2737)"/>
<path d="M68.5815 77.8056C65.4085 76.8781 60.574 75.6251 58.031 74.9989C61.978 74.5742 65.9103 76.494 68.5815 77.8056C70.7618 78.4429 72.1575 78.9266 71.4863 78.9477C70.937 78.9649 69.9168 78.4613 68.5815 77.8056Z" fill="url(#paint82_linear_278_2737)"/>
<path d="M34.1787 72.55C36.9134 70.6624 40.9601 67.6834 43.064 66.0953C40.8457 69.4579 36.8789 71.3021 34.1787 72.55C32.2995 73.847 31.0398 74.6287 31.4554 74.0897C31.7955 73.6487 32.8288 73.1738 34.1787 72.55Z" fill="url(#paint83_linear_278_2737)"/>
<path d="M66.9417 80.0935C64.2178 79.0781 60.0518 77.6639 57.8573 76.9474C61.3996 76.9002 64.7003 78.7981 66.9417 80.0935C68.8134 80.7913 70.0043 81.3008 69.4068 81.2663C68.9179 81.2381 68.0621 80.7411 66.9417 80.0935Z" fill="url(#paint84_linear_278_2737)"/>
<path d="M44.9573 70.1103C41.5369 74.038 34.5469 81.9086 33.95 81.9694C33.2039 82.0454 37.3203 77.1548 44.9573 70.1103Z" fill="url(#paint85_linear_278_2737)"/>
<path d="M60.0458 73.0922C65.1473 73.7783 75.4464 75.2681 75.8309 75.7386C76.3114 76.3267 70.0392 75.593 60.0458 73.0922Z" fill="url(#paint86_linear_278_2737)"/>
<path d="M42.656 68.4326C38.5801 71.6415 30.2789 78.0458 29.6814 77.9921C28.9344 77.925 33.8696 73.9022 42.656 68.4326Z" fill="url(#paint87_linear_278_2737)"/>
<path d="M59.9792 75.98C64.4447 77.4993 73.4425 80.6611 73.7097 81.1546C74.0438 81.7714 68.5354 80.0029 59.9792 75.98Z" fill="url(#paint88_linear_278_2737)"/>
<path d="M48.6105 88.1545C50.0578 85.2097 54.2706 81.1406 59.5437 88.4223C57.877 89.5193 53.357 91.0017 48.6105 88.1545Z" fill="url(#paint89_linear_278_2737)"/>
</g>
<defs>
<filter id="filter0_f_278_2737" x="51.3807" y="58.8758" width="3.33119" height="12.9328" filterUnits="userSpaceOnUse" color-interpolation-filters="sRGB">
<feFlood flood-opacity="0" result="BackgroundImageFix"/>
<feBlend mode="normal" in="SourceGraphic" in2="BackgroundImageFix" result="shape"/>
<feGaussianBlur stdDeviation="0.210392" result="effect1_foregroundBlur_278_2737"/>
</filter>
<linearGradient id="paint0_linear_278_2737" x1="55.0243" y1="84.4813" x2="55.0243" y2="106.536" gradientUnits="userSpaceOnUse">
<stop stop-color="#FCCD03"/>
<stop offset="1" stop-color="#C62426"/>
</linearGradient>
<linearGradient id="paint1_linear_278_2737" x1="52.3312" y1="59.2869" x2="53.2938" y2="71.371" gradientUnits="userSpaceOnUse">
<stop stop-color="#D9D9D9"/>
<stop offset="1" stop-color="#D9D9D9" stop-opacity="0"/>
</linearGradient>
<linearGradient id="paint2_linear_278_2737" x1="53.0695" y1="16.2516" x2="53.0695" y2="69.9721" gradientUnits="userSpaceOnUse">
<stop stop-color="#85C92A"/>
<stop offset="0.685417" stop-color="#6EAF16"/>
<stop offset="1" stop-color="#4E810B"/>
</linearGradient>
<linearGradient id="paint3_linear_278_2737" x1="48.295" y1="23.4747" x2="48.295" y2="37.2754" gradientUnits="userSpaceOnUse">
<stop stop-color="#448C04"/>
<stop offset="1" stop-color="#448C04" stop-opacity="0"/>
</linearGradient>
<linearGradient id="paint4_linear_278_2737" x1="44.9498" y1="28.1176" x2="44.9498" y2="39.9837" gradientUnits="userSpaceOnUse">
<stop stop-color="#448C04"/>
<stop offset="1" stop-color="#448C04" stop-opacity="0"/>
</linearGradient>
<linearGradient id="paint5_linear_278_2737" x1="52.2714" y1="18.1865" x2="52.2714" y2="36.1146" gradientUnits="userSpaceOnUse">
<stop stop-color="#65F706"/>
<stop offset="1" stop-color="#65F706" stop-opacity="0"/>
</linearGradient>
<linearGradient id="paint6_linear_278_2737" x1="63.4432" y1="19.8632" x2="63.4432" y2="27.8598" gradientUnits="userSpaceOnUse">
<stop stop-color="#65F706"/>
<stop offset="1" stop-color="#65F706" stop-opacity="0"/>
</linearGradient>
<linearGradient id="paint7_linear_278_2737" x1="81.558" y1="48.1094" x2="81.558" y2="58.8146" gradientUnits="userSpaceOnUse">
<stop stop-color="#448C04"/>
<stop offset="1" stop-color="#448C04" stop-opacity="0"/>
</linearGradient>
<linearGradient id="paint8_linear_278_2737" x1="78.4652" y1="50.5601" x2="78.4652" y2="62.2972" gradientUnits="userSpaceOnUse">
<stop stop-color="#448C04"/>
<stop offset="1" stop-color="#448C04" stop-opacity="0"/>
</linearGradient>
<linearGradient id="paint9_linear_278_2737" x1="77.708" y1="59.9754" x2="77.708" y2="64.6187" gradientUnits="userSpaceOnUse">
<stop stop-color="#65F706"/>
<stop offset="1" stop-color="#65F706" stop-opacity="0"/>
</linearGradient>
<linearGradient id="paint10_linear_278_2737" x1="32.0109" y1="42.5634" x2="32.0109" y2="49.5283" gradientUnits="userSpaceOnUse">
<stop stop-color="#448C04"/>
<stop offset="1" stop-color="#448C04" stop-opacity="0"/>
</linearGradient>
<linearGradient id="paint11_linear_278_2737" x1="28.1606" y1="43.3373" x2="28.1606" y2="53.0107" gradientUnits="userSpaceOnUse">
<stop stop-color="#65F706"/>
<stop offset="1" stop-color="#65F706" stop-opacity="0"/>
</linearGradient>
<linearGradient id="paint12_linear_278_2737" x1="65.8733" y1="26.3766" x2="65.8733" y2="50.947" gradientUnits="userSpaceOnUse">
<stop stop-color="#65F706"/>
<stop offset="1" stop-color="#65F706" stop-opacity="0"/>
</linearGradient>
<linearGradient id="paint13_linear_278_2737" x1="70.7648" y1="27.6021" x2="70.7648" y2="52.3659" gradientUnits="userSpaceOnUse">
<stop stop-color="#65F706"/>
<stop offset="1" stop-color="#65F706" stop-opacity="0"/>
</linearGradient>
<linearGradient id="paint14_linear_278_2737" x1="53.3742" y1="26.0542" x2="53.3742" y2="60.6438" gradientUnits="userSpaceOnUse">
<stop stop-color="#448C04"/>
<stop offset="1" stop-color="#448C04" stop-opacity="0"/>
</linearGradient>
<linearGradient id="paint15_linear_278_2737" x1="73.7307" y1="64.6186" x2="73.7307" y2="73.7751" gradientUnits="userSpaceOnUse">
<stop stop-color="#3E90A8"/>
<stop offset="0.638542" stop-color="#20B4DE"/>
<stop offset="1" stop-color="#0A637C"/>
</linearGradient>
<linearGradient id="paint16_linear_278_2737" x1="33.1468" y1="66.9402" x2="33.1468" y2="77.3875" gradientUnits="userSpaceOnUse">
<stop stop-color="#3E90A8"/>
<stop offset="0.638542" stop-color="#20B4DE"/>
<stop offset="1" stop-color="#0A637C"/>
</linearGradient>
<linearGradient id="paint17_linear_278_2737" x1="53.5594" y1="47.5114" x2="53.534" y2="89.7695" gradientUnits="userSpaceOnUse">
<stop stop-color="#2A728E"/>
<stop offset="0.279167" stop-color="#3C8EA6"/>
<stop offset="0.4875" stop-color="#7EBDCF"/>
<stop offset="0.628125" stop-color="#2FA2C1"/>
<stop offset="0.794792" stop-color="#73BED2"/>
<stop offset="1" stop-color="#3595B6"/>
</linearGradient>
<linearGradient id="paint18_linear_278_2737" x1="52.303" y1="57.6267" x2="52.303" y2="68.2493" gradientUnits="userSpaceOnUse">
<stop stop-color="#7ABCD4"/>
<stop offset="1" stop-color="#2797B3"/>
</linearGradient>
<linearGradient id="paint19_linear_278_2737" x1="15.8105" y1="69.6261" x2="15.8105" y2="86.4272" gradientUnits="userSpaceOnUse">
<stop stop-color="#2E7994"/>
<stop offset="0.451042" stop-color="#56B7CC"/>
<stop offset="1" stop-color="#3995B5"/>
</linearGradient>
<linearGradient id="paint20_linear_278_2737" x1="86.5684" y1="68.7007" x2="86.5684" y2="85.5018" gradientUnits="userSpaceOnUse">
<stop stop-color="#2E7994"/>
<stop offset="0.451042" stop-color="#56B7CC"/>
<stop offset="1" stop-color="#3995B5"/>
</linearGradient>
<linearGradient id="paint21_linear_278_2737" x1="38.3787" y1="57.0743" x2="37.1942" y2="58.2045" gradientUnits="userSpaceOnUse">
<stop stop-color="#054067"/>
<stop offset="1" stop-color="#0C1D34"/>
</linearGradient>
<linearGradient id="paint22_linear_278_2737" x1="41.0296" y1="54.4947" x2="39.8451" y2="55.6249" gradientUnits="userSpaceOnUse">
<stop stop-color="#054067"/>
<stop offset="1" stop-color="#0C1D34"/>
</linearGradient>
<linearGradient id="paint23_linear_278_2737" x1="45.5743" y1="52.302" x2="44.3898" y2="53.4322" gradientUnits="userSpaceOnUse">
<stop stop-color="#054067"/>
<stop offset="1" stop-color="#0C1D34"/>
</linearGradient>
<linearGradient id="paint24_linear_278_2737" x1="56.8089" y1="52.8181" x2="55.6244" y2="53.9483" gradientUnits="userSpaceOnUse">
<stop stop-color="#054067"/>
<stop offset="1" stop-color="#0C1D34"/>
</linearGradient>
<linearGradient id="paint25_linear_278_2737" x1="59.8405" y1="54.8465" x2="58.7441" y2="55.9128" gradientUnits="userSpaceOnUse">
<stop stop-color="#054067"/>
<stop offset="1" stop-color="#0C1D34"/>
</linearGradient>
<linearGradient id="paint26_linear_278_2737" x1="63.6419" y1="57.7911" x2="62.6309" y2="58.6704" gradientUnits="userSpaceOnUse">
<stop stop-color="#054067"/>
<stop offset="1" stop-color="#0C1D34"/>
</linearGradient>
<linearGradient id="paint27_linear_278_2737" x1="37.8738" y1="56.8165" x2="36.6893" y2="57.9467" gradientUnits="userSpaceOnUse">
<stop stop-color="#054067"/>
<stop offset="1" stop-color="#0C1D34"/>
</linearGradient>
<linearGradient id="paint28_linear_278_2737" x1="40.5247" y1="54.2369" x2="39.3402" y2="55.3671" gradientUnits="userSpaceOnUse">
<stop stop-color="#054067"/>
<stop offset="1" stop-color="#0C1D34"/>
</linearGradient>
<linearGradient id="paint29_linear_278_2737" x1="45.0691" y1="52.0442" x2="43.8846" y2="53.1744" gradientUnits="userSpaceOnUse">
<stop stop-color="#054067"/>
<stop offset="1" stop-color="#0C1D34"/>
</linearGradient>
<linearGradient id="paint30_linear_278_2737" x1="56.3042" y1="52.5598" x2="55.1197" y2="53.69" gradientUnits="userSpaceOnUse">
<stop stop-color="#054067"/>
<stop offset="1" stop-color="#0C1D34"/>
</linearGradient>
<linearGradient id="paint31_linear_278_2737" x1="59.3338" y1="54.6238" x2="58.1493" y2="55.754" gradientUnits="userSpaceOnUse">
<stop stop-color="#054067"/>
<stop offset="1" stop-color="#0C1D34"/>
</linearGradient>
<linearGradient id="paint32_linear_278_2737" x1="63.1208" y1="57.5901" x2="61.9363" y2="58.7203" gradientUnits="userSpaceOnUse">
<stop stop-color="#054067"/>
<stop offset="1" stop-color="#0C1D34"/>
</linearGradient>
<linearGradient id="paint33_linear_278_2737" x1="39.0101" y1="57.0743" x2="37.8255" y2="58.2045" gradientUnits="userSpaceOnUse">
<stop stop-color="#054067"/>
<stop offset="1" stop-color="#0C1D34"/>
</linearGradient>
<linearGradient id="paint34_linear_278_2737" x1="41.6607" y1="54.4947" x2="40.4762" y2="55.6249" gradientUnits="userSpaceOnUse">
<stop stop-color="#054067"/>
<stop offset="1" stop-color="#0C1D34"/>
</linearGradient>
<linearGradient id="paint35_linear_278_2737" x1="46.2054" y1="52.302" x2="45.0209" y2="53.4322" gradientUnits="userSpaceOnUse">
<stop stop-color="#054067"/>
<stop offset="1" stop-color="#0C1D34"/>
</linearGradient>
<linearGradient id="paint36_linear_278_2737" x1="57.44" y1="52.8181" x2="56.2555" y2="53.9483" gradientUnits="userSpaceOnUse">
<stop stop-color="#054067"/>
<stop offset="1" stop-color="#0C1D34"/>
</linearGradient>
<linearGradient id="paint37_linear_278_2737" x1="60.47" y1="54.8816" x2="59.2855" y2="56.0118" gradientUnits="userSpaceOnUse">
<stop stop-color="#054067"/>
<stop offset="1" stop-color="#0C1D34"/>
</linearGradient>
<linearGradient id="paint38_linear_278_2737" x1="64.2762" y1="57.819" x2="63.2122" y2="58.6967" gradientUnits="userSpaceOnUse">
<stop stop-color="#054067"/>
<stop offset="1" stop-color="#0C1D34"/>
</linearGradient>
<linearGradient id="paint39_linear_278_2737" x1="39.7674" y1="56.8165" x2="38.5829" y2="57.9467" gradientUnits="userSpaceOnUse">
<stop stop-color="#054067"/>
<stop offset="1" stop-color="#0C1D34"/>
</linearGradient>
<linearGradient id="paint40_linear_278_2737" x1="42.418" y1="54.2369" x2="41.2335" y2="55.3671" gradientUnits="userSpaceOnUse">
<stop stop-color="#054067"/>
<stop offset="1" stop-color="#0C1D34"/>
</linearGradient>
<linearGradient id="paint41_linear_278_2737" x1="46.9627" y1="52.0442" x2="45.7782" y2="53.1744" gradientUnits="userSpaceOnUse">
<stop stop-color="#054067"/>
<stop offset="1" stop-color="#0C1D34"/>
</linearGradient>
<linearGradient id="paint42_linear_278_2737" x1="58.1976" y1="52.5598" x2="57.013" y2="53.69" gradientUnits="userSpaceOnUse">
<stop stop-color="#054067"/>
<stop offset="1" stop-color="#0C1D34"/>
</linearGradient>
<linearGradient id="paint43_linear_278_2737" x1="61.2273" y1="54.6238" x2="60.0428" y2="55.754" gradientUnits="userSpaceOnUse">
<stop stop-color="#054067"/>
<stop offset="1" stop-color="#0C1D34"/>
</linearGradient>
<linearGradient id="paint44_linear_278_2737" x1="65.0142" y1="57.5902" x2="63.8297" y2="58.7203" gradientUnits="userSpaceOnUse">
<stop stop-color="#054067"/>
<stop offset="1" stop-color="#0C1D34"/>
</linearGradient>
<linearGradient id="paint45_linear_278_2737" x1="40.9034" y1="56.3005" x2="39.7189" y2="57.4306" gradientUnits="userSpaceOnUse">
<stop stop-color="#054067"/>
<stop offset="1" stop-color="#0C1D34"/>
</linearGradient>
<linearGradient id="paint46_linear_278_2737" x1="43.5542" y1="53.7208" x2="42.3697" y2="54.851" gradientUnits="userSpaceOnUse">
<stop stop-color="#054067"/>
<stop offset="1" stop-color="#0C1D34"/>
</linearGradient>
<linearGradient id="paint47_linear_278_2737" x1="48.0987" y1="51.5281" x2="46.9142" y2="52.6583" gradientUnits="userSpaceOnUse">
<stop stop-color="#054067"/>
<stop offset="1" stop-color="#0C1D34"/>
</linearGradient>
<linearGradient id="paint48_linear_278_2737" x1="59.3338" y1="52.0442" x2="58.1493" y2="53.1744" gradientUnits="userSpaceOnUse">
<stop stop-color="#054067"/>
<stop offset="1" stop-color="#0C1D34"/>
</linearGradient>
<linearGradient id="paint49_linear_278_2737" x1="62.3633" y1="54.1077" x2="61.1788" y2="55.2379" gradientUnits="userSpaceOnUse">
<stop stop-color="#054067"/>
<stop offset="1" stop-color="#0C1D34"/>
</linearGradient>
<linearGradient id="paint50_linear_278_2737" x1="66.1507" y1="57.0743" x2="64.9662" y2="58.2045" gradientUnits="userSpaceOnUse">
<stop stop-color="#054067"/>
<stop offset="1" stop-color="#0C1D34"/>
</linearGradient>
<linearGradient id="paint51_linear_278_2737" x1="41.4085" y1="56.3005" x2="40.224" y2="57.4306" gradientUnits="userSpaceOnUse">
<stop stop-color="#054067"/>
<stop offset="1" stop-color="#0C1D34"/>
</linearGradient>
<linearGradient id="paint52_linear_278_2737" x1="44.0594" y1="53.7208" x2="42.8749" y2="54.851" gradientUnits="userSpaceOnUse">
<stop stop-color="#054067"/>
<stop offset="1" stop-color="#0C1D34"/>
</linearGradient>
<linearGradient id="paint53_linear_278_2737" x1="48.6038" y1="51.5281" x2="47.4193" y2="52.6583" gradientUnits="userSpaceOnUse">
<stop stop-color="#054067"/>
<stop offset="1" stop-color="#0C1D34"/>
</linearGradient>
<linearGradient id="paint54_linear_278_2737" x1="59.8387" y1="52.0442" x2="58.6542" y2="53.1744" gradientUnits="userSpaceOnUse">
<stop stop-color="#054067"/>
<stop offset="1" stop-color="#0C1D34"/>
</linearGradient>
<linearGradient id="paint55_linear_278_2737" x1="62.8682" y1="54.1077" x2="61.6837" y2="55.2379" gradientUnits="userSpaceOnUse">
<stop stop-color="#054067"/>
<stop offset="1" stop-color="#0C1D34"/>
</linearGradient>
<linearGradient id="paint56_linear_278_2737" x1="66.6066" y1="57.2771" x2="65.5549" y2="58.3685" gradientUnits="userSpaceOnUse">
<stop stop-color="#054067"/>
<stop offset="1" stop-color="#0C1D34"/>
</linearGradient>
<linearGradient id="paint57_linear_278_2737" x1="42.0396" y1="56.3005" x2="40.8551" y2="57.4306" gradientUnits="userSpaceOnUse">
<stop stop-color="#054067"/>
<stop offset="1" stop-color="#0C1D34"/>
</linearGradient>
<linearGradient id="paint58_linear_278_2737" x1="44.6902" y1="53.7208" x2="43.5057" y2="54.851" gradientUnits="userSpaceOnUse">
<stop stop-color="#054067"/>
<stop offset="1" stop-color="#0C1D34"/>
</linearGradient>
<linearGradient id="paint59_linear_278_2737" x1="49.2349" y1="51.5281" x2="48.0504" y2="52.6583" gradientUnits="userSpaceOnUse">
<stop stop-color="#054067"/>
<stop offset="1" stop-color="#0C1D34"/>
</linearGradient>
<linearGradient id="paint60_linear_278_2737" x1="60.47" y1="52.0442" x2="59.2855" y2="53.1744" gradientUnits="userSpaceOnUse">
<stop stop-color="#054067"/>
<stop offset="1" stop-color="#0C1D34"/>
</linearGradient>
<linearGradient id="paint61_linear_278_2737" x1="63.4996" y1="54.1077" x2="62.3151" y2="55.2379" gradientUnits="userSpaceOnUse">
<stop stop-color="#054067"/>
<stop offset="1" stop-color="#0C1D34"/>
</linearGradient>
<linearGradient id="paint62_linear_278_2737" x1="66.8791" y1="57.4877" x2="65.9752" y2="58.3026" gradientUnits="userSpaceOnUse">
<stop stop-color="#054067"/>
<stop offset="1" stop-color="#0C1D34"/>
</linearGradient>
<linearGradient id="paint63_linear_278_2737" x1="42.7969" y1="56.5582" x2="41.6124" y2="57.6884" gradientUnits="userSpaceOnUse">
<stop stop-color="#054067"/>
<stop offset="1" stop-color="#0C1D34"/>
</linearGradient>
<linearGradient id="paint64_linear_278_2737" x1="45.4476" y1="53.9786" x2="44.263" y2="55.1088" gradientUnits="userSpaceOnUse">
<stop stop-color="#054067"/>
<stop offset="1" stop-color="#0C1D34"/>
</linearGradient>
<linearGradient id="paint65_linear_278_2737" x1="49.9922" y1="51.7861" x2="48.8077" y2="52.9163" gradientUnits="userSpaceOnUse">
<stop stop-color="#054067"/>
<stop offset="1" stop-color="#0C1D34"/>
</linearGradient>
<linearGradient id="paint66_linear_278_2737" x1="61.2273" y1="52.302" x2="60.0428" y2="53.4322" gradientUnits="userSpaceOnUse">
<stop stop-color="#054067"/>
<stop offset="1" stop-color="#0C1D34"/>
</linearGradient>
<linearGradient id="paint67_linear_278_2737" x1="64.2569" y1="54.3658" x2="63.0724" y2="55.496" gradientUnits="userSpaceOnUse">
<stop stop-color="#054067"/>
<stop offset="1" stop-color="#0C1D34"/>
</linearGradient>
<linearGradient id="paint68_linear_278_2737" x1="68.0439" y1="57.3323" x2="66.8594" y2="58.4625" gradientUnits="userSpaceOnUse">
<stop stop-color="#054067"/>
<stop offset="1" stop-color="#0C1D34"/>
</linearGradient>
<linearGradient id="paint69_linear_278_2737" x1="45.4602" y1="74.507" x2="38.1909" y2="74.7355" gradientUnits="userSpaceOnUse">
<stop stop-color="#054067"/>
<stop offset="1" stop-color="#0C1D34"/>
</linearGradient>
<linearGradient id="paint70_linear_278_2737" x1="63.3235" y1="70.1984" x2="67.7196" y2="76.1199" gradientUnits="userSpaceOnUse">
<stop stop-color="#054067"/>
<stop offset="1" stop-color="#0C1D34"/>
</linearGradient>
<linearGradient id="paint71_linear_278_2737" x1="46.8094" y1="76.353" x2="40.694" y2="76.7556" gradientUnits="userSpaceOnUse">
<stop stop-color="#054067"/>
<stop offset="1" stop-color="#0C1D34"/>
</linearGradient>
<linearGradient id="paint72_linear_278_2737" x1="64.0611" y1="68.0209" x2="67.9361" y2="72.8733" gradientUnits="userSpaceOnUse">
<stop stop-color="#054067"/>
<stop offset="1" stop-color="#0C1D34"/>
</linearGradient>
<linearGradient id="paint73_linear_278_2737" x1="49.5576" y1="75.6658" x2="43.4954" y2="76.5818" gradientUnits="userSpaceOnUse">
<stop stop-color="#054067"/>
<stop offset="1" stop-color="#0C1D34"/>
</linearGradient>
<linearGradient id="paint74_linear_278_2737" x1="50.2726" y1="70.0258" x2="43.347" y2="71.4016" gradientUnits="userSpaceOnUse">
<stop stop-color="#054067"/>
<stop offset="1" stop-color="#0C1D34"/>
</linearGradient>
<linearGradient id="paint75_linear_278_2737" x1="56.9924" y1="68.6461" x2="62.1422" y2="73.5755" gradientUnits="userSpaceOnUse">
<stop stop-color="#054067"/>
<stop offset="1" stop-color="#0C1D34"/>
</linearGradient>
<linearGradient id="paint76_linear_278_2737" x1="47.93" y1="70.2429" x2="40.4691" y2="70.8724" gradientUnits="userSpaceOnUse">
<stop stop-color="#054067"/>
<stop offset="1" stop-color="#0C1D34"/>
</linearGradient>
<linearGradient id="paint77_linear_278_2737" x1="58.4836" y1="70.5048" x2="63.3268" y2="76.3396" gradientUnits="userSpaceOnUse">
<stop stop-color="#054067"/>
<stop offset="1" stop-color="#0C1D34"/>
</linearGradient>
<linearGradient id="paint78_linear_278_2737" x1="45.0813" y1="69.7347" x2="37.812" y2="69.9632" gradientUnits="userSpaceOnUse">
<stop stop-color="#054067"/>
<stop offset="1" stop-color="#0C1D34"/>
</linearGradient>
<linearGradient id="paint79_linear_278_2737" x1="59.6716" y1="73.1981" x2="64.0678" y2="79.1196" gradientUnits="userSpaceOnUse">
<stop stop-color="#054067"/>
<stop offset="1" stop-color="#0C1D34"/>
</linearGradient>
<linearGradient id="paint80_linear_278_2737" x1="37.4569" y1="70.1292" x2="30.263" y2="69.0375" gradientUnits="userSpaceOnUse">
<stop stop-color="#054067"/>
<stop offset="1" stop-color="#0C1D34"/>
</linearGradient>
<linearGradient id="paint81_linear_278_2737" x1="43.1845" y1="69.7999" x2="36.1421" y2="70.2321" gradientUnits="userSpaceOnUse">
<stop stop-color="#054067"/>
<stop offset="1" stop-color="#0C1D34"/>
</linearGradient>
<linearGradient id="paint82_linear_278_2737" x1="60.7899" y1="74.7656" x2="65.2259" y2="80.3728" gradientUnits="userSpaceOnUse">
<stop stop-color="#054067"/>
<stop offset="1" stop-color="#0C1D34"/>
</linearGradient>
<linearGradient id="paint83_linear_278_2737" x1="41.4658" y1="68.4048" x2="34.4157" y2="68.1345" gradientUnits="userSpaceOnUse">
<stop stop-color="#054067"/>
<stop offset="1" stop-color="#0C1D34"/>
</linearGradient>
<linearGradient id="paint84_linear_278_2737" x1="60.3271" y1="76.9672" x2="63.4322" y2="82.1348" gradientUnits="userSpaceOnUse">
<stop stop-color="#054067"/>
<stop offset="1" stop-color="#0C1D34"/>
</linearGradient>
<linearGradient id="paint85_linear_278_2737" x1="43.5822" y1="73.1281" x2="36.1167" y2="73.6981" gradientUnits="userSpaceOnUse">
<stop stop-color="#054067"/>
<stop offset="1" stop-color="#0C1D34"/>
</linearGradient>
<linearGradient id="paint86_linear_278_2737" x1="63.2619" y1="72.5601" x2="68.058" y2="78.4354" gradientUnits="userSpaceOnUse">
<stop stop-color="#054067"/>
<stop offset="1" stop-color="#0C1D34"/>
</linearGradient>
<linearGradient id="paint87_linear_278_2737" x1="40.7554" y1="71.1363" x2="33.3101" y2="70.3366" gradientUnits="userSpaceOnUse">
<stop stop-color="#054067"/>
<stop offset="1" stop-color="#0C1D34"/>
</linearGradient>
<linearGradient id="paint88_linear_278_2737" x1="62.9538" y1="76.0649" x2="66.3055" y2="82.2161" gradientUnits="userSpaceOnUse">
<stop stop-color="#054067"/>
<stop offset="1" stop-color="#0C1D34"/>
</linearGradient>
<linearGradient id="paint89_linear_278_2737" x1="54.8985" y1="84.5089" x2="53.6727" y2="89.9119" gradientUnits="userSpaceOnUse">
<stop stop-color="#8ECEDE"/>
<stop offset="1" stop-color="#8ECEDE" stop-opacity="0"/>
</linearGradient>
</defs>
</svg>
