<svg width="108" height="108" viewBox="0 0 108 108" fill="none" xmlns="http://www.w3.org/2000/svg">
<ellipse cx="54" cy="56.5374" rx="54" ry="55.845" fill="#FFDCB2"/>
<mask id="mask0_145_625" style="mask-type:alpha" maskUnits="userSpaceOnUse" x="0" y="0" width="108" height="113">
<ellipse cx="54" cy="56.5374" rx="54" ry="55.845" fill="#D9D9D9"/>
</mask>
<g mask="url(#mask0_145_625)">
<path d="M43.4542 91.5671C44.8014 90.1739 50.7514 90.6964 53.558 91.1317H68.7136C70.0608 91.1317 73.4848 98.9684 75.0285 102.887L70.8186 106.37V112.465L42.1913 113.336L42.6123 109.853L43.4542 103.757L41.7703 105.064L37.1394 100.274C38.683 97.9525 42.1071 92.9603 43.4542 91.5671Z" fill="url(#paint0_linear_145_625)"/>
<path d="M51.4531 115.948C58.5258 113.161 61.6972 98.2427 62.3989 91.1316H68.7137C70.3977 91.1316 71.0993 107.676 71.2396 115.948H51.4531Z" fill="url(#paint1_linear_145_625)"/>
<path d="M29.1406 112.465L37.4318 100.325L41.7703 105.064L33.3505 116.819L29.1406 112.465Z" fill="url(#paint2_linear_145_625)"/>
<path d="M83.0059 113.771C82.6813 113.771 77.463 106.37 75.0286 102.887L71.1819 106.037L78.1371 117.254C79.8953 116.093 83.3305 113.771 83.0059 113.771Z" fill="url(#paint3_linear_145_625)"/>
<ellipse cx="59.0309" cy="53.2542" rx="33.2582" ry="33.5238" fill="#08102A"/>
<path d="M56.9259 31.4854C50.5269 43.6758 36.2974 50.7869 29.9826 52.8187C28.7196 53.254 26.4462 54.8214 27.4566 57.6078C28.467 60.3942 31.2455 61.381 32.5085 61.5261C34.5292 78.9411 47.9448 83.8753 54.4 84.1655L53.979 92.0023C54.1193 92.873 54.9893 94.6145 57.3469 94.6145C59.7044 94.6145 60.2938 93.4535 60.2938 92.873V84.1655C74.4391 82.4241 80.5013 70.9592 81.7643 65.4445C83.3079 65.5896 86.3952 65.0091 86.3952 61.5261C86.3952 58.0431 83.3079 57.1724 81.7643 57.1724V52.8187C70.6502 50.3806 60.5745 37.5806 56.9259 31.4854Z" fill="url(#paint4_linear_145_625)"/>
<rect x="56.084" y="20.6011" width="1.68396" height="20.0272" fill="url(#paint5_linear_145_625)"/>
<rect x="55.2419" y="40.6284" width="3.36792" height="2.61224" fill="#862320"/>
<path d="M49.7692 48.4652C48.7588 47.4203 40.6478 48.9006 36.7185 49.7714C35.5959 49.336 35.0346 47.6816 41.7704 44.547C50.1902 40.6287 51.0322 49.7714 49.7692 48.4652Z" fill="#08102A"/>
<path d="M69.9764 51.9481C68.6292 50.9032 62.9599 49.481 60.2937 48.9005C57.9361 47.5073 59.8727 46.8688 61.1356 46.7236C70.8184 46.7236 71.6604 53.2542 69.9764 51.9481Z" fill="#08102A"/>
<path d="M40.0864 57.6079C41.4897 54.9956 45.2225 51.3385 48.9272 57.6079" stroke="#08102A" stroke-width="0.686057" stroke-linecap="round"/>
<path d="M60.2939 58.0222C61.6972 55.41 65.43 51.7528 69.1347 58.0222" stroke="#08102A" stroke-width="0.686057" stroke-linecap="round"/>
<path d="M54.821 61.9617C53.979 62.5422 52.3793 63.8773 52.7161 64.5739C53.0528 65.2705 54.821 67.1862 55.6629 68.0569" stroke="#08102A" stroke-width="0.686057" stroke-linecap="round"/>
<path d="M62.3987 71.5398H48.927C48.927 75.3711 51.1723 77.7801 52.2949 78.5058C58.694 80.9439 61.697 74.8777 62.3987 71.5398Z" fill="white"/>
<path d="M44.7168 96.7916C42.3593 94.0052 44.8571 87.2134 46.4008 84.1658L51.8737 85.9073C52.2242 90.9821 49.0726 97.566 46.3068 97.6179C46.9337 97.7904 47.4229 97.7454 47.6639 97.6623C49.2963 100.757 47.9395 103.671 45.9799 104.639C47.0475 108.84 46.3824 110.681 45.1379 111.248C45.5589 113.395 45.6431 117.515 42.6119 116.819C39.5872 116.124 40.6959 112.481 41.6336 110.735C41.6082 110.713 41.6052 110.706 41.6277 110.717C41.3825 110.584 41.1473 110.439 40.928 110.288C38.9073 108.895 42.0507 106.106 43.875 104.886C43.4378 104.771 43.0095 104.545 42.6119 104.193C40.2544 102.103 43.0329 98.388 44.7168 96.7916Z" fill="#08102A"/>
<path d="M40.928 125.526C39.2441 123.785 40.6574 119.141 41.6397 118.125L44.296 118.56C45.9799 129.358 43.5074 132.347 41.6396 131.186C43.5561 131.883 43.6477 130.315 43.454 129.445C43.3137 128.864 42.612 127.268 40.928 125.526Z" fill="#08102A"/>
</g>
<defs>
<linearGradient id="paint0_linear_145_625" x1="56.0839" y1="90.6633" x2="56.0839" y2="113.336" gradientUnits="userSpaceOnUse">
<stop stop-color="#E33B68"/>
<stop offset="1" stop-color="#CE4461"/>
</linearGradient>
<linearGradient id="paint1_linear_145_625" x1="61.3464" y1="91.1316" x2="61.3464" y2="115.948" gradientUnits="userSpaceOnUse">
<stop stop-color="#9277AE"/>
<stop offset="1" stop-color="#775EB9"/>
</linearGradient>
<linearGradient id="paint2_linear_145_625" x1="35.4555" y1="101.145" x2="35.4555" y2="116.819" gradientUnits="userSpaceOnUse">
<stop stop-color="#2F7A95"/>
<stop offset="1" stop-color="#3E99B5"/>
</linearGradient>
<linearGradient id="paint3_linear_145_625" x1="77.1335" y1="103.322" x2="77.1335" y2="117.254" gradientUnits="userSpaceOnUse">
<stop stop-color="#2F7A95"/>
<stop offset="1" stop-color="#3E99B5"/>
</linearGradient>
<linearGradient id="paint4_linear_145_625" x1="56.8" y1="31.4854" x2="56.8" y2="94.6145" gradientUnits="userSpaceOnUse">
<stop stop-color="#2C7590"/>
<stop offset="0.617708" stop-color="#4CA7BD"/>
<stop offset="1" stop-color="#3996B5"/>
</linearGradient>
<linearGradient id="paint5_linear_145_625" x1="56.926" y1="20.6011" x2="56.926" y2="40.6283" gradientUnits="userSpaceOnUse">
<stop stop-color="#FCCD03"/>
<stop offset="1" stop-color="#F5E2A0"/>
</linearGradient>
</defs>
</svg>
