<svg width="108" height="108" viewBox="0 0 108 108" fill="none" xmlns="http://www.w3.org/2000/svg">
<ellipse cx="54" cy="57.6258" rx="52.8" ry="53.9476" fill="#FFDCB2"/>
<path d="M29.3999 105.443C27.0178 107.365 45.0129 88.851 45.9232 88.293H62.6736C65.878 88.293 79.0909 97.7963 83.3999 101.765C67.1999 117.704 37.1999 110.96 29.3999 105.443Z" fill="url(#paint0_linear_145_461)"/>
<mask id="mask0_145_461" style="mask-type:alpha" maskUnits="userSpaceOnUse" x="0" y="0" width="108" height="111">
<ellipse cx="54" cy="55.1736" rx="54" ry="55.1736" fill="#D9D9D9"/>
</mask>
<g mask="url(#mask0_145_461)">
<g filter="url(#filter0_f_145_461)">
<path d="M53.2054 63.1087C52.5006 63.1648 52.8759 70.9599 53.1517 74.8505C53.9146 75.5562 54.8959 75.0309 55.2912 74.68C54.8896 70.7995 53.9102 63.0525 53.2054 63.1087Z" fill="url(#paint1_linear_145_461)"/>
</g>
<path d="M22.5961 62.9679C19.5665 72.4607 27.1826 74.103 31.3694 73.7376L37.3025 70.5131L36.5451 65.096C42.0489 65.1992 50.4099 58.0882 53.9024 54.5198C59.1538 61.8458 68.3773 63.0324 72.3327 62.7099C72.6357 63.9481 72.4589 67.0952 72.3327 68.514C75.8673 68.4108 76.7509 70.3197 76.7509 71.287C93.313 68.3463 91.7729 61.1192 88.9326 57.8732C96.4057 51.1663 90.2791 44.2875 86.2817 41.6864C87.8975 29.0981 79.0863 28.5736 74.4787 29.8849C67.5105 16.4711 57.6894 19.6526 53.6499 22.92C39.9155 15.594 33.6627 25.3276 32.2531 31.1102C21.2959 30.0783 21.2496 39.9667 22.5961 45.0399C10.0736 52.2627 17.3784 60.0014 22.5961 62.9679Z" fill="url(#paint2_linear_145_461)"/>
<path d="M63.8751 41.0598C55.81 41.3765 38.6867 39.065 34.7148 27.2864" stroke="url(#paint3_linear_145_461)" stroke-width="0.736371" stroke-linecap="round"/>
<path d="M31.9377 31.9294C34.4204 35.5427 43.5009 42.9745 59.9619 43.7955" stroke="url(#paint4_linear_145_461)" stroke-width="0.736371" stroke-linecap="round"/>
<path d="M40.7742 21.9983C41.5452 26.7348 47.6236 36.9516 65.7687 39.9263" stroke="url(#paint5_linear_145_461)" stroke-width="0.736371" stroke-linecap="round"/>
<path d="M54.0288 23.6748C56.0359 26.7524 63.0116 32.6335 74.8576 31.5371" stroke="url(#paint6_linear_145_461)" stroke-width="0.736371" stroke-linecap="round"/>
<path d="M75.2363 51.9211C75.6838 55.4495 79.2388 62.5301 89.8796 62.6264" stroke="url(#paint7_linear_145_461)" stroke-width="0.736371" stroke-linecap="round"/>
<path d="M71.323 54.3718C73.2644 58.4204 79.2393 66.4337 87.6073 66.0987" stroke="url(#paint8_linear_145_461)" stroke-width="0.736371" stroke-linecap="round"/>
<path d="M73.343 63.7871C75.1313 65.4697 79.781 68.749 84.073 68.4053" stroke="url(#paint9_linear_145_461)" stroke-width="0.736371" stroke-linecap="round"/>
<path d="M22.0916 46.3752C24.4851 49.0219 32.2038 54.1009 43.9302 53.2439" stroke="url(#paint10_linear_145_461)" stroke-width="0.736371" stroke-linecap="round"/>
<path d="M21.0815 47.1492C22.9704 51.0352 28.8464 58.3534 37.2396 56.5382" stroke="url(#paint11_linear_145_461)" stroke-width="0.736371" stroke-linecap="round"/>
<path d="M77.8241 30.1882C73.2586 37.497 62.4866 52.6434 55.9224 54.7587" stroke="url(#paint12_linear_145_461)" stroke-width="0.736371" stroke-linecap="round"/>
<path d="M82.8104 31.4138C79.0595 39.001 69.39 54.5757 60.7192 56.1777" stroke="url(#paint13_linear_145_461)" stroke-width="0.736371" stroke-linecap="round"/>
<path d="M22.3438 64.4555C37.0081 57.7916 68.0535 41.8456 74.9206 31.3725C76.8983 29.8033 81.6237 28.1093 84.7039 33.8876C87.784 39.6658 85.9872 43.0451 84.7039 44.0124C81.2534 47.6453 72.0677 55.4915 62.9283 57.8131" stroke="url(#paint14_linear_145_461)" stroke-width="0.736371" stroke-linecap="round"/>
<path d="M77.2906 70.4636C76.2117 67.6144 73.0308 68.3699 71.5752 69.1038V77.5867L77.2906 77.1334C77.7401 76.0973 78.3694 73.3128 77.2906 70.4636Z" fill="url(#paint15_linear_145_461)"/>
<path d="M30.0711 76.501C30.5385 70.7618 34.4199 70.3946 36.3022 70.9283L38.2495 80.4723C35.3286 81.5398 29.6038 82.2401 30.0711 76.501Z" fill="url(#paint16_linear_145_461)"/>
<path d="M35.7246 64.2279C44.3497 63.4548 51.6151 56.475 54.1698 53.0818C61.7556 60.607 69.6706 62.6601 72.6798 62.7461C74.4118 71.6587 73.8099 90.2441 57.547 93.2851C41.2841 96.3262 36.2225 75.1807 35.7246 64.2279Z" fill="url(#paint17_linear_145_461)"/>
<path d="M30.2334 75.866C39.7767 66.7343 50.1154 69.2236 54.0918 71.6097C61.5649 66.0378 80.0962 75.1351 88.4277 80.3803C89.1346 81.8248 95.2865 81.5841 98.274 81.2831C100.95 79.9417 104.186 80.1223 105.469 80.3803C108.6 81.8248 112.875 82.186 114.621 82.186C121.64 80.6898 125.162 80.3588 126.046 80.3803C133.353 83.2053 138.52 83.3008 140.32 82.9821C140.359 82.9743 140.398 82.9669 140.437 82.9598C140.399 82.9675 140.36 82.9749 140.32 82.9821C138.172 83.4 133.294 84.8403 130.022 87.4741C125.856 90.8275 116.389 88.5704 114.621 87.4741C112.854 86.3778 108.752 85.088 102.629 86.8937C97.7312 88.3382 95.1182 87.4956 94.4239 86.8937C87.7082 83.4886 82.116 84.2711 80.1593 85.088C62.4864 86.5841 55.4173 81.3691 54.0918 78.5746C53.4606 80.7672 44.1823 89.2153 35.6615 86.4423C28.8448 84.2238 25.4995 83.9702 24.679 84.1206C19.8821 84.1206 19.5034 89.2153 13.1916 86.8937C6.87988 84.5721 3.59776 84.1206 -0.441755 85.9908C-4.48128 87.861 -13.0653 88.3769 -15.2113 84.1206C-16.9281 80.7156 -20.5131 79.8214 -22.0911 79.7999L-14.517 79.2195C-10.1745 76.0724 -6.56415 77.4782 -5.3018 78.5746L30.2334 75.866Z" fill="#08102A"/>
<path d="M19.5032 76.9621C15.2113 85.9906 20.5762 85.9261 23.7952 84.7653C25.6635 86.7258 21.7124 88.0328 19.5032 88.4412C11.8029 94.5677 6.3748 83.6045 11.1086 76.9621C14.8957 71.6482 15.632 73.5012 15.5268 75.0919C17.4961 72.9766 17.3152 75.4573 16.9785 76.9621C18.6448 74.8468 19.356 76.0807 19.5032 76.9621Z" fill="url(#paint18_linear_145_461)"/>
<path d="M84.8757 76.0366C89.1677 85.0651 83.8027 85.0006 80.5837 83.8398C78.7154 85.8002 82.6665 87.1072 84.8757 87.5156C92.576 93.6421 98.0041 82.6789 93.2703 76.0366C89.4832 70.7226 88.7469 72.5756 88.8521 74.1664C86.8828 72.0511 87.0637 74.5318 87.4004 76.0366C85.7341 73.9213 85.0229 75.1552 84.8757 76.0366Z" fill="url(#paint19_linear_145_461)"/>
<path d="M57.8176 63.4001C57.4287 65.567 57.7009 69.6194 61.9005 68.494C62.7106 68.1544 64.3405 66.8833 64.3794 64.5159" stroke="#08102A" stroke-width="0.420783" stroke-linecap="round"/>
<path d="M41.6577 65.0694C41.7284 66.4969 42.7071 69.202 46.0568 68.6024C49.4065 68.0029 49.5726 64.7126 49.2369 63.1423" stroke="#08102A" stroke-width="0.420783" stroke-linecap="round"/>
<path d="M37.6181 60.3242C40.8497 55.7841 45.3605 54.5201 47.212 54.4556C47.5149 54.4342 48.306 54.4897 48.6637 54.5201C48.9161 54.417 48.5164 54.0472 48.285 53.8752C51.4409 53.8752 52.3876 56.5193 52.3245 57.1642C52.2614 57.8091 51.9458 60.9691 48.7899 60.3242C46.2652 59.8083 44.0561 61.7429 43.0462 62.5168C36.9364 65.0964 36.6541 61.6785 37.6181 60.3242Z" fill="#08102A"/>
<path d="M62.4232 62.1296C60.4539 59.9628 58.4047 60.1089 57.6263 60.4529C55.455 60.0402 55.2068 58.3032 55.354 57.4864C55.8085 54.3393 57.9839 53.9395 59.0149 54.1329C58.6614 54.0813 58.531 54.3694 58.5099 54.5199C62.8019 54.9068 64.6954 56.519 67.157 59.7435C69.1263 62.3231 68.3142 63.6559 67.662 63.9998C66.7362 64.2793 64.3925 64.2965 62.4232 62.1296Z" fill="#08102A"/>
<path d="M50.8098 64.967C50.7593 61.7684 52.3878 61.3126 53.2083 61.4846C54.2182 61.2749 55.4805 61.8271 55.9855 62.1295C55.1775 63.7804 57.2899 68.4302 58.2577 70.4294C56.9448 69.8619 54.5969 71.201 53.7763 72.0609C53.2209 70.5131 50.1155 70.0639 48.6638 69.72C50.1281 68.327 50.7257 65.7624 50.8098 64.967Z" fill="url(#paint20_linear_145_461)"/>
<path d="M38.3119 62.1623C38.6692 61.6425 39.1738 60.8505 39.4311 60.4339C39.3787 61.0808 38.7445 61.7249 38.3119 62.1623C38.0663 62.5195 37.8904 62.7482 37.912 62.6381C37.9297 62.5481 38.0956 62.381 38.3119 62.1623Z" fill="url(#paint21_linear_145_461)"/>
<path d="M40.9628 59.5825C41.3201 59.0627 41.8247 58.2707 42.082 57.854C42.0296 58.501 41.3954 59.145 40.9628 59.5825C40.7172 59.9397 40.5412 60.1683 40.5629 60.0583C40.5805 59.9683 40.7465 59.8012 40.9628 59.5825Z" fill="url(#paint22_linear_145_461)"/>
<path d="M45.5074 57.3899C45.8648 56.8701 46.3694 56.078 46.6266 55.6614C46.5743 56.3084 45.9401 56.9524 45.5074 57.3899C45.2619 57.7471 45.0859 57.9757 45.1075 57.8657C45.1252 57.7757 45.2911 57.6086 45.5074 57.3899Z" fill="url(#paint23_linear_145_461)"/>
<path d="M56.742 57.906C57.0994 57.3862 57.604 56.5941 57.8613 56.1775C57.8089 56.8245 57.1747 57.4685 56.742 57.906C56.4965 58.2632 56.3205 58.4918 56.3422 58.3818C56.3598 58.2918 56.5258 58.1247 56.742 57.906Z" fill="url(#paint24_linear_145_461)"/>
<path d="M59.8341 59.8379C60.1714 59.3576 60.648 58.6258 60.8909 58.2409C60.84 58.8376 60.242 59.4333 59.8341 59.8379C59.6023 60.1679 59.4363 60.3793 59.4569 60.2778C59.4738 60.1947 59.6302 60.0402 59.8341 59.8379Z" fill="url(#paint25_linear_145_461)"/>
<path d="M63.8085 62.7058C64.0865 62.2556 64.4785 61.569 64.6781 61.2078C64.6443 61.7732 64.1475 62.3286 63.8085 62.7058C63.6174 63.0152 63.4802 63.213 63.496 63.117C63.509 63.0385 63.639 62.8944 63.8085 62.7058Z" fill="url(#paint26_linear_145_461)"/>
<path d="M37.807 61.9045C38.1643 61.3847 38.6689 60.5927 38.9262 60.1761C38.8739 60.823 38.2396 61.467 37.807 61.9045C37.5615 62.2617 37.3855 62.4903 37.4071 62.3803C37.4248 62.2903 37.5907 62.1232 37.807 61.9045Z" fill="url(#paint27_linear_145_461)"/>
<path d="M40.4579 59.3249C40.8152 58.8051 41.3198 58.0131 41.5771 57.5965C41.5247 58.2434 40.8905 58.8875 40.4579 59.3249C40.2123 59.6821 40.0364 59.9108 40.058 59.8007C40.0757 59.7107 40.2416 59.5436 40.4579 59.3249Z" fill="url(#paint28_linear_145_461)"/>
<path d="M45.0023 57.1321C45.3596 56.6123 45.8643 55.8202 46.1215 55.4036C46.0692 56.0506 45.435 56.6946 45.0023 57.1321C44.7568 57.4892 44.5808 57.7179 44.6024 57.6079C44.6201 57.5178 44.786 57.3508 45.0023 57.1321Z" fill="url(#paint29_linear_145_461)"/>
<path d="M56.2374 57.6477C56.5947 57.1279 57.0994 56.3358 57.3566 55.9192C57.3043 56.5662 56.6701 57.2102 56.2374 57.6477C55.9919 58.0049 55.8159 58.2335 55.8375 58.1235C55.8552 58.0335 56.0211 57.8664 56.2374 57.6477Z" fill="url(#paint30_linear_145_461)"/>
<path d="M59.267 59.7117C59.6243 59.1918 60.1289 58.3998 60.3862 57.9832C60.3338 58.6301 59.6996 59.2742 59.267 59.7117C59.0214 60.0688 58.8454 60.2975 58.8671 60.1875C58.8847 60.0974 59.0507 59.9303 59.267 59.7117Z" fill="url(#paint31_linear_145_461)"/>
<path d="M63.4169 62.2154C63.6236 61.8796 63.927 61.3482 64.1732 60.9495C64.1191 61.618 63.6937 61.9717 63.4169 62.2154C63.2592 62.4715 63.1578 62.6139 63.1807 62.4971C63.1972 62.413 63.2919 62.3254 63.4169 62.2154Z" fill="url(#paint32_linear_145_461)"/>
<path d="M38.9432 62.1623C39.3005 61.6425 39.8052 60.8505 40.0624 60.4339C40.0101 61.0808 39.3759 61.7249 38.9432 62.1623C38.6977 62.5195 38.5217 62.7482 38.5433 62.6381C38.561 62.5481 38.7269 62.381 38.9432 62.1623Z" fill="url(#paint33_linear_145_461)"/>
<path d="M41.5939 59.5825C41.9512 59.0627 42.4558 58.2707 42.7131 57.854C42.6607 58.501 42.0265 59.145 41.5939 59.5825C41.3483 59.9397 41.1723 60.1683 41.194 60.0583C41.2117 59.9683 41.3776 59.8012 41.5939 59.5825Z" fill="url(#paint34_linear_145_461)"/>
<path d="M46.1385 57.3899C46.4959 56.8701 47.0005 56.078 47.2577 55.6614C47.2054 56.3084 46.5712 56.9524 46.1385 57.3899C45.893 57.7471 45.717 57.9757 45.7386 57.8657C45.7563 57.7757 45.9222 57.6086 46.1385 57.3899Z" fill="url(#paint35_linear_145_461)"/>
<path d="M57.3732 57.906C57.7305 57.3862 58.2351 56.5941 58.4924 56.1775C58.44 56.8245 57.8058 57.4685 57.3732 57.906C57.1276 58.2632 56.9516 58.4918 56.9733 58.3818C56.9909 58.2918 57.1569 58.1247 57.3732 57.906Z" fill="url(#paint36_linear_145_461)"/>
<path d="M60.4032 59.9695C60.7605 59.4497 61.2651 58.6576 61.5224 58.241C61.47 58.888 60.8358 59.532 60.4032 59.9695C60.1577 60.3266 59.9817 60.5553 60.0033 60.4453C60.021 60.3552 60.1869 60.1882 60.4032 59.9695Z" fill="url(#paint37_linear_145_461)"/>
<path d="M64.4404 62.8058C64.7185 62.3256 65.11 61.593 65.3093 61.2075C65.2801 61.8135 64.781 62.4044 64.4404 62.8058C64.2494 63.1358 64.1119 63.3466 64.1271 63.2439C64.1396 63.1598 64.2702 63.0065 64.4404 62.8058Z" fill="url(#paint38_linear_145_461)"/>
<path d="M39.7005 61.9045C40.0579 61.3847 40.5625 60.5927 40.8197 60.1761C40.7674 60.823 40.1332 61.467 39.7005 61.9045C39.455 62.2617 39.279 62.4903 39.3007 62.3803C39.3183 62.2903 39.4843 62.1232 39.7005 61.9045Z" fill="url(#paint39_linear_145_461)"/>
<path d="M42.3512 59.3249C42.7085 58.8051 43.2131 58.0131 43.4704 57.5965C43.418 58.2434 42.7838 58.8875 42.3512 59.3249C42.1057 59.6821 41.9297 59.9108 41.9513 59.8007C41.969 59.7107 42.1349 59.5436 42.3512 59.3249Z" fill="url(#paint40_linear_145_461)"/>
<path d="M46.8959 57.1321C47.2532 56.6123 47.7578 55.8202 48.0151 55.4036C47.9627 56.0506 47.3285 56.6946 46.8959 57.1321C46.6503 57.4892 46.4743 57.7179 46.496 57.6079C46.5137 57.5178 46.6796 57.3508 46.8959 57.1321Z" fill="url(#paint41_linear_145_461)"/>
<path d="M58.1307 57.6477C58.488 57.1279 58.9927 56.3358 59.2499 55.9192C59.1976 56.5662 58.5634 57.2102 58.1307 57.6477C57.8852 58.0049 57.7092 58.2335 57.7308 58.1235C57.7485 58.0335 57.9144 57.8664 58.1307 57.6477Z" fill="url(#paint42_linear_145_461)"/>
<path d="M61.1605 59.7117C61.5178 59.1918 62.0225 58.3998 62.2797 57.9832C62.2274 58.6301 61.5932 59.2742 61.1605 59.7117C60.915 60.0688 60.739 60.2975 60.7606 60.1875C60.7783 60.0974 60.9442 59.9303 61.1605 59.7117Z" fill="url(#paint43_linear_145_461)"/>
<path d="M64.9474 62.678C65.3047 62.1582 65.8093 61.3661 66.0666 60.9495C66.0142 61.5965 65.38 62.2405 64.9474 62.678C64.7018 63.0351 64.5259 63.2638 64.5475 63.1538C64.5652 63.0637 64.7311 62.8967 64.9474 62.678Z" fill="url(#paint44_linear_145_461)"/>
<path d="M40.8365 61.3884C41.1939 60.8686 41.6985 60.0766 41.9557 59.6599C41.9034 60.3069 41.2692 60.9509 40.8365 61.3884C40.591 61.7456 40.415 61.9742 40.4366 61.8642C40.4543 61.7742 40.6202 61.6071 40.8365 61.3884Z" fill="url(#paint45_linear_145_461)"/>
<path d="M43.4874 58.8088C43.8447 58.289 44.3494 57.497 44.6066 57.0804C44.5543 57.7273 43.9201 58.3713 43.4874 58.8088C43.2419 59.166 43.0659 59.3946 43.0875 59.2846C43.1052 59.1946 43.2711 59.0275 43.4874 58.8088Z" fill="url(#paint46_linear_145_461)"/>
<path d="M48.0318 56.616C48.3892 56.0961 48.8938 55.3041 49.151 54.8875C49.0987 55.5344 48.4645 56.1785 48.0318 56.616C47.7863 56.9731 47.6103 57.2018 47.632 57.0918C47.6496 57.0017 47.8156 56.8346 48.0318 56.616Z" fill="url(#paint47_linear_145_461)"/>
<path d="M59.267 57.1321C59.6243 56.6123 60.1289 55.8202 60.3862 55.4036C60.3338 56.0506 59.6996 56.6946 59.267 57.1321C59.0214 57.4892 58.8454 57.7179 58.8671 57.6079C58.8847 57.5178 59.0507 57.3508 59.267 57.1321Z" fill="url(#paint48_linear_145_461)"/>
<path d="M62.2965 59.1958C62.6538 58.676 63.1584 57.8839 63.4157 57.4673C63.3634 58.1143 62.7292 58.7583 62.2965 59.1958C62.051 59.553 61.875 59.7816 61.8966 59.6716C61.9143 59.5816 62.0802 59.4145 62.2965 59.1958Z" fill="url(#paint49_linear_145_461)"/>
<path d="M66.0838 62.1623C66.4412 61.6425 66.9458 60.8505 67.203 60.4339C67.1507 61.0808 66.5165 61.7249 66.0838 62.1623C65.8383 62.5195 65.6623 62.7482 65.684 62.6381C65.7016 62.5481 65.8676 62.381 66.0838 62.1623Z" fill="url(#paint50_linear_145_461)"/>
<path d="M41.3417 61.3884C41.699 60.8686 42.2036 60.0766 42.4609 59.6599C42.4085 60.3069 41.7743 60.9509 41.3417 61.3884C41.0961 61.7456 40.9202 61.9742 40.9418 61.8642C40.9595 61.7742 41.1254 61.6071 41.3417 61.3884Z" fill="url(#paint51_linear_145_461)"/>
<path d="M43.9925 58.8088C44.3499 58.289 44.8545 57.497 45.1117 57.0804C45.0594 57.7273 44.4252 58.3713 43.9925 58.8088C43.747 59.166 43.571 59.3946 43.5926 59.2846C43.6103 59.1946 43.7763 59.0275 43.9925 58.8088Z" fill="url(#paint52_linear_145_461)"/>
<path d="M48.537 56.616C48.8943 56.0961 49.3989 55.3041 49.6562 54.8875C49.6038 55.5344 48.9696 56.1785 48.537 56.616C48.2914 56.9731 48.1155 57.2018 48.1371 57.0918C48.1548 57.0017 48.3207 56.8346 48.537 56.616Z" fill="url(#paint53_linear_145_461)"/>
<path d="M59.7718 57.1321C60.1292 56.6123 60.6338 55.8202 60.891 55.4036C60.8387 56.0506 60.2045 56.6946 59.7718 57.1321C59.5263 57.4892 59.3503 57.7179 59.3719 57.6079C59.3896 57.5178 59.5555 57.3508 59.7718 57.1321Z" fill="url(#paint54_linear_145_461)"/>
<path d="M62.8014 59.1958C63.1587 58.676 63.6633 57.8839 63.9206 57.4673C63.8682 58.1143 63.234 58.7583 62.8014 59.1958C62.5558 59.553 62.3799 59.7816 62.4015 59.6716C62.4192 59.5816 62.5851 59.4145 62.8014 59.1958Z" fill="url(#paint55_linear_145_461)"/>
<path d="M66.5754 62.2201C66.9219 61.7603 67.4119 61.0602 67.6618 60.692C67.6043 61.2595 66.9926 61.8315 66.5754 62.2201C66.3373 62.5361 66.167 62.7386 66.1889 62.6419C66.2068 62.5628 66.3668 62.4144 66.5754 62.2201Z" fill="url(#paint56_linear_145_461)"/>
<path d="M41.9728 61.3884C42.3301 60.8686 42.8347 60.0766 43.092 59.6599C43.0396 60.3069 42.4054 60.9509 41.9728 61.3884C41.7272 61.7456 41.5513 61.9742 41.5729 61.8642C41.5906 61.7742 41.7565 61.6071 41.9728 61.3884Z" fill="url(#paint57_linear_145_461)"/>
<path d="M44.6234 58.8088C44.9807 58.289 45.4853 57.497 45.7426 57.0804C45.6903 57.7273 45.0561 58.3713 44.6234 58.8088C44.3779 59.166 44.2019 59.3946 44.2235 59.2846C44.2412 59.1946 44.4071 59.0275 44.6234 58.8088Z" fill="url(#paint58_linear_145_461)"/>
<path d="M49.1681 56.616C49.5254 56.0961 50.03 55.3041 50.2873 54.8875C50.2349 55.5344 49.6007 56.1785 49.1681 56.616C48.9225 56.9731 48.7466 57.2018 48.7682 57.0918C48.7859 57.0017 48.9518 56.8346 49.1681 56.616Z" fill="url(#paint59_linear_145_461)"/>
<path d="M60.4032 57.1321C60.7605 56.6123 61.2651 55.8202 61.5224 55.4036C61.47 56.0506 60.8358 56.6946 60.4032 57.1321C60.1577 57.4892 59.9817 57.7179 60.0033 57.6079C60.021 57.5178 60.1869 57.3508 60.4032 57.1321Z" fill="url(#paint60_linear_145_461)"/>
<path d="M63.4327 59.1958C63.79 58.676 64.2947 57.8839 64.5519 57.4673C64.4996 58.1143 63.8654 58.7583 63.4327 59.1958C63.1872 59.553 63.0112 59.7816 63.0328 59.6716C63.0505 59.5816 63.2164 59.4145 63.4327 59.1958Z" fill="url(#paint61_linear_145_461)"/>
<path d="M67.1084 62.2794C67.3659 61.8797 67.7292 61.2704 67.9143 60.9498C67.8804 61.45 67.4215 61.9439 67.1084 62.2794C66.9314 62.554 66.8044 62.7297 66.8195 62.6448C66.8318 62.5752 66.9519 62.4471 67.1084 62.2794Z" fill="url(#paint62_linear_145_461)"/>
<path d="M42.7301 61.6462C43.0874 61.1264 43.592 60.3344 43.8493 59.9178C43.7969 60.5647 43.1627 61.2087 42.7301 61.6462C42.4846 62.0034 42.3086 62.232 42.3302 62.122C42.3479 62.032 42.5138 61.8649 42.7301 61.6462Z" fill="url(#paint63_linear_145_461)"/>
<path d="M45.3807 59.0666C45.738 58.5468 46.2427 57.7548 46.4999 57.3382C46.4476 57.9851 45.8134 58.6292 45.3807 59.0666C45.1352 59.4238 44.9592 59.6525 44.9808 59.5424C44.9985 59.4524 45.1644 59.2853 45.3807 59.0666Z" fill="url(#paint64_linear_145_461)"/>
<path d="M49.9254 56.874C50.2827 56.3542 50.7873 55.5622 51.0446 55.1455C50.9923 55.7925 50.3581 56.4365 49.9254 56.874C49.6799 57.2312 49.5039 57.4598 49.5255 57.3498C49.5432 57.2598 49.7091 57.0927 49.9254 56.874Z" fill="url(#paint65_linear_145_461)"/>
<path d="M61.1605 57.3899C61.5178 56.8701 62.0225 56.078 62.2797 55.6614C62.2274 56.3084 61.5932 56.9524 61.1605 57.3899C60.915 57.7471 60.739 57.9757 60.7606 57.8657C60.7783 57.7757 60.9442 57.6086 61.1605 57.3899Z" fill="url(#paint66_linear_145_461)"/>
<path d="M64.19 59.4536C64.5474 58.9338 65.052 58.1418 65.3092 57.7251C65.2569 58.3721 64.6227 59.0161 64.19 59.4536C63.9445 59.8108 63.7685 60.0394 63.7902 59.9294C63.8078 59.8394 63.9738 59.6723 64.19 59.4536Z" fill="url(#paint67_linear_145_461)"/>
<path d="M67.7125 62.7631C67.8132 62.5852 67.9659 62.3071 68.1669 61.9816C68.1119 62.6617 67.8703 62.705 67.7125 62.7631C67.5957 62.9695 67.5487 63.0412 67.5772 62.8962C67.593 62.8154 67.6451 62.7879 67.7125 62.7631Z" fill="url(#paint68_linear_145_461)"/>
<path d="M36.9755 85.7363C38.7087 84.5008 44.8307 78.6131 47.9296 75.5712C43.5938 80.9864 39.0447 84.4575 36.9755 85.7363C36.8119 85.8529 36.6874 85.9281 36.6083 85.9555C36.72 85.8915 36.8426 85.8184 36.9755 85.7363Z" fill="url(#paint69_linear_145_461)"/>
<path d="M75.6567 77.8631C73.6829 77.0917 65.477 75.2222 61.2733 74.3104C68.0935 74.9352 73.4591 76.832 75.6567 77.8631C75.843 77.936 75.9738 77.999 76.0404 78.0506C75.9259 77.992 75.7978 77.9294 75.6567 77.8631Z" fill="url(#paint70_linear_145_461)"/>
<path d="M48.9978 78.2684C46.5969 80.6618 41.8281 84.9606 39.6384 85.4434C41.0954 85.4053 45.007 83.9169 48.9978 78.2684Z" fill="url(#paint71_linear_145_461)"/>
<path d="M62.8581 71.8926C66.1446 72.5784 72.3039 74.196 73.9245 75.7762C73.0755 74.5658 69.6735 72.0946 62.8581 71.8926Z" fill="url(#paint72_linear_145_461)"/>
<path d="M51.5822 77.4839C49.3914 80.0791 45.0018 84.7807 42.8607 85.4539C44.3091 85.2881 48.0811 83.4618 51.5822 77.4839Z" fill="url(#paint73_linear_145_461)"/>
<path d="M43.0499 81.6912C44.2938 80.8315 49.6279 74.4672 52.2892 71.2066C50.2808 76.7647 45.4097 80.4425 43.0499 81.6912C42.9727 81.7446 42.9112 81.7768 42.8671 81.7856C42.9262 81.7559 42.9871 81.7244 43.0499 81.6912Z" fill="url(#paint74_linear_145_461)"/>
<path d="M68.9703 74.9991C67.5755 74.4302 59.426 73.4945 55.2911 73.0756C60.92 71.6524 66.6338 73.7052 68.9703 74.9991C69.0568 75.0344 69.1174 75.0683 69.1493 75.1006C69.0921 75.0674 69.0324 75.0335 68.9703 74.9991Z" fill="url(#paint75_linear_145_461)"/>
<path d="M50.281 71.0254C46.892 74.9814 39.965 82.9099 39.3686 82.9757C38.6231 83.0579 42.7004 78.1331 50.281 71.0254Z" fill="url(#paint76_linear_145_461)"/>
<path d="M56.2719 74.8753C61.3787 75.5189 71.6894 76.923 72.0776 77.3903C72.5628 77.9744 66.2849 77.2928 56.2719 74.8753Z" fill="url(#paint77_linear_145_461)"/>
<path d="M36.5966 80.9638C38.3298 79.7284 44.4518 73.8407 47.5507 70.7988C43.2149 76.2139 38.6658 79.685 36.5966 80.9638C36.433 81.0805 36.3085 81.1556 36.2294 81.183C36.3411 81.1191 36.4637 81.046 36.5966 80.9638Z" fill="url(#paint78_linear_145_461)"/>
<path d="M72.0048 80.8629C70.031 80.0914 61.8251 78.2219 57.6215 77.3102C64.4416 77.9349 69.8072 79.8317 72.0048 80.8629C72.1912 80.9357 72.3219 80.9988 72.3886 81.0503C72.274 80.9918 72.146 80.9291 72.0048 80.8629Z" fill="url(#paint79_linear_145_461)"/>
<path d="M27.7936 79.4391C29.7204 78.5523 36.8023 73.9225 40.3981 71.5184C35.1573 76.0212 30.0585 78.5732 27.7936 79.4391C27.6117 79.5228 27.4758 79.5732 27.393 79.5852C27.5144 79.5434 27.6482 79.4947 27.7936 79.4391Z" fill="url(#paint80_linear_145_461)"/>
<path d="M37.3472 78.4917C39.8801 76.33 43.6096 72.9464 45.5447 71.1481C43.6723 74.7235 39.9093 76.9699 37.3472 78.4917C35.6067 79.9771 34.4312 80.8855 34.7911 80.3061C35.0856 79.8321 36.0664 79.2524 37.3472 78.4917Z" fill="url(#paint81_linear_145_461)"/>
<path d="M69.5815 81.6173C66.4085 80.6897 61.574 79.4367 59.031 78.8106C62.978 78.3858 66.9103 80.3057 69.5815 81.6173C71.7618 82.2546 73.1575 82.7383 72.4863 82.7593C71.937 82.7766 70.9168 82.2729 69.5815 81.6173Z" fill="url(#paint82_linear_145_461)"/>
<path d="M35.1787 76.3617C37.9134 74.4741 41.9601 71.4951 44.064 69.907C41.8457 73.2696 37.8789 75.1138 35.1787 76.3617C33.2995 77.6587 32.0398 78.4404 32.4554 77.9014C32.7955 77.4604 33.8288 76.9855 35.1787 76.3617Z" fill="url(#paint83_linear_145_461)"/>
<path d="M67.9417 83.9052C65.2178 82.8898 61.0518 81.4756 58.8573 80.7591C62.3996 80.7119 65.7003 82.6098 67.9417 83.9052C69.8134 84.603 71.0043 85.1125 70.4068 85.078C69.9179 85.0498 69.0621 84.5528 67.9417 83.9052Z" fill="url(#paint84_linear_145_461)"/>
<path d="M45.9573 73.9219C42.5369 77.8496 35.5469 85.7202 34.95 85.781C34.2039 85.857 38.3203 80.9663 45.9573 73.9219Z" fill="url(#paint85_linear_145_461)"/>
<path d="M61.0458 76.9038C66.1473 77.5899 76.4464 79.0798 76.8309 79.5502C77.3114 80.1384 71.0392 79.4046 61.0458 76.9038Z" fill="url(#paint86_linear_145_461)"/>
<path d="M43.656 72.2442C39.5801 75.4531 31.2789 81.8574 30.6814 81.8037C29.9344 81.7365 34.8696 77.7138 43.656 72.2442Z" fill="url(#paint87_linear_145_461)"/>
<path d="M60.9792 79.7916C65.4447 81.3109 74.4425 84.4728 74.7097 84.9662C75.0438 85.583 69.5354 83.8145 60.9792 79.7916Z" fill="url(#paint88_linear_145_461)"/>
<path d="M49.6105 91.9663C51.0578 89.0215 55.2706 84.9524 60.5437 92.234C58.877 93.3311 54.357 94.8134 49.6105 91.9663Z" fill="url(#paint89_linear_145_461)"/>
</g>
<defs>
<filter id="filter0_f_145_461" x="52.3807" y="62.6876" width="3.33119" height="12.9329" filterUnits="userSpaceOnUse" color-interpolation-filters="sRGB">
<feFlood flood-opacity="0" result="BackgroundImageFix"/>
<feBlend mode="normal" in="SourceGraphic" in2="BackgroundImageFix" result="shape"/>
<feGaussianBlur stdDeviation="0.210392" result="effect1_foregroundBlur_145_461"/>
</filter>
<linearGradient id="paint0_linear_145_461" x1="56.0243" y1="88.293" x2="56.0243" y2="110.347" gradientUnits="userSpaceOnUse">
<stop stop-color="#FCCD03"/>
<stop offset="1" stop-color="#C62426"/>
</linearGradient>
<linearGradient id="paint1_linear_145_461" x1="53.3312" y1="63.0986" x2="54.2938" y2="75.1827" gradientUnits="userSpaceOnUse">
<stop stop-color="#D9D9D9"/>
<stop offset="1" stop-color="#D9D9D9" stop-opacity="0"/>
</linearGradient>
<linearGradient id="paint2_linear_145_461" x1="54.0695" y1="20.0632" x2="54.0695" y2="73.7838" gradientUnits="userSpaceOnUse">
<stop stop-color="#85C92A"/>
<stop offset="0.685417" stop-color="#6EAF16"/>
<stop offset="1" stop-color="#4E810B"/>
</linearGradient>
<linearGradient id="paint3_linear_145_461" x1="49.295" y1="27.2864" x2="49.295" y2="41.0871" gradientUnits="userSpaceOnUse">
<stop stop-color="#448C04"/>
<stop offset="1" stop-color="#448C04" stop-opacity="0"/>
</linearGradient>
<linearGradient id="paint4_linear_145_461" x1="45.9498" y1="31.9294" x2="45.9498" y2="43.7955" gradientUnits="userSpaceOnUse">
<stop stop-color="#448C04"/>
<stop offset="1" stop-color="#448C04" stop-opacity="0"/>
</linearGradient>
<linearGradient id="paint5_linear_145_461" x1="53.2714" y1="21.9983" x2="53.2714" y2="39.9263" gradientUnits="userSpaceOnUse">
<stop stop-color="#65F706"/>
<stop offset="1" stop-color="#65F706" stop-opacity="0"/>
</linearGradient>
<linearGradient id="paint6_linear_145_461" x1="64.4432" y1="23.6748" x2="64.4432" y2="31.6715" gradientUnits="userSpaceOnUse">
<stop stop-color="#65F706"/>
<stop offset="1" stop-color="#65F706" stop-opacity="0"/>
</linearGradient>
<linearGradient id="paint7_linear_145_461" x1="82.558" y1="51.9211" x2="82.558" y2="62.6264" gradientUnits="userSpaceOnUse">
<stop stop-color="#448C04"/>
<stop offset="1" stop-color="#448C04" stop-opacity="0"/>
</linearGradient>
<linearGradient id="paint8_linear_145_461" x1="79.4652" y1="54.3718" x2="79.4652" y2="66.1089" gradientUnits="userSpaceOnUse">
<stop stop-color="#448C04"/>
<stop offset="1" stop-color="#448C04" stop-opacity="0"/>
</linearGradient>
<linearGradient id="paint9_linear_145_461" x1="78.708" y1="63.7871" x2="78.708" y2="68.4303" gradientUnits="userSpaceOnUse">
<stop stop-color="#65F706"/>
<stop offset="1" stop-color="#65F706" stop-opacity="0"/>
</linearGradient>
<linearGradient id="paint10_linear_145_461" x1="33.0109" y1="46.3752" x2="33.0109" y2="53.3401" gradientUnits="userSpaceOnUse">
<stop stop-color="#448C04"/>
<stop offset="1" stop-color="#448C04" stop-opacity="0"/>
</linearGradient>
<linearGradient id="paint11_linear_145_461" x1="29.1606" y1="47.1492" x2="29.1606" y2="56.8226" gradientUnits="userSpaceOnUse">
<stop stop-color="#65F706"/>
<stop offset="1" stop-color="#65F706" stop-opacity="0"/>
</linearGradient>
<linearGradient id="paint12_linear_145_461" x1="66.8733" y1="30.1882" x2="66.8733" y2="54.7587" gradientUnits="userSpaceOnUse">
<stop stop-color="#65F706"/>
<stop offset="1" stop-color="#65F706" stop-opacity="0"/>
</linearGradient>
<linearGradient id="paint13_linear_145_461" x1="71.7648" y1="31.4138" x2="71.7648" y2="56.1777" gradientUnits="userSpaceOnUse">
<stop stop-color="#65F706"/>
<stop offset="1" stop-color="#65F706" stop-opacity="0"/>
</linearGradient>
<linearGradient id="paint14_linear_145_461" x1="54.3742" y1="29.866" x2="54.3742" y2="64.4555" gradientUnits="userSpaceOnUse">
<stop stop-color="#448C04"/>
<stop offset="1" stop-color="#448C04" stop-opacity="0"/>
</linearGradient>
<linearGradient id="paint15_linear_145_461" x1="74.7307" y1="68.4302" x2="74.7307" y2="77.5867" gradientUnits="userSpaceOnUse">
<stop stop-color="#3E90A8"/>
<stop offset="0.638542" stop-color="#20B4DE"/>
<stop offset="1" stop-color="#0A637C"/>
</linearGradient>
<linearGradient id="paint16_linear_145_461" x1="34.1468" y1="70.752" x2="34.1468" y2="81.1992" gradientUnits="userSpaceOnUse">
<stop stop-color="#3E90A8"/>
<stop offset="0.638542" stop-color="#20B4DE"/>
<stop offset="1" stop-color="#0A637C"/>
</linearGradient>
<linearGradient id="paint17_linear_145_461" x1="54.5594" y1="51.323" x2="54.534" y2="93.5811" gradientUnits="userSpaceOnUse">
<stop stop-color="#2A728E"/>
<stop offset="0.279167" stop-color="#3C8EA6"/>
<stop offset="0.4875" stop-color="#7EBDCF"/>
<stop offset="0.628125" stop-color="#2FA2C1"/>
<stop offset="0.794792" stop-color="#73BED2"/>
<stop offset="1" stop-color="#3595B6"/>
</linearGradient>
<linearGradient id="paint18_linear_145_461" x1="16.8105" y1="73.4377" x2="16.8105" y2="90.2389" gradientUnits="userSpaceOnUse">
<stop stop-color="#2E7994"/>
<stop offset="0.451042" stop-color="#56B7CC"/>
<stop offset="1" stop-color="#3995B5"/>
</linearGradient>
<linearGradient id="paint19_linear_145_461" x1="87.5684" y1="72.5122" x2="87.5684" y2="89.3133" gradientUnits="userSpaceOnUse">
<stop stop-color="#2E7994"/>
<stop offset="0.451042" stop-color="#56B7CC"/>
<stop offset="1" stop-color="#3995B5"/>
</linearGradient>
<linearGradient id="paint20_linear_145_461" x1="53.303" y1="61.4382" x2="53.303" y2="72.0609" gradientUnits="userSpaceOnUse">
<stop stop-color="#7ABCD4"/>
<stop offset="1" stop-color="#2797B3"/>
</linearGradient>
<linearGradient id="paint21_linear_145_461" x1="39.3787" y1="60.8861" x2="38.1942" y2="62.0162" gradientUnits="userSpaceOnUse">
<stop stop-color="#054067"/>
<stop offset="1" stop-color="#0C1D34"/>
</linearGradient>
<linearGradient id="paint22_linear_145_461" x1="42.0296" y1="58.3062" x2="40.8451" y2="59.4364" gradientUnits="userSpaceOnUse">
<stop stop-color="#054067"/>
<stop offset="1" stop-color="#0C1D34"/>
</linearGradient>
<linearGradient id="paint23_linear_145_461" x1="46.5743" y1="56.1136" x2="45.3898" y2="57.2438" gradientUnits="userSpaceOnUse">
<stop stop-color="#054067"/>
<stop offset="1" stop-color="#0C1D34"/>
</linearGradient>
<linearGradient id="paint24_linear_145_461" x1="57.8089" y1="56.6297" x2="56.6244" y2="57.7599" gradientUnits="userSpaceOnUse">
<stop stop-color="#054067"/>
<stop offset="1" stop-color="#0C1D34"/>
</linearGradient>
<linearGradient id="paint25_linear_145_461" x1="60.8405" y1="58.658" x2="59.7441" y2="59.7243" gradientUnits="userSpaceOnUse">
<stop stop-color="#054067"/>
<stop offset="1" stop-color="#0C1D34"/>
</linearGradient>
<linearGradient id="paint26_linear_145_461" x1="64.6419" y1="61.6027" x2="63.6309" y2="62.4821" gradientUnits="userSpaceOnUse">
<stop stop-color="#054067"/>
<stop offset="1" stop-color="#0C1D34"/>
</linearGradient>
<linearGradient id="paint27_linear_145_461" x1="38.8738" y1="60.6282" x2="37.6893" y2="61.7584" gradientUnits="userSpaceOnUse">
<stop stop-color="#054067"/>
<stop offset="1" stop-color="#0C1D34"/>
</linearGradient>
<linearGradient id="paint28_linear_145_461" x1="41.5247" y1="58.0487" x2="40.3402" y2="59.1788" gradientUnits="userSpaceOnUse">
<stop stop-color="#054067"/>
<stop offset="1" stop-color="#0C1D34"/>
</linearGradient>
<linearGradient id="paint29_linear_145_461" x1="46.0691" y1="55.8558" x2="44.8846" y2="56.986" gradientUnits="userSpaceOnUse">
<stop stop-color="#054067"/>
<stop offset="1" stop-color="#0C1D34"/>
</linearGradient>
<linearGradient id="paint30_linear_145_461" x1="57.3042" y1="56.3714" x2="56.1197" y2="57.5016" gradientUnits="userSpaceOnUse">
<stop stop-color="#054067"/>
<stop offset="1" stop-color="#0C1D34"/>
</linearGradient>
<linearGradient id="paint31_linear_145_461" x1="60.3338" y1="58.4354" x2="59.1493" y2="59.5656" gradientUnits="userSpaceOnUse">
<stop stop-color="#054067"/>
<stop offset="1" stop-color="#0C1D34"/>
</linearGradient>
<linearGradient id="paint32_linear_145_461" x1="64.1208" y1="61.4017" x2="62.9363" y2="62.5319" gradientUnits="userSpaceOnUse">
<stop stop-color="#054067"/>
<stop offset="1" stop-color="#0C1D34"/>
</linearGradient>
<linearGradient id="paint33_linear_145_461" x1="40.0101" y1="60.8861" x2="38.8255" y2="62.0162" gradientUnits="userSpaceOnUse">
<stop stop-color="#054067"/>
<stop offset="1" stop-color="#0C1D34"/>
</linearGradient>
<linearGradient id="paint34_linear_145_461" x1="42.6607" y1="58.3062" x2="41.4762" y2="59.4364" gradientUnits="userSpaceOnUse">
<stop stop-color="#054067"/>
<stop offset="1" stop-color="#0C1D34"/>
</linearGradient>
<linearGradient id="paint35_linear_145_461" x1="47.2054" y1="56.1136" x2="46.0209" y2="57.2438" gradientUnits="userSpaceOnUse">
<stop stop-color="#054067"/>
<stop offset="1" stop-color="#0C1D34"/>
</linearGradient>
<linearGradient id="paint36_linear_145_461" x1="58.44" y1="56.6297" x2="57.2555" y2="57.7599" gradientUnits="userSpaceOnUse">
<stop stop-color="#054067"/>
<stop offset="1" stop-color="#0C1D34"/>
</linearGradient>
<linearGradient id="paint37_linear_145_461" x1="61.47" y1="58.6932" x2="60.2855" y2="59.8234" gradientUnits="userSpaceOnUse">
<stop stop-color="#054067"/>
<stop offset="1" stop-color="#0C1D34"/>
</linearGradient>
<linearGradient id="paint38_linear_145_461" x1="65.2762" y1="61.6307" x2="64.2122" y2="62.5084" gradientUnits="userSpaceOnUse">
<stop stop-color="#054067"/>
<stop offset="1" stop-color="#0C1D34"/>
</linearGradient>
<linearGradient id="paint39_linear_145_461" x1="40.7674" y1="60.6282" x2="39.5829" y2="61.7584" gradientUnits="userSpaceOnUse">
<stop stop-color="#054067"/>
<stop offset="1" stop-color="#0C1D34"/>
</linearGradient>
<linearGradient id="paint40_linear_145_461" x1="43.418" y1="58.0487" x2="42.2335" y2="59.1788" gradientUnits="userSpaceOnUse">
<stop stop-color="#054067"/>
<stop offset="1" stop-color="#0C1D34"/>
</linearGradient>
<linearGradient id="paint41_linear_145_461" x1="47.9627" y1="55.8558" x2="46.7782" y2="56.986" gradientUnits="userSpaceOnUse">
<stop stop-color="#054067"/>
<stop offset="1" stop-color="#0C1D34"/>
</linearGradient>
<linearGradient id="paint42_linear_145_461" x1="59.1976" y1="56.3714" x2="58.013" y2="57.5016" gradientUnits="userSpaceOnUse">
<stop stop-color="#054067"/>
<stop offset="1" stop-color="#0C1D34"/>
</linearGradient>
<linearGradient id="paint43_linear_145_461" x1="62.2273" y1="58.4354" x2="61.0428" y2="59.5656" gradientUnits="userSpaceOnUse">
<stop stop-color="#054067"/>
<stop offset="1" stop-color="#0C1D34"/>
</linearGradient>
<linearGradient id="paint44_linear_145_461" x1="66.0142" y1="61.4017" x2="64.8297" y2="62.5319" gradientUnits="userSpaceOnUse">
<stop stop-color="#054067"/>
<stop offset="1" stop-color="#0C1D34"/>
</linearGradient>
<linearGradient id="paint45_linear_145_461" x1="41.9034" y1="60.1121" x2="40.7189" y2="61.2423" gradientUnits="userSpaceOnUse">
<stop stop-color="#054067"/>
<stop offset="1" stop-color="#0C1D34"/>
</linearGradient>
<linearGradient id="paint46_linear_145_461" x1="44.5542" y1="57.5325" x2="43.3697" y2="58.6627" gradientUnits="userSpaceOnUse">
<stop stop-color="#054067"/>
<stop offset="1" stop-color="#0C1D34"/>
</linearGradient>
<linearGradient id="paint47_linear_145_461" x1="49.0987" y1="55.3397" x2="47.9142" y2="56.4699" gradientUnits="userSpaceOnUse">
<stop stop-color="#054067"/>
<stop offset="1" stop-color="#0C1D34"/>
</linearGradient>
<linearGradient id="paint48_linear_145_461" x1="60.3338" y1="55.8558" x2="59.1493" y2="56.986" gradientUnits="userSpaceOnUse">
<stop stop-color="#054067"/>
<stop offset="1" stop-color="#0C1D34"/>
</linearGradient>
<linearGradient id="paint49_linear_145_461" x1="63.3633" y1="57.9195" x2="62.1788" y2="59.0497" gradientUnits="userSpaceOnUse">
<stop stop-color="#054067"/>
<stop offset="1" stop-color="#0C1D34"/>
</linearGradient>
<linearGradient id="paint50_linear_145_461" x1="67.1507" y1="60.8861" x2="65.9662" y2="62.0162" gradientUnits="userSpaceOnUse">
<stop stop-color="#054067"/>
<stop offset="1" stop-color="#0C1D34"/>
</linearGradient>
<linearGradient id="paint51_linear_145_461" x1="42.4085" y1="60.1121" x2="41.224" y2="61.2423" gradientUnits="userSpaceOnUse">
<stop stop-color="#054067"/>
<stop offset="1" stop-color="#0C1D34"/>
</linearGradient>
<linearGradient id="paint52_linear_145_461" x1="45.0594" y1="57.5325" x2="43.8749" y2="58.6627" gradientUnits="userSpaceOnUse">
<stop stop-color="#054067"/>
<stop offset="1" stop-color="#0C1D34"/>
</linearGradient>
<linearGradient id="paint53_linear_145_461" x1="49.6038" y1="55.3397" x2="48.4193" y2="56.4699" gradientUnits="userSpaceOnUse">
<stop stop-color="#054067"/>
<stop offset="1" stop-color="#0C1D34"/>
</linearGradient>
<linearGradient id="paint54_linear_145_461" x1="60.8387" y1="55.8558" x2="59.6542" y2="56.986" gradientUnits="userSpaceOnUse">
<stop stop-color="#054067"/>
<stop offset="1" stop-color="#0C1D34"/>
</linearGradient>
<linearGradient id="paint55_linear_145_461" x1="63.8682" y1="57.9195" x2="62.6837" y2="59.0497" gradientUnits="userSpaceOnUse">
<stop stop-color="#054067"/>
<stop offset="1" stop-color="#0C1D34"/>
</linearGradient>
<linearGradient id="paint56_linear_145_461" x1="67.6066" y1="61.0888" x2="66.5549" y2="62.1802" gradientUnits="userSpaceOnUse">
<stop stop-color="#054067"/>
<stop offset="1" stop-color="#0C1D34"/>
</linearGradient>
<linearGradient id="paint57_linear_145_461" x1="43.0396" y1="60.1121" x2="41.8551" y2="61.2423" gradientUnits="userSpaceOnUse">
<stop stop-color="#054067"/>
<stop offset="1" stop-color="#0C1D34"/>
</linearGradient>
<linearGradient id="paint58_linear_145_461" x1="45.6902" y1="57.5325" x2="44.5057" y2="58.6627" gradientUnits="userSpaceOnUse">
<stop stop-color="#054067"/>
<stop offset="1" stop-color="#0C1D34"/>
</linearGradient>
<linearGradient id="paint59_linear_145_461" x1="50.2349" y1="55.3397" x2="49.0504" y2="56.4699" gradientUnits="userSpaceOnUse">
<stop stop-color="#054067"/>
<stop offset="1" stop-color="#0C1D34"/>
</linearGradient>
<linearGradient id="paint60_linear_145_461" x1="61.47" y1="55.8558" x2="60.2855" y2="56.986" gradientUnits="userSpaceOnUse">
<stop stop-color="#054067"/>
<stop offset="1" stop-color="#0C1D34"/>
</linearGradient>
<linearGradient id="paint61_linear_145_461" x1="64.4996" y1="57.9195" x2="63.3151" y2="59.0497" gradientUnits="userSpaceOnUse">
<stop stop-color="#054067"/>
<stop offset="1" stop-color="#0C1D34"/>
</linearGradient>
<linearGradient id="paint62_linear_145_461" x1="67.8791" y1="61.2993" x2="66.9752" y2="62.1143" gradientUnits="userSpaceOnUse">
<stop stop-color="#054067"/>
<stop offset="1" stop-color="#0C1D34"/>
</linearGradient>
<linearGradient id="paint63_linear_145_461" x1="43.7969" y1="60.3699" x2="42.6124" y2="61.5001" gradientUnits="userSpaceOnUse">
<stop stop-color="#054067"/>
<stop offset="1" stop-color="#0C1D34"/>
</linearGradient>
<linearGradient id="paint64_linear_145_461" x1="46.4476" y1="57.7904" x2="45.263" y2="58.9205" gradientUnits="userSpaceOnUse">
<stop stop-color="#054067"/>
<stop offset="1" stop-color="#0C1D34"/>
</linearGradient>
<linearGradient id="paint65_linear_145_461" x1="50.9922" y1="55.5977" x2="49.8077" y2="56.7279" gradientUnits="userSpaceOnUse">
<stop stop-color="#054067"/>
<stop offset="1" stop-color="#0C1D34"/>
</linearGradient>
<linearGradient id="paint66_linear_145_461" x1="62.2273" y1="56.1136" x2="61.0428" y2="57.2438" gradientUnits="userSpaceOnUse">
<stop stop-color="#054067"/>
<stop offset="1" stop-color="#0C1D34"/>
</linearGradient>
<linearGradient id="paint67_linear_145_461" x1="65.2569" y1="58.1773" x2="64.0724" y2="59.3075" gradientUnits="userSpaceOnUse">
<stop stop-color="#054067"/>
<stop offset="1" stop-color="#0C1D34"/>
</linearGradient>
<linearGradient id="paint68_linear_145_461" x1="69.0439" y1="61.1441" x2="67.8594" y2="62.2743" gradientUnits="userSpaceOnUse">
<stop stop-color="#054067"/>
<stop offset="1" stop-color="#0C1D34"/>
</linearGradient>
<linearGradient id="paint69_linear_145_461" x1="46.4602" y1="78.3187" x2="39.1909" y2="78.5472" gradientUnits="userSpaceOnUse">
<stop stop-color="#054067"/>
<stop offset="1" stop-color="#0C1D34"/>
</linearGradient>
<linearGradient id="paint70_linear_145_461" x1="64.3235" y1="74.0099" x2="68.7196" y2="79.9314" gradientUnits="userSpaceOnUse">
<stop stop-color="#054067"/>
<stop offset="1" stop-color="#0C1D34"/>
</linearGradient>
<linearGradient id="paint71_linear_145_461" x1="47.8094" y1="80.1647" x2="41.694" y2="80.5673" gradientUnits="userSpaceOnUse">
<stop stop-color="#054067"/>
<stop offset="1" stop-color="#0C1D34"/>
</linearGradient>
<linearGradient id="paint72_linear_145_461" x1="65.0611" y1="71.8325" x2="68.9361" y2="76.6848" gradientUnits="userSpaceOnUse">
<stop stop-color="#054067"/>
<stop offset="1" stop-color="#0C1D34"/>
</linearGradient>
<linearGradient id="paint73_linear_145_461" x1="50.5576" y1="79.4774" x2="44.4954" y2="80.3935" gradientUnits="userSpaceOnUse">
<stop stop-color="#054067"/>
<stop offset="1" stop-color="#0C1D34"/>
</linearGradient>
<linearGradient id="paint74_linear_145_461" x1="51.2726" y1="73.8374" x2="44.347" y2="75.2133" gradientUnits="userSpaceOnUse">
<stop stop-color="#054067"/>
<stop offset="1" stop-color="#0C1D34"/>
</linearGradient>
<linearGradient id="paint75_linear_145_461" x1="57.9924" y1="72.4577" x2="63.1422" y2="77.3871" gradientUnits="userSpaceOnUse">
<stop stop-color="#054067"/>
<stop offset="1" stop-color="#0C1D34"/>
</linearGradient>
<linearGradient id="paint76_linear_145_461" x1="48.93" y1="74.0545" x2="41.4691" y2="74.684" gradientUnits="userSpaceOnUse">
<stop stop-color="#054067"/>
<stop offset="1" stop-color="#0C1D34"/>
</linearGradient>
<linearGradient id="paint77_linear_145_461" x1="59.4836" y1="74.3165" x2="64.3268" y2="80.1513" gradientUnits="userSpaceOnUse">
<stop stop-color="#054067"/>
<stop offset="1" stop-color="#0C1D34"/>
</linearGradient>
<linearGradient id="paint78_linear_145_461" x1="46.0813" y1="73.5462" x2="38.812" y2="73.7747" gradientUnits="userSpaceOnUse">
<stop stop-color="#054067"/>
<stop offset="1" stop-color="#0C1D34"/>
</linearGradient>
<linearGradient id="paint79_linear_145_461" x1="60.6716" y1="77.0097" x2="65.0678" y2="82.9312" gradientUnits="userSpaceOnUse">
<stop stop-color="#054067"/>
<stop offset="1" stop-color="#0C1D34"/>
</linearGradient>
<linearGradient id="paint80_linear_145_461" x1="38.4569" y1="73.9409" x2="31.263" y2="72.8492" gradientUnits="userSpaceOnUse">
<stop stop-color="#054067"/>
<stop offset="1" stop-color="#0C1D34"/>
</linearGradient>
<linearGradient id="paint81_linear_145_461" x1="44.1845" y1="73.6115" x2="37.1421" y2="74.0437" gradientUnits="userSpaceOnUse">
<stop stop-color="#054067"/>
<stop offset="1" stop-color="#0C1D34"/>
</linearGradient>
<linearGradient id="paint82_linear_145_461" x1="61.7899" y1="78.5772" x2="66.2259" y2="84.1845" gradientUnits="userSpaceOnUse">
<stop stop-color="#054067"/>
<stop offset="1" stop-color="#0C1D34"/>
</linearGradient>
<linearGradient id="paint83_linear_145_461" x1="42.4658" y1="72.2165" x2="35.4157" y2="71.9462" gradientUnits="userSpaceOnUse">
<stop stop-color="#054067"/>
<stop offset="1" stop-color="#0C1D34"/>
</linearGradient>
<linearGradient id="paint84_linear_145_461" x1="61.3271" y1="80.7789" x2="64.4322" y2="85.9465" gradientUnits="userSpaceOnUse">
<stop stop-color="#054067"/>
<stop offset="1" stop-color="#0C1D34"/>
</linearGradient>
<linearGradient id="paint85_linear_145_461" x1="44.5822" y1="76.9396" x2="37.1167" y2="77.5096" gradientUnits="userSpaceOnUse">
<stop stop-color="#054067"/>
<stop offset="1" stop-color="#0C1D34"/>
</linearGradient>
<linearGradient id="paint86_linear_145_461" x1="64.2619" y1="76.3717" x2="69.058" y2="82.247" gradientUnits="userSpaceOnUse">
<stop stop-color="#054067"/>
<stop offset="1" stop-color="#0C1D34"/>
</linearGradient>
<linearGradient id="paint87_linear_145_461" x1="41.7554" y1="74.9478" x2="34.3101" y2="74.1482" gradientUnits="userSpaceOnUse">
<stop stop-color="#054067"/>
<stop offset="1" stop-color="#0C1D34"/>
</linearGradient>
<linearGradient id="paint88_linear_145_461" x1="63.9538" y1="79.8765" x2="67.3055" y2="86.0278" gradientUnits="userSpaceOnUse">
<stop stop-color="#054067"/>
<stop offset="1" stop-color="#0C1D34"/>
</linearGradient>
<linearGradient id="paint89_linear_145_461" x1="55.8985" y1="88.3206" x2="54.6727" y2="93.7237" gradientUnits="userSpaceOnUse">
<stop stop-color="#8ECEDE"/>
<stop offset="1" stop-color="#8ECEDE" stop-opacity="0"/>
</linearGradient>
</defs>
</svg>
