<svg width="108" height="109" viewBox="0 0 108 109" fill="none" xmlns="http://www.w3.org/2000/svg">
<ellipse cx="54" cy="54.1384" rx="54" ry="53.9499" fill="#FFDCB2"/>
<path d="M32.796 68.0201C32.6295 64.5282 36.6101 62.9624 38.6212 62.6159L39.2453 72.5928C37.1649 72.5235 32.9624 71.512 32.796 68.0201Z" fill="url(#paint0_linear_278_2519)"/>
<path d="M28.3956 101.699C27.9795 97.9573 42.7433 85.0693 43.7836 84.4457H62.9236C66.5852 84.4457 79.5763 94.163 84.5 98.5971C62 113.583 40 108.088 28.3956 101.699Z" fill="url(#paint1_linear_278_2519)"/>
<path d="M61.8832 98.3718C63.6862 97.8175 67.9997 96.7921 70.8291 97.1247" stroke="url(#paint2_linear_278_2519)" stroke-width="1.06926" stroke-linecap="round"/>
<path d="M39.4142 73.6374L37.3338 61.1664L33.589 55.7622L37.9579 47.0325L62.9232 41.4205L69.1645 46.2011L68.5404 75.0924C69.2338 78.903 67.5834 86.8568 55.4336 88.187C43.2838 89.5172 39.6916 79.0416 39.4142 73.6374Z" fill="url(#paint3_linear_278_2519)"/>
<g filter="url(#filter0_f_278_2519)">
<path d="M51.525 64.0043C51.733 61.3022 50.6928 52.9882 50.6928 52.9882V50.9097L57.7663 50.0782C57.7663 50.0782 58.3904 62.7572 58.3904 64.0043C58.3904 65.2514 61.9272 67.9534 61.303 70.0319C60.6789 72.1105 56.9341 71.6947 56.9341 71.6947H54.8537C53.6054 71.6947 52.5652 72.5262 52.5652 72.5262C52.5652 72.5262 49.8606 73.9811 48.6123 71.6947C47.3641 69.4084 51.3169 66.7063 51.525 64.0043Z" fill="url(#paint4_linear_278_2519)"/>
</g>
<g filter="url(#filter1_f_278_2519)">
<path d="M54.1173 53.4244C53.3119 53.4871 53.7408 62.1968 54.0559 66.5438C54.9276 67.3323 56.0489 66.7454 56.5006 66.3534C56.0417 62.0176 54.9226 53.3617 54.1173 53.4244Z" fill="url(#paint5_linear_278_2519)"/>
</g>
<path d="M74.6219 64.6781C74.471 61.1855 70.3648 59.9865 68.3305 59.8235L68.6137 69.8158C70.6793 69.5585 74.7728 68.1707 74.6219 64.6781Z" fill="url(#paint6_linear_278_2519)"/>
<path d="M48.7769 98.4367C46.9738 97.8824 42.6604 96.857 39.831 97.1896" stroke="url(#paint7_linear_278_2519)" stroke-width="1.06926" stroke-linecap="round"/>
<path d="M60.2186 80.0809C56.2242 83.5728 52.8677 81.813 51.6888 80.4966L49.8164 80.9123C50.4405 81.9516 52.4378 84.1132 55.4336 84.4458C58.4294 84.7783 60.4266 81.9516 61.0508 80.4966L60.2186 80.0809Z" fill="white"/>
<path d="M30.4385 84.4197C25.5441 80.2675 26.8878 75.094 28.4321 72.5379C28.5805 72.2923 28.9377 72.346 29.0422 72.6132C32.0536 80.3157 36.7484 77.6865 38.1669 73.6374C39.6157 69.5019 46.006 67.6977 49.3494 68.2249C49.3845 68.2304 49.4192 68.2309 49.4544 68.2262L60.085 66.7965C60.1717 66.7848 60.2482 66.7415 60.3133 66.6831C61.8269 65.3253 69.6187 65.4069 71.2459 69.0647C72.5617 72.0224 74.7984 73.3293 75.7879 73.6272C75.8118 73.6344 75.8363 73.6384 75.8612 73.64C80.0904 73.9135 81.1994 71.0005 81.2591 68.9824C81.268 68.6821 81.6061 68.4867 81.8372 68.6786C84.9514 71.2643 84.1695 75.7315 83.3228 77.7696C83.3158 77.7866 83.3072 77.803 83.2974 77.8187C75.9247 89.7278 61.9248 82.8038 55.5348 77.6318C55.368 77.4968 55.1213 77.5436 55.0029 77.7225C47.3554 89.2808 35.5362 87.0631 30.5034 84.4633C30.48 84.4513 30.4585 84.4366 30.4385 84.4197Z" fill="url(#paint8_linear_278_2519)"/>
<path d="M42.9516 60.127C42.9516 60.3349 42.7435 65.5311 45.032 65.3233C46.8628 65.157 47.1818 61.7898 47.1125 60.127" stroke="#0A122D" stroke-width="0.712843" stroke-linecap="round" stroke-linejoin="round"/>
<path d="M61.0735 59.1299C61.0853 59.3374 61.1729 64.5371 63.4459 64.1998C65.2643 63.9299 65.3914 60.55 65.2277 58.8938" stroke="#0A122D" stroke-width="0.712843" stroke-linecap="round" stroke-linejoin="round"/>
<path d="M58.9711 56.178C59.3039 56.8431 61.0515 56.8016 61.4676 56.3858C61.8837 55.9701 62.7159 55.3466 64.3802 55.7623C66.8767 55.9702 67.2928 54.9309 67.2928 54.3073C67.2928 53.6838 65.0043 52.021 62.7159 52.4367C60.4274 52.8524 58.555 55.3466 58.9711 56.178Z" fill="#0B132E"/>
<path d="M46.6966 57.8407C45.1987 57.0093 43.4372 57.7714 42.7437 58.2564C40.8714 59.2956 39.207 57.8407 41.0794 55.97C42.5773 54.4735 46.1418 54.6536 47.7368 54.9308C48.6383 55.2079 50.3165 56.0532 49.8172 57.2171C49.3179 58.3811 47.5288 58.1178 46.6966 57.8407Z" fill="#0B132E"/>
<path d="M68.0873 46.9679C56.868 55.3495 43.3183 53.2541 37.9459 51.1587V63.312C37.9459 63.312 28.5267 66.6647 21.2007 62.0548C13.8746 57.4449 11.1535 53.2541 10.107 46.9679C9.06038 40.6817 15.9678 35.4432 18.8982 33.1383C19.4006 26.0977 26.6429 24.3376 30.2012 24.3376C31.7362 20.9849 37.6947 13.9024 49.2489 12.3938C60.8031 10.8851 70.948 17.6323 74.5761 21.1945C88.1397 17.6742 94.7402 28.6681 96.3449 34.605C98.2985 38.3768 100.113 47.9318 91.74 55.9781C83.3673 64.0245 72.4829 64.22 68.0873 63.312V59.5403V46.9679Z" fill="url(#paint9_linear_278_2519)"/>
<mask id="mask0_278_2519" style="mask-type:alpha" maskUnits="userSpaceOnUse" x="10" y="12" width="88" height="53">
<path d="M68.0232 47.2639C56.872 55.5779 43.4046 53.4994 38.0649 51.4209V63.4763C38.0649 63.4763 28.7029 66.8019 21.4213 62.2292C14.1398 57.6565 11.4352 53.4994 10.395 47.2639C9.35478 41.0284 16.2202 35.8321 19.1328 33.5458C19.6322 26.562 26.8305 24.816 30.3672 24.816C31.8929 21.4904 37.8152 14.465 49.2992 12.9685C60.7832 11.472 70.8664 18.1648 74.4725 21.6982C87.9538 18.2063 94.5141 29.1116 96.1091 35.0007C98.0509 38.742 99.8539 48.22 91.5321 56.2015C83.2104 64.183 72.3921 64.377 68.0232 63.4763V59.735V47.2639Z" fill="url(#paint10_linear_278_2519)"/>
</mask>
<g mask="url(#mask0_278_2519)">
<g filter="url(#filter2_f_278_2519)">
<path d="M24.9584 36.4559C17.8017 40.7792 13.0999 48.6499 11.6436 52.0448H6.65056L4.98621 41.8601L13.7241 27.7262L30.9917 15.2551L55.3328 11.0981C45.3467 14.0912 38.1345 24.6777 35.7767 29.5969C29.785 30.262 26.068 34.4467 24.9584 36.4559Z" fill="url(#paint11_linear_278_2519)"/>
</g>
<g filter="url(#filter3_f_278_2519)">
<path d="M97.7738 47.472C50.5062 59.7767 20.3815 56.4788 11.2275 53.2918V62.4372L33.4882 74.4926L97.7738 59.7352V47.472Z" fill="url(#paint12_linear_278_2519)"/>
</g>
<g filter="url(#filter4_i_278_2519)">
<path d="M60.2284 39.3992C29.6705 41.5655 18.4626 34.1916 16.6785 30.2338L19.3547 25.2345C27.7241 34.3999 53.6595 33.4972 65.581 31.9002L70.4094 36.9795L60.2284 39.3992Z" fill="url(#paint13_linear_278_2519)"/>
</g>
<g filter="url(#filter5_i_278_2519)">
<path d="M90.7004 30.4279C75.3051 42.2755 65.111 38.5341 64.2788 38.742L60.9501 40.8205C68.7725 45.8089 83.0721 40.4048 89.2441 37.0792L90.7004 30.4279Z" fill="url(#paint14_linear_278_2519)"/>
</g>
<g filter="url(#filter6_i_278_2519)">
<path d="M26.831 51.2132C27.8296 58.197 22.3927 61.7443 19.5494 62.645L28.2873 67.6334C32.6146 64.9729 32.4482 55.1624 31.824 50.5897L26.831 51.2132Z" fill="url(#paint15_linear_278_2519)"/>
<path d="M82.3787 51.2132C84.2095 52.876 86.1928 60.0815 86.9557 63.4764L93.197 58.2801C91.6991 58.1139 87.7185 51.1439 85.9155 47.6797L82.3787 51.2132Z" fill="url(#paint16_linear_278_2519)"/>
</g>
<g filter="url(#filter7_i_278_2519)">
<path d="M80.09 18.7884C43.4743 53.3748 17.5382 48.3032 9.14705 41.4441L7.27466 49.3425C50.3814 61.1484 78.3563 33.8922 86.9555 18.7884H80.09Z" fill="url(#paint17_linear_278_2519)"/>
</g>
<g filter="url(#filter8_i_278_2519)">
<path d="M92.0207 24.6582C85.5132 45.2204 72.1611 51.4664 66.2985 52.0191V57.2012C79.1376 60.0202 92.9001 43.1752 98.1764 34.4003L92.0207 24.6582Z" fill="url(#paint18_linear_278_2519)"/>
</g>
</g>
<ellipse cx="41.1234" cy="36.9309" rx="0.832176" ry="0.831404" fill="url(#paint19_linear_278_2519)"/>
<ellipse cx="31.8919" cy="36.0663" rx="0.832176" ry="0.831404" fill="url(#paint20_linear_278_2519)"/>
<ellipse cx="24.0197" cy="34.3535" rx="0.832176" ry="0.831404" fill="url(#paint21_linear_278_2519)"/>
<ellipse cx="41.1234" cy="48.3159" rx="0.832176" ry="0.831404" fill="url(#paint22_linear_278_2519)"/>
<ellipse cx="25.834" cy="61.8621" rx="0.832176" ry="0.831404" fill="url(#paint23_linear_278_2519)"/>
<ellipse cx="28.2855" cy="59.4122" rx="0.832176" ry="0.831404" fill="url(#paint24_linear_278_2519)"/>
<ellipse cx="29.1513" cy="55.3772" rx="0.832176" ry="0.831404" fill="url(#paint25_linear_278_2519)"/>
<ellipse cx="36.5077" cy="47.1629" rx="0.832176" ry="0.831404" fill="url(#paint26_linear_278_2519)"/>
<ellipse cx="31.8919" cy="50.0452" rx="0.832176" ry="0.831404" fill="url(#paint27_linear_278_2519)"/>
<ellipse cx="27.4204" cy="48.0276" rx="0.832176" ry="0.831404" fill="url(#paint28_linear_278_2519)"/>
<ellipse cx="22.2274" cy="50.0452" rx="0.832176" ry="0.831404" fill="url(#paint29_linear_278_2519)"/>
<ellipse cx="18.7656" cy="47.4512" rx="0.832176" ry="0.831404" fill="url(#paint30_linear_278_2519)"/>
<ellipse cx="14.1496" cy="47.4512" rx="0.832176" ry="0.831404" fill="url(#paint31_linear_278_2519)"/>
<ellipse cx="47.4705" cy="34.7694" rx="0.832176" ry="0.831404" fill="url(#paint32_linear_278_2519)"/>
<ellipse cx="36.3635" cy="34.3369" rx="0.832176" ry="0.831404" fill="url(#paint33_linear_278_2519)"/>
<ellipse cx="28.2855" cy="32.4636" rx="0.832176" ry="0.831404" fill="url(#paint34_linear_278_2519)"/>
<ellipse cx="45.0181" cy="44.5689" rx="0.832176" ry="0.831404" fill="url(#paint35_linear_278_2519)"/>
<ellipse cx="53.9606" cy="36.0663" rx="0.832176" ry="0.831404" fill="url(#paint36_linear_278_2519)"/>
<ellipse cx="69.9724" cy="40.3896" rx="0.832176" ry="0.831404" fill="url(#paint37_linear_278_2519)"/>
<ellipse cx="75.8866" cy="39.6691" rx="0.832176" ry="0.831404" fill="url(#paint38_linear_278_2519)"/>
<ellipse cx="80.0694" cy="38.6603" rx="0.832176" ry="0.831404" fill="url(#paint39_linear_278_2519)"/>
<ellipse cx="84.9743" cy="36.4987" rx="0.832176" ry="0.831404" fill="url(#paint40_linear_278_2519)"/>
<ellipse cx="91.176" cy="36.4987" rx="0.832176" ry="0.831404" fill="url(#paint41_linear_278_2519)"/>
<ellipse cx="90.3108" cy="41.2543" rx="0.832176" ry="0.831404" fill="url(#paint42_linear_278_2519)"/>
<ellipse cx="84.9743" cy="43.7042" rx="0.832176" ry="0.831404" fill="url(#paint43_linear_278_2519)"/>
<ellipse cx="83.0985" cy="48.3159" rx="0.832176" ry="0.831404" fill="url(#paint44_linear_278_2519)"/>
<ellipse cx="78.0498" cy="50.0452" rx="0.832176" ry="0.831404" fill="url(#paint45_linear_278_2519)"/>
<ellipse cx="75.0209" cy="53.792" rx="0.832176" ry="0.831404" fill="url(#paint46_linear_278_2519)"/>
<ellipse cx="85.8391" cy="52.3509" rx="0.832176" ry="0.831404" fill="url(#paint47_linear_278_2519)"/>
<ellipse cx="86.7046" cy="55.5213" rx="0.832176" ry="0.831404" fill="url(#paint48_linear_278_2519)"/>
<ellipse cx="70.4049" cy="53.6478" rx="0.832176" ry="0.831404" fill="url(#paint49_linear_278_2519)"/>
<ellipse cx="50.2113" cy="45.4335" rx="0.832176" ry="0.831404" fill="url(#paint50_linear_278_2519)"/>
<ellipse cx="75.8866" cy="24.8257" rx="0.832176" ry="0.831404" fill="url(#paint51_linear_278_2519)"/>
<ellipse cx="69.1072" cy="30.7343" rx="0.832176" ry="0.831404" fill="url(#paint52_linear_278_2519)"/>
<ellipse cx="67.2316" cy="35.634" rx="0.832176" ry="0.831404" fill="url(#paint53_linear_278_2519)"/>
<ellipse cx="53.2403" cy="41.3985" rx="0.832176" ry="0.831404" fill="url(#paint54_linear_278_2519)"/>
<ellipse cx="80.9351" cy="23.961" rx="0.832176" ry="0.831404" fill="url(#paint55_linear_278_2519)"/>
<ellipse cx="74.4439" cy="29.7255" rx="0.832176" ry="0.831404" fill="url(#paint56_linear_278_2519)"/>
<ellipse cx="61.8949" cy="36.0663" rx="0.832176" ry="0.831404" fill="url(#paint57_linear_278_2519)"/>
<ellipse cx="59.154" cy="41.3985" rx="0.832176" ry="0.831404" fill="url(#paint58_linear_278_2519)"/>
<path d="M51.0081 88.6919C51.6331 86.9866 54.2103 84.3686 59.5185 87.5391C58.4126 88.3077 55.1623 89.6143 51.0081 88.6919Z" fill="url(#paint59_linear_278_2519)"/>
<path d="M35.9504 84.8341C37.9308 83.4537 44.9262 76.8752 48.4672 73.4764C43.5129 79.5269 38.3147 83.4052 35.9504 84.8341C35.7635 84.9644 35.6212 85.0484 35.5308 85.079C35.6584 85.0075 35.7986 84.9258 35.9504 84.8341Z" fill="url(#paint60_linear_278_2519)"/>
<path d="M76.9807 78.3195C74.8117 77.259 65.6602 74.3391 60.9676 72.8945C68.6667 74.2874 74.583 76.9471 76.9807 78.3195C77.1855 78.4196 77.328 78.5031 77.3987 78.5673C77.2742 78.4904 77.1347 78.4076 76.9807 78.3195Z" fill="url(#paint61_linear_278_2519)"/>
<path d="M49.6886 76.4905C46.9449 79.1649 41.4952 83.9687 38.9928 84.5082C40.6578 84.4656 45.128 82.8024 49.6886 76.4905Z" fill="url(#paint62_linear_278_2519)"/>
<path d="M63.0137 70.3653C66.6856 71.4649 73.5338 73.8953 75.2201 75.8197C74.375 74.3858 70.7507 71.2874 63.0137 70.3653Z" fill="url(#paint63_linear_278_2519)"/>
<path d="M52.6419 75.6139C50.1383 78.514 45.1219 83.7677 42.6752 84.52C44.3304 84.3346 48.641 82.2939 52.6419 75.6139Z" fill="url(#paint64_linear_278_2519)"/>
<path d="M60.8133 68.2109C64.5662 68.9912 71.5982 70.8249 73.4436 72.5974C72.4784 71.2413 68.601 68.4655 60.8133 68.2109Z" fill="url(#paint65_linear_278_2519)"/>
<path d="M42.8922 80.3148C44.3136 79.3542 50.4087 72.2432 53.4496 68.6001C51.1547 74.8103 45.5887 78.9196 42.8922 80.3148C42.8039 80.3744 42.7337 80.4104 42.6833 80.4203C42.7508 80.3871 42.8205 80.3519 42.8922 80.3148Z" fill="url(#paint66_linear_278_2519)"/>
<path d="M69.658 74.4481C68.1277 73.6723 58.9469 71.7973 54.283 70.9081C60.8317 69.9002 67.1287 72.7692 69.658 74.4481C69.753 74.4962 69.8185 74.5401 69.8517 74.5793C69.7898 74.5365 69.7253 74.4927 69.658 74.4481Z" fill="url(#paint67_linear_278_2519)"/>
<path d="M51.1544 68.3973C47.2819 72.8174 39.3666 81.676 38.6852 81.7495C37.8333 81.8414 42.4923 76.3389 51.1544 68.3973Z" fill="url(#paint68_linear_278_2519)"/>
<path d="M55.2187 73.0115C60.9661 74.2502 72.5596 76.8675 72.9546 77.4272C73.4482 78.1268 66.3719 76.7261 55.2187 73.0115Z" fill="url(#paint69_linear_278_2519)"/>
<path d="M35.5184 79.5021C37.4988 78.1217 44.4942 71.5432 48.0352 68.1445C43.0809 74.1949 37.8827 78.0732 35.5184 79.5021C35.3315 79.6324 35.1892 79.7164 35.0987 79.747C35.2264 79.6755 35.3666 79.5939 35.5184 79.5021Z" fill="url(#paint70_linear_278_2519)"/>
<path d="M72.5239 81.2845C70.3549 80.2241 61.2034 77.3042 56.5108 75.8595C64.2099 77.2524 70.1263 79.9122 72.5239 81.2845C72.7287 81.3846 72.8712 81.4681 72.9419 81.5323C72.8174 81.4555 72.6779 81.3726 72.5239 81.2845Z" fill="url(#paint71_linear_278_2519)"/>
<path d="M35.3659 78.0367C38.2602 75.6214 42.5218 71.8408 44.733 69.8315C42.5934 73.8264 38.2936 76.3364 35.3659 78.0367C33.3772 79.6963 32.034 80.7113 32.4452 80.064C32.7817 79.5343 33.9024 78.8866 35.3659 78.0367Z" fill="url(#paint72_linear_278_2519)"/>
<path d="M41.661 57.63C42.0694 57.0492 42.6461 56.1641 42.9401 55.6985C42.8802 56.4215 42.1555 57.1411 41.661 57.63C41.3805 58.0291 41.1794 58.2846 41.2041 58.1617C41.2243 58.0611 41.4139 57.8744 41.661 57.63Z" fill="url(#paint73_linear_278_2519)"/>
<path d="M60.2686 55.6126C60.6769 55.0318 61.2536 54.1467 61.5476 53.6811C61.4878 54.4041 60.763 55.1237 60.2686 55.6126C59.988 56.0117 59.7869 56.2672 59.8116 56.1443C59.8318 56.0437 60.0214 55.857 60.2686 55.6126Z" fill="url(#paint74_linear_278_2519)"/>
<path d="M41.084 57.3417C41.4924 56.7609 42.069 55.8758 42.363 55.4102C42.3032 56.1332 41.5785 56.8528 41.084 57.3417C40.8034 57.7408 40.6023 57.9963 40.627 57.8734C40.6472 57.7728 40.8369 57.5861 41.084 57.3417Z" fill="url(#paint75_linear_278_2519)"/>
<path d="M59.6916 55.3243C60.0999 54.7435 60.6766 53.8584 60.9706 53.3928C60.9108 54.1158 60.186 54.8355 59.6916 55.3243C59.411 55.7234 59.2099 55.9789 59.2346 55.856C59.2548 55.7554 59.4444 55.5687 59.6916 55.3243Z" fill="url(#paint76_linear_278_2519)"/>
<path d="M42.3822 57.63C42.7906 57.0492 43.3673 56.1641 43.6613 55.6985C43.6014 56.4215 42.8767 57.1411 42.3822 57.63C42.1017 58.0291 41.9005 58.2846 41.9252 58.1617C41.9455 58.0611 42.1351 57.8744 42.3822 57.63Z" fill="url(#paint77_linear_278_2519)"/>
<path d="M60.9899 55.6126C61.3983 55.0318 61.9749 54.1467 62.2689 53.6811C62.2091 54.4041 61.4843 55.1237 60.9899 55.6126C60.7093 56.0117 60.5082 56.2672 60.5329 56.1443C60.5531 56.0437 60.7427 55.857 60.9899 55.6126Z" fill="url(#paint78_linear_278_2519)"/>
<path d="M43.2477 57.3417C43.6561 56.7609 44.2327 55.8758 44.5267 55.4102C44.4669 56.1332 43.7422 56.8528 43.2477 57.3417C42.9671 57.7408 42.766 57.9963 42.7907 57.8734C42.8109 57.7728 43.0006 57.5861 43.2477 57.3417Z" fill="url(#paint79_linear_278_2519)"/>
<path d="M61.8553 55.3243C62.2636 54.7435 62.8403 53.8584 63.1343 53.3928C63.0745 54.1158 62.3497 54.8355 61.8553 55.3243C61.5747 55.7234 61.3736 55.9789 61.3983 55.856C61.4185 55.7554 61.6081 55.5687 61.8553 55.3243Z" fill="url(#paint80_linear_278_2519)"/>
<path d="M44.5461 56.7654C44.9544 56.1845 45.5311 55.2994 45.8251 54.8339C45.7653 55.5568 45.0405 56.2765 44.5461 56.7654C44.2655 57.1645 44.0644 57.42 44.0891 57.297C44.1093 57.1964 44.2989 57.0097 44.5461 56.7654Z" fill="url(#paint81_linear_278_2519)"/>
<path d="M63.1534 54.7477C63.5617 54.1668 64.1384 53.2818 64.4324 52.8162C64.3726 53.5392 63.6478 54.2588 63.1534 54.7477C62.8728 55.1468 62.6717 55.4023 62.6964 55.2794C62.7166 55.1788 62.9062 54.9921 63.1534 54.7477Z" fill="url(#paint82_linear_278_2519)"/>
<path d="M45.1226 56.7654C45.5309 56.1845 46.1076 55.2994 46.4016 54.8339C46.3418 55.5568 45.617 56.2765 45.1226 56.7654C44.842 57.1645 44.6409 57.42 44.6656 57.297C44.6858 57.1964 44.8754 57.0097 45.1226 56.7654Z" fill="url(#paint83_linear_278_2519)"/>
<path d="M63.7301 54.7477C64.1385 54.1668 64.7152 53.2818 65.0092 52.8162C64.9493 53.5392 64.2246 54.2588 63.7301 54.7477C63.4496 55.1468 63.2484 55.4023 63.2731 55.2794C63.2934 55.1788 63.483 54.9921 63.7301 54.7477Z" fill="url(#paint84_linear_278_2519)"/>
<path d="M45.8438 56.7654C46.2521 56.1845 46.8288 55.2994 47.1228 54.8339C47.063 55.5568 46.3382 56.2765 45.8438 56.7654C45.5632 57.1645 45.3621 57.42 45.3868 57.297C45.407 57.1964 45.5966 57.0097 45.8438 56.7654Z" fill="url(#paint85_linear_278_2519)"/>
<path d="M64.4513 54.7477C64.8597 54.1668 65.4364 53.2818 65.7303 52.8162C65.6705 53.5392 64.9458 54.2588 64.4513 54.7477C64.1707 55.1468 63.9696 55.4023 63.9943 55.2794C64.0146 55.1788 64.2042 54.9921 64.4513 54.7477Z" fill="url(#paint86_linear_278_2519)"/>
<path d="M46.7099 57.0537C47.1182 56.4728 47.6949 55.5877 47.9889 55.1222C47.9291 55.8451 47.2043 56.5648 46.7099 57.0537C46.4293 57.4528 46.2282 57.7083 46.2529 57.5853C46.2731 57.4847 46.4627 57.298 46.7099 57.0537Z" fill="url(#paint87_linear_278_2519)"/>
<path d="M65.2655 55.1013C65.6276 54.5876 66.139 53.8048 66.3997 53.393C66.3465 54.0323 65.7039 54.6689 65.2655 55.1013C65.0167 55.4544 64.8383 55.6804 64.8603 55.5717C64.8782 55.4827 65.0463 55.3175 65.2655 55.1013Z" fill="url(#paint88_linear_278_2519)"/>
<path d="M47.575 57.3417C47.9833 56.7609 48.56 55.8758 48.854 55.4102C48.7942 56.1332 48.0694 56.8528 47.575 57.3417C47.2944 57.7408 47.0933 57.9963 47.118 57.8734C47.1382 57.7728 47.3278 57.5861 47.575 57.3417Z" fill="url(#paint89_linear_278_2519)"/>
<path d="M66.0684 55.1996C66.3288 54.7865 66.6959 54.1566 66.8828 53.8252C66.8513 54.3439 66.3859 54.8535 66.0684 55.1996C65.8895 55.4834 65.7609 55.6649 65.7757 55.5768C65.7879 55.5048 65.9097 55.3726 66.0684 55.1996Z" fill="url(#paint90_linear_278_2519)"/>
<path d="M48.4382 57.5837C48.7664 57.1035 49.2297 56.3716 49.4658 55.9866C49.4198 56.5858 48.8363 57.18 48.4382 57.5837C48.2127 57.9137 48.051 58.1248 48.0705 58.023C48.0865 57.9397 48.2392 57.7855 48.4382 57.5837Z" fill="url(#paint91_linear_278_2519)"/>
<path d="M71.3147 82.1284C67.7966 80.7717 62.4202 78.8827 59.5888 77.9258C64.1234 77.8569 68.4062 80.3956 71.3147 82.1284C73.7321 83.0607 75.2721 83.7418 74.5061 83.6965C73.8792 83.6595 72.7687 82.9947 71.3147 82.1284Z" fill="url(#paint92_linear_278_2519)"/>
<path d="M46.2138 71.6337C42.3054 76.0222 34.3182 84.8161 33.6362 84.8841C32.7836 84.969 37.4872 79.5046 46.2138 71.6337Z" fill="url(#paint93_linear_278_2519)"/>
<path d="M60.448 75.7572C66.1851 77.0426 77.757 79.7541 78.1473 80.317C78.6353 81.0207 71.5706 79.5625 60.448 75.7572Z" fill="url(#paint94_linear_278_2519)"/>
<path d="M50.7644 100.242C51.2637 93.9237 54.7172 84.6535 54.9252 84.4457C55.1333 84.2378 55.3413 84.6535 55.3413 85.2771C55.3413 85.9006 54.3011 104.773 51.8046 105.439C49.308 106.104 48.892 98.1638 49.9322 97.3324C50.9724 96.501 50.3483 99.4109 50.7644 100.242Z" fill="url(#paint95_linear_278_2519)"/>
<path d="M59.9181 100.242C59.4188 93.9237 55.9653 84.6535 55.7573 84.4457C55.5492 84.2378 55.3412 84.6535 55.3412 85.2771C55.3412 85.9006 56.3814 104.773 58.8779 105.439C61.3745 106.104 61.7905 98.1638 60.7503 97.3324C59.7101 96.501 60.3342 99.4109 59.9181 100.242Z" fill="url(#paint96_linear_278_2519)"/>
<defs>
<filter id="filter0_f_278_2519" x="48.2456" y="49.9547" width="13.2548" height="23.1513" filterUnits="userSpaceOnUse" color-interpolation-filters="sRGB">
<feFlood flood-opacity="0" result="BackgroundImageFix"/>
<feBlend mode="normal" in="SourceGraphic" in2="BackgroundImageFix" result="shape"/>
<feGaussianBlur stdDeviation="0.0617799" result="effect1_foregroundBlur_278_2519"/>
</filter>
<filter id="filter1_f_278_2519" x="52.7908" y="52.5592" width="4.57468" height="15.2397" filterUnits="userSpaceOnUse" color-interpolation-filters="sRGB">
<feFlood flood-opacity="0" result="BackgroundImageFix"/>
<feBlend mode="normal" in="SourceGraphic" in2="BackgroundImageFix" result="shape"/>
<feGaussianBlur stdDeviation="0.432459" result="effect1_foregroundBlur_278_2519"/>
</filter>
<filter id="filter2_f_278_2519" x="-1.4389" y="4.67302" width="63.1969" height="53.7968" filterUnits="userSpaceOnUse" color-interpolation-filters="sRGB">
<feFlood flood-opacity="0" result="BackgroundImageFix"/>
<feBlend mode="normal" in="SourceGraphic" in2="BackgroundImageFix" result="shape"/>
<feGaussianBlur stdDeviation="3.21255" result="effect1_foregroundBlur_278_2519"/>
</filter>
<filter id="filter3_f_278_2519" x="1.58988" y="37.8343" width="105.822" height="46.2959" filterUnits="userSpaceOnUse" color-interpolation-filters="sRGB">
<feFlood flood-opacity="0" result="BackgroundImageFix"/>
<feBlend mode="normal" in="SourceGraphic" in2="BackgroundImageFix" result="shape"/>
<feGaussianBlur stdDeviation="4.81883" result="effect1_foregroundBlur_278_2519"/>
</filter>
<filter id="filter4_i_278_2519" x="16.6785" y="25.2345" width="53.731" height="15.0494" filterUnits="userSpaceOnUse" color-interpolation-filters="sRGB">
<feFlood flood-opacity="0" result="BackgroundImageFix"/>
<feBlend mode="normal" in="SourceGraphic" in2="BackgroundImageFix" result="shape"/>
<feColorMatrix in="SourceAlpha" type="matrix" values="0 0 0 0 0 0 0 0 0 0 0 0 0 0 0 0 0 0 127 0" result="hardAlpha"/>
<feOffset dy="0.494239"/>
<feGaussianBlur stdDeviation="0.247119"/>
<feComposite in2="hardAlpha" operator="arithmetic" k2="-1" k3="1"/>
<feColorMatrix type="matrix" values="0 0 0 0 0 0 0 0 0 0 0 0 0 0 0 0 0 0 0.25 0"/>
<feBlend mode="normal" in2="shape" result="effect1_innerShadow_278_2519"/>
</filter>
<filter id="filter5_i_278_2519" x="60.9501" y="30.4279" width="29.7502" height="12.9089" filterUnits="userSpaceOnUse" color-interpolation-filters="sRGB">
<feFlood flood-opacity="0" result="BackgroundImageFix"/>
<feBlend mode="normal" in="SourceGraphic" in2="BackgroundImageFix" result="shape"/>
<feColorMatrix in="SourceAlpha" type="matrix" values="0 0 0 0 0 0 0 0 0 0 0 0 0 0 0 0 0 0 127 0" result="hardAlpha"/>
<feOffset dy="0.494239"/>
<feGaussianBlur stdDeviation="0.247119"/>
<feComposite in2="hardAlpha" operator="arithmetic" k2="-1" k3="1"/>
<feColorMatrix type="matrix" values="0 0 0 0 0 0 0 0 0 0 0 0 0 0 0 0 0 0 0.25 0"/>
<feBlend mode="normal" in2="shape" result="effect1_innerShadow_278_2519"/>
</filter>
<filter id="filter6_i_278_2519" x="19.5494" y="47.6797" width="73.6476" height="20.4479" filterUnits="userSpaceOnUse" color-interpolation-filters="sRGB">
<feFlood flood-opacity="0" result="BackgroundImageFix"/>
<feBlend mode="normal" in="SourceGraphic" in2="BackgroundImageFix" result="shape"/>
<feColorMatrix in="SourceAlpha" type="matrix" values="0 0 0 0 0 0 0 0 0 0 0 0 0 0 0 0 0 0 127 0" result="hardAlpha"/>
<feOffset dy="0.494239"/>
<feGaussianBlur stdDeviation="0.247119"/>
<feComposite in2="hardAlpha" operator="arithmetic" k2="-1" k3="1"/>
<feColorMatrix type="matrix" values="0 0 0 0 0 0 0 0 0 0 0 0 0 0 0 0 0 0 0.25 0"/>
<feBlend mode="normal" in2="shape" result="effect1_innerShadow_278_2519"/>
</filter>
<filter id="filter7_i_278_2519" x="7.27466" y="18.7884" width="79.6808" height="33.9343" filterUnits="userSpaceOnUse" color-interpolation-filters="sRGB">
<feFlood flood-opacity="0" result="BackgroundImageFix"/>
<feBlend mode="normal" in="SourceGraphic" in2="BackgroundImageFix" result="shape"/>
<feColorMatrix in="SourceAlpha" type="matrix" values="0 0 0 0 0 0 0 0 0 0 0 0 0 0 0 0 0 0 127 0" result="hardAlpha"/>
<feOffset dy="0.494239"/>
<feGaussianBlur stdDeviation="0.247119"/>
<feComposite in2="hardAlpha" operator="arithmetic" k2="-1" k3="1"/>
<feColorMatrix type="matrix" values="0 0 0 0 0 0 0 0 0 0 0 0 0 0 0 0 0 0 0.25 0"/>
<feBlend mode="normal" in2="shape" result="effect1_innerShadow_278_2519"/>
</filter>
<filter id="filter8_i_278_2519" x="66.2985" y="24.6582" width="31.8779" height="33.3514" filterUnits="userSpaceOnUse" color-interpolation-filters="sRGB">
<feFlood flood-opacity="0" result="BackgroundImageFix"/>
<feBlend mode="normal" in="SourceGraphic" in2="BackgroundImageFix" result="shape"/>
<feColorMatrix in="SourceAlpha" type="matrix" values="0 0 0 0 0 0 0 0 0 0 0 0 0 0 0 0 0 0 127 0" result="hardAlpha"/>
<feOffset dy="0.494239"/>
<feGaussianBlur stdDeviation="0.247119"/>
<feComposite in2="hardAlpha" operator="arithmetic" k2="-1" k3="1"/>
<feColorMatrix type="matrix" values="0 0 0 0 0 0 0 0 0 0 0 0 0 0 0 0 0 0 0.25 0"/>
<feBlend mode="normal" in2="shape" result="effect1_innerShadow_278_2519"/>
</filter>
<linearGradient id="paint0_linear_278_2519" x1="33.0524" y1="68.0186" x2="38.232" y2="67.547" gradientUnits="userSpaceOnUse">
<stop stop-color="#1D4F71"/>
<stop offset="0.479167" stop-color="#275F81"/>
<stop offset="1" stop-color="#25597B" stop-opacity="0.71"/>
</linearGradient>
<linearGradient id="paint1_linear_278_2519" x1="55.3257" y1="84.4457" x2="55.3257" y2="109.088" gradientUnits="userSpaceOnUse">
<stop stop-color="#FE8B00"/>
<stop offset="1" stop-color="#FE8B00" stop-opacity="0.48"/>
</linearGradient>
<linearGradient id="paint2_linear_278_2519" x1="59.2525" y1="97.5488" x2="79.4268" y2="93.3914" gradientUnits="userSpaceOnUse">
<stop stop-color="#FF8C00"/>
<stop offset="1" stop-color="#FF8C00" stop-opacity="0"/>
</linearGradient>
<linearGradient id="paint3_linear_278_2519" x1="52.8401" y1="47.9166" x2="51.3795" y2="88.3027" gradientUnits="userSpaceOnUse">
<stop offset="0.0187499" stop-color="#165372"/>
<stop offset="0.388542" stop-color="#56B8CC"/>
<stop offset="0.680208" stop-color="#1693BA"/>
<stop offset="1" stop-color="#4595B3"/>
</linearGradient>
<linearGradient id="paint4_linear_278_2519" x1="54.873" y1="50.0782" x2="54.873" y2="72.9824" gradientUnits="userSpaceOnUse">
<stop stop-color="#92C7DE"/>
<stop offset="1" stop-color="#0185A3"/>
</linearGradient>
<linearGradient id="paint5_linear_278_2519" x1="54.2611" y1="53.4132" x2="55.313" y2="66.9188" gradientUnits="userSpaceOnUse">
<stop stop-color="#D9D9D9"/>
<stop offset="1" stop-color="#D9D9D9" stop-opacity="0"/>
</linearGradient>
<linearGradient id="paint6_linear_278_2519" x1="74.3664" y1="64.6999" x2="69.1653" y2="64.6999" gradientUnits="userSpaceOnUse">
<stop stop-color="#1A4969"/>
<stop offset="0.536458" stop-color="#2E6D93"/>
<stop offset="0.942708" stop-color="#2A5F82" stop-opacity="0.71"/>
</linearGradient>
<linearGradient id="paint7_linear_278_2519" x1="51.4075" y1="97.6137" x2="31.2332" y2="93.4563" gradientUnits="userSpaceOnUse">
<stop stop-color="#FF8C00"/>
<stop offset="1" stop-color="#FF8C00" stop-opacity="0"/>
</linearGradient>
<linearGradient id="paint8_linear_278_2519" x1="55.5459" y1="65.8753" x2="55.5459" y2="86.5454" gradientUnits="userSpaceOnUse">
<stop stop-color="#0C1430"/>
<stop offset="1" stop-color="#020920"/>
</linearGradient>
<linearGradient id="paint9_linear_278_2519" x1="53.9945" y1="12.1773" x2="53.9945" y2="64.4894" gradientUnits="userSpaceOnUse">
<stop stop-color="#B02B29"/>
<stop offset="0.466667" stop-color="#E07361"/>
<stop offset="0.971875" stop-color="#BA322A"/>
</linearGradient>
<linearGradient id="paint10_linear_278_2519" x1="54.0159" y1="12.7538" x2="54.0159" y2="64.6441" gradientUnits="userSpaceOnUse">
<stop stop-color="#D53F32"/>
<stop offset="0.432292" stop-color="#AC2D25"/>
<stop offset="1" stop-color="#6B1211"/>
</linearGradient>
<linearGradient id="paint11_linear_278_2519" x1="30.1595" y1="11.0981" x2="30.1595" y2="52.0448" gradientUnits="userSpaceOnUse">
<stop stop-color="#E23C2F"/>
<stop offset="1" stop-color="#B1322C"/>
</linearGradient>
<linearGradient id="paint12_linear_278_2519" x1="116.495" y1="56.939" x2="20.6451" y2="58.6715" gradientUnits="userSpaceOnUse">
<stop stop-color="#AB162A"/>
<stop offset="1" stop-color="#870416" stop-opacity="0.16"/>
</linearGradient>
<linearGradient id="paint13_linear_278_2519" x1="45.0224" y1="25.2345" x2="45.0224" y2="39.7897" gradientUnits="userSpaceOnUse">
<stop stop-color="#D8453A"/>
<stop offset="0.747917" stop-color="#8F1E20"/>
<stop offset="1" stop-color="#D44940"/>
</linearGradient>
<linearGradient id="paint14_linear_278_2519" x1="86.0598" y1="31.7195" x2="65.9451" y2="41.6779" gradientUnits="userSpaceOnUse">
<stop stop-color="#AF0009"/>
<stop offset="1" stop-color="#AF0009" stop-opacity="0"/>
</linearGradient>
<linearGradient id="paint15_linear_278_2519" x1="56.3732" y1="47.6797" x2="56.3732" y2="67.6334" gradientUnits="userSpaceOnUse">
<stop stop-color="#C54A41"/>
<stop offset="1" stop-color="#D25E51" stop-opacity="0.22"/>
</linearGradient>
<linearGradient id="paint16_linear_278_2519" x1="56.3732" y1="47.6797" x2="56.3732" y2="67.6334" gradientUnits="userSpaceOnUse">
<stop stop-color="#C54A41"/>
<stop offset="1" stop-color="#D25E51" stop-opacity="0.22"/>
</linearGradient>
<linearGradient id="paint17_linear_278_2519" x1="80.7948" y1="21.2716" x2="9.84299" y2="47.9754" gradientUnits="userSpaceOnUse">
<stop stop-color="#A62927"/>
<stop offset="0.315625" stop-color="#B82828"/>
<stop offset="0.607292" stop-color="#EF8672"/>
<stop offset="0.885417" stop-color="#B82828"/>
</linearGradient>
<linearGradient id="paint18_linear_278_2519" x1="82.2374" y1="24.6582" x2="82.2374" y2="57.5153" gradientUnits="userSpaceOnUse">
<stop stop-color="#590B0B"/>
<stop offset="1" stop-color="#E35840"/>
</linearGradient>
<linearGradient id="paint19_linear_278_2519" x1="41.1234" y1="36.0995" x2="41.1234" y2="37.7623" gradientUnits="userSpaceOnUse">
<stop stop-color="#D86758"/>
<stop offset="1" stop-color="#CD564B" stop-opacity="0"/>
</linearGradient>
<linearGradient id="paint20_linear_278_2519" x1="31.8919" y1="35.2349" x2="31.8919" y2="36.8977" gradientUnits="userSpaceOnUse">
<stop stop-color="#D86758"/>
<stop offset="1" stop-color="#CD564B" stop-opacity="0"/>
</linearGradient>
<linearGradient id="paint21_linear_278_2519" x1="24.0197" y1="33.5221" x2="24.0197" y2="35.1849" gradientUnits="userSpaceOnUse">
<stop stop-color="#992727"/>
<stop offset="1" stop-color="#B40009" stop-opacity="0"/>
</linearGradient>
<linearGradient id="paint22_linear_278_2519" x1="41.1234" y1="47.4845" x2="41.1234" y2="49.1473" gradientUnits="userSpaceOnUse">
<stop stop-color="#E23F27"/>
<stop offset="1" stop-color="#E8826E" stop-opacity="0.46"/>
</linearGradient>
<linearGradient id="paint23_linear_278_2519" x1="25.834" y1="61.0307" x2="25.834" y2="62.6935" gradientUnits="userSpaceOnUse">
<stop stop-color="#B22928"/>
<stop offset="1" stop-color="#AB2928" stop-opacity="0.03"/>
</linearGradient>
<linearGradient id="paint24_linear_278_2519" x1="28.2855" y1="58.5808" x2="28.2855" y2="60.2436" gradientUnits="userSpaceOnUse">
<stop stop-color="#B22928"/>
<stop offset="1" stop-color="#AB2928" stop-opacity="0.03"/>
</linearGradient>
<linearGradient id="paint25_linear_278_2519" x1="29.1513" y1="54.5458" x2="29.1513" y2="56.2086" gradientUnits="userSpaceOnUse">
<stop stop-color="#B22928"/>
<stop offset="1" stop-color="#AB2928" stop-opacity="0.03"/>
</linearGradient>
<linearGradient id="paint26_linear_278_2519" x1="36.5077" y1="46.3315" x2="36.5077" y2="47.9943" gradientUnits="userSpaceOnUse">
<stop stop-color="#891B1E"/>
<stop offset="1" stop-color="#961F20" stop-opacity="0.46"/>
</linearGradient>
<linearGradient id="paint27_linear_278_2519" x1="31.8919" y1="49.2138" x2="31.8919" y2="50.8766" gradientUnits="userSpaceOnUse">
<stop stop-color="#DE6654"/>
<stop offset="1" stop-color="#E8826E" stop-opacity="0.46"/>
</linearGradient>
<linearGradient id="paint28_linear_278_2519" x1="27.4204" y1="47.1962" x2="27.4204" y2="48.859" gradientUnits="userSpaceOnUse">
<stop stop-color="#DE6654"/>
<stop offset="1" stop-color="#E8826E" stop-opacity="0.46"/>
</linearGradient>
<linearGradient id="paint29_linear_278_2519" x1="22.2274" y1="49.2138" x2="22.2274" y2="50.8766" gradientUnits="userSpaceOnUse">
<stop stop-color="#891B1E"/>
<stop offset="1" stop-color="#961F20" stop-opacity="0.46"/>
</linearGradient>
<linearGradient id="paint30_linear_278_2519" x1="18.7656" y1="46.6198" x2="18.7656" y2="48.2826" gradientUnits="userSpaceOnUse">
<stop stop-color="#DE6654"/>
<stop offset="1" stop-color="#E8826E" stop-opacity="0.46"/>
</linearGradient>
<linearGradient id="paint31_linear_278_2519" x1="14.1496" y1="46.6198" x2="14.1496" y2="48.2826" gradientUnits="userSpaceOnUse">
<stop stop-color="#AD312E"/>
<stop offset="1" stop-color="#CD564B"/>
</linearGradient>
<linearGradient id="paint32_linear_278_2519" x1="47.4705" y1="33.938" x2="47.4705" y2="35.6008" gradientUnits="userSpaceOnUse">
<stop stop-color="#D86758"/>
<stop offset="1" stop-color="#CD564B" stop-opacity="0"/>
</linearGradient>
<linearGradient id="paint33_linear_278_2519" x1="36.3635" y1="33.5055" x2="36.3635" y2="35.1683" gradientUnits="userSpaceOnUse">
<stop stop-color="#D86758"/>
<stop offset="1" stop-color="#CD564B" stop-opacity="0"/>
</linearGradient>
<linearGradient id="paint34_linear_278_2519" x1="28.2855" y1="31.6322" x2="28.2855" y2="33.295" gradientUnits="userSpaceOnUse">
<stop stop-color="#D86758"/>
<stop offset="1" stop-color="#CD564B" stop-opacity="0"/>
</linearGradient>
<linearGradient id="paint35_linear_278_2519" x1="45.0181" y1="43.7375" x2="45.0181" y2="45.4003" gradientUnits="userSpaceOnUse">
<stop stop-color="#E23F27"/>
<stop offset="1" stop-color="#E8826E" stop-opacity="0.46"/>
</linearGradient>
<linearGradient id="paint36_linear_278_2519" x1="53.9606" y1="35.2349" x2="53.9606" y2="36.8977" gradientUnits="userSpaceOnUse">
<stop stop-color="#D86758"/>
<stop offset="1" stop-color="#CD564B" stop-opacity="0"/>
</linearGradient>
<linearGradient id="paint37_linear_278_2519" x1="69.9724" y1="39.5582" x2="69.9724" y2="41.221" gradientUnits="userSpaceOnUse">
<stop stop-color="#E5765B"/>
<stop offset="1" stop-color="#971E20"/>
</linearGradient>
<linearGradient id="paint38_linear_278_2519" x1="75.8866" y1="38.8377" x2="75.8866" y2="40.5005" gradientUnits="userSpaceOnUse">
<stop stop-color="#E5765B"/>
<stop offset="1" stop-color="#971E20"/>
</linearGradient>
<linearGradient id="paint39_linear_278_2519" x1="80.0694" y1="37.8289" x2="80.0694" y2="39.4917" gradientUnits="userSpaceOnUse">
<stop stop-color="#E5765B"/>
<stop offset="1" stop-color="#971E20"/>
</linearGradient>
<linearGradient id="paint40_linear_278_2519" x1="84.9743" y1="35.6673" x2="84.9743" y2="37.3301" gradientUnits="userSpaceOnUse">
<stop stop-color="#E5765B"/>
<stop offset="1" stop-color="#971E20"/>
</linearGradient>
<linearGradient id="paint41_linear_278_2519" x1="91.176" y1="35.6673" x2="91.176" y2="37.3301" gradientUnits="userSpaceOnUse">
<stop stop-color="#D05B4F"/>
<stop offset="1" stop-color="#E8978F" stop-opacity="0.35"/>
</linearGradient>
<linearGradient id="paint42_linear_278_2519" x1="90.3108" y1="40.4229" x2="90.3108" y2="42.0857" gradientUnits="userSpaceOnUse">
<stop stop-color="#D05B4F"/>
<stop offset="1" stop-color="#E8978F" stop-opacity="0.35"/>
</linearGradient>
<linearGradient id="paint43_linear_278_2519" x1="84.9743" y1="42.8728" x2="84.9743" y2="44.5356" gradientUnits="userSpaceOnUse">
<stop stop-color="#D05B4F"/>
<stop offset="1" stop-color="#E8978F" stop-opacity="0.35"/>
</linearGradient>
<linearGradient id="paint44_linear_278_2519" x1="83.0985" y1="47.4845" x2="83.0985" y2="49.1473" gradientUnits="userSpaceOnUse">
<stop stop-color="#D05B4F"/>
<stop offset="1" stop-color="#E8978F" stop-opacity="0.35"/>
</linearGradient>
<linearGradient id="paint45_linear_278_2519" x1="78.0498" y1="49.2138" x2="78.0498" y2="50.8766" gradientUnits="userSpaceOnUse">
<stop stop-color="#D05B4F"/>
<stop offset="1" stop-color="#E8978F" stop-opacity="0.35"/>
</linearGradient>
<linearGradient id="paint46_linear_278_2519" x1="75.0209" y1="52.9606" x2="75.0209" y2="54.6234" gradientUnits="userSpaceOnUse">
<stop stop-color="#D05B4F"/>
<stop offset="1" stop-color="#E8978F" stop-opacity="0.35"/>
</linearGradient>
<linearGradient id="paint47_linear_278_2519" x1="85.8391" y1="51.5195" x2="85.8391" y2="53.1823" gradientUnits="userSpaceOnUse">
<stop stop-color="#D45E50"/>
<stop offset="1" stop-color="#D25B4D" stop-opacity="0"/>
</linearGradient>
<linearGradient id="paint48_linear_278_2519" x1="86.7046" y1="54.6899" x2="86.7046" y2="56.3527" gradientUnits="userSpaceOnUse">
<stop stop-color="#D45E50"/>
<stop offset="1" stop-color="#D25B4D" stop-opacity="0"/>
</linearGradient>
<linearGradient id="paint49_linear_278_2519" x1="70.4049" y1="52.8164" x2="70.4049" y2="54.4792" gradientUnits="userSpaceOnUse">
<stop stop-color="#D05B4F"/>
<stop offset="1" stop-color="#E8978F" stop-opacity="0.35"/>
</linearGradient>
<linearGradient id="paint50_linear_278_2519" x1="50.2113" y1="44.6021" x2="50.2113" y2="46.2649" gradientUnits="userSpaceOnUse">
<stop stop-color="#E23F27"/>
<stop offset="1" stop-color="#E8826E" stop-opacity="0.46"/>
</linearGradient>
<linearGradient id="paint51_linear_278_2519" x1="75.8866" y1="23.9943" x2="75.8866" y2="25.6571" gradientUnits="userSpaceOnUse">
<stop stop-color="#DE6654"/>
<stop offset="1" stop-color="#E8826E" stop-opacity="0.46"/>
</linearGradient>
<linearGradient id="paint52_linear_278_2519" x1="69.1072" y1="29.9029" x2="69.1072" y2="31.5657" gradientUnits="userSpaceOnUse">
<stop stop-color="#891B1E"/>
<stop offset="1" stop-color="#961F20" stop-opacity="0.46"/>
</linearGradient>
<linearGradient id="paint53_linear_278_2519" x1="67.2316" y1="34.8026" x2="67.2316" y2="36.4655" gradientUnits="userSpaceOnUse">
<stop stop-color="#DE6654"/>
<stop offset="1" stop-color="#E8826E" stop-opacity="0.46"/>
</linearGradient>
<linearGradient id="paint54_linear_278_2519" x1="53.2403" y1="40.567" x2="53.2403" y2="42.2299" gradientUnits="userSpaceOnUse">
<stop stop-color="#891B1E"/>
<stop offset="1" stop-color="#961F20" stop-opacity="0.46"/>
</linearGradient>
<linearGradient id="paint55_linear_278_2519" x1="80.9351" y1="23.1296" x2="80.9351" y2="24.7924" gradientUnits="userSpaceOnUse">
<stop stop-color="#891B1E"/>
<stop offset="1" stop-color="#961F20" stop-opacity="0.46"/>
</linearGradient>
<linearGradient id="paint56_linear_278_2519" x1="74.4439" y1="28.8941" x2="74.4439" y2="30.5569" gradientUnits="userSpaceOnUse">
<stop stop-color="#891B1E"/>
<stop offset="1" stop-color="#961F20" stop-opacity="0.46"/>
</linearGradient>
<linearGradient id="paint57_linear_278_2519" x1="61.8949" y1="35.2349" x2="61.8949" y2="36.8977" gradientUnits="userSpaceOnUse">
<stop stop-color="#891B1E"/>
<stop offset="1" stop-color="#961F20" stop-opacity="0.46"/>
</linearGradient>
<linearGradient id="paint58_linear_278_2519" x1="59.154" y1="40.567" x2="59.154" y2="42.2299" gradientUnits="userSpaceOnUse">
<stop stop-color="#891B1E"/>
<stop offset="1" stop-color="#961F20" stop-opacity="0.46"/>
</linearGradient>
<linearGradient id="paint59_linear_278_2519" x1="55.2633" y1="86.0493" x2="55.2633" y2="89.0092" gradientUnits="userSpaceOnUse">
<stop stop-color="#8ECEDE"/>
<stop offset="1" stop-color="#8ECEDE" stop-opacity="0"/>
</linearGradient>
<linearGradient id="paint60_linear_278_2519" x1="46.7882" y1="76.5462" x2="38.4822" y2="76.8133" gradientUnits="userSpaceOnUse">
<stop stop-color="#054067"/>
<stop offset="1" stop-color="#0C1D34"/>
</linearGradient>
<linearGradient id="paint61_linear_278_2519" x1="64.4689" y1="72.8721" x2="68.726" y2="80.0025" gradientUnits="userSpaceOnUse">
<stop stop-color="#054067"/>
<stop offset="1" stop-color="#0C1D34"/>
</linearGradient>
<linearGradient id="paint62_linear_278_2519" x1="48.3305" y1="78.6094" x2="41.3433" y2="79.0799" gradientUnits="userSpaceOnUse">
<stop stop-color="#054067"/>
<stop offset="1" stop-color="#0C1D34"/>
</linearGradient>
<linearGradient id="paint63_linear_278_2519" x1="65.5271" y1="70.5238" x2="69.3229" y2="76.4035" gradientUnits="userSpaceOnUse">
<stop stop-color="#054067"/>
<stop offset="1" stop-color="#0C1D34"/>
</linearGradient>
<linearGradient id="paint64_linear_278_2519" x1="51.4711" y1="77.8416" x2="44.5503" y2="78.9111" gradientUnits="userSpaceOnUse">
<stop stop-color="#054067"/>
<stop offset="1" stop-color="#0C1D34"/>
</linearGradient>
<linearGradient id="paint65_linear_278_2519" x1="63.3311" y1="68.153" x2="67.6182" y2="73.6854" gradientUnits="userSpaceOnUse">
<stop stop-color="#054067"/>
<stop offset="1" stop-color="#0C1D34"/>
</linearGradient>
<linearGradient id="paint66_linear_278_2519" x1="52.288" y1="71.5396" x2="44.3881" y2="73.1446" gradientUnits="userSpaceOnUse">
<stop stop-color="#054067"/>
<stop offset="1" stop-color="#0C1D34"/>
</linearGradient>
<linearGradient id="paint67_linear_278_2519" x1="57.4192" y1="70.4969" x2="62.6487" y2="76.6264" gradientUnits="userSpaceOnUse">
<stop stop-color="#054067"/>
<stop offset="1" stop-color="#0C1D34"/>
</linearGradient>
<linearGradient id="paint68_linear_278_2519" x1="49.6106" y1="71.7817" x2="41.0881" y2="72.5171" gradientUnits="userSpaceOnUse">
<stop stop-color="#054067"/>
<stop offset="1" stop-color="#0C1D34"/>
</linearGradient>
<linearGradient id="paint69_linear_278_2519" x1="58.9299" y1="72.7182" x2="63.7009" y2="79.8118" gradientUnits="userSpaceOnUse">
<stop stop-color="#054067"/>
<stop offset="1" stop-color="#0C1D34"/>
</linearGradient>
<linearGradient id="paint70_linear_278_2519" x1="46.3562" y1="71.2142" x2="38.0502" y2="71.4813" gradientUnits="userSpaceOnUse">
<stop stop-color="#054067"/>
<stop offset="1" stop-color="#0C1D34"/>
</linearGradient>
<linearGradient id="paint71_linear_278_2519" x1="60.0121" y1="75.8371" x2="64.2692" y2="82.9676" gradientUnits="userSpaceOnUse">
<stop stop-color="#054067"/>
<stop offset="1" stop-color="#0C1D34"/>
</linearGradient>
<linearGradient id="paint72_linear_278_2519" x1="43.1787" y1="72.5839" x2="35.133" y2="73.0889" gradientUnits="userSpaceOnUse">
<stop stop-color="#054067"/>
<stop offset="1" stop-color="#0C1D34"/>
</linearGradient>
<linearGradient id="paint73_linear_278_2519" x1="42.8802" y1="56.2038" x2="41.5555" y2="57.4964" gradientUnits="userSpaceOnUse">
<stop stop-color="#054067"/>
<stop offset="1" stop-color="#0C1D34"/>
</linearGradient>
<linearGradient id="paint74_linear_278_2519" x1="61.4878" y1="54.1864" x2="60.1631" y2="55.479" gradientUnits="userSpaceOnUse">
<stop stop-color="#054067"/>
<stop offset="1" stop-color="#0C1D34"/>
</linearGradient>
<linearGradient id="paint75_linear_278_2519" x1="42.3032" y1="55.9155" x2="40.9785" y2="57.2081" gradientUnits="userSpaceOnUse">
<stop stop-color="#054067"/>
<stop offset="1" stop-color="#0C1D34"/>
</linearGradient>
<linearGradient id="paint76_linear_278_2519" x1="60.9107" y1="53.8981" x2="59.5861" y2="55.1907" gradientUnits="userSpaceOnUse">
<stop stop-color="#054067"/>
<stop offset="1" stop-color="#0C1D34"/>
</linearGradient>
<linearGradient id="paint77_linear_278_2519" x1="43.6014" y1="56.2038" x2="42.2767" y2="57.4964" gradientUnits="userSpaceOnUse">
<stop stop-color="#054067"/>
<stop offset="1" stop-color="#0C1D34"/>
</linearGradient>
<linearGradient id="paint78_linear_278_2519" x1="62.2091" y1="54.1864" x2="60.8844" y2="55.479" gradientUnits="userSpaceOnUse">
<stop stop-color="#054067"/>
<stop offset="1" stop-color="#0C1D34"/>
</linearGradient>
<linearGradient id="paint79_linear_278_2519" x1="44.4669" y1="55.9155" x2="43.1422" y2="57.2081" gradientUnits="userSpaceOnUse">
<stop stop-color="#054067"/>
<stop offset="1" stop-color="#0C1D34"/>
</linearGradient>
<linearGradient id="paint80_linear_278_2519" x1="63.0744" y1="53.8981" x2="61.7498" y2="55.1907" gradientUnits="userSpaceOnUse">
<stop stop-color="#054067"/>
<stop offset="1" stop-color="#0C1D34"/>
</linearGradient>
<linearGradient id="paint81_linear_278_2519" x1="45.7652" y1="55.3392" x2="44.4405" y2="56.6318" gradientUnits="userSpaceOnUse">
<stop stop-color="#054067"/>
<stop offset="1" stop-color="#0C1D34"/>
</linearGradient>
<linearGradient id="paint82_linear_278_2519" x1="64.3725" y1="53.3215" x2="63.0478" y2="54.6141" gradientUnits="userSpaceOnUse">
<stop stop-color="#054067"/>
<stop offset="1" stop-color="#0C1D34"/>
</linearGradient>
<linearGradient id="paint83_linear_278_2519" x1="46.3418" y1="55.3392" x2="45.0171" y2="56.6318" gradientUnits="userSpaceOnUse">
<stop stop-color="#054067"/>
<stop offset="1" stop-color="#0C1D34"/>
</linearGradient>
<linearGradient id="paint84_linear_278_2519" x1="64.9493" y1="53.3215" x2="63.6246" y2="54.6141" gradientUnits="userSpaceOnUse">
<stop stop-color="#054067"/>
<stop offset="1" stop-color="#0C1D34"/>
</linearGradient>
<linearGradient id="paint85_linear_278_2519" x1="47.063" y1="55.3392" x2="45.7383" y2="56.6318" gradientUnits="userSpaceOnUse">
<stop stop-color="#054067"/>
<stop offset="1" stop-color="#0C1D34"/>
</linearGradient>
<linearGradient id="paint86_linear_278_2519" x1="65.6705" y1="53.3215" x2="64.3458" y2="54.6141" gradientUnits="userSpaceOnUse">
<stop stop-color="#054067"/>
<stop offset="1" stop-color="#0C1D34"/>
</linearGradient>
<linearGradient id="paint87_linear_278_2519" x1="47.929" y1="55.6275" x2="46.6044" y2="56.9201" gradientUnits="userSpaceOnUse">
<stop stop-color="#054067"/>
<stop offset="1" stop-color="#0C1D34"/>
</linearGradient>
<linearGradient id="paint88_linear_278_2519" x1="66.3465" y1="53.8398" x2="65.1746" y2="54.9859" gradientUnits="userSpaceOnUse">
<stop stop-color="#054067"/>
<stop offset="1" stop-color="#0C1D34"/>
</linearGradient>
<linearGradient id="paint89_linear_278_2519" x1="48.7942" y1="55.9155" x2="47.4695" y2="57.2081" gradientUnits="userSpaceOnUse">
<stop stop-color="#054067"/>
<stop offset="1" stop-color="#0C1D34"/>
</linearGradient>
<linearGradient id="paint90_linear_278_2519" x1="66.849" y1="54.1876" x2="65.9191" y2="55.0135" gradientUnits="userSpaceOnUse">
<stop stop-color="#054067"/>
<stop offset="1" stop-color="#0C1D34"/>
</linearGradient>
<linearGradient id="paint91_linear_278_2519" x1="49.4191" y1="56.4054" x2="48.3265" y2="57.4453" gradientUnits="userSpaceOnUse">
<stop stop-color="#054067"/>
<stop offset="1" stop-color="#0C1D34"/>
</linearGradient>
<linearGradient id="paint92_linear_278_2519" x1="62.752" y1="77.9484" x2="67.0907" y2="84.7365" gradientUnits="userSpaceOnUse">
<stop stop-color="#054067"/>
<stop offset="1" stop-color="#0C1D34"/>
</linearGradient>
<linearGradient id="paint93_linear_278_2519" x1="44.6425" y1="75.0055" x2="36.1143" y2="75.6714" gradientUnits="userSpaceOnUse">
<stop stop-color="#054067"/>
<stop offset="1" stop-color="#0C1D34"/>
</linearGradient>
<linearGradient id="paint94_linear_278_2519" x1="64.1615" y1="75.4941" x2="68.8746" y2="82.6263" gradientUnits="userSpaceOnUse">
<stop stop-color="#054067"/>
<stop offset="1" stop-color="#0C1D34"/>
</linearGradient>
<linearGradient id="paint95_linear_278_2519" x1="52.3709" y1="84.3916" x2="52.3709" y2="105.478" gradientUnits="userSpaceOnUse">
<stop stop-color="#369CC0"/>
<stop offset="0.576042" stop-color="#1F759E"/>
<stop offset="1" stop-color="#2D7297"/>
</linearGradient>
<linearGradient id="paint96_linear_278_2519" x1="58.3116" y1="84.3916" x2="58.3116" y2="105.478" gradientUnits="userSpaceOnUse">
<stop stop-color="#369CC0"/>
<stop offset="0.576042" stop-color="#1F759E"/>
<stop offset="1" stop-color="#2D7297"/>
</linearGradient>
</defs>
</svg>
