<svg width="108" height="109" viewBox="0 0 108 109" fill="none" xmlns="http://www.w3.org/2000/svg">
<circle cx="54" cy="54.1885" r="54" fill="#FFDCB2"/>
<mask id="mask0_278_2345" style="mask-type:alpha" maskUnits="userSpaceOnUse" x="0" y="0" width="108" height="109">
<circle cx="54" cy="54.1885" r="54" fill="#FFDCB2"/>
</mask>
<g mask="url(#mask0_278_2345)">
<path d="M35.0859 80.0278L40.731 51.1742L45.1216 43.6879L60.1751 37.1374L70.054 48.2109L74.131 79.092L35.0859 80.0278Z" fill="url(#paint0_linear_278_2345)"/>
<path d="M69.1571 56.5837C69.9854 53.3891 69.0092 51.703 68.4176 51.2593L66.3471 56.8795C66.1006 57.8161 65.8738 59.5712 66.9387 59.0979C68.0035 58.6246 68.8613 57.2246 69.1571 56.5837Z" fill="url(#paint1_linear_278_2345)"/>
<path d="M67.1798 64.9421C66.5882 64.8238 66.4403 63.7097 66.4403 63.1674H67.9193C67.9193 63.8082 67.7714 65.0605 67.1798 64.9421Z" fill="url(#paint2_linear_278_2345)"/>
<path d="M64.9684 63.2364C65.0526 62.5696 65.8622 60.5824 66.3024 59.57L66.1545 57.9431L67.1898 56.1684C67.387 55.9712 67.8701 55.9317 68.2251 57.3515C68.5801 58.7714 67.88 59.4221 67.4856 59.57L68.6688 60.1616L69.2145 63.163C69.2408 63.3078 69.1572 63.4508 69.0137 63.4834C67.9496 63.7252 66.1265 63.5739 65.1504 63.4409C65.0401 63.4259 64.9545 63.3468 64.9684 63.2364Z" fill="url(#paint3_linear_278_2345)"/>
<path d="M41.8993 65.3382C41.3077 65.2198 41.1598 64.1057 41.1598 63.5634H42.6388C42.6388 64.2043 42.4909 65.4565 41.8993 65.3382Z" fill="url(#paint4_linear_278_2345)"/>
<path d="M39.8257 63.5322C39.9099 62.8654 40.7195 60.8783 41.1597 59.8658L41.0118 58.2389L42.0471 56.4642C42.2443 56.267 42.7274 56.2275 43.0824 57.6474C43.4374 59.0672 42.7373 59.7179 42.3429 59.8658L43.5261 60.4574L44.0718 63.4588C44.0981 63.6036 44.0145 63.7466 43.871 63.7792C42.8069 64.021 40.9838 63.8697 40.0077 63.7367C39.8974 63.7217 39.8118 63.6426 39.8257 63.5322Z" fill="url(#paint5_linear_278_2345)"/>
<path d="M46.2998 72.3297C47.7863 70.9848 48.034 67.0374 47.9721 65.2319L55.5899 67.2865L61.3497 63.7376C61.2011 66.4273 62.1548 69.9637 62.6503 71.3957C66.3663 74.8326 71.1352 75.1937 73.0551 74.9447L71.1971 83.1632L65.8089 90.8213L54.6609 92.6892L46.6714 91.1949L41.2832 83.1632L40.7258 76.0654C41.9645 75.3805 44.8134 73.6745 46.2998 72.3297Z" fill="url(#paint6_linear_278_2345)"/>
<path d="M59.2118 67.8005C57.7876 68.8662 55.9717 69.7898 55.0994 69.9707C48.5196 69.2473 43.1361 60.8679 41.2668 56.7687L40.7061 52.4283L41.2668 47.0028L47.0616 40.4922L54.3517 35.0668L61.268 38.6838L66.6888 46.4603C67.0004 48.0879 67.6235 51.8496 67.6235 53.8751C67.6235 56.407 64.8481 61.8392 64.2588 62.7367C64.0346 63.0782 61.4595 66.1185 59.2118 67.8005Z" fill="url(#paint7_linear_278_2345)"/>
<path d="M58.5315 53.1975C59.1773 54.5979 60.9459 56.474 62.8537 52.7755" stroke="#08102A" stroke-width="0.411427" stroke-linecap="round"/>
<path d="M46.3262 53.1105C46.8438 54.8962 48.4559 57.3963 50.7631 53.1105" stroke="#08102A" stroke-width="0.411427" stroke-linecap="round"/>
<path d="M54.3612 55.8617C54.4805 56.6659 54.2896 58.3708 54.0033 58.7568C53.6453 59.2394 52.2134 61.1695 54.7192 61.1695" stroke="#08102A" stroke-width="0.400873" stroke-linecap="round"/>
<path d="M51.3415 64.1112C51.3435 64.4053 51.4329 64.6959 51.6046 64.9665C51.7762 65.2371 52.0268 65.4823 52.342 65.6881C52.6572 65.8939 53.0308 66.0563 53.4415 66.1661C53.8522 66.2758 54.292 66.3307 54.7357 66.3277C55.1794 66.3246 55.6184 66.2637 56.0275 66.1483C56.4367 66.0329 56.808 65.8654 57.1204 65.6552C57.4327 65.4451 57.6799 65.1965 57.8478 64.9236C58.0157 64.6507 58.1011 64.3589 58.0991 64.0647C58.0991 64.0647 56.0853 64.7209 54.7357 64.7209C53.3861 64.7209 51.3415 64.1112 51.3415 64.1112Z" fill="white"/>
<path d="M44.2556 51.1529C46.1406 50.9745 50.2585 50.9388 51.6505 52.223C51.0705 50.707 48.7795 48.3705 44.2556 51.1529Z" fill="#08102A"/>
<path d="M57.8622 52.223C58.6313 51.5001 61.2461 50.364 65.5529 51.6033C63.6729 50.1575 59.5029 48.2573 57.8622 52.223Z" fill="#08102A"/>
<path d="M35.6969 77.2944L29.1699 81.5068C29.1699 77.5977 35.418 55.3902 38.542 44.7751C39.8251 40.619 44.0313 31.8012 50.5918 29.7792C58.7923 27.2518 64.1478 30.1162 68.8338 35.845C72.5826 40.428 77.8711 65.3875 80.0468 77.2944L73.3524 76.6204L69.8379 54.8848L64.1478 37.6984L51.0938 33.3176L40.885 49.9985L35.6969 77.2944Z" fill="url(#paint8_linear_278_2345)"/>
<path d="M44.217 65.1444C44.0684 66.0341 41.802 67.3688 40.6874 67.9248C44.7743 64.7737 41.802 65.1444 39.2013 63.2907C37.1207 61.8078 39.2013 59.5834 40.3159 57.1737C38.2353 37.1544 49.9759 32.5203 56.1062 32.7057C68.144 33.7437 69.7912 44.8779 69.11 50.3152C67.9954 52.5396 67.0294 56.0615 69.11 57.5445C71.1906 59.0274 70.7819 60.6956 70.0389 61.2517C69.11 61.6224 67.3267 62.1415 69.11 63.4761C70.8934 64.8107 70.2246 66.2566 69.6673 66.8127C69.8531 65.1444 67.6239 64.959 66.5093 63.2907C65.3947 61.6225 68.5527 59.3981 68.5527 58.6566C68.5527 58.2859 67.0666 57.1737 67.0666 56.2469C67.0666 55.3201 66.1377 48.2762 62.9797 46.7933C60.4532 45.607 57.3447 41.7267 56.1062 39.9349C55.8585 40.9853 53.8027 43.8275 47.5609 46.7933C41.319 49.7592 41.7997 56.6145 42.4808 59.7657C40.9947 61.0632 40.5017 62.3021 41.059 62.92C41.802 63.6614 44.3657 64.2546 44.217 65.1444Z" fill="#08102A"/>
<circle cx="55.2" cy="47.7861" r="1.18318" fill="url(#paint9_linear_278_2345)"/>
<path d="M41.9272 47.5488C41.5267 49.2074 38.9793 68.1665 37.7557 77.4388L35.0859 77.9571C36.0203 61.7854 40.4009 44.6645 42.9594 38.2719C49.2333 28.1819 59.6698 30.6745 63.6188 33.0357C71.4946 39.6702 73.9085 64.5959 74.131 76.2294L69.6258 75.02C70.2932 70.1823 67.7903 50.8315 67.1229 41.8473C66.1217 38.6221 62.4175 32.0682 54.2747 33.0357C44.0963 34.2452 42.4277 45.4755 41.9272 47.5488Z" fill="url(#paint10_linear_278_2345)"/>
<path d="M37.5894 107.889C38.8393 106.484 39.799 101.493 39.2782 99.4445L72.3313 100.651C72.3313 103.787 72.8138 105.717 73.2964 107.647C62.6716 112.564 44.0996 109.937 37.5894 107.889Z" fill="url(#paint11_linear_278_2345)"/>
<path d="M24.236 83.3342C24.472 83.5784 29.8423 79.1635 32.498 76.9256C35.0946 79.1228 36.758 83.2325 37.3482 85.7756C35.381 87.505 31.5274 89.3641 26.3342 93.0262C19.8426 97.6038 18.3672 89.6693 17.187 88.7537C16.0067 87.8382 9.18738 66.8548 8.89231 64.1083C8.65625 61.911 7.8104 61.7686 7.41697 61.9721C2.69586 64.7186 1.51558 62.5824 -2.02527 61.3617C-5.56612 60.141 -2.32034 58.6151 -2.02527 59.2255C-1.78921 59.7138 1.61393 60.2427 3.286 60.4462C3.08929 60.0393 2.51882 58.9814 1.81065 58.0048C0.92544 56.7841 2.69586 53.7324 3.87614 53.7324C5.05643 53.7324 3.58107 55.2582 3.58107 56.1737C3.58107 56.9062 5.54821 58.1065 6.53178 58.6151C8.59727 58.9203 8.30215 58.31 7.41697 56.1737C6.5318 54.0375 3.28599 53.122 6.23669 53.122C9.1874 53.122 8.30219 57.0893 11.2529 57.0893C13.6135 57.0893 15.1872 59.3272 15.6789 60.4462C18.4329 67.9738 23.9999 83.0901 24.236 83.3342Z" fill="url(#paint12_linear_278_2345)"/>
<path d="M34.6942 88.3464C33.7292 87.1401 29.7116 82.9514 27.9388 80.3847C27.9388 79.6283 30.6062 77.2895 33.7292 76.042C37.7274 74.4448 42.6268 73.8641 45.281 72.423C55.2087 79.8149 62.2211 75.503 64.4863 72.423C74.414 74.1478 81.4253 74.7505 82.7057 78.0358L75.4186 93.0588L72.7594 95.5843V103.787L39.0762 102.247C39.0762 102.247 39.5195 99.2033 39.0762 97.997C38.633 96.7906 37.3481 95.1018 37.1069 92.4479C36.8656 89.794 37.8306 85.4513 37.8306 85.4513C36.1563 86.7859 35.6593 88.3464 34.6942 88.3464Z" fill="url(#paint13_linear_278_2345)"/>
<path d="M39.0759 102.212C39.3125 101.858 39.2731 100.881 39.2238 100.438C40.407 100.674 62.0986 101.818 72.7966 102.36C72.9149 103.425 72.8459 103.79 72.7966 103.839C69.0991 103.396 38.7801 102.656 39.0759 102.212Z" fill="#FEA435"/>
<path d="M88.298 83.0128C88.1004 83.2544 83.6046 78.8865 81.3814 76.6724C79.2075 78.8462 76.9269 82.1397 76.4329 84.6558C78.0797 86.3667 83.2093 92.9765 87.557 96.5996C92.9915 101.128 94.2267 93.2784 95.2148 92.3726C96.2029 91.4668 100.896 66.7088 101.143 63.9914C101.341 61.8175 102.049 61.6766 102.378 61.8779C106.331 64.5953 107.319 62.4818 110.283 61.2741C113.248 60.0663 110.53 58.5567 110.283 59.1606C110.086 59.6436 107.237 60.167 105.837 60.3683C106.001 59.9657 106.479 58.919 107.072 57.9529C107.813 56.7451 106.331 53.7259 105.343 53.7259C104.355 53.7259 105.59 55.2355 105.59 56.1413C105.59 56.8659 103.943 58.0535 103.12 58.5567C101.39 58.8586 101.637 58.2548 102.378 56.1413C103.12 54.0278 105.837 53.122 103.367 53.122C100.896 53.122 101.637 57.0471 99.1671 57.0471C97.1909 57.0471 95.8735 59.2612 95.4618 60.3683C93.1562 67.8158 88.4957 82.7713 88.298 83.0128Z" fill="url(#paint14_linear_278_2345)"/>
<path d="M57.8556 90.759C49.2222 98.1483 45.798 102.575 41.2084 108.222C44.7238 108.706 58.2975 114.474 64.6449 117.298C64.3519 105.802 83.0675 83.8536 83.6535 79.6183C84.1222 76.2301 75.0601 73.388 70.16 73.388C69.7694 76.9174 62.264 86.9858 57.8556 90.759Z" fill="url(#paint15_linear_278_2345)"/>
<path d="M101.193 64.4984C98.9449 64.0251 96.3123 61.7377 95.2771 60.6531C94.6855 61.2447 94.6362 62.1814 94.6855 62.5757C95.632 64.2322 99.221 65.7309 100.897 66.2732C101.341 65.6816 101.292 64.9421 101.193 64.4984Z" fill="#FE9C25"/>
<path d="M8.90474 64.3506C11.1528 63.8773 14.5249 61.3926 15.5601 60.0616C16.1517 60.6531 16.3489 61.4419 16.2996 61.8363C15.3531 63.4928 10.8767 65.731 9.20053 66.2733C8.75685 65.6817 8.80614 64.7943 8.90474 64.3506Z" fill="#FE9C25"/>
<path d="M100.749 67.0129C98.3828 66.2734 95.5728 64.4986 94.3896 63.3154C93.798 63.907 93.911 64.6958 93.9603 65.0902C94.9069 66.7467 98.7772 68.2454 100.453 68.7876C100.897 68.1961 100.848 67.4566 100.749 67.0129Z" fill="#FE9C25"/>
<path d="M9.34836 67.0128C11.7147 66.2733 15.4122 63.9069 16.5954 62.7238C17.039 63.3153 17.2362 63.9562 17.1869 64.3506C16.2404 66.0071 11.4682 68.2453 9.79205 68.7876C9.34837 68.196 9.24976 67.4565 9.34836 67.0128Z" fill="#FE9C25"/>
<path d="M58.8941 93.6344C53.5698 97.4206 46.2242 105.269 43.2169 108.72L41.1464 108.276C45.1692 102.242 55.1474 92.9442 59.6336 89.0495C66.7327 81.8321 69.592 75.5908 70.1343 73.3724C70.9626 73.1357 72.4514 73.471 73.0923 73.6682C73.0923 74.2598 65.5495 88.9016 58.8941 93.6344Z" fill="url(#paint16_linear_278_2345)"/>
<path d="M69.8386 102.36C65.6975 108.158 64.7608 114.833 64.8101 117.446L63.0353 116.411C61.2605 114.34 63.9227 105.318 72.205 93.7823C78.8308 84.5535 81.769 78.8939 82.4099 77.2178C85.3679 78.8446 81.6704 83.7253 79.7477 86.3874C78.2096 88.5172 72.5007 97.9235 69.8386 102.36Z" fill="url(#paint17_linear_278_2345)"/>
<circle cx="43.3649" cy="106.945" r="0.591591" fill="#E72775"/>
<circle cx="45.7312" cy="104.283" r="0.591591" fill="#E72775"/>
<circle cx="48.6892" cy="101.325" r="0.591591" fill="#E72775"/>
<circle cx="51.6471" cy="98.663" r="0.591591" fill="#E72775"/>
<circle cx="54.3094" cy="96.0007" r="0.591591" fill="#E72775"/>
<circle cx="57.2673" cy="93.3387" r="0.591591" fill="#E72775"/>
<circle cx="60.2253" cy="90.6764" r="0.591591" fill="#E72775"/>
<circle cx="62.8874" cy="88.0144" r="0.591591" fill="#E72775"/>
<circle cx="65.2537" cy="84.7604" r="0.591591" fill="#E72775"/>
<circle cx="67.3243" cy="81.8025" r="0.591591" fill="#E72775"/>
<circle cx="69.3949" cy="78.5489" r="0.591591" fill="#E72775"/>
<circle cx="71.1696" cy="74.9992" r="0.591591" fill="#E72775"/>
<circle cx="65.2537" cy="107.833" r="0.591591" fill="#E72775"/>
<circle cx="67.3243" cy="104.283" r="0.591591" fill="#E72775"/>
<circle cx="69.0992" cy="100.733" r="0.591591" fill="#E72775"/>
<circle cx="71.1696" cy="97.4799" r="0.591591" fill="#E72775"/>
<circle cx="73.536" cy="93.9302" r="0.591591" fill="#E72775"/>
<circle cx="75.9024" cy="90.3806" r="0.591591" fill="#E72775"/>
<circle cx="77.9729" cy="87.4227" r="0.591591" fill="#E72775"/>
<circle cx="80.0435" cy="84.1689" r="0.591591" fill="#E72775"/>
<circle cx="82.1141" cy="80.3236" r="0.591591" fill="#E72775"/>
<path d="M62.7395 93.4865C67.354 89.9369 73.1417 79.0911 75.4588 74.1119C75.8137 73.8752 78.1702 74.9499 79.3041 75.4429C79.5506 76.9219 77.4702 82.8674 67.1765 94.8175C54.3094 109.755 55.9362 114.044 55.7883 113.601C55.67 113.246 49.9217 111.086 47.0624 110.051C48.6893 106.206 56.9715 97.9234 62.7395 93.4865Z" fill="url(#paint18_linear_278_2345)"/>
<path d="M36.1178 87.1269C32.3317 83.9323 29.9061 80.1757 29.1667 78.6967C28.2201 79.2883 27.8849 80.0278 27.8356 80.3236C28.1905 81.2701 32.4204 86.0423 34.491 88.31C35.6742 88.4284 36.0685 87.5706 36.1178 87.1269Z" fill="#FE9C25"/>
<path d="M43.217 73.2245C44.2819 72.8696 45.0411 72.485 45.2876 72.3371C50.1387 75.7684 54.2108 76.429 55.6405 76.3304C60.2549 76.922 63.3804 73.9147 64.3664 72.3371L65.9933 72.6329C64.3664 75.7388 61.7043 77.5136 55.6405 78.253C50.7894 78.8446 45.3369 75.1472 43.217 73.2245Z" fill="#FFA130"/>
</g>
<defs>
<linearGradient id="paint0_linear_278_2345" x1="53.822" y1="38.1706" x2="53.822" y2="72.9959" gradientUnits="userSpaceOnUse">
<stop stop-color="#EE3453"/>
<stop offset="0.763542" stop-color="#F14E69"/>
<stop offset="1" stop-color="#ED677D"/>
</linearGradient>
<linearGradient id="paint1_linear_278_2345" x1="67.8088" y1="51.2593" x2="67.8088" y2="59.1774" gradientUnits="userSpaceOnUse">
<stop stop-color="#2C7590"/>
<stop offset="0.617708" stop-color="#4CA7BD"/>
<stop offset="1" stop-color="#3996B5"/>
</linearGradient>
<linearGradient id="paint2_linear_278_2345" x1="67.1798" y1="63.1674" x2="67.1798" y2="64.95" gradientUnits="userSpaceOnUse">
<stop stop-color="#F9BB71"/>
<stop offset="1" stop-color="#FE9311"/>
<stop offset="1" stop-color="#FE9311"/>
</linearGradient>
<linearGradient id="paint3_linear_278_2345" x1="67.1108" y1="56.0683" x2="67.1108" y2="63.6113" gradientUnits="userSpaceOnUse">
<stop stop-color="#FE9311"/>
<stop offset="1" stop-color="#FFA73B"/>
</linearGradient>
<linearGradient id="paint4_linear_278_2345" x1="41.8993" y1="63.5634" x2="41.8993" y2="65.346" gradientUnits="userSpaceOnUse">
<stop stop-color="#F9BB71"/>
<stop offset="1" stop-color="#FE9311"/>
<stop offset="1" stop-color="#FE9311"/>
</linearGradient>
<linearGradient id="paint5_linear_278_2345" x1="41.9681" y1="56.3641" x2="41.9681" y2="63.9072" gradientUnits="userSpaceOnUse">
<stop stop-color="#FE9311"/>
<stop offset="1" stop-color="#FFA73B"/>
</linearGradient>
<linearGradient id="paint6_linear_278_2345" x1="56.8905" y1="63.7376" x2="56.8905" y2="92.6892" gradientUnits="userSpaceOnUse">
<stop stop-color="#2C7590"/>
<stop offset="0.617708" stop-color="#4CA7BD"/>
<stop offset="1" stop-color="#3996B5"/>
</linearGradient>
<linearGradient id="paint7_linear_278_2345" x1="54.1648" y1="35.0668" x2="54.1648" y2="69.9707" gradientUnits="userSpaceOnUse">
<stop stop-color="#2C7590"/>
<stop offset="0.617708" stop-color="#4CA7BD"/>
<stop offset="1" stop-color="#3996B5"/>
</linearGradient>
<linearGradient id="paint8_linear_278_2345" x1="53.5835" y1="30.1235" x2="53.5835" y2="72.8746" gradientUnits="userSpaceOnUse">
<stop stop-color="#EE7C8F"/>
<stop offset="0.763542" stop-color="#EF7C8F"/>
<stop offset="1" stop-color="#EF7C8F"/>
</linearGradient>
<linearGradient id="paint9_linear_278_2345" x1="55.2" y1="46.0113" x2="55.2" y2="49.413" gradientUnits="userSpaceOnUse">
<stop stop-color="#FE0002"/>
<stop offset="1" stop-color="#FF8182"/>
<stop offset="1" stop-color="#FE0002"/>
</linearGradient>
<linearGradient id="paint10_linear_278_2345" x1="54.6411" y1="31.0435" x2="54.6411" y2="77.3533" gradientUnits="userSpaceOnUse">
<stop stop-color="#A61ED8"/>
<stop offset="1" stop-color="#CD63F4"/>
</linearGradient>
<linearGradient id="paint11_linear_278_2345" x1="55.6841" y1="99.4445" x2="55.6841" y2="110.06" gradientUnits="userSpaceOnUse">
<stop stop-color="#3E90A9"/>
<stop offset="0.779167" stop-color="#449BB3"/>
<stop offset="1" stop-color="#3A829D"/>
</linearGradient>
<linearGradient id="paint12_linear_278_2345" x1="16.8408" y1="53.122" x2="16.8408" y2="98.4795" gradientUnits="userSpaceOnUse">
<stop stop-color="#2C7590"/>
<stop offset="0.305208" stop-color="#3786A0"/>
<stop offset="0.648958" stop-color="#53B3C8"/>
<stop offset="1" stop-color="#3D99B5"/>
</linearGradient>
<linearGradient id="paint13_linear_278_2345" x1="55.9178" y1="72.423" x2="55.9178" y2="101.375" gradientUnits="userSpaceOnUse">
<stop stop-color="#AF1D5E"/>
<stop offset="0.503125" stop-color="#EA2776"/>
<stop offset="1" stop-color="#AC1E58"/>
</linearGradient>
<linearGradient id="paint14_linear_278_2345" x1="94.0451" y1="53.122" x2="94.0451" y2="97.997" gradientUnits="userSpaceOnUse">
<stop stop-color="#2C7590"/>
<stop offset="0.305208" stop-color="#3786A0"/>
<stop offset="0.648958" stop-color="#53B3C8"/>
<stop offset="1" stop-color="#3D99B5"/>
</linearGradient>
<linearGradient id="paint15_linear_278_2345" x1="60.8464" y1="74.0382" x2="60.8464" y2="117.298" gradientUnits="userSpaceOnUse">
<stop stop-color="#FE991E"/>
<stop offset="1" stop-color="#FEA539"/>
</linearGradient>
<linearGradient id="paint16_linear_278_2345" x1="54.453" y1="95.783" x2="40.0216" y2="115.121" gradientUnits="userSpaceOnUse">
<stop stop-color="#FFB254"/>
<stop offset="1" stop-color="#FFB254" stop-opacity="0"/>
</linearGradient>
<linearGradient id="paint17_linear_278_2345" x1="71.261" y1="102.757" x2="54.7035" y2="115.604" gradientUnits="userSpaceOnUse">
<stop stop-color="#FFB254"/>
<stop offset="1" stop-color="#FFB254" stop-opacity="0"/>
</linearGradient>
<linearGradient id="paint18_linear_278_2345" x1="60.5001" y1="99.1884" x2="44.0001" y2="119.188" gradientUnits="userSpaceOnUse">
<stop stop-color="#FFB254"/>
<stop offset="1" stop-color="#FFB254" stop-opacity="0"/>
</linearGradient>
</defs>
</svg>
