<svg width="420" height="220" viewBox="0 0 420 220" fill="none" xmlns="http://www.w3.org/2000/svg">
<g filter="url(#filter0_d_22_1258)">
<path d="M95.4035 50.0225C117.931 88.9332 160.255 82.7325 178.601 74.7683L169.214 98.6608C129.28 111.29 101.946 73.4883 93.2703 53.009L95.4035 50.0225Z" fill="#141123"/>
<path d="M152.398 3.09021C163.655 22.5328 184.803 19.4345 193.97 15.455L189.28 27.3935C169.325 33.7038 155.667 14.8155 151.333 4.58252L152.398 3.09021Z" fill="#1C0F35"/>
<path d="M323.236 48.3157C300.708 87.2264 258.384 81.0257 240.038 73.0615L249.425 96.9541C289.359 109.583 316.694 71.7816 325.369 51.3022L323.236 48.3157Z" fill="#141123"/>
<path d="M266.24 3.51721C254.984 22.9598 233.836 19.8615 224.669 15.882L229.359 27.8205C249.313 34.1308 262.971 15.2425 267.306 5.00952L266.24 3.51721Z" fill="#1C0F35"/>
<path d="M289.469 73.8993C274.442 72.0897 275.984 77.4236 278.634 80.3168L276.747 81.0005C273.743 79.386 274.272 76.2444 275.296 74.0556C277.2 69.9862 283.745 69.3934 286.616 69.9534C288.912 70.4014 296.124 70.8346 299.443 70.9951C322.646 68.2759 320.726 59.5454 318.516 55.9002C316.747 52.9841 318.201 51.9237 319.149 51.758C330.078 65.2264 308.252 76.1613 289.469 73.8993Z" fill="#089858"/>
<path d="M129.267 73.8993C144.294 72.0897 142.752 77.4236 140.102 80.3168L141.989 81.0005C144.993 79.386 144.464 76.2444 143.44 74.0556C141.536 69.9862 134.991 69.3934 132.12 69.9534C129.824 70.4014 122.612 70.8346 119.293 70.9951C96.0898 68.2759 98.0095 59.5454 100.22 55.9002C101.988 52.9841 100.535 51.9237 99.5872 51.758C88.6581 65.2264 110.483 76.1613 129.267 73.8993Z" fill="#089858"/>
<path d="M120.149 163.768C151.209 146.381 170.636 89.4156 176.467 63.1063H244.731C250.562 89.4156 269.989 146.381 301.05 163.768L246.865 195.511H221.266H199.933H174.334L120.149 163.768Z" fill="#1C0F35"/>
<path d="M225.057 41.4895C243.75 60.4961 268.454 32.0449 280.973 11.5937C282.994 8.29227 283.935 4.47411 283.935 0.603302C279.157 8.45371 265.162 28.9033 250.443 40.6362C236.363 48.9559 225.697 38.2896 225.057 32.5298C225.057 27.41 228.328 25.8456 229.963 25.7034C234.227 26.386 231.74 29.9699 229.963 31.6765C233.888 32.7005 234.585 29.2588 234.443 27.41C231.201 21.6075 226.266 25.5612 224.204 28.2633C224.545 17.6823 232.452 16.6015 236.363 17.3836C238.71 16.7437 244.896 23.3568 241.696 26.5567C239.136 29.1166 240.061 30.1832 240.843 30.3965C244.427 30.9085 245.039 25.9167 244.896 23.3568C240.971 14.9944 233.59 14.6104 230.391 15.4637C215.372 23.3141 220.578 36.0852 225.057 41.4895Z" fill="#241344"/>
<path d="M196.093 41.4892C177.557 60.3362 153.11 32.519 140.495 12.1102C138.252 8.48122 137.215 4.26637 137.215 7.59268e-05C141.993 7.85048 155.988 28.9029 170.707 40.6359C184.787 48.9556 195.453 38.2893 196.093 32.5295C196.093 27.4096 192.822 25.8452 191.186 25.703C186.923 26.3857 189.41 29.9696 191.186 31.6762C187.262 32.7001 186.565 29.2585 186.707 27.4096C189.949 21.6072 194.884 25.5608 196.946 28.2629C196.605 17.682 188.698 16.6011 184.787 17.3833C182.44 16.7433 176.254 23.3564 179.454 26.5563C182.013 29.1162 181.089 30.1829 180.307 30.3962C176.723 30.9082 176.111 25.9164 176.254 23.3564C180.179 14.9941 187.56 14.6101 190.759 15.4634C205.778 23.3138 200.572 36.0849 196.093 41.4892Z" fill="#241344"/>
<path d="M211.333 67.3603C206.793 67.9794 201.186 64.0067 198.95 61.9429L200.498 57.2994C202.149 61.427 208.409 65.7265 211.333 67.3603Z" fill="white"/>
<path d="M210.044 67.3603C214.584 67.9794 220.191 64.0067 222.426 61.9429L220.878 57.2994C219.227 61.427 212.967 65.7265 210.044 67.3603Z" fill="white"/>
<path d="M210.817 94.9636C205.038 74.9451 185.879 76.4757 177.022 79.7433L182.698 107.088H239.193L243.321 79.7433C223.715 72.3138 213.482 86.7945 210.817 94.9636Z" fill="#08AC70"/>
<path d="M210.817 94.9636C205.038 74.9451 185.879 76.4757 177.022 79.7433L182.698 107.088H239.193L243.321 79.7433C223.715 72.3138 213.482 86.7945 210.817 94.9636Z" fill="black" fill-opacity="0.2"/>
<path d="M210.817 94.9636C205.038 74.9451 185.879 76.4757 177.022 79.7433L182.698 107.088H239.193L243.321 79.7433C223.715 72.3138 213.482 86.7945 210.817 94.9636Z" fill="black" fill-opacity="0.2"/>
<path d="M210.817 94.9636C205.038 74.9451 185.879 76.4757 177.022 79.7433L182.698 107.088H239.193L243.321 79.7433C223.715 72.3138 213.482 86.7945 210.817 94.9636Z" stroke="black"/>
<circle cx="179.881" cy="93.9677" r="14.5062" fill="#059A64"/>
<circle cx="239.185" cy="93.9677" r="14.5062" fill="#059A64"/>
<mask id="mask0_22_1258" style="mask-type:alpha" maskUnits="userSpaceOnUse" x="177" y="77" width="67" height="31">
<path d="M210.817 94.9636C205.038 74.9451 185.879 76.4757 177.022 79.7433L182.698 107.088H239.193L243.321 79.7433C223.715 72.3138 213.482 86.7945 210.817 94.9636Z" fill="#08AC70"/>
</mask>
<g mask="url(#mask0_22_1258)">
<path d="M238.451 106.021L229.215 76.9362" stroke="#B5E88E" stroke-width="0.469365"/>
<path d="M183.464 106.021L192.7 76.9362" stroke="#B5E88E" stroke-width="0.469365"/>
<path d="M238.534 106.357L237.14 75.8732" stroke="#B5E88E" stroke-width="0.469365"/>
<path d="M183.382 106.357L184.776 75.8732" stroke="#B5E88E" stroke-width="0.469365"/>
<path d="M238.229 106.113L221.781 80.4099" stroke="#B5E88E" stroke-width="0.469365"/>
<path d="M183.686 106.113L200.135 80.4099" stroke="#B5E88E" stroke-width="0.469365"/>
<path d="M237.444 105.456L213.686 86.1039" stroke="#B5E88E" stroke-width="0.469365"/>
<path d="M184.471 105.456L208.229 86.1039" stroke="#B5E88E" stroke-width="0.469365"/>
</g>
<path d="M157.417 80.2586C164.021 92.022 158.105 98.2305 154.321 99.8643C139.462 106.262 116.829 103.906 107.37 101.928C107.783 144.648 133.339 162.551 146.066 166.163C147.7 159.971 151.741 145.68 154.837 138.044C157.932 130.408 175.56 111.989 183.987 103.734C188.321 93.2087 181.322 83.0103 177.28 79.2267C174.099 76.475 167.529 69.6818 166.703 64.5224C165.672 58.0732 167.477 51.8819 174.959 49.8181C182.44 47.7543 187.599 53.4297 191.985 58.8471C195.493 63.181 197.574 62.8886 198.176 62.2007C199.724 61.9427 202.561 56.5253 199.466 49.8181C196.37 43.1109 177.797 31.5022 162.318 35.6297C146.84 39.7573 149.162 65.5543 157.417 80.2586Z" fill="#E88128"/>
<path d="M263.958 80.2586C257.354 92.022 263.27 98.2305 267.054 99.8643C281.912 106.262 304.545 103.906 314.004 101.928C313.592 144.648 288.035 162.551 275.309 166.163C273.675 159.971 269.634 145.68 266.538 138.044C263.442 130.408 245.814 111.989 237.387 103.734C233.053 93.2087 240.053 83.0103 244.095 79.2267C247.276 76.475 253.846 69.6818 254.671 64.5224C255.703 58.0732 253.897 51.8819 246.416 49.8181C238.935 47.7543 233.776 53.4297 229.39 58.8471C225.882 63.181 223.801 62.8886 223.199 62.2007C221.651 61.9427 218.813 56.5253 221.909 49.8181C225.005 43.1109 243.578 31.5022 259.056 35.6297C274.535 39.7573 272.213 65.5543 263.958 80.2586Z" fill="#E88128"/>
<mask id="mask1_22_1258" style="mask-type:alpha" maskUnits="userSpaceOnUse" x="220" y="34" width="95" height="133">
<path d="M263.958 80.2586C257.354 92.022 263.27 98.2305 267.054 99.8643C281.913 106.262 304.546 103.906 314.005 101.928C313.592 144.648 288.036 162.551 275.309 166.163C273.675 159.971 269.634 145.68 266.538 138.044C263.443 130.408 245.815 111.989 237.388 103.734C233.054 93.2087 240.053 83.0103 244.095 79.2267C247.276 76.475 253.846 69.6818 254.672 64.5224C255.703 58.0732 253.898 51.8819 246.416 49.8181C238.935 47.7543 233.776 53.4297 229.39 58.8471C225.882 63.181 223.801 62.8886 223.199 62.2007C221.651 61.9427 218.814 56.5253 221.909 49.8181C225.005 43.1109 243.578 31.5022 259.057 35.6297C274.535 39.7573 272.213 65.5543 263.958 80.2586Z" fill="#E88128"/>
</mask>
<g mask="url(#mask1_22_1258)">
<path d="M269.264 126.18C263.461 113.551 244.802 103.425 236.198 99.9404V106.98L273.744 171.831L286.117 164.152C286.287 158.861 283.059 147.868 281.423 143.032C289.274 142.179 289.53 132.864 288.676 128.313C291.45 130.802 297.722 135.011 300.623 131.939C303.524 128.867 302.543 122.695 301.689 119.993C305.273 123.918 312.711 125.753 315.982 126.18L320.249 112.74C304.818 110.749 269.648 106.17 267.771 108.9C265.893 111.631 267.771 120.846 269.264 126.18Z" fill="#A44C00"/>
</g>
<mask id="mask2_22_1258" style="mask-type:alpha" maskUnits="userSpaceOnUse" x="107" y="34" width="94" height="133">
<path d="M157.417 80.2586C164.021 92.022 158.105 98.2305 154.321 99.8643C139.462 106.262 116.829 103.906 107.37 101.928C107.783 144.648 133.339 162.551 146.066 166.163C147.7 159.971 151.741 145.68 154.837 138.044C157.932 130.408 175.56 111.989 183.987 103.734C188.321 93.2087 181.322 83.0103 177.28 79.2267C174.099 76.475 167.529 69.6818 166.703 64.5224C165.672 58.0732 167.477 51.8819 174.959 49.8181C182.44 47.7543 187.599 53.4297 191.985 58.8471C195.493 63.181 197.574 62.8886 198.176 62.2007C199.724 61.9427 202.561 56.5253 199.466 49.8181C196.37 43.1109 177.797 31.5022 162.318 35.6297C146.84 39.7573 149.162 65.5543 157.417 80.2586Z" fill="#E88128"/>
</mask>
<g mask="url(#mask2_22_1258)">
<path d="M153.641 126.18C159.443 113.551 178.102 103.425 186.706 99.9404V106.98L149.161 171.831L136.788 164.152C136.617 158.861 139.846 147.868 141.481 143.032C133.631 142.179 133.375 132.864 134.228 128.313C131.455 130.802 125.183 135.011 122.282 131.939C119.381 128.867 120.362 122.695 121.215 119.993C117.631 123.918 110.193 125.753 106.922 126.18L102.656 112.74C118.086 110.749 151.763 105.743 153.641 108.473C155.518 111.204 154.707 121.06 153.641 126.18Z" fill="#A44C00"/>
</g>
<path d="M210.048 98.0592C168.479 98.0592 144.984 136.972 144.984 165.481L166.672 178.386L210.306 183.39L251.617 178.386L275.113 165.481V163.637C275.113 135.129 251.617 98.0592 210.048 98.0592Z" fill="#241344"/>
<path d="M210.048 98.0592C168.479 98.0592 144.984 136.972 144.984 165.481L166.672 178.386L210.306 183.39L251.617 178.386L275.113 165.481V163.637C275.113 135.129 251.617 98.0592 210.048 98.0592Z" stroke="black"/>
<circle cx="196.628" cy="54.7203" r="2.5797" fill="black"/>
<circle cx="196.628" cy="54.7203" r="2.5797" stroke="black"/>
<circle cx="2.5797" cy="2.5797" r="2.5797" transform="matrix(-1 0 0 1 227.328 52.1406)" fill="black"/>
<circle cx="2.5797" cy="2.5797" r="2.5797" transform="matrix(-1 0 0 1 227.328 52.1406)" stroke="black"/>
<path d="M126.202 87.115C132.187 84.4321 138.499 97.3478 140.906 104.141L137.295 104.657C136.865 104.657 134.044 103.264 126.202 97.6917C118.36 92.1195 122.935 88.3188 126.202 87.115Z" fill="#089858"/>
<mask id="mask3_22_1258" style="mask-type:alpha" maskUnits="userSpaceOnUse" x="121" y="86" width="20" height="19">
<path d="M126.275 87.3276C132.26 84.6447 138.572 97.5604 140.979 104.354L137.368 104.87C136.938 104.87 134.117 103.476 126.275 97.9043C118.433 92.3322 123.007 88.5315 126.275 87.3276Z" fill="#089858"/>
</mask>
<g mask="url(#mask3_22_1258)">
<path d="M140.774 106.387L124.268 88.1317" stroke="#8EB96D" stroke-width="0.31566"/>
<path d="M130.479 95.0084L129.216 87.697" stroke="#8EB96D" stroke-width="0.31566"/>
<path d="M133.612 98.3391L132.738 89.5093" stroke="#8EB96D" stroke-width="0.31566"/>
<path d="M136.104 101.266L136.09 91.8134" stroke="#8EB96D" stroke-width="0.31566"/>
<path d="M138.453 103.974L138.723 94.6026" stroke="#8EB96D" stroke-width="0.31566"/>
<path d="M138.411 103.648L129.914 104.514" stroke="#8EB96D" stroke-width="0.31566"/>
<path d="M135.313 100.287L126.816 101.153" stroke="#8EB96D" stroke-width="0.31566"/>
<path d="M132.888 97.5914L125.309 98.3023" stroke="#8EB96D" stroke-width="0.31566"/>
<path d="M128.956 93.4046L124.431 93.6417" stroke="#8EB96D" stroke-width="0.31566"/>
</g>
<path d="M154.063 97.0275C153.547 94.7058 153.547 89.3916 157.674 86.7087C159.05 88.6865 160.254 93.5191 154.063 97.0275Z" fill="#16C898"/>
<path d="M183.178 67.9205C181.387 66.3549 178.241 62.0722 179.979 57.4663C182.259 58.2457 186.09 61.4278 183.178 67.9205Z" fill="#16C898"/>
<path d="M239.575 67.9205C241.365 66.3549 244.512 62.0722 242.774 57.4663C240.494 58.2457 236.663 61.4278 239.575 67.9205Z" fill="#16C898"/>
<path d="M267.314 97.0275C267.829 94.7058 267.829 89.3916 263.702 86.7087C262.326 88.6865 261.123 93.5191 267.314 97.0275Z" fill="#16C898"/>
<path d="M124.278 98.6116C122.849 99.6064 117.947 98.6116 116.915 94.9629C118.415 94.3344 122.837 94.0287 124.278 98.6116Z" fill="#16C898"/>
<path d="M181.436 72.0584C180.006 73.0531 175.105 72.0584 174.073 68.4097C175.573 67.7812 179.995 67.4755 181.436 72.0584Z" fill="#16C898"/>
<path d="M241.317 72.0584C242.746 73.0531 247.648 72.0584 248.679 68.4097C247.179 67.7812 242.757 67.4755 241.317 72.0584Z" fill="#16C898"/>
<path d="M297.097 98.6116C298.526 99.6064 303.428 98.6116 304.46 94.9629C302.96 94.3344 298.538 94.0287 297.097 98.6116Z" fill="#16C898"/>
<path d="M295.172 87.115C289.187 84.4321 282.876 97.3478 280.468 104.141L284.08 104.657C284.51 104.657 287.33 103.264 295.172 97.6917C303.015 92.1195 298.44 88.3188 295.172 87.115Z" fill="#089858"/>
<mask id="mask4_22_1258" style="mask-type:alpha" maskUnits="userSpaceOnUse" x="107" y="34" width="94" height="133">
<path d="M157.417 80.2586C164.021 92.022 158.105 98.2305 154.321 99.8643C139.462 106.262 116.829 103.906 107.37 101.928C107.783 144.648 133.339 162.551 146.066 166.163C147.7 159.971 151.741 145.68 154.837 138.044C157.932 130.408 175.56 111.989 183.987 103.734C188.321 93.2087 181.322 83.0103 177.28 79.2267C174.099 76.475 167.529 69.6818 166.703 64.5224C165.672 58.0732 167.477 51.8819 174.959 49.8181C182.44 47.7543 187.599 53.4297 191.985 58.8471C195.493 63.181 197.574 62.8886 198.176 62.2007C199.724 61.9427 202.561 56.5253 199.466 49.8181C196.37 43.1109 177.797 31.5022 162.318 35.6297C146.84 39.7573 149.162 65.5543 157.417 80.2586Z" fill="#E88128"/>
</mask>
<g mask="url(#mask4_22_1258)">
<path d="M173.41 75.3573L157.674 81.2906L159.222 91.3514C159.91 92.4693 161.699 94.3439 163.35 92.8993C165.001 91.4546 164.038 86.622 163.35 84.3862C164.897 87.2239 168.251 92.4865 169.283 90.8355C170.315 89.1845 167.993 84.1283 166.703 81.8066C168.767 84.2143 173.153 88.7201 174.184 87.4819C175.216 86.2436 172.723 81.9785 171.347 80.0008C178.157 87.0175 180.892 85.8481 181.408 84.3862L179.602 79.4848L173.41 75.3573Z" fill="#C75924"/>
<path d="M166.445 60.137C163.969 61.788 155.638 62.6022 151.596 62.8602L149.677 65.0384L152.257 66.3282H166.961L167.477 62.4587L166.445 60.137Z" fill="#C75924"/>
<path d="M170.315 51.8823L154.321 41.5635C150.606 46.1037 150.709 51.0224 151.225 52.9142C152.051 52.9142 154.665 48.4427 155.869 46.2069C154.321 49.5605 154.321 55.2359 155.869 55.7518C157.107 56.1646 158.449 52.6562 158.964 50.8504C157.933 54.7715 159.394 56.2678 160.254 56.5257C162.834 57.2996 164.084 51.1889 164.124 50.8504C163.505 55.597 165.758 57.6436 166.962 58.0736L170.315 51.8823Z" fill="#C75924"/>
<path d="M154.062 99.6069C144.775 102.29 119.064 102.273 107.369 101.929C105.907 107.26 102.985 117.149 107.885 119.471C116.141 123.082 122.589 116.547 124.395 113.537C122.847 118.267 120.68 128.035 124.395 129.273C130.38 130.718 135.66 123.684 137.552 119.987C134.714 127.21 135.746 135.981 138.841 135.207C152.256 129.841 154.578 109.238 154.062 99.6069Z" fill="#C75924"/>
</g>
<mask id="mask5_22_1258" style="mask-type:alpha" maskUnits="userSpaceOnUse" x="280" y="86" width="20" height="19">
<path d="M294.936 87.115C288.951 84.4321 282.64 97.3478 280.232 104.141L283.844 104.657C284.274 104.657 287.094 103.264 294.936 97.6917C302.779 92.1195 298.204 88.3188 294.936 87.115Z" fill="#089858"/>
</mask>
<g mask="url(#mask5_22_1258)">
<path d="M280.437 106.174L296.943 87.9193" stroke="#8EB96D" stroke-width="0.31566"/>
<path d="M290.732 94.7958L291.995 87.4845" stroke="#8EB96D" stroke-width="0.31566"/>
<path d="M287.6 98.1265L288.474 89.2967" stroke="#8EB96D" stroke-width="0.31566"/>
<path d="M285.106 101.053L285.121 91.6011" stroke="#8EB96D" stroke-width="0.31566"/>
<path d="M282.757 103.762L282.488 94.3898" stroke="#8EB96D" stroke-width="0.31566"/>
<path d="M282.799 103.435L291.297 104.302" stroke="#8EB96D" stroke-width="0.31566"/>
<path d="M285.898 100.074L294.396 100.94" stroke="#8EB96D" stroke-width="0.31566"/>
<path d="M288.323 97.379L295.902 98.0899" stroke="#8EB96D" stroke-width="0.31566"/>
<path d="M292.256 93.1921L296.781 93.4292" stroke="#8EB96D" stroke-width="0.31566"/>
</g>
<path d="M133.683 80.2593C133.683 81.2566 133.106 82.0651 132.393 82.0651C131.681 82.0651 131.104 81.2566 131.104 80.2593C131.104 79.262 131.681 78.4535 132.393 78.4535C133.106 78.4535 133.683 79.262 133.683 80.2593Z" fill="#09AFB6"/>
<path d="M133.683 80.2593C133.683 81.2566 133.106 82.0651 132.393 82.0651C131.681 82.0651 131.104 81.2566 131.104 80.2593C131.104 79.262 131.681 78.4535 132.393 78.4535C133.106 78.4535 133.683 79.262 133.683 80.2593Z" stroke="black"/>
<path d="M287.692 80.2593C287.692 81.2566 288.269 82.0651 288.981 82.0651C289.694 82.0651 290.271 81.2566 290.271 80.2593C290.271 79.262 289.694 78.4535 288.981 78.4535C288.269 78.4535 287.692 79.262 287.692 80.2593Z" fill="#09AFB6"/>
<path d="M287.692 80.2593C287.692 81.2566 288.269 82.0651 288.981 82.0651C289.694 82.0651 290.271 81.2566 290.271 80.2593C290.271 79.262 289.694 78.4535 288.981 78.4535C288.269 78.4535 287.692 79.262 287.692 80.2593Z" stroke="black"/>
<circle cx="139.874" cy="73.8095" r="1.54782" fill="#09AFB6"/>
<circle cx="139.874" cy="73.8095" r="1.54782" stroke="black"/>
<circle cx="1.54782" cy="1.54782" r="1.54782" transform="matrix(-1 0 0 1 284.946 72.2086)" fill="#09AFB6"/>
<circle cx="1.54782" cy="1.54782" r="1.54782" transform="matrix(-1 0 0 1 284.946 72.2086)" stroke="black"/>
<path d="M133.426 110.957C129.9 114.139 123.52 121.379 126.203 124.887C128.886 128.396 132.136 117.062 133.426 110.957Z" fill="#F35F47"/>
<mask id="mask6_22_1258" style="mask-type:alpha" maskUnits="userSpaceOnUse" x="220" y="34" width="95" height="133">
<path d="M263.958 80.2586C257.354 92.022 263.27 98.2305 267.054 99.8643C281.913 106.262 304.546 103.906 314.005 101.928C313.592 144.648 288.036 162.551 275.309 166.163C273.675 159.971 269.634 145.68 266.538 138.044C263.443 130.408 245.815 111.989 237.388 103.734C233.054 93.2087 240.053 83.0103 244.095 79.2267C247.276 76.475 253.846 69.6818 254.672 64.5224C255.703 58.0732 253.898 51.8819 246.416 49.8181C238.935 47.7543 233.776 53.4297 229.39 58.8471C225.882 63.181 223.801 62.8886 223.199 62.2007C221.651 61.9427 218.814 56.5253 221.909 49.8181C225.005 43.1109 243.578 31.5022 259.057 35.6297C274.535 39.7573 272.213 65.5543 263.958 80.2586Z" fill="#E88128"/>
</mask>
<g mask="url(#mask6_22_1258)">
<path d="M267.313 99.6069C276.6 102.29 302.311 102.273 314.006 101.929C315.468 107.26 318.39 117.149 313.49 119.471C305.234 123.082 298.785 116.547 296.98 113.537C298.528 118.267 300.694 128.035 296.98 129.273C290.995 130.718 285.715 123.684 283.823 119.987C286.661 127.21 285.629 135.981 282.533 135.207C269.119 129.841 266.797 109.238 267.313 99.6069Z" fill="#C75924"/>
<path d="M254.93 60.137C257.407 61.788 266.109 62.7167 270.15 62.9746L271.698 65.0384L269.119 66.3282H254.414L253.898 62.4587L254.93 60.137Z" fill="#C75924"/>
<path d="M251.06 51.8822L267.054 41.5634C270.769 46.1036 270.666 51.0223 270.15 52.914C269.324 52.914 266.71 48.4426 265.506 46.2068C267.054 49.5604 267.054 55.2358 265.506 55.7517C264.268 56.1645 262.927 52.6561 262.411 50.8503C263.443 54.7714 261.981 56.2676 261.121 56.5256C258.541 57.2995 257.291 51.1888 257.251 50.8503C257.871 55.5969 255.618 57.6435 254.414 58.0734L251.06 51.8822Z" fill="#C75924"/>
<path d="M247.965 75.3572L263.701 81.2905L262.153 91.3513C261.465 92.4692 259.676 94.3438 258.025 92.8991C256.374 91.4545 257.337 86.6219 258.025 84.3861C256.478 87.2238 253.124 92.4864 252.092 90.8354C251.06 89.1844 253.382 84.1282 254.672 81.8064C252.608 84.2141 248.222 88.72 247.191 87.4818C246.159 86.2435 248.652 81.9784 250.028 80.0006C243.218 87.0174 240.483 85.848 239.967 84.3861L241.773 79.4847L247.965 75.3572Z" fill="#C75924"/>
</g>
<path d="M287.949 110.957C291.474 114.139 297.855 121.379 295.172 124.887C292.489 128.396 289.239 117.062 287.949 110.957Z" fill="#F35F47"/>
<path d="M145.582 112.868C142.813 116.726 136.457 127.178 140.648 128.242C144.929 129.328 145.62 119.108 145.582 112.868Z" fill="#F35F47"/>
<path d="M275.794 112.868C278.562 116.726 284.919 127.178 280.728 128.242C276.447 129.328 275.756 119.108 275.794 112.868Z" fill="#F35F47"/>
<path d="M120.862 105.267C117.442 108.114 109.344 115.922 113.462 117.128C117.668 118.361 119.943 110.255 120.862 105.267Z" fill="#F35F47"/>
<path d="M300.514 105.267C303.935 108.114 312.033 115.922 307.915 117.128C303.709 118.361 301.434 110.255 300.514 105.267Z" fill="#F35F47"/>
<path d="M126.863 110.454C126.513 111.234 125.702 111.63 125.052 111.338C124.403 111.046 124.159 110.178 124.51 109.398C124.86 108.618 125.67 108.222 126.32 108.514C126.97 108.806 127.213 109.674 126.863 110.454Z" fill="#F5E994"/>
<path d="M126.863 110.454C126.513 111.234 125.702 111.63 125.052 111.338C124.403 111.046 124.159 110.178 124.51 109.398C124.86 108.618 125.67 108.222 126.32 108.514C126.97 108.806 127.213 109.674 126.863 110.454Z" stroke="black"/>
<path d="M294.513 110.454C294.863 111.234 295.674 111.63 296.323 111.338C296.973 111.046 297.216 110.178 296.866 109.398C296.516 108.618 295.706 108.222 295.056 108.514C294.406 108.806 294.163 109.674 294.513 110.454Z" fill="#F5E994"/>
<path d="M294.513 110.454C294.863 111.234 295.674 111.63 296.323 111.338C296.973 111.046 297.216 110.178 296.866 109.398C296.516 108.618 295.706 108.222 295.056 108.514C294.406 108.806 294.163 109.674 294.513 110.454Z" stroke="black"/>
<path d="M139.824 115.961C139.586 116.782 138.838 117.286 138.154 117.087C137.47 116.889 137.109 116.062 137.347 115.241C137.585 114.421 138.333 113.916 139.017 114.115C139.701 114.313 140.063 115.14 139.824 115.961Z" fill="#F5E994"/>
<path d="M139.824 115.961C139.586 116.782 138.838 117.286 138.154 117.087C137.47 116.889 137.109 116.062 137.347 115.241C137.585 114.421 138.333 113.916 139.017 114.115C139.701 114.313 140.063 115.14 139.824 115.961Z" stroke="black"/>
<path d="M281.552 115.961C281.79 116.782 282.538 117.286 283.222 117.087C283.906 116.889 284.268 116.062 284.029 115.241C283.791 114.421 283.043 113.916 282.359 114.115C281.675 114.313 281.314 115.14 281.552 115.961Z" fill="#F5E994"/>
<path d="M281.552 115.961C281.79 116.782 282.538 117.286 283.222 117.087C283.906 116.889 284.268 116.062 284.029 115.241C283.791 114.421 283.043 113.916 282.359 114.115C281.675 114.313 281.314 115.14 281.552 115.961Z" stroke="black"/>
<path d="M143.228 79.227C133.735 78.6078 141.164 92.2115 146.066 99.0907C151.638 95.7887 155.611 85.1603 155.353 82.8385C155.095 80.5168 153.908 79.5365 151.225 78.711C148.542 77.8855 146.496 83.0105 145.808 85.6762C146.427 80.7232 144.346 79.3129 143.228 79.227Z" fill="#089C58"/>
<path d="M278.147 79.227C287.64 78.6078 280.211 92.2115 275.309 99.0907C269.737 95.7887 265.764 85.1603 266.022 82.8385C266.28 80.5168 267.467 79.5365 270.15 78.711C272.833 77.8855 274.879 83.0105 275.567 85.6762C274.948 80.7232 277.029 79.3129 278.147 79.227Z" fill="#089C58"/>
<mask id="mask7_22_1258" style="mask-type:alpha" maskUnits="userSpaceOnUse" x="266" y="78" width="17" height="22">
<path d="M278.147 79.2266C287.64 78.6075 280.211 92.2111 275.309 99.0903C269.737 95.7883 265.764 85.1599 266.022 82.8382C266.28 80.5164 267.467 79.5361 270.15 78.7106C272.833 77.8851 274.879 83.0101 275.567 85.6758C274.948 80.7228 277.029 79.3126 278.147 79.2266Z" fill="#089C58"/>
</mask>
<g mask="url(#mask7_22_1258)">
<path d="M274.181 71.6065L275.018 108.192" stroke="#8EB96D" stroke-width="0.469365"/>
<path d="M274.709 94.416L269.026 103.872" stroke="#8EB96D" stroke-width="0.469365"/>
<path d="M274.421 87.6237L266.823 98.4099" stroke="#8EB96D" stroke-width="0.469365"/>
<path d="M274.459 81.907L265.29 92.5594" stroke="#8EB96D" stroke-width="0.469365"/>
<path d="M274.448 76.5763L265.037 86.8617" stroke="#8EB96D" stroke-width="0.469365"/>
<path d="M274.179 76.9843L284.584 84.2675" stroke="#8EB96D" stroke-width="0.469365"/>
<path d="M274.398 83.7781L284.803 91.0613" stroke="#8EB96D" stroke-width="0.469365"/>
<path d="M274.509 89.168L283.729 95.7329" stroke="#8EB96D" stroke-width="0.469365"/>
<path d="M274.866 97.7022L280.189 101.832" stroke="#8EB96D" stroke-width="0.469365"/>
</g>
<mask id="mask8_22_1258" style="mask-type:alpha" maskUnits="userSpaceOnUse" x="138" y="78" width="18" height="22">
<path d="M143.166 79.2266C133.673 78.6075 141.102 92.2111 146.004 99.0903C151.576 95.7883 155.549 85.1599 155.291 82.8382C155.033 80.5164 153.846 79.5361 151.163 78.7106C148.48 77.8851 146.434 83.0101 145.746 85.6758C146.365 80.7228 144.284 79.3126 143.166 79.2266Z" fill="#089C58"/>
</mask>
<g mask="url(#mask8_22_1258)">
<path d="M147.132 71.6064L146.296 108.192" stroke="#8EB96D" stroke-width="0.469365"/>
<path d="M146.605 94.416L152.288 103.872" stroke="#8EB96D" stroke-width="0.469365"/>
<path d="M146.893 87.6238L154.491 98.41" stroke="#8EB96D" stroke-width="0.469365"/>
<path d="M146.855 81.907L156.024 92.5594" stroke="#8EB96D" stroke-width="0.469365"/>
<path d="M146.866 76.5764L156.277 86.8618" stroke="#8EB96D" stroke-width="0.469365"/>
<path d="M147.136 76.9844L136.73 84.2676" stroke="#8EB96D" stroke-width="0.469365"/>
<path d="M146.916 83.7783L136.51 91.0614" stroke="#8EB96D" stroke-width="0.469365"/>
<path d="M146.805 89.168L137.585 95.7329" stroke="#8EB96D" stroke-width="0.469365"/>
<path d="M146.447 97.7022L141.125 101.832" stroke="#8EB96D" stroke-width="0.469365"/>
</g>
<path d="M316.364 36.4636C316.534 37.6578 315.853 39.0794 315.853 40.0461L322.506 50.9643L325.918 48.9172L329.159 46.6994C329.159 46.6994 326.94 45.8464 326.43 45.5052C325.919 45.1641 325.918 44.311 326.43 43.9699C326.941 43.6287 331.546 40.2167 332.059 39.5343C332.572 38.852 334.276 30.1515 333.254 29.6397C332.231 29.1279 329.159 35.6106 329.159 35.6106C329.159 35.6106 331.035 27.7631 329.671 27.4219C328.307 27.0807 325.406 33.9046 325.406 33.9046C325.406 33.9046 325.406 27.4219 323.529 27.7631C322.336 28.1043 321.994 34.587 321.994 34.587C321.994 34.587 320.801 27.7631 319.265 28.1043C317.728 28.4455 318.241 34.587 318.241 34.587C318.241 34.587 316.876 29.4691 315.682 30.1515C314.488 30.8339 316.364 36.4636 316.364 36.4636Z" fill="#C36428"/>
<path d="M335.128 55.7412C334.991 54.7859 332.682 52.6136 331.545 51.6469L332.739 49.9409C335.469 51.0327 335.469 54.2627 335.128 55.7412Z" fill="black"/>
<path d="M333.081 52.5005C331.375 51.9887 327.622 51.6475 326.257 54.377C325.063 56.1967 321.242 59.7338 315.51 59.3244C315.51 59.3244 309.027 58.8126 307.321 60.6891C305.615 62.0539 303.738 66.3188 303.738 66.3188C303.738 66.3188 301.521 71.9486 299.815 71.778C298.109 71.6074 300.497 66.8306 300.497 66.8306C299.985 67.2856 298.825 68.4001 298.279 69.219C297.704 70.0827 296.277 71.6754 295.128 71.2291C294.693 71.0599 294.685 70.4924 294.925 70.0915C295.732 68.7429 297.505 65.7406 297.768 64.9541C298.109 63.9305 303.056 57.1066 304.421 56.083C306.468 54.2064 306.98 52.5005 306.98 51.9887C306.98 51.4769 306.468 51.1357 305.956 51.4769C305.444 51.8181 303.056 54.377 300.668 54.2064C298.279 54.0358 299.474 51.8181 299.815 51.4769C300.106 51.1858 301.887 49.7769 302.404 49.3696C301.541 49.8107 296.955 51.0057 295.72 49.7709C294.356 48.4061 300.497 44.9942 300.497 44.9942C300.497 44.9942 292.991 46.5296 291.967 44.9942C290.944 43.4588 297.085 41.5822 297.085 41.5822C297.085 41.5822 291.455 41.5822 291.455 40.0469C291.455 38.5115 298.109 38.1703 298.109 38.1703C298.109 38.1703 284.29 35.2701 288.044 32.37C290.09 31.8582 299.815 33.9053 299.815 33.9053C304.16 34.9638 313.253 37.3539 315.546 38.6055C315.638 38.6559 315.731 38.6959 315.833 38.7215C316.744 38.9507 318.489 39.2808 319.262 39.0231C319.547 38.9662 320.115 39.1255 320.115 40.2173C320.115 41.5821 321.821 50.6237 324.38 49.0883C326.01 48.1104 327.315 47.1397 328.038 46.555C328.324 46.3238 328.679 46.1796 329.043 46.2312C330.421 46.4266 332.593 47.3367 333.422 49.9413C333.65 50.6238 333.9 52.0912 333.081 52.5005Z" fill="#DE8D21"/>
<ellipse cx="330.694" cy="49.7699" rx="1.02358" ry="0.852986" fill="black"/>
<mask id="mask9_22_1258" style="mask-type:alpha" maskUnits="userSpaceOnUse" x="287" y="32" width="47" height="40">
<path d="M333.081 52.3992C331.375 51.8874 327.622 51.5462 326.257 54.2757C325.063 56.0954 321.242 59.6325 315.51 59.223C315.51 59.223 309.027 58.7112 307.321 60.5878C305.615 61.9526 303.738 66.2175 303.738 66.2175C303.738 66.2175 301.521 71.8472 299.815 71.6766C298.109 71.506 300.497 66.7293 300.497 66.7293C299.985 67.1842 298.825 68.2988 298.279 69.1177C297.704 69.9814 296.277 71.5741 295.128 71.1278C294.693 70.9586 294.685 70.3911 294.925 69.9902C295.732 68.6416 297.505 65.6392 297.768 64.8527C298.109 63.8292 303.056 57.0053 304.421 55.9817C306.468 54.1051 306.98 52.3991 306.98 51.8874C306.98 51.3756 306.468 51.0344 305.956 51.3756C305.444 51.7168 303.056 54.2757 300.668 54.1051C298.279 53.9345 299.474 51.7168 299.815 51.3756C300.106 51.0844 301.887 49.6756 302.404 49.2683C301.541 49.7093 296.955 50.9044 295.72 49.6696C294.356 48.3048 300.497 44.8929 300.497 44.8929C300.497 44.8929 292.991 46.4282 291.967 44.8929C290.944 43.3575 297.085 41.4809 297.085 41.4809C297.085 41.4809 291.455 41.4809 291.455 39.9455C291.455 38.4102 298.109 38.069 298.109 38.069C298.109 38.069 284.29 35.1688 288.044 32.2687C290.09 31.7569 299.815 33.804 299.815 33.804C304.16 34.8624 313.253 37.2526 315.546 38.5042C315.638 38.5546 315.731 38.5945 315.833 38.6202C316.744 38.8493 318.489 39.1794 319.262 38.9218C319.547 38.8649 320.115 39.0241 320.115 40.116C320.115 41.4807 321.821 50.5224 324.38 48.987C326.01 48.0091 327.315 47.0384 328.038 46.4537C328.324 46.2224 328.679 46.0783 329.043 46.1299C330.421 46.3253 332.593 47.2353 333.422 49.84C333.65 50.5225 333.9 51.9899 333.081 52.3992Z" fill="#DE8D21"/>
</mask>
<g mask="url(#mask9_22_1258)">
<path d="M309.708 57.9581C307.661 58.9135 307.149 60.972 307.149 61.8819L316.02 62.9055L327.109 55.5698C326.37 54.9442 324.936 54.8222 322.844 55.5698C318.067 57.2767 312.267 56.7639 309.708 57.9581Z" fill="#C36428"/>
</g>
<path d="M298.622 36.3555C296.615 36.3868 291.551 36.095 292.605 34.4724C293.682 32.8148 296.842 34.9194 298.622 36.3555Z" fill="#D81828"/>
<path d="M299.517 40.1689C297.63 39.4854 293.289 38.0549 293.215 39.9884C293.147 41.7447 297.366 40.9465 299.517 40.1689Z" fill="#D81828"/>
<path d="M299.767 43.4635C297.774 43.2338 293.22 42.8435 293.593 44.7421C293.933 46.4666 297.854 44.7165 299.767 43.4635Z" fill="#D81828"/>
<path d="M303.041 46.3819C301.051 46.6429 296.539 47.369 297.362 49.1202C298.109 50.7109 301.488 48.0618 303.041 46.3819Z" fill="#D81828"/>
<path d="M306.302 48.5145C304.433 49.2455 300.227 51.0337 301.447 52.5362C302.554 53.9009 305.199 50.5179 306.302 48.5145Z" fill="#D81828"/>
<path d="M300.157 38.815C300.608 38.8976 301.029 38.6599 301.098 38.284C301.167 37.9081 300.857 37.5365 300.406 37.4539C299.955 37.3713 299.534 37.609 299.465 37.9849C299.396 38.3607 299.706 38.7324 300.157 38.815Z" fill="#F5E994"/>
<path d="M300.157 38.815C300.608 38.8976 301.029 38.6599 301.098 38.284C301.167 37.9081 300.857 37.5365 300.406 37.4539C299.955 37.3713 299.534 37.609 299.465 37.9849C299.396 38.3607 299.706 38.7324 300.157 38.815Z" stroke="black"/>
<path d="M301.077 42.2289C301.53 42.1534 301.845 41.7867 301.782 41.4098C301.72 41.0329 301.302 40.7885 300.85 40.864C300.397 40.9394 300.082 41.3062 300.145 41.6831C300.207 42.06 300.625 42.3043 301.077 42.2289Z" fill="#F5E994"/>
<path d="M301.077 42.2289C301.53 42.1534 301.845 41.7867 301.782 41.4098C301.72 41.0329 301.302 40.7885 300.85 40.864C300.397 40.9394 300.082 41.3062 300.145 41.6831C300.207 42.06 300.625 42.3043 301.077 42.2289Z" stroke="black"/>
<path d="M302.672 45.0389C303.097 44.8686 303.328 44.443 303.186 44.0882C303.044 43.7334 302.584 43.5838 302.158 43.7541C301.732 43.9244 301.502 44.3501 301.644 44.7049C301.786 45.0597 302.246 45.2092 302.672 45.0389Z" fill="#F5E994"/>
<path d="M302.672 45.0389C303.097 44.8686 303.328 44.443 303.186 44.0882C303.044 43.7334 302.584 43.5838 302.158 43.7541C301.732 43.9244 301.502 44.3501 301.644 44.7049C301.786 45.0597 302.246 45.2092 302.672 45.0389Z" stroke="black"/>
<path d="M305.579 47.6643C305.936 47.376 306.03 46.9014 305.79 46.6043C305.55 46.3071 305.066 46.2998 304.709 46.5881C304.353 46.8763 304.258 47.3509 304.499 47.6481C304.739 47.9453 305.223 47.9525 305.579 47.6643Z" fill="#F5E994"/>
<path d="M305.579 47.6643C305.936 47.376 306.03 46.9014 305.79 46.6043C305.55 46.3071 305.066 46.2998 304.709 46.5881C304.353 46.8763 304.258 47.3509 304.499 47.6481C304.739 47.9453 305.223 47.9525 305.579 47.6643Z" stroke="black"/>
<path d="M105.362 36.4636C105.193 37.6578 105.874 39.0794 105.874 40.0461L99.2209 50.9643L95.809 48.9172L92.5676 46.6994C92.5676 46.6994 94.7865 45.8464 95.2972 45.5052C95.8079 45.1641 95.809 44.311 95.2972 43.9699C94.7854 43.6287 90.1803 40.2167 89.6675 39.5343C89.1546 38.852 87.4508 30.1515 88.4733 29.6397C89.4958 29.1279 92.5676 35.6106 92.5676 35.6106C92.5676 35.6106 90.6921 27.7631 92.0558 27.4219C93.4195 27.0807 96.3208 33.9046 96.3208 33.9046C96.3208 33.9046 96.3208 27.4219 98.1973 27.7631C99.3904 28.1043 99.7327 34.587 99.7327 34.587C99.7327 34.587 100.926 27.7631 102.462 28.1043C103.999 28.4455 103.486 34.587 103.486 34.587C103.486 34.587 104.851 29.4691 106.045 30.1515C107.239 30.8339 105.362 36.4636 105.362 36.4636Z" fill="#C36428"/>
<path d="M86.5984 55.741C86.7348 54.7856 89.0436 52.6134 90.1809 51.6466L88.9867 49.9407C86.2572 51.0325 86.2572 54.2625 86.5984 55.741Z" fill="black"/>
<path d="M88.6452 52.5005C90.3512 51.9887 94.1043 51.6475 95.4691 54.377C96.6633 56.1967 100.485 59.7338 106.217 59.3244C106.217 59.3244 112.699 58.8126 114.405 60.6891C116.111 62.0539 117.988 66.3188 117.988 66.3188C117.988 66.3188 120.206 71.9486 121.912 71.778C123.618 71.6074 121.229 66.8306 121.229 66.8306C121.741 67.2856 122.901 68.4001 123.447 69.219C124.023 70.0827 125.449 71.6754 126.598 71.2291C127.033 71.0599 127.041 70.4924 126.801 70.0915C125.994 68.7429 124.221 65.7406 123.959 64.9541C123.618 63.9305 118.67 57.1066 117.305 56.083C115.258 54.2064 114.747 52.5005 114.747 51.9887C114.747 51.4769 115.258 51.1357 115.77 51.4769C116.282 51.8181 118.67 54.377 121.059 54.2064C123.447 54.0358 122.253 51.8181 121.912 51.4769C121.62 51.1858 119.839 49.7769 119.322 49.3696C120.185 49.8107 124.771 51.0057 126.006 49.7709C127.371 48.4061 121.229 44.9942 121.229 44.9942C121.229 44.9942 128.735 46.5296 129.759 44.9942C130.783 43.4588 124.641 41.5822 124.641 41.5822C124.641 41.5822 130.271 41.5822 130.271 40.0469C130.271 38.5115 123.618 38.1703 123.618 38.1703C123.618 38.1703 137.436 35.2701 133.683 32.37C131.636 31.8582 121.912 33.9053 121.912 33.9053C117.566 34.9638 108.473 37.3539 106.18 38.6055C106.088 38.6559 105.996 38.6959 105.894 38.7215C104.983 38.9507 103.237 39.2808 102.464 39.0231C102.18 38.9662 101.611 39.1255 101.611 40.2173C101.611 41.5821 99.9051 50.6237 97.3461 49.0883C95.7163 48.1104 94.4108 47.1397 93.6881 46.555C93.4022 46.3238 93.0477 46.1796 92.6837 46.2312C91.3058 46.4266 89.1332 47.3367 88.3045 49.9413C88.0767 50.6238 87.8259 52.0912 88.6452 52.5005Z" fill="#DE8D21"/>
<ellipse cx="1.02358" cy="0.852986" rx="1.02358" ry="0.852986" transform="matrix(-1 0 0 1 92.0569 48.9169)" fill="black"/>
<mask id="mask10_22_1258" style="mask-type:alpha" maskUnits="userSpaceOnUse" x="88" y="32" width="47" height="40">
<path d="M88.6452 52.3992C90.3512 51.8874 94.1043 51.5462 95.4691 54.2757C96.6633 56.0954 100.485 59.6325 106.217 59.223C106.217 59.223 112.699 58.7112 114.405 60.5878C116.111 61.9526 117.988 66.2175 117.988 66.2175C117.988 66.2175 120.206 71.8472 121.912 71.6766C123.618 71.506 121.229 66.7293 121.229 66.7293C121.741 67.1842 122.901 68.2988 123.447 69.1177C124.023 69.9814 125.449 71.5741 126.598 71.1278C127.033 70.9586 127.041 70.3911 126.801 69.9902C125.994 68.6416 124.221 65.6392 123.959 64.8527C123.618 63.8292 118.67 57.0053 117.305 55.9817C115.258 54.1051 114.747 52.3991 114.747 51.8874C114.747 51.3756 115.258 51.0344 115.77 51.3756C116.282 51.7168 118.67 54.2757 121.059 54.1051C123.447 53.9345 122.253 51.7168 121.912 51.3756C121.62 51.0844 119.839 49.6756 119.322 49.2683C120.185 49.7093 124.771 50.9044 126.006 49.6696C127.371 48.3048 121.229 44.8929 121.229 44.8929C121.229 44.8929 128.735 46.4282 129.759 44.8929C130.783 43.3575 124.641 41.4809 124.641 41.4809C124.641 41.4809 130.271 41.4809 130.271 39.9455C130.271 38.4102 123.618 38.069 123.618 38.069C123.618 38.069 137.436 35.1688 133.683 32.2687C131.636 31.7569 121.912 33.804 121.912 33.804C117.566 34.8624 108.473 37.2526 106.18 38.5042C106.088 38.5546 105.996 38.5945 105.894 38.6202C104.983 38.8493 103.237 39.1794 102.464 38.9218C102.18 38.8649 101.611 39.0241 101.611 40.116C101.611 41.4807 99.9051 50.5224 97.3461 48.987C95.7163 48.0091 94.4108 47.0384 93.6881 46.4537C93.4022 46.2224 93.0477 46.0783 92.6837 46.1299C91.3058 46.3253 89.1332 47.2353 88.3045 49.84C88.0767 50.5225 87.8259 51.9899 88.6452 52.3992Z" fill="#DE8D21"/>
</mask>
<g mask="url(#mask10_22_1258)">
<path d="M112.019 57.9581C114.066 58.9135 114.578 60.972 114.578 61.8819L105.707 62.9055L94.618 55.5698C95.3573 54.9442 96.7908 54.8222 98.8829 55.5698C103.66 57.2767 109.46 56.7639 112.019 57.9581Z" fill="#C36428"/>
</g>
<path d="M123.105 36.3555C125.111 36.3868 130.176 36.095 129.122 34.4724C128.045 32.8148 124.885 34.9194 123.105 36.3555Z" fill="#D81828"/>
<path d="M122.21 40.1689C124.096 39.4854 128.437 38.0549 128.512 39.9884C128.58 41.7447 124.361 40.9465 122.21 40.1689Z" fill="#D81828"/>
<path d="M121.959 43.4635C123.953 43.2338 128.506 42.8435 128.133 44.7421C127.794 46.4666 123.873 44.7165 121.959 43.4635Z" fill="#D81828"/>
<path d="M118.686 46.3819C120.676 46.6429 125.188 47.369 124.365 49.1202C123.618 50.7109 120.238 48.0618 118.686 46.3819Z" fill="#D81828"/>
<path d="M115.424 48.5145C117.293 49.2455 121.499 51.0337 120.28 52.5362C119.172 53.9009 116.528 50.5179 115.424 48.5145Z" fill="#D81828"/>
<path d="M121.571 38.815C121.119 38.8976 120.698 38.6599 120.629 38.284C120.56 37.9081 120.87 37.5365 121.321 37.4539C121.772 37.3713 122.194 37.609 122.263 37.9849C122.331 38.3607 122.022 38.7324 121.571 38.815Z" fill="#F5E994"/>
<path d="M121.571 38.815C121.119 38.8976 120.698 38.6599 120.629 38.284C120.56 37.9081 120.87 37.5365 121.321 37.4539C121.772 37.3713 122.194 37.609 122.263 37.9849C122.331 38.3607 122.022 38.7324 121.571 38.815Z" stroke="black"/>
<path d="M120.649 42.2289C120.197 42.1534 119.881 41.7867 119.944 41.4098C120.007 41.0329 120.424 40.7885 120.877 40.864C121.329 40.9394 121.645 41.3062 121.582 41.6831C121.519 42.06 121.101 42.3043 120.649 42.2289Z" fill="#F5E994"/>
<path d="M120.649 42.2289C120.197 42.1534 119.881 41.7867 119.944 41.4098C120.007 41.0329 120.424 40.7885 120.877 40.864C121.329 40.9394 121.645 41.3062 121.582 41.6831C121.519 42.06 121.101 42.3043 120.649 42.2289Z" stroke="black"/>
<path d="M119.055 45.0389C118.63 44.8686 118.399 44.443 118.541 44.0882C118.683 43.7334 119.143 43.5838 119.569 43.7541C119.995 43.9244 120.225 44.3501 120.083 44.7049C119.941 45.0597 119.481 45.2092 119.055 45.0389Z" fill="#F5E994"/>
<path d="M119.055 45.0389C118.63 44.8686 118.399 44.443 118.541 44.0882C118.683 43.7334 119.143 43.5838 119.569 43.7541C119.995 43.9244 120.225 44.3501 120.083 44.7049C119.941 45.0597 119.481 45.2092 119.055 45.0389Z" stroke="black"/>
<path d="M116.148 47.664C115.792 47.3758 115.697 46.9012 115.937 46.604C116.178 46.3068 116.661 46.2996 117.018 46.5878C117.375 46.8761 117.469 47.3507 117.229 47.6478C116.989 47.945 116.505 47.9523 116.148 47.664Z" fill="#F5E994"/>
<path d="M116.148 47.664C115.792 47.3758 115.697 46.9012 115.937 46.604C116.178 46.3068 116.661 46.2996 117.018 46.5878C117.375 46.8761 117.469 47.3507 117.229 47.6478C116.989 47.945 116.505 47.9523 116.148 47.664Z" stroke="black"/>
<path d="M318.682 104.451C321.953 98.9758 330.073 88.3664 336.388 89.7317C339.801 92.0782 335.236 103.598 318.682 104.451Z" fill="#084850"/>
<mask id="mask11_22_1258" style="mask-type:alpha" maskUnits="userSpaceOnUse" x="318" y="89" width="20" height="16">
<path d="M318.682 104.451C321.953 98.9761 330.074 88.3667 336.388 89.7319C339.801 92.0784 335.236 103.598 318.682 104.451Z" fill="#084850"/>
</mask>
<g mask="url(#mask11_22_1258)">
<path d="M318.252 105.934L341.167 87.3297" stroke="#8EB96D" stroke-width="0.324613"/>
<path d="M332.543 94.339L335.382 85.906" stroke="#8EB96D" stroke-width="0.324613"/>
<path d="M328.219 97.7111L330.875 87.4069" stroke="#8EB96D" stroke-width="0.324613"/>
<path d="M324.726 100.721L326.479 89.5218" stroke="#8EB96D" stroke-width="0.324613"/>
<path d="M321.446 103.5L322.847 92.344" stroke="#8EB96D" stroke-width="0.324613"/>
<path d="M321.555 103.121L331.467 105.708" stroke="#8EB96D" stroke-width="0.324613"/>
<path d="M325.844 99.7068L335.756 102.294" stroke="#8EB96D" stroke-width="0.324613"/>
<path d="M329.215 96.9579L338.066 99.192" stroke="#8EB96D" stroke-width="0.324613"/>
<path d="M334.644 92.7184L339.963 93.8302" stroke="#8EB96D" stroke-width="0.324613"/>
</g>
<path d="M102.359 104.451C99.0881 98.9757 90.9675 88.3663 84.653 89.7316C81.2398 92.078 85.805 103.598 102.359 104.451Z" fill="#084850"/>
<mask id="mask12_22_1258" style="mask-type:alpha" maskUnits="userSpaceOnUse" x="83" y="89" width="20" height="16">
<path d="M102.359 104.451C99.0879 98.9756 90.9673 88.3662 84.6528 89.7315C81.2396 92.0779 85.8048 103.598 102.359 104.451Z" fill="#084850"/>
</mask>
<g mask="url(#mask12_22_1258)">
<path d="M102.789 105.933L79.8745 87.3291" stroke="#8EB96D" stroke-width="0.324613"/>
<path d="M88.4977 94.3386L85.658 85.9055" stroke="#8EB96D" stroke-width="0.324613"/>
<path d="M92.822 97.7105L90.1654 87.4062" stroke="#8EB96D" stroke-width="0.324613"/>
<path d="M96.3146 100.721L94.5613 89.5213" stroke="#8EB96D" stroke-width="0.324613"/>
<path d="M99.5947 103.5L98.1932 92.3435" stroke="#8EB96D" stroke-width="0.324613"/>
<path d="M99.4853 103.121L89.5734 105.708" stroke="#8EB96D" stroke-width="0.324613"/>
<path d="M95.1968 99.7063L85.2848 102.293" stroke="#8EB96D" stroke-width="0.324613"/>
<path d="M91.8259 96.9574L82.9744 99.1916" stroke="#8EB96D" stroke-width="0.324613"/>
<path d="M86.3967 92.7176L81.0778 93.8295" stroke="#8EB96D" stroke-width="0.324613"/>
</g>
<path d="M315.997 77.2162C311.022 81.3373 312.794 95.6114 315.078 101.567C317.228 98.5201 316.935 96.4155 318.557 92.3623C323.25 80.6294 320.05 77.2162 315.997 77.2162Z" fill="#084850"/>
<mask id="mask13_22_1258" style="mask-type:alpha" maskUnits="userSpaceOnUse" x="312" y="77" width="9" height="25">
<path d="M315.998 77.216C311.023 81.337 312.795 95.6112 315.079 101.566C317.229 98.5198 316.936 96.4153 318.558 92.3621C323.251 80.6291 320.051 77.216 315.998 77.216Z" fill="#084850"/>
</mask>
<g mask="url(#mask13_22_1258)">
<path d="M314.699 102.532L317.918 73.1929" stroke="#8EB96D" stroke-width="0.324613"/>
<path d="M316.712 84.2402L312.803 76.2461" stroke="#8EB96D" stroke-width="0.324613"/>
<path d="M316.007 89.6783L310.653 80.482" stroke="#8EB96D" stroke-width="0.324613"/>
<path d="M315.639 94.2744L309.013 85.0763" stroke="#8EB96D" stroke-width="0.324613"/>
<path d="M315.259 98.5571L308.413 89.6369" stroke="#8EB96D" stroke-width="0.324613"/>
<path d="M315.071 98.2102L323.939 93.0825" stroke="#8EB96D" stroke-width="0.324612"/>
<path d="M315.721 92.7672L324.589 87.6395" stroke="#8EB96D" stroke-width="0.324612"/>
<path d="M316.186 88.4425L324.052 83.8094" stroke="#8EB96D" stroke-width="0.324612"/>
<path d="M317.067 81.6104L321.632 78.6623" stroke="#8EB96D" stroke-width="0.324612"/>
</g>
<path d="M105.045 77.2161C110.02 81.3371 108.248 95.6113 105.964 101.566C103.814 98.5199 104.107 96.4154 102.485 92.3622C97.7919 80.6292 100.992 77.2161 105.045 77.2161Z" fill="#084850"/>
<mask id="mask14_22_1258" style="mask-type:alpha" maskUnits="userSpaceOnUse" x="100" y="77" width="9" height="25">
<path d="M105.044 77.2161C110.019 81.3371 108.247 95.6113 105.963 101.566C103.813 98.5199 104.106 96.4154 102.484 92.3622C97.7911 80.6292 100.991 77.2161 105.044 77.2161Z" fill="#084850"/>
</mask>
<g mask="url(#mask14_22_1258)">
<path d="M106.344 102.533L103.124 73.1931" stroke="#8EB96D" stroke-width="0.324613"/>
<path d="M104.33 84.2404L108.239 76.2463" stroke="#8EB96D" stroke-width="0.324613"/>
<path d="M105.035 89.6784L110.389 80.4821" stroke="#8EB96D" stroke-width="0.324613"/>
<path d="M105.403 94.2745L112.029 85.0764" stroke="#8EB96D" stroke-width="0.324613"/>
<path d="M105.783 98.5572L112.629 89.6371" stroke="#8EB96D" stroke-width="0.324613"/>
<path d="M105.971 98.2103L97.1029 93.0826" stroke="#8EB96D" stroke-width="0.324612"/>
<path d="M105.321 92.7673L96.453 87.6396" stroke="#8EB96D" stroke-width="0.324612"/>
<path d="M104.856 88.4426L96.9902 83.8095" stroke="#8EB96D" stroke-width="0.324612"/>
<path d="M103.975 81.6106L99.4103 78.6624" stroke="#8EB96D" stroke-width="0.324612"/>
</g>
<path d="M249.718 21.6471C249.19 23.4424 245.89 24.4192 244.305 24.6832C244.569 23.3192 245.282 20.3535 246.022 19.4031C246.761 18.4526 249.146 18.391 250.246 18.479C250.29 18.7871 250.246 19.8519 249.718 21.6471Z" fill="#04673C"/>
<path d="M172.314 21.6471C172.842 23.4424 176.142 24.4192 177.727 24.6832C177.463 23.3192 176.75 20.3535 176.01 19.4031C175.271 18.4526 172.886 18.391 171.786 18.479C171.742 18.7871 171.786 19.8519 172.314 21.6471Z" fill="#04673C"/>
<path d="M217.43 20.3383C219.596 21.0188 221.767 23.0106 222.607 24.6969C220.986 24.8694 217.543 24.6826 216.223 24.1799C214.903 23.6772 213.886 21.4291 213.607 20.1649C213.937 20.0097 215.335 19.6802 217.43 20.3383Z" fill="#089858"/>
<path d="M204.603 20.3383C202.437 21.0188 200.266 23.0106 199.425 24.6969C201.046 24.8694 204.489 24.6826 205.809 24.1799C207.13 23.6772 208.147 21.4291 208.426 20.1649C208.096 20.0097 206.697 19.6802 204.603 20.3383Z" fill="#089858"/>
<path d="M216.146 33.5219C215.122 32.8393 213.444 32.3842 212.732 32.242C212.732 31.8864 213.159 30.9194 214.866 29.8954C216.572 28.8714 219.843 30.3221 221.265 31.1754C219.986 32.242 217.17 34.2046 216.146 33.5219Z" fill="#0EB88E"/>
<path d="M205.886 33.5219C206.91 32.8393 208.588 32.3842 209.3 32.242C209.3 31.8864 208.873 30.9194 207.166 29.8954C205.46 28.8714 202.189 30.3221 200.767 31.1754C202.046 32.242 204.862 34.2046 205.886 33.5219Z" fill="#0EB88E"/>
<path d="M234.492 25.4466C233.127 25.4466 231.363 25.1622 230.652 25.02C230.652 24.1667 231.207 22.2894 233.425 21.6068C235.644 20.9241 237.479 22.4601 238.119 23.3134C237.479 24.0245 235.857 25.4466 234.492 25.4466Z" fill="#0EB88E"/>
<path d="M187.54 25.4466C188.906 25.4466 190.669 25.1622 191.38 25.02C191.38 24.1667 190.825 22.2894 188.607 21.6068C186.388 20.9241 184.554 22.4601 183.914 23.3134C184.554 24.0245 186.175 25.4466 187.54 25.4466Z" fill="#0EB88E"/>
<path d="M207.854 130.473C44.5791 130.473 8.92932 30.0356 8.92932 30.0356C5.70928 36.11 4.27733 42.9728 4.79958 49.8281L17.1543 212H207.854H403.887L414.968 49.925C415.441 43.0107 413.914 36.1064 410.571 30.0358C410.571 30.0358 371.13 130.473 207.854 130.473Z" fill="#1C0F35"/>
<g opacity="0.4" filter="url(#filter1_f_22_1258)">
<path d="M340.538 199.101C340.538 197.284 340.223 196.252 339.594 196.004C339.397 195.922 339.201 195.881 339.004 195.881H335.82L337.185 167.024L340.075 161.327L352.156 199.101H360.943C360.943 197.284 360.629 196.252 360 196.004C359.803 195.922 359.606 195.881 359.41 195.881H357.994L344.144 153.4L354.406 132.654C355.9 129.682 357.001 127.306 357.709 126.894C358.063 126.728 358.436 126.646 358.829 126.646C360.304 126.646 360.225 124.62 360.304 123.299C360.343 122.886 360.363 122.473 360.363 122.06C353.287 123.192 353.074 123.299 349.318 123.875L349.688 126.646H354.406L337.185 161.203V128.011L341.903 127.329V124.791C334.98 125.924 332.249 125.924 326.805 126.84V129.377L331.524 128.694L330.158 195.881H325.44V199.101H340.538Z" fill="#139F7D"/>
<path d="M267.113 199.063L267.15 196.917L262.335 196.832L262.693 176.277L267.87 176.367L276.985 199.235L286.375 199.399C286.397 198.133 286.148 197.441 285.629 197.322C285.429 197.263 285.209 197.232 284.968 197.228L282.982 197.193L273.722 175.726C277.599 174.417 280.256 171.684 281.693 167.525C282.202 165.937 282.472 164.318 282.5 162.667C282.572 158.539 281.326 155.214 278.761 152.692C276.628 150.673 273.997 149.636 270.867 149.581C270.867 149.581 262.735 148.797 252.567 151.31L252.53 154.139L257.346 153.541L256.556 196.732L251.74 196.648L251.703 198.794L267.113 199.063ZM268.662 152.373C272.033 152.432 274.327 153.743 275.543 157.673C275.996 159.278 276.208 160.96 276.177 162.721C276.106 166.794 275.048 169.886 273.004 171.997C271.736 173.352 270.24 174.014 268.514 173.984L262.735 173.883L263.124 152.276L268.662 152.373Z" fill="#139F7D"/>
<path d="M239.887 199.101C239.887 198.092 239.571 197.518 238.939 197.381C238.741 197.335 238.544 197.312 238.346 197.312H234.258V160.29H237.28C240.559 160.335 242.731 160.649 243.798 165.328L244.923 170.213H246.582L246.345 156.452C246.345 156.452 232.223 159.038 216.779 158.501L216.483 172.262H218.142L219.268 167.376C220.374 162.698 222.566 160.335 225.845 160.29H228.57V197.312H222.941V199.101H239.887Z" fill="#139F7D"/>
<path d="M187.418 199.101C187.418 198.092 187.102 197.518 186.47 197.381C186.273 197.335 186.075 197.312 185.878 197.312H182.678V178.803H200.276V197.312H195.536V199.101H210.704C210.704 198.092 210.388 197.518 209.756 197.381C209.558 197.335 209.361 197.312 209.163 197.312H205.964V159.607H210.704V158.501C210.704 158.501 202.523 158.014 195.536 157.135V158.924L200.276 159.607V176.808H182.678V158.241H187.418V156.452C187.418 156.452 178.967 156.452 172.25 155.087V156.876L176.99 157.558V197.312H172.25V199.101H187.418Z" fill="#139F7D"/>
<path d="M164.733 194.462C164.772 196.699 165.069 197.972 165.624 198.282C165.861 198.385 166.215 198.432 166.686 198.423L166.42 183.164L164.889 183.191C163.083 192.12 159.218 196.663 153.294 196.819C147.84 196.914 144.256 192.875 142.544 184.7C141.902 181.674 141.548 178.244 141.481 174.41C141.303 164.237 143.225 157.411 147.246 153.931C148.87 152.517 150.702 151.793 152.743 151.757C158.473 151.764 164.404 156.064 166.438 164.66L168.651 164.633C165.311 158.697 164.117 149.014 164.117 149.014C163.214 149.03 162.672 149.439 162.49 150.241C162.422 150.881 162.4 151.841 162.422 153.119C160.145 150.815 158.523 150.111 154.825 149.643C153.999 149.551 153.174 149.512 152.35 149.526C146.072 149.636 141.32 152.835 138.094 159.125C135.856 163.586 134.787 168.693 134.888 174.445C135.01 181.422 136.721 187.252 140.021 191.936C143.481 196.777 147.938 199.15 153.392 199.055C157.393 198.932 161.173 197.401 164.733 194.462Z" fill="#139F7D"/>
<path d="M127.743 159.519L127.439 142.67C127.439 142.67 115.128 142.443 98.8455 139.256V142.443L103.723 143.126L103.724 196.596H98.8469V199.1H127.44L127.745 181.569H126.404L125.428 186.482C124.371 192.004 122.746 195.247 120.551 196.211C119.982 196.467 119.393 196.596 118.783 196.596H109.577L109.303 170.684H123.378V167.89H109.303L109.576 143.809L118.781 144.492C121.911 144.492 124.106 147.735 125.366 154.221C125.406 154.349 125.427 154.477 125.427 154.606L126.402 159.519H127.743Z" fill="#139F7D"/>
<path d="M320.789 159.519L320.484 142.67C320.484 142.67 308.173 142.443 291.891 139.256V142.443L296.768 143.126L296.77 196.596H291.892V199.1H320.485L320.79 181.569H319.449L318.474 186.482C317.417 192.004 315.791 195.247 313.596 196.211C313.027 196.467 312.438 196.596 311.828 196.596H302.622L302.349 170.684H316.424V167.89H302.349L302.621 143.809L311.827 144.492C314.956 144.492 317.151 147.735 318.411 154.221C318.452 154.349 318.472 154.477 318.472 154.606L319.448 159.519H320.789Z" fill="#139F7D"/>
<path d="M87.1039 199.101C87.1039 197.284 86.7831 196.252 86.1417 196.005C85.9412 195.922 85.7408 195.881 85.5403 195.881H81.3909L80.3066 130.06H83.3791C86.7067 130.143 89.6972 133.029 90.7796 141.451L91.9222 150.244H94.2888L92.9379 126.607C92.9379 126.607 70.0651 124.558 61.8718 121.486L63.7395 149.561H66.1061L66.5659 140.768C67.0057 132.346 68.5479 128.094 71.8755 128.012L74.6418 128.695L75.6178 195.881H69.9048V199.101H87.1039Z" fill="#139F7D"/>
</g>
<path d="M340.538 200.29C340.538 198.474 340.223 197.442 339.594 197.194C339.397 197.112 339.201 197.07 339.004 197.07H335.82L337.185 168.213L340.075 162.516L352.156 200.29H360.943C360.943 198.474 360.629 197.442 360 197.194C359.803 197.112 359.606 197.07 359.41 197.07H357.994L344.144 154.59L354.406 133.844C355.9 130.872 357.001 128.496 357.709 128.083C358.063 127.918 358.436 127.836 358.829 127.836C360.304 127.836 360.225 125.81 360.304 124.488C360.343 124.076 360.363 123.663 360.363 123.25C353.287 124.382 353.074 124.488 349.318 125.065L349.688 127.836H354.406L337.185 162.393V129.201L341.903 128.518V125.981C334.98 127.113 332.249 127.113 326.805 128.029V130.567L331.524 129.884L330.158 197.07H325.44V200.29H340.538Z" fill="white"/>
<path d="M267.113 200.252L267.15 198.106L262.335 198.022L262.693 177.466L267.87 177.556L276.985 200.424L286.375 200.588C286.397 199.323 286.148 198.63 285.629 198.511C285.429 198.452 285.209 198.421 284.968 198.417L282.982 198.382L273.722 176.915C277.599 175.607 280.256 172.873 281.693 168.714C282.202 167.126 282.472 165.507 282.5 163.856C282.572 159.728 281.326 156.403 278.761 153.881C276.628 151.862 273.997 150.825 270.867 150.771C270.867 150.771 262.735 149.986 252.567 152.5L252.53 155.329L257.346 154.73L256.556 197.921L251.74 197.837L251.703 199.983L267.113 200.252ZM268.662 153.562C272.033 153.621 274.327 154.932 275.543 158.862C275.996 160.467 276.208 162.15 276.177 163.911C276.106 167.983 275.048 171.075 273.004 173.187C271.736 174.541 270.24 175.203 268.514 175.173L262.735 175.072L263.124 153.465L268.662 153.562Z" fill="white"/>
<path d="M239.887 200.291C239.887 199.281 239.571 198.708 238.939 198.57C238.741 198.525 238.544 198.502 238.346 198.502H234.258V161.479H237.28C240.559 161.525 242.731 161.839 243.798 166.518L244.923 171.403H246.582L246.345 157.642C246.345 157.642 232.223 160.228 216.779 159.69L216.483 173.451H218.142L219.268 168.566C220.374 163.887 222.566 161.525 225.845 161.479H228.57V198.502H222.941V200.291H239.887Z" fill="white"/>
<path d="M187.418 200.29C187.418 199.281 187.102 198.708 186.47 198.57C186.273 198.524 186.075 198.501 185.878 198.501H182.678V179.993H200.276V198.501H195.536V200.29H210.704C210.704 199.281 210.388 198.708 209.756 198.57C209.558 198.524 209.361 198.501 209.163 198.501H205.964V160.796H210.704V159.69C210.704 159.69 202.523 159.203 195.536 158.325V160.114L200.276 160.796V177.998H182.678V159.431H187.418V157.642C187.418 157.642 178.967 157.642 172.25 156.276V158.065L176.99 158.748V198.501H172.25V200.29H187.418Z" fill="white"/>
<path d="M164.733 195.651C164.772 197.888 165.069 199.161 165.624 199.471C165.861 199.574 166.215 199.621 166.686 199.613L166.42 184.354L164.889 184.38C163.083 193.309 159.218 197.852 153.294 198.008C147.84 198.104 144.256 194.064 142.544 185.889C141.902 182.864 141.548 179.433 141.481 175.599C141.303 165.426 143.225 158.6 147.246 155.12C148.87 153.706 150.702 152.982 152.743 152.946C158.473 152.953 164.404 157.254 166.438 165.849L168.651 165.822C165.311 159.886 164.117 150.203 164.117 150.203C163.214 150.219 162.672 150.628 162.49 151.43C162.422 152.071 162.4 153.03 162.422 154.308C160.145 152.004 158.523 151.3 154.825 150.832C153.999 150.74 153.174 150.701 152.35 150.715C146.072 150.825 141.32 154.025 138.094 160.314C135.856 164.775 134.787 169.882 134.888 175.634C135.01 182.611 136.721 188.442 140.021 193.126C143.481 197.967 147.938 200.339 153.392 200.244C157.393 200.121 161.173 198.59 164.733 195.651Z" fill="white"/>
<path d="M127.743 160.708L127.439 143.859C127.439 143.859 115.128 143.633 98.8455 140.445V143.633L103.723 144.315L103.724 197.785H98.8469V200.29H127.44L127.745 182.758H126.404L125.428 187.671C124.371 193.194 122.746 196.437 120.551 197.4C119.982 197.657 119.393 197.785 118.783 197.785H109.577L109.303 171.873H123.378V169.08H109.303L109.576 144.998L118.781 145.681C121.911 145.681 124.106 148.924 125.366 155.41C125.406 155.538 125.427 155.667 125.427 155.795L126.402 160.708H127.743Z" fill="white"/>
<path d="M320.789 160.708L320.484 143.859C320.484 143.859 308.173 143.633 291.891 140.445V143.633L296.768 144.315L296.77 197.785H291.892V200.29H320.485L320.79 182.758H319.449L318.474 187.671C317.417 193.194 315.791 196.437 313.596 197.4C313.027 197.657 312.438 197.785 311.828 197.785H302.622L302.349 171.873H316.424V169.08H302.349L302.621 144.998L311.827 145.681C314.956 145.681 317.151 148.924 318.411 155.41C318.452 155.538 318.472 155.667 318.472 155.795L319.448 160.708H320.789Z" fill="white"/>
<path d="M87.1039 200.29C87.1039 198.474 86.7831 197.442 86.1417 197.194C85.9412 197.112 85.7408 197.07 85.5403 197.07H81.3909L80.3066 131.25H83.3791C86.7067 131.332 89.6972 134.219 90.7796 142.641L91.9222 151.434H94.2888L92.9379 127.796C92.9379 127.796 70.0651 125.748 61.8718 122.675L63.7395 150.751H66.1061L66.5659 141.958C67.0057 133.536 68.5479 129.284 71.8755 129.201L74.6418 129.884L75.6178 197.07H69.9048V200.29H87.1039Z" fill="white"/>
<path d="M34.6394 151.255C35.1772 149.821 36.3575 148.118 36.8804 147.445C35.984 146.848 33.8774 145.16 32.6224 143.187C31.3675 141.215 29.8585 141.021 29.2609 141.171C27.244 143.187 32.8465 146.549 32.3983 146.549C31.9501 146.549 28.3645 146.325 28.3645 148.118C28.3645 149.552 30.7549 150.209 31.9501 150.359C31.2778 150.359 29.0368 153.944 30.6055 154.841C32.1742 155.737 33.967 153.048 34.6394 151.255Z" fill="#084150"/>
<path d="M29.934 118.536C26.1691 142.202 38.8234 145.13 45.6211 143.636C49.207 131.31 42.2593 125.259 40.0183 124.363C38.2255 123.646 32.5484 120.18 29.934 118.536Z" fill="#08905C"/>
<path d="M45.6199 144.98C39.121 148.417 27.4677 158.247 32.8461 170.08C38.9714 169.183 50.1016 162.908 45.6199 144.98Z" fill="#08905C"/>
<mask id="mask15_22_1258" style="mask-type:alpha" maskUnits="userSpaceOnUse" x="29" y="118" width="18" height="26">
<path d="M29.934 118.536C26.1691 142.202 38.8234 145.13 45.6211 143.636C49.207 131.31 42.2593 125.259 40.0183 124.363C38.2255 123.646 32.5484 120.18 29.934 118.536Z" fill="#08905C"/>
</mask>
<g mask="url(#mask15_22_1258)">
<path d="M46.294 144.667L28.1895 118.536" stroke="#8EB96D" stroke-width="0.548997"/>
<path d="M35.002 128.379L34.6008 118.803" stroke="#8EB96D" stroke-width="0.548997"/>
<path d="M38.4595 133.167L38.8104 121.711" stroke="#8EB96D" stroke-width="0.548997"/>
<path d="M41.1663 137.33L42.7207 125.22" stroke="#8EB96D" stroke-width="0.548997"/>
<path d="M43.7236 141.191L45.6289 129.231" stroke="#8EB96D" stroke-width="0.548997"/>
<path d="M43.7245 140.767L32.6953 140.462" stroke="#8EB96D" stroke-width="0.548997"/>
<path d="M40.3153 135.945L29.2861 135.64" stroke="#8EB96D" stroke-width="0.548997"/>
<path d="M37.6575 132.089L27.8311 131.738" stroke="#8EB96D" stroke-width="0.548997"/>
<path d="M33.3164 126.071L27.481 125.622" stroke="#8EB96D" stroke-width="0.548997"/>
</g>
<mask id="mask16_22_1258" style="mask-type:alpha" maskUnits="userSpaceOnUse" x="31" y="144" width="16" height="27">
<path d="M45.6199 144.98C39.121 148.417 27.4677 158.247 32.8461 170.08C38.9714 169.183 50.1016 162.908 45.6199 144.98Z" fill="#08905C"/>
</mask>
<g mask="url(#mask16_22_1258)">
<path d="M45.3776 145.395L29.927 173.178" stroke="#8EB96D" stroke-width="0.548997"/>
<path d="M35.7493 162.721L27.335 167.309" stroke="#8EB96D" stroke-width="0.548997"/>
<path d="M38.5192 157.504L28.0858 162.248" stroke="#8EB96D" stroke-width="0.548997"/>
<path d="M41.0591 153.236L29.5071 157.189" stroke="#8EB96D" stroke-width="0.548997"/>
<path d="M43.3934 149.237L31.8214 152.809" stroke="#8EB96D" stroke-width="0.548997"/>
<path d="M43.012 149.424L47.6088 159.454" stroke="#8EB96D" stroke-width="0.548997"/>
<path d="M40.1915 154.612L44.7882 164.642" stroke="#8EB96D" stroke-width="0.548997"/>
<path d="M37.9051 158.699L41.9295 167.671" stroke="#8EB96D" stroke-width="0.548997"/>
<path d="M34.4228 165.252L36.5964 170.686" stroke="#8EB96D" stroke-width="0.548997"/>
</g>
<path d="M32.1745 176.579C23.9275 182.495 32.9215 192.49 38.4493 196.748C40.4214 194.596 42.7073 187.335 43.6037 183.974C44.2013 181.061 44.6794 175.01 41.8109 174.113C38.9424 173.217 37.3288 177.774 36.8806 180.164C36.3428 176.579 33.5191 176.28 32.1745 176.579Z" fill="#0FAD7B"/>
<mask id="mask17_22_1258" style="mask-type:alpha" maskUnits="userSpaceOnUse" x="28" y="173" width="17" height="24">
<path d="M32.1745 176.579C23.9275 182.495 32.9215 192.49 38.4493 196.748C40.4214 194.596 42.7073 187.335 43.6037 183.974C44.2013 181.061 44.6794 175.01 41.8109 174.113C38.9424 173.217 37.3288 177.774 36.8806 180.164C36.3428 176.579 33.5191 176.28 32.1745 176.579Z" fill="#0FAD7B"/>
</mask>
<g mask="url(#mask17_22_1258)">
<path d="M38.0654 199.667L36.5083 169.105" stroke="#8EB96D" stroke-width="0.528453"/>
<path d="M37.0889 180.613L41.6177 172.575" stroke="#8EB96D" stroke-width="0.528453"/>
<path d="M37.4897 186.284L43.5874 177.09" stroke="#8EB96D" stroke-width="0.528453"/>
<path d="M37.5923 191.063L45.0066 181.944" stroke="#8EB96D" stroke-width="0.528453"/>
<path d="M37.726 195.518L45.351 186.7" stroke="#8EB96D" stroke-width="0.528453"/>
<path d="M37.9419 195.171L29.0736 189.327" stroke="#8EB96D" stroke-width="0.528453"/>
<path d="M37.5984 189.497L28.7301 183.654" stroke="#8EB96D" stroke-width="0.528453"/>
<path d="M37.3797 184.995L29.5188 179.724" stroke="#8EB96D" stroke-width="0.528453"/>
<path d="M36.8814 177.87L32.3355 174.542" stroke="#8EB96D" stroke-width="0.528453"/>
</g>
<path d="M383.627 149.889C383.089 148.455 381.909 146.752 381.386 146.08C382.282 145.482 384.389 143.794 385.644 141.822C386.899 139.85 388.408 139.655 389.005 139.805C391.022 141.822 385.42 145.183 385.868 145.183C386.316 145.183 389.902 144.959 389.902 146.752C389.902 148.186 387.511 148.844 386.316 148.993C386.989 148.993 389.23 152.579 387.661 153.475C386.092 154.371 384.299 151.682 383.627 149.889Z" fill="#084150"/>
<path d="M388.333 117.171C392.098 140.836 379.443 143.764 372.646 142.27C369.06 129.945 376.008 123.894 378.249 122.997C380.041 122.28 385.718 118.814 388.333 117.171Z" fill="#08905C"/>
<path d="M372.646 143.615C379.145 147.051 390.798 156.881 385.42 168.714C379.294 167.818 368.164 161.543 372.646 143.615Z" fill="#08905C"/>
<mask id="mask18_22_1258" style="mask-type:alpha" maskUnits="userSpaceOnUse" x="371" y="117" width="19" height="26">
<path d="M388.333 117.171C392.098 140.836 379.443 143.764 372.646 142.27C369.06 129.945 376.008 123.894 378.249 122.997C380.041 122.28 385.718 118.814 388.333 117.171Z" fill="#08905C"/>
</mask>
<g mask="url(#mask18_22_1258)">
<path d="M371.973 143.302L390.077 117.171" stroke="#8EB96D" stroke-width="0.548997"/>
<path d="M383.265 127.013L383.667 117.438" stroke="#8EB96D" stroke-width="0.548997"/>
<path d="M379.807 131.802L379.456 120.346" stroke="#8EB96D" stroke-width="0.548997"/>
<path d="M377.1 135.965L375.545 123.855" stroke="#8EB96D" stroke-width="0.548997"/>
<path d="M374.542 139.826L372.637 127.866" stroke="#8EB96D" stroke-width="0.548997"/>
<path d="M374.542 139.401L385.572 139.096" stroke="#8EB96D" stroke-width="0.548997"/>
<path d="M377.951 134.579L388.981 134.274" stroke="#8EB96D" stroke-width="0.548997"/>
<path d="M380.609 130.723L390.436 130.372" stroke="#8EB96D" stroke-width="0.548997"/>
<path d="M384.95 124.706L390.785 124.256" stroke="#8EB96D" stroke-width="0.548997"/>
</g>
<mask id="mask19_22_1258" style="mask-type:alpha" maskUnits="userSpaceOnUse" x="371" y="143" width="16" height="26">
<path d="M372.646 143.615C379.145 147.051 390.798 156.881 385.42 168.714C379.294 167.818 368.164 161.543 372.646 143.615Z" fill="#08905C"/>
</mask>
<g mask="url(#mask19_22_1258)">
<path d="M372.888 144.03L388.339 171.813" stroke="#8EB96D" stroke-width="0.548997"/>
<path d="M382.516 161.355L390.93 165.943" stroke="#8EB96D" stroke-width="0.548997"/>
<path d="M379.747 156.138L390.181 160.882" stroke="#8EB96D" stroke-width="0.548997"/>
<path d="M377.206 151.871L388.758 155.825" stroke="#8EB96D" stroke-width="0.548997"/>
<path d="M374.873 147.871L386.445 151.444" stroke="#8EB96D" stroke-width="0.548997"/>
<path d="M375.254 148.059L370.657 158.089" stroke="#8EB96D" stroke-width="0.548997"/>
<path d="M378.074 153.246L373.478 163.277" stroke="#8EB96D" stroke-width="0.548997"/>
<path d="M380.36 157.334L376.336 166.305" stroke="#8EB96D" stroke-width="0.548997"/>
<path d="M383.843 163.886L381.669 169.32" stroke="#8EB96D" stroke-width="0.548997"/>
</g>
<path d="M386.092 175.213C394.339 181.129 385.345 191.124 379.818 195.382C377.845 193.231 375.56 185.97 374.663 182.608C374.066 179.695 373.587 173.644 376.456 172.748C379.324 171.851 380.938 176.408 381.386 178.798C381.924 175.213 384.748 174.914 386.092 175.213Z" fill="#0FAD7B"/>
<mask id="mask20_22_1258" style="mask-type:alpha" maskUnits="userSpaceOnUse" x="374" y="172" width="16" height="24">
<path d="M386.092 175.213C394.339 181.129 385.345 191.124 379.818 195.382C377.845 193.231 375.56 185.97 374.663 182.608C374.066 179.695 373.587 173.644 376.456 172.748C379.324 171.851 380.938 176.408 381.386 178.798C381.924 175.213 384.748 174.914 386.092 175.213Z" fill="#0FAD7B"/>
</mask>
<g mask="url(#mask20_22_1258)">
<path d="M380.201 198.3L381.759 167.739" stroke="#8EB96D" stroke-width="0.528453"/>
<path d="M381.179 179.247L376.65 171.209" stroke="#8EB96D" stroke-width="0.528453"/>
<path d="M380.778 184.918L374.68 175.723" stroke="#8EB96D" stroke-width="0.528453"/>
<path d="M380.675 189.697L373.261 180.578" stroke="#8EB96D" stroke-width="0.528453"/>
<path d="M380.541 194.152L372.916 185.334" stroke="#8EB96D" stroke-width="0.528453"/>
<path d="M380.325 193.805L389.194 187.961" stroke="#8EB96D" stroke-width="0.528453"/>
<path d="M380.668 188.131L389.537 182.288" stroke="#8EB96D" stroke-width="0.528453"/>
<path d="M380.888 183.629L388.749 178.358" stroke="#8EB96D" stroke-width="0.528453"/>
<path d="M381.386 176.504L385.932 173.176" stroke="#8EB96D" stroke-width="0.528453"/>
</g>
<g filter="url(#filter2_d_22_1258)">
<path d="M22.8551 80.0368L25.698 95.0291L19.4561 95.1612L22.8551 80.0368Z" fill="url(#paint0_linear_22_1258)"/>
<path d="M22.8551 80.0368L31.7186 93.3829L25.698 95.0291L22.8551 80.0368Z" fill="url(#paint1_linear_22_1258)"/>
<path d="M22.8551 80.0368L36.6438 89.8859L31.7186 93.3829L22.8551 80.0368Z" fill="url(#paint2_linear_22_1258)"/>
<path d="M36.644 89.8861L33.9793 100.537L31.7193 93.3827L36.644 89.8861Z" fill="url(#paint3_linear_22_1258)"/>
<path d="M33.9781 100.538L22.9192 100.251L25.6985 95.0292L33.9781 100.538Z" fill="url(#paint4_linear_22_1258)"/>
<path d="M33.9781 100.538L25.6985 95.0294L31.7186 93.3836L33.9781 100.538Z" fill="url(#paint5_linear_22_1258)"/>
<path d="M25.6989 95.0295L22.9376 100.243L19.4559 95.1613L25.6989 95.0295Z" fill="url(#paint6_linear_22_1258)"/>
</g>
<g filter="url(#filter3_d_22_1258)">
<path d="M392.881 79.2925L386.251 93.0364L381.154 89.4307L392.881 79.2925Z" fill="url(#paint7_linear_22_1258)"/>
<path d="M392.881 79.2925L392.071 95.2932L386.251 93.0364L392.881 79.2925Z" fill="url(#paint8_linear_22_1258)"/>
<path d="M392.881 79.2925L398.11 95.4106L392.071 95.2932L392.881 79.2925Z" fill="url(#paint9_linear_22_1258)"/>
<path d="M398.109 95.4109L389.633 102.389L392.071 95.2935L398.109 95.4109Z" fill="url(#paint10_linear_22_1258)"/>
<path d="M389.632 102.389L380.911 95.5823L386.251 93.0365L389.632 102.389Z" fill="url(#paint11_linear_22_1258)"/>
<path d="M389.632 102.389L386.251 93.0365L392.07 95.2933L389.632 102.389Z" fill="url(#paint12_linear_22_1258)"/>
<path d="M386.252 93.037L380.932 95.5865L381.154 89.4305L386.252 93.037Z" fill="url(#paint13_linear_22_1258)"/>
</g>
<path d="M209.347 135.811L213.385 145.361L207.764 145.197L209.347 135.811Z" fill="url(#paint14_linear_22_1258)"/>
<path d="M211.421 151.855L207.765 145.143L213.386 145.306L211.421 151.855Z" fill="url(#paint15_linear_22_1258)"/>
<path d="M211.421 151.855L213.331 145.306L218.516 143.778L211.421 151.855Z" fill="url(#paint16_linear_22_1258)"/>
<path d="M211.421 151.855L207.819 145.197L203.999 148.908L211.421 151.855Z" fill="url(#paint17_linear_22_1258)"/>
<path d="M203.999 148.908L207.874 145.197L202.471 143.615L203.999 148.908Z" fill="url(#paint18_linear_22_1258)"/>
<path d="M209.347 135.811L218.57 143.778L213.331 145.361L209.347 135.811Z" fill="url(#paint19_linear_22_1258)"/>
<path d="M209.347 135.811L207.765 145.197L202.471 143.615L209.347 135.811Z" fill="url(#paint20_linear_22_1258)"/>
</g>
<defs>
<filter id="filter0_d_22_1258" x="0.69458" y="0.00012207" width="418.358" height="220" filterUnits="userSpaceOnUse" color-interpolation-filters="sRGB">
<feFlood flood-opacity="0" result="BackgroundImageFix"/>
<feColorMatrix in="SourceAlpha" type="matrix" values="0 0 0 0 0 0 0 0 0 0 0 0 0 0 0 0 0 0 127 0" result="hardAlpha"/>
<feOffset dy="4"/>
<feGaussianBlur stdDeviation="2"/>
<feComposite in2="hardAlpha" operator="out"/>
<feColorMatrix type="matrix" values="0 0 0 0 0 0 0 0 0 0 0 0 0 0 0 0 0 0 0.25 0"/>
<feBlend mode="normal" in2="BackgroundImageFix" result="effect1_dropShadow_22_1258"/>
<feBlend mode="normal" in="SourceGraphic" in2="effect1_dropShadow_22_1258" result="shape"/>
</filter>
<filter id="filter1_f_22_1258" x="56.3819" y="115.996" width="310.051" height="88.8933" filterUnits="userSpaceOnUse" color-interpolation-filters="sRGB">
<feFlood flood-opacity="0" result="BackgroundImageFix"/>
<feBlend mode="normal" in="SourceGraphic" in2="BackgroundImageFix" result="shape"/>
<feGaussianBlur stdDeviation="2.74498" result="effect1_foregroundBlur_22_1258"/>
</filter>
<filter id="filter2_d_22_1258" x="16.6214" y="79.667" width="22.8571" height="26.1705" filterUnits="userSpaceOnUse" color-interpolation-filters="sRGB">
<feFlood flood-opacity="0" result="BackgroundImageFix"/>
<feColorMatrix in="SourceAlpha" type="matrix" values="0 0 0 0 0 0 0 0 0 0 0 0 0 0 0 0 0 0 127 0" result="hardAlpha"/>
<feOffset dy="2.46473"/>
<feGaussianBlur stdDeviation="1.41722"/>
<feComposite in2="hardAlpha" operator="out"/>
<feColorMatrix type="matrix" values="0 0 0 0 0.960784 0 0 0 0 0.760784 0 0 0 0 0.466667 0 0 0 0.19 0"/>
<feBlend mode="normal" in2="BackgroundImageFix" result="effect1_dropShadow_22_1258"/>
<feBlend mode="normal" in="SourceGraphic" in2="effect1_dropShadow_22_1258" result="shape"/>
</filter>
<filter id="filter3_d_22_1258" x="378.077" y="78.9228" width="22.8676" height="28.7659" filterUnits="userSpaceOnUse" color-interpolation-filters="sRGB">
<feFlood flood-opacity="0" result="BackgroundImageFix"/>
<feColorMatrix in="SourceAlpha" type="matrix" values="0 0 0 0 0 0 0 0 0 0 0 0 0 0 0 0 0 0 127 0" result="hardAlpha"/>
<feOffset dy="2.46473"/>
<feGaussianBlur stdDeviation="1.41722"/>
<feComposite in2="hardAlpha" operator="out"/>
<feColorMatrix type="matrix" values="0 0 0 0 0.94902 0 0 0 0 0.67451 0 0 0 0 0.266667 0 0 0 0.22 0"/>
<feBlend mode="normal" in2="BackgroundImageFix" result="effect1_dropShadow_22_1258"/>
<feBlend mode="normal" in="SourceGraphic" in2="effect1_dropShadow_22_1258" result="shape"/>
</filter>
<linearGradient id="paint0_linear_22_1258" x1="22.6051" y1="86.0429" x2="24.6228" y2="102.624" gradientUnits="userSpaceOnUse">
<stop offset="0.22078" stop-color="#F1AC44"/>
<stop offset="0.813447" stop-color="white"/>
<stop offset="1" stop-color="#F1AC44" stop-opacity="0"/>
</linearGradient>
<linearGradient id="paint1_linear_22_1258" x1="27.0164" y1="93.5398" x2="22.1061" y2="78.6388" gradientUnits="userSpaceOnUse">
<stop stop-color="#F0AB43"/>
<stop offset="1" stop-color="white"/>
</linearGradient>
<linearGradient id="paint2_linear_22_1258" x1="28.908" y1="80.4676" x2="31.7161" y2="93.5373" gradientUnits="userSpaceOnUse">
<stop offset="0.388035" stop-color="#F1AC44"/>
<stop offset="1" stop-color="white"/>
</linearGradient>
<linearGradient id="paint3_linear_22_1258" x1="35.7075" y1="91.6125" x2="26.9342" y2="94.8942" gradientUnits="userSpaceOnUse">
<stop stop-color="#F0AB43"/>
<stop offset="1" stop-color="white"/>
</linearGradient>
<linearGradient id="paint4_linear_22_1258" x1="29.8286" y1="99.8559" x2="22.3485" y2="92.5107" gradientUnits="userSpaceOnUse">
<stop offset="0.140194" stop-color="#F1AC44"/>
<stop offset="1" stop-color="white"/>
</linearGradient>
<linearGradient id="paint5_linear_22_1258" x1="26.8259" y1="99.7315" x2="36.093" y2="87.6593" gradientUnits="userSpaceOnUse">
<stop offset="0.193643" stop-color="#F1AC44"/>
<stop offset="0.794347" stop-color="white"/>
</linearGradient>
<linearGradient id="paint6_linear_22_1258" x1="18.3923" y1="98.1029" x2="27.2145" y2="94.6526" gradientUnits="userSpaceOnUse">
<stop offset="0.201632" stop-color="#F2B352"/>
<stop offset="1" stop-color="white"/>
</linearGradient>
<linearGradient id="paint7_linear_22_1258" x1="389.109" y1="83.9725" x2="380.87" y2="98.5029" gradientUnits="userSpaceOnUse">
<stop offset="0.22078" stop-color="#F1AC44"/>
<stop offset="0.813447" stop-color="white"/>
<stop offset="1" stop-color="#F1AC44" stop-opacity="0"/>
</linearGradient>
<linearGradient id="paint8_linear_22_1258" x1="388.197" y1="92.6231" x2="393.11" y2="77.7231" gradientUnits="userSpaceOnUse">
<stop stop-color="#F0AB43"/>
<stop offset="1" stop-color="white"/>
</linearGradient>
<linearGradient id="paint9_linear_22_1258" x1="397.491" y1="83.2383" x2="391.977" y2="95.4158" gradientUnits="userSpaceOnUse">
<stop offset="0.388035" stop-color="#F1AC44"/>
<stop offset="1" stop-color="white"/>
</linearGradient>
<linearGradient id="paint10_linear_22_1258" x1="396.33" y1="96.242" x2="387.325" y2="93.663" gradientUnits="userSpaceOnUse">
<stop stop-color="#F0AB43"/>
<stop offset="1" stop-color="white"/>
</linearGradient>
<linearGradient id="paint11_linear_22_1258" x1="386.701" y1="99.3731" x2="385.056" y2="89.0196" gradientUnits="userSpaceOnUse">
<stop offset="0.140194" stop-color="#F1AC44"/>
<stop offset="1" stop-color="white"/>
</linearGradient>
<linearGradient id="paint12_linear_22_1258" x1="384.361" y1="97.4872" x2="398.991" y2="93.2924" gradientUnits="userSpaceOnUse">
<stop offset="0.193643" stop-color="#F1AC44"/>
<stop offset="0.794347" stop-color="white"/>
</linearGradient>
<linearGradient id="paint13_linear_22_1258" x1="378.55" y1="91.163" x2="387.694" y2="93.6353" gradientUnits="userSpaceOnUse">
<stop offset="0.201632" stop-color="#F2B352"/>
<stop offset="1" stop-color="white"/>
</linearGradient>
<linearGradient id="paint14_linear_22_1258" x1="214.564" y1="142.011" x2="199.997" y2="142.664" gradientUnits="userSpaceOnUse">
<stop offset="0.193643" stop-color="#82CCF6"/>
<stop offset="0.70561" stop-color="white"/>
</linearGradient>
<linearGradient id="paint15_linear_22_1258" x1="212.237" y1="149.032" x2="207.955" y2="144.944" gradientUnits="userSpaceOnUse">
<stop offset="0.103048" stop-color="#82CCF7"/>
<stop offset="1" stop-color="white"/>
</linearGradient>
<linearGradient id="paint16_linear_22_1258" x1="217.186" y1="146.132" x2="211.441" y2="145.741" gradientUnits="userSpaceOnUse">
<stop offset="0.103048" stop-color="#82CCF7"/>
<stop offset="1" stop-color="white"/>
</linearGradient>
<linearGradient id="paint17_linear_22_1258" x1="205.39" y1="147.137" x2="211.384" y2="146.62" gradientUnits="userSpaceOnUse">
<stop offset="0.103048" stop-color="#82CCF7"/>
<stop offset="1" stop-color="white"/>
</linearGradient>
<linearGradient id="paint18_linear_22_1258" x1="203.484" y1="145.157" x2="207.852" y2="144.812" gradientUnits="userSpaceOnUse">
<stop offset="0.103048" stop-color="#82CCF7"/>
<stop offset="1" stop-color="white"/>
</linearGradient>
<linearGradient id="paint19_linear_22_1258" x1="217.146" y1="137.423" x2="209.042" y2="148.284" gradientUnits="userSpaceOnUse">
<stop stop-color="#43B2F0"/>
<stop offset="1" stop-color="white"/>
</linearGradient>
<linearGradient id="paint20_linear_22_1258" x1="203.76" y1="142.462" x2="209.336" y2="142.778" gradientUnits="userSpaceOnUse">
<stop offset="0.103048" stop-color="#82CCF7"/>
<stop offset="1" stop-color="white"/>
</linearGradient>
</defs>
</svg>
