<svg width="360" height="640" viewBox="0 0 360 640" fill="none" xmlns="http://www.w3.org/2000/svg">
<g clip-path="url(#clip0_166_2617)">
<rect width="360" height="640" fill="#0A0A12"/>
<g filter="url(#filter0_f_166_2617)">
<ellipse cx="320" cy="310.137" rx="40" ry="40.1368" fill="#F6B46A"/>
</g>
<g style="mix-blend-mode:screen" opacity="0.1">
<ellipse cx="171.82" cy="428.128" rx="194.82" ry="1.12776" fill="#8C8C8C"/>
</g>
<g style="mix-blend-mode:screen" opacity="0.1">
<ellipse cx="184.225" cy="439.405" rx="154.221" ry="3.38328" fill="#8C8C8C"/>
</g>
<path d="M90.0898 410.809C92.4961 408.746 91.0924 406.225 90.0898 405.223L108.996 404.148V405.223L96.1055 406.941L108.996 407.801V410.809H90.0898Z" fill="url(#paint0_linear_166_2617)"/>
<path d="M43.2353 380.293C28.8878 375.31 1.1003 378.217 -11 380.293V400.913L591.422 411.008V400.913C556.331 382.87 487.921 379.649 458.103 380.293C436.999 388.741 386.711 402.201 354.386 388.455C313.979 371.272 269.251 361.821 254.126 357.095C239.001 352.37 208.75 376.212 172.449 372.131C136.148 368.05 136.58 338.624 116.053 361.821C95.5258 385.018 61.1696 386.522 43.2353 380.293Z" fill="url(#paint1_linear_166_2617)" fill-opacity="0.6"/>
<path d="M170.368 393.191L175.168 397.904H167.648H160.129L163.329 393.191H170.368Z" fill="url(#paint2_linear_166_2617)"/>
<path d="M167.648 397.904H160.129L163.329 393.191H170.368L175.168 397.904H167.648ZM167.648 397.904V400.496" stroke="#BB5F67" stroke-opacity="0.5" stroke-width="0.429688"/>
<path d="M204.2 391.242L209 395.955H201.48H193.961L197.161 391.242H204.2Z" fill="url(#paint3_linear_166_2617)"/>
<path d="M201.48 395.955H193.961L197.161 391.242H204.2L209 395.955H201.48ZM201.48 395.955V398.547" stroke="#BB5F67" stroke-opacity="0.5" stroke-width="0.429688"/>
<path d="M326.433 395.109L329.312 398.436H324.801H320.289L322.209 395.109H326.433Z" fill="url(#paint4_linear_166_2617)"/>
<path d="M324.801 398.436H320.289L322.209 395.109H326.433L329.313 398.436H324.801ZM324.801 398.436V400.266" stroke="#BB5F67" stroke-opacity="0.5" stroke-width="0.429688"/>
<path d="M321.359 386.516L322.867 388.733H320.504H318.141L319.146 386.516H321.359Z" fill="url(#paint5_linear_166_2617)"/>
<path d="M320.504 388.733H318.141L319.146 386.516H321.359L322.867 388.733H320.504ZM320.504 388.733V389.953" stroke="#BB5F67" stroke-opacity="0.5" stroke-width="0.429688"/>
<path d="M338.546 389.953L340.055 392.171H337.691H335.328L336.334 389.953H338.546Z" fill="url(#paint6_linear_166_2617)"/>
<path d="M337.691 392.171H335.328L336.334 389.953H338.546L340.055 392.171H337.691ZM337.691 392.171V393.391" stroke="#BB5F67" stroke-opacity="0.5" stroke-width="0.429688"/>
<path d="M354.07 388.234L356.812 392.67H352.516H348.219L350.047 388.234H354.07Z" fill="url(#paint7_linear_166_2617)"/>
<path d="M352.516 392.67H348.219L350.047 388.234H354.07L356.812 392.67H352.516ZM352.516 392.67V395.109" stroke="#BB5F67" stroke-opacity="0.5" stroke-width="0.429688"/>
<path d="M348.402 393.391L352.516 397.826H346.07H339.625L342.368 393.391H348.402Z" fill="url(#paint8_linear_166_2617)"/>
<path d="M346.07 397.826H339.625L342.368 393.391H348.402L352.516 397.826H346.07ZM346.07 397.826V400.266" stroke="#BB5F67" stroke-opacity="0.5" stroke-width="0.429688"/>
<g filter="url(#filter1_f_166_2617)">
<ellipse cx="42.4441" cy="292.461" rx="21.3878" ry="21.461" fill="#11A17D"/>
</g>
<rect x="4.01794" y="448.192" width="59.188" height="82.375" fill="url(#paint9_linear_166_2617)"/>
<path d="M12.5603 451.853C12.5603 452.5 12.3032 453.731 11.8454 454.189C11.3877 454.647 10.7669 454.904 10.1196 454.904C9.47225 454.904 8.85144 454.647 8.39371 454.189C7.93598 453.731 7.67883 452.5 7.67883 451.853L10.1196 451.853H12.5603Z" fill="#15B588"/>
<path d="M71.3176 354.223L69.3434 356.429L68.0872 358.635L68.6256 450.022L74.189 448.131V359.895L71.3176 354.223Z" fill="url(#paint10_linear_166_2617)"/>
<path fill-rule="evenodd" clip-rule="evenodd" d="M4.01831 357.274H70.5285V448.192H4.01831V357.274ZM8.89882 373.139C8.89882 373.139 8.89882 361.851 19.8822 361.851C30.8655 361.851 30.8655 373.139 30.8655 373.139V446.361H8.89882V373.139ZM54.663 361.851C43.6796 361.851 43.6796 373.139 43.6796 373.139V446.361H65.6463V373.139C65.6463 373.139 65.6463 361.851 54.663 361.851Z" fill="url(#paint11_linear_166_2617)"/>
<path d="M6.4585 466.497V360.32L0.661743 358.189L0.966836 466.497H6.4585Z" fill="url(#paint12_linear_166_2617)"/>
<path d="M-31.6781 344.46V340.799L21.7131 336.528L73.2738 335.918L108.054 340.799V344.46C108.054 344.46 83.952 352.393 82.1215 353.613C80.2909 354.833 75.4094 359.41 75.4094 359.41H70.528H64.7312H51.9173H30.5608H11.6451C10.1196 359.41 6.1534 362.156 6.1534 362.156C2.73636 358.494 1.06852 361.647 0.661728 363.681C0.661728 363.681 -3.91466 354.833 -5.74522 353.613C-7.57578 352.393 -31.6781 344.46 -31.6781 344.46Z" fill="url(#paint13_linear_166_2617)"/>
<path d="M33.8976 365.394C33.2164 365.098 32.4348 365.193 31.7946 365.4C31.1904 365.595 30.8665 366.207 30.8665 366.842V427.445H34.5276V366.586C34.5276 366.096 34.3468 365.588 33.8976 365.394Z" fill="url(#paint14_linear_166_2617)"/>
<path d="M19.2727 451.853C19.2727 452.5 19.0156 453.731 18.5578 454.189C18.1001 454.647 17.4793 454.904 16.832 454.904C16.1847 454.904 15.5638 454.647 15.1061 454.189C14.6484 453.731 14.3912 452.5 14.3912 451.853L16.832 451.853H19.2727Z" fill="#15B588"/>
<path d="M25.985 451.853C25.985 452.5 25.7278 453.731 25.2701 454.189C24.8124 454.647 24.1916 454.904 23.5443 454.904C22.8969 454.904 22.2761 454.647 21.8184 454.189C21.3607 453.731 21.1035 452.5 21.1035 451.853L23.5443 451.853H25.985Z" fill="#15B588"/>
<path d="M32.6964 451.853C32.6964 452.5 32.4393 453.731 31.9815 454.189C31.5238 454.647 30.903 454.904 30.2557 454.904C29.6084 454.904 28.9875 454.647 28.5298 454.189C28.0721 453.731 27.8149 452.5 27.8149 451.853L30.2557 451.853H32.6964Z" fill="#15B588"/>
<path d="M46.1212 451.853C46.1212 452.5 45.8641 453.731 45.4064 454.189C44.9486 454.647 44.3278 454.904 43.6805 454.904C43.0332 454.904 42.4124 454.647 41.9546 454.189C41.4969 453.731 41.2397 452.5 41.2397 451.853L43.6805 451.853H46.1212Z" fill="#15B588"/>
<path d="M6.45877 331.646L-31.9829 340.799H41.2393H108.131L76.0199 331.646H41.2393H6.45877Z" fill="url(#paint15_linear_166_2617)"/>
<path d="M39.4088 451.853C39.4088 452.5 39.1517 453.731 38.694 454.189C38.2362 454.647 37.6154 454.904 36.9681 454.904C36.3208 454.904 35.6999 454.647 35.2422 454.189C34.7845 453.731 34.5273 452.5 34.5273 451.853L36.9681 451.853H39.4088Z" fill="#15B588"/>
<path d="M52.8327 451.853C52.8327 452.5 52.5755 453.731 52.1178 454.189C51.6601 454.647 51.0392 454.904 50.3919 454.904C49.7446 454.904 49.1238 454.647 48.666 454.189C48.2083 453.731 47.9512 452.5 47.9512 451.853L50.3919 451.853H52.8327Z" fill="#15B588"/>
<path d="M77.5458 458.26L72.6643 452.768L74.8 536.363H82.4273V469.548L79.6814 466.802C79.4374 466.558 78.9696 465.48 78.7662 464.972V461.311C78.7662 460.334 77.9526 458.87 77.5458 458.26Z" fill="url(#paint16_linear_166_2617)"/>
<path d="M59.5451 451.853C59.5451 452.5 59.2879 453.731 58.8302 454.189C58.3725 454.647 57.7516 454.904 57.1043 454.904C56.457 454.904 55.8362 454.647 55.3785 454.189C54.9207 453.731 54.6636 452.5 54.6636 451.853L57.1043 451.853H59.5451Z" fill="#15B588"/>
<path d="M43.6801 485.413L18.6625 483.582V461.006L0.967148 460.395L-39 464.362V539.109H-11.8467C-4.28045 539.109 0.662052 537.279 2.18752 536.363H77.8505V471.989C77.8505 471.257 76.6301 470.057 76.02 469.548V461.006C76.02 459.541 74.7996 458.361 74.1894 457.955C73.7012 456.246 74.3928 450.327 74.7996 447.887H58.3246V522.939H43.6801V485.413Z" fill="#056C6D"/>
<path d="M8.28939 464.972L-5.74487 461.006V460.701H2.79772H4.62828L18.6625 461.006V483.278L8.28939 484.193V464.972Z" fill="url(#paint17_linear_166_2617)"/>
<path d="M65.6472 447.582V365.585C67.1117 363.382 69.5117 363.239 70.5287 363.443V447.582H65.6472Z" fill="url(#paint18_linear_166_2617)"/>
<path d="M0.108643 460.515C-13.2587 460.418 -38.2888 460.237 -39 460.46V465.582L0.967144 466.497V460.521L0.108643 460.515Z" fill="url(#paint19_linear_166_2617)"/>
<path d="M43.6806 485.413L18.3579 483.582L36.9686 488.464V521.414H43.6806V485.413Z" fill="url(#paint20_linear_166_2617)"/>
<path d="M3.10266 300.527C-0.558451 312.731 7.37396 322.188 7.37396 322.188C7.37396 322.188 6.15329 322.799 5.8482 323.714C5.54311 324.629 7.37396 327.68 7.37396 327.68C7.37396 327.68 3.71314 327.985 3.10266 329.511C2.49218 331.036 3.10266 332.867 3.10266 332.867H41.8494H80.5959C80.5959 332.867 81.2061 330.731 80.5959 329.511C79.9857 328.29 76.3246 327.68 76.3246 327.68C76.3246 327.68 77.8501 324.629 77.8504 323.714C77.8507 322.799 76.3246 322.188 76.3246 322.188C76.3246 322.188 84.257 312.731 80.5959 300.527C76.9348 288.323 61.3751 282.221 59.8496 281.001C58.3241 279.781 61.3751 273.984 61.3751 273.984C52.8955 271.106 49.8771 267.493 47.0357 258.119L44.9001 257.204C47.5864 251.417 46.6284 248.819 41.8494 245C37.0704 248.819 36.1121 251.417 38.7985 257.204L36.6629 258.119C33.8214 267.493 30.8031 271.106 22.3235 273.984C22.3235 273.984 25.3744 279.781 23.849 281.001C22.3235 282.221 6.76377 288.323 3.10266 300.527Z" fill="url(#paint21_linear_166_2617)"/>
<mask id="mask0_166_2617" style="mask-type:alpha" maskUnits="userSpaceOnUse" x="2" y="245" width="80" height="88">
<path d="M3.10132 300.527C-0.559794 312.731 7.37262 322.188 7.37262 322.188C7.37262 322.188 6.15195 322.799 5.84685 323.714C5.54176 324.629 7.37262 327.68 7.37262 327.68C7.37262 327.68 3.7118 327.985 3.10132 329.511C2.49084 331.036 3.10132 332.867 3.10132 332.867H41.8481H80.5946C80.5946 332.867 81.2048 330.731 80.5946 329.511C79.9844 328.29 76.3233 327.68 76.3233 327.68C76.3233 327.68 77.8487 324.629 77.849 323.714C77.8493 322.799 76.3233 322.188 76.3233 322.188C76.3233 322.188 84.2557 312.731 80.5946 300.527C76.9334 288.323 61.3737 282.221 59.8483 281.001C58.3228 279.781 61.3737 273.984 61.3737 273.984C52.8942 271.106 49.8758 267.493 47.0344 258.119L44.8987 257.204C47.5851 251.417 46.6271 248.819 41.8481 245C37.0691 248.819 36.1108 251.417 38.7972 257.204L36.6615 258.119C33.8201 267.493 30.8017 271.106 22.3222 273.984C22.3222 273.984 25.3731 279.781 23.8476 281.001C22.3222 282.221 6.76243 288.323 3.10132 300.527Z" fill="url(#paint22_linear_166_2617)"/>
</mask>
<g mask="url(#mask0_166_2617)">
<path d="M42.4584 256.899C37.882 252.322 42.7635 246.831 43.0686 246.22L42.4584 241.339L0.35542 290.459L-1.17004 324.629L1.88088 333.477H30.8647C30.8647 333.477 30.8647 328.595 29.6443 327.985C28.424 327.375 9.20311 327.375 9.20311 326.765C9.20311 326.155 37.8818 325.85 39.1022 325.85C40.3226 325.85 41.5429 325.239 41.5429 323.714L33.9156 322.799C31.719 321.334 32.3902 301.646 33.0003 291.984C26.6544 301.503 28.9324 317.104 30.8647 323.714H22.017C17.3795 317.124 20.0847 299.815 22.017 291.984C12.9863 298.086 14.9999 315.07 17.1355 322.799H12.5592C6.15227 306.324 11.6439 293.815 16.2203 288.628C19.8814 284.479 25.4749 281.815 27.8139 281.001C25.8613 278.072 26.3902 275.103 26.8986 273.984C37.3938 270.811 39.0007 262.492 38.4922 258.729C39.2041 258.831 40.8719 258.973 41.8482 258.729C42.8245 258.485 42.6618 257.407 42.4584 256.899Z" fill="url(#paint23_linear_166_2617)"/>
</g>
<mask id="mask1_166_2617" style="mask-type:alpha" maskUnits="userSpaceOnUse" x="-32" y="331" width="141" height="10">
<path d="M6.45828 331.646L-31.9834 340.799H41.2388H108.054L76.0194 331.646H41.2388H6.45828Z" fill="url(#paint24_linear_166_2617)"/>
</mask>
<g mask="url(#mask1_166_2617)">
<path d="M34.8318 338.663L-20.0849 333.782L-38.0853 339.884L34.8318 338.663Z" fill="url(#paint25_linear_166_2617)"/>
</g>
<path d="M16.2222 327.985C16.2222 328.632 15.965 329.863 15.5073 330.321C15.0496 330.779 14.4288 331.036 13.7814 331.036C13.1341 331.036 12.5133 330.779 12.0556 330.321C11.5978 329.863 11.3407 328.632 11.3407 327.985L13.7814 327.985H16.2222Z" fill="#15B588"/>
<path d="M22.9336 327.985C22.9336 328.632 22.6765 329.863 22.2187 330.321C21.761 330.779 21.1402 331.036 20.4929 331.036C19.8455 331.036 19.2247 330.779 18.767 330.321C18.3093 329.863 18.0521 328.632 18.0521 327.985L20.4929 327.985H22.9336Z" fill="#15B588"/>
<path d="M29.646 327.985C29.646 328.632 29.3889 329.863 28.9311 330.321C28.4734 330.779 27.8526 331.036 27.2053 331.036C26.5579 331.036 25.9371 330.779 25.4794 330.321C25.0217 329.863 24.7645 328.632 24.7645 327.985L27.2053 327.985H29.646Z" fill="#15B588"/>
<path d="M36.3583 327.985C36.3583 328.632 36.1011 329.863 35.6434 330.321C35.1857 330.779 34.5649 331.036 33.9175 331.036C33.2702 331.036 32.6494 330.779 32.1917 330.321C31.734 329.863 31.4768 328.632 31.4768 327.985L33.9175 327.985H36.3583Z" fill="#15B588"/>
<path d="M43.0697 327.985C43.0697 328.632 42.8126 329.863 42.3548 330.321C41.8971 330.779 41.2763 331.036 40.629 331.036C39.9816 331.036 39.3608 330.779 38.9031 330.321C38.4454 329.863 38.1882 328.632 38.1882 327.985L40.629 327.985H43.0697Z" fill="#15B588"/>
<path d="M49.7821 327.985C49.7821 328.632 49.525 329.863 49.0672 330.321C48.6095 330.779 47.9887 331.036 47.3414 331.036C46.6941 331.036 46.0732 330.779 45.6155 330.321C45.1578 329.863 44.9006 328.632 44.9006 327.985L47.3414 327.985H49.7821Z" fill="#15B588"/>
<path d="M56.4945 327.985C56.4945 328.632 56.2374 329.863 55.7796 330.321C55.3219 330.779 54.7011 331.036 54.0538 331.036C53.4065 331.036 52.7856 330.779 52.3279 330.321C51.8702 329.863 51.613 328.632 51.613 327.985L54.0538 327.985H56.4945Z" fill="#15B588"/>
<path d="M63.2059 327.985C63.2059 328.632 62.9488 329.863 62.4911 330.321C62.0333 330.779 61.4125 331.036 60.7652 331.036C60.1179 331.036 59.4971 330.779 59.0393 330.321C58.5816 329.863 58.3245 328.632 58.3245 327.985L60.7652 327.985H63.2059Z" fill="#15B588"/>
<path d="M69.9183 327.985C69.9183 328.632 69.6612 329.863 69.2035 330.321C68.7457 330.779 68.1249 331.036 67.4776 331.036C66.8303 331.036 66.2095 330.779 65.7517 330.321C65.294 329.863 65.0369 328.632 65.0369 327.985L67.4776 327.985H69.9183Z" fill="#15B588"/>
<path d="M151.314 14.7812C145.298 7.73438 150.383 -4.48307 153.677 -9.71094H162.7C163.202 -7.63411 162.657 -2.23438 156.47 2.75C150.282 7.73438 150.454 12.8477 151.314 14.7812Z" fill="#130826"/>
<path d="M177.096 15.2109C170.737 13.4922 170.436 -2.26302 171.081 -9.92578L201.374 -11C202.749 -10.4844 205.384 -3.91016 206.53 -0.6875C203.264 -2.40625 200.586 -1.40365 199.655 -0.6875C205.155 2.75 206.53 10.6276 206.53 14.1367C206.53 10.3555 199.512 5.82943 196.003 4.03906L195.143 14.1367C189.987 11.2148 186.979 4.03906 186.12 0.816406C183.714 2.36328 189.557 16.6432 192.78 23.5898C182.253 21.8711 181.823 2.75 180.534 2.53516C179.503 2.36328 177.813 10.9141 177.096 15.2109Z" fill="#130826"/>
<path d="M217.916 2.75C211.385 1.20312 213.906 -6.20182 215.983 -9.71094L478.307 -10.5703V33.043C472.635 30.1211 473.509 36.2656 474.655 39.7031C484.537 70.4258 470.143 76.2266 471.217 74.293C472.077 72.7461 466.132 59.8984 463.053 53.668C465.345 58.3229 468.553 68.9648 463.053 74.293C457.553 79.6211 458.899 87.9714 460.26 91.4805C447.713 90.1055 443.717 68.707 443.287 58.1797L437.057 65.6992V49.3711C436.699 52.3073 435.252 58.1797 432.33 58.1797C429.409 58.1797 431.113 48.1536 432.33 43.1406C430.97 42.9974 428.291 42.1094 428.463 39.7031C428.635 37.2969 426.386 36.6953 425.241 36.6953C427.303 47.0078 422.806 52.3073 420.299 53.668C422.018 37.3398 408.912 31.3242 411.276 33.043C413.166 34.418 412.063 41.9232 411.276 45.5039C409.901 38.9727 395.234 34.4753 388.073 33.043C384.807 37.168 397.311 47.2227 403.971 51.7344C399.03 50.1589 389.748 47.4805 392.155 49.3711C394.561 51.2617 393.157 54.599 392.155 56.0312C385.087 54.7223 378.816 46.1035 374.994 38.9995C376.263 46.6276 376.167 59.7945 375.827 67.6328C369.295 65.2266 365.657 48.0104 364.655 39.7031C364.153 45.3607 362.549 56.5469 360.143 56.0312C357.737 55.5156 355.989 44.931 355.416 39.7031L348.756 61.4023C341.022 49.7148 337.656 40.0612 336.94 36.6953C336.94 39.6172 334.505 46.3633 333.287 49.3711C337.584 57.9648 332.643 85.0352 328.991 83.3164C326.069 81.9414 321.901 72.2878 320.182 67.6328V80.5234C307.119 67.9766 308.294 57.3919 310.514 53.668C308.366 55.6732 304.284 59.3828 305.143 58.1797C306.002 56.9766 303.782 45.3607 302.565 39.7031C299.815 44 297.409 47.9388 296.549 49.3711V27.8867C295.475 31.5391 292.51 38.4141 289.244 36.6953C285.162 34.5469 292.037 10.6992 289.244 10.6992C287.01 10.6992 283.873 20.0091 282.584 24.6641C281.897 19.3359 275.28 15.2826 272.057 13.9219L271.412 25.7383C269.192 21.2982 264.108 12.5039 261.53 12.8477C258.952 13.1914 264.752 26.4544 267.975 33.043C263.85 31.4961 258.952 18.9349 257.018 12.8477C257.806 12.7044 258.823 12.418 256.588 12.418C254.354 12.418 254.368 21.2982 254.655 25.7383C246.52 25.0875 245.829 7.18774 246.568 -3.10473C245.672 -1.10757 242.53 0.942796 240.69 1.89062C242.409 -3.60938 239.974 -6.84635 238.541 -7.77734C238.327 -1.76172 236.651 10.6992 231.666 12.418C226.682 14.1367 225.866 20.7253 226.08 23.8047C221.354 22.3008 224.577 10.2695 229.088 5.54297C233.6 0.816406 227.584 -9.71094 227.584 -7.77734C227.584 -6.23047 224.29 -3.40885 222.643 -2.19141C223.646 -4.33984 224.877 -8.46484 221.784 -7.77734C218.69 -7.08984 217.916 -0.472656 217.916 2.75Z" fill="#21103F"/>
<path d="M266.041 -6.27344C257.103 -2.49219 258.736 7.61979 260.669 12.2031C262.044 12.2031 264.823 15.2109 266.041 16.7148C262.087 6.23047 264.393 -2.97917 266.041 -6.27344Z" fill="url(#paint26_linear_166_2617)"/>
<path d="M291.822 8.33594C291.385 8.68181 290.909 9.1244 290.42 9.66034C288.341 13.711 287.081 26.0682 286.666 32.8281C283.065 21.4258 287.06 13.3412 290.42 9.66034C290.852 8.81894 291.32 8.33594 291.822 8.33594Z" fill="url(#paint27_linear_166_2617)"/>
<path d="M311.932 15.8207C311.582 18.6056 315.084 27.6055 317.173 32.3983C305.67 23.2587 309.885 17.8176 311.932 15.8207C311.99 15.3598 312.154 15.0692 312.447 14.996C313.134 14.8242 312.676 15.095 311.932 15.8207Z" fill="url(#paint28_linear_166_2617)"/>
<path d="M366.379 34.7617C364.832 34.7617 361.868 32.3268 360.578 31.1094C355.938 38.1562 358.645 50.9466 360.578 56.4609C360.578 38.4141 368.313 34.7617 366.379 34.7617Z" fill="url(#paint29_linear_166_2617)"/>
<path d="M319.208 49.1965C317.852 52.2893 316.061 65.0985 315.246 71.9297C307.143 58.3651 316.517 51.3006 319.208 49.1965C319.402 48.7552 319.586 48.5117 319.758 48.5117C320.067 48.5117 319.799 48.7346 319.208 49.1965Z" fill="url(#paint30_linear_166_2617)"/>
<path d="M346.676 20.6431C343.722 24.4868 345.77 46.1553 347.257 57.1055C345.109 54.3841 340.297 47.0078 338.234 39.2734C336.271 31.912 342.716 24.0965 346.676 20.6431C346.852 20.4144 347.045 20.2488 347.257 20.1523C347.071 20.3043 346.877 20.4681 346.676 20.6431Z" fill="url(#paint31_linear_166_2617)"/>
<path d="M80.8625 571.638C78.254 568.206 68.7926 569.636 64.3879 570.78L64.5595 573.869C68.5066 576.1 84.1231 575.928 80.8625 571.638Z" fill="url(#paint32_linear_166_2617)"/>
<path d="M64.5597 572.496C64.3881 570.723 63.9076 566.936 63.3584 565.975" stroke="black" stroke-width="1.02966" stroke-linecap="round"/>
<path d="M57.5229 569.922C60.5433 568.961 63.2433 570.094 64.2157 570.78V571.81C61.47 574.384 53.7475 571.123 57.5229 569.922Z" fill="#084448"/>
<rect x="150.738" y="563.906" width="9.26695" height="6.17797" fill="url(#paint33_linear_166_2617)"/>
<rect x="85.1824" y="552.923" width="9.26695" height="6.17797" fill="url(#paint34_linear_166_2617)"/>
<ellipse cx="72.2819" cy="555.679" rx="8.4089" ry="2.57415" fill="url(#paint35_linear_166_2617)"/>
<ellipse cx="76.4007" cy="548.128" rx="5.66314" ry="1.88771" fill="url(#paint36_linear_166_2617)"/>
<ellipse cx="62.3286" cy="546.755" rx="4.29025" ry="1.54449" fill="url(#paint37_linear_166_2617)"/>
<ellipse cx="90.8158" cy="575.242" rx="7.03602" ry="2.57415" fill="url(#paint38_linear_166_2617)"/>
<ellipse cx="144.358" cy="576.523" rx="6.34958" ry="2.23093" fill="url(#paint39_linear_166_2617)"/>
<rect x="32.9833" y="554.134" width="1.37288" height="3.77542" fill="url(#paint40_linear_166_2617)"/>
<path d="M37.1018 551.217C36.8273 553.688 34.8137 554.763 33.8412 554.992C32.8116 554.992 30.5807 553.962 29.7226 551.217C29.0362 549.02 31.9535 545.839 33.498 544.524C34.8137 545.725 37.3764 548.745 37.1018 551.217Z" fill="#F6AD41"/>
<path d="M49.1138 553.104C49.1138 554.203 47.5121 555.049 46.7113 555.335C49.6287 555.164 55.2575 555.301 54.4337 557.223C53.61 559.145 49.2854 559.626 47.2261 559.626C43.2791 559.397 35.4537 558.596 35.7282 557.223C36.0715 555.507 39.1604 553.791 40.5333 553.104C41.9062 552.418 49.1138 551.731 49.1138 553.104Z" fill="url(#paint41_linear_166_2617)"/>
<path d="M35.3929 563.164C35.3929 564.262 33.7912 565.109 32.9903 565.395C35.9077 565.223 41.5365 565.361 40.7128 567.283C39.8891 569.205 35.5645 569.685 33.5052 569.685C29.5581 569.456 21.7327 568.656 22.0073 567.283C22.3505 565.567 25.4395 563.85 26.8124 563.164C28.1853 562.478 35.3929 561.791 35.3929 563.164Z" fill="url(#paint42_linear_166_2617)"/>
<path d="M118.768 556.371C118.768 557.092 117.744 557.649 117.232 557.837C119.097 557.724 122.695 557.814 122.168 559.077C121.642 560.339 118.878 560.655 117.561 560.655C115.039 560.505 110.037 559.979 110.212 559.077C110.432 557.949 112.406 556.822 113.284 556.371C114.161 555.92 118.768 555.469 118.768 556.371Z" fill="#105587"/>
<path d="M157.009 552.744C157.009 553.672 158.266 554.387 158.895 554.629C156.604 554.484 152.184 554.6 152.831 556.223C153.478 557.847 156.874 558.253 158.491 558.253C161.591 558.059 167.736 557.383 167.52 556.223C167.251 554.774 164.825 553.324 163.747 552.744C162.669 552.164 157.009 551.585 157.009 552.744Z" fill="#39728A"/>
<path d="M124.26 569.457C115.5 570.394 117.97 573.909 120.299 575.55C121.604 574.425 125.891 572.503 126.589 573.441C127.288 574.378 124.803 576.252 124.726 576.955C126.512 577.346 130.783 577.893 133.578 576.955C136.374 576.018 136.762 573.284 136.607 572.035C136.141 570.785 133.019 568.52 124.26 569.457Z" fill="url(#paint43_linear_166_2617)"/>
<path d="M81.707 560.46C75.8674 561.084 77.5137 563.428 79.0668 564.521C79.9365 563.771 82.7941 562.49 83.2601 563.115C83.726 563.74 82.0694 564.99 82.0176 565.459C83.2083 565.719 86.0556 566.083 87.9193 565.459C89.783 564.834 90.0418 563.011 89.9383 562.178C89.6277 561.345 87.5465 559.835 81.707 560.46Z" fill="#084448"/>
<path d="M41.6631 572.491C35.1747 573.194 37.0039 575.83 38.7295 577.06C39.6959 576.217 42.8711 574.775 43.3887 575.478C43.9064 576.181 42.0658 577.587 42.0082 578.115C43.3312 578.407 46.4949 578.818 48.5657 578.115C50.6364 577.412 50.924 575.361 50.809 574.424C50.4639 573.487 48.1515 571.788 41.6631 572.491Z" fill="url(#paint44_linear_166_2617)"/>
<path d="M108.149 571.295C108.972 571.57 109.75 570.494 110.036 569.922C110.666 570.38 111.924 571.021 111.924 569.922C111.924 568.824 109.407 568.549 108.149 568.549C107.805 569.35 107.325 571.021 108.149 571.295Z" fill="#084448"/>
<path d="M140.411 560.827C140.297 559.683 139.965 557.189 139.553 556.365" stroke="black" stroke-width="1.02966" stroke-linecap="round"/>
<path d="M136.292 554.134C136.43 555.919 138.638 556.479 139.724 556.537C140.125 556.537 140.96 556.056 141.097 554.134C141.235 552.212 139.324 550.359 138.352 549.672C137.608 550.416 136.155 552.349 136.292 554.134Z" fill="#F6AD41"/>
<path d="M133.032 562.371C133.307 560.586 136.465 560.712 138.009 560.998L139.039 563.229C136.922 563.687 132.758 564.156 133.032 562.371Z" fill="#C86628"/>
<path d="M139.038 564.087C141.098 566.421 143.443 564.488 144.358 563.229C145.788 563.687 148.58 564.156 148.305 562.371C147.962 560.14 138.009 560.312 138.009 560.827C138.009 561.239 138.695 563.172 139.038 564.087Z" fill="url(#paint45_linear_166_2617)"/>
<path d="M194.812 576.958C199.754 577.095 198.244 574.155 196.871 572.668C198.518 573.766 200.875 573.126 201.848 572.668C202.591 571.924 203.323 570.128 200.303 568.892C196.528 567.348 184.687 569.236 184.343 571.295C184 573.354 188.634 576.787 194.812 576.958Z" fill="url(#paint46_linear_166_2617)"/>
<path d="M215.563 577.128C217.336 577.177 216.794 576.126 216.301 575.594C216.892 575.986 217.738 575.757 218.087 575.594C218.354 575.328 218.616 574.685 217.533 574.243C216.178 573.691 211.931 574.366 211.807 575.103C211.684 575.839 213.346 577.067 215.563 577.128Z" fill="url(#paint47_linear_166_2617)"/>
<path d="M171.301 546.926C171.129 548.242 170.889 551.148 171.301 552.246" stroke="black" stroke-width="1.02966" stroke-linecap="round"/>
<path d="M96.9939 549.157C97.3943 551.274 98.3668 555.644 99.0532 556.193" stroke="black" stroke-width="1.02966" stroke-linecap="round"/>
<path d="M97.165 549.501C95.6777 549.272 93.3896 547.613 96.1353 542.808C97.6226 544.123 99.9108 547.304 97.165 549.501Z" fill="#F6AD41"/>
<path d="M107.462 553.104C108.972 552.418 108.091 551.674 107.462 551.388C110.723 551.388 111.238 550.359 110.723 549.672C110.208 548.986 101.113 548.471 101.113 550.359C101.113 552.246 105.574 553.962 107.462 553.104Z" fill="#084448"/>
<path d="M113.297 546.412C115.768 546.686 115.814 545.268 115.528 544.524C117.862 544.524 118.102 543.609 117.93 543.151C114.773 541.366 108.949 542.751 106.432 543.666C107.691 544.467 110.826 546.137 113.297 546.412Z" fill="url(#paint48_linear_166_2617)"/>
<path d="M132.003 542.979C134.886 543.391 135.264 542.808 135.092 542.464C136.694 542.636 139.519 542.705 138.009 541.606C136.499 540.508 131.088 541.149 128.571 541.606C128.514 541.892 129.12 542.567 132.003 542.979Z" fill="url(#paint49_linear_166_2617)"/>
<path d="M34.5064 555.682C41.6454 562.135 41.4852 570.383 40.5127 573.701L38.625 569.068L16.6589 545.042C18.5466 543.841 25.5827 547.616 34.5064 555.682Z" fill="url(#paint50_linear_166_2617)"/>
<path d="M5.5042 527.366C0.0126734 533.819 -1.58902 547.216 -1.70343 553.108C-2.21826 553.108 -5.99368 552.421 -7.70978 551.735C-9.08267 551.186 -10.6844 550.133 -11.3136 549.676V561.002L11.3389 561.86C11.6822 561.345 12.3343 560.007 12.197 558.771C12.0254 557.226 10.4809 555.51 8.9364 554.481C7.70081 553.657 2.81564 553.222 0.527504 553.108C0.584707 551.735 0.836402 547.582 1.38555 541.953C2.07199 534.917 6.01903 528.739 6.53386 528.224C7.04869 527.71 14.5995 529.94 21.2923 530.455C26.6466 530.867 27.7563 534.402 27.6419 536.118C27.8135 534.631 27.6076 530.627 25.411 526.508C22.6652 521.36 15.286 516.383 9.96606 514.324C5.71013 512.676 -5.99368 513.065 -11.3136 513.466V516.383C-10.9704 516.383 -7.70978 518.099 -7.19495 518.614C-6.78309 519.026 -9.76911 518.786 -11.3136 518.614V526.508H-9.5975C-9.08267 526.508 -3.59114 524.449 -1.70343 524.449C-0.193259 524.449 3.73089 526.394 5.5042 527.366Z" fill="#2C1750"/>
<path d="M1.38558 522.39C0.561856 522.115 -3.87713 522.046 -5.99365 522.046L-4.62077 513.123C1.55719 512.711 7.67796 513.752 9.96609 514.324C23.1801 518.786 26.0974 528.396 26.7839 530.455C25.9258 529.426 16.6589 526.337 15.8008 526.337C14.9428 526.337 7.22033 526.165 6.36228 525.822C5.50423 525.479 2.41525 522.733 1.38558 522.39Z" fill="url(#paint51_linear_166_2617)"/>
<path d="M26.6123 530.112C18.3751 516.658 2.47251 513.409 -4.4491 513.466C-1.01689 512.368 6.36234 513.466 9.62294 514.152C19.9195 516.898 25.2395 525.936 26.6123 530.112Z" fill="url(#paint52_linear_166_2617)"/>
<path d="M2.15461 518.431C1.0006 518.42 -0.0475394 518.428 -0.845337 518.443C-0.0718499 518.271 0.963934 518.285 2.15461 518.431C5.38605 518.459 9.44763 518.623 11.1674 519.129C14.0847 519.987 17.3453 522.561 18.2034 523.419C17.8957 523.133 8.0965 519.156 2.15461 518.431Z" fill="#281456"/>
<path d="M3.44496 554.652C2.34665 554.652 -7.08047 558.313 -11.6567 560.144V564.091C-11.0847 564.434 -9.66606 565.189 -8.56776 565.464C-7.19487 565.807 14.0848 567.18 14.9428 566.15C15.8009 565.121 11.1674 558.943 10.3094 557.913C9.45131 556.883 4.81784 554.652 3.44496 554.652Z" fill="url(#paint53_linear_166_2617)"/>
<path d="M12.7119 575.589C10.1034 581.492 -4.84958 583.426 -12 583.654V560.386C-0.0495625 564.398 14.842 570.768 12.7119 575.589Z" fill="#2C1750"/>
<path d="M10.1377 584.856L7.7352 584.169C12.7119 570.269 24.553 562.032 24.7246 561.86C24.8962 561.689 19.0615 555.339 16.8305 556.197C14.5996 557.055 3.61655 549.333 6.70554 546.587C9.79452 543.841 17.0021 550.534 17.6886 549.847C18.375 549.161 15.8009 547.616 15.286 546.587C14.8742 545.763 15.4577 545.1 15.8009 544.871C24.0382 546.244 36.3941 561.517 39.4831 565.979C41.5945 569.029 40.8495 572.88 39.9456 575.115C39.8494 575.452 39.6968 575.783 39.4831 576.104C39.633 575.829 39.7916 575.495 39.9456 575.115C40.6221 572.744 38.5194 570.077 35.3644 568.725C32.4814 567.489 27.7564 564.091 25.7543 562.547C20.1255 564.88 12.9979 578.392 10.1377 584.856Z" fill="#2D1952"/>
<path d="M73.579 213.594C72.8915 213.594 70.8576 214.74 69.9267 215.313C69.5686 214.31 69.0673 212.391 69.9267 212.734C70.786 213.078 71.8603 212.018 72.29 211.445C71.8603 210.944 70.786 209.77 69.9267 209.082C69.0673 208.395 69.5686 206.074 69.9267 205L75.2977 211.445C75.5842 211.374 76.329 211.274 77.0165 211.445C77.8759 211.66 74.4384 213.594 73.579 213.594Z" fill="#A47180"/>
<path d="M68.207 252.051L70.3556 250.547C67.5626 249.473 67.5625 243.457 67.9922 244.961C68.3359 246.164 70.8567 247.611 72.0742 248.184C72.289 247.825 72.8906 247.195 73.5781 247.539C74.2656 247.883 73.435 248.47 72.9337 249.043C73.965 249.043 76.8008 251.263 78.0898 252.051C76.0273 252.566 72.5039 251.836 71 251.406L69.9258 253.34L68.207 252.051Z" fill="#514A83"/>
<path d="M11.7034 230.352H5.47292C4.09792 229.664 6.04584 228.633 7.19167 228.203C6.90522 226.484 6.71902 223.004 8.26589 222.832C9.81277 222.66 9.7698 226.341 9.55496 228.203C11.6175 228.203 11.8466 229.635 11.7034 230.352Z" fill="#514A83"/>
<path d="M216.778 378.07V487.897L228.062 489.151L229.065 368.541L216.778 378.07Z" fill="url(#paint54_linear_166_2617)"/>
<path d="M284.48 336.445V313.377H374.248V338.451L284.48 336.445Z" fill="#2C1750"/>
<path d="M227.31 341.711V321.401L284.481 313.377V336.445L227.31 341.711Z" fill="#3C488A"/>
<path d="M247.621 272.505C221.744 284.741 220.958 309.031 223.8 319.646L288.492 314.129L373.997 317.138V307.86C368.381 274.762 336.218 263.478 321.34 261.723L270.94 262.028C265.304 264.37 257.692 267.743 247.621 272.505Z" fill="url(#paint55_linear_166_2617)"/>
<path d="M215.775 348.231V330.678L227.31 321.651V341.711L215.775 348.231Z" fill="#F7BA71"/>
<path d="M193.208 362.022L185.936 375.813L215.775 378.571L228.062 369.043L284.982 366.535V498.178H374.498V342.464H280.719L193.208 362.022Z" fill="#251851"/>
<path d="M216.026 501.437L211.764 498.93L218.785 494.667L373.747 497.676V501.437H216.026Z" fill="#2C1750"/>
<path d="M281.221 245.926C279.616 249.336 274.367 254.702 271.943 256.959L300.027 255.956L303.036 240.158V216.588L298.773 187C288.743 193.269 289.746 201.042 290.749 203.549C291.552 205.555 293.591 207.06 294.511 207.561V208.815C287.49 208.815 283.561 213.997 282.475 216.588L283.979 220.349H285.484C285.818 220.517 286.587 221.001 286.988 221.603C287.49 222.355 287.991 224.361 288.242 227.12C288.443 229.326 290.499 230.546 291.502 230.881V236.397C287.49 236.397 283.227 241.663 281.221 245.926Z" fill="#F6BB76"/>
<path d="M216.277 548.829V501.437L374.248 497.175V555.599L216.277 548.829Z" fill="url(#paint56_linear_166_2617)"/>
<path d="M307.047 501.688H312.062V503.694C312.062 504.802 311.164 505.7 310.056 505.7H309.053C307.945 505.7 307.047 504.802 307.047 503.694V501.688Z" fill="#291853"/>
<path d="M227.811 325.162H231.823V327.168C231.823 328.276 230.925 329.174 229.817 329.174C228.709 329.174 227.811 328.276 227.811 327.168V325.162Z" fill="#291853"/>
<path d="M232.826 325.162H236.838V327.168C236.838 328.276 235.94 329.174 234.832 329.174C233.724 329.174 232.826 328.276 232.826 327.168V325.162Z" fill="#291853"/>
<path d="M237.841 324.66H241.853V326.666C241.853 327.774 240.955 328.672 239.847 328.672C238.739 328.672 237.841 327.774 237.841 326.666V324.66Z" fill="#291853"/>
<path d="M243.859 324.159H247.871V326.165C247.871 327.273 246.973 328.171 245.865 328.171C244.757 328.171 243.859 327.273 243.859 326.165V324.159Z" fill="#291853"/>
<path d="M249.376 323.156H253.388V325.162C253.388 326.27 252.49 327.168 251.382 327.168C250.274 327.168 249.376 326.27 249.376 325.162V323.156Z" fill="#291853"/>
<path d="M254.892 322.654H258.904V324.66C258.904 325.768 258.005 326.666 256.898 326.666C255.79 326.666 254.892 325.768 254.892 324.66V322.654Z" fill="#291853"/>
<path d="M260.408 321.651H264.42V323.657C264.42 324.765 263.522 325.663 262.414 325.663C261.307 325.663 260.408 324.765 260.408 323.657V321.651Z" fill="#291853"/>
<path d="M265.925 321.15H269.937V323.156C269.937 324.264 269.039 325.162 267.931 325.162C266.823 325.162 265.925 324.264 265.925 323.156V321.15Z" fill="#291853"/>
<path d="M272.445 320.147H276.457V322.153C276.457 323.261 275.558 324.159 274.451 324.159C273.343 324.159 272.445 323.261 272.445 322.153V320.147Z" fill="#291853"/>
<path d="M277.96 319.645H281.972V321.651C281.972 322.759 281.074 323.657 279.966 323.657C278.859 323.657 277.96 322.759 277.96 321.651V319.645Z" fill="#291853"/>
<path d="M275.454 517.987H175.406V546.572L275.454 545.82V517.987Z" fill="url(#paint57_linear_166_2617)"/>
<path d="M187.441 523.002V546.823L263.668 545.318V521.748L187.441 523.002Z" stroke="black" stroke-width="0.501495"/>
<path d="M187.441 523.002V546.823L263.668 545.318V521.748L187.441 523.002Z" fill="url(#paint58_linear_166_2617)" stroke="black" stroke-width="0.501495"/>
<rect x="275.453" y="510.715" width="6.01794" height="36.1076" fill="url(#paint59_linear_166_2617)"/>
<rect x="275.453" y="510.715" width="3.00897" height="36.1076" fill="url(#paint60_linear_166_2617)"/>
<path d="M173.399 552.088V547.324L279.465 545.068L373.496 554.847V574.656L204.993 571.145L173.399 552.088Z" fill="#2C1752"/>
<path d="M204.491 654.143V570.142L375 554.596V654.143H204.491Z" fill="url(#paint61_linear_166_2617)"/>
<path d="M256.647 271.251C231.973 279.275 227.56 305.938 228.563 317.89L237.339 316.887C235.735 292.615 249.375 276.015 256.647 271.251Z" fill="#535988"/>
<path d="M264.922 314.129L250.629 315.634C250.128 313.126 249.426 303.798 250.629 290.559C251.833 277.319 265.507 266.654 272.193 262.977L276.456 261.723L280.468 262.977C263.818 268.593 263.083 300.004 264.922 314.129Z" fill="#38468A"/>
<path d="M310.809 311.12H298.522C298.522 309.315 300.528 280.111 301.531 265.735C309.354 272.555 310.976 298.833 310.809 311.12Z" fill="#3B478B"/>
<path d="M301.029 216.087C295.011 216.254 282.875 216.638 282.474 216.839L284.229 220.35L301.029 219.347V216.087Z" fill="#301D3F" stroke="#25183F" stroke-width="0.501495"/>
<path d="M253.136 315.132L248.121 316.386C247.453 314.129 247.219 304.55 250.629 289.305C254.039 274.059 266.927 265.4 272.945 262.976C248.673 275.815 249.709 303.347 253.136 315.132Z" fill="#291650"/>
<path d="M279.717 262.475C261.863 272.705 262.248 302.427 264.672 314.881H267.681C262.265 292.414 273.114 269.579 279.717 262.475Z" fill="#2D1A4C"/>
<path d="M270.94 312.875L266.678 313.627C265.675 311.12 265.173 301.341 266.678 289.556C267.881 280.128 272.529 272.505 274.451 270.248C271.843 275.664 270.857 301.424 270.94 312.875Z" fill="#F8C698"/>
<path d="M293.006 311.12H284.481H283.227C283.06 303.765 282.826 287.901 283.227 283.287C283.628 278.673 287.908 267.49 289.997 262.475H294.511V264.481C295.714 270.298 294.009 297.998 293.006 311.12Z" fill="#334183"/>
<path d="M280.719 311.872L277.96 312.374C277.96 310.368 277.71 299.335 279.214 285.042C280.418 273.608 285.316 265.651 287.489 263.478H290.498C283.276 273.909 280.635 300.422 280.719 311.872Z" fill="#2C1750"/>
<path d="M284.48 311.872L280.719 311.622C280.719 295.975 282.725 285.711 283.728 282.535L284.48 311.872Z" fill="#F9C997"/>
<path d="M270.689 259.717V262.726C287.138 265.133 310.976 263.06 320.839 261.723V257.46C287.539 255.655 273.531 258.212 270.689 259.717Z" fill="url(#paint62_linear_166_2617)"/>
<path d="M270.438 257.711V260.218L320.838 258.714C320.588 258.296 318.933 255.655 314.319 248.433C309.705 241.212 306.044 239.072 304.791 238.905V230.881C307.599 227.27 309.471 221.687 310.056 219.346C311.812 219.681 314.871 219.497 313.065 216.087C311.26 212.677 305.292 210.32 302.534 209.567V208.564C302.534 208.063 305.794 201.293 305.543 197.531C305.342 194.522 301.113 189.424 299.023 187.251C298.221 188.053 297.352 190.594 297.017 191.764V209.567L301.28 215.334V219.346L294.51 219.848C295.914 226.267 297.937 228.54 298.773 228.875V230.881H296.265V237.4C291.651 238.203 285.483 249.102 282.976 254.451C279.766 254.852 273.28 256.791 270.438 257.711Z" fill="#2C1750"/>
<path d="M289.746 605.247C279.917 605.849 293.842 620.877 302.033 628.316H308.803C306.546 620.375 299.575 604.645 289.746 605.247Z" fill="url(#paint63_linear_166_2617)"/>
<path d="M258.653 626.31C235.384 629.118 268.349 637.008 287.74 640.602L294.51 630.322C292.253 627.814 281.923 623.501 258.653 626.31Z" fill="url(#paint64_linear_166_2617)"/>
<path d="M353.687 603.993C374.348 605.197 345.078 617.032 327.86 622.799L323.597 616.781C325.018 612.017 333.025 602.789 353.687 603.993Z" fill="url(#paint65_linear_166_2617)"/>
<path d="M286.487 584.184C276.858 586.391 290.499 599.981 298.523 606.501H302.033C300.863 598.142 296.115 581.978 286.487 584.184Z" fill="url(#paint66_linear_166_2617)"/>
<path d="M239.596 561.868C230.97 560.263 254.056 589.283 266.677 603.993L270.187 598.477C263.584 586.942 248.222 563.472 239.596 561.868Z" fill="url(#paint67_linear_166_2617)"/>
<path d="M226.056 317.639L214.02 327.92V333.186L226.056 323.407L284.48 316.386L374.248 317.389V311.12H284.48L226.056 317.639Z" fill="url(#paint68_linear_166_2617)"/>
<path d="M238.092 635.838C234.164 629.904 227.962 618.336 234.582 619.539C228.815 617.617 221.443 618.185 238.092 635.838Z" fill="#414578"/>
<path d="M203.378 600.841C197.022 603.055 210.904 617.325 218.786 624.304C192.842 609.759 197.518 602.693 203.378 600.841C203.492 600.801 203.614 600.765 203.741 600.733C203.62 600.767 203.499 600.803 203.378 600.841Z" fill="#414578"/>
<path d="M202.988 631.826C194.88 625.641 179.969 612.218 185.184 608.005C180.587 610.262 177.712 618.185 202.988 631.826Z" fill="#414578"/>
<path d="M227.059 610.513C228.664 592.258 238.092 587.527 242.605 587.444C238.977 588.532 234.391 602.01 232.002 610.513L230.82 614.274L227.059 610.513Z" fill="url(#paint69_linear_166_2617)"/>
<path d="M264.67 603.492C257.85 608.306 272.193 618.536 280.217 623.05L285.733 617.533C281.554 610.847 271.491 598.677 264.67 603.492Z" fill="url(#paint70_linear_166_2617)"/>
<path d="M267.18 580.172C262.968 581.777 271.108 592.208 275.705 597.223L283.228 595.217C279.634 589.533 271.393 578.567 267.18 580.172Z" fill="url(#paint71_linear_166_2617)"/>
<path d="M324.85 573.653C316.425 574.255 312.982 594.465 312.313 604.495L316.826 607.754C323.012 596.136 333.275 573.051 324.85 573.653Z" fill="url(#paint72_linear_166_2617)"/>
<path d="M291.25 560.363C282.022 559.761 291.25 574.154 297.017 581.426H307.548C305.96 574.656 300.477 560.965 291.25 560.363Z" fill="url(#paint73_linear_166_2617)"/>
<g filter="url(#filter2_d_166_2617)">
<path d="M261.412 542.811V528.769C261.412 531.377 278.295 561.784 286.737 576.662C280.318 575.859 267.179 553.76 261.412 542.811Z" fill="url(#paint74_linear_166_2617)" shape-rendering="crispEdges"/>
</g>
<path d="M365.973 556.1C348.922 561.516 337.806 586.274 334.379 597.975L341.149 596.471L365.973 556.1Z" fill="url(#paint75_linear_166_2617)"/>
<path d="M363.466 588.948C354.64 586.742 335.717 600.232 327.358 607.253L331.12 611.766L363.466 588.948Z" fill="url(#paint76_linear_166_2617)"/>
<path d="M309.304 578.166L318.582 583.933L374.75 572.65V504.948H369.484L366.475 525.259L362.714 504.948L352.935 510.966V527.766L348.672 510.966L339.896 516.733L345.914 543.563L336.385 521.999L330.869 527.766L339.896 554.345L328.612 534.787L327.108 541.056C335.332 556.301 333.042 562.453 330.869 563.623L318.582 547.324C311.16 551.336 309.304 569.557 309.304 578.166Z" fill="url(#paint77_linear_166_2617)"/>
<path d="M214.02 332.935L226.307 322.905L284.48 316.636H374.248" stroke="#32235C" stroke-width="1.00299"/>
<path d="M219.788 394.368C219.788 392.983 220.91 391.861 222.295 391.861C223.68 391.861 224.803 392.983 224.803 394.368V487.145H219.788V394.368Z" fill="#181033"/>
<path d="M228.814 368.541L228.062 489.903L285.233 487.396V366.535L228.814 368.541Z" fill="url(#paint78_linear_166_2617)"/>
<path d="M240.599 418.941L234.832 423.204V487.897L278.462 486.894V420.947L275.978 418.941C276.178 402.175 272.524 387.462 259.907 387.347C237.841 387.147 237.841 408.326 240.599 418.941Z" fill="#181033"/>
<mask id="mask2_166_2617" style="mask-type:alpha" maskUnits="userSpaceOnUse" x="234" y="387" width="45" height="101">
<path d="M240.6 418.941L234.833 423.204V487.897L278.463 486.894V420.947L275.978 418.941C276.178 402.175 272.524 387.462 259.907 387.347C237.841 387.147 237.841 408.326 240.6 418.941Z" fill="#F6B870"/>
</mask>
<g mask="url(#mask2_166_2617)">
<path d="M250.63 431.228C251.031 432.432 250.463 469.007 250.128 487.145H257.901L258.654 418.44L254.14 397.879L238.343 390.106L235.836 397.879C236.588 397.377 238.845 396.675 241.854 397.879C245.615 399.383 248.875 406.153 248.875 409.413V427.718C248.875 428.721 250.128 429.724 250.63 431.228Z" fill="#F6B870"/>
</g>
<mask id="mask3_166_2617" style="mask-type:alpha" maskUnits="userSpaceOnUse" x="234" y="387" width="45" height="101">
<path d="M240.6 418.941L234.833 423.204V487.897L278.463 486.894V420.947L275.978 418.941C276.178 402.175 272.524 387.462 259.907 387.347C237.841 387.147 237.841 408.326 240.6 418.941Z" fill="url(#paint79_linear_166_2617)"/>
</mask>
<g mask="url(#mask3_166_2617)">
<path d="M253.346 415.512C253.346 401.839 245.846 397.415 242.096 396.913L239.346 387.864L268.846 381.329C271.18 386.524 274.996 397.315 271.596 398.923C268.196 400.532 265.18 409.815 264.096 414.255L262.846 487.145H255.096C255.43 469.551 256.096 433.961 256.096 432.352C256.096 430.744 254.263 427.828 253.346 426.571V415.512Z" fill="url(#paint80_linear_166_2617)"/>
</g>
<path d="M284.48 348.231V335.192L374.248 336.446L374.499 347.98L284.48 348.231Z" fill="url(#paint81_linear_166_2617)"/>
<path d="M227.56 341.711L215.775 348.482L193.798 361.718L286.235 348.482V335.192L227.56 341.711Z" fill="url(#paint82_linear_166_2617)"/>
<path d="M337.137 488.398L292.253 487.145L291.752 412.422C291.501 400.47 295.412 376.715 313.065 377.317C330.718 377.919 336.468 393.783 337.137 401.64V488.398Z" fill="#181033"/>
<mask id="mask4_166_2617" style="mask-type:alpha" maskUnits="userSpaceOnUse" x="291" y="376" width="47" height="113">
<path d="M337.14 488.399L292.256 487.145L291.754 412.422C291.503 400.47 295.415 376.716 313.068 377.317C330.72 377.919 336.471 393.783 337.14 401.64V488.399Z" fill="url(#paint83_linear_166_2617)" stroke="black" stroke-width="1.00299"/>
</mask>
<g mask="url(#mask4_166_2617)">
<path d="M311.563 407.407C310.159 400.186 301.617 393.198 297.521 390.607L293.008 383.837L304.793 367.037L338.894 378.32C335.05 388.016 327.159 408.109 326.357 410.918C325.555 413.726 325.187 465.079 325.103 490.405H313.569C313.485 465.748 312.967 414.629 311.563 407.407Z" fill="url(#paint84_linear_166_2617)"/>
</g>
<mask id="mask5_166_2617" style="mask-type:alpha" maskUnits="userSpaceOnUse" x="291" y="377" width="47" height="112">
<path d="M337.14 488.399L292.256 487.145L291.754 412.422C291.503 400.47 295.415 376.716 313.068 377.317C330.72 377.919 336.471 393.783 337.14 401.64V488.399Z" fill="url(#paint85_linear_166_2617)"/>
</mask>
<g mask="url(#mask5_166_2617)">
<path d="M311.563 407.407C310.159 400.186 301.617 393.198 297.521 390.607L293.008 383.837L304.793 367.037L338.894 378.32C335.05 388.016 327.159 408.109 326.357 410.918C325.555 413.726 325.187 465.079 325.103 490.405H313.569C313.485 465.748 312.967 414.629 311.563 407.407Z" fill="url(#paint86_linear_166_2617)"/>
</g>
<mask id="mask6_166_2617" style="mask-type:alpha" maskUnits="userSpaceOnUse" x="291" y="377" width="47" height="112">
<path d="M337.14 488.399L292.256 487.145L291.754 412.422C291.503 400.47 295.415 376.716 313.068 377.317C330.72 377.919 336.471 393.783 337.14 401.64V488.399Z" fill="#EB7F78"/>
</mask>
<g mask="url(#mask6_166_2617)">
<path d="M330.871 398.882C329.467 388.451 318.919 380.493 313.82 377.819L345.164 382.082L341.904 491.658L332.877 490.405C332.793 464.243 332.275 409.313 330.871 398.882Z" fill="#181033"/>
</g>
<path d="M370.235 481.378H350.927L350.677 402.643C350.259 399.049 351.329 391.61 358.951 390.607C366.574 389.604 368.981 398.213 369.232 402.643L370.235 481.378Z" fill="#181033"/>
<mask id="mask7_166_2617" style="mask-type:alpha" maskUnits="userSpaceOnUse" x="350" y="390" width="21" height="92">
<path d="M370.236 481.378H350.929L350.678 402.643C350.26 399.049 351.33 391.61 358.953 390.607C366.575 389.604 368.983 398.213 369.233 402.643L370.236 481.378Z" fill="#E98078"/>
</mask>
<g mask="url(#mask7_166_2617)">
<path d="M362.462 435.992C363.064 406.504 366.558 397.962 368.23 397.377L365.471 388.601L347.417 392.111V481.127L361.71 482.13C361.877 479.372 361.861 465.48 362.462 435.992Z" fill="url(#paint87_linear_166_2617)"/>
</g>
<path d="M253.889 486.894L249.627 498.178L285.484 497.425L285.985 486.894H253.889Z" fill="url(#paint88_linear_166_2617)"/>
<path d="M249.877 497.927L211.262 498.93C209.457 493.113 214.438 489.402 217.029 487.897L254.391 487.145H285.233L253.638 488.942L249.877 497.927Z" fill="#F7BA71"/>
<path d="M305.293 501.437H217.28V505.449L305.293 504.446V501.437Z" fill="#5B8BB4"/>
<path d="M216.778 501.688H221.793V503.694C221.793 504.802 220.895 505.7 219.787 505.7H218.784C217.676 505.7 216.778 504.802 216.778 503.694V501.688Z" fill="#291853"/>
<path d="M222.796 501.688H227.811V503.694C227.811 504.802 226.913 505.7 225.805 505.7H224.802C223.694 505.7 222.796 504.802 222.796 503.694V501.688Z" fill="#291853"/>
<path d="M228.814 501.688H233.829V503.694C233.829 504.802 232.931 505.7 231.823 505.7H230.82C229.713 505.7 228.814 504.802 228.814 503.694V501.688Z" fill="#291853"/>
<path d="M234.832 501.688H239.847V503.694C239.847 504.802 238.949 505.7 237.841 505.7H236.838C235.73 505.7 234.832 504.802 234.832 503.694V501.688Z" fill="#291853"/>
<path d="M240.85 501.688H245.865V503.694C245.865 504.802 244.967 505.7 243.859 505.7H242.856C241.748 505.7 240.85 504.802 240.85 503.694V501.688Z" fill="#291853"/>
<path d="M246.868 501.688H251.883V503.694C251.883 504.802 250.985 505.7 249.877 505.7H248.874C247.767 505.7 246.868 504.802 246.868 503.694V501.688Z" fill="#291853"/>
<path d="M252.886 501.688H257.901V503.694C257.901 504.802 257.003 505.7 255.895 505.7H254.892C253.784 505.7 252.886 504.802 252.886 503.694V501.688Z" fill="#291853"/>
<path d="M258.904 501.688H263.919V503.694C263.919 504.802 263.021 505.7 261.913 505.7H260.91C259.802 505.7 258.904 504.802 258.904 503.694V501.688Z" fill="#291853"/>
<path d="M264.922 501.688H269.937V503.694C269.937 504.802 269.039 505.7 267.931 505.7H266.928C265.82 505.7 264.922 504.802 264.922 503.694V501.688Z" fill="#291853"/>
<path d="M270.94 501.688H275.955V503.694C275.955 504.802 275.057 505.7 273.949 505.7H272.946C271.838 505.7 270.94 504.802 270.94 503.694V501.688Z" fill="#291853"/>
<path d="M276.958 501.688H281.973V503.694C281.973 504.802 281.075 505.7 279.967 505.7H278.964C277.856 505.7 276.958 504.802 276.958 503.694V501.688Z" fill="#291853"/>
<path d="M282.976 501.688H287.991V503.694C287.991 504.802 287.093 505.7 285.985 505.7H284.982C283.874 505.7 282.976 504.802 282.976 503.694V501.688Z" fill="#291853"/>
<path d="M288.994 501.688H294.009V503.694C294.009 504.802 293.111 505.7 292.003 505.7H291C289.892 505.7 288.994 504.802 288.994 503.694V501.688Z" fill="#291853"/>
<path d="M295.011 501.688H300.026V503.694C300.026 504.802 299.128 505.7 298.02 505.7H297.017C295.909 505.7 295.011 504.802 295.011 503.694V501.688Z" fill="#291853"/>
<path d="M301.029 501.688H306.044V503.694C306.044 504.802 305.146 505.7 304.038 505.7H303.035C301.927 505.7 301.029 504.802 301.029 503.694V501.688Z" fill="#291853"/>
<g style="mix-blend-mode:screen" opacity="0.1">
<ellipse cx="22.449" cy="541.306" rx="35.3554" ry="1.50449" fill="#8C8C8C"/>
</g>
<path d="M178.163 536.041V519.742H178.665V535.289L178.163 536.041Z" fill="#484E7E"/>
<circle cx="278.462" cy="506.703" r="3.00897" fill="#4D4E80"/>
<rect x="276.958" y="508.208" width="3.00897" height="2.50748" fill="#4D4E80"/>
<path d="M173.65 550.333L173.148 546.572L247.369 545.82V551.085L173.65 550.333Z" fill="url(#paint89_linear_166_2617)"/>
<path d="M172.146 546.823H177.161V548.828C177.161 549.936 176.263 550.834 175.155 550.834H174.152C173.045 550.834 172.146 549.936 172.146 548.828V546.823Z" fill="#291853"/>
<path d="M178.165 546.823H183.18V548.828C183.18 549.936 182.281 550.834 181.174 550.834H180.171C179.063 550.834 178.165 549.936 178.165 548.828V546.823Z" fill="#291853"/>
<path d="M184.182 546.823H189.197V548.828C189.197 549.936 188.299 550.834 187.191 550.834H186.188C185.08 550.834 184.182 549.936 184.182 548.828V546.823Z" fill="#291853"/>
<path d="M190.2 546.823H195.215V548.828C195.215 549.936 194.317 550.834 193.209 550.834H192.206C191.099 550.834 190.2 549.936 190.2 548.828V546.823Z" fill="#291853"/>
<path d="M196.219 546.823H201.233V548.828C201.233 549.936 200.335 550.834 199.227 550.834H198.224C197.117 550.834 196.219 549.936 196.219 548.828V546.823Z" fill="#291853"/>
<path d="M202.236 546.823H207.251V548.828C207.251 549.936 206.353 550.834 205.245 550.834H204.242C203.134 550.834 202.236 549.936 202.236 548.828V546.823Z" fill="#291853"/>
<path d="M208.254 546.823H213.269V548.828C213.269 549.936 212.371 550.834 211.263 550.834H210.26C209.153 550.834 208.254 549.936 208.254 548.828V546.823Z" fill="#291853"/>
<path d="M214.272 546.823H219.287V548.828C219.287 549.936 218.389 550.834 217.281 550.834H216.278C215.171 550.834 214.272 549.936 214.272 548.828V546.823Z" fill="#291853"/>
<path d="M220.29 546.823H225.305V548.828C225.305 549.936 224.407 550.834 223.299 550.834H222.296C221.188 550.834 220.29 549.936 220.29 548.828V546.823Z" fill="#291853"/>
<path d="M226.308 546.823H231.323V548.828C231.323 549.936 230.425 550.834 229.317 550.834H228.314C227.206 550.834 226.308 549.936 226.308 548.828V546.823Z" fill="#291853"/>
<path d="M232.326 546.823H237.341V548.828C237.341 549.936 236.443 550.834 235.335 550.834H234.332C233.225 550.834 232.326 549.936 232.326 548.828V546.823Z" fill="#291853"/>
<path d="M238.344 546.823H243.358V548.828C243.358 549.936 242.46 550.834 241.352 550.834H240.349C239.242 550.834 238.344 549.936 238.344 548.828V546.823Z" fill="#291853"/>
<path d="M244.361 546.823H249.376V548.828C249.376 549.936 248.478 550.834 247.37 550.834H246.367C245.259 550.834 244.361 549.936 244.361 548.828V546.823Z" fill="#291853"/>
<rect x="172.146" y="510.715" width="6.01794" height="36.1076" fill="#535B8D"/>
<rect x="172.146" y="510.715" width="3.00897" height="36.1076" fill="#6488B5"/>
<rect x="173.651" y="508.208" width="3.00897" height="2.50748" fill="#535D8C"/>
<circle cx="175.155" cy="506.703" r="3.00897" fill="#525C8B"/>
<path fill-rule="evenodd" clip-rule="evenodd" d="M207.017 525.024L212.578 524.949L211.264 526.262L213.27 528.268L215.276 526.262L213.944 524.93L219.695 524.852L218.285 526.262L220.291 528.268L222.297 526.262L220.871 524.836L226.304 524.762L224.804 526.262L226.81 528.268L228.816 526.262L227.303 524.749L232.914 524.673L231.324 526.262L233.33 528.268L235.336 526.262L233.736 524.662L239.522 524.583L237.843 526.262L239.849 528.268L241.855 526.262L240.168 524.574L246.131 524.494L244.362 526.262L246.368 528.268L248.374 526.262L246.599 524.487L252.741 524.404L250.882 526.262L252.888 528.268L254.894 526.262L253.032 524.4L263.67 524.256C264.338 531.193 265.274 545.068 263.67 545.068C262.172 545.068 219.934 545.796 194.804 546.233L196.721 544.316L194.715 542.31L192.709 544.316L194.629 546.236L189.699 546.322V541.306L191.205 542.811L193.211 540.805L191.205 538.799L189.699 540.305V532.78L191.205 534.286L193.211 532.28L191.205 530.274L189.699 531.78V525.259L206.477 525.031L204.745 526.764L206.751 528.77L208.757 526.764L207.017 525.024ZM207.017 525.024L206.751 524.758L206.477 525.031L207.017 525.024ZM189.699 531.78L189.199 532.28L189.699 532.78V531.78ZM189.699 540.305L189.199 540.805L189.699 541.306V540.305ZM194.629 546.236L194.715 546.322L194.804 546.233L194.629 546.236ZM253.032 524.4L252.888 524.256L252.741 524.404L253.032 524.4ZM246.599 524.487L246.368 524.256L246.131 524.494L246.599 524.487ZM240.168 524.574L239.849 524.256L239.522 524.583L240.168 524.574ZM233.736 524.662L233.33 524.256L232.914 524.673L233.736 524.662ZM227.303 524.749L226.81 524.256L226.304 524.762L227.303 524.749ZM220.871 524.836L220.291 524.256L219.695 524.852L220.871 524.836ZM213.944 524.93L213.27 524.256L212.578 524.949L213.944 524.93ZM193.712 525.761L191.706 527.767L193.712 529.773L195.718 527.767L193.712 525.761ZM198.225 527.265L200.231 525.259L202.237 527.265L200.231 529.271L198.225 527.265ZM195.718 531.778L197.724 529.772L199.73 531.778L197.724 533.784L195.718 531.778ZM204.244 529.271L202.238 531.277L204.244 533.283L206.25 531.277L204.244 529.271ZM208.757 530.775L210.763 528.77L212.769 530.775L210.763 532.781L208.757 530.775ZM217.784 528.77L215.778 530.775L217.784 532.781L219.79 530.775L217.784 528.77ZM222.297 530.775L224.303 528.77L226.309 530.775L224.303 532.781L222.297 530.775ZM230.823 528.77L228.817 530.775L230.823 532.781L232.829 530.775L230.823 528.77ZM235.336 530.775L237.342 528.77L239.348 530.775L237.342 532.781L235.336 530.775ZM243.861 528.77L241.855 530.775L243.861 532.781L245.867 530.775L243.861 528.77ZM248.375 530.775L250.381 528.77L252.387 530.775L250.381 532.781L248.375 530.775ZM257.402 528.77L255.396 530.775L257.402 532.781L259.408 530.775L257.402 528.77ZM192.709 536.793L194.715 534.787L196.721 536.793L194.715 538.799L192.709 536.793ZM201.234 534.286L199.228 536.292L201.234 538.298L203.24 536.292L201.234 534.286ZM205.748 535.79L207.754 533.784L209.76 535.79L207.754 537.796L205.748 535.79ZM214.273 533.283L212.267 535.289L214.273 537.295L216.279 535.289L214.273 533.283ZM219.288 535.289L221.294 533.283L223.3 535.289L221.294 537.295L219.288 535.289ZM227.814 533.283L225.808 535.289L227.814 537.295L229.82 535.289L227.814 533.283ZM232.328 535.289L234.334 533.283L236.34 535.289L234.334 537.295L232.328 535.289ZM240.853 533.283L238.847 535.289L240.853 537.295L242.859 535.289L240.853 533.283ZM245.366 535.289L247.372 533.283L249.378 535.289L247.372 537.295L245.366 535.289ZM253.892 533.283L251.886 535.289L253.892 537.295L255.898 535.289L253.892 533.283ZM197.724 538.298L195.718 540.304L197.724 542.31L199.73 540.304L197.724 538.298ZM202.238 539.802L204.244 537.796L206.25 539.802L204.244 541.808L202.238 539.802ZM210.763 537.295L208.757 539.301L210.763 541.307L212.769 539.301L210.763 537.295ZM215.778 539.301L217.784 537.295L219.79 539.301L217.784 541.307L215.778 539.301ZM224.303 537.295L222.297 539.301L224.303 541.307L226.309 539.301L224.303 537.295ZM228.817 539.301L230.823 537.295L232.829 539.301L230.823 541.307L228.817 539.301ZM237.342 537.295L235.336 539.301L237.342 541.307L239.348 539.301L237.342 537.295ZM241.855 539.301L243.861 537.295L245.867 539.301L243.861 541.307L241.855 539.301ZM250.381 537.295L248.375 539.301L250.381 541.307L252.387 539.301L250.381 537.295ZM201.234 541.808L199.228 543.814L201.234 545.82L203.24 543.814L201.234 541.808ZM205.748 543.313L207.754 541.307L209.76 543.313L207.754 545.319L205.748 543.313ZM214.273 540.805L212.267 542.811L214.273 544.817L216.279 542.811L214.273 540.805ZM219.288 542.811L221.294 540.805L223.3 542.811L221.294 544.817L219.288 542.811ZM227.814 540.805L225.808 542.811L227.814 544.817L229.82 542.811L227.814 540.805ZM232.328 542.811L234.334 540.805L236.34 542.811L234.334 544.817L232.328 542.811ZM240.853 540.805L238.847 542.811L240.853 544.817L242.859 542.811L240.853 540.805ZM245.366 542.811L247.372 540.805L249.378 542.811L247.372 544.817L245.366 542.811ZM253.892 540.805L251.886 542.811L253.892 544.817L255.898 542.811L253.892 540.805Z" fill="#57588A"/>
<path d="M205.68 616.908C203.383 616.621 201.373 617.745 200.656 618.344C199.22 622.076 203.407 626.836 205.68 628.75V616.908Z" fill="#191149"/>
<path d="M203.265 617.062C194.169 620.231 214.036 640.652 225.316 650.639C188.187 629.824 194.878 619.712 203.265 617.062C203.429 617.005 203.602 616.954 203.785 616.908C203.611 616.956 203.438 617.008 203.265 617.062Z" fill="#414578"/>
<path d="M168 576C170.01 589.492 193.717 608.655 205.32 616.549V602.368C201.014 600.784 178.646 584.129 168 576Z" fill="url(#paint90_linear_166_2617)"/>
<path d="M177.33 603.631C179.053 622.865 196.947 641.07 205.679 647.768V631.979C203.645 629.467 198.932 623.941 196.349 621.932C193.765 619.922 182.593 608.894 177.33 603.631Z" fill="url(#paint91_linear_166_2617)"/>
<path d="M177.332 627.314C168.72 629.826 174.82 645.256 174.82 645.615L206.04 647.768C199.341 640.113 184.222 625.304 177.332 627.314Z" fill="#2C1750"/>
<path d="M203.166 661.404C191.564 652.553 170.225 633.343 177.689 627.314C171.11 630.544 166.995 641.883 203.166 661.404Z" fill="#414578"/>
<path d="M5.19057 118.027H5.64348C6.67076 117.448 9.10407 115.852 14.1591 112.262C25.2096 104.414 38.342 105.375 45.5489 107.137C51.3144 108.546 57.1332 106.55 59.322 105.375C65.995 100.945 73.0949 94.1648 82.8643 99.1295C88.4831 101.985 94.6088 108.205 98.7194 109.219C121.653 102.172 142.441 112.155 149.968 118.027H5.64348C4.87422 118.461 4.89341 118.325 5.19057 118.027Z" fill="url(#paint92_linear_166_2617)"/>
<path d="M168.222 156.812H168.675C169.702 156.233 172.136 154.637 177.191 151.047C188.241 143.199 201.374 144.16 208.581 145.922C214.346 147.331 220.165 145.335 222.354 144.16C229.027 139.73 236.127 132.95 245.896 137.914C251.515 140.77 257.641 146.99 261.751 148.004C284.685 140.957 305.473 150.94 313 156.812H168.675C167.906 157.246 167.925 157.109 168.222 156.812Z" fill="url(#paint93_linear_166_2617)"/>
</g>
<defs>
<filter id="filter0_f_166_2617" x="216.194" y="206.194" width="207.611" height="207.885" filterUnits="userSpaceOnUse" color-interpolation-filters="sRGB">
<feFlood flood-opacity="0" result="BackgroundImageFix"/>
<feBlend mode="normal" in="SourceGraphic" in2="BackgroundImageFix" result="shape"/>
<feGaussianBlur stdDeviation="31.9028" result="effect1_foregroundBlur_166_2617"/>
</filter>
<filter id="filter1_f_166_2617" x="-9.04697" y="240.897" width="102.982" height="103.128" filterUnits="userSpaceOnUse" color-interpolation-filters="sRGB">
<feFlood flood-opacity="0" result="BackgroundImageFix"/>
<feBlend mode="normal" in="SourceGraphic" in2="BackgroundImageFix" result="shape"/>
<feGaussianBlur stdDeviation="15.0516" result="effect1_foregroundBlur_166_2617"/>
</filter>
<filter id="filter2_d_166_2617" x="261.412" y="528.769" width="25.3254" height="49.8988" filterUnits="userSpaceOnUse" color-interpolation-filters="sRGB">
<feFlood flood-opacity="0" result="BackgroundImageFix"/>
<feColorMatrix in="SourceAlpha" type="matrix" values="0 0 0 0 0 0 0 0 0 0 0 0 0 0 0 0 0 0 127 0" result="hardAlpha"/>
<feOffset dy="2.00598"/>
<feComposite in2="hardAlpha" operator="out"/>
<feColorMatrix type="matrix" values="0 0 0 0 1 0 0 0 0 1 0 0 0 0 1 0 0 0 1 0"/>
<feBlend mode="normal" in2="BackgroundImageFix" result="effect1_dropShadow_166_2617"/>
<feBlend mode="normal" in="SourceGraphic" in2="effect1_dropShadow_166_2617" result="shape"/>
</filter>
<linearGradient id="paint0_linear_166_2617" x1="99.543" y1="404.148" x2="99.543" y2="411.883" gradientUnits="userSpaceOnUse">
<stop stop-color="#C3666B"/>
<stop offset="1" stop-color="#C3666B" stop-opacity="0"/>
</linearGradient>
<linearGradient id="paint1_linear_166_2617" x1="290.211" y1="358.704" x2="290.211" y2="428.967" gradientUnits="userSpaceOnUse">
<stop stop-color="#1F1039"/>
<stop offset="1" stop-color="#251851"/>
</linearGradient>
<linearGradient id="paint2_linear_166_2617" x1="167.648" y1="393.191" x2="167.735" y2="403.089" gradientUnits="userSpaceOnUse">
<stop stop-color="#BB5F67"/>
<stop offset="1" stop-color="#BA6168" stop-opacity="0"/>
</linearGradient>
<linearGradient id="paint3_linear_166_2617" x1="201.48" y1="391.242" x2="201.567" y2="401.14" gradientUnits="userSpaceOnUse">
<stop stop-color="#BB5F67"/>
<stop offset="1" stop-color="#BA6168" stop-opacity="0"/>
</linearGradient>
<linearGradient id="paint4_linear_166_2617" x1="324.801" y1="395.109" x2="324.873" y2="402.096" gradientUnits="userSpaceOnUse">
<stop stop-color="#BB5F67"/>
<stop offset="1" stop-color="#BA6168" stop-opacity="0"/>
</linearGradient>
<linearGradient id="paint5_linear_166_2617" x1="320.504" y1="386.516" x2="320.565" y2="391.173" gradientUnits="userSpaceOnUse">
<stop stop-color="#BB5F67"/>
<stop offset="1" stop-color="#BA6168" stop-opacity="0"/>
</linearGradient>
<linearGradient id="paint6_linear_166_2617" x1="337.691" y1="389.953" x2="337.753" y2="394.61" gradientUnits="userSpaceOnUse">
<stop stop-color="#BB5F67"/>
<stop offset="1" stop-color="#BA6168" stop-opacity="0"/>
</linearGradient>
<linearGradient id="paint7_linear_166_2617" x1="352.516" y1="388.234" x2="352.65" y2="397.548" gradientUnits="userSpaceOnUse">
<stop stop-color="#BB5F67"/>
<stop offset="1" stop-color="#BA6168" stop-opacity="0"/>
</linearGradient>
<linearGradient id="paint8_linear_166_2617" x1="346.07" y1="393.391" x2="346.16" y2="402.706" gradientUnits="userSpaceOnUse">
<stop stop-color="#BB5F67"/>
<stop offset="1" stop-color="#BA6168" stop-opacity="0"/>
</linearGradient>
<linearGradient id="paint9_linear_166_2617" x1="36.2122" y1="524.77" x2="44.2639" y2="468.854" gradientUnits="userSpaceOnUse">
<stop stop-color="#083642"/>
<stop offset="1" stop-color="#0D625A"/>
</linearGradient>
<linearGradient id="paint10_linear_166_2617" x1="71.3806" y1="500.554" x2="143.503" y2="439.773" gradientUnits="userSpaceOnUse">
<stop stop-color="#083642"/>
<stop offset="1" stop-color="#18B88B"/>
</linearGradient>
<linearGradient id="paint11_linear_166_2617" x1="37.2734" y1="357.274" x2="37.2734" y2="426.53" gradientUnits="userSpaceOnUse">
<stop stop-color="#15B588"/>
<stop offset="1" stop-color="#0A444A"/>
</linearGradient>
<linearGradient id="paint12_linear_166_2617" x1="3.87433" y1="466.783" x2="-40.0124" y2="445.168" gradientUnits="userSpaceOnUse">
<stop stop-color="#0D625A"/>
<stop offset="1" stop-color="#EFBD61"/>
</linearGradient>
<linearGradient id="paint13_linear_166_2617" x1="47.0358" y1="378.325" x2="47.646" y2="335.918" gradientUnits="userSpaceOnUse">
<stop stop-color="#18B88B"/>
<stop offset="1" stop-color="#083642"/>
</linearGradient>
<linearGradient id="paint14_linear_166_2617" x1="32.697" y1="365.207" x2="32.697" y2="426.073" gradientUnits="userSpaceOnUse">
<stop stop-color="#67BD76"/>
<stop offset="1" stop-color="#0A444A"/>
</linearGradient>
<linearGradient id="paint15_linear_166_2617" x1="108.665" y1="333.477" x2="-28.0167" y2="333.782" gradientUnits="userSpaceOnUse">
<stop stop-color="#10916E"/>
<stop offset="0.9999" stop-color="#12B68F"/>
<stop offset="1" stop-color="#12B68F"/>
</linearGradient>
<linearGradient id="paint16_linear_166_2617" x1="77.5458" y1="452.768" x2="77.5458" y2="536.363" gradientUnits="userSpaceOnUse">
<stop stop-color="#15B588"/>
<stop offset="1" stop-color="#056C6D"/>
</linearGradient>
<linearGradient id="paint17_linear_166_2617" x1="5.23846" y1="459.175" x2="11.9505" y2="477.481" gradientUnits="userSpaceOnUse">
<stop stop-color="#15B588"/>
<stop offset="1" stop-color="#056C6D" stop-opacity="0"/>
</linearGradient>
<linearGradient id="paint18_linear_166_2617" x1="68.088" y1="363.376" x2="68.088" y2="445.724" gradientUnits="userSpaceOnUse">
<stop stop-color="#67BD76"/>
<stop offset="1" stop-color="#0A444A"/>
</linearGradient>
<linearGradient id="paint19_linear_166_2617" x1="-35.644" y1="463.367" x2="6.11452" y2="463.458" gradientUnits="userSpaceOnUse">
<stop stop-color="#056C6D"/>
<stop offset="1" stop-color="#EFBD61"/>
</linearGradient>
<linearGradient id="paint20_linear_166_2617" x1="26.481" y1="487.087" x2="36.1748" y2="511.775" gradientUnits="userSpaceOnUse">
<stop stop-color="#15B588"/>
<stop offset="1" stop-color="#056C6D" stop-opacity="0"/>
</linearGradient>
<linearGradient id="paint21_linear_166_2617" x1="-9.71153" y1="295.34" x2="88.8334" y2="295.645" gradientUnits="userSpaceOnUse">
<stop stop-color="#18B88B"/>
<stop offset="1" stop-color="#083642"/>
</linearGradient>
<linearGradient id="paint22_linear_166_2617" x1="-9.71287" y1="295.34" x2="88.8321" y2="295.645" gradientUnits="userSpaceOnUse">
<stop stop-color="#18B88B"/>
<stop offset="1" stop-color="#083642"/>
</linearGradient>
<linearGradient id="paint23_linear_166_2617" x1="-11.5432" y1="281.611" x2="23.8476" y2="295.645" gradientUnits="userSpaceOnUse">
<stop stop-color="#EA9126"/>
<stop offset="1" stop-color="#EFBD61"/>
</linearGradient>
<linearGradient id="paint24_linear_166_2617" x1="108.664" y1="333.477" x2="-28.0172" y2="333.782" gradientUnits="userSpaceOnUse">
<stop stop-color="#10916E"/>
<stop offset="0.9999" stop-color="#12B68F"/>
<stop offset="1" stop-color="#12B68F"/>
</linearGradient>
<linearGradient id="paint25_linear_166_2617" x1="-35.0344" y1="334.087" x2="-34.678" y2="340.172" gradientUnits="userSpaceOnUse">
<stop stop-color="#EA9126"/>
<stop offset="1" stop-color="#EFBD61"/>
</linearGradient>
<linearGradient id="paint26_linear_166_2617" x1="262.595" y1="-6.27344" x2="262.595" y2="16.7148" gradientUnits="userSpaceOnUse">
<stop stop-color="#823252"/>
<stop offset="1" stop-color="#823252" stop-opacity="0"/>
</linearGradient>
<linearGradient id="paint27_linear_166_2617" x1="288.535" y1="8.33594" x2="288.535" y2="32.8281" gradientUnits="userSpaceOnUse">
<stop stop-color="#823453"/>
<stop offset="1" stop-color="#D9D9D9" stop-opacity="0"/>
</linearGradient>
<linearGradient id="paint28_linear_166_2617" x1="313.319" y1="14.946" x2="313.319" y2="32.3983" gradientUnits="userSpaceOnUse">
<stop stop-color="#823252"/>
<stop offset="1" stop-color="#823252" stop-opacity="0"/>
</linearGradient>
<linearGradient id="paint29_linear_166_2617" x1="362.353" y1="31.1094" x2="362.353" y2="56.4609" gradientUnits="userSpaceOnUse">
<stop stop-color="#51518A"/>
<stop offset="1" stop-color="white" stop-opacity="0"/>
</linearGradient>
<linearGradient id="paint30_linear_166_2617" x1="315.952" y1="48.5117" x2="315.952" y2="71.9297" gradientUnits="userSpaceOnUse">
<stop stop-color="white" stop-opacity="0"/>
<stop offset="1" stop-color="#686FA8"/>
</linearGradient>
<linearGradient id="paint31_linear_166_2617" x1="342.564" y1="20.1523" x2="342.564" y2="57.1055" gradientUnits="userSpaceOnUse">
<stop stop-color="#6467A0"/>
<stop offset="1" stop-color="white" stop-opacity="0"/>
</linearGradient>
<linearGradient id="paint32_linear_166_2617" x1="81.3773" y1="572.325" x2="68.5066" y2="572.325" gradientUnits="userSpaceOnUse">
<stop stop-color="#084E51"/>
<stop offset="1" stop-color="#084E51" stop-opacity="0"/>
</linearGradient>
<linearGradient id="paint33_linear_166_2617" x1="155.371" y1="563.906" x2="155.371" y2="570.084" gradientUnits="userSpaceOnUse">
<stop stop-color="#081C29"/>
<stop offset="1" stop-color="#081D2B" stop-opacity="0"/>
</linearGradient>
<linearGradient id="paint34_linear_166_2617" x1="89.8158" y1="552.923" x2="89.8158" y2="559.101" gradientUnits="userSpaceOnUse">
<stop stop-color="#081C29"/>
<stop offset="1" stop-color="#081D2B" stop-opacity="0"/>
</linearGradient>
<linearGradient id="paint35_linear_166_2617" x1="66.6532" y1="556.844" x2="80.6805" y2="554.915" gradientUnits="userSpaceOnUse">
<stop stop-color="#4E6AA6" stop-opacity="0"/>
<stop offset="1" stop-color="#3B3970"/>
</linearGradient>
<linearGradient id="paint36_linear_166_2617" x1="82.1109" y1="548.088" x2="73.4947" y2="548.088" gradientUnits="userSpaceOnUse">
<stop stop-color="#002F51"/>
<stop offset="1" stop-color="#002F51" stop-opacity="0"/>
</linearGradient>
<linearGradient id="paint37_linear_166_2617" x1="59.4568" y1="547.454" x2="66.6506" y2="546.613" gradientUnits="userSpaceOnUse">
<stop stop-color="#3B3970"/>
<stop offset="1" stop-color="#4E6AA6" stop-opacity="0"/>
</linearGradient>
<linearGradient id="paint38_linear_166_2617" x1="97.9103" y1="575.189" x2="87.2054" y2="575.189" gradientUnits="userSpaceOnUse">
<stop stop-color="#002F51" stop-opacity="0"/>
<stop offset="1" stop-color="#002F51"/>
</linearGradient>
<linearGradient id="paint39_linear_166_2617" x1="140.108" y1="577.534" x2="150.748" y2="576.258" gradientUnits="userSpaceOnUse">
<stop stop-color="#4E6AA6" stop-opacity="0"/>
<stop offset="1" stop-color="#3B3970"/>
</linearGradient>
<linearGradient id="paint40_linear_166_2617" x1="33.6697" y1="552.59" x2="33.6697" y2="556.88" gradientUnits="userSpaceOnUse">
<stop/>
<stop offset="1" stop-opacity="0"/>
</linearGradient>
<linearGradient id="paint41_linear_166_2617" x1="47.9126" y1="552.418" x2="39.8078" y2="559.727" gradientUnits="userSpaceOnUse">
<stop stop-color="#525A8C"/>
<stop offset="1" stop-color="#525A8C"/>
</linearGradient>
<linearGradient id="paint42_linear_166_2617" x1="34.1916" y1="562.478" x2="26.0868" y2="569.786" gradientUnits="userSpaceOnUse">
<stop stop-color="#6474D8"/>
<stop offset="1" stop-color="#525A8C"/>
</linearGradient>
<linearGradient id="paint43_linear_166_2617" x1="136.713" y1="573.269" x2="122.614" y2="573.269" gradientUnits="userSpaceOnUse">
<stop stop-color="#084E51" stop-opacity="0"/>
<stop offset="1" stop-color="#084E51"/>
</linearGradient>
<linearGradient id="paint44_linear_166_2617" x1="52.7183" y1="573.354" x2="39.3136" y2="577.061" gradientUnits="userSpaceOnUse">
<stop stop-color="#863C5E"/>
<stop offset="1" stop-color="#592A5A" stop-opacity="0"/>
</linearGradient>
<linearGradient id="paint45_linear_166_2617" x1="140.068" y1="560.14" x2="145.216" y2="564.774" gradientUnits="userSpaceOnUse">
<stop stop-color="#084E51" stop-opacity="0"/>
<stop offset="1" stop-color="#084E51"/>
</linearGradient>
<linearGradient id="paint46_linear_166_2617" x1="202.58" y1="572.555" x2="188.751" y2="572.555" gradientUnits="userSpaceOnUse">
<stop stop-color="#084E51" stop-opacity="0"/>
<stop offset="1" stop-color="#084E51"/>
</linearGradient>
<linearGradient id="paint47_linear_166_2617" x1="212.879" y1="576.285" x2="218.378" y2="575.796" gradientUnits="userSpaceOnUse">
<stop stop-color="#3B3970"/>
<stop offset="1" stop-color="#4E6AA6" stop-opacity="0"/>
</linearGradient>
<linearGradient id="paint48_linear_166_2617" x1="108.34" y1="545.308" x2="118.017" y2="544.178" gradientUnits="userSpaceOnUse">
<stop stop-color="#3B3970"/>
<stop offset="1" stop-color="#4E6AA6" stop-opacity="0"/>
</linearGradient>
<linearGradient id="paint49_linear_166_2617" x1="138.481" y1="542.038" x2="130.97" y2="542.038" gradientUnits="userSpaceOnUse">
<stop stop-color="#002F51" stop-opacity="0"/>
<stop offset="1" stop-color="#002F51"/>
</linearGradient>
<linearGradient id="paint50_linear_166_2617" x1="16.4873" y1="547.445" x2="40.856" y2="576.618" gradientUnits="userSpaceOnUse">
<stop stop-color="#98A7D6"/>
<stop offset="1" stop-color="#413F84"/>
</linearGradient>
<linearGradient id="paint51_linear_166_2617" x1="-4.79238" y1="517.413" x2="26.0974" y2="529.769" gradientUnits="userSpaceOnUse">
<stop stop-color="#2C1954"/>
<stop offset="1" stop-color="#4242B4"/>
</linearGradient>
<linearGradient id="paint52_linear_166_2617" x1="0.184377" y1="512.951" x2="25.4111" y2="527.195" gradientUnits="userSpaceOnUse">
<stop stop-color="#7599C6"/>
<stop offset="0.586113" stop-color="#7CA9D5"/>
<stop offset="1" stop-color="#5561A6"/>
</linearGradient>
<linearGradient id="paint53_linear_166_2617" x1="-6.68004" y1="558.943" x2="15.1144" y2="567.352" gradientUnits="userSpaceOnUse">
<stop stop-color="#2F1B58"/>
<stop offset="1" stop-color="#4141B3"/>
</linearGradient>
<linearGradient id="paint54_linear_166_2617" x1="231.544" y1="409.042" x2="222.922" y2="534.673" gradientUnits="userSpaceOnUse">
<stop stop-color="#525A8C"/>
<stop offset="1" stop-color="#F7B973"/>
</linearGradient>
<linearGradient id="paint55_linear_166_2617" x1="226.809" y1="290.559" x2="365.221" y2="287.299" gradientUnits="userSpaceOnUse">
<stop stop-color="#EFB17B"/>
<stop offset="0.512126" stop-color="#32235C"/>
<stop offset="0.660269" stop-color="#342761"/>
<stop offset="1" stop-color="#2C1750"/>
</linearGradient>
<linearGradient id="paint56_linear_166_2617" x1="216.277" y1="521.497" x2="377.257" y2="526.261" gradientUnits="userSpaceOnUse">
<stop stop-color="#505A8E"/>
<stop offset="0.380043" stop-color="#2C1750"/>
<stop offset="1" stop-color="#2C1750"/>
</linearGradient>
<linearGradient id="paint57_linear_166_2617" x1="196.719" y1="519.241" x2="196.97" y2="546.823" gradientUnits="userSpaceOnUse">
<stop stop-color="#525A8C"/>
<stop offset="0.436984" stop-color="#525A8C"/>
<stop offset="0.967584" stop-color="#454175"/>
</linearGradient>
<linearGradient id="paint58_linear_166_2617" x1="187.19" y1="524.005" x2="263.417" y2="545.569" gradientUnits="userSpaceOnUse">
<stop stop-color="#2B1A52"/>
<stop offset="1" stop-color="#454277"/>
</linearGradient>
<linearGradient id="paint59_linear_166_2617" x1="278.462" y1="510.715" x2="278.462" y2="546.823" gradientUnits="userSpaceOnUse">
<stop stop-color="#555A8D"/>
<stop offset="1" stop-color="#3E396A"/>
</linearGradient>
<linearGradient id="paint60_linear_166_2617" x1="276.958" y1="510.715" x2="276.958" y2="546.823" gradientUnits="userSpaceOnUse">
<stop stop-color="#555A8D"/>
<stop offset="1" stop-color="#3E396A"/>
</linearGradient>
<linearGradient id="paint61_linear_166_2617" x1="204.241" y1="570.894" x2="372.242" y2="654.143" gradientUnits="userSpaceOnUse">
<stop stop-color="#525A8C"/>
<stop offset="0.421576" stop-color="#2C1752"/>
<stop offset="1" stop-color="#2C1750"/>
</linearGradient>
<linearGradient id="paint62_linear_166_2617" x1="270.438" y1="261.723" x2="320.588" y2="260.469" gradientUnits="userSpaceOnUse">
<stop stop-color="#525FAC"/>
<stop offset="1" stop-color="#2C1750"/>
</linearGradient>
<linearGradient id="paint63_linear_166_2617" x1="297.584" y1="605.23" x2="297.584" y2="628.316" gradientUnits="userSpaceOnUse">
<stop stop-color="#352767"/>
<stop offset="1" stop-color="#464188" stop-opacity="0.12"/>
</linearGradient>
<linearGradient id="paint64_linear_166_2617" x1="272.58" y1="625.393" x2="272.58" y2="640.602" gradientUnits="userSpaceOnUse">
<stop stop-color="#342666"/>
<stop offset="1" stop-color="#342666" stop-opacity="0"/>
</linearGradient>
<linearGradient id="paint65_linear_166_2617" x1="342.195" y1="603.886" x2="342.195" y2="622.799" gradientUnits="userSpaceOnUse">
<stop stop-color="#352767"/>
<stop offset="1" stop-color="#464188" stop-opacity="0.12"/>
</linearGradient>
<linearGradient id="paint66_linear_166_2617" x1="292.604" y1="583.979" x2="292.604" y2="606.501" gradientUnits="userSpaceOnUse">
<stop stop-color="#352767"/>
<stop offset="1" stop-color="#464188" stop-opacity="0.12"/>
</linearGradient>
<linearGradient id="paint67_linear_166_2617" x1="253.95" y1="561.804" x2="253.95" y2="603.993" gradientUnits="userSpaceOnUse">
<stop stop-color="#484386"/>
<stop offset="1" stop-color="#3F3B7F" stop-opacity="0.07"/>
</linearGradient>
<linearGradient id="paint68_linear_166_2617" x1="214.271" y1="331.681" x2="373.746" y2="314.38" gradientUnits="userSpaceOnUse">
<stop stop-color="#52588A"/>
<stop offset="0.235317" stop-color="#515989"/>
<stop offset="0.453125" stop-color="#332156"/>
<stop offset="0.524429" stop-color="#5161AD"/>
<stop offset="0.698759" stop-color="#2E1A54"/>
<stop offset="1" stop-color="#2C1750"/>
</linearGradient>
<linearGradient id="paint69_linear_166_2617" x1="234.832" y1="587.444" x2="234.832" y2="614.274" gradientUnits="userSpaceOnUse">
<stop stop-color="#484386"/>
<stop offset="1" stop-color="#3F3B7F" stop-opacity="0.07"/>
</linearGradient>
<linearGradient id="paint70_linear_166_2617" x1="274.308" y1="602.393" x2="274.308" y2="623.05" gradientUnits="userSpaceOnUse">
<stop stop-color="#352767"/>
<stop offset="1" stop-color="#464188" stop-opacity="0.12"/>
</linearGradient>
<linearGradient id="paint71_linear_166_2617" x1="274.618" y1="580.014" x2="274.618" y2="597.223" gradientUnits="userSpaceOnUse">
<stop stop-color="#484386"/>
<stop offset="1" stop-color="#3F3B7F" stop-opacity="0.07"/>
</linearGradient>
<linearGradient id="paint72_linear_166_2617" x1="320.174" y1="573.641" x2="320.174" y2="607.754" gradientUnits="userSpaceOnUse">
<stop stop-color="#352767"/>
<stop offset="1" stop-color="#464188" stop-opacity="0.12"/>
</linearGradient>
<linearGradient id="paint73_linear_166_2617" x1="297.442" y1="560.345" x2="297.442" y2="581.426" gradientUnits="userSpaceOnUse">
<stop stop-color="#352767"/>
<stop offset="1" stop-color="#464188" stop-opacity="0.12"/>
</linearGradient>
<linearGradient id="paint74_linear_166_2617" x1="274.074" y1="528.769" x2="274.074" y2="576.662" gradientUnits="userSpaceOnUse">
<stop stop-color="#5375A0"/>
<stop offset="1" stop-color="#5375A0" stop-opacity="0"/>
</linearGradient>
<linearGradient id="paint75_linear_166_2617" x1="350.176" y1="556.1" x2="350.176" y2="597.975" gradientUnits="userSpaceOnUse">
<stop stop-color="#7C3F68"/>
<stop offset="1" stop-color="#853B5E" stop-opacity="0.14"/>
</linearGradient>
<linearGradient id="paint76_linear_166_2617" x1="345.412" y1="588.707" x2="345.412" y2="611.766" gradientUnits="userSpaceOnUse">
<stop stop-color="#7C3F68"/>
<stop offset="1" stop-color="#853B5E" stop-opacity="0.14"/>
</linearGradient>
<linearGradient id="paint77_linear_166_2617" x1="342.027" y1="504.948" x2="342.152" y2="561.115" gradientUnits="userSpaceOnUse">
<stop stop-color="#863C5E"/>
<stop offset="1" stop-color="#592A5A" stop-opacity="0"/>
</linearGradient>
<linearGradient id="paint78_linear_166_2617" x1="256.647" y1="366.535" x2="256.647" y2="489.903" gradientUnits="userSpaceOnUse">
<stop stop-color="#525A8C"/>
<stop offset="1" stop-color="#F7B973"/>
</linearGradient>
<linearGradient id="paint79_linear_166_2617" x1="256.648" y1="387.346" x2="256.648" y2="487.897" gradientUnits="userSpaceOnUse">
<stop stop-color="#774A68"/>
<stop offset="1" stop-color="#774A65"/>
</linearGradient>
<linearGradient id="paint80_linear_166_2617" x1="256.146" y1="381.329" x2="256.146" y2="487.145" gradientUnits="userSpaceOnUse">
<stop stop-color="#774A68"/>
<stop offset="1" stop-color="#774A65"/>
</linearGradient>
<linearGradient id="paint81_linear_166_2617" x1="285.985" y1="341.711" x2="373.747" y2="344.72" gradientUnits="userSpaceOnUse">
<stop stop-color="#4A69A5"/>
<stop offset="1" stop-color="#2C1750"/>
</linearGradient>
<linearGradient id="paint82_linear_166_2617" x1="209.005" y1="354.499" x2="285.985" y2="343.216" gradientUnits="userSpaceOnUse">
<stop stop-color="#4E6AA6"/>
<stop offset="1" stop-color="#3B3970"/>
</linearGradient>
<linearGradient id="paint83_linear_166_2617" x1="314.441" y1="377.306" x2="314.441" y2="488.399" gradientUnits="userSpaceOnUse">
<stop stop-color="#2C1750"/>
<stop offset="1" stop-color="#545B76"/>
</linearGradient>
<linearGradient id="paint84_linear_166_2617" x1="315.951" y1="367.037" x2="315.951" y2="490.405" gradientUnits="userSpaceOnUse">
<stop stop-color="#2C1750"/>
<stop offset="1" stop-color="#545B76"/>
</linearGradient>
<linearGradient id="paint85_linear_166_2617" x1="314.441" y1="377.306" x2="314.441" y2="488.399" gradientUnits="userSpaceOnUse">
<stop stop-color="#2C1750"/>
<stop offset="1" stop-color="#545B76"/>
</linearGradient>
<linearGradient id="paint86_linear_166_2617" x1="315.951" y1="367.037" x2="315.951" y2="490.405" gradientUnits="userSpaceOnUse">
<stop stop-color="#2C1750"/>
<stop offset="1" stop-color="#545B76"/>
</linearGradient>
<linearGradient id="paint87_linear_166_2617" x1="357.824" y1="388.601" x2="357.824" y2="481.127" gradientUnits="userSpaceOnUse">
<stop stop-color="#2E1C52"/>
<stop offset="0.572012" stop-color="#545B76"/>
<stop offset="1" stop-color="#515B76"/>
</linearGradient>
<linearGradient id="paint88_linear_166_2617" x1="252.134" y1="492.661" x2="285.484" y2="492.661" gradientUnits="userSpaceOnUse">
<stop stop-color="#B58A70"/>
<stop offset="1" stop-color="#5F6084"/>
</linearGradient>
<linearGradient id="paint89_linear_166_2617" x1="174.151" y1="549.079" x2="248.122" y2="549.832" gradientUnits="userSpaceOnUse">
<stop stop-color="#4D6AA2"/>
<stop offset="1" stop-color="#2C1750" stop-opacity="0"/>
</linearGradient>
<linearGradient id="paint90_linear_166_2617" x1="186.66" y1="576" x2="186.66" y2="616.549" gradientUnits="userSpaceOnUse">
<stop stop-color="#893D5D"/>
<stop offset="1" stop-color="#602D59"/>
</linearGradient>
<linearGradient id="paint91_linear_166_2617" x1="191.504" y1="603.631" x2="191.504" y2="647.768" gradientUnits="userSpaceOnUse">
<stop stop-color="#893D5D"/>
<stop offset="1" stop-color="#602D59"/>
</linearGradient>
<linearGradient id="paint92_linear_166_2617" x1="77.484" y1="97.3878" x2="77.484" y2="118.304" gradientUnits="userSpaceOnUse">
<stop stop-color="#C8C8C8" stop-opacity="0.22"/>
<stop offset="1" stop-color="#D9D9D9" stop-opacity="0"/>
</linearGradient>
<linearGradient id="paint93_linear_166_2617" x1="240.516" y1="136.173" x2="240.516" y2="157.089" gradientUnits="userSpaceOnUse">
<stop stop-color="#C8C8C8" stop-opacity="0.22"/>
<stop offset="1" stop-color="#D9D9D9" stop-opacity="0"/>
</linearGradient>
<clipPath id="clip0_166_2617">
<rect width="360" height="640" fill="white"/>
</clipPath>
</defs>
</svg>
