<svg width="24" height="24" viewBox="0 0 24 24" fill="none" xmlns="http://www.w3.org/2000/svg">
<path d="M14.9783 16.6234C14.4882 16.6234 14.0903 17.0374 14.0903 17.5474V18.6767C14.0903 20.5932 12.5921 22.152 10.7491 22.152H5.12771C3.28008 22.152 1.77613 20.5884 1.77613 18.6635C1.77613 18.1535 1.37823 17.7407 0.888065 17.7407C0.397899 17.7407 0 18.1535 0 18.6635C0 21.606 2.3009 24.0001 5.12771 24.0001H10.7491C13.5713 24.0001 15.8664 21.612 15.8664 18.6767V17.5474C15.8664 17.0374 15.4685 16.6234 14.9783 16.6234Z" fill="white"/>
<path d="M0.888066 15.3858C1.37823 15.3858 1.77613 14.9718 1.77613 14.4618V5.3234C1.77613 3.40813 3.27431 1.84807 5.11733 1.84807H10.7375C12.5863 1.84807 14.0903 3.41173 14.0903 5.3366V6.45385C14.0903 6.96267 14.4882 7.37668 14.9783 7.37668C15.4685 7.37668 15.8664 6.96267 15.8664 6.45385V5.3366C15.8664 2.39409 13.5655 0 10.7375 0H5.11733C2.29513 0 0 2.38809 0 5.3234V14.4618C0 14.9718 0.397899 15.3858 0.888066 15.3858Z" fill="white"/>
<path d="M23.6163 11.6471C23.4791 11.3003 23.155 11.0747 22.7952 11.0747H8.93902C8.44886 11.0747 8.0498 11.4899 8.0498 11.9999C8.0498 12.51 8.44886 12.924 8.93902 12.924H20.6453L18.7989 14.8368C18.4506 15.1969 18.4506 15.7813 18.7965 16.1437C18.9696 16.3249 19.1979 16.4161 19.4251 16.4161C19.6523 16.4161 19.8784 16.3249 20.0525 16.1461L23.4226 12.6552C23.6763 12.3912 23.7536 11.9927 23.6163 11.6471Z" fill="white"/>
</svg>
