<svg width="559" height="328" viewBox="0 0 559 328" fill="none" xmlns="http://www.w3.org/2000/svg">
<g filter="url(#filter0_f_63_579)">
<ellipse cx="279.52" cy="164.346" rx="150.819" ry="35.509" fill="#0FAD7B"/>
</g>
<path d="M164.404 74.0225C186.931 112.933 229.255 106.732 247.601 98.7683L238.214 122.661C198.28 135.29 170.946 97.4883 162.27 77.009L164.404 74.0225Z" fill="#141123"/>
<path d="M221.398 27.0902C232.655 46.5328 253.803 43.4345 262.97 39.455L258.28 51.3935C238.325 57.7038 224.667 38.8155 220.333 28.5825L221.398 27.0902Z" fill="#1C0F35"/>
<path d="M392.236 72.3157C369.708 111.226 327.384 105.026 309.038 97.0615L318.425 120.954C358.359 133.583 385.694 95.7816 394.369 75.3022L392.236 72.3157Z" fill="#141123"/>
<path d="M335.24 27.5172C323.984 46.9598 302.836 43.8615 293.669 39.882L298.359 51.8205C318.313 58.1308 331.971 39.2425 336.306 29.0095L335.24 27.5172Z" fill="#1C0F35"/>
<path d="M358.469 97.8993C343.442 96.0897 344.984 101.424 347.634 104.317L345.747 105.001C342.743 103.386 343.272 100.244 344.296 98.0556C346.2 93.9862 352.745 93.3934 355.616 93.9534C357.912 94.4014 365.124 94.8346 368.443 94.9951C391.646 92.2759 389.726 83.5454 387.516 79.9002C385.747 76.9841 387.201 75.9237 388.149 75.758C399.078 89.2264 377.252 100.161 358.469 97.8993Z" fill="#089858"/>
<path d="M198.267 97.8993C213.294 96.0897 211.752 101.424 209.102 104.317L210.989 105.001C213.993 103.386 213.464 100.244 212.44 98.0556C210.536 93.9862 203.991 93.3934 201.12 93.9534C198.824 94.4014 191.612 94.8346 188.293 94.9951C165.09 92.2759 167.009 83.5454 169.22 79.9002C170.988 76.9841 169.535 75.9237 168.587 75.758C157.658 89.2264 179.483 100.161 198.267 97.8993Z" fill="#089858"/>
<path d="M189.149 187.768C220.209 170.381 239.636 113.416 245.467 87.1063H313.731C319.562 113.416 338.989 170.381 370.05 187.768L315.865 219.511H290.266H268.933H243.334L189.149 187.768Z" fill="#1C0F35"/>
<path d="M294.057 65.4895C312.75 84.4961 337.454 56.0449 349.973 35.5937C351.994 32.2923 352.935 28.4741 352.935 24.6033C348.157 32.4537 334.162 52.9033 319.443 64.6362C305.363 72.9559 294.697 62.2896 294.057 56.5298C294.057 51.41 297.328 49.8456 298.963 49.7034C303.227 50.386 300.74 53.9699 298.963 55.6765C302.888 56.7005 303.585 53.2588 303.443 51.41C300.201 45.6075 295.266 49.5612 293.204 52.2633C293.545 41.6823 301.452 40.6015 305.363 41.3836C307.71 40.7437 313.896 47.3568 310.696 50.5567C308.136 53.1166 309.061 54.1832 309.843 54.3965C313.427 54.9085 314.039 49.9167 313.896 47.3568C309.971 38.9944 302.59 38.6104 299.391 39.4637C284.372 47.3141 289.578 60.0852 294.057 65.4895Z" fill="#241344"/>
<path d="M265.093 65.4892C246.557 84.3362 222.11 56.519 209.495 36.1102C207.252 32.4812 206.215 28.2664 206.215 24.0001C210.993 31.8505 224.988 52.9029 239.707 64.6359C253.787 72.9556 264.453 62.2893 265.093 56.5295C265.093 51.4096 261.822 49.8452 260.186 49.703C255.923 50.3857 258.41 53.9696 260.186 55.6762C256.262 56.7001 255.565 53.2585 255.707 51.4096C258.949 45.6072 263.884 49.5608 265.946 52.2629C265.605 41.682 257.698 40.6011 253.787 41.3833C251.44 40.7433 245.254 47.3564 248.454 50.5563C251.013 53.1162 250.089 54.1829 249.307 54.3962C245.723 54.9082 245.111 49.9164 245.254 47.3564C249.179 38.9941 256.56 38.6101 259.759 39.4634C274.778 47.3138 269.572 60.0849 265.093 65.4892Z" fill="#241344"/>
<path d="M280.333 91.3603C275.793 91.9794 270.186 88.0067 267.95 85.9429L269.498 81.2994C271.149 85.427 277.409 89.7265 280.333 91.3603Z" fill="white"/>
<path d="M279.044 91.3603C283.584 91.9794 289.191 88.0067 291.426 85.9429L289.878 81.2994C288.227 85.427 281.967 89.7265 279.044 91.3603Z" fill="white"/>
<path d="M279.817 118.964C274.038 98.9451 254.879 100.476 246.022 103.743L251.698 131.088H308.193L312.321 103.743C292.715 96.3138 282.482 110.795 279.817 118.964Z" fill="#08AC70"/>
<circle cx="248.881" cy="117.968" r="14.5062" fill="#059A64"/>
<circle cx="308.185" cy="117.968" r="14.5062" fill="#059A64"/>
<mask id="mask0_63_579" style="mask-type:alpha" maskUnits="userSpaceOnUse" x="246" y="101" width="67" height="31">
<path d="M279.817 118.964C274.038 98.9451 254.879 100.476 246.022 103.743L251.698 131.088H308.193L312.321 103.743C292.715 96.3138 282.482 110.795 279.817 118.964Z" fill="#08AC70"/>
</mask>
<g mask="url(#mask0_63_579)">
<path d="M307.451 130.021L298.215 100.936" stroke="#B5E88E" stroke-width="0.469365"/>
<path d="M252.464 130.021L261.7 100.936" stroke="#B5E88E" stroke-width="0.469365"/>
<path d="M307.534 130.357L306.14 99.8732" stroke="#B5E88E" stroke-width="0.469365"/>
<path d="M252.382 130.357L253.776 99.8732" stroke="#B5E88E" stroke-width="0.469365"/>
<path d="M307.229 130.113L290.781 104.41" stroke="#B5E88E" stroke-width="0.469365"/>
<path d="M252.686 130.113L269.135 104.41" stroke="#B5E88E" stroke-width="0.469365"/>
<path d="M306.444 129.456L282.686 110.104" stroke="#B5E88E" stroke-width="0.469365"/>
<path d="M253.471 129.456L277.229 110.104" stroke="#B5E88E" stroke-width="0.469365"/>
</g>
<path d="M226.417 104.259C233.021 116.022 227.105 122.23 223.321 123.864C208.462 130.262 185.829 127.906 176.37 125.928C176.783 168.648 202.339 186.551 215.066 190.163C216.7 183.971 220.741 169.68 223.837 162.044C226.932 154.408 244.56 135.989 252.987 127.734C257.321 117.209 250.322 107.01 246.28 103.227C243.099 100.475 236.529 93.6818 235.703 88.5224C234.672 82.0732 236.477 75.8819 243.959 73.8181C251.44 71.7543 256.599 77.4297 260.985 82.8471C264.493 87.181 266.574 86.8886 267.176 86.2007C268.724 85.9427 271.561 80.5253 268.466 73.8181C265.37 67.1109 246.797 55.5022 231.318 59.6297C215.84 63.7573 218.162 89.5543 226.417 104.259Z" fill="#E88128"/>
<path d="M332.958 104.259C326.354 116.022 332.27 122.23 336.054 123.864C350.912 130.262 373.545 127.906 383.004 125.928C382.592 168.648 357.035 186.551 344.309 190.163C342.675 183.971 338.634 169.68 335.538 162.044C332.442 154.408 314.814 135.989 306.387 127.734C302.053 117.209 309.053 107.01 313.095 103.227C316.276 100.475 322.846 93.6818 323.671 88.5224C324.703 82.0732 322.897 75.8819 315.416 73.8181C307.935 71.7543 302.776 77.4297 298.39 82.8471C294.882 87.181 292.801 86.8886 292.199 86.2007C290.651 85.9427 287.813 80.5253 290.909 73.8181C294.005 67.1109 312.578 55.5022 328.056 59.6297C343.535 63.7573 341.213 89.5543 332.958 104.259Z" fill="#E88128"/>
<mask id="mask1_63_579" style="mask-type:alpha" maskUnits="userSpaceOnUse" x="289" y="58" width="95" height="133">
<path d="M332.958 104.259C326.354 116.022 332.27 122.23 336.054 123.864C350.913 130.262 373.546 127.906 383.005 125.928C382.592 168.648 357.036 186.551 344.309 190.163C342.675 183.971 338.634 169.68 335.538 162.044C332.443 154.408 314.815 135.989 306.388 127.734C302.054 117.209 309.053 107.01 313.095 103.227C316.276 100.475 322.846 93.6818 323.672 88.5224C324.703 82.0732 322.898 75.8819 315.416 73.8181C307.935 71.7543 302.776 77.4297 298.39 82.8471C294.882 87.181 292.801 86.8886 292.199 86.2007C290.651 85.9427 287.814 80.5253 290.909 73.8181C294.005 67.1109 312.578 55.5022 328.057 59.6297C343.535 63.7573 341.213 89.5543 332.958 104.259Z" fill="#E88128"/>
</mask>
<g mask="url(#mask1_63_579)">
<path d="M338.264 150.18C332.461 137.551 313.802 127.425 305.198 123.94V130.98L342.744 195.831L355.117 188.152C355.287 182.861 352.059 171.868 350.423 167.032C358.274 166.179 358.53 156.864 357.676 152.313C360.45 154.802 366.722 159.011 369.623 155.939C372.524 152.867 371.543 146.695 370.689 143.993C374.273 147.918 381.711 149.753 384.982 150.18L389.249 136.74C373.818 134.749 338.648 130.17 336.771 132.9C334.893 135.631 336.771 144.846 338.264 150.18Z" fill="#A44C00"/>
</g>
<mask id="mask2_63_579" style="mask-type:alpha" maskUnits="userSpaceOnUse" x="176" y="58" width="94" height="133">
<path d="M226.417 104.259C233.021 116.022 227.105 122.23 223.321 123.864C208.462 130.262 185.829 127.906 176.37 125.928C176.783 168.648 202.339 186.551 215.066 190.163C216.7 183.971 220.741 169.68 223.837 162.044C226.932 154.408 244.56 135.989 252.987 127.734C257.321 117.209 250.322 107.01 246.28 103.227C243.099 100.475 236.529 93.6818 235.703 88.5224C234.672 82.0732 236.477 75.8819 243.959 73.8181C251.44 71.7543 256.599 77.4297 260.985 82.8471C264.493 87.181 266.574 86.8886 267.176 86.2007C268.724 85.9427 271.561 80.5253 268.466 73.8181C265.37 67.1109 246.797 55.5022 231.318 59.6297C215.84 63.7573 218.162 89.5543 226.417 104.259Z" fill="#E88128"/>
</mask>
<g mask="url(#mask2_63_579)">
<path d="M222.641 150.18C228.443 137.551 247.102 127.425 255.706 123.94V130.98L218.161 195.831L205.788 188.152C205.617 182.861 208.846 171.868 210.481 167.032C202.631 166.179 202.375 156.864 203.228 152.313C200.455 154.802 194.183 159.011 191.282 155.939C188.381 152.867 189.362 146.695 190.215 143.993C186.631 147.918 179.193 149.753 175.922 150.18L171.656 136.74C187.086 134.749 220.763 129.743 222.641 132.473C224.518 135.204 223.707 145.06 222.641 150.18Z" fill="#A44C00"/>
</g>
<path d="M279.048 122.059C237.479 122.059 213.984 160.972 213.984 189.481L235.672 202.386L279.306 207.39L320.617 202.386L344.113 189.481V187.637C344.113 159.129 320.617 122.059 279.048 122.059Z" fill="#241344"/>
<path d="M279.048 122.059C237.479 122.059 213.984 160.972 213.984 189.481L235.672 202.386L279.306 207.39L320.617 202.386L344.113 189.481V187.637C344.113 159.129 320.617 122.059 279.048 122.059Z" stroke="black"/>
<circle cx="265.628" cy="78.7203" r="2.5797" fill="black"/>
<circle cx="265.628" cy="78.7203" r="2.5797" stroke="black"/>
<circle cx="2.5797" cy="2.5797" r="2.5797" transform="matrix(-1 0 0 1 296.328 76.1406)" fill="black"/>
<circle cx="2.5797" cy="2.5797" r="2.5797" transform="matrix(-1 0 0 1 296.328 76.1406)" stroke="black"/>
<path d="M195.202 111.115C201.187 108.432 207.499 121.348 209.906 128.141L206.295 128.657C205.865 128.657 203.044 127.264 195.202 121.692C187.36 116.12 191.935 112.319 195.202 111.115Z" fill="#089858"/>
<mask id="mask3_63_579" style="mask-type:alpha" maskUnits="userSpaceOnUse" x="190" y="110" width="20" height="19">
<path d="M195.275 111.328C201.26 108.645 207.572 121.56 209.979 128.354L206.368 128.87C205.938 128.87 203.117 127.476 195.275 121.904C187.433 116.332 192.007 112.531 195.275 111.328Z" fill="#089858"/>
</mask>
<g mask="url(#mask3_63_579)">
<path d="M209.774 130.387L193.268 112.132" stroke="#8EB96D" stroke-width="0.31566"/>
<path d="M199.479 119.008L198.216 111.697" stroke="#8EB96D" stroke-width="0.31566"/>
<path d="M202.612 122.339L201.738 113.509" stroke="#8EB96D" stroke-width="0.31566"/>
<path d="M205.104 125.266L205.09 115.813" stroke="#8EB96D" stroke-width="0.31566"/>
<path d="M207.453 127.974L207.723 118.603" stroke="#8EB96D" stroke-width="0.31566"/>
<path d="M207.411 127.648L198.914 128.514" stroke="#8EB96D" stroke-width="0.31566"/>
<path d="M204.313 124.287L195.816 125.153" stroke="#8EB96D" stroke-width="0.31566"/>
<path d="M201.888 121.591L194.309 122.302" stroke="#8EB96D" stroke-width="0.31566"/>
<path d="M197.956 117.405L193.431 117.642" stroke="#8EB96D" stroke-width="0.31566"/>
</g>
<path d="M223.063 121.028C222.547 118.706 222.547 113.392 226.674 110.709C228.05 112.687 229.254 117.519 223.063 121.028Z" fill="#16C898"/>
<path d="M252.178 91.9205C250.387 90.3549 247.241 86.0722 248.979 81.4663C251.259 82.2457 255.09 85.4278 252.178 91.9205Z" fill="#16C898"/>
<path d="M308.575 91.9205C310.365 90.3549 313.512 86.0722 311.774 81.4663C309.494 82.2457 305.663 85.4278 308.575 91.9205Z" fill="#16C898"/>
<path d="M336.314 121.028C336.829 118.706 336.829 113.392 332.702 110.709C331.326 112.687 330.123 117.519 336.314 121.028Z" fill="#16C898"/>
<path d="M193.278 122.612C191.849 123.606 186.947 122.612 185.915 118.963C187.415 118.334 191.837 118.029 193.278 122.612Z" fill="#16C898"/>
<path d="M250.436 96.0584C249.006 97.0531 244.105 96.0584 243.073 92.4097C244.573 91.7812 248.995 91.4755 250.436 96.0584Z" fill="#16C898"/>
<path d="M310.317 96.0584C311.746 97.0531 316.648 96.0584 317.679 92.4097C316.179 91.7812 311.757 91.4755 310.317 96.0584Z" fill="#16C898"/>
<path d="M366.097 122.612C367.526 123.606 372.428 122.612 373.46 118.963C371.96 118.334 367.538 118.029 366.097 122.612Z" fill="#16C898"/>
<path d="M364.172 111.115C358.187 108.432 351.876 121.348 349.468 128.141L353.08 128.657C353.51 128.657 356.33 127.264 364.172 121.692C372.015 116.12 367.44 112.319 364.172 111.115Z" fill="#089858"/>
<mask id="mask4_63_579" style="mask-type:alpha" maskUnits="userSpaceOnUse" x="176" y="58" width="94" height="133">
<path d="M226.417 104.259C233.021 116.022 227.105 122.23 223.321 123.864C208.462 130.262 185.829 127.906 176.37 125.928C176.783 168.648 202.339 186.551 215.066 190.163C216.7 183.971 220.741 169.68 223.837 162.044C226.932 154.408 244.56 135.989 252.987 127.734C257.321 117.209 250.322 107.01 246.28 103.227C243.099 100.475 236.529 93.6818 235.703 88.5224C234.672 82.0732 236.477 75.8819 243.959 73.8181C251.44 71.7543 256.599 77.4297 260.985 82.8471C264.493 87.181 266.574 86.8886 267.176 86.2007C268.724 85.9427 271.561 80.5253 268.466 73.8181C265.37 67.1109 246.797 55.5022 231.318 59.6297C215.84 63.7573 218.162 89.5543 226.417 104.259Z" fill="#E88128"/>
</mask>
<g mask="url(#mask4_63_579)">
<path d="M242.41 99.3573L226.674 105.291L228.222 115.351C228.91 116.469 230.699 118.344 232.35 116.899C234.001 115.455 233.038 110.622 232.35 108.386C233.897 111.224 237.251 116.487 238.283 114.835C239.315 113.184 236.993 108.128 235.703 105.807C237.767 108.214 242.153 112.72 243.184 111.482C244.216 110.244 241.723 105.979 240.347 104.001C247.157 111.018 249.892 109.848 250.408 108.386L248.602 103.485L242.41 99.3573Z" fill="#C75924"/>
<path d="M235.445 84.137C232.969 85.788 224.638 86.6022 220.596 86.8602L218.677 89.0384L221.257 90.3282H235.961L236.477 86.4587L235.445 84.137Z" fill="#C75924"/>
<path d="M239.315 75.8823L223.321 65.5635C219.606 70.1037 219.709 75.0224 220.225 76.9142C221.051 76.9142 223.665 72.4427 224.869 70.2069C223.321 73.5605 223.321 79.2359 224.869 79.7518C226.107 80.1646 227.449 76.6562 227.964 74.8504C226.933 78.7715 228.394 80.2678 229.254 80.5257C231.834 81.2996 233.084 75.1889 233.124 74.8504C232.505 79.597 234.758 81.6436 235.962 82.0736L239.315 75.8823Z" fill="#C75924"/>
<path d="M223.062 123.607C213.775 126.29 188.064 126.273 176.369 125.929C174.907 131.26 171.985 141.149 176.885 143.471C185.141 147.082 191.589 140.547 193.395 137.537C191.847 142.267 189.68 152.035 193.395 153.273C199.38 154.718 204.66 147.684 206.552 143.987C203.714 151.21 204.746 159.981 207.841 159.207C221.256 153.841 223.578 133.238 223.062 123.607Z" fill="#C75924"/>
</g>
<mask id="mask5_63_579" style="mask-type:alpha" maskUnits="userSpaceOnUse" x="349" y="110" width="20" height="19">
<path d="M363.936 111.115C357.951 108.432 351.64 121.348 349.232 128.141L352.844 128.657C353.274 128.657 356.094 127.264 363.936 121.692C371.779 116.12 367.204 112.319 363.936 111.115Z" fill="#089858"/>
</mask>
<g mask="url(#mask5_63_579)">
<path d="M349.437 130.174L365.943 111.919" stroke="#8EB96D" stroke-width="0.31566"/>
<path d="M359.732 118.796L360.995 111.484" stroke="#8EB96D" stroke-width="0.31566"/>
<path d="M356.6 122.127L357.474 113.297" stroke="#8EB96D" stroke-width="0.31566"/>
<path d="M354.106 125.053L354.121 115.601" stroke="#8EB96D" stroke-width="0.31566"/>
<path d="M351.757 127.762L351.488 118.39" stroke="#8EB96D" stroke-width="0.31566"/>
<path d="M351.799 127.435L360.297 128.302" stroke="#8EB96D" stroke-width="0.31566"/>
<path d="M354.898 124.074L363.396 124.94" stroke="#8EB96D" stroke-width="0.31566"/>
<path d="M357.323 121.379L364.902 122.09" stroke="#8EB96D" stroke-width="0.31566"/>
<path d="M361.256 117.192L365.781 117.429" stroke="#8EB96D" stroke-width="0.31566"/>
</g>
<path d="M202.683 104.259C202.683 105.257 202.106 106.065 201.393 106.065C200.681 106.065 200.104 105.257 200.104 104.259C200.104 103.262 200.681 102.453 201.393 102.453C202.106 102.453 202.683 103.262 202.683 104.259Z" fill="#09AFB6"/>
<path d="M202.683 104.259C202.683 105.257 202.106 106.065 201.393 106.065C200.681 106.065 200.104 105.257 200.104 104.259C200.104 103.262 200.681 102.453 201.393 102.453C202.106 102.453 202.683 103.262 202.683 104.259Z" stroke="black"/>
<path d="M356.692 104.259C356.692 105.257 357.269 106.065 357.981 106.065C358.694 106.065 359.271 105.257 359.271 104.259C359.271 103.262 358.694 102.453 357.981 102.453C357.269 102.453 356.692 103.262 356.692 104.259Z" fill="#09AFB6"/>
<path d="M356.692 104.259C356.692 105.257 357.269 106.065 357.981 106.065C358.694 106.065 359.271 105.257 359.271 104.259C359.271 103.262 358.694 102.453 357.981 102.453C357.269 102.453 356.692 103.262 356.692 104.259Z" stroke="black"/>
<circle cx="208.874" cy="97.8095" r="1.54782" fill="#09AFB6"/>
<circle cx="208.874" cy="97.8095" r="1.54782" stroke="black"/>
<circle cx="1.54782" cy="1.54782" r="1.54782" transform="matrix(-1 0 0 1 353.946 96.2086)" fill="#09AFB6"/>
<circle cx="1.54782" cy="1.54782" r="1.54782" transform="matrix(-1 0 0 1 353.946 96.2086)" stroke="black"/>
<path d="M202.426 134.957C198.9 138.139 192.52 145.379 195.203 148.887C197.886 152.396 201.136 141.062 202.426 134.957Z" fill="#F35F47"/>
<mask id="mask6_63_579" style="mask-type:alpha" maskUnits="userSpaceOnUse" x="289" y="58" width="95" height="133">
<path d="M332.958 104.259C326.354 116.022 332.27 122.23 336.054 123.864C350.913 130.262 373.546 127.906 383.005 125.928C382.592 168.648 357.036 186.551 344.309 190.163C342.675 183.971 338.634 169.68 335.538 162.044C332.443 154.408 314.815 135.989 306.388 127.734C302.054 117.209 309.053 107.01 313.095 103.227C316.276 100.475 322.846 93.6818 323.672 88.5224C324.703 82.0732 322.898 75.8819 315.416 73.8181C307.935 71.7543 302.776 77.4297 298.39 82.8471C294.882 87.181 292.801 86.8886 292.199 86.2007C290.651 85.9427 287.814 80.5253 290.909 73.8181C294.005 67.1109 312.578 55.5022 328.057 59.6297C343.535 63.7573 341.213 89.5543 332.958 104.259Z" fill="#E88128"/>
</mask>
<g mask="url(#mask6_63_579)">
<path d="M336.313 123.607C345.6 126.29 371.311 126.273 383.006 125.929C384.468 131.26 387.39 141.149 382.49 143.471C374.234 147.082 367.785 140.547 365.98 137.537C367.528 142.267 369.694 152.035 365.98 153.273C359.995 154.718 354.715 147.684 352.823 143.987C355.661 151.21 354.629 159.981 351.533 159.207C338.119 153.841 335.797 133.238 336.313 123.607Z" fill="#C75924"/>
<path d="M323.93 84.137C326.407 85.788 335.109 86.7167 339.15 86.9746L340.698 89.0384L338.119 90.3282H323.414L322.898 86.4587L323.93 84.137Z" fill="#C75924"/>
<path d="M320.06 75.8822L336.054 65.5634C339.769 70.1036 339.666 75.0223 339.15 76.914C338.324 76.914 335.71 72.4426 334.506 70.2068C336.054 73.5604 336.054 79.2358 334.506 79.7517C333.268 80.1645 331.927 76.6561 331.411 74.8503C332.443 78.7714 330.981 80.2676 330.121 80.5256C327.541 81.2995 326.291 75.1888 326.251 74.8503C326.871 79.5969 324.618 81.6435 323.414 82.0734L320.06 75.8822Z" fill="#C75924"/>
<path d="M316.965 99.3572L332.701 105.29L331.153 115.351C330.465 116.469 328.676 118.344 327.025 116.899C325.374 115.455 326.337 110.622 327.025 108.386C325.478 111.224 322.124 116.486 321.092 114.835C320.06 113.184 322.382 108.128 323.672 105.806C321.608 108.214 317.222 112.72 316.191 111.482C315.159 110.244 317.652 105.978 319.028 104.001C312.218 111.017 309.483 109.848 308.967 108.386L310.773 103.485L316.965 99.3572Z" fill="#C75924"/>
</g>
<path d="M356.949 134.957C360.474 138.139 366.855 145.379 364.172 148.887C361.489 152.396 358.239 141.062 356.949 134.957Z" fill="#F35F47"/>
<path d="M214.582 136.868C211.813 140.726 205.457 151.178 209.648 152.242C213.929 153.328 214.62 143.108 214.582 136.868Z" fill="#F35F47"/>
<path d="M344.794 136.868C347.562 140.726 353.919 151.178 349.728 152.242C345.447 153.328 344.756 143.108 344.794 136.868Z" fill="#F35F47"/>
<path d="M189.862 129.267C186.442 132.114 178.344 139.922 182.462 141.128C186.668 142.361 188.943 134.255 189.862 129.267Z" fill="#F35F47"/>
<path d="M369.514 129.267C372.935 132.114 381.033 139.922 376.915 141.128C372.709 142.361 370.434 134.255 369.514 129.267Z" fill="#F35F47"/>
<path d="M195.863 134.454C195.513 135.234 194.702 135.63 194.052 135.338C193.403 135.046 193.159 134.178 193.51 133.398C193.86 132.618 194.67 132.222 195.32 132.514C195.97 132.806 196.213 133.674 195.863 134.454Z" fill="#F5E994"/>
<path d="M195.863 134.454C195.513 135.234 194.702 135.63 194.052 135.338C193.403 135.046 193.159 134.178 193.51 133.398C193.86 132.618 194.67 132.222 195.32 132.514C195.97 132.806 196.213 133.674 195.863 134.454Z" stroke="black"/>
<path d="M363.513 134.454C363.863 135.234 364.674 135.63 365.323 135.338C365.973 135.046 366.216 134.178 365.866 133.398C365.516 132.618 364.706 132.222 364.056 132.514C363.406 132.806 363.163 133.674 363.513 134.454Z" fill="#F5E994"/>
<path d="M363.513 134.454C363.863 135.234 364.674 135.63 365.323 135.338C365.973 135.046 366.216 134.178 365.866 133.398C365.516 132.618 364.706 132.222 364.056 132.514C363.406 132.806 363.163 133.674 363.513 134.454Z" stroke="black"/>
<path d="M208.824 139.961C208.586 140.782 207.838 141.286 207.154 141.087C206.47 140.889 206.109 140.062 206.347 139.241C206.585 138.421 207.333 137.916 208.017 138.115C208.701 138.313 209.063 139.14 208.824 139.961Z" fill="#F5E994"/>
<path d="M208.824 139.961C208.586 140.782 207.838 141.286 207.154 141.087C206.47 140.889 206.109 140.062 206.347 139.241C206.585 138.421 207.333 137.916 208.017 138.115C208.701 138.313 209.063 139.14 208.824 139.961Z" stroke="black"/>
<path d="M350.552 139.961C350.79 140.782 351.538 141.286 352.222 141.087C352.906 140.889 353.268 140.062 353.029 139.241C352.791 138.421 352.043 137.916 351.359 138.115C350.675 138.313 350.314 139.14 350.552 139.961Z" fill="#F5E994"/>
<path d="M350.552 139.961C350.79 140.782 351.538 141.286 352.222 141.087C352.906 140.889 353.268 140.062 353.029 139.241C352.791 138.421 352.043 137.916 351.359 138.115C350.675 138.313 350.314 139.14 350.552 139.961Z" stroke="black"/>
<path d="M212.228 103.227C202.735 102.608 210.164 116.211 215.066 123.091C220.638 119.789 224.611 109.16 224.353 106.839C224.095 104.517 222.908 103.537 220.225 102.711C217.542 101.885 215.496 107.01 214.808 109.676C215.427 104.723 213.346 103.313 212.228 103.227Z" fill="#089C58"/>
<path d="M347.147 103.227C356.64 102.608 349.211 116.211 344.309 123.091C338.737 119.789 334.764 109.16 335.022 106.839C335.28 104.517 336.467 103.537 339.15 102.711C341.833 101.885 343.879 107.01 344.567 109.676C343.948 104.723 346.029 103.313 347.147 103.227Z" fill="#089C58"/>
<mask id="mask7_63_579" style="mask-type:alpha" maskUnits="userSpaceOnUse" x="335" y="102" width="17" height="22">
<path d="M347.147 103.227C356.64 102.607 349.211 116.211 344.309 123.09C338.737 119.788 334.764 109.16 335.022 106.838C335.28 104.516 336.467 103.536 339.15 102.711C341.833 101.885 343.879 107.01 344.567 109.676C343.948 104.723 346.029 103.313 347.147 103.227Z" fill="#089C58"/>
</mask>
<g mask="url(#mask7_63_579)">
<path d="M343.181 95.6065L344.018 132.192" stroke="#8EB96D" stroke-width="0.469365"/>
<path d="M343.709 118.416L338.026 127.872" stroke="#8EB96D" stroke-width="0.469365"/>
<path d="M343.421 111.624L335.823 122.41" stroke="#8EB96D" stroke-width="0.469365"/>
<path d="M343.459 105.907L334.29 116.559" stroke="#8EB96D" stroke-width="0.469365"/>
<path d="M343.448 100.576L334.037 110.862" stroke="#8EB96D" stroke-width="0.469365"/>
<path d="M343.179 100.984L353.584 108.267" stroke="#8EB96D" stroke-width="0.469365"/>
<path d="M343.398 107.778L353.803 115.061" stroke="#8EB96D" stroke-width="0.469365"/>
<path d="M343.509 113.168L352.729 119.733" stroke="#8EB96D" stroke-width="0.469365"/>
<path d="M343.866 121.702L349.189 125.832" stroke="#8EB96D" stroke-width="0.469365"/>
</g>
<mask id="mask8_63_579" style="mask-type:alpha" maskUnits="userSpaceOnUse" x="207" y="102" width="18" height="22">
<path d="M212.166 103.227C202.673 102.607 210.102 116.211 215.004 123.09C220.576 119.788 224.549 109.16 224.291 106.838C224.033 104.516 222.846 103.536 220.163 102.711C217.48 101.885 215.434 107.01 214.746 109.676C215.365 104.723 213.284 103.313 212.166 103.227Z" fill="#089C58"/>
</mask>
<g mask="url(#mask8_63_579)">
<path d="M216.132 95.6064L215.296 132.192" stroke="#8EB96D" stroke-width="0.469365"/>
<path d="M215.605 118.416L221.288 127.872" stroke="#8EB96D" stroke-width="0.469365"/>
<path d="M215.893 111.624L223.491 122.41" stroke="#8EB96D" stroke-width="0.469365"/>
<path d="M215.855 105.907L225.024 116.559" stroke="#8EB96D" stroke-width="0.469365"/>
<path d="M215.866 100.576L225.277 110.862" stroke="#8EB96D" stroke-width="0.469365"/>
<path d="M216.136 100.984L205.73 108.268" stroke="#8EB96D" stroke-width="0.469365"/>
<path d="M215.916 107.778L205.51 115.061" stroke="#8EB96D" stroke-width="0.469365"/>
<path d="M215.805 113.168L206.585 119.733" stroke="#8EB96D" stroke-width="0.469365"/>
<path d="M215.447 121.702L210.125 125.832" stroke="#8EB96D" stroke-width="0.469365"/>
</g>
<path d="M385.364 60.4636C385.534 61.6578 384.853 63.0794 384.853 64.0461L391.506 74.9643L394.918 72.9172L398.159 70.6994C398.159 70.6994 395.94 69.8464 395.43 69.5052C394.919 69.1641 394.918 68.311 395.43 67.9699C395.941 67.6287 400.546 64.2167 401.059 63.5343C401.572 62.852 403.276 54.1515 402.254 53.6397C401.231 53.1279 398.159 59.6106 398.159 59.6106C398.159 59.6106 400.035 51.7631 398.671 51.4219C397.307 51.0807 394.406 57.9046 394.406 57.9046C394.406 57.9046 394.406 51.4219 392.529 51.7631C391.336 52.1043 390.994 58.587 390.994 58.587C390.994 58.587 389.801 51.7631 388.265 52.1043C386.728 52.4455 387.241 58.587 387.241 58.587C387.241 58.587 385.876 53.4691 384.682 54.1515C383.488 54.8339 385.364 60.4636 385.364 60.4636Z" fill="#C36428"/>
<path d="M404.128 79.7412C403.991 78.7859 401.682 76.6136 400.545 75.6469L401.739 73.9409C404.469 75.0327 404.469 78.2627 404.128 79.7412Z" fill="black"/>
<path d="M402.081 76.5005C400.375 75.9887 396.622 75.6475 395.257 78.377C394.063 80.1967 390.242 83.7338 384.51 83.3244C384.51 83.3244 378.027 82.8126 376.321 84.6891C374.615 86.0539 372.738 90.3188 372.738 90.3188C372.738 90.3188 370.521 95.9486 368.815 95.778C367.109 95.6074 369.497 90.8306 369.497 90.8306C368.985 91.2856 367.825 92.4001 367.279 93.219C366.704 94.0827 365.277 95.6754 364.128 95.2291C363.693 95.0599 363.685 94.4924 363.925 94.0915C364.732 92.7429 366.505 89.7406 366.768 88.9541C367.109 87.9305 372.056 81.1066 373.421 80.083C375.468 78.2064 375.98 76.5005 375.98 75.9887C375.98 75.4769 375.468 75.1357 374.956 75.4769C374.444 75.8181 372.056 78.377 369.668 78.2064C367.279 78.0358 368.474 75.8181 368.815 75.4769C369.106 75.1858 370.887 73.7769 371.404 73.3696C370.541 73.8107 365.955 75.0057 364.72 73.7709C363.356 72.4061 369.497 68.9942 369.497 68.9942C369.497 68.9942 361.991 70.5296 360.967 68.9942C359.944 67.4588 366.085 65.5822 366.085 65.5822C366.085 65.5822 360.455 65.5822 360.455 64.0469C360.455 62.5115 367.109 62.1703 367.109 62.1703C367.109 62.1703 353.29 59.2701 357.044 56.37C359.09 55.8582 368.815 57.9053 368.815 57.9053C373.16 58.9638 382.253 61.3539 384.546 62.6055C384.638 62.6559 384.731 62.6959 384.833 62.7215C385.744 62.9507 387.489 63.2808 388.262 63.0231C388.547 62.9662 389.115 63.1255 389.115 64.2173C389.115 65.5821 390.821 74.6237 393.38 73.0883C395.01 72.1104 396.315 71.1397 397.038 70.555C397.324 70.3238 397.679 70.1796 398.043 70.2312C399.421 70.4266 401.593 71.3367 402.422 73.9413C402.65 74.6238 402.9 76.0912 402.081 76.5005Z" fill="#DE8D21"/>
<ellipse cx="399.694" cy="73.7699" rx="1.02358" ry="0.852986" fill="black"/>
<mask id="mask9_63_579" style="mask-type:alpha" maskUnits="userSpaceOnUse" x="356" y="56" width="47" height="40">
<path d="M402.081 76.3992C400.375 75.8874 396.622 75.5462 395.257 78.2757C394.063 80.0954 390.242 83.6325 384.51 83.223C384.51 83.223 378.027 82.7112 376.321 84.5878C374.615 85.9526 372.738 90.2175 372.738 90.2175C372.738 90.2175 370.521 95.8472 368.815 95.6766C367.109 95.506 369.497 90.7293 369.497 90.7293C368.985 91.1842 367.825 92.2988 367.279 93.1177C366.704 93.9814 365.277 95.5741 364.128 95.1278C363.693 94.9586 363.685 94.3911 363.925 93.9902C364.732 92.6416 366.505 89.6392 366.768 88.8527C367.109 87.8292 372.056 81.0053 373.421 79.9817C375.468 78.1051 375.98 76.3991 375.98 75.8874C375.98 75.3756 375.468 75.0344 374.956 75.3756C374.444 75.7168 372.056 78.2757 369.668 78.1051C367.279 77.9345 368.474 75.7168 368.815 75.3756C369.106 75.0844 370.887 73.6756 371.404 73.2683C370.541 73.7093 365.955 74.9044 364.72 73.6696C363.356 72.3048 369.497 68.8929 369.497 68.8929C369.497 68.8929 361.991 70.4282 360.967 68.8929C359.944 67.3575 366.085 65.4809 366.085 65.4809C366.085 65.4809 360.455 65.4809 360.455 63.9455C360.455 62.4102 367.109 62.069 367.109 62.069C367.109 62.069 353.29 59.1688 357.044 56.2687C359.09 55.7569 368.815 57.804 368.815 57.804C373.16 58.8624 382.253 61.2526 384.546 62.5042C384.638 62.5546 384.731 62.5945 384.833 62.6202C385.744 62.8493 387.489 63.1794 388.262 62.9218C388.547 62.8649 389.115 63.0241 389.115 64.116C389.115 65.4807 390.821 74.5224 393.38 72.987C395.01 72.0091 396.315 71.0384 397.038 70.4537C397.324 70.2224 397.679 70.0783 398.043 70.1299C399.421 70.3253 401.593 71.2353 402.422 73.84C402.65 74.5225 402.9 75.9899 402.081 76.3992Z" fill="#DE8D21"/>
</mask>
<g mask="url(#mask9_63_579)">
<path d="M378.708 81.9581C376.661 82.9135 376.149 84.972 376.149 85.8819L385.02 86.9055L396.109 79.5698C395.37 78.9442 393.936 78.8222 391.844 79.5698C387.067 81.2767 381.267 80.7639 378.708 81.9581Z" fill="#C36428"/>
</g>
<path d="M367.622 60.3555C365.615 60.3868 360.551 60.095 361.605 58.4724C362.682 56.8148 365.842 58.9194 367.622 60.3555Z" fill="#D81828"/>
<path d="M368.517 64.1689C366.63 63.4854 362.289 62.0549 362.215 63.9884C362.147 65.7447 366.366 64.9465 368.517 64.1689Z" fill="#D81828"/>
<path d="M368.767 67.4635C366.774 67.2338 362.22 66.8435 362.593 68.7421C362.933 70.4666 366.854 68.7165 368.767 67.4635Z" fill="#D81828"/>
<path d="M372.041 70.3819C370.051 70.6429 365.539 71.369 366.362 73.1202C367.109 74.7109 370.488 72.0618 372.041 70.3819Z" fill="#D81828"/>
<path d="M375.302 72.5145C373.433 73.2455 369.227 75.0337 370.447 76.5362C371.554 77.9009 374.199 74.5179 375.302 72.5145Z" fill="#D81828"/>
<path d="M369.157 62.815C369.608 62.8976 370.029 62.6599 370.098 62.284C370.167 61.9081 369.857 61.5365 369.406 61.4539C368.955 61.3713 368.534 61.609 368.465 61.9849C368.396 62.3607 368.706 62.7324 369.157 62.815Z" fill="#F5E994"/>
<path d="M369.157 62.815C369.608 62.8976 370.029 62.6599 370.098 62.284C370.167 61.9081 369.857 61.5365 369.406 61.4539C368.955 61.3713 368.534 61.609 368.465 61.9849C368.396 62.3607 368.706 62.7324 369.157 62.815Z" stroke="black"/>
<path d="M370.077 66.2289C370.53 66.1534 370.845 65.7867 370.782 65.4098C370.72 65.0329 370.302 64.7885 369.85 64.864C369.397 64.9394 369.082 65.3062 369.145 65.6831C369.207 66.06 369.625 66.3043 370.077 66.2289Z" fill="#F5E994"/>
<path d="M370.077 66.2289C370.53 66.1534 370.845 65.7867 370.782 65.4098C370.72 65.0329 370.302 64.7885 369.85 64.864C369.397 64.9394 369.082 65.3062 369.145 65.6831C369.207 66.06 369.625 66.3043 370.077 66.2289Z" stroke="black"/>
<path d="M371.672 69.0389C372.097 68.8686 372.328 68.443 372.186 68.0882C372.044 67.7334 371.584 67.5838 371.158 67.7541C370.732 67.9244 370.502 68.3501 370.644 68.7049C370.786 69.0597 371.246 69.2092 371.672 69.0389Z" fill="#F5E994"/>
<path d="M371.672 69.0389C372.097 68.8686 372.328 68.443 372.186 68.0882C372.044 67.7334 371.584 67.5838 371.158 67.7541C370.732 67.9244 370.502 68.3501 370.644 68.7049C370.786 69.0597 371.246 69.2092 371.672 69.0389Z" stroke="black"/>
<path d="M374.579 71.6643C374.936 71.376 375.03 70.9014 374.79 70.6043C374.55 70.3071 374.066 70.2998 373.709 70.5881C373.353 70.8763 373.258 71.3509 373.499 71.6481C373.739 71.9453 374.223 71.9525 374.579 71.6643Z" fill="#F5E994"/>
<path d="M374.579 71.6643C374.936 71.376 375.03 70.9014 374.79 70.6043C374.55 70.3071 374.066 70.2998 373.709 70.5881C373.353 70.8763 373.258 71.3509 373.499 71.6481C373.739 71.9453 374.223 71.9525 374.579 71.6643Z" stroke="black"/>
<path d="M174.362 60.4636C174.193 61.6578 174.874 63.0794 174.874 64.0461L168.221 74.9643L164.809 72.9172L161.568 70.6994C161.568 70.6994 163.786 69.8464 164.297 69.5052C164.808 69.1641 164.809 68.311 164.297 67.9699C163.785 67.6287 159.18 64.2167 158.667 63.5343C158.155 62.852 156.451 54.1515 157.473 53.6397C158.496 53.1279 161.568 59.6106 161.568 59.6106C161.568 59.6106 159.692 51.7631 161.056 51.4219C162.42 51.0807 165.321 57.9046 165.321 57.9046C165.321 57.9046 165.321 51.4219 167.197 51.7631C168.39 52.1043 168.733 58.587 168.733 58.587C168.733 58.587 169.926 51.7631 171.462 52.1043C172.999 52.4455 172.486 58.587 172.486 58.587C172.486 58.587 173.851 53.4691 175.045 54.1515C176.239 54.8339 174.362 60.4636 174.362 60.4636Z" fill="#C36428"/>
<path d="M155.598 79.741C155.735 78.7856 158.044 76.6134 159.181 75.6466L157.987 73.9407C155.257 75.0325 155.257 78.2625 155.598 79.741Z" fill="black"/>
<path d="M157.645 76.5005C159.351 75.9887 163.104 75.6475 164.469 78.377C165.663 80.1967 169.485 83.7338 175.217 83.3244C175.217 83.3244 181.699 82.8126 183.405 84.6891C185.111 86.0539 186.988 90.3188 186.988 90.3188C186.988 90.3188 189.206 95.9486 190.912 95.778C192.618 95.6074 190.229 90.8306 190.229 90.8306C190.741 91.2856 191.901 92.4001 192.447 93.219C193.023 94.0827 194.449 95.6754 195.598 95.2291C196.033 95.0599 196.041 94.4924 195.801 94.0915C194.994 92.7429 193.221 89.7406 192.959 88.9541C192.618 87.9305 187.67 81.1066 186.305 80.083C184.258 78.2064 183.747 76.5005 183.747 75.9887C183.747 75.4769 184.258 75.1357 184.77 75.4769C185.282 75.8181 187.67 78.377 190.059 78.2064C192.447 78.0358 191.253 75.8181 190.912 75.4769C190.62 75.1858 188.839 73.7769 188.322 73.3696C189.185 73.8107 193.771 75.0057 195.006 73.7709C196.371 72.4061 190.229 68.9942 190.229 68.9942C190.229 68.9942 197.735 70.5296 198.759 68.9942C199.783 67.4588 193.641 65.5822 193.641 65.5822C193.641 65.5822 199.271 65.5822 199.271 64.0469C199.271 62.5115 192.618 62.1703 192.618 62.1703C192.618 62.1703 206.436 59.2701 202.683 56.37C200.636 55.8582 190.912 57.9053 190.912 57.9053C186.566 58.9638 177.473 61.3539 175.18 62.6055C175.088 62.6559 174.996 62.6959 174.894 62.7215C173.983 62.9507 172.237 63.2808 171.464 63.0231C171.18 62.9662 170.611 63.1255 170.611 64.2173C170.611 65.5821 168.905 74.6237 166.346 73.0883C164.716 72.1104 163.411 71.1397 162.688 70.555C162.402 70.3238 162.048 70.1796 161.684 70.2312C160.306 70.4266 158.133 71.3367 157.304 73.9413C157.077 74.6238 156.826 76.0912 157.645 76.5005Z" fill="#DE8D21"/>
<ellipse cx="1.02358" cy="0.852986" rx="1.02358" ry="0.852986" transform="matrix(-1 0 0 1 161.057 72.9169)" fill="black"/>
<mask id="mask10_63_579" style="mask-type:alpha" maskUnits="userSpaceOnUse" x="157" y="56" width="47" height="40">
<path d="M157.645 76.3992C159.351 75.8874 163.104 75.5462 164.469 78.2757C165.663 80.0954 169.485 83.6325 175.217 83.223C175.217 83.223 181.699 82.7112 183.405 84.5878C185.111 85.9526 186.988 90.2175 186.988 90.2175C186.988 90.2175 189.206 95.8472 190.912 95.6766C192.618 95.506 190.229 90.7293 190.229 90.7293C190.741 91.1842 191.901 92.2988 192.447 93.1177C193.023 93.9814 194.449 95.5741 195.598 95.1278C196.033 94.9586 196.041 94.3911 195.801 93.9902C194.994 92.6416 193.221 89.6392 192.959 88.8527C192.618 87.8292 187.67 81.0053 186.305 79.9817C184.258 78.1051 183.747 76.3991 183.747 75.8874C183.747 75.3756 184.258 75.0344 184.77 75.3756C185.282 75.7168 187.67 78.2757 190.059 78.1051C192.447 77.9345 191.253 75.7168 190.912 75.3756C190.62 75.0844 188.839 73.6756 188.322 73.2683C189.185 73.7093 193.771 74.9044 195.006 73.6696C196.371 72.3048 190.229 68.8929 190.229 68.8929C190.229 68.8929 197.735 70.4282 198.759 68.8929C199.783 67.3575 193.641 65.4809 193.641 65.4809C193.641 65.4809 199.271 65.4809 199.271 63.9455C199.271 62.4102 192.618 62.069 192.618 62.069C192.618 62.069 206.436 59.1688 202.683 56.2687C200.636 55.7569 190.912 57.804 190.912 57.804C186.566 58.8624 177.473 61.2526 175.18 62.5042C175.088 62.5546 174.996 62.5945 174.894 62.6202C173.983 62.8493 172.237 63.1794 171.464 62.9218C171.18 62.8649 170.611 63.0241 170.611 64.116C170.611 65.4807 168.905 74.5224 166.346 72.987C164.716 72.0091 163.411 71.0384 162.688 70.4537C162.402 70.2224 162.048 70.0783 161.684 70.1299C160.306 70.3253 158.133 71.2353 157.304 73.84C157.077 74.5225 156.826 75.9899 157.645 76.3992Z" fill="#DE8D21"/>
</mask>
<g mask="url(#mask10_63_579)">
<path d="M181.019 81.9581C183.066 82.9135 183.578 84.972 183.578 85.8819L174.707 86.9055L163.618 79.5698C164.357 78.9442 165.791 78.8222 167.883 79.5698C172.66 81.2767 178.46 80.7639 181.019 81.9581Z" fill="#C36428"/>
</g>
<path d="M192.105 60.3555C194.111 60.3868 199.176 60.095 198.122 58.4724C197.045 56.8148 193.885 58.9194 192.105 60.3555Z" fill="#D81828"/>
<path d="M191.21 64.1689C193.096 63.4854 197.437 62.0549 197.512 63.9884C197.58 65.7447 193.361 64.9465 191.21 64.1689Z" fill="#D81828"/>
<path d="M190.959 67.4635C192.953 67.2338 197.506 66.8435 197.133 68.7421C196.794 70.4666 192.873 68.7165 190.959 67.4635Z" fill="#D81828"/>
<path d="M187.686 70.3819C189.676 70.6429 194.188 71.369 193.365 73.1202C192.618 74.7109 189.238 72.0618 187.686 70.3819Z" fill="#D81828"/>
<path d="M184.424 72.5145C186.293 73.2455 190.499 75.0337 189.28 76.5362C188.172 77.9009 185.528 74.5179 184.424 72.5145Z" fill="#D81828"/>
<path d="M190.571 62.815C190.119 62.8976 189.698 62.6599 189.629 62.284C189.56 61.9081 189.87 61.5365 190.321 61.4539C190.772 61.3713 191.194 61.609 191.263 61.9849C191.331 62.3607 191.022 62.7324 190.571 62.815Z" fill="#F5E994"/>
<path d="M190.571 62.815C190.119 62.8976 189.698 62.6599 189.629 62.284C189.56 61.9081 189.87 61.5365 190.321 61.4539C190.772 61.3713 191.194 61.609 191.263 61.9849C191.331 62.3607 191.022 62.7324 190.571 62.815Z" stroke="black"/>
<path d="M189.649 66.2289C189.197 66.1534 188.881 65.7867 188.944 65.4098C189.007 65.0329 189.424 64.7885 189.877 64.864C190.329 64.9394 190.645 65.3062 190.582 65.6831C190.519 66.06 190.101 66.3043 189.649 66.2289Z" fill="#F5E994"/>
<path d="M189.649 66.2289C189.197 66.1534 188.881 65.7867 188.944 65.4098C189.007 65.0329 189.424 64.7885 189.877 64.864C190.329 64.9394 190.645 65.3062 190.582 65.6831C190.519 66.06 190.101 66.3043 189.649 66.2289Z" stroke="black"/>
<path d="M188.055 69.0389C187.63 68.8686 187.399 68.443 187.541 68.0882C187.683 67.7334 188.143 67.5838 188.569 67.7541C188.995 67.9244 189.225 68.3501 189.083 68.7049C188.941 69.0597 188.481 69.2092 188.055 69.0389Z" fill="#F5E994"/>
<path d="M188.055 69.0389C187.63 68.8686 187.399 68.443 187.541 68.0882C187.683 67.7334 188.143 67.5838 188.569 67.7541C188.995 67.9244 189.225 68.3501 189.083 68.7049C188.941 69.0597 188.481 69.2092 188.055 69.0389Z" stroke="black"/>
<path d="M185.148 71.664C184.792 71.3758 184.697 70.9012 184.937 70.604C185.178 70.3068 185.661 70.2996 186.018 70.5878C186.375 70.8761 186.469 71.3507 186.229 71.6478C185.989 71.945 185.505 71.9523 185.148 71.664Z" fill="#F5E994"/>
<path d="M185.148 71.664C184.792 71.3758 184.697 70.9012 184.937 70.604C185.178 70.3068 185.661 70.2996 186.018 70.5878C186.375 70.8761 186.469 71.3507 186.229 71.6478C185.989 71.945 185.505 71.9523 185.148 71.664Z" stroke="black"/>
<path d="M387.682 128.451C390.953 122.976 399.073 112.366 405.388 113.732C408.801 116.078 404.236 127.598 387.682 128.451Z" fill="#084850"/>
<mask id="mask11_63_579" style="mask-type:alpha" maskUnits="userSpaceOnUse" x="387" y="113" width="20" height="16">
<path d="M387.682 128.451C390.953 122.976 399.074 112.367 405.388 113.732C408.801 116.078 404.236 127.598 387.682 128.451Z" fill="#084850"/>
</mask>
<g mask="url(#mask11_63_579)">
<path d="M387.252 129.934L410.167 111.33" stroke="#8EB96D" stroke-width="0.324613"/>
<path d="M401.543 118.339L404.382 109.906" stroke="#8EB96D" stroke-width="0.324613"/>
<path d="M397.219 121.711L399.875 111.407" stroke="#8EB96D" stroke-width="0.324613"/>
<path d="M393.726 124.721L395.479 113.522" stroke="#8EB96D" stroke-width="0.324613"/>
<path d="M390.446 127.5L391.847 116.344" stroke="#8EB96D" stroke-width="0.324613"/>
<path d="M390.555 127.121L400.467 129.708" stroke="#8EB96D" stroke-width="0.324613"/>
<path d="M394.844 123.707L404.756 126.294" stroke="#8EB96D" stroke-width="0.324613"/>
<path d="M398.215 120.958L407.066 123.192" stroke="#8EB96D" stroke-width="0.324613"/>
<path d="M403.644 116.718L408.963 117.83" stroke="#8EB96D" stroke-width="0.324613"/>
</g>
<path d="M171.359 128.451C168.088 122.976 159.968 112.366 153.653 113.732C150.24 116.078 154.805 127.598 171.359 128.451Z" fill="#084850"/>
<mask id="mask12_63_579" style="mask-type:alpha" maskUnits="userSpaceOnUse" x="152" y="113" width="20" height="16">
<path d="M171.359 128.451C168.088 122.976 159.967 112.366 153.653 113.731C150.24 116.078 154.805 127.598 171.359 128.451Z" fill="#084850"/>
</mask>
<g mask="url(#mask12_63_579)">
<path d="M171.789 129.933L148.875 111.329" stroke="#8EB96D" stroke-width="0.324613"/>
<path d="M157.498 118.339L154.658 109.906" stroke="#8EB96D" stroke-width="0.324613"/>
<path d="M161.822 121.711L159.165 111.406" stroke="#8EB96D" stroke-width="0.324613"/>
<path d="M165.315 124.721L163.561 113.521" stroke="#8EB96D" stroke-width="0.324613"/>
<path d="M168.595 127.5L167.193 116.344" stroke="#8EB96D" stroke-width="0.324613"/>
<path d="M168.485 127.121L158.573 129.708" stroke="#8EB96D" stroke-width="0.324613"/>
<path d="M164.197 123.706L154.285 126.293" stroke="#8EB96D" stroke-width="0.324613"/>
<path d="M160.826 120.957L151.974 123.192" stroke="#8EB96D" stroke-width="0.324613"/>
<path d="M155.397 116.718L150.078 117.829" stroke="#8EB96D" stroke-width="0.324613"/>
</g>
<path d="M384.997 101.216C380.022 105.337 381.794 119.611 384.078 125.567C386.228 122.52 385.935 120.416 387.557 116.362C392.25 104.629 389.05 101.216 384.997 101.216Z" fill="#084850"/>
<mask id="mask13_63_579" style="mask-type:alpha" maskUnits="userSpaceOnUse" x="381" y="101" width="9" height="25">
<path d="M384.998 101.216C380.023 105.337 381.795 119.611 384.079 125.566C386.229 122.52 385.936 120.415 387.558 116.362C392.251 104.629 389.051 101.216 384.998 101.216Z" fill="#084850"/>
</mask>
<g mask="url(#mask13_63_579)">
<path d="M383.699 126.532L386.918 97.1929" stroke="#8EB96D" stroke-width="0.324613"/>
<path d="M385.712 108.24L381.803 100.246" stroke="#8EB96D" stroke-width="0.324613"/>
<path d="M385.007 113.678L379.653 104.482" stroke="#8EB96D" stroke-width="0.324613"/>
<path d="M384.639 118.274L378.013 109.076" stroke="#8EB96D" stroke-width="0.324613"/>
<path d="M384.259 122.557L377.413 113.637" stroke="#8EB96D" stroke-width="0.324613"/>
<path d="M384.071 122.21L392.939 117.083" stroke="#8EB96D" stroke-width="0.324612"/>
<path d="M384.721 116.767L393.589 111.64" stroke="#8EB96D" stroke-width="0.324612"/>
<path d="M385.186 112.442L393.052 107.809" stroke="#8EB96D" stroke-width="0.324612"/>
<path d="M386.067 105.61L390.632 102.662" stroke="#8EB96D" stroke-width="0.324612"/>
</g>
<path d="M174.045 101.216C179.02 105.337 177.248 119.611 174.964 125.566C172.814 122.52 173.107 120.415 171.485 116.362C166.792 104.629 169.992 101.216 174.045 101.216Z" fill="#084850"/>
<mask id="mask14_63_579" style="mask-type:alpha" maskUnits="userSpaceOnUse" x="169" y="101" width="9" height="25">
<path d="M174.044 101.216C179.019 105.337 177.247 119.611 174.963 125.566C172.813 122.52 173.106 120.415 171.484 116.362C166.791 104.629 169.991 101.216 174.044 101.216Z" fill="#084850"/>
</mask>
<g mask="url(#mask14_63_579)">
<path d="M175.344 126.533L172.124 97.1931" stroke="#8EB96D" stroke-width="0.324613"/>
<path d="M173.33 108.24L177.239 100.246" stroke="#8EB96D" stroke-width="0.324613"/>
<path d="M174.035 113.678L179.389 104.482" stroke="#8EB96D" stroke-width="0.324613"/>
<path d="M174.403 118.275L181.029 109.076" stroke="#8EB96D" stroke-width="0.324613"/>
<path d="M174.783 122.557L181.629 113.637" stroke="#8EB96D" stroke-width="0.324613"/>
<path d="M174.971 122.21L166.103 117.083" stroke="#8EB96D" stroke-width="0.324612"/>
<path d="M174.321 116.767L165.453 111.64" stroke="#8EB96D" stroke-width="0.324612"/>
<path d="M173.856 112.443L165.99 107.81" stroke="#8EB96D" stroke-width="0.324612"/>
<path d="M172.975 105.611L168.41 102.662" stroke="#8EB96D" stroke-width="0.324612"/>
</g>
<path d="M318.718 45.6471C318.19 47.4424 314.89 48.4192 313.305 48.6832C313.569 47.3192 314.282 44.3535 315.022 43.4031C315.761 42.4526 318.146 42.391 319.246 42.479C319.29 42.7871 319.246 43.8519 318.718 45.6471Z" fill="#04673C"/>
<path d="M241.314 45.6471C241.842 47.4424 245.142 48.4192 246.727 48.6832C246.463 47.3192 245.75 44.3535 245.01 43.4031C244.271 42.4526 241.886 42.391 240.786 42.479C240.742 42.7871 240.786 43.8519 241.314 45.6471Z" fill="#04673C"/>
<path d="M286.43 44.3383C288.596 45.0188 290.767 47.0106 291.607 48.6969C289.986 48.8694 286.543 48.6826 285.223 48.1799C283.903 47.6772 282.886 45.4291 282.607 44.1649C282.937 44.0097 284.335 43.6802 286.43 44.3383Z" fill="#089858"/>
<path d="M273.603 44.3383C271.437 45.0188 269.266 47.0106 268.425 48.6969C270.046 48.8694 273.489 48.6826 274.809 48.1799C276.13 47.6772 277.147 45.4291 277.426 44.1649C277.096 44.0097 275.697 43.6802 273.603 44.3383Z" fill="#089858"/>
<path d="M285.146 57.5219C284.122 56.8393 282.444 56.3842 281.732 56.242C281.732 55.8864 282.159 54.9194 283.866 53.8954C285.572 52.8714 288.843 54.3221 290.265 55.1754C288.986 56.242 286.17 58.2046 285.146 57.5219Z" fill="#0EB88E"/>
<path d="M274.886 57.5219C275.91 56.8393 277.588 56.3842 278.3 56.242C278.3 55.8864 277.873 54.9194 276.166 53.8954C274.46 52.8714 271.189 54.3221 269.767 55.1754C271.046 56.242 273.862 58.2046 274.886 57.5219Z" fill="#0EB88E"/>
<path d="M303.492 49.4466C302.127 49.4466 300.363 49.1622 299.652 49.02C299.652 48.1667 300.207 46.2894 302.425 45.6068C304.644 44.9241 306.479 46.4601 307.119 47.3134C306.479 48.0245 304.857 49.4466 303.492 49.4466Z" fill="#0EB88E"/>
<path d="M256.54 49.4466C257.906 49.4466 259.669 49.1622 260.38 49.02C260.38 48.1667 259.825 46.2894 257.607 45.6068C255.388 44.9241 253.554 46.4601 252.914 47.3134C253.554 48.0245 255.175 49.4466 256.54 49.4466Z" fill="#0EB88E"/>
<path d="M276.854 154.473C113.579 154.473 77.9293 54.0356 77.9293 54.0356C74.7093 60.11 73.2773 66.9728 73.7996 73.8281L86.1543 236H276.854H472.887L483.968 73.925C484.441 67.0107 482.914 60.1064 479.571 54.0358C479.571 54.0358 440.13 154.473 276.854 154.473Z" fill="#1C0F35"/>
<g opacity="0.4" filter="url(#filter1_f_63_579)">
<path d="M409.538 223.101C409.538 221.284 409.223 220.252 408.594 220.004C408.397 219.922 408.201 219.881 408.004 219.881H404.82L406.185 191.024L409.075 185.327L421.156 223.101H429.943C429.943 221.284 429.629 220.252 429 220.004C428.803 219.922 428.606 219.881 428.41 219.881H426.994L413.144 177.4L423.406 156.654C424.9 153.682 426.001 151.306 426.709 150.894C427.063 150.728 427.436 150.646 427.829 150.646C429.304 150.646 429.225 148.62 429.304 147.299C429.343 146.886 429.363 146.473 429.363 146.06C422.287 147.192 422.074 147.299 418.318 147.875L418.688 150.646H423.406L406.185 185.203V152.011L410.903 151.329V148.791C403.98 149.924 401.249 149.924 395.805 150.84V153.377L400.524 152.694L399.158 219.881H394.44V223.101H409.538Z" fill="#139F7D"/>
<path d="M336.113 223.063L336.15 220.917L331.335 220.832L331.693 200.277L336.87 200.367L345.985 223.235L355.375 223.399C355.397 222.133 355.148 221.441 354.629 221.322C354.429 221.263 354.209 221.232 353.968 221.228L351.982 221.193L342.722 199.726C346.599 198.417 349.256 195.684 350.693 191.525C351.202 189.937 351.471 188.318 351.5 186.667C351.572 182.539 350.326 179.214 347.761 176.692C345.628 174.673 342.997 173.636 339.867 173.581C339.867 173.581 331.735 172.797 321.567 175.31L321.53 178.139L326.346 177.541L325.556 220.732L320.74 220.648L320.703 222.794L336.113 223.063ZM337.662 176.373C341.033 176.432 343.327 177.743 344.543 181.673C344.996 183.278 345.208 184.96 345.177 186.721C345.106 190.794 344.048 193.886 342.004 195.997C340.736 197.352 339.24 198.014 337.514 197.984L331.735 197.883L332.124 176.276L337.662 176.373Z" fill="#139F7D"/>
<path d="M308.887 223.101C308.887 222.092 308.571 221.518 307.939 221.381C307.741 221.335 307.544 221.312 307.346 221.312H303.258V184.29H306.28C309.559 184.335 311.731 184.649 312.798 189.328L313.923 194.213H315.582L315.345 180.452C315.345 180.452 301.223 183.038 285.779 182.501L285.483 196.262H287.142L288.268 191.376C289.374 186.698 291.566 184.335 294.845 184.29H297.57V221.312H291.941V223.101H308.887Z" fill="#139F7D"/>
<path d="M256.418 223.101C256.418 222.092 256.102 221.518 255.47 221.381C255.273 221.335 255.075 221.312 254.878 221.312H251.678V202.803H269.276V221.312H264.536V223.101H279.704C279.704 222.092 279.388 221.518 278.756 221.381C278.558 221.335 278.361 221.312 278.163 221.312H274.964V183.607H279.704V182.501C279.704 182.501 271.523 182.014 264.536 181.135V182.924L269.276 183.607V200.808H251.678V182.241H256.418V180.452C256.418 180.452 247.967 180.452 241.25 179.087V180.876L245.99 181.558V221.312H241.25V223.101H256.418Z" fill="#139F7D"/>
<path d="M233.733 218.462C233.772 220.699 234.069 221.972 234.624 222.282C234.861 222.385 235.215 222.432 235.686 222.423L235.42 207.164L233.889 207.191C232.083 216.12 228.218 220.663 222.294 220.819C216.84 220.914 213.256 216.875 211.544 208.7C210.902 205.674 210.548 202.244 210.481 198.41C210.303 188.237 212.225 181.411 216.246 177.931C217.87 176.517 219.702 175.793 221.743 175.757C227.473 175.764 233.404 180.064 235.438 188.66L237.651 188.633C234.311 182.697 233.117 173.014 233.117 173.014C232.214 173.03 231.672 173.439 231.49 174.241C231.422 174.881 231.4 175.841 231.422 177.119C229.145 174.815 227.523 174.111 223.825 173.643C222.999 173.551 222.174 173.512 221.35 173.526C215.072 173.636 210.32 176.835 207.094 183.125C204.856 187.586 203.787 192.693 203.888 198.445C204.01 205.422 205.721 211.252 209.021 215.936C212.481 220.777 216.938 223.15 222.392 223.055C226.393 222.932 230.173 221.401 233.733 218.462Z" fill="#139F7D"/>
<path d="M196.743 183.519L196.439 166.67C196.439 166.67 184.128 166.443 167.845 163.256V166.443L172.723 167.126L172.724 220.596H167.847V223.1H196.44L196.745 205.569H195.404L194.428 210.482C193.371 216.004 191.746 219.247 189.551 220.211C188.982 220.467 188.393 220.596 187.783 220.596H178.577L178.303 194.684H192.378V191.89H178.303L178.576 167.809L187.781 168.492C190.911 168.492 193.106 171.735 194.366 178.221C194.406 178.349 194.427 178.477 194.427 178.606L195.402 183.519H196.743Z" fill="#139F7D"/>
<path d="M389.789 183.519L389.484 166.67C389.484 166.67 377.173 166.443 360.891 163.256V166.443L365.768 167.126L365.77 220.596H360.892V223.1H389.485L389.79 205.569H388.449L387.474 210.482C386.417 216.004 384.791 219.247 382.596 220.211C382.027 220.467 381.438 220.596 380.828 220.596H371.622L371.349 194.684H385.424V191.89H371.349L371.621 167.809L380.827 168.492C383.956 168.492 386.151 171.735 387.411 178.221C387.452 178.349 387.472 178.477 387.472 178.606L388.448 183.519H389.789Z" fill="#139F7D"/>
<path d="M156.104 223.101C156.104 221.284 155.783 220.252 155.142 220.005C154.941 219.922 154.741 219.881 154.54 219.881H150.391L149.307 154.06H152.379C155.707 154.143 158.697 157.029 159.78 165.451L160.922 174.244H163.289L161.938 150.607C161.938 150.607 139.065 148.558 130.872 145.486L132.739 173.561H135.106L135.566 164.768C136.006 156.346 137.548 152.094 140.876 152.012L143.642 152.695L144.618 219.881H138.905V223.101H156.104Z" fill="#139F7D"/>
</g>
<path d="M409.538 224.29C409.538 222.474 409.223 221.442 408.594 221.194C408.397 221.112 408.201 221.07 408.004 221.07H404.82L406.185 192.213L409.075 186.516L421.156 224.29H429.943C429.943 222.474 429.629 221.442 429 221.194C428.803 221.112 428.606 221.07 428.41 221.07H426.994L413.144 178.59L423.406 157.844C424.9 154.872 426.001 152.496 426.709 152.083C427.063 151.918 427.436 151.836 427.829 151.836C429.304 151.836 429.225 149.81 429.304 148.488C429.343 148.076 429.363 147.663 429.363 147.25C422.287 148.382 422.074 148.488 418.318 149.065L418.688 151.836H423.406L406.185 186.393V153.201L410.903 152.518V149.981C403.98 151.113 401.249 151.113 395.805 152.029V154.567L400.524 153.884L399.158 221.07H394.44V224.29H409.538Z" fill="white"/>
<path d="M336.113 224.252L336.15 222.106L331.335 222.022L331.693 201.466L336.87 201.556L345.985 224.424L355.375 224.588C355.397 223.323 355.148 222.63 354.629 222.511C354.429 222.452 354.209 222.421 353.968 222.417L351.982 222.382L342.722 200.915C346.599 199.607 349.256 196.873 350.693 192.714C351.202 191.126 351.471 189.507 351.5 187.856C351.572 183.728 350.326 180.403 347.761 177.881C345.628 175.862 342.997 174.825 339.867 174.771C339.867 174.771 331.735 173.986 321.567 176.5L321.53 179.329L326.346 178.73L325.556 221.921L320.74 221.837L320.703 223.983L336.113 224.252ZM337.662 177.562C341.033 177.621 343.327 178.932 344.543 182.862C344.996 184.467 345.208 186.15 345.177 187.911C345.106 191.983 344.048 195.075 342.004 197.187C340.736 198.541 339.24 199.203 337.514 199.173L331.735 199.072L332.124 177.465L337.662 177.562Z" fill="white"/>
<path d="M308.887 224.291C308.887 223.281 308.571 222.708 307.939 222.57C307.741 222.525 307.544 222.502 307.346 222.502H303.258V185.479H306.28C309.559 185.525 311.731 185.839 312.798 190.518L313.923 195.403H315.582L315.345 181.642C315.345 181.642 301.223 184.228 285.779 183.69L285.483 197.451H287.142L288.268 192.566C289.374 187.887 291.566 185.525 294.845 185.479H297.57V222.502H291.941V224.291H308.887Z" fill="white"/>
<path d="M256.418 224.29C256.418 223.281 256.102 222.708 255.47 222.57C255.273 222.524 255.075 222.501 254.878 222.501H251.678V203.993H269.276V222.501H264.536V224.29H279.704C279.704 223.281 279.388 222.708 278.756 222.57C278.558 222.524 278.361 222.501 278.163 222.501H274.964V184.796H279.704V183.69C279.704 183.69 271.523 183.203 264.536 182.325V184.114L269.276 184.796V201.998H251.678V183.431H256.418V181.642C256.418 181.642 247.967 181.642 241.25 180.276V182.065L245.99 182.748V222.501H241.25V224.29H256.418Z" fill="white"/>
<path d="M233.733 219.651C233.772 221.888 234.069 223.161 234.624 223.471C234.861 223.574 235.215 223.621 235.686 223.613L235.42 208.354L233.889 208.38C232.083 217.309 228.218 221.852 222.294 222.008C216.84 222.104 213.256 218.064 211.544 209.889C210.902 206.864 210.548 203.433 210.481 199.599C210.303 189.426 212.225 182.6 216.246 179.12C217.87 177.706 219.702 176.982 221.743 176.946C227.473 176.953 233.404 181.254 235.438 189.849L237.651 189.822C234.311 183.886 233.117 174.203 233.117 174.203C232.214 174.219 231.672 174.628 231.49 175.43C231.422 176.071 231.4 177.03 231.422 178.308C229.145 176.004 227.523 175.3 223.825 174.832C222.999 174.74 222.174 174.701 221.35 174.715C215.072 174.825 210.32 178.025 207.094 184.314C204.856 188.775 203.787 193.882 203.888 199.634C204.01 206.611 205.721 212.442 209.021 217.126C212.481 221.967 216.938 224.339 222.392 224.244C226.393 224.121 230.173 222.59 233.733 219.651Z" fill="white"/>
<path d="M196.743 184.708L196.439 167.859C196.439 167.859 184.128 167.633 167.845 164.445V167.633L172.723 168.315L172.724 221.785H167.847V224.29H196.44L196.745 206.758H195.404L194.428 211.671C193.371 217.194 191.746 220.437 189.551 221.4C188.982 221.657 188.393 221.785 187.783 221.785H178.577L178.303 195.873H192.378V193.08H178.303L178.576 168.998L187.781 169.681C190.911 169.681 193.106 172.924 194.366 179.41C194.406 179.538 194.427 179.667 194.427 179.795L195.402 184.708H196.743Z" fill="white"/>
<path d="M389.789 184.708L389.484 167.859C389.484 167.859 377.173 167.633 360.891 164.445V167.633L365.768 168.315L365.77 221.785H360.892V224.29H389.485L389.79 206.758H388.449L387.474 211.671C386.417 217.194 384.791 220.437 382.596 221.4C382.027 221.657 381.438 221.785 380.828 221.785H371.622L371.349 195.873H385.424V193.08H371.349L371.621 168.998L380.827 169.681C383.956 169.681 386.151 172.924 387.411 179.41C387.452 179.538 387.472 179.667 387.472 179.795L388.448 184.708H389.789Z" fill="white"/>
<path d="M156.104 224.29C156.104 222.474 155.783 221.442 155.142 221.194C154.941 221.112 154.741 221.07 154.54 221.07H150.391L149.307 155.25H152.379C155.707 155.332 158.697 158.219 159.78 166.641L160.922 175.434H163.289L161.938 151.796C161.938 151.796 139.065 149.748 130.872 146.675L132.739 174.751H135.106L135.566 165.958C136.006 157.536 137.548 153.284 140.876 153.201L143.642 153.884L144.618 221.07H138.905V224.29H156.104Z" fill="white"/>
<path d="M103.639 175.255C104.177 173.821 105.357 172.118 105.88 171.445C104.984 170.848 102.877 169.16 101.622 167.187C100.367 165.215 98.8585 165.021 98.2609 165.171C96.244 167.187 101.847 170.549 101.398 170.549C100.95 170.549 97.3645 170.325 97.3645 172.118C97.3645 173.552 99.7549 174.209 100.95 174.359C100.278 174.359 98.0368 177.944 99.6055 178.841C101.174 179.737 102.967 177.048 103.639 175.255Z" fill="#084150"/>
<path d="M98.934 142.536C95.1691 166.202 107.823 169.13 114.621 167.636C118.207 155.31 111.259 149.259 109.018 148.363C107.225 147.646 101.548 144.18 98.934 142.536Z" fill="#08905C"/>
<path d="M114.62 168.98C108.121 172.417 96.4677 182.247 101.846 194.08C107.971 193.183 119.102 186.908 114.62 168.98Z" fill="#08905C"/>
<mask id="mask15_63_579" style="mask-type:alpha" maskUnits="userSpaceOnUse" x="98" y="142" width="18" height="26">
<path d="M98.934 142.536C95.1691 166.202 107.823 169.13 114.621 167.636C118.207 155.31 111.259 149.259 109.018 148.363C107.225 147.646 101.548 144.18 98.934 142.536Z" fill="#08905C"/>
</mask>
<g mask="url(#mask15_63_579)">
<path d="M115.294 168.667L97.1895 142.536" stroke="#8EB96D" stroke-width="0.548997"/>
<path d="M104.002 152.379L103.601 142.803" stroke="#8EB96D" stroke-width="0.548997"/>
<path d="M107.459 157.167L107.81 145.711" stroke="#8EB96D" stroke-width="0.548997"/>
<path d="M110.166 161.33L111.721 149.22" stroke="#8EB96D" stroke-width="0.548997"/>
<path d="M112.724 165.191L114.629 153.231" stroke="#8EB96D" stroke-width="0.548997"/>
<path d="M112.725 164.767L101.695 164.462" stroke="#8EB96D" stroke-width="0.548997"/>
<path d="M109.315 159.945L98.2861 159.64" stroke="#8EB96D" stroke-width="0.548997"/>
<path d="M106.658 156.089L96.8311 155.738" stroke="#8EB96D" stroke-width="0.548997"/>
<path d="M102.316 150.071L96.481 149.622" stroke="#8EB96D" stroke-width="0.548997"/>
</g>
<mask id="mask16_63_579" style="mask-type:alpha" maskUnits="userSpaceOnUse" x="100" y="168" width="16" height="27">
<path d="M114.62 168.98C108.121 172.417 96.4677 182.247 101.846 194.08C107.971 193.183 119.102 186.908 114.62 168.98Z" fill="#08905C"/>
</mask>
<g mask="url(#mask16_63_579)">
<path d="M114.378 169.395L98.927 197.178" stroke="#8EB96D" stroke-width="0.548997"/>
<path d="M104.749 186.721L96.335 191.309" stroke="#8EB96D" stroke-width="0.548997"/>
<path d="M107.519 181.504L97.0858 186.248" stroke="#8EB96D" stroke-width="0.548997"/>
<path d="M110.059 177.236L98.5071 181.189" stroke="#8EB96D" stroke-width="0.548997"/>
<path d="M112.393 173.237L100.821 176.809" stroke="#8EB96D" stroke-width="0.548997"/>
<path d="M112.012 173.424L116.609 183.454" stroke="#8EB96D" stroke-width="0.548997"/>
<path d="M109.191 178.612L113.788 188.642" stroke="#8EB96D" stroke-width="0.548997"/>
<path d="M106.905 182.699L110.93 191.671" stroke="#8EB96D" stroke-width="0.548997"/>
<path d="M103.423 189.252L105.596 194.686" stroke="#8EB96D" stroke-width="0.548997"/>
</g>
<path d="M101.174 200.579C92.9275 206.495 101.921 216.49 107.449 220.748C109.421 218.596 111.707 211.335 112.604 207.974C113.201 205.061 113.679 199.01 110.811 198.113C107.942 197.217 106.329 201.774 105.881 204.164C105.343 200.579 102.519 200.28 101.174 200.579Z" fill="#0FAD7B"/>
<mask id="mask17_63_579" style="mask-type:alpha" maskUnits="userSpaceOnUse" x="97" y="197" width="17" height="24">
<path d="M101.174 200.579C92.9275 206.495 101.921 216.49 107.449 220.748C109.421 218.596 111.707 211.335 112.604 207.974C113.201 205.061 113.679 199.01 110.811 198.113C107.942 197.217 106.329 201.774 105.881 204.164C105.343 200.579 102.519 200.28 101.174 200.579Z" fill="#0FAD7B"/>
</mask>
<g mask="url(#mask17_63_579)">
<path d="M107.065 223.667L105.508 193.105" stroke="#8EB96D" stroke-width="0.528453"/>
<path d="M106.089 204.613L110.618 196.575" stroke="#8EB96D" stroke-width="0.528453"/>
<path d="M106.49 210.284L112.587 201.09" stroke="#8EB96D" stroke-width="0.528453"/>
<path d="M106.592 215.063L114.007 205.944" stroke="#8EB96D" stroke-width="0.528453"/>
<path d="M106.726 219.518L114.351 210.7" stroke="#8EB96D" stroke-width="0.528453"/>
<path d="M106.942 219.171L98.0736 213.327" stroke="#8EB96D" stroke-width="0.528453"/>
<path d="M106.598 213.497L97.7301 207.654" stroke="#8EB96D" stroke-width="0.528453"/>
<path d="M106.38 208.995L98.5188 203.724" stroke="#8EB96D" stroke-width="0.528453"/>
<path d="M105.881 201.87L101.335 198.542" stroke="#8EB96D" stroke-width="0.528453"/>
</g>
<path d="M452.627 173.889C452.089 172.455 450.909 170.752 450.386 170.08C451.282 169.482 453.389 167.794 454.644 165.822C455.899 163.85 457.408 163.655 458.005 163.805C460.022 165.822 454.42 169.183 454.868 169.183C455.316 169.183 458.902 168.959 458.902 170.752C458.902 172.186 456.511 172.844 455.316 172.993C455.989 172.993 458.23 176.579 456.661 177.475C455.092 178.371 453.299 175.682 452.627 173.889Z" fill="#084150"/>
<path d="M457.333 141.171C461.098 164.836 448.443 167.764 441.646 166.27C438.06 153.945 445.008 147.894 447.249 146.997C449.041 146.28 454.718 142.814 457.333 141.171Z" fill="#08905C"/>
<path d="M441.646 167.615C448.145 171.051 459.798 180.881 454.42 192.714C448.294 191.818 437.164 185.543 441.646 167.615Z" fill="#08905C"/>
<mask id="mask18_63_579" style="mask-type:alpha" maskUnits="userSpaceOnUse" x="440" y="141" width="19" height="26">
<path d="M457.333 141.171C461.098 164.836 448.443 167.764 441.646 166.27C438.06 153.945 445.008 147.894 447.249 146.997C449.041 146.28 454.718 142.814 457.333 141.171Z" fill="#08905C"/>
</mask>
<g mask="url(#mask18_63_579)">
<path d="M440.973 167.302L459.077 141.171" stroke="#8EB96D" stroke-width="0.548997"/>
<path d="M452.265 151.013L452.667 141.438" stroke="#8EB96D" stroke-width="0.548997"/>
<path d="M448.807 155.802L448.456 144.346" stroke="#8EB96D" stroke-width="0.548997"/>
<path d="M446.1 159.965L444.545 147.855" stroke="#8EB96D" stroke-width="0.548997"/>
<path d="M443.542 163.826L441.637 151.866" stroke="#8EB96D" stroke-width="0.548997"/>
<path d="M443.542 163.401L454.572 163.096" stroke="#8EB96D" stroke-width="0.548997"/>
<path d="M446.951 158.579L457.981 158.274" stroke="#8EB96D" stroke-width="0.548997"/>
<path d="M449.609 154.723L459.436 154.372" stroke="#8EB96D" stroke-width="0.548997"/>
<path d="M453.95 148.706L459.785 148.256" stroke="#8EB96D" stroke-width="0.548997"/>
</g>
<mask id="mask19_63_579" style="mask-type:alpha" maskUnits="userSpaceOnUse" x="440" y="167" width="16" height="26">
<path d="M441.646 167.615C448.145 171.051 459.798 180.881 454.42 192.714C448.294 191.818 437.164 185.543 441.646 167.615Z" fill="#08905C"/>
</mask>
<g mask="url(#mask19_63_579)">
<path d="M441.888 168.03L457.339 195.813" stroke="#8EB96D" stroke-width="0.548997"/>
<path d="M451.516 185.355L459.93 189.943" stroke="#8EB96D" stroke-width="0.548997"/>
<path d="M448.747 180.138L459.181 184.882" stroke="#8EB96D" stroke-width="0.548997"/>
<path d="M446.206 175.871L457.758 179.825" stroke="#8EB96D" stroke-width="0.548997"/>
<path d="M443.873 171.871L455.445 175.444" stroke="#8EB96D" stroke-width="0.548997"/>
<path d="M444.254 172.059L439.657 182.089" stroke="#8EB96D" stroke-width="0.548997"/>
<path d="M447.074 177.246L442.478 187.277" stroke="#8EB96D" stroke-width="0.548997"/>
<path d="M449.36 181.334L445.336 190.305" stroke="#8EB96D" stroke-width="0.548997"/>
<path d="M452.843 187.886L450.669 193.32" stroke="#8EB96D" stroke-width="0.548997"/>
</g>
<path d="M455.092 199.213C463.339 205.129 454.345 215.124 448.818 219.382C446.845 217.231 444.56 209.97 443.663 206.608C443.066 203.695 442.587 197.644 445.456 196.748C448.324 195.851 449.938 200.408 450.386 202.798C450.924 199.213 453.748 198.914 455.092 199.213Z" fill="#0FAD7B"/>
<mask id="mask20_63_579" style="mask-type:alpha" maskUnits="userSpaceOnUse" x="443" y="196" width="16" height="24">
<path d="M455.092 199.213C463.339 205.129 454.345 215.124 448.818 219.382C446.845 217.231 444.56 209.97 443.663 206.608C443.066 203.695 442.587 197.644 445.456 196.748C448.324 195.851 449.938 200.408 450.386 202.798C450.924 199.213 453.748 198.914 455.092 199.213Z" fill="#0FAD7B"/>
</mask>
<g mask="url(#mask20_63_579)">
<path d="M449.201 222.3L450.759 191.739" stroke="#8EB96D" stroke-width="0.528453"/>
<path d="M450.179 203.247L445.65 195.209" stroke="#8EB96D" stroke-width="0.528453"/>
<path d="M449.778 208.918L443.68 199.723" stroke="#8EB96D" stroke-width="0.528453"/>
<path d="M449.675 213.697L442.261 204.578" stroke="#8EB96D" stroke-width="0.528453"/>
<path d="M449.541 218.152L441.916 209.334" stroke="#8EB96D" stroke-width="0.528453"/>
<path d="M449.325 217.805L458.194 211.961" stroke="#8EB96D" stroke-width="0.528453"/>
<path d="M449.668 212.131L458.537 206.288" stroke="#8EB96D" stroke-width="0.528453"/>
<path d="M449.888 207.629L457.749 202.358" stroke="#8EB96D" stroke-width="0.528453"/>
<path d="M450.386 200.504L454.932 197.176" stroke="#8EB96D" stroke-width="0.528453"/>
</g>
<g filter="url(#filter2_d_63_579)">
<path d="M91.8551 104.037L94.698 119.029L88.4561 119.161L91.8551 104.037Z" fill="url(#paint0_linear_63_579)"/>
<path d="M91.8551 104.037L100.719 117.383L94.698 119.029L91.8551 104.037Z" fill="url(#paint1_linear_63_579)"/>
<path d="M91.8551 104.037L105.644 113.886L100.719 117.383L91.8551 104.037Z" fill="url(#paint2_linear_63_579)"/>
<path d="M105.644 113.886L102.979 124.537L100.719 117.383L105.644 113.886Z" fill="url(#paint3_linear_63_579)"/>
<path d="M102.978 124.538L91.9192 124.251L94.6985 119.029L102.978 124.538Z" fill="url(#paint4_linear_63_579)"/>
<path d="M102.978 124.538L94.6985 119.029L100.719 117.384L102.978 124.538Z" fill="url(#paint5_linear_63_579)"/>
<path d="M94.6989 119.029L91.9376 124.243L88.4559 119.161L94.6989 119.029Z" fill="url(#paint6_linear_63_579)"/>
</g>
<g filter="url(#filter3_d_63_579)">
<path d="M461.881 103.293L455.251 117.036L450.154 113.431L461.881 103.293Z" fill="url(#paint7_linear_63_579)"/>
<path d="M461.881 103.293L461.071 119.293L455.251 117.036L461.881 103.293Z" fill="url(#paint8_linear_63_579)"/>
<path d="M461.881 103.293L467.11 119.411L461.071 119.293L461.881 103.293Z" fill="url(#paint9_linear_63_579)"/>
<path d="M467.109 119.411L458.633 126.389L461.071 119.294L467.109 119.411Z" fill="url(#paint10_linear_63_579)"/>
<path d="M458.632 126.389L449.911 119.582L455.251 117.037L458.632 126.389Z" fill="url(#paint11_linear_63_579)"/>
<path d="M458.632 126.389L455.251 117.036L461.07 119.293L458.632 126.389Z" fill="url(#paint12_linear_63_579)"/>
<path d="M455.252 117.037L449.932 119.586L450.154 113.43L455.252 117.037Z" fill="url(#paint13_linear_63_579)"/>
</g>
<path d="M278.347 159.811L282.385 169.361L276.764 169.197L278.347 159.811Z" fill="url(#paint14_linear_63_579)"/>
<path d="M280.421 175.855L276.765 169.143L282.386 169.306L280.421 175.855Z" fill="url(#paint15_linear_63_579)"/>
<path d="M280.421 175.855L282.331 169.306L287.516 167.778L280.421 175.855Z" fill="url(#paint16_linear_63_579)"/>
<path d="M280.421 175.855L276.819 169.197L272.999 172.908L280.421 175.855Z" fill="url(#paint17_linear_63_579)"/>
<path d="M272.999 172.908L276.874 169.197L271.471 167.615L272.999 172.908Z" fill="url(#paint18_linear_63_579)"/>
<path d="M278.347 159.811L287.57 167.778L282.331 169.361L278.347 159.811Z" fill="url(#paint19_linear_63_579)"/>
<path d="M278.347 159.811L276.765 169.197L271.471 167.615L278.347 159.811Z" fill="url(#paint20_linear_63_579)"/>
<defs>
<filter id="filter0_f_63_579" x="0.784859" y="0.920601" width="557.471" height="326.851" filterUnits="userSpaceOnUse" color-interpolation-filters="sRGB">
<feFlood flood-opacity="0" result="BackgroundImageFix"/>
<feBlend mode="normal" in="SourceGraphic" in2="BackgroundImageFix" result="shape"/>
<feGaussianBlur stdDeviation="63.9582" result="effect1_foregroundBlur_63_579"/>
</filter>
<filter id="filter1_f_63_579" x="125.382" y="139.996" width="310.051" height="88.8933" filterUnits="userSpaceOnUse" color-interpolation-filters="sRGB">
<feFlood flood-opacity="0" result="BackgroundImageFix"/>
<feBlend mode="normal" in="SourceGraphic" in2="BackgroundImageFix" result="shape"/>
<feGaussianBlur stdDeviation="2.74498" result="effect1_foregroundBlur_63_579"/>
</filter>
<filter id="filter2_d_63_579" x="85.6214" y="103.667" width="22.8571" height="26.1705" filterUnits="userSpaceOnUse" color-interpolation-filters="sRGB">
<feFlood flood-opacity="0" result="BackgroundImageFix"/>
<feColorMatrix in="SourceAlpha" type="matrix" values="0 0 0 0 0 0 0 0 0 0 0 0 0 0 0 0 0 0 127 0" result="hardAlpha"/>
<feOffset dy="2.46473"/>
<feGaussianBlur stdDeviation="1.41722"/>
<feComposite in2="hardAlpha" operator="out"/>
<feColorMatrix type="matrix" values="0 0 0 0 0.960784 0 0 0 0 0.760784 0 0 0 0 0.466667 0 0 0 0.19 0"/>
<feBlend mode="normal" in2="BackgroundImageFix" result="effect1_dropShadow_63_579"/>
<feBlend mode="normal" in="SourceGraphic" in2="effect1_dropShadow_63_579" result="shape"/>
</filter>
<filter id="filter3_d_63_579" x="447.077" y="102.923" width="22.8676" height="28.7659" filterUnits="userSpaceOnUse" color-interpolation-filters="sRGB">
<feFlood flood-opacity="0" result="BackgroundImageFix"/>
<feColorMatrix in="SourceAlpha" type="matrix" values="0 0 0 0 0 0 0 0 0 0 0 0 0 0 0 0 0 0 127 0" result="hardAlpha"/>
<feOffset dy="2.46473"/>
<feGaussianBlur stdDeviation="1.41722"/>
<feComposite in2="hardAlpha" operator="out"/>
<feColorMatrix type="matrix" values="0 0 0 0 0.94902 0 0 0 0 0.67451 0 0 0 0 0.266667 0 0 0 0.22 0"/>
<feBlend mode="normal" in2="BackgroundImageFix" result="effect1_dropShadow_63_579"/>
<feBlend mode="normal" in="SourceGraphic" in2="effect1_dropShadow_63_579" result="shape"/>
</filter>
<linearGradient id="paint0_linear_63_579" x1="91.6051" y1="110.043" x2="93.6228" y2="126.624" gradientUnits="userSpaceOnUse">
<stop offset="0.22078" stop-color="#F1AC44"/>
<stop offset="0.813447" stop-color="white"/>
<stop offset="1" stop-color="#F1AC44" stop-opacity="0"/>
</linearGradient>
<linearGradient id="paint1_linear_63_579" x1="96.0164" y1="117.54" x2="91.1061" y2="102.639" gradientUnits="userSpaceOnUse">
<stop stop-color="#F0AB43"/>
<stop offset="1" stop-color="white"/>
</linearGradient>
<linearGradient id="paint2_linear_63_579" x1="97.908" y1="104.468" x2="100.716" y2="117.537" gradientUnits="userSpaceOnUse">
<stop offset="0.388035" stop-color="#F1AC44"/>
<stop offset="1" stop-color="white"/>
</linearGradient>
<linearGradient id="paint3_linear_63_579" x1="104.708" y1="115.612" x2="95.9342" y2="118.894" gradientUnits="userSpaceOnUse">
<stop stop-color="#F0AB43"/>
<stop offset="1" stop-color="white"/>
</linearGradient>
<linearGradient id="paint4_linear_63_579" x1="98.8286" y1="123.856" x2="91.3485" y2="116.511" gradientUnits="userSpaceOnUse">
<stop offset="0.140194" stop-color="#F1AC44"/>
<stop offset="1" stop-color="white"/>
</linearGradient>
<linearGradient id="paint5_linear_63_579" x1="95.8259" y1="123.732" x2="105.093" y2="111.659" gradientUnits="userSpaceOnUse">
<stop offset="0.193643" stop-color="#F1AC44"/>
<stop offset="0.794347" stop-color="white"/>
</linearGradient>
<linearGradient id="paint6_linear_63_579" x1="87.3923" y1="122.103" x2="96.2145" y2="118.653" gradientUnits="userSpaceOnUse">
<stop offset="0.201632" stop-color="#F2B352"/>
<stop offset="1" stop-color="white"/>
</linearGradient>
<linearGradient id="paint7_linear_63_579" x1="458.109" y1="107.973" x2="449.87" y2="122.503" gradientUnits="userSpaceOnUse">
<stop offset="0.22078" stop-color="#F1AC44"/>
<stop offset="0.813447" stop-color="white"/>
<stop offset="1" stop-color="#F1AC44" stop-opacity="0"/>
</linearGradient>
<linearGradient id="paint8_linear_63_579" x1="457.197" y1="116.623" x2="462.11" y2="101.723" gradientUnits="userSpaceOnUse">
<stop stop-color="#F0AB43"/>
<stop offset="1" stop-color="white"/>
</linearGradient>
<linearGradient id="paint9_linear_63_579" x1="466.491" y1="107.238" x2="460.977" y2="119.416" gradientUnits="userSpaceOnUse">
<stop offset="0.388035" stop-color="#F1AC44"/>
<stop offset="1" stop-color="white"/>
</linearGradient>
<linearGradient id="paint10_linear_63_579" x1="465.33" y1="120.242" x2="456.325" y2="117.663" gradientUnits="userSpaceOnUse">
<stop stop-color="#F0AB43"/>
<stop offset="1" stop-color="white"/>
</linearGradient>
<linearGradient id="paint11_linear_63_579" x1="455.701" y1="123.373" x2="454.056" y2="113.02" gradientUnits="userSpaceOnUse">
<stop offset="0.140194" stop-color="#F1AC44"/>
<stop offset="1" stop-color="white"/>
</linearGradient>
<linearGradient id="paint12_linear_63_579" x1="453.361" y1="121.487" x2="467.991" y2="117.292" gradientUnits="userSpaceOnUse">
<stop offset="0.193643" stop-color="#F1AC44"/>
<stop offset="0.794347" stop-color="white"/>
</linearGradient>
<linearGradient id="paint13_linear_63_579" x1="447.55" y1="115.163" x2="456.694" y2="117.635" gradientUnits="userSpaceOnUse">
<stop offset="0.201632" stop-color="#F2B352"/>
<stop offset="1" stop-color="white"/>
</linearGradient>
<linearGradient id="paint14_linear_63_579" x1="283.564" y1="166.011" x2="268.997" y2="166.664" gradientUnits="userSpaceOnUse">
<stop offset="0.193643" stop-color="#82CCF6"/>
<stop offset="0.70561" stop-color="white"/>
</linearGradient>
<linearGradient id="paint15_linear_63_579" x1="281.237" y1="173.032" x2="276.955" y2="168.944" gradientUnits="userSpaceOnUse">
<stop offset="0.103048" stop-color="#82CCF7"/>
<stop offset="1" stop-color="white"/>
</linearGradient>
<linearGradient id="paint16_linear_63_579" x1="286.186" y1="170.132" x2="280.441" y2="169.741" gradientUnits="userSpaceOnUse">
<stop offset="0.103048" stop-color="#82CCF7"/>
<stop offset="1" stop-color="white"/>
</linearGradient>
<linearGradient id="paint17_linear_63_579" x1="274.39" y1="171.137" x2="280.384" y2="170.62" gradientUnits="userSpaceOnUse">
<stop offset="0.103048" stop-color="#82CCF7"/>
<stop offset="1" stop-color="white"/>
</linearGradient>
<linearGradient id="paint18_linear_63_579" x1="272.484" y1="169.157" x2="276.852" y2="168.812" gradientUnits="userSpaceOnUse">
<stop offset="0.103048" stop-color="#82CCF7"/>
<stop offset="1" stop-color="white"/>
</linearGradient>
<linearGradient id="paint19_linear_63_579" x1="286.146" y1="161.423" x2="278.042" y2="172.284" gradientUnits="userSpaceOnUse">
<stop stop-color="#43B2F0"/>
<stop offset="1" stop-color="white"/>
</linearGradient>
<linearGradient id="paint20_linear_63_579" x1="272.76" y1="166.462" x2="278.336" y2="166.778" gradientUnits="userSpaceOnUse">
<stop offset="0.103048" stop-color="#82CCF7"/>
<stop offset="1" stop-color="white"/>
</linearGradient>
</defs>
</svg>
