<svg width="18" height="18" viewBox="0 0 18 18" fill="none" xmlns="http://www.w3.org/2000/svg">
<path fill-rule="evenodd" clip-rule="evenodd" d="M11.5328 6.46704L4.71351 13.2869C4.53626 13.1842 4.36835 13.1189 4.21909 13.1096C2.92239 13.0163 2.41864 13.1656 1.70965 12.5592C0.944696 11.9061 1.00067 10.1615 1.00067 8.88337C1.00067 7.60523 0.944696 5.86063 1.70965 5.20757C2.41864 4.60115 2.92239 4.75975 4.21909 4.65713C5.51578 4.55451 8.25843 0.598821 10.3761 1.84897C11.2343 2.54868 11.4675 3.8548 11.5328 6.46704Z" stroke="#FDF3E7" stroke-width="1.5" stroke-linecap="round" stroke-linejoin="round"/>
<path d="M11.5329 10.9172C11.4956 13.7907 11.2717 15.1901 10.3762 15.9178C9.39664 16.4962 8.28652 15.9645 7.2417 15.2088" stroke="#FDF3E7" stroke-width="1.5" stroke-linecap="round" stroke-linejoin="round"/>
<path d="M1.00122 17L4.71406 13.2869L11.5334 6.46706L17 1" stroke="#FDF3E7" stroke-width="1.5" stroke-linecap="round" stroke-linejoin="round"/>
</svg>
