<svg width="95" height="86" viewBox="0 0 95 86" fill="none" xmlns="http://www.w3.org/2000/svg">
<path d="M47.2268 85.9998C68.9166 85.9998 86.4995 80.6272 86.4995 73.9998V67.9998H7.9541V73.9998C7.9541 80.6272 25.5371 85.9998 47.2268 85.9998Z" fill="#C55B00"/>
<ellipse cx="47.2268" cy="67.4541" rx="39.2727" ry="12" fill="#B45300"/>
<path d="M47.2268 79.4541C68.9165 79.4541 86.4995 74.0815 86.4995 67.4541L94.4537 49.5H0L7.9541 67.4541C7.9541 74.0815 25.5371 79.4541 47.2268 79.4541Z" fill="url(#paint0_linear_34_753)"/>
<path d="M44.7851 0L61.1777 26.5672L31.7841 25.4367L44.7851 0Z" fill="url(#paint1_linear_34_753)"/>
<path d="M56.373 59.0698L31.7841 25.4368L61.1777 26.5673L56.373 59.0698Z" fill="url(#paint2_linear_34_753)"/>
<path d="M56.373 59.0698L61.1777 26.5673L82.9402 19.219L56.373 59.0698Z" fill="url(#paint3_linear_34_753)"/>
<path d="M15.6742 41.2639L12 18.9361L31.7841 25.4366L15.6742 41.2639Z" fill="url(#paint4_linear_34_753)"/>
<path d="M15.6742 41.2641L31.7364 25.0885L56.3253 59.0042L15.6742 41.2641Z" fill="url(#paint5_linear_34_753)"/>
<path d="M44.7851 0L82.9402 19.2189L61.1777 26.5672L44.7851 0Z" fill="url(#paint6_linear_34_753)"/>
<path d="M44.7851 0L12 18.9362L31.7841 25.4367L44.7851 0Z" fill="url(#paint7_linear_34_753)"/>
<defs>
<linearGradient id="paint0_linear_34_753" x1="47.2268" y1="51" x2="47.2268" y2="93" gradientUnits="userSpaceOnUse">
<stop stop-color="#FFC38F" stop-opacity="0"/>
<stop offset="0.0001" stop-color="#FFC18C" stop-opacity="0"/>
<stop offset="1" stop-color="#FFC18C"/>
</linearGradient>
<linearGradient id="paint1_linear_34_753" x1="46.371" y1="0.0640334" x2="44.3632" y2="27.8996" gradientUnits="userSpaceOnUse">
<stop stop-color="#C729FE"/>
<stop offset="1" stop-color="#E3A8F8"/>
</linearGradient>
<linearGradient id="paint2_linear_34_753" x1="47.7842" y1="45.285" x2="66.3703" y2="38.643" gradientUnits="userSpaceOnUse">
<stop stop-color="#C729FE"/>
<stop offset="1" stop-color="white"/>
</linearGradient>
<linearGradient id="paint3_linear_34_753" x1="76.3299" y1="25.2182" x2="61.5553" y2="17.5476" gradientUnits="userSpaceOnUse">
<stop stop-color="#C729FE"/>
<stop offset="1" stop-color="white"/>
</linearGradient>
<linearGradient id="paint4_linear_34_753" x1="10.1944" y1="34.5448" x2="33.3803" y2="30.5171" gradientUnits="userSpaceOnUse">
<stop stop-color="#C729FE"/>
<stop offset="1" stop-color="white"/>
</linearGradient>
<linearGradient id="paint5_linear_34_753" x1="37.6096" y1="48.9592" x2="42.6481" y2="23.1787" gradientUnits="userSpaceOnUse">
<stop stop-color="#C729FE"/>
<stop offset="1" stop-color="white"/>
</linearGradient>
<linearGradient id="paint6_linear_34_753" x1="70.9599" y1="1.47718" x2="58.7343" y2="28.213" gradientUnits="userSpaceOnUse">
<stop stop-color="#C729FE"/>
<stop offset="1" stop-color="white"/>
</linearGradient>
<linearGradient id="paint7_linear_34_753" x1="23.7606" y1="1.75981" x2="28.2827" y2="19.8482" gradientUnits="userSpaceOnUse">
<stop stop-color="#C729FE"/>
<stop offset="1" stop-color="#E3A8F8"/>
</linearGradient>
</defs>
</svg>
