<svg width="59" height="88" viewBox="0 0 59 88" fill="none" xmlns="http://www.w3.org/2000/svg">
<path d="M29.1632 0L33.1339 22.8652L21.7697 40.1168L29.1632 0Z" fill="url(#paint0_linear_154_2571)"/>
<path d="M29.1634 0.135986L38.6107 20.8105L34.0924 27.9302L29.1634 0.135986Z" fill="url(#paint1_linear_154_2571)"/>
<path d="M29.1634 0.135986L41.4859 16.1553L38.6107 20.8105L29.1634 0.135986Z" fill="url(#paint2_linear_154_2571)"/>
<path d="M21.9068 39.8429L33.134 22.8651L34.0924 27.7941L20.1268 50.1117L21.9068 39.8429Z" fill="url(#paint3_linear_154_2571)"/>
<path d="M37.7891 50.5223L34.0923 27.794L38.6106 20.6743L47.0995 39.5689L37.7891 50.5223Z" fill="url(#paint4_linear_154_2571)"/>
<path d="M47.0996 39.5695L38.6107 20.6749L41.486 16.1566L52.9871 32.4498L47.0996 39.5695Z" fill="url(#paint5_linear_154_2571)"/>
<path d="M50.3854 46.5517L47.0994 39.432L52.9868 32.4492L58.8743 40.5273L50.3854 46.5517Z" fill="url(#paint6_linear_154_2571)"/>
<path d="M29.1633 0L23.9604 28.6157L18.7575 22.3175L29.1633 0Z" fill="url(#paint7_linear_154_2571)"/>
<path d="M18.7576 22.3174L23.9605 28.6156L14.1024 32.1754L18.7576 22.3174Z" fill="url(#paint8_linear_154_2571)"/>
<path d="M6.70919 30.6702L14.1027 32.3132L0.000244141 39.9805L6.70919 30.6702Z" fill="url(#paint9_linear_154_2571)"/>
<path d="M0.000244141 39.9806L14.1027 32.3132L7.80453 46.5526L0.000244141 39.9806Z" fill="url(#paint10_linear_154_2571)"/>
<path d="M7.8042 46.5516L14.2393 32.1753L20.1268 50.1115L7.8042 46.5516Z" fill="url(#paint11_linear_154_2571)"/>
<path d="M19.9899 49.9752L15.6085 63.2562L7.80426 46.5523L19.9899 49.9752Z" fill="url(#paint12_linear_154_2571)"/>
<path d="M7.8042 46.6893L7.39345 52.4398L-8.72612e-05 39.9803L7.8042 46.6893Z" fill="url(#paint13_linear_154_2571)"/>
<path d="M23.9604 28.4792L14.1023 32.176L20.1267 50.1122L23.9604 28.4792Z" fill="url(#paint14_linear_154_2571)"/>
<path d="M34.0924 27.7936L20.1269 50.1111L37.7892 50.5219L34.0924 27.7936Z" fill="url(#paint15_linear_154_2571)"/>
<path d="M33.9557 66.5425L20.1271 50.1124L37.6525 50.5232L33.9557 66.5425Z" fill="url(#paint16_linear_154_2571)"/>
<path d="M29.3002 86.943L19.8529 49.7015L34.0923 66.5423L29.3002 86.943Z" fill="url(#paint17_linear_154_2571)"/>
<path d="M19.99 49.9741L29.3004 86.9418L15.6087 63.2551L19.99 49.9741Z" fill="url(#paint18_linear_154_2571)"/>
<path d="M15.6086 63.1193L29.3003 86.9429L14.6502 65.0361L15.6086 63.1193Z" fill="url(#paint19_linear_154_2571)"/>
<path d="M7.80418 46.2781L15.6085 63.1189L14.65 65.0357L7.39343 52.4394L7.80418 46.2781Z" fill="url(#paint20_linear_154_2571)"/>
<path d="M33.9556 66.5425L37.6523 50.5232L50.2487 46.4156L33.9556 66.5425Z" fill="url(#paint21_linear_154_2571)"/>
<path d="M29.1632 87.2158L50.3854 46.4145L58.8743 40.527L29.1632 87.2158Z" fill="url(#paint22_linear_154_2571)"/>
<path d="M29.3004 86.943L34.0925 66.4054L50.7964 45.7309L29.3004 86.943Z" fill="url(#paint23_linear_154_2571)"/>
<path d="M47.0996 39.4326L37.7893 50.5229L50.3857 46.4154L47.0996 39.4326Z" fill="url(#paint24_linear_154_2571)"/>
<path d="M29.1635 0L14.1026 32.3125L6.70905 30.6695L29.1635 0Z" fill="url(#paint25_linear_154_2571)"/>
<defs>
<linearGradient id="paint0_linear_154_2571" x1="21.8534" y1="-3.52883" x2="36.1822" y2="36.7159" gradientUnits="userSpaceOnUse">
<stop stop-color="#7C3FE1"/>
<stop offset="1" stop-color="#3F2065"/>
</linearGradient>
<linearGradient id="paint1_linear_154_2571" x1="29.9317" y1="-1.33908" x2="35.8191" y2="25.3598" gradientUnits="userSpaceOnUse">
<stop stop-color="#7C3FE1"/>
<stop offset="1" stop-color="#572F97"/>
</linearGradient>
<linearGradient id="paint2_linear_154_2571" x1="30.2055" y1="1.12543" x2="40.2005" y2="20.8415" gradientUnits="userSpaceOnUse">
<stop stop-color="#5831B0"/>
<stop offset="1" stop-color="#5530A9"/>
</linearGradient>
<linearGradient id="paint3_linear_154_2571" x1="34.1761" y1="21.39" x2="37.4649" y2="48.011" gradientUnits="userSpaceOnUse">
<stop stop-color="#3E1665"/>
<stop offset="1" stop-color="#7537DD"/>
</linearGradient>
<linearGradient id="paint4_linear_154_2571" x1="40.4742" y1="18.6516" x2="45.556" y2="49.1117" gradientUnits="userSpaceOnUse">
<stop stop-color="#7649DC"/>
<stop offset="1" stop-color="#512276"/>
</linearGradient>
<linearGradient id="paint5_linear_154_2571" x1="39.8266" y1="17.2771" x2="50.9448" y2="39.8716" gradientUnits="userSpaceOnUse">
<stop stop-color="#7F50E9"/>
<stop offset="1" stop-color="#5530A9"/>
</linearGradient>
<linearGradient id="paint6_linear_154_2571" x1="53.0705" y1="34.2602" x2="49.5474" y2="46.9757" gradientUnits="userSpaceOnUse">
<stop stop-color="#8A5DEF"/>
<stop offset="1" stop-color="#381F6F"/>
</linearGradient>
<linearGradient id="paint7_linear_154_2571" x1="29.247" y1="-1.88582" x2="17.9868" y2="28.1899" gradientUnits="userSpaceOnUse">
<stop stop-color="#9B64F7"/>
<stop offset="1" stop-color="#52259C"/>
</linearGradient>
<linearGradient id="paint8_linear_154_2571" x1="22.4012" y1="22.2115" x2="9.3313" y2="30.2012" gradientUnits="userSpaceOnUse">
<stop stop-color="#7E58D3"/>
<stop offset="1" stop-color="#5D4F7D"/>
</linearGradient>
<linearGradient id="paint9_linear_154_2571" x1="14.2162" y1="30.0566" x2="13.2214" y2="41.1242" gradientUnits="userSpaceOnUse">
<stop stop-color="#30007E"/>
<stop offset="1" stop-color="#8138FA"/>
</linearGradient>
<linearGradient id="paint10_linear_154_2571" x1="12.2696" y1="32.3443" x2="14.5825" y2="44.9539" gradientUnits="userSpaceOnUse">
<stop stop-color="#7537DD"/>
<stop offset="1" stop-color="#210450"/>
</linearGradient>
<linearGradient id="paint11_linear_154_2571" x1="11.9954" y1="41.1059" x2="20.0691" y2="49.0847" gradientUnits="userSpaceOnUse">
<stop stop-color="#33196A"/>
<stop offset="1" stop-color="#E9D8FF"/>
</linearGradient>
<linearGradient id="paint12_linear_154_2571" x1="12.2693" y1="50.1432" x2="17.2658" y2="60.9184" gradientUnits="userSpaceOnUse">
<stop stop-color="#2A0054"/>
<stop offset="1" stop-color="#905FFF"/>
</linearGradient>
<linearGradient id="paint13_linear_154_2571" x1="2.85956" y1="42.6588" x2="6.94254" y2="50.2192" gradientUnits="userSpaceOnUse">
<stop stop-color="#905FFF"/>
<stop offset="1" stop-color="#2A0054"/>
</linearGradient>
<linearGradient id="paint14_linear_154_2571" x1="15.3837" y1="28.5264" x2="8.5724" y2="45.6126" gradientUnits="userSpaceOnUse">
<stop stop-color="#5D1FC2"/>
<stop offset="1" stop-color="#210450"/>
</linearGradient>
<linearGradient id="paint15_linear_154_2571" x1="28.4344" y1="37.9119" x2="35.7645" y2="55.3619" gradientUnits="userSpaceOnUse">
<stop stop-color="#4B1E81"/>
<stop offset="1" stop-color="#CAB3FF"/>
</linearGradient>
<linearGradient id="paint16_linear_154_2571" x1="28.9735" y1="61.3706" x2="31.6545" y2="48.6269" gradientUnits="userSpaceOnUse">
<stop stop-color="#3C0C75"/>
<stop offset="1" stop-color="#C1A8FB"/>
</linearGradient>
<linearGradient id="paint17_linear_154_2571" x1="27.0563" y1="75.0622" x2="25.4193" y2="50.8676" gradientUnits="userSpaceOnUse">
<stop offset="0.135992" stop-color="#3B0770"/>
<stop offset="1" stop-color="#BA9CFF"/>
</linearGradient>
<linearGradient id="paint18_linear_154_2571" x1="29.2472" y1="86.8359" x2="27.3755" y2="52.3723" gradientUnits="userSpaceOnUse">
<stop stop-color="#1B013A"/>
<stop offset="1" stop-color="#996CFE"/>
</linearGradient>
<linearGradient id="paint19_linear_154_2571" x1="27.6041" y1="86.837" x2="10.6751" y2="67.6043" gradientUnits="userSpaceOnUse">
<stop stop-color="#3C0C75"/>
<stop offset="1" stop-color="#753CF4"/>
</linearGradient>
<linearGradient id="paint20_linear_154_2571" x1="15.5765" y1="64.982" x2="14.7727" y2="47.4803" gradientUnits="userSpaceOnUse">
<stop stop-color="#450592"/>
<stop offset="1" stop-color="#996CFE"/>
<stop offset="1" stop-color="#734EC7"/>
</linearGradient>
<linearGradient id="paint21_linear_154_2571" x1="42.18" y1="60.207" x2="46.4414" y2="45.0075" gradientUnits="userSpaceOnUse">
<stop stop-color="#3C0C75"/>
<stop offset="1" stop-color="#C1A8FB"/>
</linearGradient>
<linearGradient id="paint22_linear_154_2571" x1="41.5695" y1="75.0612" x2="55.7562" y2="38.4524" gradientUnits="userSpaceOnUse">
<stop stop-color="#3C0C75"/>
<stop offset="1" stop-color="#753CF4"/>
</linearGradient>
<linearGradient id="paint23_linear_154_2571" x1="35.5454" y1="69.0378" x2="54.0337" y2="52.251" gradientUnits="userSpaceOnUse">
<stop stop-color="#2A0054"/>
<stop offset="1" stop-color="#BA9CFF"/>
</linearGradient>
<linearGradient id="paint24_linear_154_2571" x1="41.3642" y1="44.9929" x2="46.5708" y2="50.7858" gradientUnits="userSpaceOnUse">
<stop stop-color="#4B1E81"/>
<stop offset="1" stop-color="#DFD3FA"/>
</linearGradient>
<linearGradient id="paint25_linear_154_2571" x1="29.3441" y1="-2.12944" x2="22.0385" y2="35.1608" gradientUnits="userSpaceOnUse">
<stop stop-color="#8B4BF4"/>
<stop offset="1" stop-color="#370983"/>
</linearGradient>
</defs>
</svg>
