<svg width="95" height="89" viewBox="0 0 95 89" fill="none" xmlns="http://www.w3.org/2000/svg">
<path d="M47.2268 88.9999C68.9166 88.9999 86.4995 83.6273 86.4995 76.9999V70.9999H7.9541V76.9999C7.9541 83.6273 25.5371 88.9999 47.2268 88.9999Z" fill="#C55B00"/>
<ellipse cx="47.2268" cy="70.4541" rx="39.2727" ry="12" fill="#B45300"/>
<path d="M47.2268 82.4541C68.9165 82.4541 86.4995 77.0815 86.4995 70.4541L94.4537 52.5H0L7.9541 70.4541C7.9541 77.0815 25.5371 82.4541 47.2268 82.4541Z" fill="url(#paint0_linear_34_748)"/>
<path d="M42.3053 0L58.0638 37.2666L36.1297 36.6278L42.3053 0Z" fill="url(#paint1_linear_34_748)"/>
<path d="M50.4006 62.6094L36.1328 36.4162L58.0669 37.0551L50.4006 62.6094Z" fill="url(#paint2_linear_34_748)"/>
<path d="M50.3992 62.6094L57.8525 37.0551L78.083 31.0924L50.3992 62.6094Z" fill="url(#paint3_linear_34_748)"/>
<path d="M50.3994 62.6094L36.3445 36.6292L21.4379 51.11L50.3994 62.6094Z" fill="url(#paint4_linear_34_748)"/>
<path d="M21.4372 51.1095L36.5568 36.6287L15.4745 30.4531L21.4372 51.1095Z" fill="url(#paint5_linear_34_748)"/>
<path d="M42.307 0L78.2959 31.091L57.8525 37.2666L42.307 0Z" fill="url(#paint6_linear_34_748)"/>
<path d="M42.307 0L36.1314 36.6278L15.475 30.4522L42.307 0Z" fill="url(#paint7_linear_34_748)"/>
<defs>
<linearGradient id="paint0_linear_34_748" x1="47.2268" y1="54" x2="47.2268" y2="96" gradientUnits="userSpaceOnUse">
<stop stop-color="#FFC38F" stop-opacity="0"/>
<stop offset="0.0001" stop-color="#FFC18C" stop-opacity="0"/>
<stop offset="1" stop-color="#FFC18C"/>
</linearGradient>
<linearGradient id="paint1_linear_34_748" x1="62.6613" y1="24.1938" x2="5.81888" y2="26.7415" gradientUnits="userSpaceOnUse">
<stop offset="0.193643" stop-color="#82CCF6"/>
<stop offset="0.70561" stop-color="white"/>
</linearGradient>
<linearGradient id="paint2_linear_34_748" x1="53.5846" y1="51.5947" x2="36.8742" y2="35.6397" gradientUnits="userSpaceOnUse">
<stop offset="0.103048" stop-color="#82CCF7"/>
<stop offset="1" stop-color="white"/>
</linearGradient>
<linearGradient id="paint3_linear_34_748" x1="72.8937" y1="40.2763" x2="50.4761" y2="38.7529" gradientUnits="userSpaceOnUse">
<stop offset="0.103048" stop-color="#82CCF7"/>
<stop offset="1" stop-color="white"/>
</linearGradient>
<linearGradient id="paint4_linear_34_748" x1="26.8667" y1="44.1997" x2="50.2533" y2="42.1828" gradientUnits="userSpaceOnUse">
<stop offset="0.103048" stop-color="#82CCF7"/>
<stop offset="1" stop-color="white"/>
</linearGradient>
<linearGradient id="paint5_linear_34_748" x1="19.4264" y1="36.4723" x2="36.4708" y2="35.1265" gradientUnits="userSpaceOnUse">
<stop offset="0.103048" stop-color="#82CCF7"/>
<stop offset="1" stop-color="white"/>
</linearGradient>
<linearGradient id="paint6_linear_34_748" x1="72.7406" y1="6.29327" x2="41.1168" y2="48.6745" gradientUnits="userSpaceOnUse">
<stop stop-color="#43B2F0"/>
<stop offset="1" stop-color="white"/>
</linearGradient>
<linearGradient id="paint7_linear_34_748" x1="20.5047" y1="25.9546" x2="42.2629" y2="27.1877" gradientUnits="userSpaceOnUse">
<stop offset="0.103048" stop-color="#82CCF7"/>
<stop offset="1" stop-color="white"/>
</linearGradient>
</defs>
</svg>
