<svg width="95" height="99" viewBox="0 0 95 99" fill="none" xmlns="http://www.w3.org/2000/svg">
<path d="M47.2268 98.9999C68.9166 98.9999 86.4995 93.6273 86.4995 86.9999V80.9999H7.9541V86.9999C7.9541 93.6273 25.5371 98.9999 47.2268 98.9999Z" fill="#C55B00"/>
<ellipse cx="47.2268" cy="80.4541" rx="39.2727" ry="12" fill="#B45300"/>
<path d="M47.2268 92.4541C68.9165 92.4541 86.4995 87.0815 86.4995 80.4541L94.4537 62.5H0L7.9541 80.4541C7.9541 87.0815 25.5371 92.4541 47.2268 92.4541Z" fill="url(#paint0_linear_34_750)"/>
<g filter="url(#filter0_d_34_750)">
<path d="M41.4451 2.57206L36.0147 47.2785L18.343 42.0605L41.4451 2.57206Z" fill="url(#paint1_linear_34_750)"/>
<path d="M41.4451 2.57206L54.4198 48.0405L36.0147 47.2785L41.4451 2.57206Z" fill="url(#paint2_linear_34_750)"/>
<path d="M41.4451 2.57206L71.4015 42.6166L54.4198 48.0405L41.4451 2.57206Z" fill="url(#paint3_linear_34_750)"/>
<path d="M71.3994 42.6183L54.3679 70.1851L54.4193 48.0416L71.3994 42.6183Z" fill="url(#paint4_linear_34_750)"/>
<path d="M54.3647 70.185L23.5218 59.4769L36.0142 47.2796L54.3647 70.185Z" fill="url(#paint5_linear_34_750)"/>
<path d="M54.365 70.1842L36.0144 47.2781L54.4176 48.0407L54.365 70.1842Z" fill="url(#paint6_linear_34_750)"/>
<path d="M36.0159 47.2812L23.5823 59.4698L18.3415 42.0616L36.0159 47.2812Z" fill="url(#paint7_linear_34_750)"/>
</g>
<defs>
<filter id="filter0_d_34_750" x="9.97622" y="1.4809" width="69.7905" height="84.3435" filterUnits="userSpaceOnUse" color-interpolation-filters="sRGB">
<feFlood flood-opacity="0" result="BackgroundImageFix"/>
<feColorMatrix in="SourceAlpha" type="matrix" values="0 0 0 0 0 0 0 0 0 0 0 0 0 0 0 0 0 0 127 0" result="hardAlpha"/>
<feOffset dy="7.27414"/>
<feGaussianBlur stdDeviation="4.18263"/>
<feComposite in2="hardAlpha" operator="out"/>
<feColorMatrix type="matrix" values="0 0 0 0 0.94902 0 0 0 0 0.67451 0 0 0 0 0.266667 0 0 0 0.22 0"/>
<feBlend mode="normal" in2="BackgroundImageFix" result="effect1_dropShadow_34_750"/>
<feBlend mode="normal" in="SourceGraphic" in2="effect1_dropShadow_34_750" result="shape"/>
</filter>
<linearGradient id="paint0_linear_34_750" x1="47.2268" y1="64" x2="47.2268" y2="106" gradientUnits="userSpaceOnUse">
<stop stop-color="#FFC38F" stop-opacity="0"/>
<stop offset="0.0001" stop-color="#FFC18C" stop-opacity="0"/>
<stop offset="1" stop-color="#FFC18C"/>
</linearGradient>
<linearGradient id="paint1_linear_34_750" x1="35.3637" y1="19.2383" x2="26.1901" y2="67.6733" gradientUnits="userSpaceOnUse">
<stop offset="0.22078" stop-color="#F1AC44"/>
<stop offset="0.813447" stop-color="white"/>
<stop offset="1" stop-color="#F1AC44" stop-opacity="0"/>
</linearGradient>
<linearGradient id="paint2_linear_34_750" x1="41.0559" y1="44.271" x2="40.5906" y2="-2.03005" gradientUnits="userSpaceOnUse">
<stop stop-color="#F0AB43"/>
<stop offset="1" stop-color="white"/>
</linearGradient>
<linearGradient id="paint3_linear_34_750" x1="58.0809" y1="9.20357" x2="54.2745" y2="48.4723" gradientUnits="userSpaceOnUse">
<stop offset="0.388035" stop-color="#F1AC44"/>
<stop offset="1" stop-color="white"/>
</linearGradient>
<linearGradient id="paint4_linear_34_750" x1="67.2199" y1="46.6346" x2="39.6092" y2="48.007" gradientUnits="userSpaceOnUse">
<stop stop-color="#F0AB43"/>
<stop offset="1" stop-color="white"/>
</linearGradient>
<linearGradient id="paint5_linear_34_750" x1="43.3064" y1="64.5516" x2="28.8486" y2="37.1974" gradientUnits="userSpaceOnUse">
<stop offset="0.140194" stop-color="#F1AC44"/>
<stop offset="1" stop-color="white"/>
</linearGradient>
<linearGradient id="paint6_linear_34_750" x1="34.9741" y1="61.5107" x2="71.8449" y2="35.86" gradientUnits="userSpaceOnUse">
<stop offset="0.193643" stop-color="#F1AC44"/>
<stop offset="0.794347" stop-color="white"/>
</linearGradient>
<linearGradient id="paint7_linear_34_750" x1="12.7164" y1="49.3815" x2="40.6157" y2="47.5785" gradientUnits="userSpaceOnUse">
<stop offset="0.201632" stop-color="#F2B352"/>
<stop offset="1" stop-color="white"/>
</linearGradient>
</defs>
</svg>
