<svg width="71" height="60" viewBox="0 0 71 60" fill="none" xmlns="http://www.w3.org/2000/svg">
<path d="M32.7851 0L49.1777 26.5672L19.7841 25.4367L32.7851 0Z" fill="url(#paint0_linear_154_2407)"/>
<path d="M44.3729 59.0697L19.7841 25.4367L49.1777 26.5672L44.3729 59.0697Z" fill="url(#paint1_linear_154_2407)"/>
<path d="M44.373 59.0697L49.1777 26.5672L70.9402 19.2188L44.373 59.0697Z" fill="url(#paint2_linear_154_2407)"/>
<path d="M3.67419 41.2639L1.90735e-06 18.9361L19.7841 25.4366L3.67419 41.2639Z" fill="url(#paint3_linear_154_2407)"/>
<path d="M3.67428 41.2641L19.7365 25.0885L44.3253 59.0042L3.67428 41.2641Z" fill="url(#paint4_linear_154_2407)"/>
<path d="M32.7851 0L70.9402 19.2189L49.1777 26.5672L32.7851 0Z" fill="url(#paint5_linear_154_2407)"/>
<path d="M32.7851 0L0 18.9362L19.7841 25.4367L32.7851 0Z" fill="url(#paint6_linear_154_2407)"/>
<defs>
<linearGradient id="paint0_linear_154_2407" x1="34.371" y1="0.0640334" x2="32.3632" y2="27.8996" gradientUnits="userSpaceOnUse">
<stop stop-color="#C729FE"/>
<stop offset="1" stop-color="#E3A8F8"/>
</linearGradient>
<linearGradient id="paint1_linear_154_2407" x1="35.7842" y1="45.2849" x2="54.3703" y2="38.6428" gradientUnits="userSpaceOnUse">
<stop stop-color="#C729FE"/>
<stop offset="1" stop-color="white"/>
</linearGradient>
<linearGradient id="paint2_linear_154_2407" x1="64.3299" y1="25.2181" x2="49.5553" y2="17.5475" gradientUnits="userSpaceOnUse">
<stop stop-color="#C729FE"/>
<stop offset="1" stop-color="white"/>
</linearGradient>
<linearGradient id="paint3_linear_154_2407" x1="-1.80563" y1="34.5448" x2="21.3803" y2="30.5171" gradientUnits="userSpaceOnUse">
<stop stop-color="#C729FE"/>
<stop offset="1" stop-color="white"/>
</linearGradient>
<linearGradient id="paint4_linear_154_2407" x1="25.6096" y1="48.9592" x2="30.6481" y2="23.1787" gradientUnits="userSpaceOnUse">
<stop stop-color="#C729FE"/>
<stop offset="1" stop-color="white"/>
</linearGradient>
<linearGradient id="paint5_linear_154_2407" x1="58.9599" y1="1.47718" x2="46.7343" y2="28.213" gradientUnits="userSpaceOnUse">
<stop stop-color="#C729FE"/>
<stop offset="1" stop-color="white"/>
</linearGradient>
<linearGradient id="paint6_linear_154_2407" x1="11.7606" y1="1.75981" x2="16.2827" y2="19.8482" gradientUnits="userSpaceOnUse">
<stop stop-color="#C729FE"/>
<stop offset="1" stop-color="#E3A8F8"/>
</linearGradient>
</defs>
</svg>
