<svg width="95" height="115" viewBox="0 0 95 115" fill="none" xmlns="http://www.w3.org/2000/svg">
<path d="M47.2268 115C68.9166 115 86.4995 109.627 86.4995 103V96.9998H7.9541V103C7.9541 109.627 25.5371 115 47.2268 115Z" fill="#C55B00"/>
<ellipse cx="47.2268" cy="96.4541" rx="39.2727" ry="12" fill="#B45300"/>
<path d="M47.2268 108.454C68.9165 108.454 86.4995 103.082 86.4995 96.4541L94.4537 78.5H0L7.9541 96.4541C7.9541 103.082 25.5371 108.454 47.2268 108.454Z" fill="url(#paint0_linear_34_751)"/>
<path d="M47.1633 0L51.1339 22.8652L39.7697 40.1168L47.1633 0Z" fill="url(#paint1_linear_34_751)"/>
<path d="M47.1634 0.135986L56.6107 20.8105L52.0924 27.9302L47.1634 0.135986Z" fill="url(#paint2_linear_34_751)"/>
<path d="M47.1634 0.135986L59.4859 16.1553L56.6107 20.8105L47.1634 0.135986Z" fill="url(#paint3_linear_34_751)"/>
<path d="M39.9068 39.8429L51.134 22.8651L52.0924 27.7941L38.1268 50.1117L39.9068 39.8429Z" fill="url(#paint4_linear_34_751)"/>
<path d="M55.7891 50.5223L52.0923 27.794L56.6106 20.6743L65.0995 39.5689L55.7891 50.5223Z" fill="url(#paint5_linear_34_751)"/>
<path d="M65.0996 39.5695L56.6107 20.6749L59.486 16.1566L70.9871 32.4498L65.0996 39.5695Z" fill="url(#paint6_linear_34_751)"/>
<path d="M68.3854 46.5517L65.0994 39.432L70.9868 32.4492L76.8743 40.5273L68.3854 46.5517Z" fill="url(#paint7_linear_34_751)"/>
<path d="M47.1633 0L41.9604 28.6157L36.7575 22.3175L47.1633 0Z" fill="url(#paint8_linear_34_751)"/>
<path d="M36.7576 22.3174L41.9605 28.6156L32.1024 32.1754L36.7576 22.3174Z" fill="url(#paint9_linear_34_751)"/>
<path d="M24.7092 30.6702L32.1027 32.3132L18.0003 39.9805L24.7092 30.6702Z" fill="url(#paint10_linear_34_751)"/>
<path d="M18.0003 39.9806L32.1027 32.3132L25.8045 46.5526L18.0003 39.9806Z" fill="url(#paint11_linear_34_751)"/>
<path d="M25.8042 46.5516L32.2393 32.1753L38.1268 50.1115L25.8042 46.5516Z" fill="url(#paint12_linear_34_751)"/>
<path d="M37.9899 49.9752L33.6085 63.2562L25.8043 46.5523L37.9899 49.9752Z" fill="url(#paint13_linear_34_751)"/>
<path d="M25.8042 46.6893L25.3935 52.4398L17.9999 39.9803L25.8042 46.6893Z" fill="url(#paint14_linear_34_751)"/>
<path d="M41.9603 28.4792L32.1023 32.176L38.1267 50.1122L41.9603 28.4792Z" fill="url(#paint15_linear_34_751)"/>
<path d="M52.0924 27.7936L38.1269 50.1111L55.7892 50.5219L52.0924 27.7936Z" fill="url(#paint16_linear_34_751)"/>
<path d="M51.9557 66.5425L38.1271 50.1124L55.6525 50.5232L51.9557 66.5425Z" fill="url(#paint17_linear_34_751)"/>
<path d="M47.3002 86.9429L37.8529 49.7014L52.0923 66.5422L47.3002 86.9429Z" fill="url(#paint18_linear_34_751)"/>
<path d="M37.99 49.9741L47.3004 86.9418L33.6087 63.2551L37.99 49.9741Z" fill="url(#paint19_linear_34_751)"/>
<path d="M33.6086 63.1193L47.3003 86.9429L32.6502 65.0361L33.6086 63.1193Z" fill="url(#paint20_linear_34_751)"/>
<path d="M25.8042 46.2781L33.6085 63.1189L32.65 65.0357L25.3934 52.4394L25.8042 46.2781Z" fill="url(#paint21_linear_34_751)"/>
<path d="M51.9556 66.5425L55.6523 50.5232L68.2487 46.4156L51.9556 66.5425Z" fill="url(#paint22_linear_34_751)"/>
<path d="M47.1632 87.2158L68.3854 46.4145L76.8743 40.527L47.1632 87.2158Z" fill="url(#paint23_linear_34_751)"/>
<path d="M47.3004 86.9429L52.0925 66.4053L68.7964 45.7308L47.3004 86.9429Z" fill="url(#paint24_linear_34_751)"/>
<path d="M65.0996 39.4326L55.7893 50.5229L68.3857 46.4154L65.0996 39.4326Z" fill="url(#paint25_linear_34_751)"/>
<path d="M47.1635 0L32.1026 32.3125L24.709 30.6695L47.1635 0Z" fill="url(#paint26_linear_34_751)"/>
<defs>
<linearGradient id="paint0_linear_34_751" x1="47.2268" y1="80" x2="47.2268" y2="122" gradientUnits="userSpaceOnUse">
<stop stop-color="#FFC38F" stop-opacity="0"/>
<stop offset="0.0001" stop-color="#FFC18C" stop-opacity="0"/>
<stop offset="1" stop-color="#FFC18C"/>
</linearGradient>
<linearGradient id="paint1_linear_34_751" x1="39.8534" y1="-3.52883" x2="54.1822" y2="36.7159" gradientUnits="userSpaceOnUse">
<stop stop-color="#7C3FE1"/>
<stop offset="1" stop-color="#3F2065"/>
</linearGradient>
<linearGradient id="paint2_linear_34_751" x1="47.9317" y1="-1.33908" x2="53.8191" y2="25.3598" gradientUnits="userSpaceOnUse">
<stop stop-color="#7C3FE1"/>
<stop offset="1" stop-color="#572F97"/>
</linearGradient>
<linearGradient id="paint3_linear_34_751" x1="48.2055" y1="1.12543" x2="58.2005" y2="20.8415" gradientUnits="userSpaceOnUse">
<stop stop-color="#5831B0"/>
<stop offset="1" stop-color="#5530A9"/>
</linearGradient>
<linearGradient id="paint4_linear_34_751" x1="52.1761" y1="21.39" x2="55.4649" y2="48.011" gradientUnits="userSpaceOnUse">
<stop stop-color="#3E1665"/>
<stop offset="1" stop-color="#7537DD"/>
</linearGradient>
<linearGradient id="paint5_linear_34_751" x1="58.4742" y1="18.6516" x2="63.556" y2="49.1117" gradientUnits="userSpaceOnUse">
<stop stop-color="#7649DC"/>
<stop offset="1" stop-color="#512276"/>
</linearGradient>
<linearGradient id="paint6_linear_34_751" x1="57.8266" y1="17.2771" x2="68.9448" y2="39.8716" gradientUnits="userSpaceOnUse">
<stop stop-color="#7F50E9"/>
<stop offset="1" stop-color="#5530A9"/>
</linearGradient>
<linearGradient id="paint7_linear_34_751" x1="71.0705" y1="34.2602" x2="67.5474" y2="46.9757" gradientUnits="userSpaceOnUse">
<stop stop-color="#8A5DEF"/>
<stop offset="1" stop-color="#381F6F"/>
</linearGradient>
<linearGradient id="paint8_linear_34_751" x1="47.247" y1="-1.88582" x2="35.9868" y2="28.1899" gradientUnits="userSpaceOnUse">
<stop stop-color="#9B64F7"/>
<stop offset="1" stop-color="#52259C"/>
</linearGradient>
<linearGradient id="paint9_linear_34_751" x1="40.4012" y1="22.2115" x2="27.3313" y2="30.2012" gradientUnits="userSpaceOnUse">
<stop stop-color="#7E58D3"/>
<stop offset="1" stop-color="#5D4F7D"/>
</linearGradient>
<linearGradient id="paint10_linear_34_751" x1="32.2162" y1="30.0566" x2="31.2214" y2="41.1242" gradientUnits="userSpaceOnUse">
<stop stop-color="#30007E"/>
<stop offset="1" stop-color="#8138FA"/>
</linearGradient>
<linearGradient id="paint11_linear_34_751" x1="30.2696" y1="32.3443" x2="32.5825" y2="44.9539" gradientUnits="userSpaceOnUse">
<stop stop-color="#7537DD"/>
<stop offset="1" stop-color="#210450"/>
</linearGradient>
<linearGradient id="paint12_linear_34_751" x1="29.9954" y1="41.1059" x2="38.0691" y2="49.0847" gradientUnits="userSpaceOnUse">
<stop stop-color="#33196A"/>
<stop offset="1" stop-color="#E9D8FF"/>
</linearGradient>
<linearGradient id="paint13_linear_34_751" x1="30.2693" y1="50.1432" x2="35.2658" y2="60.9184" gradientUnits="userSpaceOnUse">
<stop stop-color="#2A0054"/>
<stop offset="1" stop-color="#905FFF"/>
</linearGradient>
<linearGradient id="paint14_linear_34_751" x1="20.8596" y1="42.6588" x2="24.9426" y2="50.2192" gradientUnits="userSpaceOnUse">
<stop stop-color="#905FFF"/>
<stop offset="1" stop-color="#2A0054"/>
</linearGradient>
<linearGradient id="paint15_linear_34_751" x1="33.3837" y1="28.5264" x2="26.5724" y2="45.6126" gradientUnits="userSpaceOnUse">
<stop stop-color="#5D1FC2"/>
<stop offset="1" stop-color="#210450"/>
</linearGradient>
<linearGradient id="paint16_linear_34_751" x1="46.4344" y1="37.9119" x2="53.7645" y2="55.3619" gradientUnits="userSpaceOnUse">
<stop stop-color="#4B1E81"/>
<stop offset="1" stop-color="#CAB3FF"/>
</linearGradient>
<linearGradient id="paint17_linear_34_751" x1="46.9735" y1="61.3706" x2="49.6545" y2="48.6269" gradientUnits="userSpaceOnUse">
<stop stop-color="#3C0C75"/>
<stop offset="1" stop-color="#C1A8FB"/>
</linearGradient>
<linearGradient id="paint18_linear_34_751" x1="45.0563" y1="75.0621" x2="43.4193" y2="50.8675" gradientUnits="userSpaceOnUse">
<stop offset="0.135992" stop-color="#3B0770"/>
<stop offset="1" stop-color="#BA9CFF"/>
</linearGradient>
<linearGradient id="paint19_linear_34_751" x1="47.2472" y1="86.8359" x2="45.3755" y2="52.3723" gradientUnits="userSpaceOnUse">
<stop stop-color="#1B013A"/>
<stop offset="1" stop-color="#996CFE"/>
</linearGradient>
<linearGradient id="paint20_linear_34_751" x1="45.6041" y1="86.837" x2="28.6751" y2="67.6043" gradientUnits="userSpaceOnUse">
<stop stop-color="#3C0C75"/>
<stop offset="1" stop-color="#753CF4"/>
</linearGradient>
<linearGradient id="paint21_linear_34_751" x1="33.5765" y1="64.982" x2="32.7727" y2="47.4803" gradientUnits="userSpaceOnUse">
<stop stop-color="#450592"/>
<stop offset="1" stop-color="#996CFE"/>
<stop offset="1" stop-color="#734EC7"/>
</linearGradient>
<linearGradient id="paint22_linear_34_751" x1="60.18" y1="60.207" x2="64.4414" y2="45.0075" gradientUnits="userSpaceOnUse">
<stop stop-color="#3C0C75"/>
<stop offset="1" stop-color="#C1A8FB"/>
</linearGradient>
<linearGradient id="paint23_linear_34_751" x1="59.5695" y1="75.0612" x2="73.7562" y2="38.4524" gradientUnits="userSpaceOnUse">
<stop stop-color="#3C0C75"/>
<stop offset="1" stop-color="#753CF4"/>
</linearGradient>
<linearGradient id="paint24_linear_34_751" x1="53.5454" y1="69.0377" x2="72.0337" y2="52.2509" gradientUnits="userSpaceOnUse">
<stop stop-color="#2A0054"/>
<stop offset="1" stop-color="#BA9CFF"/>
</linearGradient>
<linearGradient id="paint25_linear_34_751" x1="59.3642" y1="44.9929" x2="64.5708" y2="50.7858" gradientUnits="userSpaceOnUse">
<stop stop-color="#4B1E81"/>
<stop offset="1" stop-color="#DFD3FA"/>
</linearGradient>
<linearGradient id="paint26_linear_34_751" x1="47.3441" y1="-2.12944" x2="40.0384" y2="35.1608" gradientUnits="userSpaceOnUse">
<stop stop-color="#8B4BF4"/>
<stop offset="1" stop-color="#370983"/>
</linearGradient>
</defs>
</svg>
