<svg width="73" height="86" viewBox="0 0 73 86" fill="none" xmlns="http://www.w3.org/2000/svg">
<g filter="url(#filter0_d_154_2389)">
<path d="M32.4451 2.57206L27.0147 47.2785L9.34304 42.0605L32.4451 2.57206Z" fill="url(#paint0_linear_154_2389)"/>
<path d="M32.4451 2.57206L45.4198 48.0405L27.0147 47.2785L32.4451 2.57206Z" fill="url(#paint1_linear_154_2389)"/>
<path d="M32.4451 2.57206L62.4015 42.6166L45.4198 48.0405L32.4451 2.57206Z" fill="url(#paint2_linear_154_2389)"/>
<path d="M62.3994 42.6183L45.3679 70.1851L45.4193 48.0416L62.3994 42.6183Z" fill="url(#paint3_linear_154_2389)"/>
<path d="M45.3648 70.185L14.5218 59.4769L27.0142 47.2796L45.3648 70.185Z" fill="url(#paint4_linear_154_2389)"/>
<path d="M45.365 70.1842L27.0144 47.2781L45.4176 48.0407L45.365 70.1842Z" fill="url(#paint5_linear_154_2389)"/>
<path d="M27.016 47.2812L14.5823 59.4698L9.3415 42.0616L27.016 47.2812Z" fill="url(#paint6_linear_154_2389)"/>
</g>
<defs>
<filter id="filter0_d_154_2389" x="0.976235" y="1.4809" width="69.7905" height="84.3435" filterUnits="userSpaceOnUse" color-interpolation-filters="sRGB">
<feFlood flood-opacity="0" result="BackgroundImageFix"/>
<feColorMatrix in="SourceAlpha" type="matrix" values="0 0 0 0 0 0 0 0 0 0 0 0 0 0 0 0 0 0 127 0" result="hardAlpha"/>
<feOffset dy="7.27414"/>
<feGaussianBlur stdDeviation="4.18263"/>
<feComposite in2="hardAlpha" operator="out"/>
<feColorMatrix type="matrix" values="0 0 0 0 0.94902 0 0 0 0 0.67451 0 0 0 0 0.266667 0 0 0 0.22 0"/>
<feBlend mode="normal" in2="BackgroundImageFix" result="effect1_dropShadow_154_2389"/>
<feBlend mode="normal" in="SourceGraphic" in2="effect1_dropShadow_154_2389" result="shape"/>
</filter>
<linearGradient id="paint0_linear_154_2389" x1="26.3637" y1="19.2383" x2="17.1901" y2="67.6733" gradientUnits="userSpaceOnUse">
<stop offset="0.22078" stop-color="#F1AC44"/>
<stop offset="0.813447" stop-color="white"/>
<stop offset="1" stop-color="#F1AC44" stop-opacity="0"/>
</linearGradient>
<linearGradient id="paint1_linear_154_2389" x1="32.0559" y1="44.271" x2="31.5906" y2="-2.03005" gradientUnits="userSpaceOnUse">
<stop stop-color="#F0AB43"/>
<stop offset="1" stop-color="white"/>
</linearGradient>
<linearGradient id="paint2_linear_154_2389" x1="49.0809" y1="9.20357" x2="45.2745" y2="48.4723" gradientUnits="userSpaceOnUse">
<stop offset="0.388035" stop-color="#F1AC44"/>
<stop offset="1" stop-color="white"/>
</linearGradient>
<linearGradient id="paint3_linear_154_2389" x1="58.2199" y1="46.6346" x2="30.6092" y2="48.007" gradientUnits="userSpaceOnUse">
<stop stop-color="#F0AB43"/>
<stop offset="1" stop-color="white"/>
</linearGradient>
<linearGradient id="paint4_linear_154_2389" x1="34.3064" y1="64.5516" x2="19.8487" y2="37.1974" gradientUnits="userSpaceOnUse">
<stop offset="0.140194" stop-color="#F1AC44"/>
<stop offset="1" stop-color="white"/>
</linearGradient>
<linearGradient id="paint5_linear_154_2389" x1="25.9741" y1="61.5107" x2="62.8449" y2="35.86" gradientUnits="userSpaceOnUse">
<stop offset="0.193643" stop-color="#F1AC44"/>
<stop offset="0.794347" stop-color="white"/>
</linearGradient>
<linearGradient id="paint6_linear_154_2389" x1="3.7164" y1="49.3815" x2="31.6157" y2="47.5785" gradientUnits="userSpaceOnUse">
<stop offset="0.201632" stop-color="#F2B352"/>
<stop offset="1" stop-color="white"/>
</linearGradient>
</defs>
</svg>
