<svg width="556" height="326" viewBox="0 0 556 326" fill="none" xmlns="http://www.w3.org/2000/svg">
<g filter="url(#filter0_f_82_1155)">
<ellipse cx="277.73" cy="162.809" rx="150.242" ry="35.3731" fill="#0FAD7B"/>
</g>
<path d="M163.054 72.831C185.495 111.593 227.657 105.416 245.933 97.4822L236.582 121.283C196.8 133.864 169.571 96.2071 160.929 75.8062L163.054 72.831Z" fill="#141123"/>
<path d="M219.83 26.0785C231.043 45.4467 252.111 42.3602 261.242 38.396L256.57 50.2887C236.692 56.5749 223.087 37.7589 218.768 27.5651L219.83 26.0785Z" fill="#1C0F35"/>
<path d="M390.014 71.1308C367.573 109.893 325.411 103.716 307.135 95.7819L316.485 119.583C356.267 132.164 383.497 94.5069 392.139 74.106L390.014 71.1308Z" fill="#141123"/>
<path d="M333.236 26.5038C322.023 45.872 300.956 42.7855 291.824 38.8213L296.496 50.714C316.374 57.0002 329.98 38.1842 334.298 27.9904L333.236 26.5038Z" fill="#1C0F35"/>
<path d="M356.376 96.6164C341.407 94.8137 342.943 100.127 345.582 103.009L343.703 103.69C340.71 102.082 341.237 98.9525 342.257 96.7721C344.154 92.7183 350.674 92.1278 353.534 92.6857C355.822 93.132 363.006 93.5634 366.312 93.7234C389.426 91.0146 387.514 82.3174 385.312 78.6863C383.55 75.7813 384.998 74.7249 385.942 74.5599C396.83 87.9767 375.088 98.8698 356.376 96.6164Z" fill="#089858"/>
<path d="M196.787 96.6164C211.757 94.8137 210.22 100.127 207.581 103.009L209.461 103.69C212.453 102.082 211.927 98.9525 210.906 96.7721C209.009 92.7183 202.49 92.1278 199.63 92.6857C197.342 93.132 190.158 93.5634 186.851 93.7234C163.737 91.0146 165.65 82.3174 167.852 78.6863C169.613 75.7813 168.165 74.7249 167.221 74.5599C156.334 87.9767 178.076 98.8698 196.787 96.6164Z" fill="#089858"/>
<path d="M187.704 186.141C218.646 168.821 237.998 112.073 243.807 85.8648H311.81C317.619 112.073 336.971 168.821 367.913 186.141L313.935 217.763H288.434H267.183H241.682L187.704 186.141Z" fill="#1C0F35"/>
<path d="M292.211 64.3307C310.832 83.2646 335.442 54.9222 347.913 34.5493C349.926 31.2606 350.864 27.457 350.864 23.601C346.103 31.4214 332.162 51.7927 317.499 63.4807C303.474 71.7686 292.848 61.1431 292.211 55.4053C292.211 50.3051 295.469 48.7467 297.098 48.605C301.346 49.2851 298.868 52.8552 297.098 54.5553C301.008 55.5753 301.703 52.1468 301.561 50.3051C298.331 44.5248 293.415 48.4633 291.361 51.1551C291.701 40.6147 299.578 39.5379 303.474 40.3171C305.811 39.6796 311.974 46.2674 308.786 49.4551C306.236 52.0052 307.157 53.0677 307.936 53.2802C311.506 53.7903 312.116 48.8175 311.974 46.2674C308.064 37.937 300.711 37.5545 297.524 38.4046C282.563 46.2249 287.748 58.9472 292.211 64.3307Z" fill="#241344"/>
<path d="M263.357 64.3304C244.893 83.1052 220.539 55.3946 207.972 35.0638C205.738 31.4488 204.704 27.2501 204.704 23.0001C209.465 30.8205 223.406 51.7923 238.069 63.4803C252.095 71.7682 262.72 61.1427 263.357 55.405C263.357 50.3047 260.099 48.7463 258.47 48.6047C254.222 49.2847 256.7 52.8549 258.47 54.5549C254.56 55.575 253.866 52.1465 254.007 50.3047C257.237 44.5245 262.153 48.463 264.208 51.1548C263.868 40.6143 255.991 39.5376 252.095 40.3168C249.757 39.6793 243.594 46.2671 246.782 49.4547C249.332 52.0048 248.411 53.0674 247.632 53.2799C244.062 53.7899 243.452 48.8172 243.594 46.2671C247.504 37.9367 254.857 37.5542 258.044 38.4042C273.005 46.2246 267.82 58.9468 263.357 64.3304Z" fill="#241344"/>
<path d="M278.539 90.1024C274.016 90.7192 268.431 86.7616 266.204 84.7058L267.746 80.0801C269.39 84.1918 275.627 88.4749 278.539 90.1024Z" fill="white"/>
<path d="M277.255 90.1024C281.778 90.7192 287.363 86.7616 289.59 84.7058L288.048 80.0801C286.404 84.1918 280.167 88.4749 277.255 90.1024Z" fill="white"/>
<path d="M278.025 117.6C272.268 97.6582 253.183 99.1829 244.36 102.438L250.014 129.678H306.293L310.405 102.438C290.874 95.037 280.68 109.462 278.025 117.6Z" fill="#08AC70"/>
<circle cx="247.208" cy="116.608" r="14.4507" fill="#059A64"/>
<circle cx="306.285" cy="116.608" r="14.4507" fill="#059A64"/>
<mask id="mask0_82_1155" style="mask-type:alpha" maskUnits="userSpaceOnUse" x="244" y="100" width="67" height="30">
<path d="M278.025 117.6C272.268 97.6582 253.183 99.1829 244.36 102.438L250.014 129.678H306.293L310.405 102.438C290.874 95.037 280.68 109.462 278.025 117.6Z" fill="#08AC70"/>
</mask>
<g mask="url(#mask0_82_1155)">
<path d="M305.554 128.615L296.353 99.6418" stroke="#B5E88E" stroke-width="0.467568"/>
<path d="M250.777 128.615L259.978 99.6418" stroke="#B5E88E" stroke-width="0.467568"/>
<path d="M305.636 128.95L304.248 98.5828" stroke="#B5E88E" stroke-width="0.467568"/>
<path d="M250.696 128.95L252.084 98.5828" stroke="#B5E88E" stroke-width="0.467568"/>
<path d="M305.333 128.707L288.947 103.102" stroke="#B5E88E" stroke-width="0.467568"/>
<path d="M250.999 128.707L267.384 103.102" stroke="#B5E88E" stroke-width="0.467568"/>
<path d="M304.551 128.053L280.884 108.774" stroke="#B5E88E" stroke-width="0.467568"/>
<path d="M251.781 128.053L275.448 108.774" stroke="#B5E88E" stroke-width="0.467568"/>
</g>
<path d="M224.83 102.951C231.408 114.67 225.515 120.854 221.746 122.482C206.944 128.855 184.398 126.508 174.975 124.538C175.386 167.094 200.844 184.929 213.522 188.527C215.15 182.359 219.176 168.122 222.259 160.515C225.343 152.909 242.904 134.56 251.298 126.337C255.616 115.852 248.643 105.692 244.617 101.923C241.447 99.1823 234.903 92.4151 234.081 87.2754C233.053 80.8508 234.852 74.6833 242.304 72.6274C249.757 70.5715 254.896 76.2252 259.265 81.6218C262.76 85.9391 264.833 85.6479 265.432 84.9626C266.974 84.7056 269.801 79.3089 266.717 72.6274C263.634 65.9458 245.131 54.3816 229.712 58.4933C214.293 62.605 216.606 88.3033 224.83 102.951Z" fill="#E88128"/>
<path d="M330.962 102.951C324.384 114.67 330.277 120.854 334.046 122.482C348.848 128.855 371.394 126.508 380.817 124.538C380.406 167.094 354.948 184.929 342.27 188.527C340.642 182.359 336.616 168.122 333.533 160.515C330.449 152.909 312.888 134.56 304.494 126.337C300.176 115.852 307.149 105.692 311.175 101.923C314.345 99.1823 320.889 92.4151 321.711 87.2754C322.739 80.8508 320.94 74.6833 313.488 72.6274C306.035 70.5715 300.896 76.2252 296.527 81.6218C293.032 85.9391 290.959 85.6479 290.36 84.9626C288.818 84.7056 285.991 79.3089 289.075 72.6274C292.158 65.9458 310.661 54.3816 326.08 58.4933C341.499 62.605 339.186 88.3033 330.962 102.951Z" fill="#E88128"/>
<mask id="mask1_82_1155" style="mask-type:alpha" maskUnits="userSpaceOnUse" x="287" y="57" width="94" height="132">
<path d="M330.963 102.951C324.384 114.67 330.278 120.855 334.047 122.482C348.849 128.855 371.395 126.508 380.818 124.538C380.407 167.094 354.948 184.929 342.27 188.527C340.643 182.359 336.617 168.122 333.533 160.516C330.449 152.909 312.889 134.56 304.494 126.337C300.177 115.852 307.15 105.693 311.176 101.923C314.345 99.1823 320.89 92.4151 321.712 87.2755C322.74 80.8509 320.941 74.6833 313.488 72.6274C306.036 70.5715 300.896 76.2252 296.528 81.6219C293.033 85.9392 290.96 85.6479 290.36 84.9626C288.818 84.7057 285.991 79.309 289.075 72.6274C292.159 65.9459 310.661 54.3817 326.08 58.4934C341.499 62.6051 339.186 88.3034 330.963 102.951Z" fill="#E88128"/>
</mask>
<g mask="url(#mask1_82_1155)">
<path d="M336.248 148.697C330.468 136.116 311.881 126.029 303.309 122.558V129.571L340.711 194.174L353.037 186.523C353.207 181.253 349.991 170.302 348.361 165.485C356.182 164.635 356.437 155.355 355.587 150.822C358.349 153.301 364.597 157.495 367.487 154.434C370.377 151.374 369.4 145.226 368.55 142.534C372.12 146.444 379.529 148.272 382.788 148.697L387.038 135.309C371.667 133.325 336.631 128.763 334.761 131.483C332.891 134.204 334.761 143.384 336.248 148.697Z" fill="#A44C00"/>
</g>
<mask id="mask2_82_1155" style="mask-type:alpha" maskUnits="userSpaceOnUse" x="174" y="57" width="95" height="132">
<path d="M224.83 102.951C231.408 114.67 225.515 120.854 221.746 122.482C206.944 128.855 184.398 126.508 174.975 124.538C175.386 167.094 200.844 184.929 213.522 188.527C215.15 182.359 219.176 168.122 222.259 160.515C225.343 152.909 242.904 134.56 251.298 126.337C255.616 115.852 248.643 105.692 244.617 101.923C241.447 99.1823 234.903 92.4151 234.081 87.2754C233.053 80.8508 234.852 74.6833 242.304 72.6274C249.757 70.5715 254.896 76.2252 259.265 81.6218C262.76 85.9391 264.833 85.6479 265.432 84.9626C266.974 84.7056 269.801 79.3089 266.717 72.6274C263.634 65.9458 245.131 54.3816 229.712 58.4933C214.293 62.605 216.606 88.3033 224.83 102.951Z" fill="#E88128"/>
</mask>
<g mask="url(#mask2_82_1155)">
<path d="M221.068 148.697C226.848 136.116 245.436 126.029 254.007 122.558V129.571L216.605 194.174L204.28 186.523C204.11 181.253 207.326 170.302 208.955 165.485C201.134 164.635 200.879 155.355 201.73 150.822C198.967 153.301 192.719 157.495 189.829 154.434C186.939 151.374 187.916 145.226 188.766 142.534C185.196 146.444 177.787 148.272 174.528 148.697L170.278 135.309C185.65 133.325 219.198 128.338 221.068 131.058C222.938 133.779 222.13 143.596 221.068 148.697Z" fill="#A44C00"/>
</g>
<path d="M277.259 120.684C235.849 120.684 212.444 159.448 212.444 187.847L234.049 200.703L277.516 205.688L318.669 200.703L342.075 187.847V186.011C342.075 157.611 318.669 120.684 277.259 120.684Z" fill="#241344"/>
<path d="M277.259 120.684C235.849 120.684 212.444 159.448 212.444 187.847L234.049 200.703L277.516 205.688L318.669 200.703L342.075 187.847V186.011C342.075 157.611 318.669 120.684 277.259 120.684Z" stroke="black"/>
<circle cx="263.891" cy="77.511" r="2.56983" fill="black"/>
<circle cx="263.891" cy="77.511" r="2.56983" stroke="black"/>
<circle cx="2.56983" cy="2.56983" r="2.56983" transform="matrix(-1 0 0 1 294.473 74.9411)" fill="black"/>
<circle cx="2.56983" cy="2.56983" r="2.56983" transform="matrix(-1 0 0 1 294.473 74.9411)" stroke="black"/>
<path d="M193.734 109.782C199.696 107.109 205.984 119.975 208.382 126.742L204.784 127.256C204.356 127.256 201.546 125.869 193.734 120.318C185.922 114.767 190.479 110.981 193.734 109.782Z" fill="#089858"/>
<mask id="mask3_82_1155" style="mask-type:alpha" maskUnits="userSpaceOnUse" x="189" y="109" width="20" height="19">
<path d="M193.807 109.993C199.769 107.321 206.056 120.187 208.455 126.954L204.857 127.468C204.429 127.468 201.619 126.08 193.807 120.53C185.994 114.979 190.552 111.193 193.807 109.993Z" fill="#089858"/>
</mask>
<g mask="url(#mask3_82_1155)">
<path d="M208.25 128.98L191.807 110.794" stroke="#8EB96D" stroke-width="0.314452"/>
<path d="M197.995 117.645L196.737 110.361" stroke="#8EB96D" stroke-width="0.314452"/>
<path d="M201.116 120.963L200.245 112.167" stroke="#8EB96D" stroke-width="0.314452"/>
<path d="M203.599 123.878L203.584 114.462" stroke="#8EB96D" stroke-width="0.314452"/>
<path d="M205.939 126.577L206.207 117.241" stroke="#8EB96D" stroke-width="0.314452"/>
<path d="M205.897 126.251L197.432 127.114" stroke="#8EB96D" stroke-width="0.314452"/>
<path d="M202.811 122.903L194.345 123.766" stroke="#8EB96D" stroke-width="0.314452"/>
<path d="M200.394 120.218L192.845 120.926" stroke="#8EB96D" stroke-width="0.314452"/>
<path d="M196.477 116.047L191.97 116.283" stroke="#8EB96D" stroke-width="0.314452"/>
</g>
<path d="M221.488 119.656C220.974 117.343 220.974 112.049 225.086 109.377C226.456 111.347 227.655 116.161 221.488 119.656Z" fill="#16C898"/>
<path d="M250.492 90.6605C248.708 89.1009 245.574 84.8346 247.306 80.2463C249.576 81.0228 253.393 84.1926 250.492 90.6605Z" fill="#16C898"/>
<path d="M306.673 90.6605C308.457 89.1009 311.591 84.8346 309.86 80.2463C307.589 81.0228 303.772 84.1926 306.673 90.6605Z" fill="#16C898"/>
<path d="M334.305 119.656C334.819 117.343 334.819 112.049 330.708 109.377C329.337 111.347 328.138 116.161 334.305 119.656Z" fill="#16C898"/>
<path d="M191.817 121.234C190.394 122.225 185.511 121.234 184.483 117.599C185.977 116.973 190.382 116.669 191.817 121.234Z" fill="#16C898"/>
<path d="M248.756 94.7826C247.332 95.7735 242.45 94.7826 241.422 91.1478C242.916 90.5218 247.321 90.2172 248.756 94.7826Z" fill="#16C898"/>
<path d="M308.408 94.7826C309.832 95.7735 314.715 94.7826 315.743 91.1478C314.248 90.5218 309.843 90.2172 308.408 94.7826Z" fill="#16C898"/>
<path d="M363.975 121.234C365.399 122.225 370.282 121.234 371.31 117.599C369.815 116.973 365.41 116.669 363.975 121.234Z" fill="#16C898"/>
<path d="M362.058 109.782C356.096 107.109 349.808 119.975 347.41 126.742L351.007 127.256C351.436 127.256 354.245 125.869 362.058 120.318C369.87 114.767 365.313 110.981 362.058 109.782Z" fill="#089858"/>
<mask id="mask4_82_1155" style="mask-type:alpha" maskUnits="userSpaceOnUse" x="174" y="57" width="95" height="132">
<path d="M224.83 102.951C231.408 114.67 225.515 120.854 221.746 122.482C206.944 128.855 184.398 126.508 174.975 124.538C175.386 167.094 200.844 184.929 213.522 188.527C215.15 182.359 219.176 168.122 222.259 160.515C225.343 152.909 242.904 134.56 251.298 126.337C255.616 115.852 248.643 105.692 244.617 101.923C241.447 99.1823 234.903 92.4151 234.081 87.2754C233.053 80.8508 234.852 74.6833 242.304 72.6274C249.757 70.5715 254.896 76.2252 259.265 81.6218C262.76 85.9391 264.833 85.6479 265.432 84.9626C266.974 84.7056 269.801 79.3089 266.717 72.6274C263.634 65.9458 245.131 54.3816 229.712 58.4933C214.293 62.605 216.606 88.3033 224.83 102.951Z" fill="#E88128"/>
</mask>
<g mask="url(#mask4_82_1155)">
<path d="M240.762 98.069L225.086 103.98L226.628 114.002C227.313 115.115 229.095 116.983 230.74 115.544C232.384 114.105 231.425 109.291 230.74 107.063C232.282 109.89 235.622 115.133 236.65 113.488C237.678 111.843 235.365 106.806 234.081 104.494C236.136 106.892 240.505 111.381 241.533 110.147C242.561 108.914 240.077 104.665 238.706 102.695C245.491 109.685 248.215 108.52 248.729 107.063L246.93 102.181L240.762 98.069Z" fill="#C75924"/>
<path d="M233.824 82.9069C231.356 84.5516 223.057 85.3628 219.031 85.6198L217.12 87.7896L219.689 89.0745H234.337L234.851 85.2198L233.824 82.9069Z" fill="#C75924"/>
<path d="M237.678 74.6837L221.745 64.4044C218.045 68.9273 218.148 73.8271 218.662 75.7116C219.484 75.7116 222.088 71.2572 223.287 69.0301C221.745 72.3708 221.745 78.0244 223.287 78.5384C224.521 78.9496 225.857 75.4546 226.371 73.6557C225.343 77.5619 226.799 79.0524 227.656 79.3094C230.226 80.0803 231.471 73.993 231.511 73.6557C230.894 78.3842 233.138 80.423 234.338 80.8513L237.678 74.6837Z" fill="#C75924"/>
<path d="M221.487 122.226C212.236 124.898 186.623 124.881 174.973 124.539C173.517 129.85 170.606 139.701 175.487 142.013C183.712 145.611 190.135 139.101 191.934 136.103C190.392 140.814 188.234 150.545 191.934 151.779C197.896 153.218 203.156 146.211 205.04 142.527C202.214 149.723 203.241 158.46 206.325 157.689C219.688 152.344 222.001 131.82 221.487 122.226Z" fill="#C75924"/>
</g>
<mask id="mask5_82_1155" style="mask-type:alpha" maskUnits="userSpaceOnUse" x="347" y="109" width="20" height="19">
<path d="M361.822 109.782C355.86 107.109 349.573 119.975 347.174 126.742L350.772 127.256C351.2 127.256 354.01 125.869 361.822 120.318C369.634 114.767 365.077 110.981 361.822 109.782Z" fill="#089858"/>
</mask>
<g mask="url(#mask5_82_1155)">
<path d="M347.378 128.768L363.821 110.583" stroke="#8EB96D" stroke-width="0.314452"/>
<path d="M357.634 117.433L358.892 110.15" stroke="#8EB96D" stroke-width="0.314452"/>
<path d="M354.514 120.751L355.384 111.955" stroke="#8EB96D" stroke-width="0.314452"/>
<path d="M352.03 123.667L352.045 114.25" stroke="#8EB96D" stroke-width="0.314452"/>
<path d="M349.69 126.364L349.422 117.029" stroke="#8EB96D" stroke-width="0.314452"/>
<path d="M349.732 126.04L358.197 126.903" stroke="#8EB96D" stroke-width="0.314452"/>
<path d="M352.819 122.691L361.284 123.554" stroke="#8EB96D" stroke-width="0.314452"/>
<path d="M355.234 120.006L362.784 120.714" stroke="#8EB96D" stroke-width="0.314452"/>
<path d="M359.152 115.835L363.66 116.072" stroke="#8EB96D" stroke-width="0.314452"/>
</g>
<path d="M201.187 102.952C201.187 103.946 200.611 104.751 199.902 104.751C199.192 104.751 198.617 103.946 198.617 102.952C198.617 101.959 199.192 101.153 199.902 101.153C200.611 101.153 201.187 101.959 201.187 102.952Z" fill="#09AFB6"/>
<path d="M201.187 102.952C201.187 103.946 200.611 104.751 199.902 104.751C199.192 104.751 198.617 103.946 198.617 102.952C198.617 101.959 199.192 101.153 199.902 101.153C200.611 101.153 201.187 101.959 201.187 102.952Z" stroke="black"/>
<path d="M354.605 102.952C354.605 103.946 355.181 104.751 355.89 104.751C356.6 104.751 357.175 103.946 357.175 102.952C357.175 101.959 356.6 101.153 355.89 101.153C355.181 101.153 354.605 101.959 354.605 102.952Z" fill="#09AFB6"/>
<path d="M354.605 102.952C354.605 103.946 355.181 104.751 355.89 104.751C356.6 104.751 357.175 103.946 357.175 102.952C357.175 101.959 356.6 101.153 355.89 101.153C355.181 101.153 354.605 101.959 354.605 102.952Z" stroke="black"/>
<circle cx="207.354" cy="96.5271" r="1.5419" fill="#09AFB6"/>
<circle cx="207.354" cy="96.5271" r="1.5419" stroke="black"/>
<circle cx="1.5419" cy="1.5419" r="1.5419" transform="matrix(-1 0 0 1 351.871 94.9322)" fill="#09AFB6"/>
<circle cx="1.5419" cy="1.5419" r="1.5419" transform="matrix(-1 0 0 1 351.871 94.9322)" stroke="black"/>
<path d="M200.93 133.532C197.418 136.702 191.062 143.914 193.735 147.409C196.407 150.904 199.645 139.614 200.93 133.532Z" fill="#F35F47"/>
<mask id="mask6_82_1155" style="mask-type:alpha" maskUnits="userSpaceOnUse" x="287" y="57" width="94" height="132">
<path d="M330.963 102.951C324.384 114.67 330.278 120.855 334.047 122.482C348.849 128.855 371.395 126.508 380.818 124.538C380.407 167.094 354.948 184.929 342.27 188.527C340.643 182.359 336.617 168.122 333.533 160.516C330.449 152.909 312.889 134.56 304.494 126.337C300.177 115.852 307.15 105.693 311.176 101.923C314.345 99.1823 320.89 92.4151 321.712 87.2755C322.74 80.8509 320.941 74.6833 313.488 72.6274C306.036 70.5715 300.896 76.2252 296.528 81.6219C293.033 85.9392 290.96 85.6479 290.36 84.9626C288.818 84.7057 285.991 79.309 289.075 72.6274C292.159 65.9459 310.661 54.3817 326.08 58.4934C341.499 62.6051 339.186 88.3034 330.963 102.951Z" fill="#E88128"/>
</mask>
<g mask="url(#mask6_82_1155)">
<path d="M334.305 122.226C343.557 124.898 369.169 124.881 380.819 124.539C382.275 129.85 385.187 139.701 380.305 142.013C372.081 145.611 365.657 139.101 363.858 136.103C365.4 140.814 367.559 150.545 363.858 151.779C357.896 153.218 352.637 146.211 350.752 142.527C353.579 149.723 352.551 158.46 349.467 157.689C336.104 152.344 333.791 131.82 334.305 122.226Z" fill="#C75924"/>
<path d="M321.969 82.9068C324.437 84.5515 333.105 85.4766 337.131 85.7336L338.673 87.7895L336.104 89.0744H321.456L320.942 85.2197L321.969 82.9068Z" fill="#C75924"/>
<path d="M318.114 74.6836L334.047 64.4043C337.748 68.9272 337.645 73.827 337.131 75.7115C336.309 75.7115 333.704 71.2571 332.505 69.0299C334.047 72.3707 334.047 78.0243 332.505 78.5383C331.272 78.9495 329.935 75.4545 329.421 73.6556C330.449 77.5618 328.993 79.0523 328.136 79.3092C325.567 80.0802 324.321 73.9929 324.282 73.6556C324.899 78.3841 322.654 80.4228 321.455 80.8511L318.114 74.6836Z" fill="#C75924"/>
<path d="M315.03 98.0689L330.706 103.979L329.164 114.002C328.479 115.115 326.697 116.983 325.053 115.544C323.408 114.105 324.367 109.29 325.053 107.063C323.511 109.89 320.17 115.133 319.142 113.488C318.114 111.843 320.427 106.806 321.712 104.493C319.656 106.892 315.287 111.381 314.259 110.147C313.231 108.914 315.716 104.665 317.086 102.695C310.302 109.684 307.578 108.519 307.064 107.063L308.863 102.181L315.03 98.0689Z" fill="#C75924"/>
</g>
<path d="M354.862 133.532C358.374 136.702 364.73 143.914 362.057 147.409C359.385 150.904 356.147 139.614 354.862 133.532Z" fill="#F35F47"/>
<path d="M213.04 135.436C210.282 139.28 203.95 149.691 208.125 150.751C212.389 151.833 213.077 141.652 213.04 135.436Z" fill="#F35F47"/>
<path d="M342.753 135.436C345.511 139.28 351.843 149.691 347.669 150.751C343.404 151.833 342.716 141.652 342.753 135.436Z" fill="#F35F47"/>
<path d="M188.415 127.864C185.007 130.7 176.941 138.478 181.042 139.68C185.233 140.908 187.499 132.833 188.415 127.864Z" fill="#F35F47"/>
<path d="M367.379 127.864C370.787 130.7 378.854 138.478 374.752 139.68C370.562 140.908 368.296 132.833 367.379 127.864Z" fill="#F35F47"/>
<path d="M194.393 133.031C194.044 133.808 193.236 134.203 192.589 133.912C191.942 133.621 191.699 132.756 192.048 131.979C192.397 131.202 193.204 130.808 193.852 131.099C194.499 131.389 194.741 132.255 194.393 133.031Z" fill="#F5E994"/>
<path d="M194.393 133.031C194.044 133.808 193.236 134.203 192.589 133.912C191.942 133.621 191.699 132.756 192.048 131.979C192.397 131.202 193.204 130.808 193.852 131.099C194.499 131.389 194.741 132.255 194.393 133.031Z" stroke="black"/>
<path d="M361.401 133.031C361.749 133.808 362.557 134.203 363.204 133.912C363.852 133.621 364.094 132.756 363.745 131.979C363.396 131.202 362.589 130.808 361.942 131.099C361.294 131.389 361.052 132.255 361.401 133.031Z" fill="#F5E994"/>
<path d="M361.401 133.031C361.749 133.808 362.557 134.203 363.204 133.912C363.852 133.621 364.094 132.756 363.745 131.979C363.396 131.202 362.589 130.808 361.942 131.099C361.294 131.389 361.052 132.255 361.401 133.031Z" stroke="black"/>
<path d="M207.304 138.517C207.067 139.335 206.322 139.837 205.64 139.639C204.959 139.442 204.599 138.618 204.836 137.8C205.073 136.983 205.818 136.48 206.5 136.678C207.181 136.876 207.541 137.699 207.304 138.517Z" fill="#F5E994"/>
<path d="M207.304 138.517C207.067 139.335 206.322 139.837 205.64 139.639C204.959 139.442 204.599 138.618 204.836 137.8C205.073 136.983 205.818 136.48 206.5 136.678C207.181 136.876 207.541 137.699 207.304 138.517Z" stroke="black"/>
<path d="M348.489 138.517C348.727 139.335 349.472 139.837 350.153 139.639C350.835 139.442 351.195 138.618 350.957 137.8C350.72 136.983 349.975 136.48 349.294 136.678C348.612 136.876 348.252 137.699 348.489 138.517Z" fill="#F5E994"/>
<path d="M348.489 138.517C348.727 139.335 349.472 139.837 350.153 139.639C350.835 139.442 351.195 138.618 350.957 137.8C350.72 136.983 349.975 136.48 349.294 136.678C348.612 136.876 348.252 137.699 348.489 138.517Z" stroke="black"/>
<path d="M210.695 101.924C201.238 101.307 208.639 114.859 213.522 121.711C219.072 118.422 223.03 107.834 222.773 105.521C222.516 103.209 221.334 102.232 218.662 101.41C215.989 100.587 213.95 105.693 213.265 108.348C213.882 103.414 211.809 102.009 210.695 101.924Z" fill="#089C58"/>
<path d="M345.098 101.924C354.554 101.307 347.153 114.859 342.271 121.711C336.72 118.422 332.762 107.834 333.019 105.521C333.276 103.209 334.458 102.232 337.131 101.41C339.804 100.587 341.842 105.693 342.528 108.348C341.911 103.414 343.984 102.009 345.098 101.924Z" fill="#089C58"/>
<mask id="mask7_82_1155" style="mask-type:alpha" maskUnits="userSpaceOnUse" x="333" y="101" width="17" height="21">
<path d="M345.098 101.923C354.555 101.307 347.154 114.858 342.271 121.711C336.72 118.422 332.762 107.834 333.019 105.521C333.276 103.208 334.459 102.232 337.131 101.409C339.804 100.587 341.843 105.692 342.528 108.348C341.911 103.414 343.984 102.009 345.098 101.923Z" fill="#089C58"/>
</mask>
<g mask="url(#mask7_82_1155)">
<path d="M341.147 94.3325L341.98 130.778" stroke="#8EB96D" stroke-width="0.467568"/>
<path d="M341.673 117.055L336.011 126.475" stroke="#8EB96D" stroke-width="0.467568"/>
<path d="M341.386 110.288L333.817 121.033" stroke="#8EB96D" stroke-width="0.467568"/>
<path d="M341.424 104.594L332.29 115.205" stroke="#8EB96D" stroke-width="0.467568"/>
<path d="M341.412 99.2833L332.038 109.529" stroke="#8EB96D" stroke-width="0.467568"/>
<path d="M341.144 99.6897L351.51 106.945" stroke="#8EB96D" stroke-width="0.467568"/>
<path d="M341.363 106.457L351.728 113.713" stroke="#8EB96D" stroke-width="0.467568"/>
<path d="M341.473 111.827L350.658 118.367" stroke="#8EB96D" stroke-width="0.467568"/>
<path d="M341.829 120.328L347.132 124.443" stroke="#8EB96D" stroke-width="0.467568"/>
</g>
<mask id="mask8_82_1155" style="mask-type:alpha" maskUnits="userSpaceOnUse" x="206" y="101" width="17" height="21">
<path d="M210.633 101.923C201.176 101.307 208.577 114.858 213.46 121.711C219.011 118.422 222.968 107.834 222.712 105.521C222.455 103.208 221.272 102.232 218.6 101.409C215.927 100.587 213.888 105.692 213.203 108.348C213.82 103.414 211.747 102.009 210.633 101.923Z" fill="#089C58"/>
</mask>
<g mask="url(#mask8_82_1155)">
<path d="M214.584 94.3323L213.751 130.778" stroke="#8EB96D" stroke-width="0.467568"/>
<path d="M214.059 117.055L219.72 126.474" stroke="#8EB96D" stroke-width="0.467568"/>
<path d="M214.346 110.288L221.915 121.033" stroke="#8EB96D" stroke-width="0.467568"/>
<path d="M214.308 104.593L223.442 115.205" stroke="#8EB96D" stroke-width="0.467568"/>
<path d="M214.319 99.2833L223.694 109.529" stroke="#8EB96D" stroke-width="0.467568"/>
<path d="M214.588 99.6897L204.222 106.945" stroke="#8EB96D" stroke-width="0.467568"/>
<path d="M214.368 106.458L204.003 113.713" stroke="#8EB96D" stroke-width="0.467568"/>
<path d="M214.259 111.827L205.074 118.366" stroke="#8EB96D" stroke-width="0.467568"/>
<path d="M213.902 120.328L208.6 124.443" stroke="#8EB96D" stroke-width="0.467568"/>
</g>
<path d="M383.169 59.3241C383.337 60.5137 382.659 61.9299 382.659 62.893L389.287 73.7694L392.685 71.7301L395.914 69.5208C395.914 69.5208 393.704 68.671 393.195 68.3312C392.687 67.9913 392.685 67.1415 393.195 66.8017C393.705 66.4618 398.293 63.0628 398.803 62.3831C399.314 61.7034 401.012 53.0362 399.993 52.5264C398.975 52.0165 395.914 58.4744 395.914 58.4744C395.914 58.4744 397.783 50.657 396.424 50.3171C395.066 49.9772 392.176 56.775 392.176 56.775C392.176 56.775 392.176 50.3171 390.306 50.657C389.118 50.9969 388.777 57.4547 388.777 57.4547C388.777 57.4547 387.588 50.657 386.058 50.9969C384.527 51.3367 385.038 57.4547 385.038 57.4547C385.038 57.4547 383.678 52.3564 382.489 53.0362C381.299 53.716 383.169 59.3241 383.169 59.3241Z" fill="#C36428"/>
<path d="M401.86 78.5279C401.724 77.5763 399.424 75.4123 398.291 74.4493L399.481 72.7498C402.2 73.8375 402.2 77.0551 401.86 78.5279Z" fill="black"/>
<path d="M399.821 75.2997C398.122 74.7898 394.383 74.45 393.024 77.1691C391.834 78.9818 388.027 82.5053 382.317 82.0974C382.317 82.0974 375.859 81.5876 374.16 83.457C372.46 84.8165 370.591 89.0652 370.591 89.0652C370.591 89.0652 368.382 94.6733 366.682 94.5034C364.983 94.3334 367.362 89.575 367.362 89.575C366.852 90.0282 365.697 91.1385 365.153 91.9542C364.579 92.8147 363.158 94.4012 362.014 93.9566C361.58 93.7881 361.572 93.2227 361.811 92.8234C362.616 91.4799 364.382 88.4891 364.643 87.7056C364.983 86.6859 369.911 79.8882 371.271 78.8685C373.31 76.9991 373.82 75.2997 373.82 74.7898C373.82 74.28 373.31 73.9401 372.8 74.28C372.29 74.6199 369.911 77.1691 367.532 76.9991C365.153 76.8291 366.342 74.6199 366.682 74.28C366.972 73.99 368.747 72.5866 369.262 72.1808C368.402 72.6201 363.834 73.8106 362.604 72.5806C361.244 71.221 367.362 67.8221 367.362 67.8221C367.362 67.8221 359.884 69.3516 358.865 67.8221C357.845 66.2926 363.963 64.4232 363.963 64.4232C363.963 64.4232 358.355 64.4232 358.355 62.8937C358.355 61.3642 364.983 61.0243 364.983 61.0243C364.983 61.0243 351.217 58.1353 354.956 55.2462C356.995 54.7364 366.682 56.7757 366.682 56.7757C371.011 57.8301 380.069 60.2111 382.353 61.4579C382.445 61.5081 382.537 61.5479 382.639 61.5735C383.546 61.8017 385.285 62.1306 386.055 61.8739C386.339 61.8172 386.905 61.9759 386.905 63.0635C386.905 64.4231 388.604 73.4301 391.154 71.9006C392.777 70.9264 394.078 69.9594 394.798 69.377C395.083 69.1466 395.436 69.003 395.798 69.0544C397.171 69.2491 399.335 70.1556 400.161 72.7503C400.388 73.4302 400.637 74.892 399.821 75.2997Z" fill="#DE8D21"/>
<ellipse cx="397.443" cy="72.5795" rx="1.01967" ry="0.849721" fill="black"/>
<mask id="mask9_82_1155" style="mask-type:alpha" maskUnits="userSpaceOnUse" x="354" y="55" width="47" height="40">
<path d="M399.821 75.1987C398.122 74.6888 394.383 74.3489 393.024 77.068C391.834 78.8808 388.027 82.4043 382.317 81.9964C382.317 81.9964 375.859 81.4866 374.16 83.356C372.46 84.7155 370.591 88.9641 370.591 88.9641C370.591 88.9641 368.382 94.5723 366.682 94.4024C364.983 94.2324 367.362 89.474 367.362 89.474C366.852 89.9272 365.697 91.0375 365.153 91.8532C364.579 92.7136 363.158 94.3002 362.014 93.8556C361.58 93.6871 361.572 93.1217 361.811 92.7224C362.616 91.3789 364.382 88.3881 364.643 87.6046C364.983 86.5849 369.911 79.7871 371.271 78.7675C373.31 76.8981 373.82 75.1986 373.82 74.6888C373.82 74.179 373.31 73.8391 372.8 74.179C372.29 74.5189 369.911 77.068 367.532 76.8981C365.153 76.7281 366.342 74.5189 366.682 74.179C366.972 73.889 368.747 72.4856 369.262 72.0798C368.402 72.5191 363.834 73.7096 362.604 72.4795C361.244 71.12 367.362 67.7211 367.362 67.7211C367.362 67.7211 359.884 69.2506 358.865 67.7211C357.845 66.1916 363.963 64.3222 363.963 64.3222C363.963 64.3222 358.355 64.3222 358.355 62.7927C358.355 61.2632 364.983 60.9233 364.983 60.9233C364.983 60.9233 351.217 58.0343 354.956 55.1452C356.995 54.6354 366.682 56.6747 366.682 56.6747C371.011 57.7291 380.069 60.11 382.353 61.3569C382.445 61.4071 382.537 61.4469 382.639 61.4725C383.546 61.7007 385.285 62.0295 386.055 61.7729C386.339 61.7162 386.905 61.8748 386.905 62.9625C386.905 64.322 388.604 73.3291 391.154 71.7996C392.777 70.8254 394.078 69.8584 394.798 69.276C395.083 69.0456 395.436 68.902 395.798 68.9534C397.171 69.1481 399.335 70.0546 400.161 72.6493C400.388 73.3292 400.637 74.7909 399.821 75.1987Z" fill="#DE8D21"/>
</mask>
<g mask="url(#mask9_82_1155)">
<path d="M376.538 80.7363C374.499 81.688 373.989 83.7386 373.989 84.645L382.826 85.6647L393.872 78.3571C393.136 77.7339 391.708 77.6123 389.624 78.3571C384.865 80.0574 379.087 79.5467 376.538 80.7363Z" fill="#C36428"/>
</g>
<path d="M365.494 59.2164C363.495 59.2476 358.45 58.957 359.5 57.3405C360.573 55.6893 363.721 57.7858 365.494 59.2164Z" fill="#D81828"/>
<path d="M366.386 63.0152C364.506 62.3344 360.182 60.9093 360.108 62.8354C360.04 64.585 364.243 63.7899 366.386 63.0152Z" fill="#D81828"/>
<path d="M366.635 66.2972C364.649 66.0684 360.113 65.6796 360.485 67.5709C360.823 69.2888 364.729 67.5454 366.635 66.2972Z" fill="#D81828"/>
<path d="M369.896 69.2046C367.914 69.4645 363.419 70.1879 364.239 71.9324C364.983 73.517 368.35 70.878 369.896 69.2046Z" fill="#D81828"/>
<path d="M373.145 71.3288C371.283 72.057 367.093 73.8384 368.308 75.3351C369.411 76.6945 372.046 73.3246 373.145 71.3288Z" fill="#D81828"/>
<path d="M367.023 61.6665C367.472 61.7487 367.892 61.5119 367.96 61.1375C368.029 60.7631 367.72 60.3928 367.271 60.3105C366.822 60.2283 366.402 60.4651 366.333 60.8395C366.265 61.2139 366.573 61.5842 367.023 61.6665Z" fill="#F5E994"/>
<path d="M367.023 61.6665C367.472 61.7487 367.892 61.5119 367.96 61.1375C368.029 60.7631 367.72 60.3928 367.271 60.3105C366.822 60.2283 366.402 60.4651 366.333 60.8395C366.265 61.2139 366.573 61.5842 367.023 61.6665Z" stroke="black"/>
<path d="M367.94 65.0672C368.391 64.992 368.705 64.6267 368.642 64.2512C368.58 63.8758 368.164 63.6323 367.713 63.7075C367.263 63.7827 366.948 64.148 367.011 64.5234C367.074 64.8989 367.49 65.1423 367.94 65.0672Z" fill="#F5E994"/>
<path d="M367.94 65.0672C368.391 64.992 368.705 64.6267 368.642 64.2512C368.58 63.8758 368.164 63.6323 367.713 63.7075C367.263 63.7827 366.948 64.148 367.011 64.5234C367.074 64.8989 367.49 65.1423 367.94 65.0672Z" stroke="black"/>
<path d="M369.528 67.8666C369.952 67.6969 370.181 67.2729 370.04 66.9195C369.898 66.5661 369.44 66.4171 369.016 66.5867C368.592 66.7564 368.363 67.1804 368.504 67.5338C368.645 67.8873 369.104 68.0362 369.528 67.8666Z" fill="#F5E994"/>
<path d="M369.528 67.8666C369.952 67.6969 370.181 67.2729 370.04 66.9195C369.898 66.5661 369.44 66.4171 369.016 66.5867C368.592 66.7564 368.363 67.1804 368.504 67.5338C368.645 67.8873 369.104 68.0362 369.528 67.8666Z" stroke="black"/>
<path d="M372.425 70.4819C372.78 70.1948 372.874 69.722 372.635 69.426C372.395 69.1299 371.914 69.1227 371.558 69.4098C371.203 69.697 371.109 70.1697 371.348 70.4658C371.588 70.7618 372.07 70.769 372.425 70.4819Z" fill="#F5E994"/>
<path d="M372.425 70.4819C372.78 70.1948 372.874 69.722 372.635 69.426C372.395 69.1299 371.914 69.1227 371.558 69.4098C371.203 69.697 371.109 70.1697 371.348 70.4658C371.588 70.7618 372.07 70.769 372.425 70.4819Z" stroke="black"/>
<path d="M172.974 59.3241C172.806 60.5137 173.484 61.9299 173.484 62.893L166.856 73.7694L163.458 71.7301L160.229 69.5208C160.229 69.5208 162.439 68.671 162.948 68.3312C163.456 67.9913 163.458 67.1415 162.948 66.8017C162.438 66.4618 157.85 63.0628 157.34 62.3831C156.829 61.7034 155.131 53.0362 156.15 52.5264C157.169 52.0165 160.229 58.4744 160.229 58.4744C160.229 58.4744 158.36 50.657 159.719 50.3171C161.077 49.9772 163.967 56.775 163.967 56.775C163.967 56.775 163.967 50.3171 165.837 50.657C167.025 50.9969 167.366 57.4547 167.366 57.4547C167.366 57.4547 168.555 50.657 170.085 50.9969C171.616 51.3367 171.105 57.4547 171.105 57.4547C171.105 57.4547 172.465 52.3564 173.654 53.0362C174.844 53.716 172.974 59.3241 172.974 59.3241Z" fill="#C36428"/>
<path d="M154.282 78.5276C154.418 77.576 156.718 75.412 157.851 74.449L156.661 72.7495C153.942 73.8372 153.942 77.0548 154.282 78.5276Z" fill="black"/>
<path d="M156.321 75.2997C158.021 74.7898 161.76 74.45 163.119 77.1691C164.309 78.9818 168.115 82.5053 173.826 82.0974C173.826 82.0974 180.283 81.5876 181.983 83.457C183.682 84.8165 185.552 89.0652 185.552 89.0652C185.552 89.0652 187.761 94.6733 189.46 94.5034C191.16 94.3334 188.781 89.575 188.781 89.575C189.29 90.0282 190.446 91.1385 190.99 91.9542C191.563 92.8147 192.984 94.4012 194.129 93.9566C194.563 93.7881 194.57 93.2227 194.331 92.8234C193.527 91.4799 191.761 88.4891 191.5 87.7056C191.16 86.6859 186.231 79.8882 184.872 78.8685C182.833 76.9991 182.323 75.2997 182.323 74.7898C182.323 74.28 182.833 73.9401 183.342 74.28C183.852 74.6199 186.231 77.1691 188.611 76.9991C190.99 76.8291 189.8 74.6199 189.46 74.28C189.17 73.99 187.396 72.5866 186.881 72.1808C187.74 72.6201 192.309 73.8106 193.539 72.5806C194.899 71.221 188.781 67.8221 188.781 67.8221C188.781 67.8221 196.258 69.3516 197.278 67.8221C198.297 66.2926 192.179 64.4232 192.179 64.4232C192.179 64.4232 197.788 64.4232 197.788 62.8937C197.788 61.3642 191.16 61.0243 191.16 61.0243C191.16 61.0243 204.925 58.1353 201.187 55.2462C199.148 54.7364 189.46 56.7757 189.46 56.7757C185.132 57.8301 176.073 60.2111 173.789 61.4579C173.697 61.5081 173.605 61.5479 173.504 61.5735C172.596 61.8017 170.857 62.1306 170.087 61.8739C169.804 61.8172 169.238 61.9759 169.238 63.0635C169.238 64.4231 167.538 73.4301 164.989 71.9006C163.365 70.9264 162.065 69.9594 161.345 69.377C161.06 69.1466 160.707 69.003 160.344 69.0544C158.972 69.2491 156.807 70.1556 155.982 72.7503C155.755 73.4302 155.505 74.892 156.321 75.2997Z" fill="#DE8D21"/>
<ellipse cx="1.01967" cy="0.849721" rx="1.01967" ry="0.849721" transform="matrix(-1 0 0 1 159.72 71.7298)" fill="black"/>
<mask id="mask10_82_1155" style="mask-type:alpha" maskUnits="userSpaceOnUse" x="155" y="55" width="47" height="40">
<path d="M156.321 75.1987C158.021 74.6888 161.76 74.3489 163.119 77.068C164.309 78.8808 168.115 82.4043 173.826 81.9964C173.826 81.9964 180.283 81.4866 181.983 83.356C183.682 84.7155 185.552 88.9641 185.552 88.9641C185.552 88.9641 187.761 94.5723 189.46 94.4024C191.16 94.2324 188.781 89.474 188.781 89.474C189.29 89.9272 190.446 91.0375 190.99 91.8532C191.563 92.7136 192.984 94.3002 194.129 93.8556C194.563 93.6871 194.57 93.1217 194.331 92.7224C193.527 91.3789 191.761 88.3881 191.5 87.6046C191.16 86.5849 186.231 79.7871 184.872 78.7675C182.833 76.8981 182.323 75.1986 182.323 74.6888C182.323 74.179 182.833 73.8391 183.342 74.179C183.852 74.5189 186.231 77.068 188.611 76.8981C190.99 76.7281 189.8 74.5189 189.46 74.179C189.17 73.889 187.396 72.4856 186.881 72.0798C187.74 72.5191 192.309 73.7096 193.539 72.4795C194.899 71.12 188.781 67.7211 188.781 67.7211C188.781 67.7211 196.258 69.2506 197.278 67.7211C198.297 66.1916 192.179 64.3222 192.179 64.3222C192.179 64.3222 197.788 64.3222 197.788 62.7927C197.788 61.2632 191.16 60.9233 191.16 60.9233C191.16 60.9233 204.925 58.0343 201.187 55.1452C199.148 54.6354 189.46 56.6747 189.46 56.6747C185.132 57.7291 176.073 60.11 173.789 61.3569C173.697 61.4071 173.605 61.4469 173.504 61.4725C172.596 61.7007 170.857 62.0295 170.087 61.7729C169.804 61.7162 169.238 61.8748 169.238 62.9625C169.238 64.322 167.538 73.3291 164.989 71.7996C163.365 70.8254 162.065 69.8584 161.345 69.276C161.06 69.0456 160.707 68.902 160.344 68.9534C158.972 69.1481 156.807 70.0546 155.982 72.6493C155.755 73.3292 155.505 74.7909 156.321 75.1987Z" fill="#DE8D21"/>
</mask>
<g mask="url(#mask10_82_1155)">
<path d="M179.605 80.7363C181.645 81.688 182.155 83.7386 182.155 84.645L173.317 85.6647L162.271 78.3571C163.007 77.7339 164.436 77.6123 166.52 78.3571C171.278 80.0574 177.056 79.5467 179.605 80.7363Z" fill="#C36428"/>
</g>
<path d="M190.649 59.2164C192.648 59.2476 197.693 58.957 196.643 57.3405C195.57 55.6893 192.422 57.7858 190.649 59.2164Z" fill="#D81828"/>
<path d="M189.757 63.0152C191.637 62.3344 195.961 60.9093 196.035 62.8354C196.103 64.585 191.9 63.7899 189.757 63.0152Z" fill="#D81828"/>
<path d="M189.508 66.2972C191.494 66.0684 196.03 65.6796 195.658 67.5709C195.32 69.2888 191.414 67.5454 189.508 66.2972Z" fill="#D81828"/>
<path d="M186.247 69.2046C188.229 69.4645 192.724 70.1879 191.904 71.9324C191.16 73.517 187.793 70.878 186.247 69.2046Z" fill="#D81828"/>
<path d="M182.998 71.3288C184.86 72.057 189.05 73.8384 187.835 75.3351C186.732 76.6945 184.097 73.3246 182.998 71.3288Z" fill="#D81828"/>
<path d="M189.121 61.6665C188.671 61.7487 188.251 61.5119 188.183 61.1375C188.114 60.7631 188.423 60.3928 188.872 60.3105C189.322 60.2283 189.741 60.4651 189.81 60.8395C189.879 61.2139 189.57 61.5842 189.121 61.6665Z" fill="#F5E994"/>
<path d="M189.121 61.6665C188.671 61.7487 188.251 61.5119 188.183 61.1375C188.114 60.7631 188.423 60.3928 188.872 60.3105C189.322 60.2283 189.741 60.4651 189.81 60.8395C189.879 61.2139 189.57 61.5842 189.121 61.6665Z" stroke="black"/>
<path d="M188.202 65.0672C187.752 64.992 187.437 64.6267 187.5 64.2512C187.563 63.8758 187.979 63.6323 188.429 63.7075C188.88 63.7827 189.194 64.148 189.132 64.5234C189.069 64.8989 188.653 65.1423 188.202 65.0672Z" fill="#F5E994"/>
<path d="M188.202 65.0672C187.752 64.992 187.437 64.6267 187.5 64.2512C187.563 63.8758 187.979 63.6323 188.429 63.7075C188.88 63.7827 189.194 64.148 189.132 64.5234C189.069 64.8989 188.653 65.1423 188.202 65.0672Z" stroke="black"/>
<path d="M186.615 67.8666C186.191 67.6969 185.962 67.2729 186.103 66.9195C186.244 66.5661 186.703 66.4171 187.127 66.5867C187.551 66.7564 187.78 67.1804 187.639 67.5338C187.497 67.8873 187.039 68.0362 186.615 67.8666Z" fill="#F5E994"/>
<path d="M186.615 67.8666C186.191 67.6969 185.962 67.2729 186.103 66.9195C186.244 66.5661 186.703 66.4171 187.127 66.5867C187.551 66.7564 187.78 67.1804 187.639 67.5338C187.497 67.8873 187.039 68.0362 186.615 67.8666Z" stroke="black"/>
<path d="M183.719 70.4817C183.364 70.1946 183.27 69.7218 183.509 69.4258C183.748 69.1297 184.23 69.1225 184.586 69.4097C184.941 69.6968 185.035 70.1695 184.796 70.4656C184.556 70.7616 184.074 70.7688 183.719 70.4817Z" fill="#F5E994"/>
<path d="M183.719 70.4817C183.364 70.1946 183.27 69.7218 183.509 69.4258C183.748 69.1297 184.23 69.1225 184.586 69.4097C184.941 69.6968 185.035 70.1695 184.796 70.4656C184.556 70.7616 184.074 70.7688 183.719 70.4817Z" stroke="black"/>
<path d="M385.477 127.051C388.735 121.597 396.825 111.028 403.115 112.388C406.515 114.726 401.968 126.201 385.477 127.051Z" fill="#084850"/>
<mask id="mask11_82_1155" style="mask-type:alpha" maskUnits="userSpaceOnUse" x="385" y="112" width="20" height="16">
<path d="M385.477 127.052C388.735 121.597 396.825 111.029 403.115 112.389C406.515 114.726 401.968 126.202 385.477 127.052Z" fill="#084850"/>
</mask>
<g mask="url(#mask11_82_1155)">
<path d="M385.049 128.529L407.876 109.996" stroke="#8EB96D" stroke-width="0.32337"/>
<path d="M399.285 116.978L402.114 108.577" stroke="#8EB96D" stroke-width="0.32337"/>
<path d="M394.977 120.337L397.624 110.072" stroke="#8EB96D" stroke-width="0.32337"/>
<path d="M391.498 123.336L393.245 112.179" stroke="#8EB96D" stroke-width="0.32337"/>
<path d="M388.23 126.105L389.626 114.991" stroke="#8EB96D" stroke-width="0.32337"/>
<path d="M388.339 125.727L398.213 128.304" stroke="#8EB96D" stroke-width="0.32337"/>
<path d="M392.612 122.325L402.486 124.902" stroke="#8EB96D" stroke-width="0.32337"/>
<path d="M395.97 119.587L404.787 121.812" stroke="#8EB96D" stroke-width="0.32337"/>
<path d="M401.378 115.364L406.677 116.471" stroke="#8EB96D" stroke-width="0.32337"/>
</g>
<path d="M169.983 127.051C166.724 121.597 158.635 111.028 152.344 112.388C148.944 114.726 153.492 126.201 169.983 127.051Z" fill="#084850"/>
<mask id="mask12_82_1155" style="mask-type:alpha" maskUnits="userSpaceOnUse" x="151" y="112" width="19" height="16">
<path d="M169.982 127.051C166.724 121.597 158.634 111.028 152.344 112.388C148.944 114.725 153.491 126.201 169.982 127.051Z" fill="#084850"/>
</mask>
<g mask="url(#mask12_82_1155)">
<path d="M170.41 128.528L147.584 109.995" stroke="#8EB96D" stroke-width="0.32337"/>
<path d="M156.174 116.977L153.345 108.577" stroke="#8EB96D" stroke-width="0.32337"/>
<path d="M160.482 120.336L157.835 110.072" stroke="#8EB96D" stroke-width="0.32337"/>
<path d="M163.961 123.335L162.214 112.179" stroke="#8EB96D" stroke-width="0.32337"/>
<path d="M167.229 126.104L165.833 114.99" stroke="#8EB96D" stroke-width="0.32337"/>
<path d="M167.12 125.726L157.246 128.303" stroke="#8EB96D" stroke-width="0.32337"/>
<path d="M162.847 122.325L152.973 124.902" stroke="#8EB96D" stroke-width="0.32337"/>
<path d="M159.489 119.586L150.672 121.812" stroke="#8EB96D" stroke-width="0.32337"/>
<path d="M154.081 115.363L148.782 116.47" stroke="#8EB96D" stroke-width="0.32337"/>
</g>
<path d="M382.802 99.9205C377.846 104.026 379.612 118.245 381.887 124.178C384.029 121.143 383.737 119.046 385.352 115.009C390.028 103.321 386.84 99.9205 382.802 99.9205Z" fill="#084850"/>
<mask id="mask13_82_1155" style="mask-type:alpha" maskUnits="userSpaceOnUse" x="379" y="99" width="9" height="26">
<path d="M382.803 99.9205C377.847 104.026 379.613 118.245 381.888 124.178C384.03 121.143 383.738 119.046 385.353 115.009C390.029 103.321 386.841 99.9205 382.803 99.9205Z" fill="#084850"/>
</mask>
<g mask="url(#mask13_82_1155)">
<path d="M381.509 125.14L384.717 95.9128" stroke="#8EB96D" stroke-width="0.32337"/>
<path d="M383.515 106.918L379.621 98.9543" stroke="#8EB96D" stroke-width="0.32337"/>
<path d="M382.812 112.335L377.479 103.174" stroke="#8EB96D" stroke-width="0.32337"/>
<path d="M382.446 116.914L375.846 107.751" stroke="#8EB96D" stroke-width="0.32337"/>
<path d="M382.068 121.18L375.248 112.294" stroke="#8EB96D" stroke-width="0.32337"/>
<path d="M381.88 120.834L390.714 115.726" stroke="#8EB96D" stroke-width="0.32337"/>
<path d="M382.528 115.412L391.362 110.304" stroke="#8EB96D" stroke-width="0.32337"/>
<path d="M382.991 111.104L390.827 106.488" stroke="#8EB96D" stroke-width="0.32337"/>
<path d="M383.869 104.298L388.416 101.361" stroke="#8EB96D" stroke-width="0.32337"/>
</g>
<path d="M172.658 99.9205C177.614 104.026 175.848 118.245 173.573 124.178C171.431 121.143 171.724 119.046 170.108 115.009C165.433 103.321 168.62 99.9205 172.658 99.9205Z" fill="#084850"/>
<mask id="mask14_82_1155" style="mask-type:alpha" maskUnits="userSpaceOnUse" x="167" y="99" width="9" height="26">
<path d="M172.657 99.9205C177.614 104.026 175.848 118.245 173.573 124.178C171.431 121.143 171.723 119.046 170.107 115.009C165.432 103.321 168.62 99.9205 172.657 99.9205Z" fill="#084850"/>
</mask>
<g mask="url(#mask14_82_1155)">
<path d="M173.951 125.14L170.744 95.9129" stroke="#8EB96D" stroke-width="0.32337"/>
<path d="M171.946 106.918L175.839 98.9544" stroke="#8EB96D" stroke-width="0.32337"/>
<path d="M172.648 112.335L177.981 103.174" stroke="#8EB96D" stroke-width="0.32337"/>
<path d="M173.015 116.914L179.615 107.751" stroke="#8EB96D" stroke-width="0.32337"/>
<path d="M173.393 121.18L180.212 112.294" stroke="#8EB96D" stroke-width="0.32337"/>
<path d="M173.581 120.834L164.746 115.726" stroke="#8EB96D" stroke-width="0.32337"/>
<path d="M172.933 115.412L164.099 110.304" stroke="#8EB96D" stroke-width="0.32337"/>
<path d="M172.47 111.104L164.634 106.488" stroke="#8EB96D" stroke-width="0.32337"/>
<path d="M171.592 104.298L167.045 101.361" stroke="#8EB96D" stroke-width="0.32337"/>
</g>
<path d="M316.777 44.5643C316.251 46.3527 312.964 47.3258 311.386 47.5888C311.649 46.23 312.359 43.2756 313.095 42.3288C313.832 41.382 316.207 41.3207 317.303 41.4083C317.347 41.7152 317.303 42.7759 316.777 44.5643Z" fill="#04673C"/>
<path d="M239.67 44.5643C240.196 46.3527 243.483 47.3258 245.061 47.5888C244.798 46.23 244.088 43.2756 243.352 42.3288C242.616 41.382 240.24 41.3207 239.144 41.4083C239.1 41.7152 239.144 42.7759 239.67 44.5643Z" fill="#04673C"/>
<path d="M284.613 43.2605C286.77 43.9383 288.933 45.9226 289.77 47.6024C288.156 47.7742 284.726 47.5882 283.411 47.0874C282.095 46.5866 281.082 44.3471 280.804 43.0877C281.133 42.9331 282.526 42.6049 284.613 43.2605Z" fill="#089858"/>
<path d="M271.834 43.2605C269.677 43.9383 267.514 45.9226 266.677 47.6024C268.292 47.7742 271.722 47.5882 273.037 47.0874C274.352 46.5866 275.365 44.3471 275.643 43.0877C275.314 42.9331 273.921 42.6049 271.834 43.2605Z" fill="#089858"/>
<path d="M283.334 56.3936C282.313 55.7136 280.642 55.2602 279.933 55.1186C279.933 54.7644 280.358 53.801 282.058 52.7809C283.759 51.7609 287.017 53.206 288.434 54.056C287.159 55.1186 284.354 57.0736 283.334 56.3936Z" fill="#0EB88E"/>
<path d="M273.114 56.3936C274.134 55.7136 275.805 55.2602 276.514 55.1186C276.514 54.7644 276.089 53.801 274.389 52.7809C272.688 51.7609 269.43 53.206 268.013 54.056C269.288 55.1186 272.093 57.0736 273.114 56.3936Z" fill="#0EB88E"/>
<path d="M301.609 48.3491C300.249 48.3491 298.493 48.0658 297.784 47.9241C297.784 47.0741 298.337 45.204 300.547 44.524C302.757 43.8439 304.584 45.374 305.222 46.224C304.584 46.9324 302.969 48.3491 301.609 48.3491Z" fill="#0EB88E"/>
<path d="M254.838 48.3491C256.198 48.3491 257.954 48.0658 258.663 47.9241C258.663 47.0741 258.11 45.204 255.9 44.524C253.69 43.8439 251.863 45.374 251.225 46.224C251.863 46.9324 253.478 48.3491 254.838 48.3491Z" fill="#0EB88E"/>
<path d="M275.074 152.974C112.424 152.974 76.9102 52.9207 76.9102 52.9207C73.7025 58.9718 72.276 65.8083 72.7963 72.6373L85.1037 234.188H275.074H470.356L481.395 72.7339C481.866 65.846 480.345 58.9681 477.014 52.9208C477.014 52.9208 437.724 152.974 275.074 152.974Z" fill="#1C0F35"/>
<g opacity="0.4" filter="url(#filter1_f_82_1155)">
<path d="M407.249 221.339C407.249 219.529 406.936 218.501 406.309 218.254C406.114 218.172 405.918 218.131 405.722 218.131H402.549L403.91 189.385L406.788 183.709L418.823 221.339H427.577C427.577 219.529 427.264 218.501 426.637 218.254C426.441 218.172 426.245 218.131 426.049 218.131H424.639L410.842 175.813L421.065 155.147C422.553 152.186 423.65 149.819 424.355 149.408C424.707 149.243 425.079 149.161 425.471 149.161C426.94 149.161 426.861 147.143 426.94 145.827C426.979 145.416 426.998 145.004 426.998 144.593C419.95 145.721 419.737 145.827 415.996 146.401L416.365 149.161H421.065L403.91 183.586V150.522L408.61 149.841V147.314C401.713 148.442 398.992 148.442 393.57 149.354V151.882L398.27 151.202L396.909 218.131H392.209V221.339H407.249Z" fill="#139F7D"/>
<path d="M334.106 221.301L334.143 219.163L329.346 219.079L329.703 198.602L334.86 198.692L343.94 221.473L353.294 221.636C353.316 220.375 353.068 219.685 352.551 219.566C352.352 219.508 352.132 219.477 351.893 219.473L349.914 219.438L340.69 198.053C344.551 196.75 347.198 194.027 348.63 189.884C349.138 188.302 349.406 186.689 349.434 185.044C349.506 180.932 348.264 177.62 345.709 175.108C343.585 173.096 340.963 172.063 337.845 172.009C337.845 172.009 329.745 171.227 319.616 173.731L319.579 176.55L324.376 175.953L323.589 218.979L318.792 218.895L318.755 221.033L334.106 221.301ZM335.649 174.79C339.007 174.848 341.292 176.155 342.503 180.07C342.955 181.668 343.166 183.344 343.135 185.099C343.064 189.156 342.011 192.236 339.975 194.339C338.712 195.688 337.22 196.348 335.502 196.318L329.745 196.217L330.132 174.693L335.649 174.79Z" fill="#139F7D"/>
<path d="M306.984 221.339C306.984 220.333 306.669 219.762 306.04 219.625C305.843 219.58 305.646 219.557 305.449 219.557H301.377V182.676H304.387C307.653 182.722 309.817 183.035 310.88 187.695L312.001 192.562H313.654L313.418 178.854C313.418 178.854 299.349 181.429 283.965 180.894L283.669 194.602H285.322L286.444 189.736C287.545 185.075 289.729 182.722 292.995 182.676H295.71V219.557H290.103V221.339H306.984Z" fill="#139F7D"/>
<path d="M254.716 221.339C254.716 220.333 254.401 219.762 253.771 219.625C253.575 219.579 253.378 219.557 253.181 219.557H249.994V201.119H267.524V219.557H262.802V221.339H277.912C277.912 220.333 277.598 219.762 276.968 219.625C276.771 219.579 276.574 219.557 276.378 219.557H273.19V181.996H277.912V180.894C277.912 180.894 269.762 180.409 262.802 179.534V181.316L267.524 181.996V199.131H249.994V180.636H254.716V178.854C254.716 178.854 246.297 178.854 239.606 177.493V179.275L244.328 179.955V219.557H239.606V221.339H254.716Z" fill="#139F7D"/>
<path d="M232.118 216.718C232.157 218.946 232.453 220.214 233.005 220.523C233.242 220.625 233.594 220.672 234.063 220.664L233.798 205.463L232.274 205.49C230.474 214.384 226.624 218.91 220.722 219.066C215.289 219.161 211.72 215.136 210.013 206.993C209.374 203.979 209.022 200.562 208.955 196.742C208.778 186.608 210.692 179.808 214.698 176.342C216.316 174.933 218.141 174.212 220.173 174.176C225.882 174.183 231.79 178.467 233.816 187.029L236.021 187.003C232.694 181.09 231.504 171.444 231.504 171.444C230.605 171.459 230.065 171.867 229.883 172.666C229.816 173.304 229.794 174.26 229.816 175.533C227.547 173.237 225.931 172.537 222.248 172.07C221.425 171.978 220.604 171.94 219.783 171.954C213.529 172.063 208.795 175.25 205.581 181.516C203.351 185.96 202.287 191.047 202.387 196.777C202.508 203.727 204.213 209.536 207.5 214.202C210.947 219.024 215.387 221.388 220.82 221.293C224.806 221.171 228.572 219.645 232.118 216.718Z" fill="#139F7D"/>
<path d="M195.27 181.908L194.966 165.124C194.966 165.124 182.702 164.898 166.482 161.723V164.898L171.341 165.578L171.342 218.843H166.484V221.338H194.967L195.271 203.874H193.935L192.963 208.768C191.91 214.269 190.291 217.5 188.105 218.46C187.538 218.715 186.951 218.843 186.343 218.843H177.173L176.9 193.031H190.921V190.248H176.9L177.171 166.258L186.342 166.939C189.459 166.939 191.646 170.169 192.901 176.63C192.941 176.758 192.962 176.886 192.962 177.014L193.933 181.908H195.27Z" fill="#139F7D"/>
<path d="M387.104 182.851L386.808 164.219C370.715 166.558 369.012 166.894 359.098 168.258V170.054H363.824L361.1 220.753H356.373V223.222H384.083L384.379 205.937H383.079L382.134 210.781C381.11 216.226 379.534 219.423 377.407 220.373C376.856 220.626 376.284 220.753 375.694 220.753H366.772L368.134 195.205H380.187V192.451H368.134L369.496 169.381L378.418 168.708C381.451 168.708 383.578 171.232 384.799 177.627C384.839 177.754 384.858 177.88 384.858 178.007L385.804 182.851H387.104Z" fill="#139F7D"/>
<path d="M154.786 221.339C154.786 219.529 154.466 218.501 153.827 218.254C153.627 218.172 153.428 218.131 153.228 218.131H149.094L148.014 152.562H151.075C154.39 152.645 157.369 155.52 158.447 163.91L159.586 172.669H161.943L160.597 149.122C160.597 149.122 137.812 147.082 129.65 144.021L131.511 171.989H133.868L134.326 163.229C134.764 154.84 136.301 150.604 139.616 150.522L142.371 151.202L143.343 218.131H137.652V221.339H154.786Z" fill="#139F7D"/>
</g>
<path d="M407.249 222.524C407.249 220.714 406.936 219.686 406.309 219.439C406.114 219.357 405.918 219.316 405.722 219.316H402.549L403.91 190.57L406.788 184.894L418.823 222.524H427.577C427.577 220.714 427.264 219.686 426.637 219.439C426.441 219.357 426.245 219.316 426.049 219.316H424.639L410.842 176.998L421.065 156.332C422.553 153.371 423.65 151.004 424.355 150.593C424.707 150.429 425.079 150.346 425.471 150.346C426.94 150.346 426.861 148.328 426.94 147.012C426.979 146.601 426.998 146.189 426.998 145.778C419.95 146.906 419.737 147.012 415.996 147.586L416.365 150.346H421.065L403.91 184.771V151.707L408.61 151.026V148.499C401.713 149.627 398.992 149.627 393.57 150.539V153.067L398.27 152.387L396.909 219.316H392.209V222.524H407.249Z" fill="white"/>
<path d="M334.106 222.486L334.143 220.347L329.346 220.264L329.703 199.787L334.86 199.877L343.94 222.657L353.294 222.821C353.316 221.56 353.068 220.87 352.551 220.751C352.352 220.693 352.132 220.661 351.893 220.657L349.914 220.623L340.69 199.238C344.551 197.934 347.198 195.211 348.63 191.068C349.138 189.487 349.406 187.873 349.434 186.229C349.506 182.117 348.264 178.805 345.709 176.292C343.585 174.281 340.963 173.248 337.845 173.194C337.845 173.194 329.745 172.412 319.616 174.916L319.579 177.734L324.376 177.138L323.589 220.163L318.792 220.079L318.755 222.218L334.106 222.486ZM335.649 175.974C339.007 176.033 341.292 177.339 342.503 181.254C342.955 182.853 343.166 184.529 343.135 186.283C343.064 190.34 342.011 193.42 339.975 195.524C338.712 196.873 337.22 197.532 335.502 197.502L329.745 197.402L330.132 175.878L335.649 175.974Z" fill="white"/>
<path d="M306.984 222.524C306.984 221.519 306.669 220.947 306.04 220.81C305.843 220.765 305.646 220.742 305.449 220.742H301.377V183.861H304.387C307.653 183.907 309.817 184.22 310.88 188.881L312.001 193.747H313.654L313.418 180.039C313.418 180.039 299.349 182.615 283.965 182.079L283.669 195.787H285.322L286.444 190.921C287.545 186.26 289.729 183.907 292.995 183.861H295.71V220.742H290.103V222.524H306.984Z" fill="white"/>
<path d="M254.716 222.524C254.716 221.518 254.401 220.947 253.771 220.81C253.575 220.764 253.378 220.742 253.181 220.742H249.994V202.304H267.524V220.742H262.802V222.524H277.912C277.912 221.518 277.598 220.947 276.968 220.81C276.771 220.764 276.574 220.742 276.378 220.742H273.19V183.181H277.912V182.079C277.912 182.079 269.762 181.594 262.802 180.719V182.501L267.524 183.181V200.316H249.994V181.821H254.716V180.038C254.716 180.038 246.297 180.038 239.606 178.678V180.46L244.328 181.14V220.742H239.606V222.524H254.716Z" fill="white"/>
<path d="M232.118 217.902C232.157 220.13 232.453 221.399 233.005 221.708C233.242 221.81 233.594 221.857 234.063 221.849L233.798 206.648L232.274 206.675C230.474 215.569 226.624 220.094 220.722 220.25C215.289 220.345 211.72 216.321 210.013 208.178C209.374 205.164 209.022 201.747 208.955 197.927C208.778 187.793 210.692 180.993 214.698 177.526C216.316 176.118 218.141 175.396 220.173 175.361C225.882 175.367 231.79 179.652 233.816 188.214L236.021 188.187C232.694 182.274 231.504 172.628 231.504 172.628C230.605 172.644 230.065 173.051 229.883 173.851C229.816 174.489 229.794 175.444 229.816 176.718C227.547 174.422 225.931 173.721 222.248 173.255C221.425 173.163 220.604 173.124 219.783 173.139C213.529 173.248 208.795 176.435 205.581 182.701C203.351 187.145 202.287 192.232 202.387 197.962C202.508 204.912 204.213 210.72 207.5 215.386C210.947 220.209 215.387 222.573 220.82 222.478C224.806 222.355 228.572 220.83 232.118 217.902Z" fill="white"/>
<path d="M195.27 183.093L194.966 166.309C194.966 166.309 182.702 166.083 166.482 162.908V166.083L171.341 166.763L171.342 220.028H166.484V222.523H194.967L195.271 205.059H193.935L192.963 209.953C191.91 215.454 190.291 218.685 188.105 219.645C187.538 219.9 186.951 220.028 186.343 220.028H177.173L176.9 194.216H190.921V191.433H176.9L177.171 167.443L186.342 168.123C189.459 168.123 191.646 171.354 192.901 177.815C192.941 177.943 192.962 178.071 192.962 178.199L193.933 183.093H195.27Z" fill="white"/>
<path d="M387.104 182.85L386.808 164.219C370.715 166.558 369.012 166.894 359.098 168.258V170.054H363.824L361.1 220.753H356.373V223.222H384.083L384.379 205.937H383.079L382.134 210.781C381.11 216.226 379.534 219.423 377.407 220.373C376.856 220.626 376.284 220.753 375.694 220.753H366.772L368.134 195.205H380.187V192.451H368.134L369.496 169.381L378.418 168.708C381.451 168.708 383.578 171.232 384.799 177.627C384.839 177.754 384.858 177.88 384.858 178.007L385.804 182.85H387.104Z" fill="white"/>
<path d="M154.786 222.524C154.786 220.714 154.466 219.686 153.827 219.44C153.627 219.357 153.428 219.316 153.228 219.316H149.094L148.014 153.747H151.075C154.39 153.83 157.369 156.705 158.447 165.095L159.586 173.854H161.943L160.597 150.307C160.597 150.307 137.812 148.267 129.65 145.206L131.511 173.174H133.868L134.326 164.414C134.764 156.025 136.301 151.789 139.616 151.707L142.371 152.387L143.343 219.316H137.652V222.524H154.786Z" fill="white"/>
<path d="M102.522 173.676C103.058 172.248 104.233 170.551 104.754 169.881C103.861 169.286 101.763 167.604 100.513 165.64C99.2625 163.675 97.7593 163.482 97.164 163.63C95.1548 165.64 100.736 168.988 100.289 168.988C99.8429 168.988 96.271 168.765 96.271 170.551C96.271 171.98 98.6523 172.635 99.8429 172.783C99.1732 172.783 96.9407 176.355 98.5034 177.248C100.066 178.141 101.852 175.462 102.522 173.676Z" fill="#084150"/>
<path d="M97.8344 141.083C94.0839 164.657 106.69 167.574 113.462 166.086C117.034 153.808 110.113 147.78 107.88 146.887C106.094 146.173 100.439 142.72 97.8344 141.083Z" fill="#08905C"/>
<path d="M113.46 167.425C106.986 170.849 95.3775 180.642 100.735 192.429C106.837 191.536 117.925 185.285 113.46 167.425Z" fill="#08905C"/>
<mask id="mask15_82_1155" style="mask-type:alpha" maskUnits="userSpaceOnUse" x="97" y="141" width="18" height="26">
<path d="M97.8344 141.083C94.0839 164.657 106.69 167.574 113.462 166.086C117.034 153.808 110.113 147.78 107.88 146.887C106.094 146.173 100.439 142.72 97.8344 141.083Z" fill="#08905C"/>
</mask>
<g mask="url(#mask15_82_1155)">
<path d="M114.132 167.114L96.0967 141.083" stroke="#8EB96D" stroke-width="0.546896"/>
<path d="M102.883 150.888L102.483 141.349" stroke="#8EB96D" stroke-width="0.546896"/>
<path d="M106.327 155.657L106.677 144.245" stroke="#8EB96D" stroke-width="0.546896"/>
<path d="M109.024 159.805L110.572 147.741" stroke="#8EB96D" stroke-width="0.546896"/>
<path d="M111.572 163.651L113.47 151.737" stroke="#8EB96D" stroke-width="0.546896"/>
<path d="M111.572 163.228L100.585 162.924" stroke="#8EB96D" stroke-width="0.546896"/>
<path d="M108.176 158.425L97.189 158.121" stroke="#8EB96D" stroke-width="0.546896"/>
<path d="M105.529 154.583L95.7398 154.234" stroke="#8EB96D" stroke-width="0.546896"/>
<path d="M101.204 148.589L95.391 148.141" stroke="#8EB96D" stroke-width="0.546896"/>
</g>
<mask id="mask16_82_1155" style="mask-type:alpha" maskUnits="userSpaceOnUse" x="99" y="167" width="16" height="26">
<path d="M113.46 167.425C106.986 170.849 95.3775 180.642 100.735 192.429C106.837 191.536 117.925 185.285 113.46 167.425Z" fill="#08905C"/>
</mask>
<g mask="url(#mask16_82_1155)">
<path d="M113.219 167.839L97.8274 195.516" stroke="#8EB96D" stroke-width="0.546896"/>
<path d="M103.627 185.098L95.2454 189.669" stroke="#8EB96D" stroke-width="0.546896"/>
<path d="M106.387 179.901L95.9931 184.627" stroke="#8EB96D" stroke-width="0.546896"/>
<path d="M108.917 175.65L97.4091 179.588" stroke="#8EB96D" stroke-width="0.546896"/>
<path d="M111.242 171.666L99.7143 175.224" stroke="#8EB96D" stroke-width="0.546896"/>
<path d="M110.862 171.852L115.441 181.844" stroke="#8EB96D" stroke-width="0.546896"/>
<path d="M108.053 177.02L112.632 187.012" stroke="#8EB96D" stroke-width="0.546896"/>
<path d="M105.775 181.092L109.784 190.029" stroke="#8EB96D" stroke-width="0.546896"/>
<path d="M102.306 187.619L104.471 193.032" stroke="#8EB96D" stroke-width="0.546896"/>
</g>
<path d="M100.067 198.903C91.8511 204.796 100.811 214.753 106.317 218.995C108.282 216.852 110.559 209.618 111.452 206.27C112.047 203.368 112.524 197.34 109.666 196.447C106.809 195.554 105.201 200.093 104.755 202.475C104.219 198.903 101.406 198.605 100.067 198.903Z" fill="#0FAD7B"/>
<mask id="mask17_82_1155" style="mask-type:alpha" maskUnits="userSpaceOnUse" x="96" y="196" width="16" height="23">
<path d="M100.067 198.903C91.8511 204.796 100.811 214.753 106.317 218.995C108.282 216.852 110.559 209.618 111.452 206.27C112.047 203.368 112.524 197.34 109.666 196.447C106.809 195.554 105.201 200.093 104.755 202.475C104.219 198.903 101.406 198.605 100.067 198.903Z" fill="#0FAD7B"/>
</mask>
<g mask="url(#mask17_82_1155)">
<path d="M105.935 221.902L104.384 191.458" stroke="#8EB96D" stroke-width="0.52643"/>
<path d="M104.962 202.921L109.473 194.915" stroke="#8EB96D" stroke-width="0.52643"/>
<path d="M105.361 208.571L111.436 199.412" stroke="#8EB96D" stroke-width="0.52643"/>
<path d="M105.464 213.331L112.85 204.247" stroke="#8EB96D" stroke-width="0.52643"/>
<path d="M105.597 217.77L113.192 208.985" stroke="#8EB96D" stroke-width="0.52643"/>
<path d="M105.812 217.424L96.9774 211.602" stroke="#8EB96D" stroke-width="0.52643"/>
<path d="M105.47 211.772L96.6351 205.951" stroke="#8EB96D" stroke-width="0.52643"/>
<path d="M105.252 207.287L97.4209 202.036" stroke="#8EB96D" stroke-width="0.52643"/>
<path d="M104.755 200.189L100.227 196.874" stroke="#8EB96D" stroke-width="0.52643"/>
</g>
<path d="M450.174 172.316C449.638 170.887 448.462 169.19 447.941 168.52C448.834 167.925 450.933 166.243 452.183 164.279C453.433 162.314 454.936 162.121 455.532 162.27C457.541 164.279 451.96 167.627 452.406 167.627C452.853 167.627 456.425 167.404 456.425 169.19C456.425 170.619 454.043 171.274 452.853 171.423C453.522 171.423 455.755 174.995 454.192 175.887C452.629 176.78 450.843 174.102 450.174 172.316Z" fill="#084150"/>
<path d="M454.861 139.722C458.612 163.297 446.006 166.214 439.234 164.726C435.662 152.447 442.583 146.42 444.816 145.527C446.602 144.812 452.257 141.359 454.861 139.722Z" fill="#08905C"/>
<path d="M439.235 166.065C445.709 169.488 457.317 179.281 451.959 191.068C445.858 190.175 434.77 183.924 439.235 166.065Z" fill="#08905C"/>
<mask id="mask18_82_1155" style="mask-type:alpha" maskUnits="userSpaceOnUse" x="438" y="139" width="18" height="27">
<path d="M454.861 139.722C458.612 163.297 446.006 166.214 439.234 164.726C435.662 152.447 442.583 146.42 444.816 145.527C446.602 144.812 452.257 141.359 454.861 139.722Z" fill="#08905C"/>
</mask>
<g mask="url(#mask18_82_1155)">
<path d="M438.564 165.754L456.599 139.722" stroke="#8EB96D" stroke-width="0.546896"/>
<path d="M449.813 149.527L450.213 139.988" stroke="#8EB96D" stroke-width="0.546896"/>
<path d="M446.368 154.297L446.019 142.885" stroke="#8EB96D" stroke-width="0.546896"/>
<path d="M443.671 158.445L442.123 146.381" stroke="#8EB96D" stroke-width="0.546896"/>
<path d="M441.124 162.291L439.226 150.376" stroke="#8EB96D" stroke-width="0.546896"/>
<path d="M441.124 161.867L452.111 161.563" stroke="#8EB96D" stroke-width="0.546896"/>
<path d="M444.52 157.064L455.507 156.76" stroke="#8EB96D" stroke-width="0.546896"/>
<path d="M447.167 153.223L456.956 152.873" stroke="#8EB96D" stroke-width="0.546896"/>
<path d="M451.491 147.228L457.304 146.78" stroke="#8EB96D" stroke-width="0.546896"/>
</g>
<mask id="mask19_82_1155" style="mask-type:alpha" maskUnits="userSpaceOnUse" x="438" y="166" width="16" height="26">
<path d="M439.235 166.065C445.709 169.488 457.317 179.281 451.959 191.068C445.858 190.175 434.77 183.924 439.235 166.065Z" fill="#08905C"/>
</mask>
<g mask="url(#mask19_82_1155)">
<path d="M439.476 166.479L454.867 194.155" stroke="#8EB96D" stroke-width="0.546896"/>
<path d="M449.067 183.737L457.449 188.308" stroke="#8EB96D" stroke-width="0.546896"/>
<path d="M446.309 178.541L456.703 183.267" stroke="#8EB96D" stroke-width="0.546896"/>
<path d="M443.778 174.29L455.285 178.228" stroke="#8EB96D" stroke-width="0.546896"/>
<path d="M441.453 170.305L452.981 173.864" stroke="#8EB96D" stroke-width="0.546896"/>
<path d="M441.833 170.492L437.253 180.484" stroke="#8EB96D" stroke-width="0.546896"/>
<path d="M444.643 175.66L440.063 185.652" stroke="#8EB96D" stroke-width="0.546896"/>
<path d="M446.92 179.732L442.911 188.669" stroke="#8EB96D" stroke-width="0.546896"/>
<path d="M450.389 186.259L448.224 191.672" stroke="#8EB96D" stroke-width="0.546896"/>
</g>
<path d="M452.629 197.542C460.845 203.436 451.885 213.392 446.378 217.634C444.414 215.491 442.137 208.258 441.244 204.909C440.648 202.007 440.172 195.979 443.03 195.086C445.887 194.193 447.495 198.733 447.941 201.114C448.477 197.542 451.29 197.244 452.629 197.542Z" fill="#0FAD7B"/>
<mask id="mask20_82_1155" style="mask-type:alpha" maskUnits="userSpaceOnUse" x="440" y="194" width="16" height="24">
<path d="M452.629 197.542C460.845 203.436 451.885 213.392 446.378 217.634C444.414 215.491 442.137 208.258 441.244 204.909C440.648 202.007 440.172 195.979 443.03 195.086C445.887 194.193 447.495 198.733 447.941 201.114C448.477 197.542 451.29 197.244 452.629 197.542Z" fill="#0FAD7B"/>
</mask>
<g mask="url(#mask20_82_1155)">
<path d="M446.761 220.541L448.312 190.097" stroke="#8EB96D" stroke-width="0.52643"/>
<path d="M447.734 201.561L443.223 193.554" stroke="#8EB96D" stroke-width="0.52643"/>
<path d="M447.335 207.21L441.261 198.051" stroke="#8EB96D" stroke-width="0.52643"/>
<path d="M447.233 211.971L439.847 202.886" stroke="#8EB96D" stroke-width="0.52643"/>
<path d="M447.099 216.409L439.503 207.625" stroke="#8EB96D" stroke-width="0.52643"/>
<path d="M446.884 216.063L455.719 210.242" stroke="#8EB96D" stroke-width="0.52643"/>
<path d="M447.226 210.411L456.06 204.59" stroke="#8EB96D" stroke-width="0.52643"/>
<path d="M447.444 205.926L455.275 200.675" stroke="#8EB96D" stroke-width="0.52643"/>
<path d="M447.941 198.828L452.469 195.514" stroke="#8EB96D" stroke-width="0.52643"/>
</g>
<g filter="url(#filter2_d_82_1155)">
<path d="M90.7828 102.73L93.6148 117.665L87.3968 117.797L90.7828 102.73Z" fill="url(#paint0_linear_82_1155)"/>
<path d="M90.7828 102.73L99.6124 116.026L93.6148 117.665L90.7828 102.73Z" fill="url(#paint1_linear_82_1155)"/>
<path d="M90.7828 102.73L104.519 112.542L99.6124 116.026L90.7828 102.73Z" fill="url(#paint2_linear_82_1155)"/>
<path d="M104.519 112.542L101.864 123.153L99.613 116.025L104.519 112.542Z" fill="url(#paint3_linear_82_1155)"/>
<path d="M101.863 123.153L90.8465 122.868L93.6152 117.665L101.863 123.153Z" fill="url(#paint4_linear_82_1155)"/>
<path d="M101.863 123.153L93.6153 117.665L99.6124 116.026L101.863 123.153Z" fill="url(#paint5_linear_82_1155)"/>
<path d="M93.616 117.666L90.8653 122.859L87.3968 117.797L93.616 117.666Z" fill="url(#paint6_linear_82_1155)"/>
</g>
<g filter="url(#filter3_d_82_1155)">
<path d="M459.393 101.989L452.788 115.68L447.711 112.088L459.393 101.989Z" fill="url(#paint7_linear_82_1155)"/>
<path d="M459.393 101.989L458.585 117.928L452.788 115.68L459.393 101.989Z" fill="url(#paint8_linear_82_1155)"/>
<path d="M459.393 101.989L464.601 118.045L458.585 117.928L459.393 101.989Z" fill="url(#paint9_linear_82_1155)"/>
<path d="M464.601 118.046L456.157 124.998L458.585 117.929L464.601 118.046Z" fill="url(#paint10_linear_82_1155)"/>
<path d="M456.156 124.997L447.468 118.216L452.788 115.68L456.156 124.997Z" fill="url(#paint11_linear_82_1155)"/>
<path d="M456.156 124.997L452.788 115.68L458.584 117.928L456.156 124.997Z" fill="url(#paint12_linear_82_1155)"/>
<path d="M452.788 115.681L447.489 118.22L447.71 112.088L452.788 115.681Z" fill="url(#paint13_linear_82_1155)"/>
</g>
<path d="M276.561 158.291L280.584 167.805L274.984 167.641L276.561 158.291Z" fill="url(#paint14_linear_82_1155)"/>
<path d="M278.627 174.274L274.985 167.587L280.584 167.75L278.627 174.274Z" fill="url(#paint15_linear_82_1155)"/>
<path d="M278.627 174.274L280.53 167.75L285.694 166.228L278.627 174.274Z" fill="url(#paint16_linear_82_1155)"/>
<path d="M278.627 174.274L275.039 167.641L271.233 171.338L278.627 174.274Z" fill="url(#paint17_linear_82_1155)"/>
<path d="M271.233 171.338L275.093 167.641L269.711 166.065L271.233 171.338Z" fill="url(#paint18_linear_82_1155)"/>
<path d="M276.561 158.291L285.749 166.228L280.53 167.805L276.561 158.291Z" fill="url(#paint19_linear_82_1155)"/>
<path d="M276.561 158.291L274.984 167.641L269.711 166.065L276.561 158.291Z" fill="url(#paint20_linear_82_1155)"/>
<defs>
<filter id="filter0_f_82_1155" x="0.0613708" y="0.00896454" width="555.337" height="325.599" filterUnits="userSpaceOnUse" color-interpolation-filters="sRGB">
<feFlood flood-opacity="0" result="BackgroundImageFix"/>
<feBlend mode="normal" in="SourceGraphic" in2="BackgroundImageFix" result="shape"/>
<feGaussianBlur stdDeviation="63.7133" result="effect1_foregroundBlur_82_1155"/>
</filter>
<filter id="filter1_f_82_1155" x="124.181" y="138.552" width="308.865" height="90.1389" filterUnits="userSpaceOnUse" color-interpolation-filters="sRGB">
<feFlood flood-opacity="0" result="BackgroundImageFix"/>
<feBlend mode="normal" in="SourceGraphic" in2="BackgroundImageFix" result="shape"/>
<feGaussianBlur stdDeviation="2.73448" result="effect1_foregroundBlur_82_1155"/>
</filter>
<filter id="filter2_d_82_1155" x="84.5731" y="102.362" width="22.7692" height="26.07" filterUnits="userSpaceOnUse" color-interpolation-filters="sRGB">
<feFlood flood-opacity="0" result="BackgroundImageFix"/>
<feColorMatrix in="SourceAlpha" type="matrix" values="0 0 0 0 0 0 0 0 0 0 0 0 0 0 0 0 0 0 127 0" result="hardAlpha"/>
<feOffset dy="2.4553"/>
<feGaussianBlur stdDeviation="1.41179"/>
<feComposite in2="hardAlpha" operator="out"/>
<feColorMatrix type="matrix" values="0 0 0 0 0.960784 0 0 0 0 0.760784 0 0 0 0 0.466667 0 0 0 0.19 0"/>
<feBlend mode="normal" in2="BackgroundImageFix" result="effect1_dropShadow_82_1155"/>
<feBlend mode="normal" in="SourceGraphic" in2="effect1_dropShadow_82_1155" result="shape"/>
</filter>
<filter id="filter3_d_82_1155" x="444.645" y="101.621" width="22.7802" height="28.6558" filterUnits="userSpaceOnUse" color-interpolation-filters="sRGB">
<feFlood flood-opacity="0" result="BackgroundImageFix"/>
<feColorMatrix in="SourceAlpha" type="matrix" values="0 0 0 0 0 0 0 0 0 0 0 0 0 0 0 0 0 0 127 0" result="hardAlpha"/>
<feOffset dy="2.4553"/>
<feGaussianBlur stdDeviation="1.41179"/>
<feComposite in2="hardAlpha" operator="out"/>
<feColorMatrix type="matrix" values="0 0 0 0 0.94902 0 0 0 0 0.67451 0 0 0 0 0.266667 0 0 0 0.22 0"/>
<feBlend mode="normal" in2="BackgroundImageFix" result="effect1_dropShadow_82_1155"/>
<feBlend mode="normal" in="SourceGraphic" in2="effect1_dropShadow_82_1155" result="shape"/>
</filter>
<linearGradient id="paint0_linear_82_1155" x1="90.5337" y1="108.714" x2="92.5437" y2="125.231" gradientUnits="userSpaceOnUse">
<stop offset="0.22078" stop-color="#F1AC44"/>
<stop offset="0.813447" stop-color="white"/>
<stop offset="1" stop-color="#F1AC44" stop-opacity="0"/>
</linearGradient>
<linearGradient id="paint1_linear_82_1155" x1="94.9282" y1="116.182" x2="90.0367" y2="101.338" gradientUnits="userSpaceOnUse">
<stop stop-color="#F0AB43"/>
<stop offset="1" stop-color="white"/>
</linearGradient>
<linearGradient id="paint2_linear_82_1155" x1="96.8125" y1="103.16" x2="99.6099" y2="116.179" gradientUnits="userSpaceOnUse">
<stop offset="0.388035" stop-color="#F1AC44"/>
<stop offset="1" stop-color="white"/>
</linearGradient>
<linearGradient id="paint3_linear_82_1155" x1="103.586" y1="114.262" x2="94.8462" y2="117.531" gradientUnits="userSpaceOnUse">
<stop stop-color="#F0AB43"/>
<stop offset="1" stop-color="white"/>
</linearGradient>
<linearGradient id="paint4_linear_82_1155" x1="97.7294" y1="122.474" x2="90.278" y2="115.156" gradientUnits="userSpaceOnUse">
<stop offset="0.140194" stop-color="#F1AC44"/>
<stop offset="1" stop-color="white"/>
</linearGradient>
<linearGradient id="paint5_linear_82_1155" x1="94.7383" y1="122.35" x2="103.97" y2="110.324" gradientUnits="userSpaceOnUse">
<stop offset="0.193643" stop-color="#F1AC44"/>
<stop offset="0.794347" stop-color="white"/>
</linearGradient>
<linearGradient id="paint6_linear_82_1155" x1="86.3373" y1="120.727" x2="95.1258" y2="117.29" gradientUnits="userSpaceOnUse">
<stop offset="0.201632" stop-color="#F2B352"/>
<stop offset="1" stop-color="white"/>
</linearGradient>
<linearGradient id="paint7_linear_82_1155" x1="455.635" y1="106.651" x2="447.428" y2="121.126" gradientUnits="userSpaceOnUse">
<stop offset="0.22078" stop-color="#F1AC44"/>
<stop offset="0.813447" stop-color="white"/>
<stop offset="1" stop-color="#F1AC44" stop-opacity="0"/>
</linearGradient>
<linearGradient id="paint8_linear_82_1155" x1="454.726" y1="115.269" x2="459.621" y2="100.426" gradientUnits="userSpaceOnUse">
<stop stop-color="#F0AB43"/>
<stop offset="1" stop-color="white"/>
</linearGradient>
<linearGradient id="paint9_linear_82_1155" x1="463.985" y1="105.92" x2="458.492" y2="118.051" gradientUnits="userSpaceOnUse">
<stop offset="0.388035" stop-color="#F1AC44"/>
<stop offset="1" stop-color="white"/>
</linearGradient>
<linearGradient id="paint10_linear_82_1155" x1="462.828" y1="118.874" x2="453.857" y2="116.305" gradientUnits="userSpaceOnUse">
<stop stop-color="#F0AB43"/>
<stop offset="1" stop-color="white"/>
</linearGradient>
<linearGradient id="paint11_linear_82_1155" x1="453.236" y1="121.993" x2="451.597" y2="111.679" gradientUnits="userSpaceOnUse">
<stop offset="0.140194" stop-color="#F1AC44"/>
<stop offset="1" stop-color="white"/>
</linearGradient>
<linearGradient id="paint12_linear_82_1155" x1="450.905" y1="120.114" x2="465.479" y2="115.935" gradientUnits="userSpaceOnUse">
<stop offset="0.193643" stop-color="#F1AC44"/>
<stop offset="0.794347" stop-color="white"/>
</linearGradient>
<linearGradient id="paint13_linear_82_1155" x1="445.116" y1="113.814" x2="454.226" y2="116.277" gradientUnits="userSpaceOnUse">
<stop offset="0.201632" stop-color="#F2B352"/>
<stop offset="1" stop-color="white"/>
</linearGradient>
<linearGradient id="paint14_linear_82_1155" x1="281.757" y1="164.467" x2="267.246" y2="165.118" gradientUnits="userSpaceOnUse">
<stop offset="0.193643" stop-color="#82CCF6"/>
<stop offset="0.70561" stop-color="white"/>
</linearGradient>
<linearGradient id="paint15_linear_82_1155" x1="279.44" y1="171.462" x2="275.174" y2="167.389" gradientUnits="userSpaceOnUse">
<stop offset="0.103048" stop-color="#82CCF7"/>
<stop offset="1" stop-color="white"/>
</linearGradient>
<linearGradient id="paint16_linear_82_1155" x1="284.369" y1="168.573" x2="278.646" y2="168.184" gradientUnits="userSpaceOnUse">
<stop offset="0.103048" stop-color="#82CCF7"/>
<stop offset="1" stop-color="white"/>
</linearGradient>
<linearGradient id="paint17_linear_82_1155" x1="272.619" y1="169.574" x2="278.59" y2="169.059" gradientUnits="userSpaceOnUse">
<stop offset="0.103048" stop-color="#82CCF7"/>
<stop offset="1" stop-color="white"/>
</linearGradient>
<linearGradient id="paint18_linear_82_1155" x1="270.72" y1="167.602" x2="275.071" y2="167.258" gradientUnits="userSpaceOnUse">
<stop offset="0.103048" stop-color="#82CCF7"/>
<stop offset="1" stop-color="white"/>
</linearGradient>
<linearGradient id="paint19_linear_82_1155" x1="284.33" y1="159.897" x2="276.257" y2="170.717" gradientUnits="userSpaceOnUse">
<stop stop-color="#43B2F0"/>
<stop offset="1" stop-color="white"/>
</linearGradient>
<linearGradient id="paint20_linear_82_1155" x1="270.995" y1="164.917" x2="276.55" y2="165.232" gradientUnits="userSpaceOnUse">
<stop offset="0.103048" stop-color="#82CCF7"/>
<stop offset="1" stop-color="white"/>
</linearGradient>
</defs>
</svg>
