<svg width="751" height="630" viewBox="0 0 751 630" fill="none" xmlns="http://www.w3.org/2000/svg">
<path d="M280.929 364L191.795 430.605C161.4 390.915 143.34 341.281 143.34 287.429C143.34 157.257 248.865 51.7324 379.036 51.7324C509.208 51.7324 614.733 157.257 614.733 287.429C614.733 341.46 596.552 391.246 565.974 431L477.143 364" stroke="#F3B961" stroke-width="7.17857"/>
<path d="M215.723 414.607C188.357 379.517 172.053 335.376 172.053 287.428C172.053 173.115 264.722 80.4463 379.035 80.4463C493.348 80.4463 586.017 173.115 586.017 287.428C586.017 335.214 569.824 379.217 542.626 414.25" stroke="#F3B961" stroke-width="7.17857"/>
<path d="M257 291L143 291" stroke="#F3B961" stroke-width="7.17857"/>
<path d="M615 291H492" stroke="#F3B961" stroke-width="7.17857"/>
<path d="M379.062 29.0001V174.964" stroke="#F3B961" stroke-width="7.17857"/>
<path d="M158.295 366.991C159.252 366.034 229.283 342.265 264.179 330.5" stroke="#F3B961" stroke-width="4.78571"/>
<path d="M599.994 366.991C599.037 366.034 529.006 342.265 494.11 330.5" stroke="#F3B961" stroke-width="4.78571"/>
<path d="M154.107 214.533C155.45 214.365 225.318 238.609 260.084 250.751" stroke="#F3B961" stroke-width="4.78571"/>
<path d="M604.182 214.533C602.839 214.365 532.971 238.609 498.204 250.751" stroke="#F3B961" stroke-width="4.78571"/>
<path d="M188.803 147.25C190.13 147.52 248.606 192.795 277.678 215.399" stroke="#F3B961" stroke-width="4.78571"/>
<path d="M569.485 147.25C568.158 147.52 509.682 192.795 480.61 215.399" stroke="#F3B961" stroke-width="4.78571"/>
<path d="M229.482 102.462C230.709 103.036 276.935 160.763 299.895 189.554" stroke="#F3B961" stroke-width="4.78571"/>
<path d="M528.805 102.462C527.579 103.036 481.352 160.763 458.392 189.554" stroke="#F3B961" stroke-width="4.78571"/>
<path d="M279.733 73.0703C280.775 73.9343 310.95 141.453 325.908 175.104" stroke="#F3B961" stroke-width="4.78571"/>
<path d="M478.556 73.0704C477.514 73.9345 447.339 141.453 432.381 175.104" stroke="#F3B961" stroke-width="4.78571"/>
<path d="M328.712 57.714C329.531 58.7915 343.636 131.389 350.586 167.553" stroke="#F3B961" stroke-width="4.78571"/>
<path d="M429.577 57.7141C428.758 58.7916 414.653 131.389 407.703 167.553" stroke="#F3B961" stroke-width="4.78571"/>
<path d="M435.903 48.1672L435.801 48.5884L427.728 46.6224L427.831 46.2012L428.343 46.3259C428.791 46.435 429.171 46.4431 429.483 46.3503C429.706 46.2921 429.902 46.1469 430.071 45.9147C430.199 45.7528 430.358 45.2848 430.546 44.5105L433.02 34.3543C433.212 33.5648 433.29 33.0613 433.255 32.8436C433.219 32.6259 433.09 32.4135 432.867 32.2064C432.654 31.9936 432.331 31.8345 431.898 31.7291L431.386 31.6044L431.488 31.1831L439.561 33.1491L439.458 33.5704L438.946 33.4456C438.498 33.3365 438.118 33.3284 437.806 33.4213C437.583 33.4795 437.383 33.6237 437.206 33.8541C437.078 34.0159 436.92 34.484 436.731 35.2582L434.258 45.4145C434.066 46.2039 433.987 46.7075 434.023 46.9252C434.066 47.1447 434.194 47.3609 434.408 47.5737C434.63 47.7808 434.958 47.937 435.391 48.0424L435.903 48.1672Z" fill="white"/>
<path d="M482.972 61.511L482.792 61.905L475.241 58.4385L475.422 58.0444L475.901 58.2644C476.32 58.4567 476.691 58.537 477.015 58.5053C477.246 58.4906 477.466 58.3854 477.676 58.1896C477.832 58.0551 478.077 57.6257 478.409 56.9015L482.771 47.4017C483.11 46.6633 483.282 46.1839 483.289 45.9634C483.296 45.7429 483.209 45.5098 483.03 45.2641C482.861 45.0146 482.574 44.7969 482.169 44.6111L481.69 44.3911L481.871 43.997L489.422 47.4636L489.241 47.8576L488.761 47.6376C488.343 47.4453 487.971 47.365 487.647 47.3968C487.417 47.4114 487.193 47.515 486.976 47.7075C486.819 47.842 486.575 48.2714 486.242 48.9956L481.881 58.4954C481.542 59.2338 481.369 59.7133 481.363 59.9337C481.363 60.1575 481.448 60.3941 481.617 60.6437C481.796 60.8894 482.089 61.1051 482.493 61.2909L482.972 61.511ZM491.471 65.4127L491.29 65.8067L483.739 62.3402L483.92 61.9461L484.4 62.1661C484.819 62.3585 485.19 62.4387 485.514 62.407C485.744 62.3923 485.964 62.2871 486.175 62.0913C486.331 61.9568 486.575 61.5274 486.908 60.8032L491.269 51.3034C491.608 50.565 491.781 50.0856 491.788 49.8651C491.794 49.6446 491.708 49.4116 491.528 49.1658C491.359 48.9163 491.072 48.6986 490.668 48.5128L490.189 48.2928L490.369 47.8987L497.92 51.3653L497.739 51.7593L497.26 51.5393C496.841 51.347 496.47 51.2667 496.146 51.2985C495.915 51.3131 495.692 51.4167 495.474 51.6092C495.318 51.7437 495.074 52.1731 494.741 52.8973L490.38 62.3972C490.041 63.1356 489.868 63.615 489.861 63.8354C489.862 64.0592 489.947 64.2958 490.116 64.5454C490.295 64.7911 490.587 65.0069 490.992 65.1926L491.471 65.4127Z" fill="white"/>
<path d="M577.743 138.506L577.387 138.753L572.647 131.929L573.003 131.682L573.304 132.115C573.567 132.494 573.846 132.752 574.141 132.889C574.347 132.993 574.59 133.015 574.87 132.953C575.073 132.917 575.502 132.671 576.157 132.217L584.742 126.253C585.409 125.79 585.802 125.465 585.919 125.278C586.037 125.092 586.081 124.847 586.052 124.544C586.033 124.244 585.897 123.91 585.643 123.545L585.342 123.111L585.698 122.864L590.438 129.688L590.082 129.935L589.781 129.502C589.518 129.124 589.239 128.866 588.944 128.728C588.738 128.624 588.492 128.599 588.207 128.655C588.004 128.691 587.576 128.936 586.921 129.391L578.336 135.354C577.669 135.818 577.276 136.143 577.158 136.329C577.045 136.522 576.998 136.769 577.016 137.07C577.046 137.373 577.188 137.707 577.442 138.073L577.743 138.506ZM600.506 144.183L600.15 144.43C599.743 144.009 599.195 143.761 598.507 143.688C597.999 143.641 596.966 143.764 595.409 144.056L582.316 146.487L582.096 146.169L589.362 134.487C590.239 133.079 590.722 132.206 590.811 131.869C590.904 131.537 590.804 131.098 590.509 130.551L590.866 130.304L595.211 136.56L594.855 136.807L594.708 136.596C594.316 136.031 593.978 135.695 593.694 135.588C593.495 135.507 593.303 135.531 593.117 135.661C593.001 135.741 592.881 135.862 592.756 136.025C592.638 136.183 592.338 136.649 591.856 137.421L587.292 144.715L594.868 143.276C595.781 143.098 596.381 142.962 596.668 142.868C596.954 142.774 597.181 142.669 597.347 142.553C597.54 142.419 597.674 142.25 597.751 142.044C597.827 141.839 597.834 141.61 597.773 141.358C597.691 141.006 597.491 140.603 597.175 140.147L597.531 139.9L600.506 144.183Z" fill="white"/>
<path d="M531.812 90.1007L531.53 90.43L525.219 85.0259L525.501 84.6966L525.902 85.0396C526.252 85.3394 526.587 85.5184 526.908 85.5767C527.133 85.6258 527.374 85.585 527.629 85.4544C527.817 85.3678 528.169 85.0219 528.688 84.4167L535.487 76.4768C536.015 75.8597 536.313 75.446 536.38 75.2358C536.447 75.0256 536.427 74.7778 536.322 74.4923C536.228 74.2059 536.012 73.9179 535.674 73.6282L535.273 73.2852L535.555 72.9559L541.866 78.36L541.584 78.6894L541.183 78.3464C540.833 78.0466 540.498 77.8675 540.178 77.8092C539.952 77.7602 539.709 77.7984 539.447 77.9239C539.26 78.0105 538.907 78.3564 538.389 78.9616L531.59 86.9015C531.061 87.5186 530.763 87.9323 530.697 88.1425C530.636 88.3578 530.652 88.6086 530.747 88.895C530.852 89.1805 531.073 89.4681 531.412 89.7577L531.812 90.1007ZM538.915 96.1832L538.633 96.5126L532.322 91.1084L532.604 90.7791L533.005 91.1221C533.355 91.4219 533.69 91.6009 534.011 91.6593C534.236 91.7083 534.477 91.6675 534.733 91.5369C534.92 91.4504 535.273 91.1045 535.791 90.4992L542.59 82.5593C543.118 81.9422 543.416 81.5285 543.483 81.3183C543.55 81.1081 543.531 80.8603 543.425 80.5748C543.331 80.2884 543.115 80.0004 542.777 79.7108L542.376 79.3678L542.658 79.0384L548.969 84.4425L548.687 84.7719L548.287 84.4289C547.936 84.1291 547.601 83.95 547.281 83.8917C547.055 83.8427 546.812 83.8809 546.55 84.0065C546.363 84.093 546.01 84.4389 545.492 85.0442L538.693 92.984C538.164 93.6012 537.867 94.0148 537.8 94.225C537.739 94.4403 537.755 94.6911 537.85 94.9775C537.955 95.263 538.177 95.5506 538.515 95.8402L538.915 96.1832ZM546.019 102.266L545.737 102.595L539.426 97.1909L539.708 96.8616L540.108 97.2046C540.458 97.5044 540.794 97.6835 541.114 97.7418C541.339 97.7908 541.58 97.75 541.836 97.6194C542.023 97.5329 542.376 97.187 542.894 96.5817L549.693 88.6418C550.222 88.0247 550.519 87.611 550.586 87.4008C550.653 87.1907 550.634 86.9428 550.529 86.6573C550.434 86.3709 550.218 86.0829 549.88 85.7933L549.479 85.4503L549.761 85.1209L556.072 90.5251L555.79 90.8544L555.39 90.5114C555.04 90.2116 554.704 90.0325 554.384 89.9742C554.159 89.9252 553.915 89.9634 553.653 90.089C553.466 90.1755 553.113 90.5214 552.595 91.1267L545.796 99.0665C545.267 99.6837 544.97 100.097 544.903 100.308C544.842 100.523 544.859 100.774 544.953 101.06C545.058 101.346 545.28 101.633 545.618 101.923L546.019 102.266Z" fill="white"/>
<path d="M159.293 137.846L159.649 138.093C159.396 138.621 159.356 139.221 159.527 139.892C159.661 140.384 160.136 141.309 160.954 142.666L167.803 154.086L167.583 154.404L154.099 151.673C152.473 151.343 151.486 151.196 151.139 151.23C150.796 151.258 150.42 151.506 150.01 151.973L149.654 151.725L153.999 145.469L154.355 145.716L154.208 145.928C153.816 146.493 153.619 146.927 153.617 147.23C153.611 147.445 153.701 147.616 153.887 147.746C154.003 147.826 154.159 147.896 154.355 147.956C154.544 148.012 155.085 148.13 155.976 148.312L164.405 150.042L160.412 143.445C159.927 142.652 159.59 142.137 159.401 141.902C159.213 141.666 159.035 141.49 158.868 141.375C158.676 141.241 158.47 141.174 158.251 141.174C158.032 141.174 157.815 141.247 157.6 141.393C157.299 141.593 156.991 141.921 156.675 142.376L156.318 142.129L159.293 137.846ZM177.149 139.232L177.505 139.48L172.766 146.304L172.41 146.056L172.711 145.623C172.974 145.245 173.118 144.893 173.144 144.569C173.17 144.339 173.105 144.104 172.949 143.863C172.844 143.685 172.464 143.369 171.81 142.915L163.224 136.952C162.557 136.488 162.115 136.234 161.899 136.189C161.683 136.143 161.439 136.188 161.165 136.321C160.89 136.444 160.625 136.688 160.371 137.054L160.07 137.487L159.714 137.239L164.454 130.415L164.81 130.662L164.509 131.096C164.246 131.474 164.102 131.826 164.076 132.15C164.05 132.38 164.113 132.618 164.264 132.866C164.369 133.043 164.749 133.359 165.403 133.814L173.989 139.777C174.656 140.24 175.098 140.495 175.314 140.54C175.534 140.579 175.782 140.537 176.057 140.414C176.331 140.281 176.594 140.031 176.848 139.665L177.149 139.232ZM182.484 131.551L182.84 131.799L178.1 138.623L177.744 138.376L178.045 137.942C178.308 137.564 178.452 137.212 178.478 136.888C178.504 136.658 178.439 136.423 178.283 136.182C178.178 136.004 177.799 135.688 177.144 135.234L168.558 129.271C167.891 128.807 167.449 128.553 167.234 128.508C167.018 128.463 166.773 128.507 166.5 128.64C166.224 128.763 165.96 129.007 165.706 129.373L165.405 129.806L165.049 129.558L169.788 122.734L170.144 122.982L169.843 123.415C169.58 123.793 169.436 124.145 169.41 124.469C169.384 124.699 169.447 124.937 169.598 125.185C169.703 125.363 170.083 125.679 170.738 126.133L179.323 132.096C179.991 132.559 180.432 132.814 180.648 132.859C180.868 132.898 181.116 132.856 181.392 132.733C181.665 132.6 181.929 132.35 182.183 131.984L182.484 131.551ZM187.818 123.87L188.174 124.118L183.435 130.942L183.079 130.695L183.379 130.262C183.642 129.883 183.787 129.531 183.812 129.207C183.838 128.978 183.773 128.742 183.618 128.501C183.513 128.323 183.133 128.007 182.478 127.553L173.893 121.59C173.225 121.127 172.784 120.872 172.568 120.827C172.352 120.782 172.107 120.826 171.834 120.959C171.559 121.082 171.294 121.326 171.04 121.692L170.739 122.125L170.383 121.878L175.122 115.053L175.479 115.301L175.178 115.734C174.915 116.112 174.771 116.464 174.745 116.789C174.719 117.018 174.781 117.256 174.933 117.504C175.038 117.682 175.417 117.998 176.072 118.452L184.658 124.415C185.325 124.878 185.767 125.133 185.982 125.178C186.203 125.217 186.451 125.175 186.726 125.052C186.999 124.919 187.263 124.669 187.517 124.304L187.818 123.87Z" fill="white"/>
<path d="M221.518 97.6077L221.8 97.937L215.488 103.341L215.206 103.011L215.607 102.668C215.957 102.369 216.185 102.065 216.292 101.757C216.376 101.542 216.372 101.298 216.283 101.025C216.226 100.827 215.939 100.425 215.42 99.8198L208.622 91.8795C208.093 91.2623 207.73 90.9045 207.533 90.8061C207.336 90.7077 207.088 90.6885 206.789 90.7485C206.492 90.7975 206.174 90.9668 205.836 91.2564L205.435 91.5994L205.153 91.27L211.465 85.8663L211.747 86.1957L211.346 86.5386C210.996 86.8384 210.767 87.1421 210.66 87.4496C210.577 87.6648 210.578 87.9114 210.661 88.1894C210.718 88.3877 211.005 88.7895 211.524 89.3949L218.322 97.3352C218.851 97.9524 219.214 98.3101 219.411 98.4086C219.614 98.5019 219.865 98.524 220.162 98.4751C220.46 98.4151 220.779 98.2402 221.117 97.9506L221.518 97.6077ZM223.868 83.9016L231.427 85.9916C232.68 86.338 233.498 86.5012 233.882 86.481C234.267 86.4499 234.635 86.3149 234.986 86.0762L235.268 86.4055L229.384 91.4434L229.102 91.1141C229.54 90.677 229.782 90.3467 229.827 90.123C229.872 89.8993 229.828 89.7103 229.696 89.556C229.605 89.4492 229.503 89.372 229.39 89.3245C229.155 89.2176 228.662 89.0631 227.913 88.8611L223.918 87.7619L224.003 91.5917C224.036 92.7467 224.156 93.4459 224.364 93.6892C224.512 93.8613 224.72 93.9606 224.99 93.987C225.259 94.0134 225.561 93.9398 225.896 93.7663C226.051 93.6952 226.321 93.4945 226.707 93.1643L226.989 93.4936L222.351 97.4645L222.069 97.1351C222.532 96.6058 222.825 96.1076 222.95 95.6408C223.114 95.0274 223.181 93.9826 223.151 92.5064L223.046 87.5365L216.111 85.6528C214.971 85.3428 214.33 85.1768 214.188 85.1547C213.86 85.0961 213.583 85.0913 213.358 85.1403C213.132 85.1893 212.865 85.3099 212.557 85.5021L212.275 85.1727L218.266 80.0434L218.548 80.3728L218.245 80.6319C217.901 80.9266 217.709 81.1888 217.669 81.4184C217.624 81.6421 217.672 81.837 217.815 82.0032C217.926 82.1337 218.044 82.2287 218.166 82.2881L219.573 82.688L223.02 83.6864L222.959 81.0387C222.926 79.6786 222.772 78.8383 222.498 78.5179C222.361 78.3577 222.186 78.2499 221.974 78.1947C221.768 78.1345 221.546 78.1394 221.308 78.2096C221.07 78.2798 220.77 78.4699 220.408 78.7799L220.126 78.4505L224.568 74.6473L224.85 74.9767C224.505 75.2824 224.261 75.5683 224.119 75.8343C223.971 76.0943 223.87 76.4383 223.814 76.8662C223.782 77.1407 223.775 77.9131 223.793 79.1834L223.868 83.9016Z" fill="white"/>
<path d="M273.968 54.8532L280.665 58.9353C281.775 59.612 282.517 59.9932 282.892 60.0791C283.27 60.1546 283.661 60.1257 284.064 59.9923L284.245 60.3863L277.205 63.6182L277.025 63.2242C277.566 62.9241 277.889 62.6726 277.993 62.4699C278.098 62.2671 278.108 62.0734 278.023 61.8888C277.965 61.761 277.888 61.6588 277.792 61.5822C277.595 61.4149 277.164 61.1313 276.499 60.7317L272.958 58.5793L271.99 62.2859C271.705 63.4056 271.629 64.1109 271.763 64.402C271.857 64.6079 272.03 64.7605 272.282 64.8598C272.534 64.9591 272.845 64.9711 273.214 64.896C273.383 64.8702 273.698 64.7513 274.16 64.5394L274.341 64.9335L268.792 67.4809L268.611 67.0868C269.201 66.7044 269.619 66.3059 269.867 65.8911C270.193 65.3461 270.544 64.3597 270.92 62.932L272.181 58.1235L266.028 54.4108C265.017 53.8004 264.446 53.4651 264.315 53.4048C264.016 53.2585 263.751 53.178 263.521 53.1634C263.291 53.1487 263.001 53.1915 262.652 53.2918L262.471 52.8977L269.638 49.6071L269.819 50.0012L269.457 50.1674C269.045 50.3565 268.789 50.5559 268.687 50.7658C268.583 50.9686 268.576 51.1693 268.667 51.3681C268.739 51.5243 268.826 51.6478 268.928 51.7386L270.171 52.5088L273.212 54.4138L273.879 51.8509C274.22 50.5338 274.302 49.6836 274.126 49.3002C274.038 49.1085 273.9 48.9571 273.712 48.8459C273.53 48.7315 273.315 48.6754 273.067 48.6777C272.819 48.6799 272.478 48.7804 272.045 48.9793L271.864 48.5852L277.178 46.1454L277.359 46.5394C276.944 46.7388 276.631 46.9469 276.421 47.1637C276.208 47.3733 276.016 47.6763 275.845 48.0727C275.739 48.3278 275.52 49.0686 275.189 50.2951L273.968 54.8532Z" fill="white"/>
<path d="M634.179 212.847L633.765 212.976C633.503 212.453 633.055 212.052 632.42 211.776C631.949 211.579 630.927 211.387 629.354 211.199L616.134 209.597L616.019 209.228L626.451 200.259C627.71 199.178 628.432 198.49 628.618 198.194C628.806 197.906 628.842 197.457 628.725 196.847L629.139 196.718L631.41 203.988L630.997 204.118L630.92 203.872C630.715 203.215 630.493 202.794 630.254 202.606C630.089 202.47 629.898 202.435 629.682 202.503C629.547 202.545 629.396 202.625 629.229 202.742C629.068 202.858 628.643 203.212 627.952 203.804L621.412 209.396L629.071 210.293C629.996 210.397 630.609 210.447 630.91 210.443C631.212 210.439 631.46 210.406 631.654 210.346C631.877 210.276 632.056 210.154 632.191 209.982C632.325 209.809 632.4 209.593 632.418 209.333C632.444 208.973 632.375 208.528 632.209 207.999L632.623 207.87L634.179 212.847Z" fill="white"/>
<path d="M641.949 294.358L641.516 294.355C641.425 293.777 641.12 293.259 640.599 292.803C640.21 292.472 639.295 291.979 637.854 291.321L625.747 285.776L625.749 285.389L638.414 280.016C639.942 279.369 640.839 278.933 641.106 278.708C641.373 278.491 641.543 278.074 641.617 277.457L642.051 277.46L642.005 285.077L641.571 285.074L641.573 284.816C641.577 284.129 641.494 283.66 641.324 283.409C641.207 283.228 641.036 283.137 640.81 283.136C640.669 283.135 640.501 283.165 640.305 283.227C640.117 283.288 639.604 283.496 638.766 283.85L630.836 287.189L637.86 290.372C638.709 290.752 639.278 290.986 639.567 291.074C639.855 291.162 640.101 291.206 640.304 291.207C640.538 291.209 640.746 291.147 640.926 291.023C641.107 290.9 641.244 290.717 641.34 290.475C641.474 290.14 641.544 289.695 641.547 289.14L641.981 289.143L641.949 294.358ZM626.438 303.312L626.004 303.309L626.054 295L626.488 295.003L626.485 295.53C626.482 295.991 626.562 296.363 626.724 296.645C626.832 296.849 627.019 297.006 627.284 297.117C627.471 297.204 627.963 297.25 628.76 297.255L639.213 297.318C640.025 297.323 640.533 297.283 640.737 297.198C640.94 297.113 641.117 296.939 641.267 296.674C641.425 296.417 641.505 296.066 641.508 295.621L641.511 295.093L641.945 295.096L641.895 303.405L641.461 303.402L641.464 302.875C641.467 302.414 641.387 302.042 641.225 301.76C641.117 301.556 640.93 301.395 640.665 301.276C640.478 301.189 639.986 301.143 639.19 301.138L628.737 301.075C627.924 301.07 627.416 301.11 627.212 301.195C627.009 301.288 626.828 301.462 626.67 301.719C626.52 301.984 626.444 302.339 626.441 302.784L626.438 303.312Z" fill="white"/>
<path d="M116.213 289.786L116.647 289.789C116.737 290.368 117.042 290.885 117.563 291.341C117.952 291.672 118.867 292.166 120.308 292.823L132.416 298.368L132.413 298.755L119.748 304.128C118.221 304.775 117.323 305.211 117.056 305.436C116.789 305.653 116.619 306.07 116.545 306.687L116.111 306.684L116.157 299.067L116.591 299.07L116.589 299.328C116.585 300.015 116.668 300.484 116.839 300.736C116.955 300.916 117.126 301.007 117.353 301.008C117.493 301.009 117.661 300.979 117.857 300.917C118.045 300.856 118.558 300.648 119.396 300.294L127.326 296.955L120.302 293.772C119.453 293.392 118.884 293.158 118.596 293.07C118.307 292.982 118.061 292.938 117.858 292.937C117.624 292.935 117.416 292.997 117.236 293.121C117.055 293.245 116.918 293.427 116.822 293.669C116.688 294.004 116.619 294.449 116.615 295.004L116.182 295.001L116.213 289.786ZM131.724 280.832L132.158 280.835L132.108 289.144L131.674 289.141L131.677 288.614C131.68 288.153 131.6 287.781 131.438 287.499C131.33 287.295 131.143 287.138 130.878 287.027C130.691 286.94 130.199 286.894 129.403 286.889L118.95 286.826C118.137 286.821 117.629 286.861 117.425 286.946C117.222 287.031 117.045 287.205 116.895 287.47C116.737 287.727 116.657 288.078 116.654 288.523L116.651 289.051L116.217 289.048L116.267 280.74L116.701 280.742L116.698 281.269C116.695 281.73 116.775 282.102 116.937 282.384C117.045 282.588 117.232 282.749 117.497 282.868C117.684 282.955 118.176 283.001 118.973 283.006L129.425 283.069C130.238 283.074 130.746 283.034 130.95 282.949C131.153 282.856 131.334 282.682 131.492 282.425C131.642 282.16 131.718 281.805 131.721 281.36L131.724 280.832Z" fill="white"/>
<path d="M129.16 205.778L129.574 205.908C129.491 206.488 129.631 207.072 129.996 207.66C130.271 208.09 131.002 208.83 132.188 209.88L142.144 218.724L142.029 219.093L128.346 220.527C126.696 220.699 125.71 220.854 125.389 220.991C125.07 221.12 124.785 221.469 124.534 222.037L124.12 221.908L126.392 214.637L126.806 214.767L126.729 215.013C126.524 215.669 126.466 216.142 126.556 216.432C126.614 216.638 126.751 216.775 126.967 216.843C127.102 216.885 127.271 216.905 127.476 216.904C127.674 216.9 128.225 216.851 129.13 216.758L137.691 215.884L131.905 210.786C131.204 210.174 130.728 209.784 130.478 209.616C130.227 209.447 130.005 209.333 129.811 209.272C129.588 209.203 129.372 209.2 129.163 209.266C128.954 209.332 128.769 209.466 128.607 209.67C128.38 209.951 128.184 210.356 128.018 210.885L127.605 210.756L129.16 205.778ZM146.611 201.753L147.025 201.882L144.547 209.812L144.134 209.683L144.291 209.18C144.428 208.74 144.461 208.361 144.388 208.044C144.344 207.817 144.212 207.612 143.991 207.429C143.837 207.291 143.38 207.103 142.62 206.865L132.642 203.748C131.867 203.506 131.369 203.395 131.15 203.417C130.93 203.438 130.71 203.554 130.489 203.763C130.263 203.962 130.084 204.275 129.951 204.7L129.794 205.203L129.38 205.074L131.858 197.143L132.271 197.272L132.114 197.776C131.977 198.216 131.944 198.594 132.017 198.912C132.061 199.138 132.192 199.347 132.411 199.538C132.564 199.676 133.021 199.864 133.782 200.102L143.759 203.219C144.535 203.461 145.032 203.571 145.252 203.55C145.474 203.521 145.697 203.407 145.923 203.207C146.144 202.998 146.321 202.681 146.454 202.256L146.611 201.753ZM149.4 192.827L149.814 192.956L147.336 200.886L146.922 200.757L147.08 200.254C147.217 199.814 147.249 199.435 147.177 199.118C147.133 198.891 147 198.686 146.78 198.503C146.626 198.365 146.169 198.177 145.409 197.939L135.431 194.822C134.656 194.58 134.158 194.469 133.939 194.491C133.719 194.512 133.499 194.628 133.278 194.837C133.052 195.036 132.872 195.349 132.74 195.774L132.582 196.277L132.169 196.148L134.646 188.217L135.06 188.346L134.903 188.85C134.765 189.29 134.733 189.668 134.806 189.986C134.85 190.212 134.981 190.421 135.199 190.612C135.353 190.75 135.81 190.938 136.57 191.175L146.548 194.293C147.323 194.535 147.821 194.645 148.04 194.624C148.262 194.595 148.486 194.481 148.712 194.281C148.933 194.072 149.11 193.755 149.243 193.33L149.4 192.827Z" fill="white"/>
<path d="M370.613 10.6836L374.996 17.1875C375.723 18.2656 376.238 18.9219 376.543 19.1562C376.855 19.3828 377.223 19.5195 377.645 19.5664V20H369.898V19.5664C370.516 19.5195 370.914 19.4258 371.094 19.2852C371.273 19.1445 371.363 18.9727 371.363 18.7695C371.363 18.6289 371.336 18.5039 371.281 18.3945C371.172 18.1602 370.898 17.7227 370.461 17.082L368.141 13.6484L365.715 16.6133C364.988 17.5117 364.625 18.1211 364.625 18.4414C364.625 18.668 364.719 18.8789 364.906 19.0742C365.094 19.2695 365.371 19.4102 365.738 19.4961C365.902 19.543 366.238 19.5664 366.746 19.5664V20H360.641V19.5664C361.336 19.4648 361.883 19.2773 362.281 19.0039C362.805 18.6445 363.535 17.8945 364.473 16.7539L367.625 12.9102L363.582 6.96875C362.918 5.99219 362.539 5.44922 362.445 5.33984C362.234 5.08203 362.027 4.89844 361.824 4.78906C361.621 4.67969 361.34 4.59766 360.98 4.54297V4.10938H368.867V4.54297H368.469C368.016 4.54297 367.699 4.61719 367.52 4.76562C367.34 4.90625 367.25 5.08594 367.25 5.30469C367.25 5.47656 367.277 5.625 367.332 5.75L368.141 6.96875L370.109 9.96875L371.785 7.91797C372.645 6.86328 373.074 6.125 373.074 5.70312C373.074 5.49219 373.012 5.29687 372.887 5.11719C372.77 4.9375 372.598 4.79688 372.371 4.69531C372.145 4.59375 371.793 4.54297 371.316 4.54297V4.10938H377.164V4.54297C376.703 4.55078 376.332 4.60938 376.051 4.71875C375.77 4.82031 375.469 5.01562 375.148 5.30469C374.945 5.49219 374.438 6.07422 373.625 7.05078L370.613 10.6836ZM386.609 19.5664V20H378.301V19.5664H378.828C379.289 19.5664 379.66 19.4844 379.941 19.3203C380.145 19.2109 380.301 19.0234 380.41 18.7578C380.496 18.5703 380.539 18.0781 380.539 17.2812V6.82812C380.539 6.01563 380.496 5.50781 380.41 5.30469C380.324 5.10156 380.148 4.92578 379.883 4.77734C379.625 4.62109 379.273 4.54297 378.828 4.54297H378.301V4.10938H386.609V4.54297H386.082C385.621 4.54297 385.25 4.625 384.969 4.78906C384.766 4.89844 384.605 5.08594 384.488 5.35156C384.402 5.53906 384.359 6.03125 384.359 6.82812V17.2812C384.359 18.0938 384.402 18.6016 384.488 18.8047C384.582 19.0078 384.758 19.1875 385.016 19.3438C385.281 19.4922 385.637 19.5664 386.082 19.5664H386.609ZM395.961 19.5664V20H387.652V19.5664H388.18C388.641 19.5664 389.012 19.4844 389.293 19.3203C389.496 19.2109 389.652 19.0234 389.762 18.7578C389.848 18.5703 389.891 18.0781 389.891 17.2812V6.82812C389.891 6.01563 389.848 5.50781 389.762 5.30469C389.676 5.10156 389.5 4.92578 389.234 4.77734C388.977 4.62109 388.625 4.54297 388.18 4.54297H387.652V4.10938H395.961V4.54297H395.434C394.973 4.54297 394.602 4.625 394.32 4.78906C394.117 4.89844 393.957 5.08594 393.84 5.35156C393.754 5.53906 393.711 6.03125 393.711 6.82812V17.2812C393.711 18.0938 393.754 18.6016 393.84 18.8047C393.934 19.0078 394.109 19.1875 394.367 19.3438C394.633 19.4922 394.988 19.5664 395.434 19.5664H395.961Z" fill="white"/>
<path d="M320.525 41.3351L326.323 46.617C327.284 47.4925 327.94 48.0081 328.292 48.1637C328.649 48.3099 329.038 48.3558 329.459 48.3015L329.562 48.7228L322.036 50.556L321.933 50.1348C322.522 49.9431 322.886 49.7578 323.028 49.5786C323.169 49.3994 323.216 49.2112 323.168 49.0138C323.134 48.8772 323.078 48.7622 322.999 48.6689C322.837 48.4671 322.468 48.1067 321.892 47.5878L318.825 44.8009L317.169 48.2557C316.676 49.3005 316.467 49.9786 316.543 50.2898C316.597 50.5099 316.738 50.6927 316.966 50.838C317.195 50.9834 317.497 51.0544 317.874 51.051C318.045 51.0577 318.377 51.001 318.87 50.8808L318.973 51.3021L313.041 52.7471L312.938 52.3258C313.59 52.0626 314.077 51.7509 314.399 51.391C314.823 50.9179 315.355 50.0164 315.996 48.6863L318.149 44.2057L312.815 39.3899C311.938 38.5982 311.442 38.1604 311.325 38.0763C311.059 37.8757 310.814 37.7463 310.591 37.6881C310.368 37.6299 310.075 37.6168 309.713 37.6487L309.61 37.2275L317.273 35.3609L317.375 35.7822L316.988 35.8765C316.548 35.9837 316.258 36.1307 316.119 36.3175C315.977 36.4966 315.933 36.6925 315.984 36.905C316.025 37.072 316.087 37.2097 316.17 37.3183L317.244 38.311L319.866 40.7598L321.009 38.3707C321.595 37.1426 321.837 36.3236 321.738 35.9137C321.688 35.7088 321.581 35.5338 321.417 35.3888C321.26 35.242 321.06 35.146 320.816 35.1009C320.572 35.0559 320.218 35.0897 319.755 35.2025L319.652 34.7813L325.334 33.3973L325.437 33.8186C324.991 33.9353 324.644 34.08 324.397 34.2528C324.147 34.4181 323.901 34.679 323.659 35.0357C323.506 35.2659 323.15 35.9516 322.592 37.0927L320.525 41.3351ZM338.169 46.1798L338.272 46.6011L330.199 48.5675L330.097 48.1462L330.609 48.0214C331.057 47.9123 331.398 47.7448 331.632 47.5188C331.804 47.3645 331.911 47.1453 331.955 46.8613C331.994 46.6588 331.919 46.1705 331.73 45.3962L329.257 35.2401C329.064 34.4506 328.902 33.9674 328.771 33.7904C328.639 33.6134 328.427 33.4842 328.134 33.4029C327.846 33.3121 327.486 33.3194 327.053 33.4247L326.541 33.5496L326.438 33.1283L334.511 31.1619L334.614 31.5832L334.101 31.708C333.653 31.8171 333.312 31.9846 333.078 32.2106C332.906 32.3649 332.795 32.585 332.744 32.8708C332.705 33.0733 332.78 33.5617 332.968 34.3359L335.442 44.4921C335.635 45.2815 335.796 45.7647 335.928 45.9417C336.067 46.1169 336.281 46.2499 336.568 46.3407C336.861 46.422 337.224 46.41 337.657 46.3046L338.169 46.1798Z" fill="white"/>
<g filter="url(#filter0_f_47_796)">
<ellipse cx="375.5" cy="379" rx="175.5" ry="51" fill="#0FAD7B"/>
</g>
<path d="M376.685 271.903C370.013 272.812 361.773 266.974 358.488 263.942L360.763 257.118C363.189 263.183 372.388 269.502 376.685 271.903Z" fill="white"/>
<path d="M374.79 271.903C381.462 272.812 389.701 266.974 392.987 263.942L390.712 257.118C388.286 263.183 379.086 269.502 374.79 271.903Z" fill="white"/>
<path d="M375.925 312.467C367.433 283.049 339.279 285.298 326.263 290.1L334.603 330.284H417.626L423.692 290.1C394.88 279.182 379.842 300.462 375.925 312.467Z" fill="#08AC70"/>
<circle cx="330.465" cy="311.003" r="21.3175" fill="#059A64"/>
<circle cx="417.615" cy="311.003" r="21.3175" fill="#059A64"/>
<mask id="mask0_47_796" style="mask-type:alpha" maskUnits="userSpaceOnUse" x="326" y="287" width="98" height="44">
<path d="M375.926 312.466C367.434 283.048 339.28 285.298 326.264 290.099L334.604 330.284H417.627L423.693 290.099C394.881 279.181 379.844 300.461 375.926 312.466Z" fill="#08AC70"/>
</mask>
<g mask="url(#mask0_47_796)">
<path d="M416.537 328.716L402.964 285.975" stroke="#B5E88E" stroke-width="0.689753"/>
<path d="M335.73 328.716L349.302 285.975" stroke="#B5E88E" stroke-width="0.689753"/>
<path d="M416.658 329.21L414.61 284.412" stroke="#B5E88E" stroke-width="0.689753"/>
<path d="M335.61 329.21L337.658 284.412" stroke="#B5E88E" stroke-width="0.689753"/>
<path d="M416.21 328.852L392.038 291.08" stroke="#B5E88E" stroke-width="0.689753"/>
<path d="M336.057 328.852L360.229 291.08" stroke="#B5E88E" stroke-width="0.689753"/>
<path d="M415.058 327.886L380.144 299.447" stroke="#B5E88E" stroke-width="0.689753"/>
<path d="M337.211 327.886L372.125 299.447" stroke="#B5E88E" stroke-width="0.689753"/>
</g>
<path d="M297.453 290.857C307.158 308.144 298.464 317.267 292.904 319.668C271.068 329.07 237.808 325.608 223.908 322.701C224.514 385.48 262.07 411.789 280.772 417.097C283.173 407.998 289.113 386.996 293.662 375.775C298.211 364.554 324.116 337.486 336.5 325.355C342.869 309.888 332.583 294.901 326.643 289.341C321.968 285.297 312.313 275.314 311.1 267.732C309.584 258.254 312.238 249.156 323.231 246.123C334.225 243.09 341.807 251.431 348.252 259.392C353.408 265.761 356.466 265.331 357.35 264.32C359.625 263.941 363.795 255.98 359.246 246.123C354.697 236.267 327.402 219.207 304.656 225.273C281.91 231.338 285.322 269.248 297.453 290.857Z" fill="#E88128"/>
<path d="M454.019 290.857C444.314 308.144 453.008 317.267 458.568 319.668C480.404 329.07 513.664 325.608 527.565 322.701C526.958 385.48 489.402 411.789 470.7 417.097C468.299 407.998 462.36 386.996 457.811 375.775C453.261 364.554 427.356 337.486 414.972 325.355C408.604 309.888 418.89 294.901 424.829 289.341C429.505 285.297 439.159 275.314 440.372 267.732C441.888 258.254 439.235 249.156 428.241 246.123C417.247 243.09 409.665 251.431 403.22 259.392C398.065 265.761 395.007 265.331 394.122 264.32C391.847 263.941 387.677 255.98 392.227 246.123C396.776 236.267 424.07 219.207 446.816 225.273C469.562 231.338 466.15 269.248 454.019 290.857Z" fill="#E88128"/>
<mask id="mask1_47_796" style="mask-type:alpha" maskUnits="userSpaceOnUse" x="390" y="224" width="138" height="194">
<path d="M454.02 290.856C444.315 308.143 453.009 317.267 458.569 319.668C480.405 329.07 513.665 325.607 527.566 322.701C526.959 385.48 489.403 411.789 470.701 417.096C468.3 407.998 462.361 386.996 457.812 375.775C453.262 364.553 427.357 337.486 414.974 325.354C408.605 309.887 418.891 294.9 424.83 289.34C429.506 285.296 439.16 275.313 440.373 267.731C441.89 258.254 439.236 249.156 428.242 246.123C417.248 243.09 409.666 251.43 403.221 259.391C398.066 265.76 395.008 265.331 394.123 264.32C391.848 263.94 387.678 255.979 392.228 246.123C396.777 236.266 424.071 219.207 446.817 225.272C469.563 231.338 466.151 269.248 454.02 290.856Z" fill="#E88128"/>
</mask>
<g mask="url(#mask1_47_796)">
<path d="M461.817 358.339C453.29 339.781 425.87 324.9 413.226 319.78V330.125L468.401 425.427L486.583 414.141C486.834 406.367 482.09 390.211 479.687 383.105C491.223 381.851 491.599 368.162 490.345 361.474C494.421 365.132 503.637 371.318 507.901 366.804C512.164 362.289 510.722 353.219 509.468 349.248C514.735 355.016 525.665 357.713 530.472 358.339L536.742 338.589C514.066 335.664 462.382 328.934 459.623 332.947C456.864 336.959 459.623 350.502 461.817 358.339Z" fill="#A44C00"/>
</g>
<mask id="mask2_47_796" style="mask-type:alpha" maskUnits="userSpaceOnUse" x="223" y="224" width="139" height="194">
<path d="M297.453 290.857C307.158 308.144 298.464 317.268 292.904 319.669C271.068 329.07 237.808 325.608 223.907 322.701C224.514 385.48 262.07 411.79 280.772 417.097C283.173 407.999 289.112 386.997 293.661 375.775C298.211 364.554 324.116 337.486 336.5 325.355C342.868 309.888 332.582 294.901 326.643 289.341C321.967 285.297 312.313 275.314 311.1 267.732C309.584 258.255 312.237 249.156 323.231 246.123C334.225 243.091 341.807 251.431 348.252 259.392C353.407 265.761 356.465 265.331 357.35 264.32C359.625 263.941 363.795 255.98 359.245 246.123C354.696 236.267 327.402 219.207 304.656 225.273C281.91 231.339 285.322 269.248 297.453 290.857Z" fill="#E88128"/>
</mask>
<g mask="url(#mask2_47_796)">
<path d="M291.904 358.34C300.431 339.781 327.851 324.901 340.495 319.781V330.126L285.321 425.428L267.138 414.142C266.887 406.367 271.631 390.212 274.035 383.106C262.498 381.852 262.122 368.163 263.376 361.475C259.301 365.132 250.084 371.319 245.821 366.804C241.557 362.29 242.999 353.22 244.253 349.249C238.986 355.017 228.056 357.713 223.249 358.34L216.979 338.59C239.655 335.664 289.145 328.308 291.904 332.32C294.663 336.333 293.471 350.816 291.904 358.34Z" fill="#A44C00"/>
</g>
<path d="M374.796 317.016C313.708 317.016 279.181 374.2 279.181 416.095L311.052 435.059L375.175 442.413L435.883 435.059L470.411 416.095V413.386C470.411 371.491 435.883 317.016 374.796 317.016Z" fill="#241344"/>
<path d="M374.796 317.016C313.708 317.016 279.181 374.2 279.181 416.095L311.052 435.059L375.175 442.413L435.883 435.059L470.411 416.095V413.386C470.411 371.491 435.883 317.016 374.796 317.016Z" stroke="black"/>
<circle cx="355.076" cy="253.327" r="3.79099" fill="black"/>
<circle cx="355.076" cy="253.327" r="3.79099" stroke="black"/>
<circle cx="3.79099" cy="3.79099" r="3.79099" transform="matrix(-1 0 0 1 400.189 249.536)" fill="black"/>
<circle cx="3.79099" cy="3.79099" r="3.79099" transform="matrix(-1 0 0 1 400.189 249.536)" stroke="black"/>
<mask id="mask3_47_796" style="mask-type:alpha" maskUnits="userSpaceOnUse" x="223" y="224" width="139" height="194">
<path d="M297.453 290.857C307.158 308.144 298.464 317.268 292.904 319.669C271.068 329.07 237.808 325.608 223.907 322.701C224.514 385.48 262.07 411.79 280.772 417.097C283.173 407.999 289.112 386.997 293.661 375.775C298.211 364.554 324.116 337.486 336.5 325.355C342.868 309.888 332.582 294.901 326.643 289.341C321.967 285.297 312.313 275.314 311.1 267.732C309.584 258.255 312.237 249.156 323.231 246.123C334.225 243.091 341.807 251.431 348.252 259.392C353.407 265.761 356.465 265.331 357.35 264.32C359.625 263.941 363.795 255.98 359.245 246.123C354.696 236.267 327.402 219.207 304.656 225.273C281.91 231.339 285.322 269.248 297.453 290.857Z" fill="#E88128"/>
</mask>
<g mask="url(#mask3_47_796)">
<path d="M320.956 283.655L297.831 292.374L300.106 307.159C301.117 308.802 303.745 311.556 306.171 309.433C308.597 307.311 307.182 300.209 306.171 296.923C308.446 301.093 313.374 308.827 314.89 306.401C316.407 303.974 312.995 296.544 311.1 293.132C314.132 296.671 320.577 303.292 322.093 301.472C323.61 299.653 319.945 293.385 317.923 290.479C327.931 300.79 331.95 299.071 332.708 296.923L330.054 289.72L320.956 283.655Z" fill="#C75924"/>
<path d="M310.72 261.288C307.081 263.714 294.838 264.911 288.899 265.29L286.079 268.491L289.87 270.386H311.478L312.236 264.7L310.72 261.288Z" fill="#C75924"/>
<path d="M316.408 249.157L292.904 233.993C287.445 240.665 287.597 247.893 288.355 250.673C289.568 250.673 293.409 244.102 295.179 240.817C292.904 245.745 292.904 254.085 295.179 254.843C296.998 255.45 298.97 250.294 299.728 247.64C298.211 253.403 300.36 255.602 301.623 255.981C305.414 257.118 307.251 248.138 307.31 247.64C306.4 254.616 309.711 257.623 311.48 258.255L316.408 249.157Z" fill="#C75924"/>
<path d="M292.522 319.291C278.875 323.234 241.091 323.208 223.905 322.703C221.757 330.537 217.462 345.07 224.663 348.481C236.796 353.789 246.272 344.185 248.926 339.762C246.651 346.712 243.467 361.068 248.926 362.887C257.721 365.01 265.48 354.673 268.26 349.24C264.09 359.854 265.606 372.744 270.155 371.606C289.868 363.721 293.28 333.444 292.522 319.291Z" fill="#C75924"/>
</g>
<path d="M262.195 335.969C257.014 340.645 247.638 351.285 251.581 356.441C255.523 361.597 260.3 344.941 262.195 335.969Z" fill="#F35F47"/>
<mask id="mask4_47_796" style="mask-type:alpha" maskUnits="userSpaceOnUse" x="390" y="224" width="138" height="194">
<path d="M454.02 290.856C444.315 308.143 453.009 317.267 458.569 319.668C480.405 329.07 513.665 325.607 527.566 322.701C526.959 385.48 489.403 411.789 470.701 417.096C468.3 407.998 462.361 386.996 457.812 375.775C453.262 364.553 427.357 337.486 414.974 325.354C408.605 309.887 418.891 294.9 424.83 289.34C429.506 285.296 439.16 275.313 440.373 267.731C441.89 258.254 439.236 249.156 428.242 246.123C417.248 243.09 409.666 251.43 403.221 259.391C398.066 265.76 395.008 265.331 394.123 264.32C391.848 263.94 387.678 255.979 392.228 246.123C396.777 236.266 424.071 219.207 446.817 225.272C469.563 231.338 466.151 269.248 454.02 290.856Z" fill="#E88128"/>
</mask>
<g mask="url(#mask4_47_796)">
<path d="M458.95 319.29C472.597 323.233 510.381 323.208 527.567 322.702C529.715 330.537 534.01 345.069 526.808 348.481C514.676 353.788 505.2 344.185 502.546 339.762C504.821 346.712 508.005 361.067 502.546 362.887C493.751 365.01 485.992 354.673 483.212 349.239C487.382 359.854 485.866 372.743 481.317 371.606C461.603 363.721 458.192 333.443 458.95 319.29Z" fill="#C75924"/>
<path d="M440.751 261.287C444.39 263.713 457.179 265.078 463.118 265.457L465.392 268.49L461.601 270.386H439.993L439.235 264.699L440.751 261.287Z" fill="#C75924"/>
<path d="M435.065 249.156L458.569 233.992C464.028 240.665 463.876 247.893 463.118 250.673C461.905 250.673 458.064 244.102 456.294 240.816C458.569 245.744 458.569 254.085 456.294 254.843C454.475 255.449 452.503 250.294 451.745 247.64C453.262 253.402 451.113 255.601 449.85 255.98C446.059 257.117 444.222 248.137 444.163 247.64C445.073 254.615 441.762 257.623 439.993 258.255L435.065 249.156Z" fill="#C75924"/>
<path d="M430.516 283.654L453.641 292.374L451.366 307.158C450.355 308.801 447.727 311.556 445.301 309.433C442.874 307.31 444.29 300.208 445.301 296.923C443.026 301.093 438.098 308.826 436.581 306.4C435.065 303.974 438.477 296.544 440.372 293.132C437.34 296.67 430.895 303.292 429.379 301.472C427.862 299.652 431.527 293.384 433.549 290.478C423.54 300.79 419.522 299.071 418.764 296.923L421.417 289.72L430.516 283.654Z" fill="#C75924"/>
</g>
<path d="M489.276 335.969C494.457 340.645 503.833 351.285 499.891 356.441C495.948 361.597 491.171 344.941 489.276 335.969Z" fill="#F35F47"/>
<path d="M280.061 338.777C275.992 344.447 266.651 359.806 272.809 361.369C279.1 362.966 280.116 347.947 280.061 338.777Z" fill="#F35F47"/>
<path d="M471.413 338.777C475.482 344.447 484.822 359.806 478.664 361.369C472.373 362.966 471.358 347.947 471.413 338.777Z" fill="#F35F47"/>
<path d="M243.734 327.607C238.707 331.79 226.807 343.264 232.858 345.038C239.04 346.849 242.383 334.937 243.734 327.607Z" fill="#F35F47"/>
<path d="M507.741 327.607C512.768 331.79 524.668 343.264 518.617 345.038C512.436 346.849 509.093 334.937 507.741 327.607Z" fill="#F35F47"/>
<path d="M252.552 335.23C252.038 336.376 250.847 336.957 249.892 336.529C248.936 336.1 248.579 334.823 249.094 333.677C249.608 332.531 250.799 331.95 251.754 332.378C252.709 332.807 253.067 334.084 252.552 335.23Z" fill="#F5E994"/>
<path d="M252.552 335.23C252.038 336.376 250.847 336.957 249.892 336.529C248.936 336.1 248.579 334.823 249.094 333.677C249.608 332.531 250.799 331.95 251.754 332.378C252.709 332.807 253.067 334.084 252.552 335.23Z" stroke="black"/>
<path d="M498.922 335.23C499.437 336.376 500.628 336.957 501.583 336.529C502.538 336.1 502.895 334.823 502.381 333.677C501.866 332.531 500.675 331.95 499.72 332.378C498.765 332.807 498.408 334.084 498.922 335.23Z" fill="#F5E994"/>
<path d="M498.922 335.23C499.437 336.376 500.628 336.957 501.583 336.529C502.538 336.1 502.895 334.823 502.381 333.677C501.866 332.531 500.675 331.95 499.72 332.378C498.765 332.807 498.408 334.084 498.922 335.23Z" stroke="black"/>
<path d="M271.599 343.322C271.249 344.528 270.15 345.27 269.145 344.978C268.14 344.686 267.609 343.472 267.959 342.265C268.309 341.059 269.408 340.317 270.413 340.609C271.418 340.901 271.95 342.115 271.599 343.322Z" fill="#F5E994"/>
<path d="M271.599 343.322C271.249 344.528 270.15 345.27 269.145 344.978C268.14 344.686 267.609 343.472 267.959 342.265C268.309 341.059 269.408 340.317 270.413 340.609C271.418 340.901 271.95 342.115 271.599 343.322Z" stroke="black"/>
<path d="M479.874 343.322C480.224 344.528 481.323 345.27 482.328 344.978C483.334 344.686 483.865 343.472 483.515 342.265C483.164 341.059 482.066 340.317 481.06 340.609C480.055 340.901 479.524 342.115 479.874 343.322Z" fill="#F5E994"/>
<path d="M479.874 343.322C480.224 344.528 481.323 345.27 482.328 344.978C483.334 344.686 483.865 343.472 483.515 342.265C483.164 341.059 482.066 340.317 481.06 340.609C480.055 340.901 479.524 342.115 479.874 343.322Z" stroke="black"/>
<path d="M371.457 388.115C204.514 388.115 67.531 286.646 67.531 286.646C62.6113 295.927 60.4235 306.412 61.2214 316.886L80.0975 564.659H371.457H670.963L687.894 317.034C688.616 306.47 686.284 295.921 681.175 286.646C681.175 286.646 538.4 388.115 371.457 388.115Z" fill="#1C0F35"/>
<path d="M106.811 471.85C107.633 469.659 109.436 467.057 110.235 466.03C108.865 465.117 105.647 462.537 103.73 459.524C101.812 456.511 99.5067 456.214 98.5937 456.443C95.5122 459.524 104.072 464.66 103.387 464.66C102.702 464.66 97.2241 464.318 97.2241 467.057C97.2241 469.248 100.876 470.252 102.702 470.481C101.675 470.481 98.2513 475.959 100.648 477.329C103.045 478.698 105.784 474.589 106.811 471.85Z" fill="#084150"/>
<path d="M99.622 421.861C93.8699 458.018 113.204 462.492 123.589 460.209C129.068 441.378 118.453 432.133 115.029 430.764C112.29 429.668 103.616 424.372 99.622 421.861Z" fill="#08905C"/>
<path d="M123.588 462.263C113.658 467.513 95.8539 482.533 104.071 500.611C113.43 499.241 130.435 489.654 123.588 462.263Z" fill="#08905C"/>
<mask id="mask5_47_796" style="mask-type:alpha" maskUnits="userSpaceOnUse" x="98" y="421" width="28" height="40">
<path d="M99.6225 421.861C93.8703 458.017 113.204 462.491 123.59 460.209C129.069 441.377 118.454 432.133 115.03 430.763C112.291 429.667 103.617 424.372 99.6225 421.861Z" fill="#08905C"/>
</mask>
<g mask="url(#mask5_47_796)">
<path d="M124.619 461.785L96.958 421.86" stroke="#8EB96D" stroke-width="0.83878"/>
<path d="M107.366 436.897L106.753 422.267" stroke="#8EB96D" stroke-width="0.83878"/>
<path d="M112.649 444.213L113.185 426.71" stroke="#8EB96D" stroke-width="0.83878"/>
<path d="M116.783 450.574L119.158 432.072" stroke="#8EB96D" stroke-width="0.83878"/>
<path d="M120.692 456.473L123.603 438.2" stroke="#8EB96D" stroke-width="0.83878"/>
<path d="M120.693 455.824L103.842 455.358" stroke="#8EB96D" stroke-width="0.83878"/>
<path d="M115.483 448.457L98.6321 447.991" stroke="#8EB96D" stroke-width="0.83878"/>
<path d="M111.424 442.566L96.4107 442.03" stroke="#8EB96D" stroke-width="0.83878"/>
<path d="M104.79 433.372L95.8745 432.686" stroke="#8EB96D" stroke-width="0.83878"/>
</g>
<mask id="mask6_47_796" style="mask-type:alpha" maskUnits="userSpaceOnUse" x="101" y="462" width="25" height="39">
<path d="M123.589 462.262C113.66 467.512 95.8554 482.531 104.073 500.61C113.431 499.24 130.436 489.653 123.589 462.262Z" fill="#08905C"/>
</mask>
<g mask="url(#mask6_47_796)">
<path d="M123.221 462.894L99.6152 505.343" stroke="#8EB96D" stroke-width="0.83878"/>
<path d="M108.509 489.364L95.6536 496.375" stroke="#8EB96D" stroke-width="0.83878"/>
<path d="M112.741 481.395L96.8006 488.643" stroke="#8EB96D" stroke-width="0.83878"/>
<path d="M116.622 474.875L98.9724 480.915" stroke="#8EB96D" stroke-width="0.83878"/>
<path d="M120.189 468.764L102.509 474.221" stroke="#8EB96D" stroke-width="0.83878"/>
<path d="M119.605 469.05L126.628 484.374" stroke="#8EB96D" stroke-width="0.83878"/>
<path d="M115.296 476.976L122.319 492.301" stroke="#8EB96D" stroke-width="0.83878"/>
<path d="M111.803 483.221L117.952 496.928" stroke="#8EB96D" stroke-width="0.83878"/>
<path d="M106.484 493.233L109.805 501.535" stroke="#8EB96D" stroke-width="0.83878"/>
</g>
<path d="M103.045 510.54C90.4446 519.579 104.186 534.85 112.632 541.355C115.645 538.068 119.137 526.975 120.507 521.839C121.42 517.388 122.15 508.143 117.768 506.774C113.385 505.404 110.92 512.366 110.235 516.018C109.413 510.54 105.099 510.083 103.045 510.54Z" fill="#0FAD7B"/>
<mask id="mask7_47_796" style="mask-type:alpha" maskUnits="userSpaceOnUse" x="97" y="506" width="25" height="36">
<path d="M103.044 510.539C90.4438 519.578 104.185 534.848 112.631 541.354C115.644 538.067 119.136 526.973 120.506 521.837C121.419 517.386 122.149 508.142 117.767 506.772C113.384 505.403 110.919 512.365 110.234 516.017C109.412 510.539 105.098 510.082 103.044 510.539Z" fill="#0FAD7B"/>
</mask>
<g mask="url(#mask7_47_796)">
<path d="M112.045 545.814L109.666 499.121" stroke="#8EB96D" stroke-width="0.807392"/>
<path d="M110.551 516.702L117.47 504.422" stroke="#8EB96D" stroke-width="0.807392"/>
<path d="M111.165 525.367L120.482 511.319" stroke="#8EB96D" stroke-width="0.807392"/>
<path d="M111.321 532.668L122.649 518.735" stroke="#8EB96D" stroke-width="0.807392"/>
<path d="M111.525 539.476L123.175 526.003" stroke="#8EB96D" stroke-width="0.807392"/>
<path d="M111.855 538.944L98.3059 530.016" stroke="#8EB96D" stroke-width="0.807392"/>
<path d="M111.33 530.277L97.7809 521.349" stroke="#8EB96D" stroke-width="0.807392"/>
<path d="M110.997 523.397L98.9866 515.343" stroke="#8EB96D" stroke-width="0.807392"/>
<path d="M110.234 512.511L103.289 507.427" stroke="#8EB96D" stroke-width="0.807392"/>
</g>
<path d="M640.008 469.764C639.186 467.573 637.383 464.971 636.584 463.943C637.953 463.03 641.172 460.451 643.089 457.438C645.007 454.425 647.312 454.128 648.225 454.356C651.307 457.438 642.747 462.574 643.432 462.574C644.116 462.574 649.595 462.231 649.595 464.971C649.595 467.162 645.942 468.166 644.116 468.394C645.144 468.394 648.567 473.873 646.171 475.242C643.774 476.612 641.035 472.503 640.008 469.764Z" fill="#084150"/>
<path d="M647.198 419.776C652.95 455.932 633.616 460.406 623.23 458.124C617.751 439.292 628.366 430.047 631.79 428.678C634.529 427.582 643.203 422.287 647.198 419.776Z" fill="#08905C"/>
<path d="M623.231 460.177C633.161 465.427 650.965 480.446 642.748 498.525C633.389 497.155 616.384 487.568 623.231 460.177Z" fill="#08905C"/>
<mask id="mask8_47_796" style="mask-type:alpha" maskUnits="userSpaceOnUse" x="621" y="419" width="28" height="40">
<path d="M647.199 419.776C652.952 455.932 633.618 460.406 623.232 458.124C617.753 439.292 628.368 430.047 631.792 428.678C634.531 427.582 643.205 422.287 647.199 419.776Z" fill="#08905C"/>
</mask>
<g mask="url(#mask8_47_796)">
<path d="M622.204 459.701L649.865 419.776" stroke="#8EB96D" stroke-width="0.83878"/>
<path d="M639.458 434.814L640.071 420.184" stroke="#8EB96D" stroke-width="0.83878"/>
<path d="M634.174 442.129L633.638 424.626" stroke="#8EB96D" stroke-width="0.83878"/>
<path d="M630.038 448.491L627.663 429.988" stroke="#8EB96D" stroke-width="0.83878"/>
<path d="M626.13 454.389L623.219 436.116" stroke="#8EB96D" stroke-width="0.83878"/>
<path d="M626.13 453.74L642.981 453.274" stroke="#8EB96D" stroke-width="0.83878"/>
<path d="M631.338 446.373L648.189 445.907" stroke="#8EB96D" stroke-width="0.83878"/>
<path d="M635.4 440.481L650.413 439.945" stroke="#8EB96D" stroke-width="0.83878"/>
<path d="M642.032 431.288L650.947 430.602" stroke="#8EB96D" stroke-width="0.83878"/>
</g>
<mask id="mask9_47_796" style="mask-type:alpha" maskUnits="userSpaceOnUse" x="621" y="460" width="24" height="39">
<path d="M623.23 460.177C633.16 465.427 650.964 480.447 642.747 498.525C633.388 497.156 616.383 487.569 623.23 460.177Z" fill="#08905C"/>
</mask>
<g mask="url(#mask9_47_796)">
<path d="M623.601 460.813L647.207 503.261" stroke="#8EB96D" stroke-width="0.83878"/>
<path d="M638.312 487.282L651.168 494.293" stroke="#8EB96D" stroke-width="0.83878"/>
<path d="M634.08 479.313L650.021 486.561" stroke="#8EB96D" stroke-width="0.83878"/>
<path d="M630.199 472.792L647.848 478.832" stroke="#8EB96D" stroke-width="0.83878"/>
<path d="M626.632 466.681L644.312 472.139" stroke="#8EB96D" stroke-width="0.83878"/>
<path d="M627.215 466.969L620.191 482.293" stroke="#8EB96D" stroke-width="0.83878"/>
<path d="M631.525 474.893L624.502 490.218" stroke="#8EB96D" stroke-width="0.83878"/>
<path d="M635.017 481.139L628.869 494.846" stroke="#8EB96D" stroke-width="0.83878"/>
<path d="M640.338 491.15L637.017 499.452" stroke="#8EB96D" stroke-width="0.83878"/>
</g>
<path d="M643.772 508.454C656.372 517.493 642.631 532.764 634.185 539.269C631.172 535.982 627.679 524.889 626.31 519.753C625.397 515.302 624.666 506.057 629.049 504.687C633.432 503.318 635.897 510.28 636.582 513.932C637.403 508.454 641.718 507.997 643.772 508.454Z" fill="#0FAD7B"/>
<mask id="mask10_47_796" style="mask-type:alpha" maskUnits="userSpaceOnUse" x="625" y="504" width="24" height="36">
<path d="M643.77 508.453C656.37 517.492 642.628 532.763 634.183 539.269C631.17 535.982 627.677 524.888 626.308 519.752C625.395 515.301 624.664 506.056 629.047 504.687C633.429 503.317 635.895 510.279 636.579 513.932C637.401 508.453 641.715 507.997 643.77 508.453Z" fill="#0FAD7B"/>
</mask>
<g mask="url(#mask10_47_796)">
<path d="M634.77 543.728L637.149 497.036" stroke="#8EB96D" stroke-width="0.807392"/>
<path d="M636.261 514.617L629.342 502.337" stroke="#8EB96D" stroke-width="0.807392"/>
<path d="M635.651 523.281L626.334 509.234" stroke="#8EB96D" stroke-width="0.807392"/>
<path d="M635.493 530.583L624.166 516.65" stroke="#8EB96D" stroke-width="0.807392"/>
<path d="M635.29 537.39L623.64 523.917" stroke="#8EB96D" stroke-width="0.807392"/>
<path d="M634.96 536.859L648.509 527.93" stroke="#8EB96D" stroke-width="0.807392"/>
<path d="M635.483 528.191L649.033 519.263" stroke="#8EB96D" stroke-width="0.807392"/>
<path d="M635.819 521.312L647.83 513.258" stroke="#8EB96D" stroke-width="0.807392"/>
<path d="M636.579 510.427L643.525 505.343" stroke="#8EB96D" stroke-width="0.807392"/>
</g>
<g filter="url(#filter1_d_47_796)">
<path d="M88.8058 363.039L93.1492 385.945L83.6125 386.147L88.8058 363.039Z" fill="url(#paint0_linear_47_796)"/>
<path d="M88.8058 363.039L102.348 383.43L93.1492 385.945L88.8058 363.039Z" fill="url(#paint1_linear_47_796)"/>
<path d="M88.8058 363.039L109.873 378.087L102.348 383.43L88.8058 363.039Z" fill="url(#paint2_linear_47_796)"/>
<path d="M109.871 378.087L105.8 394.361L102.347 383.43L109.871 378.087Z" fill="url(#paint3_linear_47_796)"/>
<path d="M105.8 394.362L88.9036 393.924L93.15 385.946L105.8 394.362Z" fill="url(#paint4_linear_47_796)"/>
<path d="M105.8 394.362L93.1498 385.945L102.348 383.431L105.8 394.362Z" fill="url(#paint5_linear_47_796)"/>
<path d="M93.1506 385.947L88.9318 393.912L83.6122 386.148L93.1506 385.947Z" fill="url(#paint6_linear_47_796)"/>
</g>
<g filter="url(#filter2_d_47_796)">
<path d="M654.148 361.904L644.018 382.903L636.231 377.394L654.148 361.904Z" fill="url(#paint7_linear_47_796)"/>
<path d="M654.148 361.904L652.909 386.351L644.018 382.903L654.148 361.904Z" fill="url(#paint8_linear_47_796)"/>
<path d="M654.148 361.904L662.136 386.53L652.909 386.351L654.148 361.904Z" fill="url(#paint9_linear_47_796)"/>
<path d="M662.134 386.531L649.184 397.193L652.908 386.352L662.134 386.531Z" fill="url(#paint10_linear_47_796)"/>
<path d="M649.183 397.191L635.859 386.792L644.018 382.902L649.183 397.191Z" fill="url(#paint11_linear_47_796)"/>
<path d="M649.184 397.192L644.019 382.903L652.909 386.351L649.184 397.192Z" fill="url(#paint12_linear_47_796)"/>
<path d="M644.02 382.904L635.891 386.799L636.231 377.394L644.02 382.904Z" fill="url(#paint13_linear_47_796)"/>
</g>
<defs>
<filter id="filter0_f_47_796" x="0" y="128" width="751" height="502" filterUnits="userSpaceOnUse" color-interpolation-filters="sRGB">
<feFlood flood-opacity="0" result="BackgroundImageFix"/>
<feBlend mode="normal" in="SourceGraphic" in2="BackgroundImageFix" result="shape"/>
<feGaussianBlur stdDeviation="100" result="effect1_foregroundBlur_47_796"/>
</filter>
<filter id="filter1_d_47_796" x="79.2817" y="362.474" width="34.9215" height="39.9844" filterUnits="userSpaceOnUse" color-interpolation-filters="sRGB">
<feFlood flood-opacity="0" result="BackgroundImageFix"/>
<feColorMatrix in="SourceAlpha" type="matrix" values="0 0 0 0 0 0 0 0 0 0 0 0 0 0 0 0 0 0 127 0" result="hardAlpha"/>
<feOffset dy="3.76572"/>
<feGaussianBlur stdDeviation="2.16529"/>
<feComposite in2="hardAlpha" operator="out"/>
<feColorMatrix type="matrix" values="0 0 0 0 0.960784 0 0 0 0 0.760784 0 0 0 0 0.466667 0 0 0 0.19 0"/>
<feBlend mode="normal" in2="BackgroundImageFix" result="effect1_dropShadow_47_796"/>
<feBlend mode="normal" in="SourceGraphic" in2="effect1_dropShadow_47_796" result="shape"/>
</filter>
<filter id="filter2_d_47_796" x="631.528" y="361.339" width="34.9386" height="43.9502" filterUnits="userSpaceOnUse" color-interpolation-filters="sRGB">
<feFlood flood-opacity="0" result="BackgroundImageFix"/>
<feColorMatrix in="SourceAlpha" type="matrix" values="0 0 0 0 0 0 0 0 0 0 0 0 0 0 0 0 0 0 127 0" result="hardAlpha"/>
<feOffset dy="3.76572"/>
<feGaussianBlur stdDeviation="2.16529"/>
<feComposite in2="hardAlpha" operator="out"/>
<feColorMatrix type="matrix" values="0 0 0 0 0.94902 0 0 0 0 0.67451 0 0 0 0 0.266667 0 0 0 0.22 0"/>
<feBlend mode="normal" in2="BackgroundImageFix" result="effect1_dropShadow_47_796"/>
<feBlend mode="normal" in="SourceGraphic" in2="effect1_dropShadow_47_796" result="shape"/>
</filter>
<linearGradient id="paint0_linear_47_796" x1="88.4238" y1="372.215" x2="91.5064" y2="397.548" gradientUnits="userSpaceOnUse">
<stop offset="0.22078" stop-color="#F1AC44"/>
<stop offset="0.813447" stop-color="white"/>
<stop offset="1" stop-color="#F1AC44" stop-opacity="0"/>
</linearGradient>
<linearGradient id="paint1_linear_47_796" x1="95.1636" y1="383.669" x2="87.6614" y2="360.903" gradientUnits="userSpaceOnUse">
<stop stop-color="#F0AB43"/>
<stop offset="1" stop-color="white"/>
</linearGradient>
<linearGradient id="paint2_linear_47_796" x1="98.0535" y1="363.697" x2="102.344" y2="383.665" gradientUnits="userSpaceOnUse">
<stop offset="0.388035" stop-color="#F1AC44"/>
<stop offset="1" stop-color="white"/>
</linearGradient>
<linearGradient id="paint3_linear_47_796" x1="108.441" y1="380.725" x2="95.0364" y2="385.739" gradientUnits="userSpaceOnUse">
<stop stop-color="#F0AB43"/>
<stop offset="1" stop-color="white"/>
</linearGradient>
<linearGradient id="paint4_linear_47_796" x1="99.4601" y1="393.32" x2="88.0317" y2="382.098" gradientUnits="userSpaceOnUse">
<stop offset="0.140194" stop-color="#F1AC44"/>
<stop offset="1" stop-color="white"/>
</linearGradient>
<linearGradient id="paint5_linear_47_796" x1="94.8722" y1="393.129" x2="109.031" y2="374.685" gradientUnits="userSpaceOnUse">
<stop offset="0.193643" stop-color="#F1AC44"/>
<stop offset="0.794347" stop-color="white"/>
</linearGradient>
<linearGradient id="paint6_linear_47_796" x1="81.9872" y1="390.643" x2="95.4662" y2="385.371" gradientUnits="userSpaceOnUse">
<stop offset="0.201632" stop-color="#F2B352"/>
<stop offset="1" stop-color="white"/>
</linearGradient>
<linearGradient id="paint7_linear_47_796" x1="648.384" y1="369.055" x2="635.797" y2="391.255" gradientUnits="userSpaceOnUse">
<stop offset="0.22078" stop-color="#F1AC44"/>
<stop offset="0.813447" stop-color="white"/>
<stop offset="1" stop-color="#F1AC44" stop-opacity="0"/>
</linearGradient>
<linearGradient id="paint8_linear_47_796" x1="646.991" y1="382.271" x2="654.498" y2="359.506" gradientUnits="userSpaceOnUse">
<stop stop-color="#F0AB43"/>
<stop offset="1" stop-color="white"/>
</linearGradient>
<linearGradient id="paint9_linear_47_796" x1="661.191" y1="367.933" x2="652.766" y2="386.538" gradientUnits="userSpaceOnUse">
<stop offset="0.388035" stop-color="#F1AC44"/>
<stop offset="1" stop-color="white"/>
</linearGradient>
<linearGradient id="paint10_linear_47_796" x1="659.415" y1="387.801" x2="645.657" y2="383.861" gradientUnits="userSpaceOnUse">
<stop stop-color="#F0AB43"/>
<stop offset="1" stop-color="white"/>
</linearGradient>
<linearGradient id="paint11_linear_47_796" x1="644.705" y1="392.584" x2="642.191" y2="376.765" gradientUnits="userSpaceOnUse">
<stop offset="0.140194" stop-color="#F1AC44"/>
<stop offset="1" stop-color="white"/>
</linearGradient>
<linearGradient id="paint12_linear_47_796" x1="641.131" y1="389.703" x2="663.483" y2="383.294" gradientUnits="userSpaceOnUse">
<stop offset="0.193643" stop-color="#F1AC44"/>
<stop offset="0.794347" stop-color="white"/>
</linearGradient>
<linearGradient id="paint13_linear_47_796" x1="632.252" y1="380.041" x2="646.224" y2="383.818" gradientUnits="userSpaceOnUse">
<stop offset="0.201632" stop-color="#F2B352"/>
<stop offset="1" stop-color="white"/>
</linearGradient>
</defs>
</svg>
